<?xml version="1.0" encoding="utf-8"?>
<!-- Generator: Adobe Illustrator 16.2.1, SVG Export Plug-In . SVG Version: 6.00 Build 0)  -->
<!DOCTYPE svg PUBLIC "-//W3C//DTD SVG 1.1//EN" "http://www.w3.org/Graphics/SVG/1.1/DTD/svg11.dtd">
<svg version="1.1" id="Layer_2_1_" xmlns="http://www.w3.org/2000/svg" xmlns:xlink="http://www.w3.org/1999/xlink" x="0px" y="0px"
	 width="400px" height="400px" viewBox="0 0 400 400" enable-background="new 0 0 400 400" xml:space="preserve">
<g>
	<path fill="#FFFFFF" d="M386.039,158.571c-1.82,0.55-3.81,1.019-6.155,1.148c4.142-3.082,7.644-7.58,7.644-12.36
		c0-0.105,0-0.202,0-0.324l-0.072-2.467l-2.014,1.456c-1.764,1.286-5,2.297-8.551,2.799c3.98-3.688,5.178-7.498,5.809-13.201
		l0.331-3.082l-2.442,1.917c-3.818,2.969-7.539,4.643-11.689,5.371c1.967-3.139,2.985-6.14,2.985-9.019
		c0-1.99-0.478-3.915-1.399-5.808l-1.084-2.176l-1.229,2.095c-2.903,4.942-7.522,8.866-12.618,11.025
		c0.088-0.671,0.178-1.359,0.178-2.135c0-4.473-1.715-10.443-7.83-15.417l-1.966-1.594l-0.17,2.524
		c-0.518,7.434-3.122,10.475-7.474,15.506l-0.179,0.227c-3.235,3.737-14.317,10.92-52.319,16.954
		c-14.107,2.241-43.348,4.263-51.057,4.061c-3.818-0.089-6.471-1.294-8.186-3.567c0.541-0.534,2.216-2.208,2.216-2.208l-1.278-0.897
		c-1.318-0.931-2.54-1.659-4.238-2.629l1.617-1.618l-1.285-0.89c-5.841-4.069-13.735-6.398-21.658-6.398
		c-7.92,0-15.807,2.33-21.658,6.398l-1.283,0.89c0,0,1.404,1.408,1.61,1.618c-1.687,0.97-2.912,1.698-4.23,2.629l-1.282,0.897
		c0,0,1.679,1.675,2.225,2.208c-1.723,2.273-4.376,3.478-8.193,3.567c-7.705,0.202-36.947-1.82-51.059-4.061
		c-37.993-6.034-49.087-13.217-52.307-16.954l-0.197-0.218c-4.34-5.04-6.965-8.081-7.467-15.515l-0.166-2.524l-1.969,1.594
		c-6.115,4.975-7.818,10.952-7.818,15.441c0,0.752,0.08,1.44,0.166,2.111c-5.088-2.16-9.715-6.083-12.627-11.025l-1.221-2.095
		l-1.08,2.176c-0.934,1.885-1.403,3.818-1.403,5.808c0,2.872,1.015,5.864,2.981,9.019c-4.15-0.728-7.863-2.402-11.676-5.371
		l-2.451-1.917l0.34,3.082c0.627,5.703,1.82,9.513,5.804,13.193c-3.555-0.494-6.795-1.505-8.566-2.791l-2.006-1.456l-0.073,2.483
		c-0.008,0.105-0.008,0.194-0.008,0.292c0,4.796,3.515,9.294,7.656,12.376c-2.346-0.129-4.323-0.599-6.144-1.148l-2.576-0.752
		l0.979,2.491c2.419,6.124,6.957,9.48,13.011,11.988c-1.331-0.016-2.689-0.25-3.793-0.776l-3.329-1.602l1.585,3.333
		c2.491,5.282,6.839,8.688,13.965,10.896c-0.958,0-1.885-0.073-2.771-0.235l-2.362-0.404l0.922,2.208
		c2.216,5.347,9.182,10.831,22.059,10.613c0.291,1.545,1.27,6.835,1.27,6.835s5.375,0.194,6.738,0.242
		c0.417,1.344,2.152,6.868,2.152,6.868s5.638-0.388,7.025-0.478c0.558,1.278,2.916,6.658,2.916,6.658s5.678-0.914,7.045-1.141
		c0.684,1.229,3.575,6.39,3.575,6.39s5.605-1.488,6.937-1.845c0.809,1.133,4.174,5.849,4.174,5.849s5.488-2.232,6.738-2.742
		c0.922,0.931,4.691,4.788,4.691,4.788s4.971-3.113,6.244-3.914c1.016,0.963,4.064,3.81,4.064,3.81l0.506,0.017
		c14.791,0.186,25.565-1.23,37.148-4.902l0.651-0.219l0.21-0.654c1.352-4.426,6.346-9.125,10.912-11.818
		c1.529,1.747,1.941,3.397,1.941,4.538c0,0.057-0.02,0.073-0.02,0.13c-3.078-0.365-5.869,0.533-8.457,2.911
		c-2.391,2.192-3.652,5.298-3.652,8.688c0,1.108,0.182,2.225,0.444,3.373c-4.323,0.437-9.173,3.276-11.069,6.69
		c-1.112,2.006-1.65,4.157-1.65,6.236c0,3.009,1.209,5.832,3.385,7.935c-1.561,1.716-18.645,20.489-18.645,20.489
		s16.008-2.088,17.286-2.248c0.793,0.93,6.847,7.982,6.847,7.982s2.625-1.609,3.948-2.418c0.505,1.779,1.071,3.51,1.767,5.152
		c1.121,2.645,2.488,5.178,4.086,7.531c1.581,2.33,3.396,4.537,5.402,6.553c1.998,1.988,4.211,3.809,6.557,5.395
		c2.387,1.602,4.91,2.984,7.527,4.084c2.645,1.125,5.436,1.998,8.314,2.59c2.916,0.598,5.922,0.906,8.935,0.906
		s6.007-0.309,8.918-0.906c2.88-0.592,5.671-1.465,8.331-2.59c2.605-1.1,5.137-2.482,7.516-4.084
		c2.354-1.586,4.554-3.406,6.56-5.395c1.998-2.016,3.818-4.215,5.403-6.553c1.586-2.354,2.961-4.887,4.077-7.531
		c0.761-1.779,1.358-3.656,1.893-5.572c1.254,0.775,4.61,2.838,4.61,2.838s6.059-7.053,6.859-7.982
		c1.271,0.16,17.287,2.248,17.287,2.248s-17.084-18.773-18.646-20.489c2.176-2.103,3.382-4.909,3.382-7.935
		c0-2.079-0.535-4.23-1.65-6.236c-1.909-3.414-6.755-6.254-11.066-6.69c0.26-1.148,0.453-2.265,0.453-3.373
		c0-3.39-1.262-6.495-3.656-8.688c-2.556-2.337-5.29-3.235-8.307-2.911c0-0.057-0.008-0.073-0.008-0.146
		c0-1.124,0.404-2.782,1.924-4.521c4.562,2.693,9.578,7.393,10.921,11.818l0.194,0.654l0.663,0.219
		c11.591,3.672,22.357,5.088,37.152,4.902l0.509-0.017c0,0,3.042-2.839,4.062-3.81c1.278,0.801,6.236,3.914,6.236,3.914
		s3.777-3.857,4.691-4.788c1.254,0.51,6.747,2.742,6.747,2.742s3.373-4.716,4.165-5.849c1.327,0.356,6.948,1.845,6.948,1.845
		s2.889-5.161,3.567-6.39c1.375,0.227,7.054,1.141,7.054,1.141s2.346-5.38,2.912-6.658c1.383,0.09,7.021,0.478,7.021,0.478
		s1.73-5.524,2.151-6.868c1.375-0.048,6.746-0.242,6.746-0.242s0.979-5.29,1.262-6.835c12.894,0.218,19.834-5.266,22.066-10.613
		l0.906-2.208l-2.362,0.404c-0.873,0.162-1.812,0.235-2.758,0.235c7.118-2.208,11.462-5.614,13.969-10.896l1.586-3.325l-3.341,1.594
		c-1.092,0.526-2.459,0.76-3.794,0.776c6.051-2.507,10.597-5.864,13.016-11.988l0.994-2.491L386.039,158.571z M369.756,172.694
		c2.33,1.157,6.424,1.334,9.214,0.008c-3.269,6.892-9.78,9.949-19.373,11.705c3.139,0.971,6.52,1.351,9.593,0.801
		c-2.184,5.266-9.188,10.338-21.937,9.787l-1.278,6.893l-6.625,0.242l-2.111,6.762l-6.924-0.477l-2.863,6.584l-6.957-1.115
		l-3.51,6.284l-6.844-1.796l-4.093,5.728l-6.601-2.686l-4.57,4.667l-6.204-3.883l-4.425,4.142
		c-13.468,0.194-24.348-0.897-36.731-4.829c-1.569-5.128-7.377-10.386-12.448-13.096c-3.082,2.888-3.26,5.978-2.775,7.789
		c2.863-0.695,5.662-0.218,8.542,2.419c2.896,2.646,4.223,7.183,2.419,12.312c3.979-0.234,9.625,2.564,11.592,6.107
		c2.717,4.885,1.633,10.516-2.419,13.468l17.108,18.798l-14.447-1.885l-6.584,7.668l-4.709-2.887h-0.518
		c-0.274,1.125-0.582,2.24-0.938,3.34c-0.033,0.105-0.064,0.203-0.105,0.309c-0.348,1.051-0.72,2.094-1.148,3.098
		c-0.008,0.023-0.008,0.041-0.024,0.072c-0.274,0.639-0.565,1.27-0.865,1.902c-0.833,1.73-1.788,3.404-2.831,4.975
		c-0.09,0.145-0.17,0.291-0.268,0.436c-1.537,2.266-3.3,4.393-5.241,6.342c-1.165,1.148-2.386,2.232-3.673,3.252
		c-0.873,0.695-1.764,1.367-2.693,2.006c-1.06,0.703-2.144,1.367-3.252,1.975c-0.105,0.064-0.201,0.121-0.314,0.193
		c-0.049,0-0.09,0.033-0.13,0.049c-1.181,0.646-2.378,1.221-3.608,1.738c-0.841,0.357-1.698,0.68-2.556,0.979
		c-1.796,0.623-3.64,1.15-5.517,1.537c-1.504,0.291-3.041,0.527-4.57,0.656c-1.359,0.145-2.726,0.211-4.089,0.211
		c-1.351,0-2.71-0.066-4.052-0.195c-1.558-0.145-3.095-0.363-4.611-0.672c-1.496-0.314-2.961-0.703-4.393-1.164
		c-1.254-0.389-2.482-0.842-3.692-1.352c-1.649-0.695-3.256-1.527-4.821-2.426c-0.837-0.494-1.67-0.986-2.471-1.529
		c-1.998-1.359-3.891-2.887-5.643-4.562c-0.238-0.234-0.488-0.453-0.724-0.695c-0.227-0.211-0.437-0.453-0.647-0.68
		c-1.694-1.764-3.239-3.672-4.594-5.662c0-0.016,0-0.016,0-0.016c-0.017-0.016-0.029-0.041-0.041-0.057
		c-0.76-1.125-1.468-2.297-2.123-3.502c-0.668-1.223-1.262-2.477-1.8-3.746c-0.429-1.012-0.81-2.047-1.157-3.09
		c-0.036-0.105-0.072-0.201-0.104-0.307c-0.349-1.076-0.655-2.168-0.923-3.26l-4.469,2.732l-6.592-7.668l-14.439,1.885
		l17.108-18.798c-4.053-2.952-5.145-8.583-2.423-13.468c1.966-3.543,7.611-6.342,11.604-6.107c-1.82-5.129-0.48-9.666,2.419-12.312
		c2.896-2.661,5.792-3.146,8.695-2.419c0.485-1.812,0.304-4.901-2.782-7.789c-5.076,2.71-10.872,7.968-12.445,13.096
		c-12.384,3.932-23.264,5.023-36.736,4.829l-4.424-4.142l-6.205,3.883l-4.562-4.667l-6.601,2.686l-4.093-5.728l-6.835,1.796
		l-3.523-6.284l-6.952,1.115l-2.872-6.584l-6.92,0.477l-2.119-6.762l-6.621-0.242l-1.277-6.893
		c-12.74,0.551-19.741-4.521-21.929-9.787c3.078,0.55,6.455,0.17,9.589-0.801c-9.589-1.755-16.109-4.813-19.373-11.705
		c2.783,1.326,6.876,1.148,9.209-0.008c-8.34-2.726-13.929-5.978-16.647-12.861c3.082,0.914,6.346,1.634,10.811,1.019
		c-4.829-2.411-10.811-7.911-10.629-13.767c2.661,1.933,8.158,3.324,13.533,3.389c-6.277-4.239-7.907-7.854-8.7-14.981
		c4.95,3.851,9.678,5.67,15.223,6.035c-3.737-4.886-5.917-10.33-3.138-15.952c3.875,6.609,10.022,10.847,15.542,12.538
		c-1.189-3.365-1.662-11.923,6.686-18.702c0.234,3.389,0.902,5.945,1.945,8.154c0.688,1.48,1.545,2.807,2.545,4.133
		c0.027,0.041,0.052,0.057,0.076,0.105c0.481,0.623,0.999,1.262,1.541,1.917c0.032,0.041,0.061,0.073,0.098,0.113
		c0.558,0.671,1.148,1.351,1.767,2.071c0.157,0.178,0.331,0.364,0.506,0.542c0.052,0.049,0.113,0.113,0.161,0.162
		c0.139,0.137,0.271,0.267,0.417,0.396c0.065,0.065,0.138,0.129,0.206,0.186c0.15,0.129,0.295,0.267,0.457,0.396
		c0.073,0.057,0.146,0.113,0.219,0.178c0.178,0.138,0.359,0.283,0.555,0.429c0.061,0.049,0.121,0.089,0.189,0.146
		c0.238,0.178,0.481,0.339,0.744,0.525c0.028,0.017,0.049,0.033,0.076,0.041c0.91,0.631,1.967,1.254,3.164,1.893
		c0.008,0,0.016,0,0.027,0c0.389,0.218,0.801,0.42,1.218,0.631c0.021,0.008,0.036,0.016,0.048,0.024
		c2.625,1.278,5.865,2.588,9.832,3.915c0,0,0,0,0.005,0c0.663,0.218,1.347,0.429,2.042,0.655c1.82,0.566,3.79,1.133,5.889,1.699l0,0
		c2.443,0.639,5.084,1.294,7.932,1.925v0.008c3.732,0.833,7.826,1.658,12.303,2.459l0,0c2.277,0.388,4.64,0.801,7.119,1.205
		c2.58,0.404,5.646,0.801,8.986,1.173c0.295,0.032,0.603,0.073,0.914,0.105c15.179,1.682,35.405,2.936,41.387,2.791
		c5.812-0.146,8.521-2.629,9.913-4.983l-1.937-1.933c1.629-1.149,3.077-1.966,5.613-3.414l-1.711-1.723
		c6.248-4.344,14.135-6.164,20.906-6.164c6.766,0,14.66,1.82,20.905,6.164l-1.715,1.723c2.524,1.448,3.979,2.265,5.622,3.414
		l-1.934,1.933c1.392,2.354,4.094,4.837,9.9,4.983c5.688,0.137,24.219-0.987,39.078-2.54c1.367-0.146,2.693-0.291,3.972-0.437
		c2.694-0.316,5.192-0.639,7.394-0.971l0,0c0.291-0.049,0.574-0.089,0.85-0.122c1.254-0.21,2.482-0.404,3.68-0.615
		c1.205-0.202,2.379-0.404,3.527-0.615l0,0c4.465-0.792,8.525-1.61,12.246-2.443l0,0c2.848-0.631,5.484-1.286,7.943-1.941l0,0
		c2.184-0.583,4.223-1.181,6.1-1.763c0.566-0.17,1.124-0.356,1.666-0.534c0.089-0.032,0.17-0.057,0.259-0.089
		c0.614-0.202,1.229-0.404,1.812-0.606c0,0,0,0,0.008,0c6.181-2.2,10.411-4.352,13.178-6.382c0.049-0.048,0.097-0.073,0.146-0.121
		c0.202-0.154,0.404-0.308,0.599-0.461c0.049-0.057,0.121-0.105,0.178-0.146c0.178-0.146,0.34-0.283,0.485-0.429
		c0.065-0.048,0.13-0.105,0.194-0.154c0.146-0.146,0.291-0.283,0.429-0.42c0.048-0.057,0.104-0.105,0.153-0.146
		c0.17-0.186,0.34-0.372,0.485-0.55c0.663-0.744,1.278-1.464,1.853-2.151c0.024-0.033,0.049-0.065,0.072-0.089
		c1.771-2.111,3.22-4.061,4.256-6.39l0,0c0.971-2.151,1.585-4.619,1.812-7.862c8.348,6.778,7.878,15.336,6.665,18.702
		c5.533-1.691,11.688-5.929,15.562-12.538c2.783,5.622,0.607,11.066-3.138,15.952c5.558-0.364,10.272-2.184,15.224-6.035
		c-0.793,7.126-2.419,10.742-8.704,14.981c5.371-0.065,10.888-1.456,13.541-3.389c0.178,5.856-5.808,11.356-10.629,13.767
		c4.457,0.615,7.717-0.105,10.807-1.019C383.678,166.717,378.088,169.968,369.756,172.694"/>
	<path fill="#0D2240" d="M289.676,152.707"/>
	<path fill="#0D2240" d="M340.936,133.754c0.024-0.033,0.049-0.065,0.072-0.089C340.984,133.689,340.96,133.722,340.936,133.754"/>
	<path fill="#0D2240" d="M338.598,136.456c-0.049,0.041-0.105,0.089-0.153,0.146C338.492,136.545,338.549,136.497,338.598,136.456"
		/>
	<path fill="#0D2240" d="M337.158,137.75c0.049-0.057,0.121-0.105,0.178-0.146C337.279,137.645,337.207,137.693,337.158,137.75"/>
	<path fill="#0D2240" d="M337.83,137.176c0.057-0.048,0.121-0.105,0.186-0.154C337.951,137.071,337.887,137.127,337.83,137.176"/>
	<path fill="#0D2240" d="M336.414,138.333c0.049-0.048,0.097-0.073,0.146-0.121C336.511,138.26,336.463,138.284,336.414,138.333"/>
	<path fill="#0D2240" d="M72.683,141.431c0.021,0.008,0.036,0.016,0.048,0.024C72.719,141.447,72.703,141.438,72.683,141.431"/>
	<path fill="#0D2240" d="M321.158,145.41c0.089-0.032,0.17-0.057,0.259-0.089C321.328,145.354,321.247,145.378,321.158,145.41"/>
	<path fill="#0D2240" d="M71.433,140.792c0.013,0.008,0.021,0.008,0.032,0.024C71.453,140.8,71.445,140.8,71.433,140.792"/>
	<polyline fill="#0D2240" points="82.562,145.37 82.567,145.37 82.562,145.37 	"/>
	<path fill="#0D2240" d="M300.969,169.807c0,0,18.879-8.607,18.297-23.782c0.08-0.032,0.146-0.056,0.227-0.081
		c-1.877,0.583-3.916,1.181-6.1,1.763C313.651,158.983,300.969,169.807,300.969,169.807"/>
	<path fill="#0D2240" d="M67.264,138.195c0.061,0.049,0.121,0.089,0.189,0.146C67.385,138.284,67.324,138.244,67.264,138.195"/>
	<path fill="#0D2240" d="M68.197,138.866c0.028,0.017,0.049,0.033,0.072,0.041C68.246,138.899,68.226,138.883,68.197,138.866"/>
	<path fill="#0D2240" d="M323.229,144.715c0,0,0,0,0.008,0C323.229,144.715,323.229,144.715,323.229,144.715"/>
	<path fill="#0D2240" d="M62.883,133.722c0.028,0.041,0.064,0.073,0.089,0.113C62.947,133.794,62.911,133.762,62.883,133.722"/>
	<path fill="#0D2240" d="M61.262,131.7c0.027,0.041,0.052,0.073,0.076,0.105C61.313,131.772,61.289,131.74,61.262,131.7"/>
	<path fill="#0D2240" d="M65.41,136.61c-0.048-0.049-0.109-0.113-0.161-0.162C65.301,136.497,65.357,136.561,65.41,136.61"/>
	<path fill="#0D2240" d="M65.827,137.006c0.065,0.065,0.138,0.129,0.206,0.186C65.965,137.135,65.893,137.071,65.827,137.006"/>
	<path fill="#0D2240" d="M250.089,187.327c0,0,42.257,0.048,54.244-32.283c0.519-1.383,1.036-4.158,1.116-5.396
		c-3.721,0.833-7.781,1.65-12.246,2.443C285.389,179.4,250.089,187.327,250.089,187.327"/>
	<path fill="#0D2240" d="M66.49,137.588c0.073,0.057,0.146,0.113,0.219,0.178C66.637,137.702,66.563,137.645,66.49,137.588"/>
	<path fill="#0D2240" d="M375.597,160.868c4.821-2.427,10.807-7.927,10.629-13.783c-2.653,1.933-8.17,3.324-13.541,3.389
		c6.285-4.239,7.911-7.854,8.704-14.981c-4.951,3.851-9.666,5.67-15.224,6.035c3.745-4.886,5.921-10.33,3.138-15.952
		c-3.874,6.601-10.029,10.847-15.562,12.538c1.213-3.365,1.683-11.923-6.665-18.702c-0.227,3.244-0.841,5.711-1.812,7.862
		c5.419,9.278,0.631,14.382-2.84,16.955c8.291,0.801,14.973-3.486,14.973-3.486s-6.261,11.6-16.493,15.312
		c7.838,2.613,13.354,0.219,18.37-2.184c-1.392,4.077-6.415,12.327-24.162,14.204c4.684,5.775,16.769,1.529,16.769,1.529
		c-6.083,10.467-21.476,12.716-29.784,11.793c2.281,5.743,16.146,4.756,16.146,4.756c-8.793,5.768-22.553,6.277-33.473,3.211
		c2.605,4.789,6.812,6.568,12.49,6.706c-3.357,2.848-18.621,3.324-29.76,0.438c1.448,3.615,6.253,6.018,11.624,6.422
		c-9.271,4.756-23.183-0.227-28.538-2.338c-0.064,3.633,6.795,6.908,6.795,6.908c-32.396-0.178-45.572-15.531-45.572-15.531
		c-2.217-2.928-3.252-5.25-2.484-10.418c1.222-8.299,8.857-10.985,8.857-10.985c-1.65-1.699-8.453,0.776-8.453,0.776
		c1.627-4.327,5.752-6.592,5.752-6.592c5.832-3.511,17.398-6.107,17.398-6.107c5.299-1.052,15.459-2.637,15.459-2.637l5.371-1.148
		c0.016,0,0.048,0,0.072-0.008c-14.859,1.553-33.391,2.677-39.078,2.54c-5.807-0.146-8.509-2.629-9.9-4.983l1.934-1.933
		c-1.643-1.157-3.09-1.966-5.622-3.414l1.715-1.723c-6.245-4.344-14.14-6.164-20.905-6.164c-6.771,0-14.658,1.82-20.906,6.164
		l1.719,1.723c-2.544,1.448-3.992,2.257-5.621,3.414l1.937,1.933c-1.392,2.354-4.101,4.837-9.913,4.983
		c-5.981,0.146-26.208-1.108-41.387-2.791h0.008l7.758,1.407c0,0,10.147,1.585,15.453,2.637c0,0,11.568,2.596,17.392,6.107
		c0,0,4.13,2.265,5.751,6.592c0,0-6.791-2.475-8.444-0.776c0,0,7.632,2.686,8.857,10.985c0.761,5.169-0.275,7.49-2.495,10.418
		c0,0-13.17,15.353-45.565,15.531c0,0,6.863-3.275,6.803-6.908c-5.371,2.111-19.272,7.094-28.55,2.338
		c5.375-0.404,10.18-2.807,11.632-6.422c-11.15,2.887-26.41,2.41-29.763-0.438c5.678-0.138,9.896-1.917,12.477-6.706
		c-10.896,3.065-24.663,2.556-33.455-3.211c0,0,13.863,0.987,16.145-4.756c-8.311,0.922-23.704-1.327-29.779-11.793
		c0,0,12.085,4.247,16.756-1.529c-17.742-1.877-22.766-10.127-24.152-14.204c5.006,2.402,10.531,4.796,18.361,2.184
		c-10.229-3.712-16.485-15.312-16.485-15.312s6.686,4.287,14.969,3.486c-3.479-2.588-8.263-7.394-2.755-16.728
		c0,0,0.017,0.024,0.049,0.065c-1.043-2.208-1.711-4.765-1.945-8.154c-8.348,6.778-7.87,15.336-6.678,18.702
		c-5.528-1.691-11.676-5.938-15.55-12.538c-2.779,5.622-0.599,11.066,3.138,15.952c-5.553-0.364-10.273-2.184-15.223-6.035
		c0.792,7.126,2.422,10.742,8.7,14.981c-5.375-0.065-10.872-1.456-13.533-3.389c-0.178,5.856,5.8,11.356,10.633,13.783
		c-4.469,0.599-7.733-0.121-10.811-1.035c2.714,6.884,8.303,10.135,16.643,12.87c-2.333,1.148-6.427,1.326-9.209,0
		c3.264,6.892,9.78,9.949,19.381,11.705c-3.143,0.971-6.519,1.343-9.601,0.801c2.192,5.25,9.193,10.338,21.933,9.787l1.277,6.893
		l6.621,0.242l2.119,6.762l6.92-0.477l2.872,6.584l6.952-1.115l3.523,6.293l6.835-1.805l4.093,5.728l6.601-2.686l4.562,4.667
		l6.205-3.883l4.424,4.142c13.473,0.194,24.353-0.897,36.736-4.829c1.573-5.128,7.369-10.386,12.445-13.096
		c3.086,2.888,3.268,5.978,2.782,7.789c-2.899-0.728-5.804-0.242-8.695,2.419c-2.899,2.646-4.235,7.191-2.419,12.312
		c-3.992-0.234-9.638,2.564-11.604,6.107c-2.722,4.894-1.63,10.516,2.423,13.468l-17.108,18.798l14.447-1.877l6.584,7.66
		l4.469-2.732c0.268,1.092,0.574,2.184,0.923,3.26c0.032,0.105,0.068,0.201,0.104,0.307c0.348,1.043,0.729,2.078,1.157,3.09
		c0.538,1.27,1.132,2.523,1.8,3.746c0.655,1.205,1.363,2.377,2.123,3.502c0.012,0.016,0.024,0.041,0.033,0.057h0.008
		c1.354,2.006,2.904,3.914,4.594,5.678c0.211,0.227,0.426,0.461,0.647,0.68c0.235,0.242,0.485,0.461,0.724,0.695
		c1.756,1.676,3.645,3.213,5.639,4.555c0.805,0.551,1.638,1.043,2.475,1.537c1.565,0.898,3.172,1.73,4.821,2.426
		c1.21,0.51,2.442,0.963,3.692,1.352c1.432,0.461,2.896,0.85,4.393,1.164c1.517,0.309,3.054,0.527,4.611,0.672
		c1.342,0.129,2.701,0.195,4.048,0.195c1.367,0,2.733-0.066,4.093-0.195c1.529-0.162,3.066-0.381,4.57-0.672
		c1.877-0.387,3.721-0.914,5.517-1.545c0.857-0.299,1.715-0.613,2.556-0.971c1.23-0.518,2.428-1.092,3.608-1.738
		c0.04-0.016,0.081-0.033,0.13-0.057c0.113-0.064,0.209-0.121,0.314-0.178c1.108-0.623,2.192-1.27,3.252-1.99
		c0.93-0.631,1.82-1.303,2.693-1.998c1.287-1.02,2.524-2.086,3.673-3.252c1.941-1.949,3.704-4.092,5.241-6.357
		c0.098-0.129,0.178-0.275,0.268-0.42c1.043-1.586,1.998-3.244,2.831-4.975c0.3-0.633,0.591-1.264,0.865-1.902
		c0.017-0.031,0.017-0.049,0.024-0.072c0.429-1.004,0.801-2.047,1.148-3.082c0.041-0.121,0.072-0.219,0.105-0.324
		c0.355-1.1,0.663-2.215,0.938-3.34h0.518l4.709,2.887l6.584-7.66l14.447,1.877l-17.108-18.798
		c4.052-2.952,5.136-8.574,2.419-13.468c-1.967-3.543-7.604-6.342-11.592-6.107c1.804-5.12,0.477-9.666-2.419-12.312
		c-2.88-2.637-5.679-3.114-8.542-2.419c-0.484-1.812-0.307-4.901,2.775-7.789c5.071,2.71,10.879,7.968,12.448,13.096
		c12.384,3.932,23.264,5.023,36.731,4.829l4.425-4.142l6.204,3.883l4.57-4.667l6.601,2.686l4.093-5.728l6.844,1.805l3.51-6.293
		l6.957,1.115l2.863-6.584l6.924,0.477l2.111-6.762l6.625-0.242l1.278-6.893c12.748,0.551,19.753-4.538,21.937-9.787
		c-3.09,0.542-6.454,0.17-9.593-0.801c9.593-1.755,16.104-4.813,19.373-11.705c-2.79,1.326-6.884,1.148-9.214,0
		c8.332-2.734,13.922-5.986,16.647-12.87C383.313,160.747,380.054,161.467,375.597,160.868 M42.968,179.724l-1.439-1.44l1.318-1.351
		l8.845,0.792L42.968,179.724z M60.322,194.3l-1.65-1.197l1.105-1.529l8.853-0.59L60.322,194.3z M78.146,206.319l-1.896-0.971
		l0.99-1.795l10.128-1.861L78.146,206.319z M97.447,215.913l-2.492-0.242l1.137-2.168l12.555-5.5L97.447,215.913z M119.275,219.48
		l-2.132-0.146l0.218-2.047l8.6-5.654L119.275,219.48z M226.194,224.438c0.339,0.623,0.404,1.812,0.396,2.985
		c-0.363-0.267-0.728-0.526-1.1-0.776c-0.315-0.219-0.639-0.421-0.946-0.623c0.187-0.833,0.356-1.73,0.518-2.758L226.194,224.438z
		 M237.939,239.541c0.259-0.308,0.485-0.622,0.68-0.931c0.129,0.761,0.097,1.416-0.017,2.055
		C238.393,240.285,238.166,239.921,237.939,239.541 M234.72,242.623c1.796,3.042,3.203,6.342,4.126,9.845
		c-2.119,2.726-6.285,6.066-13.04,6.682c2.499,1.132,6.593,3.486,14.172,0.057c0.065,0.824,0.105,1.682,0.113,2.531
		c-7.231,5.232-15.773,8.938-25.213,10.766c0.291-6.043,2.693-13.136,8.081-19.51c2.839-3.268,5.598-5.662,8.04-7.62
		C232.277,244.678,233.523,243.771,234.72,242.623 M163.914,253.082c0.865-3.534,2.225-6.892,3.991-9.958
		c1.44,1.279,2.952,2.225,4.47,2.889c2.232,1.82,4.684,4.044,7.17,6.98c5.436,6.365,7.83,13.451,8.134,19.486
		c-9.298-1.82-17.739-5.469-24.874-10.613c0.013-0.793,0.049-1.577,0.098-2.346c7.171,2.92,11.445,0.655,13.926-0.445
		C170.538,258.518,166.283,255.654,163.914,253.082 M163.61,237.956c0,0,0.417,0.703,1.233,1.779
		c-0.396,0.639-0.776,1.286-1.133,1.949C163.44,240.536,163.178,239.411,163.61,237.956 M179.509,218.623
		c0.421-1.804,1.452-2.37,3.082-3.098c-1.392,5.985-0.667,8.404,0.057,10.814c0.74,2.46,2.661,7.563,6.653,11.486
		c-4.721-2.903-6.827-7.126-8.461-10.629C179.723,224.812,179.02,220.67,179.509,218.623 M184.132,209.191
		c6.099-0.461,7.794,2.508,8.097,5.314c0.279,2.556-1.573,5.565-4.295,6.649c0.918-4.951-2.564-6.375-4.914-6.196l0.627-1.513
		l-0.963-1.205l2.527-1.602L184.132,209.191z M220.742,212.241l-0.955,1.205l0.631,1.513c-2.361-0.179-5.84,1.245-4.934,6.196
		c-2.718-1.084-4.562-4.094-4.287-6.649c0.299-2.807,1.998-5.775,8.089-5.314l-1.084,1.448L220.742,212.241z M220.92,215.525
		c1.635,0.728,2.662,1.294,3.082,3.098c0.485,2.047-0.219,6.188-1.318,8.574c-1.643,3.503-3.754,7.726-8.461,10.629
		c3.979-3.923,5.913-9.026,6.648-11.486C221.584,223.93,222.312,221.511,220.92,215.525 M210.891,277.349
		c0.436,3.955,1.697,7.279,3.591,9.496c3.22,3.803,6.293,5.904,9.254,6.998c-5.89,4.156-12.958,6.721-20.618,7.045v-22.973
		C205.762,277.851,208.35,277.673,210.891,277.349 M199.016,277.899v22.947c-7.418-0.461-14.273-3.025-19.98-7.109
		c2.889-1.109,5.865-3.188,9.008-6.893c1.893-2.217,3.17-5.541,3.623-9.496C194.068,277.64,196.52,277.825,199.016,277.899
		 M184.576,284.386c-3.309,3.777-6.382,5.557-9.298,6.309c-6.507-6.002-10.944-14.188-12.149-23.393
		c7.146,4.555,15.414,7.773,24.42,9.408C187.148,279.913,186.105,282.591,184.576,284.386 M227.553,290.761
		c-3-0.705-6.147-2.492-9.528-6.375c-1.537-1.787-2.604-4.465-3.009-7.66c9.132-1.65,17.488-4.926,24.775-9.609
		C238.627,276.419,234.138,284.718,227.553,290.761 M172.419,236.799c2.03-2.313,4.34-4.376,6.863-6.155
		c0.684,1.294,1.594,2.693,2.888,4.449c4.268,5.824,10.427,6.818,13.865,6.656c-6.625-2.83-10.217-10.256-9.797-14.996
		c0.252-0.105,0.502-0.211,0.757-0.308c0.644-0.146,1.229-0.372,1.747-0.663c3.248-1.133,6.693-1.836,10.273-2.071v50.03
		c-2.439-0.072-4.838-0.26-7.184-0.566c-0.242-7.223-3.069-15.773-9.662-23.426c-0.659-0.784-1.314-1.504-1.969-2.208
		c2.818-0.057,5.051-0.655,5.953-1.035C178.344,246.062,174.033,240.431,172.419,236.799 M220.37,249.749
		c-6.552,7.668-9.384,16.203-9.642,23.426c-2.476,0.332-5.016,0.518-7.611,0.582v-50.086c3.26,0.137,6.414,0.68,9.423,1.577
		c0.89,0.704,1.989,1.181,3.349,1.335c0.421,4.715-3.122,12.303-9.836,15.166c3.365,0.162,9.594-0.832,13.816-6.656
		c1.455-1.934,2.459-3.446,3.17-4.854c2.508,1.69,4.813,3.68,6.859,5.904c-1.277,3.567-5.638,9.885-13.848,10.362
		c0.873,0.396,3.268,1.052,6.285,1.035C221.681,248.245,221.033,248.981,220.37,249.749 M221.924,208.229
		c-3.625-1.084-8.721-1.02-11.6,1.925c-1.457,1.479-2.912,4.19-3.357,6.916c-0.291-0.089-0.251-0.04-0.631-0.089
		c0.898-9.602,7.887-11.867,13.411-11.228l3.018-3.696l-1.327-4.344l3.139-4.102l-2.168-5.201l2.289-4.109
		C226.744,191.55,225.781,199.89,221.924,208.229 M199.938,142.07l1.974,3.486l1.966-3.479c3.745,0.202,7.596,0.963,11.414,2.402
		c-0.583,0.793-1.982,1.521-3.431,2.184c1.149,3.559-1.205,6.706-3.624,7.846c-1.439-2.046-3.623-3.033-6.467-3.033
		c-2.835,0-5.011,0.987-6.471,3.033c-2.406-1.141-4.769-4.287-3.62-7.846c-1.448-0.663-2.827-1.391-3.426-2.184
		C192.104,143.024,196.354,142.272,199.938,142.07 M190.979,156.808c0.061-0.914,0.559-1.982,0.947-2.305
		c0.728,0.639,1.751,1.189,2.689,1.359c-0.599,1.213-1.845,2.039-3.28,2.039c-2.019,0-3.647-1.626-3.647-3.648
		c0-1.311,0.683-2.459,1.723-3.114c0.271,0.55,0.355,0.817,0.901,1.569C189.52,154.397,189.83,156.274,190.979,156.808
		 M196.406,160.707c-0.854-2.402,1.461-6.512,5.505-6.617v15.417c-1.872-3.996-2.964-5.905-5.136-5.978
		c-2.354-0.105-4.377,1.423-7.459,3.413c-0.371,0.243-0.635-0.097-0.271-0.364C189.41,166.304,194.15,162.438,196.406,160.707
		 M195.764,165.778c2.54,0.097,5.096,5.897,6.006,7.531c0.91-1.634,3.475-7.434,6.014-7.531c2.541-0.081,3.625,1.456,4.077,2.006
		c-2.265,0.356-5.978,4.886-8.886,10.694l-1.205-2.904l-1.201,2.904c-2.9-5.808-6.621-10.338-8.89-10.694
		C192.14,167.234,193.228,165.697,195.764,165.778 M204.387,155.635c0.89,0.494,1.472,1.06,2.038,2.208
		c-0.485,0.315-1.384,0.566-1.505,0.849C204.92,157.843,204.953,156.039,204.387,155.635 M208.949,155.861
		c0.93-0.17,1.965-0.72,2.686-1.359c0.388,0.323,0.889,1.391,0.953,2.305c1.141-0.534,1.449-2.411,0.664-4.101
		c0.542-0.752,0.631-1.019,0.898-1.569c1.043,0.655,1.723,1.804,1.723,3.114c0,2.022-1.635,3.648-3.648,3.648
		C210.785,157.9,209.547,157.075,208.949,155.861 M177.05,191.186c0.235-7.604,1.929-12.562,4.591-16.186
		c1.088,1.569,4.59,4.109,4.59,4.109c0.963-0.971,2.779-2.176,4.834,0.243c-0.122-1.529-0.918-3.753-4.534-3.309
		c-2.237-3.502-3.522-8.962-2.472-12.222h-2.656c0.352-7.248,2.046-9.966,5.428-15.288l1.35,1.238
		c-1.415,0.995-2.333,2.564-2.333,4.352c0,2.977,2.608,5.419,5.815,5.419c0.555,0,1.084-0.073,1.586-0.202
		c0.955,2.006-2.184,2.969-7.867,7.442c2.67,1.205,5.724,2.855,7.98,5.323c3.988,4.344,6.395,9.545,8.635,9.528
		c2.244,0,4.655-5.185,8.643-9.528c2.258-2.467,5.314-4.118,7.969-5.323c-5.671-4.473-8.817-5.436-7.863-7.442
		c0.518,0.129,1.035,0.202,1.586,0.202c3.219,0,5.824-2.443,5.824-5.419c0-1.788-0.914-3.357-2.338-4.352l1.342-1.238
		c3.39,5.322,5.072,8.041,5.444,15.288h-2.653c1.197,3.753-0.614,10.33-3.51,13.589c-0.356-1.084-1.327-1.812-2.67-1.569
		c-2.961,0.542-7.054,8.93-11.773,9.06c-1.383,0.041-2.613-0.623-3.879-1.683c0.024,0.081,0.057,0.162,0.077,0.243
		c0.603,1.925,1.323,2.896,3.749,3.737v29.606c-0.975,0-1.852,0.145-4.267,0.267c-0.364-1.545-0.886-5.581-4.437-8
		c-4.086-2.782-8.789-1.602-11.486-0.364C179.218,205.325,176.832,198.077,177.05,191.186 M175.865,224.438l1.27-1.172
		c0.17,1.197,0.344,2.232,0.57,3.195c-0.102,0.057-0.194,0.113-0.291,0.186c-0.639,0.42-1.262,0.873-1.877,1.334
		C175.488,226.647,175.501,225.159,175.865,224.438 M164.92,219.521c2.273-1.455,6.468-2.418,8.766,0.842
		c2.507,3.584,0.42,7.984-1.885,9.133c0.854-2.848-1.533-7.386-6.395-5.477l0.061-1.456l-1.416-0.801l2.14-1.513L164.92,219.521z
		 M165.188,224.601c-0.542,5.605,0.918,8.955,2.361,11.293c1.57,2.539,4.587,6.762,10.876,9.424
		c-5.925-1.206-10.075-5.291-11.968-8.025c-1.625-2.369-3.373-6.115-3.438-9.803C163,226.34,163.93,224.665,165.188,224.601
		 M153.051,234.745c2.843-0.793,6.346-0.405,7.797,2.006c1.569,2.588,1.322,5.354,0.359,7.23c-1.266-2.168-4.658-3.008-6.463-1.561
		l0.117-3.502l-1.933-0.607l2.778-2.418L153.051,234.745z M156.492,251.958c-1.388-1.812-3.441-4.587-3.264-5.97
		c0.097-0.745,0.849-2.548,1.395-2.718c0.781,3.073,2.051,5.783,3.32,7.426c0.991,1.262,4.053,5.136,10.516,7.789
		C160.424,256.689,157.463,253.228,156.492,251.958 M247.016,251.958c-0.963,1.27-3.916,4.731-11.956,6.527
		c6.472-2.653,9.528-6.527,10.516-7.789c1.271-1.643,2.54-4.353,3.316-7.426c0.55,0.17,1.294,1.973,1.392,2.718
		C250.461,247.371,248.414,250.146,247.016,251.958 M242.672,236.751c1.447-2.411,4.949-2.799,7.789-2.006l-2.653,1.148l2.782,2.418
		l-1.933,0.607l0.113,3.502c-1.804-1.447-5.201-0.607-6.455,1.561C241.336,242.105,241.11,239.339,242.672,236.751 M240.496,227.489
		c-0.065,3.688-1.797,7.434-3.438,9.803c-1.901,2.734-6.042,6.819-11.964,8.025c6.285-2.662,9.303-6.885,10.871-9.424
		c1.449-2.338,2.904-5.688,2.354-11.293C239.59,224.665,240.512,226.34,240.496,227.489 M238.506,219.521l-1.278,0.729l2.151,1.513
		l-1.424,0.801l0.057,1.456c-4.861-1.909-7.239,2.629-6.398,5.477c-2.289-1.148-4.392-5.549-1.868-9.133
		C232.034,217.103,236.24,218.065,238.506,219.521 M284.564,219.48l-6.682-7.847l8.605,5.654l0.211,2.047L284.564,219.48z
		 M306.404,215.913l-11.195-7.91l12.546,5.5l1.141,2.168L306.404,215.913z M325.695,206.319l-9.205-4.627l10.119,1.861l1.004,1.795
		L325.695,206.319z M343.523,194.3l-8.307-3.316l8.857,0.59l1.092,1.529L343.523,194.3z M360.875,179.724l-8.721-1.998l8.85-0.792
		l1.326,1.351L360.875,179.724z"/>
	<path fill="#0D2240" d="M102.875,169.807c0,0-12.696-10.718-12.377-22.083c-2.107-0.566-4.068-1.132-5.889-1.699
		c0.004,0,0.004,0,0.004,0C83.825,161.33,102.875,169.807,102.875,169.807"/>
	<path fill="#0D2240" d="M262.336,172.605c0,0,19.721-4.716,22.811-19.163c-2.201,0.332-4.691,0.655-7.394,0.971h0.017
		C277.17,163.975,262.336,172.605,262.336,172.605"/>
	<path fill="#0D2240" d="M141.516,172.605c0,0-15.086-8.494-15.357-18.184c0.223,0.016,0.453,0.048,0.68,0.081
		c-3.332-0.38-6.406-0.777-8.986-1.181c0.311,0.041,0.639,0.081,0.958,0.146C121.818,168.124,141.516,172.605,141.516,172.605"/>
	<path fill="#0D2240" d="M153.766,187.327c0,0-35.256-7.685-43.033-35.211c-4.477-0.801-8.57-1.626-12.299-2.459
		c0.049,1.27,0.551,3.972,1.076,5.387C111.51,187.375,153.766,187.327,153.766,187.327"/>
	<path fill="#B3B2B1" d="M238.619,238.61c-0.194,0.324-0.421,0.623-0.68,0.947c0.227,0.363,0.453,0.728,0.663,1.107
		C238.716,240.026,238.748,239.371,238.619,238.61"/>
	<path fill="#B3B2B1" d="M163.61,237.956c-0.433,1.455-0.17,2.58,0.101,3.729c0.356-0.663,0.736-1.311,1.133-1.949
		C164.027,238.659,163.61,237.956,163.61,237.956"/>
	<path fill="#B3B2B1" d="M162.902,259.521c-0.049,0.769-0.085,1.553-0.098,2.346c7.135,5.145,15.576,8.793,24.874,10.613
		c-0.304-6.035-2.698-13.121-8.134-19.486c-2.486-2.937-4.938-5.16-7.17-6.973c-1.518-0.672-3.029-1.617-4.47-2.912
		c-1.767,3.09-3.126,6.439-3.991,9.974c2.369,2.572,6.624,5.436,12.914,5.993C174.344,260.176,170.073,262.44,162.902,259.521
		 M177.066,259.229c-0.817-1.148-1.432-2.588-0.264-3.762l1.719,3.964l-2.939,3.099
		C174.943,261.001,175.945,259.998,177.066,259.229"/>
	<path fill="#B3B2B1" d="M218.024,284.386c3.381,3.883,6.528,5.67,9.528,6.375c6.602-6.043,11.074-14.342,12.238-23.645
		c-7.287,4.691-15.644,7.967-24.775,9.609C215.42,279.913,216.487,282.591,218.024,284.386"/>
	<path fill="#B3B2B1" d="M177.414,226.647c0.097-0.072,0.193-0.129,0.291-0.186c-0.227-0.963-0.4-1.998-0.57-3.195l-1.27,1.172
		c-0.364,0.721-0.377,2.209-0.328,3.543C176.152,227.521,176.775,227.067,177.414,226.647"/>
	<path fill="#B3B2B1" d="M224.544,226.024c0.308,0.202,0.631,0.404,0.946,0.623c0.381,0.25,0.736,0.51,1.1,0.776
		c0.009-1.173-0.064-2.362-0.412-2.985l-1.116-1.172C224.9,224.294,224.73,225.191,224.544,226.024"/>
	<path fill="#B3B2B1" d="M222.959,252.993c-5.404,6.374-7.79,13.467-8.09,19.51c9.448-1.828,17.99-5.533,25.222-10.766
		c-0.017-0.85-0.048-1.707-0.113-2.531c-7.579,3.43-11.673,1.075-14.172-0.057c6.755-0.615,10.921-3.956,13.04-6.682
		c-0.923-3.503-2.33-6.803-4.126-9.845c-1.196,1.148-2.442,2.055-3.721,2.75C228.557,247.331,225.806,249.726,222.959,252.993
		 M225.094,259.229c1.02,0.769,2.088,1.771,1.424,3.301l-2.952-3.099l1.788-3.964C226.494,256.642,225.822,258.081,225.094,259.229"
		/>
	<path fill="#B3B2B1" d="M216.051,246.506c8.219-0.478,12.57-6.795,13.848-10.362c-2.055-2.225-4.352-4.206-6.859-5.904
		c-0.711,1.407-1.707,2.92-3.187,4.854c-4.214,5.824-10.435,6.818-13.8,6.656c6.697-2.863,10.257-10.451,9.836-15.166
		c-1.359-0.154-2.459-0.631-3.349-1.318c-3.009-0.914-6.163-1.457-9.419-1.594v50.086c2.592-0.064,5.132-0.25,7.607-0.582
		c0.258-7.223,3.09-15.758,9.642-23.426c0.663-0.776,1.311-1.504,1.966-2.199C219.318,247.573,216.924,246.901,216.051,246.506
		 M207.8,245.261l-3.511-2.621l0.955-4.013c1.375,0.906,0.971,2.411,0.469,3.673C206.878,242.784,208.172,243.585,207.8,245.261
		 M217.029,250.315l-3.033-3.139l1.893-3.923c1.068,1.149,0.421,2.581-0.323,3.722C216.593,247.743,217.652,248.763,217.029,250.315
		"/>
	<path fill="#B3B2B1" d="M180.201,247.541c0.65,0.704,1.31,1.424,1.969,2.208c6.593,7.652,9.42,16.203,9.662,23.426
		c2.346,0.307,4.744,0.494,7.184,0.566v-50.03c-3.58,0.235-7.025,0.938-10.273,2.071c-0.525,0.299-1.104,0.518-1.747,0.663
		c-0.255,0.097-0.505,0.202-0.757,0.308c-0.42,4.74,3.168,12.182,9.797,14.996c-3.442,0.162-9.598-0.832-13.865-6.656
		c-1.294-1.756-2.204-3.155-2.888-4.449c-2.527,1.779-4.833,3.85-6.863,6.155c1.614,3.64,5.925,9.263,13.735,9.707
		C185.26,246.886,183.02,247.501,180.201,247.541 M196.366,242.308c-0.526-1.27-0.878-2.774,0.453-3.681l1.022,4.013l-3.53,2.621
		C194.028,243.585,195.145,242.784,196.366,242.308 M186.247,243.254l1.796,3.923l-2.961,3.139c-0.672-1.553,0.36-2.572,1.375-3.34
		C185.773,245.835,185.15,244.403,186.247,243.254"/>
	<path fill="#B3B2B1" d="M203.121,300.888c7.656-0.324,14.725-2.889,20.614-7.045c-2.961-1.094-6.034-3.195-9.254-6.998
		c-1.894-2.217-3.155-5.541-3.591-9.496c-2.541,0.314-5.129,0.502-7.77,0.566V300.888z"/>
	<path fill="#B3B2B1" d="M179.035,293.745c5.707,4.076,12.562,6.641,19.98,7.102v-22.947c-2.496-0.074-4.947-0.26-7.35-0.551
		c-0.453,3.955-1.73,7.279-3.623,9.496C184.9,290.55,181.924,292.628,179.035,293.745"/>
	<path fill="#B3B2B1" d="M175.278,290.694c2.916-0.744,5.989-2.531,9.298-6.309c1.529-1.795,2.572-4.488,2.973-7.676
		c-9.006-1.635-17.273-4.854-24.416-9.408C164.334,276.507,168.771,284.692,175.278,290.694"/>
	<path fill="#FFFFFF" d="M215.565,246.976c0.744-1.141,1.392-2.572,0.323-3.722l-1.893,3.923l3.033,3.139
		C217.652,248.763,216.593,247.743,215.565,246.976"/>
	<path fill="#FFFFFF" d="M223.565,259.432l2.952,3.099c0.664-1.529-0.404-2.532-1.432-3.301c0.736-1.148,1.408-2.588,0.268-3.762
		L223.565,259.432z"/>
	<path fill="#FFFFFF" d="M205.713,242.3c0.502-1.262,0.914-2.767-0.469-3.673l-0.955,4.013l3.511,2.621
		C208.172,243.585,206.878,242.784,205.713,242.3"/>
	<path fill="#FFFFFF" d="M185.082,250.315l2.961-3.139l-1.796-3.923c-1.097,1.149-0.474,2.581,0.21,3.722
		C185.442,247.743,184.41,248.763,185.082,250.315"/>
	<path fill="#FFFFFF" d="M178.521,259.432l-1.719-3.964c-1.168,1.174-0.554,2.613,0.264,3.762c-1.121,0.769-2.123,1.771-1.48,3.301
		L178.521,259.432z"/>
	<path fill="#FFFFFF" d="M197.851,242.64l-1.031-4.013c-1.331,0.906-0.979,2.411-0.453,3.673c-1.222,0.484-2.333,1.285-2.055,2.961
		L197.851,242.64z"/>
	<path fill="#FFFFFF" d="M215.873,154.251c0-1.311-0.688-2.459-1.723-3.106c-0.268,0.542-0.349,0.809-0.898,1.561
		c0.776,1.69,0.477,3.567-0.664,4.101c-0.064-0.914-0.565-1.982-0.953-2.305c-0.721,0.639-1.764,1.189-2.686,1.359
		c0.598,1.213,1.844,2.039,3.275,2.039C214.238,157.9,215.873,156.274,215.873,154.251"/>
	<path fill="#FFFFFF" d="M189.41,151.137c-1.04,0.655-1.723,1.804-1.723,3.114c0,2.022,1.629,3.648,3.647,3.648
		c1.436,0,2.682-0.825,3.28-2.039c-0.931-0.17-1.962-0.72-2.689-1.359c-0.389,0.323-0.887,1.391-0.947,2.305
		c-1.148-0.534-1.459-2.411-0.667-4.101C189.766,151.954,189.677,151.688,189.41,151.137"/>
	<path fill="#B3B2B1" d="M189.316,166.943c3.082-2.006,5.096-3.519,7.459-3.413c2.172,0.081,3.264,1.981,5.132,5.978V154.09
		c-4.04,0.105-6.354,4.214-5.501,6.617c-2.256,1.731-6.996,5.598-7.36,5.873C188.682,166.846,188.945,167.186,189.316,166.943
		 M199.311,155.635c-0.639,0.461-0.586,2.459-0.586,3.397c-0.139-0.315-1.137-0.591-1.675-0.938
		C197.677,156.808,198.316,156.185,199.311,155.635"/>
	<path fill="#B3B2B1" d="M206.425,157.843c-0.566-1.149-1.148-1.715-2.038-2.208c0.566,0.404,0.533,2.208,0.533,3.058
		C205.041,158.409,205.939,158.159,206.425,157.843"/>
	<path fill="#B3B2B1" d="M200.568,178.478l1.201-2.904l1.205,2.904c2.908-5.808,6.621-10.338,8.886-10.694
		c-0.452-0.55-1.536-2.087-4.077-2.006c-2.539,0.097-5.104,5.897-6.014,7.531c-0.91-1.634-3.466-7.434-6.014-7.531
		c-2.528-0.081-3.616,1.456-4.077,2.006C193.947,168.14,197.668,172.67,200.568,178.478"/>
	<path fill="#B3B2B1" d="M154.861,238.919l-0.117,3.502c1.805-1.447,5.193-0.607,6.463,1.561c0.963-1.868,1.202-4.643-0.359-7.23
		c-1.456-2.411-4.954-2.791-7.797-2.006l2.66,1.148l-2.782,2.418L154.861,238.919z"/>
	<path fill="#B3B2B1" d="M211.197,214.506c-0.275,2.556,1.569,5.558,4.287,6.649c-0.906-4.951,2.572-6.375,4.934-6.196l-0.631-1.513
		l0.955-1.205l-2.54-1.602l1.084-1.448C213.188,208.73,211.496,211.699,211.197,214.506"/>
	<path fill="#B3B2B1" d="M229.745,220.362c-2.523,3.584-0.421,7.984,1.876,9.133c-0.849-2.848,1.529-7.386,6.391-5.477l-0.057-1.456
		l1.424-0.801l-2.151-1.513l1.278-0.729C236.24,218.065,232.034,217.103,229.745,220.362"/>
	<path fill="#B3B2B1" d="M183.646,213.446l-0.627,1.513c2.35-0.179,5.832,1.245,4.914,6.196c2.722-1.092,4.574-4.094,4.299-6.649
		c-0.307-2.807-2.002-5.775-8.101-5.314l1.079,1.448l-2.527,1.602L183.646,213.446z"/>
	<path fill="#B3B2B1" d="M165.467,222.571l-0.061,1.447c4.861-1.909,7.256,2.629,6.395,5.477c2.305-1.148,4.392-5.549,1.885-9.133
		c-2.298-3.26-6.492-2.297-8.761-0.842l1.266,0.729l-2.14,1.513L165.467,222.571z"/>
	<path fill="#B3B2B1" d="M248.771,242.421l-0.113-3.502l1.933-0.607l-2.782-2.418l2.653-1.148c-2.84-0.785-6.342-0.405-7.789,2.006
		c-1.562,2.588-1.336,5.362-0.356,7.23C243.586,241.813,246.967,240.974,248.771,242.421"/>
	<path fill="#FFFFFF" d="M180.84,227.197c1.634,3.503,3.74,7.726,8.461,10.629c-3.992-3.923-5.909-9.019-6.653-11.486
		c-0.724-2.41-1.448-4.829-0.057-10.814c-1.63,0.728-2.661,1.294-3.082,3.098C179.02,220.67,179.728,224.812,180.84,227.197"/>
	<path fill="#FFFFFF" d="M166.457,237.292c1.897,2.734,6.043,6.819,11.968,8.025c-6.289-2.662-9.306-6.885-10.876-9.424
		c-1.439-2.338-2.903-5.688-2.357-11.293c-1.27,0.057-2.188,1.739-2.172,2.889C163.084,231.177,164.832,234.923,166.457,237.292"/>
	<path fill="#FFFFFF" d="M168.459,258.485c-6.463-2.653-9.524-6.527-10.516-7.789c-1.27-1.643-2.539-4.353-3.32-7.426
		c-0.546,0.17-1.294,1.973-1.395,2.718c-0.178,1.392,1.881,4.157,3.264,5.97C157.463,253.228,160.424,256.689,168.459,258.485"/>
	<path fill="#FFFFFF" d="M220.871,226.34c-0.735,2.46-2.669,7.563-6.648,11.486c4.707-2.903,6.818-7.126,8.461-10.629
		c1.1-2.386,1.804-6.527,1.318-8.574c-0.412-1.804-1.447-2.37-3.082-3.098C222.312,221.511,221.584,223.93,220.871,226.34"/>
	<path fill="#FFFFFF" d="M235.965,235.894c-1.568,2.539-4.586,6.762-10.871,9.424c5.922-1.206,10.062-5.291,11.964-8.025
		c1.642-2.369,3.373-6.115,3.438-9.803c0.016-1.149-0.906-2.824-2.177-2.889C238.869,230.206,237.414,233.556,235.965,235.894"/>
	<path fill="#FFFFFF" d="M248.892,243.271c-0.776,3.073-2.046,5.783-3.316,7.426c-0.987,1.262-4.044,5.136-10.516,7.789
		c8.04-1.796,10.993-5.258,11.956-6.527c1.398-1.812,3.445-4.578,3.268-5.97C250.186,245.243,249.441,243.44,248.892,243.271"/>
	<path fill="#E13A3E" d="M193.24,209.07c3.551,2.419,4.072,6.455,4.437,8c2.419-0.122,3.292-0.267,4.267-0.267v-29.606
		c-2.418-0.841-3.146-1.812-3.745-3.737c-0.024-0.081-0.057-0.162-0.081-0.243c1.266,1.06,2.496,1.723,3.879,1.683
		c4.72-0.129,8.812-8.518,11.773-9.06c1.343-0.243,2.297,0.485,2.67,1.569c2.896-3.252,4.707-9.836,3.502-13.589h2.661
		c-0.372-7.248-2.055-9.966-5.444-15.288l-1.342,1.238c1.424,0.995,2.338,2.564,2.338,4.352c0,2.993-2.605,5.419-5.824,5.419
		c-0.551,0-1.068-0.073-1.586-0.218c-0.954,2.022,2.192,2.985,7.863,7.458c-2.654,1.205-5.711,2.855-7.969,5.323
		c-3.987,4.344-6.398,9.528-8.643,9.528c-2.24,0.017-4.646-5.185-8.635-9.528c-2.257-2.467-5.311-4.118-7.98-5.323
		c5.684-4.473,8.822-5.436,7.867-7.458c-0.502,0.146-1.031,0.218-1.586,0.218c-3.211,0-5.815-2.426-5.815-5.419
		c0-1.788,0.918-3.357,2.333-4.352l-1.346-1.238c-3.386,5.322-5.08,8.041-5.437,15.288h2.661c-1.055,3.26,0.227,8.72,2.472,12.222
		c3.607-0.445,4.412,1.78,4.534,3.309c-2.055-2.418-3.871-1.213-4.838-0.243c0,0-3.498-2.54-4.582-4.109
		c-2.662,3.624-4.359,8.583-4.595,16.186c-0.218,6.892,2.168,14.14,4.704,17.521C184.451,207.469,189.154,206.288,193.24,209.07
		 M181.377,204.84c-2.289-7.248-2.777-10.386-2.652-13.775c0.125-3.381,0.85-8.688,2.908-12.32l2.046,2.54
		c-1.808,3.26-3.021,6.771-3.269,10.508c-0.234,3.753,0.248,9.189,1.332,12.32L181.377,204.84z"/>
	<path fill="#E13A3E" d="M61.423,144.229c-8.283,0.801-14.969-3.486-14.969-3.486s6.257,11.591,16.485,15.32
		c-7.83,2.604-13.355,0.21-18.361-2.192c1.391,4.077,6.41,12.327,24.152,14.204c-4.671,5.775-16.756,1.529-16.756,1.529
		c6.075,10.467,21.469,12.716,29.779,11.793c-2.281,5.743-16.145,4.756-16.145,4.756c8.792,5.768,22.555,6.277,33.459,3.211
		c-2.584,4.789-6.803,6.568-12.48,6.706c3.353,2.848,18.612,3.324,29.763,0.429c-1.452,3.624-6.257,6.026-11.636,6.431
		c9.281,4.765,23.183-0.227,28.554-2.338c0.061,3.633-6.803,6.908-6.803,6.908c32.396-0.178,45.565-15.531,45.565-15.531
		c2.22-2.928,3.256-5.25,2.495-10.418c-1.226-8.299-8.862-10.985-8.862-10.985c1.658-1.699,8.449,0.776,8.449,0.776
		c-1.621-4.327-5.751-6.592-5.751-6.592c-5.823-3.511-17.396-6.107-17.396-6.107c-5.302-1.052-15.449-2.637-15.449-2.637
		l-7.758-1.407h-0.012c-0.308-0.033-0.607-0.073-0.914-0.105c-0.223-0.024-0.453-0.057-0.676-0.073
		c0.271,9.69,15.354,18.184,15.354,18.184s-19.686-4.481-22.702-19.139c-0.319-0.064-0.647-0.105-0.958-0.146
		c-2.479-0.404-4.842-0.801-7.119-1.205l0,0c7.777,27.526,43.033,35.211,43.033,35.211s-42.256,0.048-54.256-32.291
		c-0.525-1.407-1.027-4.109-1.076-5.379v-0.008c-2.852-0.631-5.492-1.286-7.928-1.925c-0.327,11.357,12.369,22.083,12.369,22.083
		s-19.05-8.477-18.262-23.782c0,0,0,0-0.004,0c-0.703-0.226-1.383-0.437-2.042-0.655h-0.005c-3.967-1.327-7.207-2.637-9.832-3.915
		c-0.012-0.008-0.027-0.017-0.048-0.024c-0.417-0.21-0.829-0.413-1.218-0.615c-0.004-0.016-0.02-0.016-0.032-0.016
		c-1.201-0.639-2.249-1.262-3.163-1.893c-0.023-0.008-0.044-0.024-0.072-0.041c-0.263-0.186-0.51-0.348-0.744-0.525
		c-0.068-0.057-0.129-0.097-0.194-0.146c-0.19-0.146-0.372-0.291-0.55-0.429c-0.072-0.064-0.15-0.121-0.223-0.178
		c-0.158-0.129-0.307-0.267-0.453-0.396c-0.072-0.057-0.141-0.121-0.206-0.186c-0.142-0.129-0.283-0.259-0.417-0.396
		c-0.053-0.049-0.109-0.113-0.166-0.162c-0.178-0.178-0.344-0.364-0.501-0.542c-0.618-0.72-1.209-1.399-1.767-2.079
		c-0.029-0.033-0.065-0.065-0.098-0.105c-0.546-0.655-1.06-1.286-1.541-1.917c-0.024-0.032-0.049-0.064-0.076-0.105
		c-1-1.327-1.857-2.653-2.545-4.133c-0.032-0.041-0.049-0.065-0.049-0.065C53.164,136.836,57.944,141.641,61.423,144.229"/>
	<path fill="#E13A3E" d="M268.338,156.007c0,0-10.16,1.585-15.459,2.637c0,0-11.566,2.596-17.391,6.099c0,0-4.133,2.273-5.76,6.601
		c0,0,6.803-2.475,8.453-0.776c0,0-7.644,2.686-8.857,10.993c-0.768,5.161,0.275,7.482,2.484,10.411
		c0,0,13.176,15.353,45.572,15.531c0,0-6.859-3.275-6.795-6.908c5.371,2.111,19.268,7.103,28.538,2.338
		c-5.371-0.404-10.176-2.807-11.624-6.431c11.139,2.896,26.402,2.419,29.76-0.429c-5.679-0.138-9.885-1.917-12.474-6.706
		c10.903,3.065,24.663,2.556,33.456-3.211c0,0-13.865,0.987-16.146-4.756c8.309,0.93,23.701-1.327,29.784-11.793
		c0,0-12.093,4.254-16.761-1.529c17.739-1.877,22.763-10.127,24.154-14.204c-5.016,2.402-10.549,4.796-18.37,2.184
		c10.232-3.721,16.493-15.312,16.493-15.312s-6.682,4.287-14.973,3.486c3.471-2.572,8.259-7.668,2.84-16.955l0,0
		c-1.036,2.33-2.484,4.279-4.256,6.39c-0.023,0.024-0.048,0.057-0.072,0.089c-0.574,0.695-1.189,1.407-1.853,2.16
		c-0.146,0.178-0.308,0.356-0.485,0.542c-0.057,0.041-0.105,0.089-0.153,0.146c-0.138,0.138-0.283,0.275-0.429,0.42
		c-0.064,0.049-0.129,0.105-0.186,0.154c-0.154,0.138-0.316,0.283-0.486,0.429c-0.064,0.041-0.137,0.089-0.186,0.154
		c-0.194,0.146-0.396,0.299-0.599,0.453c-0.049,0.048-0.097,0.073-0.146,0.121c-2.767,2.022-6.997,4.198-13.178,6.382
		c-0.008,0-0.008,0-0.008,0c-0.582,0.202-1.197,0.404-1.812,0.606c-0.089,0.032-0.17,0.057-0.259,0.089
		c-0.542,0.178-1.1,0.364-1.666,0.534c-0.081,0.032-0.154,0.048-0.227,0.081c0.582,15.175-18.297,23.782-18.297,23.782
		s12.683-10.823,12.424-22.099l0,0c-2.459,0.655-5.088,1.311-7.943,1.941l0,0c-0.072,1.238-0.598,4.012-1.116,5.396
		c-11.987,32.331-54.244,32.283-54.244,32.283s35.3-7.927,43.114-35.235l0,0c-1.148,0.21-2.322,0.413-3.527,0.615
		c-1.197,0.21-2.426,0.404-3.688,0.615c-0.267,0.032-0.558,0.073-0.841,0.122l0,0c-3.09,14.447-22.811,19.163-22.811,19.163
		s14.834-8.631,15.434-18.192c-0.017,0-0.017,0-0.017,0c-1.278,0.153-2.604,0.299-3.972,0.437c-0.024,0.008-0.041,0.008-0.072,0.008
		L268.338,156.007z"/>
	<path fill="#E13A3E" d="M224.576,193.612l-3.139,4.102l1.327,4.344l-3.018,3.696c-5.524-0.64-12.513,1.626-13.411,11.228
		c0.38,0.049,0.34,0,0.631,0.097c0.445-2.733,1.9-5.444,3.357-6.924c2.879-2.944,7.975-3.009,11.6-1.925
		c3.857-8.34,4.82-16.68,2.773-23.928l-2.289,4.109L224.576,193.612z"/>
	<polygon fill="#FFFFFF" points="94.955,215.671 97.447,215.913 108.646,208.003 96.092,213.503 	"/>
	<polygon fill="#FFFFFF" points="117.144,219.335 119.275,219.48 125.961,211.626 117.361,217.288 	"/>
	<polygon fill="#FFFFFF" points="58.672,193.103 60.322,194.3 68.63,190.983 59.777,191.574 	"/>
	<polygon fill="#FFFFFF" points="41.528,178.284 42.968,179.724 51.691,177.726 42.843,176.933 	"/>
	<polygon fill="#FFFFFF" points="76.25,205.349 78.146,206.319 87.368,201.692 77.24,203.554 	"/>
	<polygon fill="#FFFFFF" points="295.209,208.003 306.404,215.913 308.896,215.671 307.746,213.503 	"/>
	<polygon fill="#FFFFFF" points="277.883,211.626 284.564,219.48 286.699,219.335 286.488,217.288 	"/>
	<polygon fill="#FFFFFF" points="335.217,190.983 343.523,194.3 345.166,193.103 344.082,191.574 	"/>
	<polygon fill="#FFFFFF" points="352.154,177.726 360.875,179.724 362.33,178.284 361.004,176.933 	"/>
	<polygon fill="#FFFFFF" points="316.49,201.692 325.695,206.319 327.613,205.349 326.609,203.554 	"/>
	<path fill="#E13A3E" d="M195.299,154.51c1.46-2.046,3.627-3.033,6.471-3.033s5.027,0.987,6.467,3.033
		c2.419-1.141,4.773-4.287,3.624-7.846c1.456-0.663,2.848-1.391,3.431-2.184c-3.818-1.439-7.669-2.2-11.414-2.402l-1.966,3.479
		l-1.974-3.486c-3.584,0.202-7.838,0.954-11.685,2.41c0.599,0.793,1.978,1.521,3.426,2.184
		C190.53,150.223,192.893,153.37,195.299,154.51"/>
	<path fill="#0D2240" d="M180.41,191.792c0.248-3.737,1.461-7.248,3.269-10.508l-2.046-2.54c-2.059,3.632-2.783,8.938-2.908,12.32
		c-0.125,3.39,0.359,6.527,2.652,13.775l0.365-0.728C180.658,200.981,180.176,195.546,180.41,191.792"/>
	<path fill="#0D2240" d="M198.725,159.032c0-0.938-0.053-2.937,0.586-3.397c-0.994,0.55-1.634,1.173-2.261,2.459
		C197.588,158.45,198.586,158.717,198.725,159.032"/>
	<path fill="#0D2240" d="M187.654,126.984l-1.072,1.545h6.42l-0.604-1.497l0.604-2.653h7.32l0.537,2.653l-0.594,1.497h6.475
		l-1.107-1.545l-3.98-18.726l0.708-1.553h-11.386l0.695,1.553L187.654,126.984z M193.139,121.33h7.645l-2.395-11.138h0.566
		l2.486,11.567h-8.396L193.139,121.33z M197.377,110.693l2.096,9.707h-5.622l2.046-9.707H197.377z M201.333,123.894h0.565
		l0.757,3.705h-0.574L201.333,123.894z M200.423,107.619l0.089,0.437h-7.09l-4.198,19.543h-0.599l4.283-19.979H200.423z"/>
	<path fill="#0D2240" d="M80.84,127.032l0.6-2.653h7.328l0.542,2.653l-0.599,1.497h6.471l-1.104-1.545l-3.973-18.726l0.684-1.553
		H79.412l0.7,1.553l-4.036,18.758l-1.052,1.513h6.41L80.84,127.032z M81.584,121.33h7.641l-2.383-11.138h0.518l2.48,11.567h-8.349
		L81.584,121.33z M85.831,110.693l2.087,9.707h-5.621l2.055-9.707H85.831z M89.787,123.894h0.518l0.78,3.721h-0.518L89.787,123.894z
		 M81.354,107.619h7.503l0.089,0.437h-7.082l-4.219,19.543h-0.586L81.354,107.619z"/>
	<path fill="#0D2240" d="M99.485,110.693v16.202l-0.793,1.634h6.289l-0.757-1.634v-16.202h3.572l1.795,0.606v-4.594H94.054v4.594
		l1.796-0.606H99.485z M100.577,110.191h0.514v17.407h-0.514V110.191z M95.137,107.619H108.5v0.437H95.646v1.715h-0.51V107.619z"/>
	<path fill="#0D2240" d="M134.587,127.032l0.603-2.653h7.337l0.538,2.653l-0.611,1.497h6.484l-1.105-1.545l-3.975-18.726
		l0.688-1.553h-11.377l0.699,1.553l-4.012,18.726l-1.08,1.545h6.414L134.587,127.032z M135.344,121.33h7.64l-2.39-11.138h0.505
		l2.487,11.567h-8.34L135.344,121.33z M139.59,110.693l2.083,9.707h-5.626l2.059-9.707H139.59z M143.529,123.894h0.521l0.748,3.705
		h-0.51L143.529,123.894z M135.113,107.619h7.506l0.09,0.437h-7.09l-4.195,19.543h-0.598L135.113,107.619z"/>
	<path fill="#0D2240" d="M177.576,110.693v16.202l-0.793,1.634h6.293l-0.76-1.634v-16.202h3.566l1.805,0.606v-4.594h-15.552v4.594
		l1.804-0.606H177.576z M178.668,110.191h0.514v17.407h-0.514V110.191z M173.232,107.619h13.358v0.437h-12.849v1.715h-0.51V107.619z
		"/>
	<path fill="#0D2240" d="M112.254,128.529h13.877v-4.562l-1.812,0.574h-6.727v-16.21l0.826-1.625h-6.164l0.631,1.521V127
		L112.254,128.529z M125.025,125.9h-8.02v-0.437h8.02V125.9z M113.98,107.619h2.512v0.437h-1.998v19.543h-0.514V107.619z"/>
	<path fill="#0D2240" d="M151.861,128.529h6.564l-1.109-1.585v-13.096l6.698,8.501v4.546l-0.757,1.634h6.221l-0.76-1.634v-18.564
		l0.76-1.625h-6.221l0.757,1.625v6.827l-5.751-7.336l0.408-1.116h-6.811l0.776,1.351V127L151.861,128.529z M156.73,111.437v-0.704
		l8.882,11.284v5.582h-0.506v-5.525L156.73,111.437z M167.631,107.619c0,0,0,0.162,0,0.437h-2.019c0.008,0,0,10.597,0,10.597
		l-0.506-0.647c0-1.439,0-10.386,0-10.386H167.631z M153.713,107.619h3.074l0.332,0.437h-2.9v19.543h-0.506V107.619z"/>
	<polygon fill="#B3B2B1" points="114.494,108.056 116.492,108.056 116.492,107.619 113.984,107.619 113.984,127.599 
		114.494,127.599 	"/>
	<polygon fill="#B3B2B1" points="95.646,108.056 108.5,108.056 108.5,107.619 95.137,107.619 95.137,109.771 95.646,109.771 	"/>
	<rect x="178.668" y="110.191" fill="#B3B2B1" width="0.514" height="17.407"/>
	<path fill="#B3B2B1" d="M165.106,118.005l0.501,0.647c0,0,0.009-10.597,0-10.597h2.023v-0.437h-2.524
		C165.106,107.619,165.106,116.565,165.106,118.005"/>
	<polygon fill="#B3B2B1" points="154.219,108.056 157.119,108.056 156.783,107.619 153.713,107.619 153.713,127.599 
		154.219,127.599 	"/>
	<polygon fill="#B3B2B1" points="87.359,110.191 86.842,110.191 89.225,121.33 81.584,121.33 81.491,121.758 89.84,121.758 	"/>
	<polygon fill="#B3B2B1" points="141.099,110.191 140.594,110.191 142.983,121.33 135.344,121.33 135.246,121.758 143.586,121.758 	
		"/>
	<polygon fill="#B3B2B1" points="144.051,123.894 143.529,123.894 144.289,127.599 144.799,127.599 	"/>
	<polygon fill="#B3B2B1" points="173.746,108.056 186.591,108.056 186.591,107.619 173.232,107.619 173.232,109.771 
		173.746,109.771 	"/>
	<rect x="116.998" y="125.463" fill="#B3B2B1" width="8.027" height="0.437"/>
	<polygon fill="#B3B2B1" points="135.619,108.056 142.709,108.056 142.619,107.619 135.113,107.619 130.826,127.599 
		131.424,127.599 	"/>
	<polygon fill="#B3B2B1" points="201.898,123.894 201.333,123.894 202.081,127.599 202.655,127.599 	"/>
	<polygon fill="#B3B2B1" points="81.863,108.056 88.945,108.056 88.856,107.619 81.361,107.619 77.059,127.599 77.645,127.599 	"/>
	<polygon fill="#B3B2B1" points="90.305,123.894 89.778,123.894 90.567,127.599 91.085,127.599 	"/>
	<rect x="100.577" y="110.191" fill="#B3B2B1" width="0.514" height="17.407"/>
	<polygon fill="#B3B2B1" points="198.955,110.191 198.389,110.191 200.787,121.33 193.139,121.33 193.046,121.758 201.441,121.758 	
		"/>
	<polygon fill="#B3B2B1" points="189.224,127.599 193.422,108.056 200.512,108.056 200.423,107.619 192.908,107.619 
		188.625,127.599 	"/>
	<polygon fill="#B3B2B1" points="165.612,127.599 165.612,122.017 156.73,110.733 156.73,111.437 165.106,122.074 165.106,127.599 	
		"/>
	<path fill="#0D2240" d="M244.459,127.032l0.599-2.653h7.329l0.541,2.653l-0.606,1.497h6.487l-1.1-1.545l-3.996-18.726l0.695-1.553
		h-11.373l0.695,1.553l-4.02,18.726l-1.061,1.545h6.407L244.459,127.032z M245.203,121.33h7.652l-2.395-11.138h0.559l2.482,11.567
		h-8.396L245.203,121.33z M249.458,110.693l2.087,9.707h-5.63l2.062-9.707H249.458z M253.396,123.894h0.575l0.744,3.705h-0.558
		L253.396,123.894z M244.969,107.619h7.498l0.098,0.437h-7.086l-4.19,19.543h-0.599L244.969,107.619z"/>
	<path fill="#0D2240" d="M322.711,120.836c0.064,0.881,0.033,2.588-0.089,3.705h-7.353c-0.057-0.566-0.09-1.885-0.113-2.411h-4.619
		c0.09,1.399,0.219,4.449,0.729,6.398h15.377c0.566-2.435,1.02-7.66,0.389-10.734l-11.859-4.465
		c-0.064-0.881-0.031-1.521,0.098-2.637h7.353c0.04,0.566,0.073,1.625,0.105,2.151h4.61c-0.08-1.399-0.307-4.441-0.824-6.147
		h-15.127c-0.703,2.232-1.213,6.342-0.533,9.674L322.711,120.836z M323.617,125.471l0.098-0.841c0.08-0.801,0.121-1.828,0.121-2.686
		c0-0.453-0.008-0.857-0.041-1.165l-0.008-0.308c0.299,0.105,0.485,0.178,0.485,0.178l0.04,0.566
		c0.017,0.292,0.041,0.696,0.041,1.149c0,0.874-0.057,1.901-0.138,2.693l-0.089,0.841h-9.416c0,0-0.008-0.178-0.016-0.429H323.617z
		 M312.163,127.42c-0.243-1.399-0.372-3.154-0.47-4.376h2.395c0,0.073,0.017,0.235,0.033,0.437h-1.918
		c0.082,1.141,0.227,2.766,0.43,4.117h-0.445C312.163,127.51,312.163,127.42,312.163,127.42 M326.012,118.434
		c0.032,0.154,0.032,0.324,0.064,0.485c-2.281-0.857-11.454-4.335-11.454-4.335l-0.017-0.461
		C316.709,114.931,325.113,118.086,326.012,118.434 M323.682,110.191h0.485c0,0,0.065,1.051,0.105,1.731h-0.493
		C323.763,111.615,323.715,110.717,323.682,110.191 M312.155,107.821c0,0,0.008-0.097,0.032-0.202h13.508
		c0.018,0.097,0.041,0.194,0.041,0.194c0,0.081,0.016,0.162,0.024,0.243h-13.063c-0.016,0.097-0.033,0.202-0.033,0.202
		c-0.266,1.513-0.533,3.325-0.533,5.177c0,0.833,0.081,1.658,0.211,2.475c-0.211-0.073-0.389-0.146-0.486-0.178
		c-0.145-0.897-0.227-1.812-0.227-2.718C311.629,111.154,311.889,109.334,312.155,107.821"/>
	<path fill="#0D2240" d="M289.862,128.529h6.22l-0.76-1.634v-4.546l3.365-4.23l3.535,8.777l-0.43,1.634h6.423l-6.091-14.722
		l5.621-7.102h-6.834l0.161,1.116l-5.751,7.336v-6.827l0.76-1.625h-6.22l0.735,1.625v18.564L289.862,128.529z M299.318,116.84
		l0.291-0.348l4.465,11.106h-0.437L299.318,116.84z M302.514,107.619h3.211l-0.332,0.437h-2.621l-8.023,10.249v-0.736
		L302.514,107.619z M291.715,107.619h2.516v0.437h-1.998v19.543h-0.518V107.619z"/>
	<path fill="#0D2240" d="M263.517,126.895l-0.437,1.634h0.484h5.809h0.469l-0.291-1.634l3.203-10.815l3.219,10.815l-0.299,1.634
		h0.478h5.8h0.477l-0.42-1.634l4.061-18.564l1.148-1.625h-6.293l0.445,1.625l-2.637,12.012l-3.584-12.012l0.89-1.625h-6.472
		l0.785,1.625l-3.567,12.012l-2.629-12.012l0.429-1.625h-6.285l1.141,1.625L263.517,126.895z M273.086,113.395l0.283-0.971
		l4.514,15.175h-0.566L273.086,113.395z M282.623,107.619h2.49l-0.097,0.437h-1.893l-3.77,16.938l-0.348-1.173L282.623,107.619z
		 M271.67,107.619h2.168l0.129,0.437h-1.779l-5.031,17.003l-0.275-1.254L271.67,107.619z M262.886,107.619l0.097,0.437h-1.925
		l4.287,19.543h-0.55l-4.417-19.979H262.886z"/>
	<path fill="#0D2240" d="M219.432,126.895l-0.776,1.634h6.269l-0.736-1.634v-8.469h6.262l0.008,8.469l-0.801,1.634h6.27l-0.77-1.634
		v-18.564l0.761-1.634l-6.261,0.008l0.793,1.625v6.067h-6.277v-6.067l0.744-1.625h-6.277l0.793,1.625V126.895z M231.549,117.924
		h0.494v9.674h-0.494V117.924z M231.549,115.328v-7.708h2.523v0.437h-2.029v7.709h-8.461v-0.437H231.549z M220.523,107.619h2.564
		v0.437h-2.055v19.543h-0.51V107.619z"/>
	<path fill="#B3B2B1" d="M314.622,114.583c0,0,9.173,3.478,11.454,4.335c-0.032-0.162-0.032-0.332-0.064-0.485
		c-0.898-0.348-9.303-3.502-11.406-4.311L314.622,114.583z"/>
	<rect x="231.549" y="117.924" fill="#B3B2B1" width="0.494" height="9.674"/>
	<polygon fill="#B3B2B1" points="223.582,115.765 232.051,115.765 232.051,108.056 234.072,108.056 234.072,107.619 
		231.549,107.619 231.549,115.328 223.582,115.328 	"/>
	<polygon fill="#B3B2B1" points="245.479,108.056 252.564,108.056 252.467,107.619 244.969,107.619 240.689,127.599 
		241.288,127.599 	"/>
	<path fill="#B3B2B1" d="M314.711,125.9h9.416l0.089-0.841c0.081-0.792,0.138-1.82,0.138-2.693c0-0.453-0.024-0.857-0.041-1.149
		l-0.04-0.566c0,0-0.179-0.065-0.493-0.178l0.016,0.324c0.033,0.291,0.041,0.695,0.041,1.148c0,0.857-0.041,1.893-0.121,2.686
		l-0.098,0.841h-8.922C314.703,125.722,314.711,125.9,314.711,125.9"/>
	<polygon fill="#B3B2B1" points="253.972,123.894 253.396,123.894 254.158,127.599 254.716,127.599 	"/>
	<polygon fill="#B3B2B1" points="251.02,110.191 250.461,110.191 252.848,121.33 245.195,121.33 245.105,121.758 253.502,121.758 	
		"/>
	<polygon fill="#B3B2B1" points="279.354,124.994 283.124,108.056 285.025,108.056 285.113,107.619 282.623,107.619 
		279.015,123.805 	"/>
	<polygon fill="#B3B2B1" points="273.369,112.424 273.078,113.378 277.316,127.599 277.883,127.599 	"/>
	<path fill="#B3B2B1" d="M324.167,110.191h-0.485c0.033,0.525,0.081,1.423,0.098,1.731h0.493
		C324.232,111.243,324.167,110.191,324.167,110.191"/>
	<polygon fill="#B3B2B1" points="299.609,116.493 299.318,116.84 303.638,127.599 304.074,127.599 	"/>
	<polygon fill="#B3B2B1" points="292.232,108.056 294.23,108.056 294.23,107.619 291.715,107.619 291.715,127.599 292.232,127.599 	
		"/>
	<path fill="#B3B2B1" d="M312.342,115.91c-0.13-0.817-0.211-1.642-0.211-2.475c0-1.853,0.268-3.665,0.533-5.177
		c0,0,0.018-0.105,0.033-0.202h13.063c-0.009-0.081-0.024-0.162-0.04-0.243c0,0-0.008-0.097-0.025-0.194h-13.508
		c-0.024,0.105-0.032,0.202-0.032,0.202c-0.267,1.513-0.526,3.333-0.526,5.185c0,0.914,0.082,1.828,0.227,2.726
		C311.953,115.765,312.131,115.837,312.342,115.91"/>
	<polygon fill="#B3B2B1" points="265.345,127.599 261.058,108.056 262.982,108.056 262.886,107.619 260.378,107.619 
		264.795,127.599 	"/>
	<polygon fill="#B3B2B1" points="294.74,118.304 302.771,108.056 305.393,108.056 305.725,107.619 302.514,107.619 294.74,117.56 	
		"/>
	<polygon fill="#B3B2B1" points="267.156,125.059 272.188,108.056 273.967,108.056 273.846,107.619 271.67,107.619 266.881,123.805 
			"/>
	<path fill="#B3B2B1" d="M312.203,123.481h1.918c-0.017-0.202-0.017-0.364-0.033-0.437h-2.395c0.098,1.222,0.227,2.977,0.47,4.376
		c0,0,0,0.089,0.024,0.178h0.453C312.422,126.248,312.285,124.622,312.203,123.481"/>
	<polygon fill="#B3B2B1" points="221.033,108.056 223.088,108.056 223.088,107.619 220.516,107.619 220.516,127.599 
		221.033,127.599 	"/>
</g>
</svg>
