<?xml version="1.0" encoding="utf-8"?>
<!-- Generator: Adobe Illustrator 16.0.0, SVG Export Plug-In . SVG Version: 6.00 Build 0)  -->
<!DOCTYPE svg PUBLIC "-//W3C//DTD SVG 1.1//EN" "http://www.w3.org/Graphics/SVG/1.1/DTD/svg11.dtd">
<svg version="1.1" id="Layer_1" xmlns="http://www.w3.org/2000/svg" xmlns:xlink="http://www.w3.org/1999/xlink" x="0px" y="0px"
	 width="400px" height="400px" viewBox="0 0 400 400" enable-background="new 0 0 400 400" xml:space="preserve">
<g>
	<path d="M112.144,341.16c-0.64-0.546-1.713-1.26-3.344-1.803c1.915-1.001,3.216-2.556,3.897-4.647
		c0.522-1.574,0.492-3.564,0.481-4.314v-9.325c-0.092-2.509-0.351-5.372-2.325-7.647c-1.73-1.949-4.332-2.942-7.753-2.942
		l-12.533,0.016c-0.535,0-0.955,0.433-0.955,0.957v61.395c0,0.522,0.42,0.952,0.955,0.952h12.759c1.326,0,5.359,0,8.669-2.847
		c2.944-2.673,3.262-5.871,3.359-9.505v-10.518C115.354,347.786,115.354,343.863,112.144,341.16 M95.872,342.583h3.347
		c4.383,0.185,8.119,0.646,9.479,4.389c0.425,1.255,0.481,2.604,0.481,3.877v8.692c0,4.143-0.271,6.086-1.946,7.399
		c-0.994,0.697-2.141,1.127-5.101,1.212h-6.26V342.583z M107.074,329.766c-0.036,1.915-0.118,5.459-4.166,6.683
		c-1.091,0.308-1.616,0.395-3.905,0.484H95.78v-20.87h4.407l0.279,0.008c2.599,0.084,5.292,0.161,6.222,2.507
		c0.138,0.555,0.315,1.577,0.402,3.303v7.338C107.084,329.371,107.079,329.556,107.074,329.766"/>
	<path d="M136.542,343.372c0.553-0.144,0.868-0.274,1.334-0.505c3.318-1.257,5.625-3.743,6.488-7.01
		c0.356-1.429,0.379-3.705,0.379-4.146v-9.638c-0.013-0.118-0.018-0.267-0.023-0.45c-0.059-1.787-0.192-5.992-3.746-8.763
		c-2.862-2.191-5.976-2.278-9.279-2.365h-11.917c-0.525,0-0.95,0.43-0.95,0.957v61.395c0,0.522,0.425,0.955,0.95,0.955h4.266
		c0.528,0,0.948-0.433,0.948-0.955v-28.964h5.085l10.979,29.302c0.146,0.374,0.507,0.617,0.901,0.617h4.521h0.031
		c0.528,0,0.955-0.433,0.955-0.955c0-0.194-0.054-0.376-0.161-0.532L136.542,343.372z M138.301,323.283v9.555
		c0,1.283,0.01,3.959-3.093,5.019c-0.604,0.21-1.674,0.461-3.339,0.461h-6.877v-22.255h7.056c1.398,0,2.658,0.051,3.964,0.742
		C138.127,318.008,138.219,320.691,138.301,323.283"/>
	<path d="M170.435,312.245c-2.22-1.619-5.042-2.445-8.377-2.445l-0.292-0.006c-6.033,0-10.659,3.009-12.362,8.04
		c-0.809,2.335-0.906,5.016-0.965,6.468l-0.008,0.095c-0.015,0.279-0.025,0.484-0.041,0.661v0.043v34.643
		c0.09,3.437,0.179,7.333,2.917,10.762c3.075,3.689,8.232,4.084,10.306,4.084c7.474,0,10.601-4.04,11.599-5.764
		c1.654-2.681,1.869-5.428,1.961-8.493v-33.921C175.171,321.462,175.171,315.845,170.435,312.245 M154.473,324.097
		c-0.015-3.546,1.035-6.04,3.124-7.404c1.229-0.764,2.635-1.155,4.184-1.155c1.995,0,3.295,0.648,3.667,0.86
		c1.516,0.75,2.079,1.895,2.358,2.448c1.155,2.235,1.37,5.098,1.37,9.909v29.91c-0.082,3.347-0.166,6.812-3.093,8.896
		c-1.137,0.853-2.561,1.285-4.22,1.285c-5.064,0-6.59-3.715-6.739-4.125c-0.466-1.423-0.65-3.226-0.65-6.659V324.097z"/>
	<path d="M200.924,312.245c-2.225-1.619-5.042-2.445-8.377-2.445l-0.287-0.006c-6.042,0-10.667,3.006-12.372,8.04
		c-0.799,2.33-0.906,5.014-0.962,6.468l-0.005,0.064c-0.01,0.294-0.021,0.509-0.036,0.691v0.054v34.627
		c0.074,3.441,0.171,7.338,2.911,10.765c3.07,3.691,8.232,4.086,10.306,4.086c7.466,0,10.595-4.04,11.594-5.764
		c1.669-2.681,1.879-5.428,1.966-8.498v-33.916C205.661,321.462,205.661,315.845,200.924,312.245 M184.965,324.097
		c-0.021-3.551,1.032-6.04,3.121-7.404c1.227-0.764,2.635-1.149,4.184-1.149c2.051,0,3.388,0.704,3.662,0.854
		c1.511,0.756,2.084,1.895,2.361,2.448c1.157,2.235,1.37,5.09,1.37,9.909v29.91c-0.084,3.347-0.161,6.809-3.096,8.896
		c-1.137,0.853-2.555,1.285-4.204,1.285c-5.08,0-6.596-3.715-6.75-4.125c-0.471-1.423-0.647-3.221-0.647-6.657V324.097z"/>
	<path d="M222.368,335.581l12.851-24.068c0.156-0.29,0.151-0.653-0.025-0.94c-0.166-0.291-0.484-0.466-0.819-0.466h-4.783
		c-0.358,0-0.681,0.195-0.853,0.527l-13.496,26.526v-26.091c0-0.532-0.422-0.963-0.96-0.963h-4.261
		c-0.527,0-0.963,0.431-0.963,0.963v61.396c0,0.521,0.436,0.955,0.963,0.955h4.182c0.524,0,0.952-0.435,0.952-0.955v-23.077
		l3.388-6.386l10.498,29.778c0.128,0.384,0.494,0.64,0.901,0.64h4.611h0.021c0.532,0,0.957-0.435,0.957-0.955
		c0-0.194-0.051-0.371-0.156-0.524L222.368,335.581z"/>
	<path d="M259.257,368.064h-15.051v-56.611c0-0.524-0.425-0.957-0.955-0.957h-4.25c-0.535,0-0.966,0.433-0.966,0.957v61.397
		c0,0.52,0.431,0.949,0.966,0.949h20.256c0.521,0,0.955-0.43,0.955-0.949v-3.828C260.212,368.492,259.778,368.064,259.257,368.064"
		/>
	<path d="M282.208,310.496h-4.695c-0.41,0-0.771,0.256-0.904,0.65l-8.844,26.19l-8.913-26.19c-0.133-0.395-0.499-0.65-0.903-0.65
		h-4.524c-0.308,0-0.6,0.148-0.783,0.401c-0.177,0.259-0.221,0.582-0.113,0.871l12.029,34.107v26.972
		c0,0.522,0.43,0.955,0.957,0.955h4.169c0.527,0,0.963-0.433,0.963-0.955v-26.967l12.464-34.104c0.107-0.282,0.059-0.62-0.117-0.876
		C282.815,310.645,282.518,310.496,282.208,310.496"/>
	<path d="M310.435,310.496h-4.179c-0.251,0-0.502,0.1-0.676,0.281c-0.18,0.18-0.281,0.428-0.281,0.682l0.348,44.812
		c0.044,1.162,0.062,2.281,0.092,3.641c0.006,0.691,0.016,1.398,0.033,2.1l-12.676-50.789c-0.108-0.425-0.487-0.727-0.922-0.727
		h-6.266c-0.525,0-0.95,0.435-0.95,0.957v61.395c0,0.522,0.425,0.955,0.95,0.955h4.089c0.256,0,0.499-0.095,0.676-0.281
		c0.18-0.182,0.279-0.428,0.279-0.684l-0.261-43.65V323.4l12.287,49.681c0.107,0.425,0.491,0.722,0.932,0.722h6.524
		c0.522,0,0.952-0.433,0.952-0.955v-61.395C311.387,310.931,310.957,310.496,310.435,310.496"/>
	<path d="M332.408,61.918c0.025-2.802,0.025-4.383,0.025-4.383v-3.443l-3.113-1.565c-2.187-1.109-54.502-27.115-127.139-27.115
		h-3.372c-72.588,0-124.947,26.006-127.134,27.115l-3.111,1.565v3.443c0,0,0,1.576,0.023,4.21
		c-0.586,30.925,3.206,109.43,51.227,170.432c38.944,49.499,75.441,60.985,79.471,62.127l1.57,0.45l1.557-0.44
		c1.569-0.442,38.75-11.296,78.765-62.137C329.243,171.159,333.022,92.743,332.408,61.918"/>
	<path fill="#FFFFFF" d="M277.728,229.458c47.027-59.717,50.728-136.641,50.118-166.939c0.036-2.815,0.036-4.374,0.036-4.384v-1.138
		l-1.04-0.516c-2.141-1.086-53.359-26.542-124.668-26.542h-3.356c-71.257,0-122.515,25.456-124.666,26.542l-1.032,0.516v1.138
		c0,0.01,0,1.568,0.028,4.213c-0.586,30.396,3.129,107.416,50.128,167.11c37.977,48.274,73.178,59.366,77.067,60.462l0.52,0.148
		l0.512-0.138C202.886,289.511,238.696,279.038,277.728,229.458 M200.858,286.351c-2.968-0.837-37.715-11.529-75.046-58.992
		C76.62,164.874,76.4,83.053,76.771,63.786c-0.031-2.706-0.031-4.235-0.031-4.235s0.054-0.023,0.154-0.078l-0.002-0.165l1.106-0.51
		c2.604-1.195,8.429-3.741,16.868-6.772c20.97-7.669,58.506-18.447,103.969-18.447h3.315c45.364,0,82.818,10.718,103.813,18.384
		c8.523,3.057,14.41,5.634,17.037,6.833l1.099,0.503v0.174c0.103,0.055,0.156,0.078,0.156,0.078s0,1.529-0.031,4.235
		c0.38,19.268,0.185,101.088-49.037,163.573C237.759,274.913,203.7,285.567,200.858,286.351"/>
	<path fill="#FFFFFF" d="M142.721,50.259c-3.272,0.658-4.857,0.999-8.065,1.744c-0.625,0.141-1.068,0.703-1.06,1.348l0.666,59.817
		c0,3.974,0.107,7.617,0.266,10.887c-8.081-20.668-16.504-42.058-25.087-63.718c-0.271-0.673-1.014-1.024-1.706-0.796
		c-4.772,1.581-7.087,2.399-11.778,4.171c-0.538,0.203-0.891,0.713-0.891,1.283v82.228c0,0.451,0.226,0.871,0.592,1.126
		c0.233,0.164,0.504,0.241,0.781,0.241c0.164,0,0.325-0.025,0.486-0.084c2.901-1.099,4.358-1.628,7.441-2.699
		c0.553-0.192,0.924-0.714,0.919-1.303c-0.11-19.449-0.22-38.901-0.325-58.347c0-5.119-0.062-7.979-0.225-11.602
		c8.437,21.463,16.646,42.48,24.452,62.58c0.249,0.646,0.935,1.009,1.608,0.835c5.006-1.237,7.456-1.785,12.469-2.796
		c0.64-0.133,1.096-0.691,1.096-1.342V51.602c0-0.413-0.182-0.803-0.5-1.062C143.542,50.279,143.123,50.172,142.721,50.259
		 M197.163,44.365c-14.213,0.233-28.541,1.494-42.583,3.75c-0.666,0.102-1.157,0.676-1.157,1.349v82.229
		c0,0.397,0.176,0.784,0.484,1.042c0.248,0.215,0.565,0.328,0.886,0.328c0.074,0,0.146-0.005,0.218-0.018
		c13.859-2.223,27.996-3.469,42.027-3.71c0.748-0.013,1.344-0.625,1.344-1.37v-5.123c0-0.369-0.146-0.722-0.407-0.979
		c-0.261-0.256-0.64-0.399-0.983-0.394c-13.143,0.225-20.161,0.725-32.723,2.353v-32.53c10.424-1.361,15.931-1.807,26.844-2.21
		c0.732-0.029,1.316-0.635,1.316-1.369v-5.011c0-0.37-0.151-0.729-0.417-0.988c-0.269-0.26-0.63-0.398-1.001-0.38
		c-10.674,0.393-16.428,0.855-26.572,2.166V54.58c12.787-1.662,19.459-2.129,32.769-2.349c0.748-0.013,1.347-0.624,1.347-1.371
		v-5.126c0-0.367-0.149-0.721-0.41-0.976C197.877,44.499,197.517,44.352,197.163,44.365 M256.25,49.128
		c-16.693-3.06-33.757-4.708-50.712-4.903c-0.374-0.007-0.719,0.14-0.978,0.399c-0.264,0.254-0.407,0.608-0.407,0.973v5.241
		c0,0.749,0.602,1.36,1.354,1.369c7.945,0.088,12.029,0.268,19.552,0.864v75.843c0,0.712,0.542,1.306,1.257,1.365
		c3.313,0.269,4.937,0.428,8.268,0.791c0.051,0.005,0.103,0.008,0.148,0.008c0.338,0,0.663-0.123,0.917-0.351
		c0.292-0.256,0.455-0.63,0.455-1.016V54.137c7.544,0.844,11.691,1.471,19.646,2.927c0.412,0.078,0.817-0.035,1.13-0.292
		c0.312-0.263,0.491-0.648,0.491-1.054v-5.241C257.372,49.813,256.9,49.249,256.25,49.128 M291.457,98.168
		c-17.496-18.083-19.501-21.009-19.501-28.45c0-7.36,3.224-8.351,6.373-8.351c1.646,0,3.659,0.338,5.994,1.01
		c12.648,3.633,12.648,10.533,12.648,15.652v7.34c0,0.586,0.376,1.108,0.93,1.297c3.062,1.038,4.588,1.581,7.781,2.764
		c0.422,0.158,0.891,0.098,1.26-0.157c0.366-0.257,0.583-0.679,0.583-1.128v-6.14c0.006-7.748,0.006-20.712-22.616-27.202
		c-15.815-4.539-23.886,0.314-23.886,14.04c0,11.4,6.99,18.225,18.562,29.531l2.338,2.287
		c13.737,13.468,16.518,17.918,16.518,26.444c0,3.064-0.461,5.205-1.413,6.547c-0.966,1.359-2.52,1.995-4.886,1.995
		c-1.828,0-4.147-0.402-6.9-1.193c-6.004-1.728-10.367-4.089-12.963-7.018c-3.16-3.559-3.16-6.581-3.16-12.598v-6.519
		c0-0.64-0.445-1.198-1.067-1.336c-3.378-0.758-4.993-1.101-8.242-1.736c-0.404-0.077-0.819,0.028-1.135,0.287
		c-0.317,0.261-0.499,0.65-0.499,1.057v11.53c0,10.843,8.869,19.111,25.65,23.899c4.737,1.354,8.834,2.041,12.178,2.041
		c13.15-0.002,13.15-10.6,13.15-15.125C309.154,117.019,303.086,110.19,291.457,98.168"/>
	<path fill="#FFFFFF" d="M251.724,195.737c0.93-0.963,1.677-2.018,2.232-3.145c4.317-8.288,0.451-17.58-1.173-20.812
		c-12.003-19.823-34.684-31.488-58.332-29.22C218.935,143.885,242.649,165.79,251.724,195.737 M171.687,171.433
		c5.907,2.474,13.65,6.631,21.843,11.036c12.935,6.944,26.295,14.134,35.344,16.387c8.058,1.995,14.682,1.812,19.331-0.518
		c-0.02-0.087-0.035-0.179-0.054-0.264c-0.068-0.333-0.136-0.657-0.225-0.988c-3.933-16.481-24.55-52.558-60.271-52.558
		c-1.5,0-3.032,0.087-4.558,0.215c-13.821,3.997-25.179,12.485-32.876,23.454c1.301-0.42,3.011-0.791,5.326-0.791
		C159.909,167.406,165.339,168.76,171.687,171.433 M162.799,221.17c14.508,4.785,22.565,6.316,33.145,6.316
		c3.858,0,8.252-0.22,13.829-0.684c15.48-1.334,31.78-6.45,40.55-10.702c-0.019-4.248-0.407-8.57-1.157-12.854
		c-2.6,1.574-5.533,2.312-9.154,2.312c-3.646,0-8.045-0.696-15.193-2.406c-8.444-2.003-20.509-9.19-31.153-15.529
		c-5.84-3.48-11.363-6.765-15.918-9.016c-17.38-8.598-27.256-7.395-29.88-6.826c-6.202,10.313-9.325,22.455-8.521,34.958
		C140.519,208.411,146.451,215.788,162.799,221.17 M254.474,213.763c0.156-0.107,0.308-0.216,0.445-0.312
		c5.139-3.58,6.468-9.382,6.657-10.337c-0.016-4.862-0.604-9.806-1.858-14.743c-0.047-0.2-0.11-0.387-0.164-0.582
		c-0.481,4.522-2.694,8.716-6.632,12.467C253.956,204.772,254.481,209.308,254.474,213.763 M255.959,217.104
		c-0.21,0.151-0.42,0.303-0.63,0.456c-0.333,0.248-0.671,0.499-1.042,0.748c-0.29,3.884-1.002,7.727-2.113,11.447
		c1.931-0.676,2.597,0.103,2.781,0.551c0.025,0.063,0.041,0.128,0.062,0.191c3.159-6.217,5.254-12.979,6.114-20.018
		C260.155,212.822,258.57,215.273,255.959,217.104 M253.616,232.277c-0.054-0.243-0.105-0.254-0.236-0.254
		c-0.184,0-0.616,0.087-1.472,0.646c-0.151,0.107-0.317,0.22-0.484,0.327c-0.15,0.098-0.294,0.192-0.425,0.287
		c-1.534,4.048-3.546,7.871-5.86,11.286c3.358-3.584,6.27-7.548,8.664-11.809h-0.085L253.616,232.277z M190.931,258.056
		c6.979-0.822,12.764-2.586,19.344-5.895c0.968-0.474,1.904-0.96,2.847-1.451c0.799-0.415,1.598-0.832,2.407-1.234
		c5.587-2.93,11.57-6.104,18.829-9.993c2.563-1.375,5.111-2.83,7.579-4.24l2.894-1.61c1.121-0.6,2.176-1.168,3.233-1.813
		c0.098-0.062,0.221-0.138,0.356-0.22c0.922-3.4,1.525-7.082,1.805-10.979c-7.126,3.569-17.833,6.708-33.547,9.857
		c-20.107,4.002-39.787,2.202-57.346-5.208c-11.806-4.972-17.401-11.859-19.73-15.648c0.299,2.693,0.773,5.399,1.454,8.105
		c3.866,15.324,13.281,27.827,25.579,35.929l-0.061-0.103l1.736,1.024c1.398,0.834,3.142,1.549,5.182,2.135
		c3.836,1.15,7.618,1.711,11.568,1.711C186.929,258.422,188.85,258.299,190.931,258.056 M246.588,236.392
		c-0.789,0.559-1.588,1.132-2.459,1.736c-2.304,1.603-4.552,2.96-6.938,4.394c-1.116,0.673-2.261,1.359-3.446,2.097
		c-8.188,5.067-17.975,10.68-28.482,13.896c-3.052,0.95-5.863,1.623-8.587,2.056c-2.53,0.377-4.901,0.559-7.264,0.559l-0.458-0.002
		c-3.098-0.016-6.112-0.308-8.997-0.846c10.984,3.902,23.203,4.742,35.36,1.729c6.972-1.729,13.35-4.588,19.014-8.326
		c5.42-4.243,9.807-10.275,12.62-17.55C246.828,236.22,246.705,236.307,246.588,236.392"/>
	<path fill="#FFFFFF" d="M224.608,215.478c0-4.455,0-11.079-5.264-16.215c0.568-1.006,1.05-2.087,1.418-3.254
		c0.886-2.658,0.958-5.567,0.911-7.461l-0.025-12.265v-0.185c-0.141-4.562-0.834-9.381-4.553-13.565
		c-3.352-3.769-8.385-5.751-14.563-5.751l-16.65,0.046c-1.81,0-3.615,0.707-4.937,2.03c-1.295,1.301-2.048,3.062-2.048,4.924
		l0.156,80.556c0,2.402,1.229,4.614,3.272,5.851c1.142,0.682,2.428,1.058,3.774,1.058l16.935-0.025
		c6.114-0.01,11.243-1.757,15.229-5.197l0.057-0.036c5.584-5.009,6.186-10.913,6.324-16.559v-0.069L224.608,215.478z"/>
	<path d="M220.292,216.025c0-4.501,0-10.006-4.693-13.902c-0.974-0.812-2.151-1.521-3.547-2.079c2.177-1.465,3.67-3.478,4.491-6.007
		c0.743-2.25,0.709-5.049,0.687-6.145l-0.041-12.802c-0.112-3.543-0.505-7.579-3.375-10.849c-2.534-2.806-6.375-4.253-11.25-4.235
		l-17.36,0.043c-0.509,0-1.003,0.205-1.4,0.586c-0.387,0.374-0.571,0.858-0.571,1.37l0.148,84.057c0,0.671,0.358,1.331,0.947,1.669
		c0.312,0.203,0.696,0.317,1.099,0.317l17.66-0.048c1.879,0,7.635-0.021,12.426-4.104c4.247-3.854,4.686-8.391,4.811-13.491
		L220.292,216.025z M208.027,237.396c-1.239,0.891-2.755,1.408-6.629,1.541c0,0-6.66,0.016-7.162,0.016
		c-0.606,0-0.84-0.358-0.84-0.93c0-4.903-0.069-31.916-0.069-32.144c0-0.248,0.069-0.592,0.581-0.592c0.497,0,3.341-0.03,3.341-0.03
		c3.523,0.174,7.216,0.436,9.612,1.961c1.39,0.832,2.322,2.022,2.921,3.595c0.533,1.616,0.625,3.411,0.625,5.08l0.025,11.911
		C210.434,233.237,210.102,235.792,208.027,237.396 M202.177,195.573c-1.429,0.404-2.118,0.532-5.229,0.635l-3.091,0.01
		c-0.53,0.021-0.673-0.235-0.673-0.645c0-0.246-0.038-25.886-0.038-25.886c0-0.417,0.156-0.666,0.586-0.709h4.785h0.384
		c2.289,0.08,4.839,0.151,6.478,1.158c0.753,0.463,1.208,1.016,1.482,1.756c0.232,0.766,0.448,2.102,0.576,4.381l0.03,10.029
		c-0.03,0.167-0.03,0.422-0.03,0.755C207.366,189.653,207.311,194.037,202.177,195.573"/>
</g>
</svg>
