<?xml version="1.0" encoding="utf-8"?>
<!-- Generator: Adobe Illustrator 17.1.0, SVG Export Plug-In . SVG Version: 6.00 Build 0)  -->
<!DOCTYPE svg PUBLIC "-//W3C//DTD SVG 1.1//EN" "http://www.w3.org/Graphics/SVG/1.1/DTD/svg11.dtd">
<svg version="1.1" id="Layer_1" xmlns="http://www.w3.org/2000/svg" xmlns:xlink="http://www.w3.org/1999/xlink" x="0px" y="0px"
	 viewBox="0 0 174 174" enable-background="new 0 0 174 174" xml:space="preserve">
<g>
	<path fill="#26245C" d="M43.8,79.4h-12v13l-7.2,3.5l7.2,3.8v11.5l8,4.9c2.9-0.4,6.6-0.9,11-1.3l30.7,17.7l5.6,25.7
		c0-0.1,5.7-25.7,5.7-25.7l30.7-17.7c4.3,0.5,8.1,0.9,11,1.3l7.9-4.9V99.7l7.2-3.7l-7.2-3.6v-13h-12c0,0,1.9-1.8,4.2-5.8
		c1-1.7,1.9-3.8,3-6.2c8.7-2.6,15.1-8.2,17.9-13.6c7.5-13.6,13.1-30.4,13.1-30.4s-3.2,1.6-7.1,3.5c3.1-9.6,5.1-17.8,5.1-17.8
		s-34.4,22.8-61.3,44.2l-2.3-1.4c0-0.2,0.1-2.1,0.1-2.3c0,0,0.3-2.2-3.7-3.6c-0.3-0.1-0.5-0.2-0.7-0.2c1.9-1.5,5-3.7,7.1-5.2
		c3.5-2.4,3.1-5.1,3.1-5.1l-12.8,9.5c-9.8-3.2-18,0-18,0l-12.8-9.5c0,0-0.4,2.6,3.1,5.1c2.2,1.5,5.3,3.7,7.2,5.2
		c-0.2,0.1-0.5,0.2-0.7,0.2c-4,1.4-3.7,3.6-3.7,3.6c0,0.2,0.1,2.1,0.1,2.3L69,53.1C42.1,31.7,7.7,8.9,7.7,8.9s1.9,8.2,5.1,17.8
		c-4.2-2-7.1-3.5-7.1-3.5S11.3,40,18.7,53.6c2.7,5.5,9.2,11,17.9,13.6c0,0,1.5,3.4,2.7,5.8C40.9,76.1,43.8,79.4,43.8,79.4z"/>
	<g>
		<path fill="#0D89A5" d="M101.5,59.9c-0.1,0.4-0.3,0.8-0.4,1.1c12.1-7.9,33.1-21.6,56.7-36.9c0,0,0,0.5,2.1-5.6
			C135.1,33.6,113,50.6,101.5,59.9z"/>
		<path fill="#0D89A5" d="M72.7,59.9c-11.4-9.3-33.5-26.3-58.5-41.4c2,6,2.1,5.6,2.1,5.6C39.9,39.3,61,53.1,73.1,61
			C72.9,60.7,72.8,60.3,72.7,59.9z"/>
		<path fill="#0D89A5" d="M87.1,72.1c-2-0.8-7.2-3.4-10.3-10.1c2.5,2.2,5.8,2.9,8.5,0.4c-3.2-1.4-3.6-7.1-4.2-8.6
			c-1.3-3-3.2-4.6-4.8-5.2c0.8-0.3,1.5-0.5,2.1-0.7c1.5,0.8,4,2.6,4.8,6.4c0,0,0.3-4.2-1.8-7.2c4.1-1,8.2-0.9,11.5,0
			c-2.1,3-1.8,7.2-1.8,7.2c0.8-3.7,3.3-5.6,4.8-6.4c0.7,0.2,1.4,0.5,2.1,0.7c-1.6,0.7-3.5,2.1-4.8,5.2c-0.6,1.5-1,7.2-4.2,8.6
			C89.8,66.6,88.9,70.7,87.1,72.1z M50.8,80.1c0,0-5.9-4.2-9.3-12l2.3,0.7c7.7,2,22.5,4.1,22.5,4.1c-7.1,0.2-13.2,0.7-16.6,1.1
			c-0.7-0.9-1.6-2-1.9-2.8c0,0,0.3,2.7,0.9,4.4l0,0C49.6,78,50.8,80.1,50.8,80.1z"/>
		<path fill="#0D89A5" d="M125.4,75.5L125.4,75.5c0.6-1.7,0.9-4.4,0.9-4.4c-0.3,0.9-1.2,1.9-1.9,2.8c-3.4-0.4-9.5-1-16.6-1.1
			c0,0,14.7-2,22.5-4.1l2.3-0.7c-3.3,7.7-9.3,12-9.3,12C123.5,80.1,124.6,78,125.4,75.5z"/>
		<path fill="#0D89A5" d="M68.7,116.7l-15-8.7c-1.1,0.1-2.1,0.2-3.1,0.3l20.9,12.1C70.4,119.2,69.5,118,68.7,116.7z"/>
		<path fill="#0D89A5" d="M105.5,116.7l15-8.7c1.1,0.1,2.1,0.2,3.1,0.3l-20.9,12.1C103.9,119.2,104.8,118,105.5,116.7z"/>
		<g>
			<path fill="#0D89A5" d="M80.4,118.8c-6.6-1.5-9.4-4.7-9.4-4.7c1.4,2.7,3.4,5.2,5.9,6.8C77,120.9,79.8,120,80.4,118.8z"/>
			<path fill="#0D89A5" d="M76.4,111.6c-0.5-0.5-1-1-1.5-1.5c-2.1,0.8-3.3,1.6-4,2.1c1.5,1.4,4.3,3.2,9.3,4.3
				C79.7,115,78.1,113.4,76.4,111.6z"/>
			<path fill="#0D89A5" d="M87,127.3c-2.2,0-3.8,0.9-4.3,1.1c-0.6-1.1-1.2-2-1.8-3c1.9,0.2,3.5-0.1,3.5-0.1c-0.8-0.3-2.8-1-5.6-2.7
				l0,0c0.2-0.1,0.5-0.2,0.7-0.3l0,0c0.7-0.4,1.5-0.8,1.9-1.4c0.7-0.7,1.2-1.6,1.2-2.6c0-3.3-2.2-4.4-4.7-6.8
				c-0.5-0.5-1.1-1-1.6-1.6c2.2-0.6,5.4-1.1,9.6-1.2l1,13.9h0.1l1.1-13.9c4.2,0.1,7.3,0.6,9.6,1.2c-0.6,0.5-1.1,1.1-1.6,1.6
				c-2.5,2.4-4.7,3.6-4.7,6.8c0,1.1,0.5,1.9,1.2,2.6c0.6,0.6,1.3,1.1,1.9,1.4l0,0c0.2,0.1,0.5,0.2,0.7,0.3l0,0
				c-2.7,1.8-4.8,2.4-5.6,2.7c0,0,1.7,0.4,3.5,0.1c-0.6,1-1.3,1.9-1.8,3c-0.5-0.2-2-1.1-4.3-1.1H87z"/>
			<path fill="#0D89A5" d="M97.3,120.9c2.5-1.8,4.6-4.1,5.9-6.8c0,0-2.7,3.3-9.4,4.7C94.4,120,97.3,120.9,97.3,120.9z"/>
			<path fill="#0D89A5" d="M93.9,116.6c5.1-1.1,7.8-2.9,9.3-4.3c-0.6-0.6-1.9-1.4-4-2.1c-0.5,0.5-1,1-1.5,1.5
				C96.1,113.4,94.5,115,93.9,116.6z"/>
		</g>
	</g>
	<g>
		<path fill="#FFFFFF" d="M82.6,62.7c0,0-2.4-1.6-2.8-5.1C79.8,57.6,76.6,63,82.6,62.7z"/>
		<path fill="#FFFFFF" d="M91.8,62.7c0,0,2.4-1.6,2.8-5.1C94.6,57.6,97.7,63,91.8,62.7z"/>
		<path fill="#FFFFFF" d="M90,132.4c-0.4-0.5-1.1-1-3-1c-1.9,0-2.4,0.5-3,0.9l3.1,12.4L90,132.4z"/>
		<path fill="#FFFFFF" d="M110.7,78.1v4.5h-1.6v-4.5h-1.3v-1.4h4V78L110.7,78.1L110.7,78.1z"/>
		<path fill="#FFFFFF" d="M103.6,78.1v4.5H102v-4.5h-1.3v-1.4h4.1V78L103.6,78.1L103.6,78.1z"/>
		<path fill="#FFFFFF" d="M82.2,80.6h0.6v-3.1l-0.7-0.7h-3.9v5.8h1.5v-2h1.1l0.9,2h1.5L82.2,80.6z M81.4,79.2h-1.7V78h1.7V79.2z"/>
		<polygon fill="#FFFFFF" points="119.5,78.1 119.5,76.7 115.2,76.7 115.2,82.6 119.5,82.6 119.5,81.3 116.6,81.3 116.6,80.4 
			119.5,80.4 119.5,79 116.6,79 116.6,78.1 		"/>
		<polygon fill="#FFFFFF" points="87.9,81.3 87.9,76.7 86.4,76.7 86.4,82.6 90,82.6 90,81.3 		"/>
		<path fill="#FFFFFF" d="M96.8,76.7h-3.9v5.2l0.7,0.7h3.9v-5.2L96.8,76.7z M96,81.3h-1.7v-3.2H96V81.3z"/>
		<path fill="#FFFFFF" d="M74.8,82.6v-5.2l-0.7-0.7h-3.9v5.8h1.5v-1.9h1.7v1.9H74.8z M71.7,79.4V78h1.7v1.4H71.7z"/>
		<polygon fill="#FFFFFF" points="65.6,76.7 65.6,79.4 63.9,79.4 63.9,76.7 62.5,76.7 62.5,82.6 63.9,82.6 63.9,80.7 65.6,80.7 
			65.6,82.6 67,82.6 67,76.7 		"/>
		<path fill="#FFFFFF" d="M153,35.4c2.8-6.6,5-11.4,5-11.4c-23.6,15.3-44.6,29-56.7,36.9c-0.5,1.3-1,2.4-1.6,3.5l47.6-25.9
			l-37.1,26.8l1.8-0.3l19.6-1.9c0,0,13.3-1.3,20.7-11.2c3.5-5.4,9.4-20.9,9.4-20.9L153,35.4z"/>
		<g>
			<path fill="#FFFFFF" d="M39.4,97.5l4.6-1.9v10.3c1.3-0.2,2.6-0.4,4-0.5V82.6h-4v8.2l-4.6,1.9V82.6h-4v11.8c0,0-3.3,1.6-3.3,1.7
				l3.3,1.7v9.6c1.3-0.2,2.6-0.5,4-0.7V97.5z"/>
			<path fill="#FFFFFF" d="M70.7,97.4c1,0,1.9-0.1,3-0.1c0.8,1.9,1.5,4.1,2.2,6c1.4,0,2.6-0.1,4-0.1c-0.8-1.9-1.5-4.1-2.2-6
				c0.5,0,1,0,1.6,0v-9.4l-1.8-1.8H65.2l1.6,1.9v15.8c1.4-0.1,2.6-0.1,4-0.2V97.4z M70.7,89.8h4.6c0,1.1,0,2.5,0,3.6
				c-1.6,0-3,0-4.6,0.1V89.8z"/>
			<path fill="#FFFFFF" d="M86.4,89.8H91v13.4c1.4,0,2.8,0,4.2,0.1V88l-1.9-1.9H80.8l1.6,1.9v15.3c1.4,0,2.7,0,4.1,0
				C86.4,103.2,86.4,89.8,86.4,89.8z"/>
			<path fill="#FFFFFF" d="M110.3,100c-2.6-0.1-5.2-0.3-7.8-0.4c0-1,0-1.9,0-2.8c2.6,0.1,5.2,0.2,7.8,0.3v-4
				c-2.6-0.1-5.2-0.1-7.8-0.2c0-0.8,0-2,0-3h7.8v-3.7H96.8l1.5,1.9v15.4c4.1,0.1,8.2,0.3,12.1,0.6V100z"/>
			<path fill="#FFFFFF" d="M120.5,89.8h3.5v-3.7c-3.8,0-7.6,0-11.4,0v3.7h3.5v14.5c1.5,0.1,2.9,0.2,4.4,0.4V89.8z"/>
			<path fill="#FFFFFF" d="M63.7,88l-1.9-1.9H49.5l1.5,1.8v15l1.6,1.9c3.5-0.4,7.3-0.7,11.1-0.9L63.7,88z M59.6,100.2
				c-1.6,0.1-3,0.2-4.6,0.3V89.8h4.6V100.2z"/>
			<path fill="#FFFFFF" d="M138.5,97.6c1.3-0.6,2.5-1.2,3.7-1.8c-4-1.9-8-3.5-12.1-5.1v-4.6h4.3v1.7h4.1v-5.3h-13.8l1.6,1.8v9.5
				l8.3,3.6v5.3c0,0-1.9-0.2-4.3-0.6v-1.7l-4-0.5v5.4c4.4,0.5,8.5,1.1,12.3,1.8C138.5,104.2,138.5,99.8,138.5,97.6z"/>
		</g>
		<g>
			<polygon fill="#FFFFFF" points="57.8,80.7 57.8,81.3 56.4,81.3 56.4,78.1 57.8,78.1 57.8,78.5 59.2,78.5 59.2,76.7 54.9,76.7 
				54.9,81.9 55.6,82.6 59.2,82.6 59.2,80.7 			"/>
		</g>
		<path fill="#FFFFFF" d="M21.3,35.4c-2.9-6.6-5-11.3-5-11.3c23.6,15.3,44.6,29,56.7,36.9c0.5,1.3,1,2.4,1.6,3.5L27.1,38.6
			l37.1,26.8l-1.8-0.3l-19.6-1.9c0,0-13.3-1.3-20.7-11.2c-3.5-5.4-9.4-20.9-9.4-20.9L21.3,35.4z"/>
	</g>
	<path fill="#9B9B9F" d="M167.7,30.8c-3.8,10-8.8,20.5-11.3,24.8c-4.2,7.2-12.6,11.5-17.5,13.2c0,0-2.4,5.8-4.9,9h10v13.6l9.6,4.6
		l-9.6,4.8v11.5l-9.3,5.7c0,0-7.4-0.9-11-1.3l-29.4,17c-5.8,26.6-7.3,34.3-7.3,34.3s-1.4-7.3-7.3-34.3l-29.4-17
		c-3.6,0.4-11,1.3-11,1.3l-9.3-5.7v-11.5L20.4,96l9.6-4.6V77.7h10c-2.4-3-4.9-9-4.9-9c-2.9-1-5.8-2.3-8.3-3.9
		c-4-2.5-7.2-5.8-9.3-9.2C13.8,48.5,9,37.9,6.5,30.8c-1.7-4.3-3.8-10.9-3.8-10.9s5.5,2.6,7.1,3.4C7.2,15.4,4.9,5,4.9,5l0,0l0,0
		c0,0,37.6,24.8,64,45.9l0.4-0.3c0-0.5,0-0.9,0-1.4c0-0.3,0-0.8,0.2-1.5c0.3-0.9,1-1.9,2.5-2.9c-1.9-1.5-5.5-3.8-5.8-4.2
		c-2.5-2.2-3-4.7-2.8-5.9l0.4-2.8l14.3,10.6c7.8-2.2,13.3-1.2,17.4,0l14.3-10.6l0.4,2.8c0.2,1.3-0.2,3.7-2.8,5.9
		c-0.3,0.3-3.8,2.7-5.8,4.2c1.6,1,2.2,2,2.5,2.9c0.2,0.7,0.2,1.2,0.2,1.5c0,0.5,0,0.9,0,1.4l0.4,0.3c27-21.6,64-45.9,64-45.9l0,0
		l0,0c0,0-1.9,8.6-4.9,18.3c1.5-0.7,7.1-3.4,7.1-3.4C169.9,25.2,167.7,30.8,167.7,30.8z M43.8,79.4h-12v13l-7.2,3.5l7.2,3.8v11.5
		l8,4.9c2.9-0.4,6.6-0.9,11-1.3l30.7,17.7l5.6,25.7c0-0.1,5.7-25.7,5.7-25.7l30.7-17.7c4.3,0.5,8.1,0.9,11,1.3l7.9-4.9V99.7l7.2-3.7
		l-7.2-3.6v-13h-12c0,0,1.9-1.8,4.2-5.8c1-1.7,1.9-3.8,3-6.2c8.7-2.6,15.1-8.2,17.9-13.6c7.5-13.6,13.1-30.4,13.1-30.4
		s-3.2,1.6-7.1,3.5c3.1-9.6,5.1-17.8,5.1-17.8s-34.4,22.8-61.3,44.2l-2.3-1.4c0-0.2,0.1-2.1,0.1-2.3c0,0,0.3-2.2-3.7-3.6
		c-0.3-0.1-0.5-0.2-0.7-0.2c1.9-1.5,5-3.7,7.1-5.2c3.5-2.4,3.1-5.1,3.1-5.1l-12.8,9.5c-9.8-3.2-18,0-18,0l-12.8-9.5
		c0,0-0.4,2.6,3.1,5.1c2.2,1.5,5.3,3.7,7.2,5.2c-0.2,0.1-0.5,0.2-0.7,0.2c-4,1.4-3.7,3.6-3.7,3.6c0,0.2,0.1,2.1,0.1,2.3L69,53.1
		C42.1,31.7,7.7,8.9,7.7,8.9s1.9,8.2,5.1,17.8c-4.2-2-7.1-3.5-7.1-3.5S11.3,40,18.7,53.6c2.7,5.5,9.2,11,17.9,13.6
		c0,0,1.5,3.4,2.7,5.8C40.9,76.1,43.8,79.4,43.8,79.4z"/>
</g>
</svg>
