<?xml version="1.0" encoding="utf-8"?>
<!-- Generator: Adobe Illustrator 16.2.1, SVG Export Plug-In . SVG Version: 6.00 Build 0)  -->
<!DOCTYPE svg PUBLIC "-//W3C//DTD SVG 1.1//EN" "http://www.w3.org/Graphics/SVG/1.1/DTD/svg11.dtd">
<svg version="1.1" id="Layer_1" xmlns="http://www.w3.org/2000/svg" xmlns:xlink="http://www.w3.org/1999/xlink" x="0px" y="0px"
	 width="400px" height="400px" viewBox="0 0 400 400" enable-background="new 0 0 400 400" xml:space="preserve">
<g>
	<g>
		<path fill="#FFB819" d="M127.518,205.961c-3.087-53.572,37.84-99.493,91.406-102.581c53.568-3.085,99.488,37.839,102.578,91.417
			c3.08,53.547-37.84,99.479-91.406,102.562C176.527,300.449,130.604,259.521,127.518,205.961"/>
	</g>
	<g>
		<path fill="#041E41" d="M316.945,195.055c2.938,51.042-36.062,94.819-87.117,97.757c-51.046,2.941-94.821-36.067-97.758-87.111
			c-2.943-51.058,36.067-94.832,87.112-97.769C270.238,104.99,314.002,143.997,316.945,195.055"/>
	</g>
	<g>
		<path fill="#73243D" d="M236.049,115.577c32.648,4.416,59.852,27.382,69.879,58.462c-24.691-24.057-55.957-38.152-88.303-37.197
			C218.995,125.997,227.506,119.007,236.049,115.577 M205.05,117.037c4.695-1.088,9.55-1.794,14.528-2.085
			c2.086-0.121,4.162-0.16,6.223-0.139c-7.154,4.529-13.6,12.11-14.81,22.437c-4.41,0.413-8.834,1.108-13.256,2.101
			C199.468,129.561,202.079,121.776,205.05,117.037 M173.746,131.481c7.404-5.477,15.744-9.78,24.765-12.654
			c-2.647,5.205-5.015,12.812-6.67,22.025c-4.668,1.33-9.327,3.001-13.965,5.019C177.848,141.67,176.721,137.251,173.746,131.481
			 M146.215,165.798c5.218-11.777,13.028-22.213,22.749-30.518c2.906,2.805,3.289,8.386,2.813,13.461
			C163.109,153.126,154.554,158.78,146.215,165.798 M142.547,175.708c0.189-0.624,0.383-1.251,0.587-1.866
			C143.053,174.513,142.871,175.11,142.547,175.708 M151.875,245.643c-7.354-11.773-11.941-25.507-12.794-40.344
			c-0.571-9.896,0.562-19.498,3.148-28.518c9.047-8.675,18.552-15.579,28.315-20.831l-0.092,0.361
			c-3.136,11.964-11.064,21.99-15.619,33.18C147.533,207.416,147.751,228.186,151.875,245.643 M240.924,284.355
			c-3.75,0.726-7.59,1.215-11.508,1.438c-25.646,1.478-49.312-8.508-66.002-25.507c-8.972-17.737-10.709-45.611-4.657-64.217
			c3.238-9.955,12.697-23.466,15.603-33.559c1.069-3.703,2.044-6.845,2.701-9.807c4.546-2.081,9.134-3.812,13.749-5.209
			C185.564,187.29,193.265,250.025,240.924,284.355 M291.148,254.031c-10.869,13.494-25.787,23.671-43.043,28.598
			c-47.739-35.018-56.23-97.858-51.352-136.744c4.708-1.127,9.438-1.917,14.154-2.372c1.002,11.682,8.438,26.196,27.215,43.214
			C258.684,206.275,284.047,232.122,291.148,254.031 M309.918,195.458c1.1,19.086-4.148,37.075-13.908,51.913
			c-7.395-21.29-31.4-44.79-51.609-64.006c-18.104-16.414-25.531-29.773-26.771-40.271c34.137-1.008,67.372,15.212,91.454,44.335
			C309.482,190.068,309.76,192.746,309.918,195.458"/>
	</g>
	<g>
		<path fill="#FFB819" d="M363,255.834l-35.768-9.609c6.557-4.945,28.424-10.328,28.727-21.875c0.018-0.164,0.023-0.324,0.033-0.49
			c11.744-9.319,15.863-22.434,11.811-40.421l15.074-37.567c0,0-38.939,9.369-45.188,10.868l5.846-17.578l-138.92,34.172
			c-32.959-14.359-73.042-3.076-104.492,15.478l-24.234-6.108c-21.994-5.664-41.394-10.492-60.466-6.143
			c14.594,13.03,33.909,18.185,55.9,23.854l8.523,2.23c-8.445,6.649-15.656,13.6-21.119,20.27l-5.492,6.693l19.865-3.146
			c-45.833,72.403,29.566,99.377,80.358,36.034l52.674-13.812c-7.317,9.731-7.314,24.18-7.314,24.18l3.176-2.437
			c15.9-13.413,34.331-20.127,48.604-23.03l33.776,8.853c-0.054,0.135-0.078,0.319-0.092,0.567
			c-1.187,18.61,7.428,31.237,26.59,34.328c1.125,0.219,1.932,0.403,3.348,0.631c-0.338-4.051-0.358-7.013-0.176-11.07
			c14.549,10.388,30.543,8.531,43.789-2.997l1.002,2.416c14.228,3.491,21.317-20.55,20.211-25.924
			C379.012,254.07,371.418,252.951,363,255.834"/>
	</g>
	<g>
		<g>
			<defs>
				<path id="SVGID_1_" d="M142.547,175.708c0.323-0.599,0.506-1.194,0.583-1.869C142.927,174.455,142.734,175.08,142.547,175.708
					 M142.23,176.784c-2.587,9.017-3.72,18.621-3.149,28.513c0.85,14.837,5.44,28.569,12.795,40.344
					c-4.126-17.455-4.343-38.225,2.957-56.149c4.556-11.188,12.48-21.216,15.619-33.181l0.092-0.361
					C160.783,161.201,151.278,168.107,142.23,176.784 M177.061,152.706c-0.652,2.961-1.632,6.103-2.702,9.805
					c-2.904,10.096-12.363,23.607-15.598,33.557c-6.059,18.608-4.318,46.486,4.654,64.218c16.69,17.001,40.354,26.983,66.004,25.509
					c3.916-0.223,7.756-0.711,11.508-1.439c-47.661-34.33-55.359-97.065-50.117-136.859
					C186.196,148.896,181.607,150.625,177.061,152.706 M196.754,145.884c-4.879,38.883,3.616,101.728,51.352,136.745
					c17.254-4.929,32.178-15.104,43.041-28.596c-7.099-21.911-32.461-47.762-53.023-67.308
					c-18.775-17.016-26.213-31.528-27.215-43.212C206.191,143.968,201.463,144.758,196.754,145.884 M220.636,143.052
					c-1.001,0-2.004,0.013-3.006,0.043c1.238,10.495,8.665,23.856,26.771,40.27c20.209,19.22,44.216,42.717,51.609,64.005
					c9.76-14.836,15.008-32.825,13.908-51.909c-0.154-2.714-0.436-5.391-0.838-8.032c-23.369-28.268-55.361-44.376-88.438-44.376
					C220.641,143.052,220.639,143.052,220.636,143.052 M146.215,165.799c8.339-7.019,16.897-12.672,25.562-17.056
					c0.472-5.076,0.093-10.657-2.813-13.463C159.243,143.584,151.43,154.021,146.215,165.799 M173.744,131.48
					c2.974,5.773,4.104,10.191,4.13,14.394c4.636-2.024,9.293-3.694,13.967-5.024c1.655-9.208,4.019-16.817,6.67-22.023
					C189.491,121.701,181.15,126.007,173.744,131.48 M217.625,136.844c32.346-0.958,63.609,13.14,88.303,37.196
					c-10.027-31.08-37.229-54.049-69.879-58.461C227.508,119.006,218.997,125.996,217.625,136.844 M219.578,114.952
					c-4.984,0.29-9.833,0.997-14.528,2.087c-2.975,4.736-5.584,12.523-7.315,22.308c4.424-0.988,8.846-1.684,13.256-2.097
					c1.21-10.327,7.655-17.903,14.81-22.437c-0.354-0.005-0.709-0.007-1.061-0.007C223.027,114.806,221.307,114.849,219.578,114.952
					"/>
			</defs>
			<clipPath id="SVGID_2_">
				<use xlink:href="#SVGID_1_"  overflow="visible"/>
			</clipPath>
			<g clip-path="url(#SVGID_2_)">
				<path fill="#FFB819" d="M363,255.834l-35.768-9.609c6.557-4.945,28.424-10.328,28.727-21.875
					c0.018-0.164,0.023-0.324,0.033-0.49c11.744-9.319,15.863-22.434,11.811-40.421l15.074-37.567c0,0-38.939,9.369-45.188,10.868
					l5.846-17.578l-138.92,34.172c-32.959-14.359-73.042-3.076-104.492,15.478l-24.234-6.108
					c-21.994-5.664-41.394-10.492-60.466-6.143c14.594,13.03,33.909,18.185,55.9,23.854l8.523,2.23
					c-8.445,6.649-15.656,13.6-21.119,20.27l-5.492,6.693l19.865-3.146c-45.833,72.403,29.566,99.377,80.358,36.034l52.674-13.812
					c-7.317,9.731-7.314,24.18-7.314,24.18l3.176-2.437c15.9-13.413,34.331-20.127,48.604-23.03l33.776,8.853
					c-0.054,0.135-0.078,0.319-0.092,0.567c-1.187,18.61,7.428,31.237,26.59,34.328c1.125,0.219,1.932,0.403,3.348,0.631
					c-0.338-4.051-0.358-7.013-0.176-11.07c14.549,10.388,30.543,8.531,43.789-2.997l1.002,2.416
					c14.228,3.491,21.317-20.55,20.211-25.924C379.012,254.07,371.418,252.951,363,255.834"/>
			</g>
		</g>
	</g>
	<g>
		<g>
			<defs>
				<path id="SVGID_3_" d="M143.131,173.838c-0.078,0.675-0.26,1.27-0.583,1.869C142.734,175.08,142.927,174.455,143.131,173.838
					 M139.081,205.297c-0.571-9.892,0.562-19.496,3.149-28.513c9.048-8.677,18.553-15.583,28.314-20.835l-0.092,0.361
					c-3.138,11.964-11.063,21.992-15.619,33.181c-7.3,17.925-7.083,38.694-2.957,56.149
					C144.521,233.866,139.931,220.134,139.081,205.297 M163.414,260.286c-8.972-17.731-10.712-45.609-4.654-64.218
					c3.235-9.95,12.694-23.461,15.598-33.557c1.07-3.703,2.05-6.844,2.702-9.805c4.546-2.081,9.135-3.81,13.749-5.211
					c-5.242,39.794,2.456,102.53,50.117,136.86c-3.752,0.729-7.592,1.217-11.508,1.438c-1.676,0.095-3.344,0.147-4.994,0.147
					C200.709,285.943,179.018,276.18,163.414,260.286 M196.754,145.884c4.708-1.126,9.438-1.917,14.154-2.371
					c1.002,11.684,8.439,26.196,27.215,43.212c20.562,19.546,45.926,45.397,53.023,67.308
					c-10.863,13.492-25.787,23.667-43.041,28.596C200.37,247.611,191.875,184.767,196.754,145.884 M244.4,183.364
					c-18.105-16.412-25.532-29.773-26.771-40.27c34.132-1.007,67.37,15.209,91.45,44.333c0.401,2.641,0.684,5.317,0.838,8.032
					c1.101,19.084-4.147,37.073-13.908,51.909C288.615,226.081,264.609,202.584,244.4,183.364 M168.964,135.279
					c2.906,2.807,3.286,8.388,2.813,13.463c-8.666,4.384-17.223,10.037-25.562,17.056
					C151.43,154.021,159.243,143.584,168.964,135.279 M173.744,131.48c7.406-5.474,15.747-9.779,24.768-12.654
					c-2.651,5.206-5.016,12.815-6.67,22.023c-4.674,1.331-9.331,3-13.967,5.024C177.848,141.672,176.718,137.253,173.744,131.48
					 M236.049,115.579c32.648,4.413,59.852,27.381,69.879,58.461c-24.693-24.057-55.957-38.154-88.303-37.196
					C218.997,125.996,227.508,119.006,236.049,115.579 M205.05,117.039c4.695-1.09,9.544-1.797,14.528-2.087
					c2.086-0.122,4.164-0.162,6.223-0.139c-7.154,4.534-13.6,12.11-14.81,22.437c-4.41,0.413-8.832,1.109-13.256,2.097
					C199.466,129.562,202.075,121.774,205.05,117.039 M219.184,107.933c-51.049,2.935-90.056,46.708-87.116,97.77
					c2.939,51.042,46.714,90.052,97.764,87.109c51.053-2.938,90.057-46.713,87.113-97.757c-2.84-49.246-43.652-87.277-92.354-87.28
					C222.799,107.775,220.994,107.826,219.184,107.933"/>
			</defs>
			<clipPath id="SVGID_4_">
				<use xlink:href="#SVGID_3_"  overflow="visible"/>
			</clipPath>
			<g clip-path="url(#SVGID_4_)">
				<path fill="#FFB819" d="M363,255.834l-35.768-9.609c6.557-4.945,28.424-10.328,28.727-21.875
					c0.018-0.164,0.023-0.324,0.033-0.49c11.744-9.319,15.863-22.434,11.811-40.421l15.074-37.567c0,0-38.939,9.369-45.188,10.868
					l5.846-17.578l-138.92,34.172c-32.959-14.359-73.042-3.076-104.492,15.478l-24.234-6.108
					c-21.994-5.664-41.394-10.492-60.466-6.143c14.594,13.03,33.909,18.185,55.9,23.854l8.523,2.23
					c-8.445,6.649-15.656,13.6-21.119,20.27l-5.492,6.693l19.865-3.146c-45.833,72.403,29.566,99.377,80.358,36.034l52.674-13.812
					c-7.317,9.731-7.314,24.18-7.314,24.18l3.176-2.437c15.9-13.413,34.331-20.127,48.604-23.03l33.776,8.853
					c-0.054,0.135-0.078,0.319-0.092,0.567c-1.187,18.61,7.428,31.237,26.59,34.328c1.125,0.219,1.932,0.403,3.348,0.631
					c-0.338-4.051-0.358-7.013-0.176-11.07c14.549,10.388,30.543,8.531,43.789-2.997l1.002,2.416
					c14.228,3.491,21.317-20.55,20.211-25.924C379.012,254.07,371.418,252.951,363,255.834"/>
			</g>
		</g>
	</g>
	<g>
		<g>
			<path fill="#041E41" d="M376.719,257.162c-7.875-1.407-13.088,1.863-13.25,1.857c-0.119-0.011-27.375-7.34-37.408-10.047
				l-5.274-1.422c3.394-4.603,9.944-6.578,16.512-9.494c2.843-1.266,6.75-2.75,9.67-4.798c5.267-3.688,6.021-6.118,6.058-6.118
				c-9.611,0.314-18.67-2.281-20.269-2.609c-4.219-0.885-8.44-1.053-12.51-0.604c-0.138,0.015-0.274,0.024-0.41,0.05
				c-10.924,1.301-20.733,7.086-26.567,15.606c0,0-0.711,0.935-0.951,1.203c-0.771,0.847-1.853,2.146-1.853,2.146l3.201,0.827
				c2.211,0.382,0.969,5.188-1.963,4.429l-14.056-3.677c-5.489,0.462-11.213,0.912-15.094,1.192
				c-1.998,0.145-4.203,0.385-6.572,0.742l31.164,8.193c-2.231,20.329,8.685,32.838,24.082,34.086
				c-0.032-2.069-0.086-6.433,0.025-14.213c0,0,22.16,23.777,47.58-1.797c0.182-0.169,2.141,4.825,2.141,4.825
				C372.168,278.842,377.098,257.212,376.719,257.162"/>
		</g>
	</g>
	<g>
		<g>
			<defs>
				<path id="SVGID_5_" d="M309.389,228.511c-5.861,3.314-13.889,11.722-13.889,11.722s-0.51,1.276,0.641,3.312
					c0.615,1.102,1.193,1.826,1.594,2.408c0.031-0.837,0.345-1.812,1.005-2.624c5.473-7.045,15.061-14.578,27.659-14.028
					c-12.512,2.184-20.946,10.215-26.282,17.533c-0.789,0.882-1.421,1.012-1.839,0.723c-0.12,1.491-1.082,3.396-2.396,3.637
					c-1.399,0.253-6.879,4.714-6.879,4.714v2.674l0.513,8.41c0,0,1.018,5.991,2.928,8.407c1.912,2.424,7.521,10.453,16.311,11.341
					c0,0,0.637-21.403,3.314-27.771c2.676-6.374,6.238-13.766,11.977-16.825c5.73-3.051,14.523-6.11,19.111-8.533
					c4.592-2.422,6.627-5.098,6.627-5.098s-9.43-0.385-17.072-1.656c-3.264-0.547-6.924-0.926-10.504-0.926
					C317.402,225.928,312.746,226.613,309.389,228.511"/>
			</defs>
			<clipPath id="SVGID_6_">
				<use xlink:href="#SVGID_5_"  overflow="visible"/>
			</clipPath>
			<g clip-path="url(#SVGID_6_)">
				<path fill="#FFB819" d="M330.848,228.389c-12.967-2.291-24.82,1.789-33.367,13.93c1.652,1.047,2.72,3.533,2.539,6.363
					c-0.225,3.494-2.266,6.227-4.631,6.308c0.01,0.073,0.023,0.132,0.035,0.211c0,0.005-0.004,0-0.004,0.005
					c0.271,5.273,2.105,10.342,4.711,13.029c1.002-9.086,5.852-21.473,19.52-29.117c-13.608,11.859-16.28,28.906-15.313,40.557
					c-6.354-1.277-11.662-11.984-13.533-17.629c1.438,9.652,7.449,21.162,16.673,21.803c-1.89-18.537,5.307-37.748,17.448-44.156
					c4.984-2.66,12.009-4.383,19.722-9.351C336.387,229.667,333.781,228.9,330.848,228.389"/>
			</g>
		</g>
	</g>
	<g>
		<path fill="#041E41" d="M376.52,150.745c-0.09,0.099-30.785,7.494-43.875,10.623l5.847-17.569l-134.165,33.297
			c-30.81-14.01-68.866-4.291-99.495,12.899l59.499,14.989c-0.255,0.787-0.546,1.562-0.876,2.199l-90.349-22.721
			c-18.354-4.736-34.918-9.23-50.729-6.11c12.336,10.372,29.018,14.398,47.371,19.134l67.439,17.729
			c-1.227,0.522-2.38,1.06-3.362,1.582L83.91,203.713c-9.074,6.91-16.817,14.236-22.613,21.309l17.828-2.328
			c-50.979,81.654,31.473,92.025,70.516,37.089l64.757-16.244c-5.931,5.821-9.442,14.243-11.269,21.644
			c19.179-16.568,44.187-21.707,59.187-22.789c9.105-0.662,19.164-1.66,26.961-2.529l2.201-2.782
			c7.107-9.739,17.435-14.489,28.359-15.558c8.498-0.828,11.488,0.416,15.068,1.063c1.672,0.435,7.602,2.013,13.672,2.283
			c15.697-9.161,20.34-22.422,15.768-41.658L376.52,150.745z M149.933,211.168l-67.048-17.504
			C63.755,188.37,58.78,184.113,57.531,183l38.958,10.057l63.264,16.266C156.881,209.99,152.564,210.707,149.933,211.168"/>
	</g>
	<g>
		<g>
			<defs>
				<path id="SVGID_7_" d="M77.636,216.637c5.293-4.275,10.646-8.166,16.005-11.722l25.857,7.101
					c-0.42,0.418-0.833,0.832-1.224,1.248c-57.566,60.065-19.7,70.12,22.211,47.018c0.866-0.434-5.918,5.875-5.918,5.875
					c-46.578,45.742-97.383,11.275-35.346-54.438c-6.643,1.874-19.952,4.952-21.449,4.952
					C77.683,216.67,77.636,216.66,77.636,216.637 M203.775,187.806c0.007,0.002,0.011,0.002,0.011,0.007
					C203.782,187.811,203.78,187.809,203.775,187.806 M113.77,193.193c38.637-19.453,74.606-20.447,90.005-5.387
					c-0.586-0.199-30.458,17.454-33.525,19.768c14.796-28.928-11.855-22.338-34.053-8.445L113.77,193.193z M287.037,224.832
					c33.504-5.004,69.389-13.352,56.672-32.456c-2.4-2.272-3.695-2.872-5.607-5.446c-8.285-11.125,5.902-23.854,21.81-22.803
					c1.098,0.071,3.977,0.512,3.881,0.614l-3.908,9.958c-3.2-5.112-13.582-6.318-14.957-0.13
					c-1.028,4.631,6.312,6.315,10.595,14.399c5.828,11.024-0.269,22.15-10.836,27.578c-4.101,2.113-8.332,3.901-12.666,5.437
					c-3.517,0.924-7.211,1.939-11.797,3.216c-4.201,1.167-5.479,1.909-21.531,4.462c-27.281,4.109-56.084,5.416-80.135,16.703
					C229.012,235.643,256.596,229.518,287.037,224.832 M204.613,173.335c-32.958-14.364-73.041-3.079-104.491,15.474l-24.233-6.107
					c-21.995-5.664-41.394-10.491-60.464-6.142c14.592,13.029,33.904,18.184,55.898,23.855l8.525,2.228
					c-8.449,6.649-15.659,13.602-21.121,20.271l-5.49,6.692l19.862-3.145c-45.833,72.403,29.568,99.379,80.361,36.03l52.672-13.808
					c-7.317,9.729-7.312,24.176-7.312,24.176l3.174-2.435c15.9-13.413,34.333-20.124,48.604-23.03l33.778,8.851
					c-0.055,0.137-0.082,0.319-0.092,0.569c-1.187,18.612,7.426,31.237,26.588,34.328c1.123,0.222,1.935,0.405,3.348,0.631
					c-0.336-4.051-0.358-7.015-0.174-11.072c14.549,10.392,30.541,8.535,43.785-2.995l1.004,2.414
					c14.226,3.493,21.317-20.548,20.209-25.924c-0.028-0.126-7.623-1.247-16.043,1.636l-35.769-9.611
					c6.558-4.943,28.423-10.326,28.728-21.873c0.019-0.166,0.021-0.322,0.035-0.49c11.744-9.319,15.86-22.436,11.807-40.421
					l15.078-37.568c0,0-38.94,9.374-45.188,10.87l5.848-17.578L204.613,173.335z"/>
			</defs>
			<clipPath id="SVGID_8_">
				<use xlink:href="#SVGID_7_"  overflow="visible"/>
			</clipPath>
			<g clip-path="url(#SVGID_8_)">
				<path fill="#041E41" d="M376.52,150.745c-0.09,0.099-30.785,7.494-43.875,10.623l5.847-17.569l-134.165,33.297
					c-30.81-14.01-68.866-4.291-99.495,12.899l59.499,14.989c-0.255,0.787-0.546,1.562-0.876,2.199l-90.349-22.721
					c-18.354-4.736-34.918-9.23-50.729-6.11c12.336,10.372,29.018,14.398,47.371,19.134l67.439,17.729
					c-1.227,0.522-2.38,1.06-3.362,1.582L83.91,203.713c-9.074,6.91-16.817,14.236-22.613,21.309l17.828-2.328
					c-50.979,81.654,31.473,92.025,70.516,37.089l64.757-16.244c-5.931,5.821-9.442,14.243-11.269,21.644
					c19.179-16.568,44.187-21.707,59.187-22.789c9.105-0.662,19.164-1.66,26.961-2.529l2.201-2.782
					c7.107-9.739,17.435-14.489,28.359-15.558c8.498-0.828,11.488,0.416,15.068,1.063c1.672,0.435,7.602,2.013,13.672,2.283
					c15.697-9.161,20.34-22.422,15.768-41.658L376.52,150.745z M149.933,211.168l-67.048-17.504
					C63.755,188.37,58.78,184.113,57.531,183l38.958,10.057l63.264,16.266C156.881,209.99,152.564,210.707,149.933,211.168"/>
			</g>
		</g>
	</g>
	<g>
		<path fill="#FFB819" d="M364.941,261.698c2.725-1.3,5.75-1.888,8.729-2.275c-4.148,1.562-6.225,3.956-6.465,3.863
			c-0.936,2.297-0.914,4.739-6.174,7.36C362.699,268.048,365.129,265.043,364.941,261.698"/>
	</g>
	<g>
		<path fill="#FFB819" d="M312.545,266.113c5.664,12.455,22.184,15.395,32.154,13.277c-4.449,3.869-26.152,3.049-32.668-9.676
			L312.545,266.113z"/>
	</g>
	<g>
		<path fill="#FFB819" d="M318.637,250.257l42.844,11.085c1.396,0.356,0.808,4.275-1.014,3.811L316.4,253.945
			C316.654,252.891,318.256,250.514,318.637,250.257"/>
	</g>
	<g>
		<path fill="#FFB819" d="M355.18,269.212c-15.475,15.261-39.76,4.767-39.613-7.606C315.877,261.598,331.381,273,355.18,269.212"/>
	</g>
	<g>
		<g>
			<defs>
				<path id="SVGID_9_" d="M297.48,242.316c1.651,1.048,2.717,3.533,2.537,6.363c-0.226,3.493-2.267,6.227-4.629,6.309
					c0.008,0.074,0.024,0.132,0.034,0.211c0,0.008-0.002,0-0.002,0.008c0.271,5.27,2.104,10.339,4.709,13.021
					c1.004-9.084,5.854-21.468,19.519-29.117c-13.607,11.858-16.281,28.916-15.31,40.56c-6.36-1.274-11.668-11.983-13.534-17.627
					c1.438,9.649,7.446,21.164,16.668,21.802c-1.892-18.537,5.309-37.746,17.45-44.156c4.986-2.656,12.011-4.381,19.722-9.35
					c-8.259-0.673-10.865-1.438-13.797-1.951c-2.275-0.402-4.521-0.606-6.716-0.606C313.82,227.779,304.527,232.311,297.48,242.316"
					/>
			</defs>
			<clipPath id="SVGID_10_">
				<use xlink:href="#SVGID_9_"  overflow="visible"/>
			</clipPath>
			<g clip-path="url(#SVGID_10_)">
				<path fill="#FFFFFF" d="M298.738,243.329c-1.896,2.317-0.943,6.078,1.377,3.505c5.336-7.318,13.773-15.352,26.287-17.533
					C313.797,228.751,304.209,236.284,298.738,243.329"/>
			</g>
		</g>
	</g>
	<g>
		<path fill="#FFFFFF" d="M250.789,172.633l2.83-0.632l0.258,7.24l5.67-8.622l3.848-1.035l-11.149,14.957L250.789,172.633z
			 M324.379,155.396l-0.428-0.063l-2.277,0.525l-4.162,10.611l1.797-0.438c0.084-0.02,0.354-0.115,0.918-0.365l0.64-0.335
			l3.938-9.813C324.664,155.461,324.551,155.427,324.379,155.396 M319.096,167.448l-5.729,1.407l5.329-13.584l5.738-1.428
			c0.965-0.232,1.883-0.252,2.754-0.13c0.869,0.109,1.406,0.329,1.236,0.76l-3.924,10.004c-0.174,0.447-1.014,1.024-2.178,1.641
			C321.15,166.747,320.061,167.214,319.096,167.448 M214.656,193.613c-0.875,0.215-1.809,0.303-2.786,0.303
			c-1.242-0.007-1.947-0.24-1.722-0.821l4.033-10.278c0.168-0.426,1.021-0.988,2.157-1.591c1.175-0.607,2.259-1.072,3.22-1.303
			l5.682-1.394l-0.949,2.423l-3.48,0.853l0.416-0.936l-0.966,0.216c-0.944,0.233-1.62,0.446-2.079,0.642
			c-0.389,0.166-0.502,0.268-0.543,0.37l-3.889,10.013c0,0.006-0.016,0.109,0.619,0.087c0.482-0.02,0.775-0.059,0.923-0.094
			c0.467-0.111,0.894-0.285,1.342-0.549c0.474-0.294,0.696-0.514,0.771-0.708l-0.214-0.465l3.806-0.931l-0.438,1.116
			c-0.209,0.542-1.203,1.176-2.609,1.817C216.734,192.946,215.629,193.373,214.656,193.613 M229.299,177.791l3.506-0.854
			l-4.738,12.071l5.765-1.417l-0.586,1.495l-9.261,2.276L229.299,177.791z M241.293,174.749l7.979-1.953l-0.567,1.457l-4.478,1.098
			l-1.604,4.086l4.471-1.093l-0.578,1.49l-4.481,1.097l-1.978,5.036l4.482-1.093l-0.594,1.487l-7.979,1.955L241.293,174.749z
			 M266.279,168.577l7.979-1.959l-0.57,1.466l-4.475,1.093l-1.605,4.091l4.479-1.1l-0.588,1.495l-4.474,1.098l-1.981,5.033
			l4.479-1.104l-0.588,1.501l-7.983,1.959L266.279,168.577z M277.561,165.664l3.506-0.86l-4.731,12.066l5.756-1.407l-0.586,1.49
			l-9.266,2.273L277.561,165.664z M293.277,169.23l-3.305,0.808l-2.007,5.12l-3.604,0.88l4.707-11.883
			c0.229-0.58,1.176-1.229,2.59-1.9c1.17-0.562,2.305-0.988,3.4-1.255c1.041-0.257,2.051-0.339,3.024-0.283
			c1.026,0.044,1.599,0.285,1.392,0.804l-4.695,11.967l-3.508,0.859L293.277,169.23z M295.85,162.5
			c-0.067-0.025-0.211-0.045-0.471-0.052c-0.496-0.015-0.82,0.039-0.934,0.071c-0.191,0.045-0.596,0.186-1.236,0.479
			c-0.293,0.137-0.463,0.232-0.559,0.292l-2.135,5.263l3.305-0.81l2.092-5.208L295.85,162.5z M307.273,166.597l-1.4-5.315
			l-3.52,10.497l-3.508,0.858l5.321-13.569l3.56-0.87l1.141,4.702l2.17-5.509l3.502-0.857l-5.328,13.565l-3.553,0.873
			L307.273,166.597z"/>
	</g>
	<g>
		<path fill="#FFFFFF" d="M177.422,210.713l5.494,3.346c-2.841,8.094-15.164,25.241-22.225,30.426l12.346-32.806l-9.467,2.511
			l-15.5,39.48l19.861-5.097c0.439-0.126,17.857-13.948,27.826-42.524L177.422,210.713z"/>
	</g>
	<g>
		<path fill="#FFFFFF" d="M119.712,245.383c-0.101,0.014-7.246,14.717-8.696,17.735l9.828-2.571l6.644-13.775l7.943-2.332
			l-5.479,13.814l10.451-2.681l16.097-39.88C151.099,217.531,132,217.859,119.712,245.383 M138.069,238.966l-7.759,2.235
			c0,0,6.485-12.707,13.188-14.711L138.069,238.966z"/>
	</g>
	<g>
		<path fill="#FFFFFF" d="M318.578,195.793c-0.539-0.779-0.969-2.402-0.965-2.438c0.328-0.156,0.664-0.324,1.004-0.515
			c6.391-3.64,13.418-14.512,13.129-21.921c-8.98,2.406-24.045,6.314-24.121,6.418l-14.391,39.535l9.352-2.403l6.18-17.001
			c0.703,1.589,4.832,11.375,12.854,12.19c9.278,0.938,14.703-8.234,14.703-8.234C333.885,203.518,322.814,204.311,318.578,195.793
			 M311.008,192.024l4.557-12.64l7.104-1.901C321.65,180.198,319.75,187.514,311.008,192.024"/>
	</g>
	<g>
		<path fill="#FFFFFF" d="M190.714,227.389c-0.097,0.008-7.137,14.456-8.596,17.473l9.935-2.545l6.439-13.541l7.941-2.338
			l-5.43,13.644l10.369-2.623l16.118-39.678C222.744,199.154,203.007,199.863,190.714,227.389 M209.073,220.967l-7.761,2.236
			c0,0,6.49-12.699,13.188-14.703L209.073,220.967z"/>
	</g>
	<g>
		<polygon fill="#FFFFFF" points="263.334,188.274 247.842,228.012 257.693,225.525 273.133,185.799 		"/>
	</g>
	<g>
		<path fill="#FFFFFF" d="M273.877,216.729l4.945-11.582l13.551-7.327l-10.879,0.8l4.746-12.642
			c5.938-1.866,8.932-0.051,11.463,3.687l4.496-11.123l-23.859,6.079l-15.328,39.671l24.299-6.319l5.224-12.293
			C287.129,211.605,281.111,215.503,273.877,216.729"/>
	</g>
	<g>
		<path fill="#FFFFFF" d="M230.201,227.887l12.938-34.402l-10.34,2.616l-15.273,39.776l26.214-6.754l5.784-14.102
			C242.557,223.247,238.895,226.451,230.201,227.887"/>
	</g>
	<g>
		<g>
			<defs>
				<path id="SVGID_11_" d="M204.325,177.096c-30.81-14.01-68.864-4.291-99.493,12.901l59.498,14.987
					c-0.254,0.785-0.549,1.562-0.875,2.203l-26.27,8.027c-1.227,0.521-2.381,1.061-3.364,1.584L83.91,203.711
					c-9.074,6.908-16.819,14.236-22.614,21.311l17.83-2.332c-50.982,81.658,31.473,92.029,70.514,37.091l64.76-16.242
					c-5.934,5.821-9.445,14.243-11.271,21.644c19.178-16.566,44.188-21.707,59.188-22.791c9.104-0.66,19.16-1.658,26.959-2.527
					l2.201-2.784c7.107-9.735,17.435-14.487,28.357-15.556c8.502-0.834,11.49,0.416,15.072,1.063c1.67,0.435,7.6,2.013,13.666,2.283
					c15.701-9.159,20.346-22.424,15.771-41.658l12.179-32.466c-0.095,0.099-30.787,7.497-43.877,10.623l5.846-17.569
					L204.325,177.096z"/>
			</defs>
			<clipPath id="SVGID_12_">
				<use xlink:href="#SVGID_11_"  overflow="visible"/>
			</clipPath>
			<g clip-path="url(#SVGID_12_)">
				<path fill="#FFFFFF" d="M363.795,164.74l-3.912,9.959c-3.201-5.115-13.582-6.318-14.957-0.132
					c-1.027,4.635,6.312,6.318,10.594,14.399c5.83,11.027-0.264,22.155-10.836,27.584c-4.1,2.109-8.332,3.896-12.666,5.433
					c-3.518,0.924-7.211,1.937-11.797,3.216c-4.201,1.165-5.479,1.913-21.531,4.464c-27.28,4.111-56.088,5.414-80.133,16.701
					c10.455-10.725,38.041-16.844,68.48-21.533c33.504-5.004,69.389-13.352,56.672-32.454c-2.4-2.272-3.695-2.872-5.604-5.443
					c-8.289-11.129,5.897-23.854,21.805-22.808C361.008,164.196,363.887,164.639,363.795,164.74"/>
			</g>
		</g>
		<g>
			<defs>
				<path id="SVGID_13_" d="M204.325,177.096c-30.81-14.01-68.864-4.291-99.493,12.901l59.498,14.987
					c-0.254,0.785-0.549,1.562-0.875,2.203l-26.27,8.027c-1.227,0.521-2.381,1.061-3.364,1.584L83.91,203.711
					c-9.074,6.908-16.819,14.236-22.614,21.311l17.83-2.332c-50.982,81.658,31.473,92.029,70.514,37.091l64.76-16.242
					c-5.934,5.821-9.445,14.243-11.271,21.644c19.178-16.566,44.188-21.707,59.188-22.791c9.104-0.66,19.16-1.658,26.959-2.527
					l2.201-2.784c7.107-9.735,17.435-14.487,28.357-15.556c8.502-0.834,11.49,0.416,15.072,1.063c1.67,0.435,7.6,2.013,13.666,2.283
					c15.701-9.159,20.346-22.424,15.771-41.658l12.179-32.466c-0.095,0.099-30.787,7.497-43.877,10.623l5.846-17.569
					L204.325,177.096z"/>
			</defs>
			<clipPath id="SVGID_14_">
				<use xlink:href="#SVGID_13_"  overflow="visible"/>
			</clipPath>
			<g clip-path="url(#SVGID_14_)">
				<path fill="#FFFFFF" d="M203.786,187.813c-0.111-0.495-30.44,17.43-33.538,19.761c19.357-37.853-32.254-14.897-51.976,5.688
					c-57.561,60.066-19.699,70.121,22.213,47.018c0.868-0.432-5.917,5.876-5.917,5.876c-46.577,45.741-97.386,11.278-35.348-54.436
					c-7.042,1.983-21.57,5.324-21.588,4.916C128.164,175.851,183.621,168.079,203.786,187.813"/>
			</g>
		</g>
	</g>
</g>
</svg>
