<?xml version="1.0" encoding="utf-8"?>
<!-- Generator: Adobe Illustrator 16.2.1, SVG Export Plug-In . SVG Version: 6.00 Build 0)  -->
<!DOCTYPE svg PUBLIC "-//W3C//DTD SVG 1.1//EN" "http://www.w3.org/Graphics/SVG/1.1/DTD/svg11.dtd">
<svg version="1.1" id="Layer_3" xmlns="http://www.w3.org/2000/svg" xmlns:xlink="http://www.w3.org/1999/xlink" x="0px" y="0px"
	 width="400px" height="400px" viewBox="0 0 400 400" enable-background="new 0 0 400 400" xml:space="preserve">
<g>
	<path fill="#FFFFFF" d="M363.62,201.814c1.932-4.779,9.341-23.089,9.341-23.089l-31.111,17.396
		c-0.111,0.064-9.214,5.104-22.429,10.798c6.624-16.563,12.486-33.403,18.263-55.493c10.994-42.01,16.888-88.315,17.137-90.264
		c0-0.005,2.334-18.67,2.334-18.67s-58.613,16.255-64.273,17.825C272.064,35.108,240,20.119,206.318,20.119
		c-33.822,0-65.967,15.08-86.779,40.46c-5.833-1.635-64.612-18.087-64.612-18.087l2.421,18.78
		c0.062,0.477,6.26,47.956,17.793,90.701c5.609,20.797,11.851,37.62,18.346,53.62c-14.056-5.945-25.831-11.545-25.979-11.616
		l-28.867-13.804c0,0,6.9,17.385,8.846,22.294c-0.375-0.149-10.466-4.002-10.466-4.002l9.673,26.035c0,0-0.013-0.041-0.017-0.052
		c0.655,1.9,4.761,12.973,35.968,97.148l4.293,11.573c0,0,6.992-2.224,9.053-2.872c1.721,4.664,6.213,16.823,6.213,16.823
		l12.586-6.489c9.605-4.929,30.203-13.28,46.868-15.979c19.81,27.181,35.288,41.275,35.955,41.888l8.554,7.702l8.408-7.859
		c0.68-0.641,16.316-15.391,35.696-41.717c18.586,2.48,34.475,9.983,42.491,14.413l12.286,6.791l5.363-12.973
		c0,0,0.653-1.587,1.369-3.326c1.031,0.356,6.981,2.377,6.981,2.377l4.55-11.578c0.869-2.227,20.77-48.964,39.979-93.989
		l12.809-30.025C376.101,196.356,363.669,201.794,363.62,201.814"/>
	<path fill="#2E2A25" d="M344.371,200.635c-0.186,0.096-14.908,8.27-34.395,15.7c8.794-20.903,15.739-39.562,22.711-66.216
		c10.998-42.044,16.943-89.132,17.005-89.601l1.372-10.977l-10.657,2.953c0,0-131.215,36.397-135.061,37.465
		C201.5,88.881,61.05,49.571,61.05,49.571l1.421,11.042c0.06,0.466,6.187,47.507,17.657,90.016
		c6.941,25.722,14.963,45.576,22.851,64.434c-18.745-7.395-37.462-16.312-37.7-16.427l-16.973-8.117l6.939,17.488
		c16.685,42.045,25.175,65.118,35.925,94.325l13.858,37.523l7.395-3.818c11.043-5.668,33.904-14.771,51.579-16.942
		c20.335,28.378,36.372,42.979,37.072,43.608l5.027,4.526l4.943-4.625c0.712-0.668,17.043-16.076,36.893-43.484
		c20.604,2.117,38.307,10.452,47.326,15.437l7.223,3.999l3.155-7.635c8.208-19.837,48.753-120.079,49.166-121.091l7.854-19.43
		L344.371,200.635z"/>
	<path fill="#FFFFFF" d="M359.161,205.534c-0.344,0.145-32.816,13.964-59.37,20.57c10.357-23.914,19.395-45.407,27.737-77.301
		c10.915-41.716,16.822-88.463,16.879-88.933l0.404-3.226l-3.134,0.868c0,0-135.303,37.526-136.46,37.847
		c-1.154-0.321-138.125-38.662-138.125-38.662l0.419,3.249c0.057,0.469,6.141,47.158,17.52,89.327
		c7.454,27.627,16.211,48.501,24.683,68.691c0,0,1.485,3.565,2.793,6.688c-22.965-5.814-54.094-16.731-54.425-16.847l-4.383-1.541
		l1.633,4.349c13.646,36.303,20.631,55.8,28.024,76.439l14.998,41.538l1.975-0.62c21.188-6.597,48.572-11.821,65.749-14.019
		c19.785,28.648,38.204,44.746,38.392,44.911l1.45,1.256l1.423-1.283c0.174-0.167,17.693-16.145,38.049-44.666
		c17.65,1.175,50.493,8.604,62.972,13.536l1.983,0.791l0.818-1.97c8.193-19.8,50.415-117.154,50.835-118.137l2.175-5.003
		L359.161,205.534z"/>
	<path fill="#8E9090" d="M292.389,232.273l1.697-3.915c11.467-26.437,20.529-47.318,29.25-80.655
		c9.188-35.133,14.81-73.88,16.342-85.132c-6.031,1.667-133.883,37.132-133.883,37.132l-0.585,0.163
		c0,0-126.888-35.521-132.95-37.215c1.583,11.28,7.384,50.003,16.957,85.49c7.379,27.345,16.083,48.09,24.497,68.145l6.082,14.578
		l48.353,78.461l0.741,1.089c16.605,24.269,32.286,39.517,36.969,43.854c4.541-4.363,19.638-19.5,36.712-43.606l0.691-0.972
		L292.389,232.273z"/>
	<path fill="#2E2A25" d="M224.807,315.35l10.039-2.435l-10.287-0.975c-0.445-0.043-9.985-0.935-14.711-0.905
		c-0.608-1.867-4.612-14.179-4.612-14.179l-1.721,4.743c-0.106,0.289-2.232,6.188-3.341,9.492
		c-5.508-0.04-12.864,0.731-13.204,0.766l-10.727,1.151l10.545,2.272c3.176,0.687,9.719,2.974,10.398,5.773
		c-0.831,3.271-3.073,9.034-3.098,9.092l-2.091,5.354c0,0,11.528-8.082,13.117-9.2c1.595,1.118,12.831,8.996,12.831,8.996
		s-4.653-13.292-5.04-14.403C213.912,319.058,219.639,316.61,224.807,315.35"/>
	<path fill="none" stroke="#2E2A25" stroke-width="0.161" stroke-linejoin="round" d="M224.807,315.35l10.039-2.435l-10.287-0.975
		c-0.445-0.043-9.985-0.935-14.711-0.905c-0.608-1.867-4.612-14.179-4.612-14.179l-1.721,4.743
		c-0.106,0.289-2.232,6.188-3.341,9.492c-5.508-0.04-12.864,0.731-13.204,0.766l-10.727,1.151l10.545,2.272
		c3.176,0.687,9.719,2.974,10.398,5.773c-0.831,3.271-3.073,9.034-3.098,9.092l-2.091,5.354c0,0,11.528-8.082,13.117-9.2
		c1.595,1.118,12.831,8.996,12.831,8.996s-4.653-13.292-5.04-14.403C213.912,319.058,219.639,316.61,224.807,315.35z"/>
</g>
<g>
	<defs>
		<path id="SVGID_1_" d="M205.795,99.703l-0.582,0.159c0,0-126.89-35.517-132.952-37.21c1.581,11.278,7.381,50.004,16.957,85.492
			c7.376,27.342,16.079,48.087,24.496,68.142l6.083,14.578l-4.135-0.972c-18.53-4.357-44.481-13.016-54.651-16.489
			c12.591,33.566,19.332,52.37,26.429,72.189c0,0,12.329,34.146,13.583,37.64c21.683-6.557,49.069-11.692,65.81-13.746l1.312-0.161
			l0.743,1.09c16.605,24.268,32.289,39.518,36.972,43.854c4.541-4.358,19.638-19.495,36.715-43.604l0.688-0.975l1.194,0.064
			c17.205,0.914,49.053,7.959,63.506,13.181c8.503-20.333,39.51-91.931,47.932-111.359c-10.889,4.433-37.766,14.937-59.353,19.764
			l-4.152,0.934l1.695-3.914c11.469-26.439,20.528-47.318,29.252-80.657c9.188-35.133,14.811-73.878,16.34-85.132
			C333.646,64.239,205.795,99.703,205.795,99.703"/>
	</defs>
	<clipPath id="SVGID_2_">
		<use xlink:href="#SVGID_1_"  overflow="visible"/>
	</clipPath>
	<path clip-path="url(#SVGID_2_)" fill="none" stroke="#2E2A25" stroke-width="0.161" d="M311.197,124.837
		c0-54.894-47.05-99.55-104.879-99.55c-57.833,0-104.881,44.657-104.881,99.55c0,11.552,2.084,22.656,5.916,32.98
		c-0.361,15.665,5.568,25.074,6.838,26.894c13.11,38.155,50.079,65.645,93.642,65.645c33.232,0,62.632-15.997,80.528-40.529
		l-0.006,0.003c0.506-0.802,0.76-2.429,0.76-2.429c0.021-0.534,0.427-0.784,0.427-0.784c1.38-0.742,1.852-1.247,1.92-1.326
		c9.569-14.818,15.108-32.359,15.108-51.159v-0.018C309.577,144.859,311.197,135.022,311.197,124.837z"/>
</g>
<g>
	<path fill="#003DA6" d="M348.257,214.171c-0.663,0.291-66.964,28.89-142.931,28.56c-66.884-0.29-142.711-28.958-143.474-29.248
		l-16.016-6.117l5.7,15.335c0.109,0.416,0.109,0.416,35.951,97.094l2.582,6.959l7.077-2.24c15.783-5.015,57.904-16.671,107.9-16.671
		c46.452,0,87.025,9.578,103.676,15.233l7.037,2.392l2.743-6.984c1.003-2.558,24.492-57.691,40.033-94.126l7.7-18.047
		L348.257,214.171z"/>
	<path fill="#FFFFFF" d="M348.988,223.55l-6.764,2.474c0,0-14.944,5.464-15.062,5.505c-0.702,0.215-6.127,1.956-10.396,5.535
		c-1.473,1.23-2.968,3.003-4.293,4.838c0.269-0.741,0.426-1.179,0.437-1.215l2.015-5.582l-5.73,1.528l-13.624,3.628v0.006
		c-1.304,0.281-10.518,2.305-13.31,2.912l-3.139,0.524l-15.941,2.675c-0.678,0.106-6.84,1.187-10.066,4.434
		c-0.711,0.717-1.334,1.515-1.873,2.353l0.906-5.371l-4.026,0.383l-12.884,1.216l-0.426,3.337c-0.324-0.413-0.717-0.801-1.175-1.157
		c-2.45-1.89-6.496-1.844-7.677-1.785c-0.028,0-18.883,0.497-18.883,0.497v0.019l-15.251-0.098c-0.628,0.017-5.417,0.215-8.72,3.341
		c-0.504,0.48-0.935,1.016-1.312,1.594c-0.071-1.806-0.114-2.894-0.114-2.894l-0.109-2.72c0,0-15.412-1.396-15.977-1.449
		l-0.003-0.008l-18.624-2.383l0.835,4.229l0.215,1.099c-4.25-4.933-10.892-6.685-11.201-6.763c-0.086-0.019-19.17-4.342-19.17-4.342
		l1.232,4.906l0.918,3.653c-0.553-0.979-1.144-1.896-1.763-2.688c-2.789-3.556-5.179-6.217-10.539-8.17
		c-4.686-1.703-14.272-3.957-14.679-4.057l-5.433-1.274l0.013,0.036c-4.918-2.132-15.746-5.688-19.424-6.883l-6.091-1.972l2.221,6
		l31.557,85.33c0,0,12.395-3.43,13.038-3.612c0,0.006,0.005,0.025,0.005,0.025s12.97-3.101,13.914-3.325
		c0.658-0.115,13.602-2.445,13.602-2.445l-0.02-0.081c3.595-0.547,10.857-1.664,11.578-1.771c0.588-0.086,6.875-0.985,10.343-1.484
		v0.026c0,0,13.09-1.355,13.147-1.362c1.389-0.092,5.662-0.517,7.928-2.329c0.84-0.663,1.509-1.392,2.035-2.124l0.192,3.587
		l15.44-0.502l0.107-0.009c0.475-0.049,4.736-0.552,7.425-3.162c0.327-0.311,0.621-0.649,0.887-1l-0.16,3.97
		c0,0,11.86,0.304,12.464,0.323v0.018l14.115,0.362v-0.011l10.192,0.791l12.961,1.402c0.5,0.05,5.005,0.455,9.192-1.851
		c0.369-0.211,0.729-0.434,1.068-0.684l-1.063,3.659l13.198,2.242c0,0,0.015-0.046,0.018-0.051
		c0.442,0.083,9.522,1.731,11.727,2.131l1.452,0.396c0.274,0.075,6.707,1.787,11.812,1.173c6.07-0.733,12.256-5.665,15.061-11.993
		l13.12-30.329l-0.054,0.006C330.602,266.27,348.988,223.55,348.988,223.55"/>
	<polygon fill="#2E2A25" points="232.413,296.907 240.627,297.534 248.411,251.267 238.005,252.248 	"/>
	<path fill="#2E2A25" d="M266.42,254.681l-3.872,16.557l10.271-0.27l6.788-24.218l-15.754,2.677c0,0-5.764,0.939-8.376,3.563
		c-3.556,3.575-4.462,10.263-4.462,10.263l-6.309,34.59l10.281,1.054c0,0,4.106,0.512,7.506-1.235
		c2.469-1.279,3.994-3.875,4.855-6.363c0.854-2.488,3.191-12.322,3.191-12.322h-9.705l-2.045,9.834c0,0-0.285,1.932-1.717,3.865
		c-1.427,1.938-4.222,1.788-4.222,1.788l6.72-30.935c0,0,1.084-4.189,2.565-6.361C263.896,254.595,266.42,254.681,266.42,254.681"/>
	<path fill="#2E2A25" d="M284.104,272.025l8.809-27.999l-8.986,1.932l-15.871,54.708l7.043,1.137l7.426-23.376l2.122-0.054
		c0,0,1.372,0.469,1.372,1.853c0,1.383-0.644,2.896-0.644,2.896l-6.272,19.358l8.274,1.547l6.839-20.075
		c0,0,1.077-3.336,0.856-4.977c-0.377-2.789-1.709-4.419-1.709-4.419s1.709,0,3.994-2.218c2.277-2.208,2.277-3.867,2.853-5.529
		c0.567-1.653,9.73-26.926,9.73-26.926l-11.863,2.965l-7,22.583c0,0-0.508,2.294-1.65,3.95c-1.146,1.659-1.91,2.249-2.594,2.375
		C285.44,272.033,284.104,272.025,284.104,272.025"/>
	<path fill="#2E2A25" d="M325.316,244.422l-7.703,20.734l10.559-0.553l15.116-35.666l-15.116,5.531c0,0-5.379,1.598-9.416,4.974
		c-3.226,2.698-6.85,8.843-7.702,10.785c-0.856,1.935-4.281,9.671-4.849,12.163c-0.572,2.486-5.705,16.31-5.705,16.31h11.983
		l-5.134,13.55c0,0-0.577,3.04-2.574,5.531c-1.997,2.484-4.848,2.765-4.848,2.765l6.845-17.421h-7.413l-8.049,21.695
		c0,0,6.011,1.742,10.575,1.192c4.563-0.551,10.021-4.363,12.593-10.169c2.566-5.809,11.121-25.713,11.121-25.713l-14.302,0.705
		l4.372-12.697c0,0,3.02-7.281,5.082-9.854C322.078,246.636,325.316,244.422,325.316,244.422"/>
	<path fill="#2E2A25" d="M67.017,228.387l30.564,82.648l9.039-2.521l-22.647-66.861c0,0,3.423,0.277,6.271,5.528
		c2.854,5.25,4.282,9.126,5.137,12.441c0.859,3.325,15.266,47.953,15.266,47.953l9.18-2.133l-17.6-58.809c0,0,2.286,0,4.561,3.865
		c2.288,3.872,3.147,7.192,3.147,7.192l13.543,46.967l8.858-1.764L121.06,259.35c0,0-2.548-7.667-5.473-11.654
		c-2.232-3.052-4.86-5.512-9.07-6.954c-4.541-1.561-14.367-4.078-14.367-4.078l1.473,4.417c0,0-3.31-3.653-6.275-5.288
		C84.661,234.316,67.017,228.387,67.017,228.387"/>
	<path fill="#2E2A25" d="M148.982,300.191l7.735-1.033l-6.606-34.387c0,0-1.52-7.701-3.443-10.693
		c-3.412-5.282-10.641-7.134-10.641-7.134l-14.159-2.91l14.656,58.134l8.752-1.459l-5.389-21.733l5.04,0.056L148.982,300.191z
		 M138.743,273.721l-4.891-21.395c0,0,2.917,0.628,4.627,2.29c1.708,1.659,2.22,6.282,2.22,6.282l2.606,12.822H138.743z"/>
	<path fill="#2E2A25" d="M150.913,249.301l9.706,49.441l10.481-1.106c0,0,4.779-0.154,6.156-1.245
		c2.88-2.271,2.855-5.528,2.855-5.528l-1.275-38.389l-10.097-0.985l3.667,36.336c0,0,0.243,3.277-1.427,4.979
		c-1.38,1.397-2.85,1.105-2.85,1.105l-5.189-43.052L150.913,249.301z"/>
	<path fill="#2E2A25" d="M184.383,296.689l12.323-0.488c0,0,3.587-0.357,5.583-2.297c1.994-1.928,2.408-5.447,2.408-5.447
		l0.232-6.991l-8.274,0.076l0.051,6.915c0,0,0.118,2.284-0.968,3.334c-0.817,0.792-3.647,0.747-3.647,0.747l0.043-13.896h12.826
		l0.278-4.236l-13.375,0.137l-0.004-12.221c0,0-0.08-1.76,1.15-2.688c1.296-0.978,3.646-0.702,3.646-0.702v12.578h8.841
		l1.102-18.015l-14.739-0.301c0,0-4.033,0.093-6.562,2.491c-2.921,2.768-2.569,9.127-2.569,9.127L184.383,296.689z"/>
	<path fill="#2E2A25" d="M231.737,254.592c-1.603-1.688-5.624-1.469-5.624-1.469l-16.051,0.371l-1.658,42.556l8.074,0.214
		l1.038-17.496c0,0,2.585-0.867,3.823,0.927c0.814,1.19,0.703,2.597,0.703,2.597l-1.065,14.044l7.945,0.369l1.392-14.136
		c0,0,0.437-2.479-0.383-4.327c-0.721-1.629-2.473-2.029-2.473-2.029s1.145,0,2.855-1.938c1.712-1.935,1.712-4.69,1.712-4.69
		l0.986-9.788C233.013,259.795,233.555,256.503,231.737,254.592 M223.467,259.85l-0.566,10.832c0,0,0,1.384-0.574,2.215
		c-0.569,0.827-1.329,0.918-1.329,0.918l-2.946-0.091l0.852-16.08l2.178-0.066c0,0,1.188-0.078,1.861,0.411
		C223.617,258.48,223.467,259.85,223.467,259.85"/>
	<path fill="#2E2A25" d="M224.807,315.35l10.039-2.435l-10.287-0.975c-0.445-0.043-9.985-0.935-14.711-0.905
		c-0.608-1.867-4.612-14.179-4.612-14.179l-1.721,4.743c-0.106,0.289-2.232,6.188-3.341,9.492
		c-5.508-0.04-12.864,0.731-13.204,0.766l-10.727,1.151l10.545,2.272c3.176,0.687,9.719,2.974,10.398,5.773
		c-0.831,3.271-3.073,9.034-3.098,9.092l-2.091,5.354c0,0,11.528-8.082,13.117-9.2c1.595,1.118,12.831,8.996,12.831,8.996
		s-4.653-13.292-5.04-14.403C213.912,319.058,219.639,316.61,224.807,315.35"/>
	<path fill="#FFFFFF" d="M210.146,320.577c0.705-2.833,5.483-5.002,9.3-6.304c-3.745-0.314-8.654-0.681-10.964-0.67l-0.648,0.009
		c0,0-1.871-5.469-2.835-8.297c-0.877,2.455-2.167,6.102-2.704,7.804l-0.197,0.633l-0.657,0.009
		c-2.714,0.034-6.319,0.227-9.225,0.403c3.349,1.289,7.235,3.471,7.676,6.736l0.023,0.169l-0.039,0.163
		c-0.455,1.979-1.48,4.936-2.272,7.107c2.668-1.875,7.513-5.275,7.513-5.275s4.977,3.493,7.614,5.341
		c-1.008-2.875-2.648-7.562-2.648-7.562L210.146,320.577z"/>
	<path fill="#2E2A25" d="M101.438,124.837c0,54.889,47.047,99.547,104.88,99.547c57.829,0,104.876-44.658,104.876-99.547
		c0-54.894-47.047-99.55-104.876-99.55C148.486,25.287,101.438,69.943,101.438,124.837"/>
	<path fill="#FFFFFF" d="M106.643,124.837c0-52.024,44.71-94.348,99.673-94.348c54.963,0,99.677,42.324,99.677,94.348
		c0,52.021-44.714,94.341-99.677,94.341C151.353,219.178,106.643,176.857,106.643,124.837"/>
	<path fill="#2E2A25" d="M145.788,61.557l0.209-0.166c1.229-0.99,2.297-1.19,3.055-0.247c0.708,0.882,0.156,1.946-0.961,2.847
		l-0.208,0.168L145.788,61.557z M146.147,68.87l4.252-3.421c2.705-2.177,3.625-5,2.015-6.999c-1.985-2.467-5.156-1.538-8.254,0.952
		l-3.415,2.75L146.147,68.87z"/>
	<path fill="#2E2A25" d="M170.827,49.697l-0.263-2.734l0.144-0.057c0.211,0.308,0.426,0.626,0.681,0.919l1.038,1.218L170.827,49.697
		z M170.887,51.882l3.012-1.231l0.771,0.851l4.222-1.721l-7.176-6.392l-4.408,1.804l-0.558,9.539l4.222-1.721L170.887,51.882z"/>
	<polygon fill="#2E2A25" points="191.668,38.096 195.952,37.613 196.606,43.432 200.199,43.025 200.51,45.775 192.636,46.664 	"/>
	<polygon fill="#2E2A25" points="216.208,37.602 220.474,38.222 219.634,44.015 223.207,44.531 222.812,47.274 214.971,46.136 	"/>
	<path fill="#2E2A25" d="M242.232,50.073l1.767-2.097l0.144,0.065c-0.072,0.365-0.152,0.743-0.18,1.13l-0.152,1.593L242.232,50.073z
		 M240.703,51.645l2.986,1.298l-0.07,1.145l4.179,1.821l-0.433-9.592l-4.364-1.903l-7.225,6.259l4.184,1.82L240.703,51.645z"/>
	<path fill="#2E2A25" d="M262.157,61.57l0.091,0.24c0.314,0.823,0.803,1.689,1.568,2.319c0.328,0.269,0.929,0.606,1.176,0.306
		c0.248-0.3-0.167-0.69-0.436-0.985l-0.592-0.635c-1.16-1.242-1.789-2.696-0.929-3.737c1.298-1.579,4.007-0.827,5.996,0.816
		c1.04,0.86,1.848,1.837,2.415,2.97l-2.304,0.964c-0.339-0.753-0.794-1.508-1.514-2.094c-0.289-0.243-0.777-0.513-1.007-0.243
		c-0.203,0.25,0.184,0.626,0.397,0.883l0.652,0.742c1.215,1.389,1.785,2.781,0.849,3.908c-1.312,1.583-3.947,0.729-5.922-0.903
		c-1.148-0.952-2.295-2.283-3.011-3.514L262.157,61.57z"/>
	<path fill="#2E2A25" d="M289.854,100.56c-0.577-0.599-1.938-1.393-1.938-1.393c-0.496-0.193-0.595-0.657-0.595-0.657
		c-0.271-1.682-0.639-2.296-0.639-2.296c-8.577-11.072-19.559-20.278-32.183-26.891c-2.249-1.019-4.278-1.123-4.278-1.123
		c-0.451,0.018-0.68-0.345-0.68-0.345c-0.743-1.055-2.981-2.196-3.827-2.597c-11.663-4.73-24.456-7.35-37.884-7.35
		c-4.067,0-8.082,0.24-12.021,0.712l5.189-6.957c-20.715-0.62-35.574,15.56-35.574,15.56l0.006,0.015
		c-4.978,2.317-9.726,5.014-14.201,8.072l0.016-0.019c-10.803,3.875-13.92,12.576-13.92,12.576c-2.738,2.288-8.15,9.49-8.15,9.49
		c-1.545,0.892-3.163,2.371-3.654,2.834c-2.497,2.583-7.041,8.415-9.469,18.463c-0.066,0.165-0.143,0.328-0.208,0.494
		c-0.101,0.564-0.202,1.192-0.298,1.827c-0.232,1.187-0.438,2.421-0.603,3.712l0.093-0.137c-0.034,0.267-0.061,0.428-0.061,0.428
		c-0.258,0.176-1.806,6.374-1.806,6.374c-0.257,0.772-3.074,9.259-3.074,9.259l-0.019-0.019c-0.001,0.019-0.006,0.035-0.009,0.052
		c-7.414,25.934,2.443,41.657,4.125,44.071c13.108,38.152,50.078,65.643,93.638,65.643c33.232,0,62.635-15.997,80.531-40.529
		l-0.006,0.003c0.506-0.803,0.76-2.432,0.76-2.432c0.023-0.531,0.425-0.784,0.425-0.784c1.382-0.736,1.854-1.241,1.923-1.323
		c9.563-14.818,15.104-32.355,15.104-51.157C306.567,134.302,300.408,115.871,289.854,100.56"/>
	<path fill="#FFFFFF" d="M166.392,81.921c0.259-0.27,0.486-0.51,0.699-0.733c0.333-0.346,0.46-0.436,0.501-0.413
		c0.035-0.037,0.068-0.062,0.068-0.062c0.094-4.941,1.2-8.898,1.2-8.898c8.983-12.548,23.796-15.866,23.796-15.866
		c1.837-0.527,0.647,0.286,0.647,0.286c-9.327,10.443-8.352,19.079-8.352,19.079l8.895,32.474c0,0-7.214-2.542-12.778-13.947
		c-2.556,22.757,18.903,41.214,18.903,41.214c0.937,0.798-0.537-0.064-0.537-0.064c-5.365-2.686-11.562-8.347-13.248-9.935
		c0.446,1.763,10.895,54.28,10.929,54.443c0.046,0.25,0.197,0.749,0.3,1.09l3.627-8.997l2.983,26.525
		c-13.607,12.666-28.102,7.646-29.002,7.322c0.365,0.566,0.628,0.979,0.633,0.979c0,0,11.765,23.115,59.714,20.663
		c0,0,1.155,0,0.979,0.139c0.014,0.043-0.044,0.103-0.268,0.182c-0.896,0.321-2.313,0.544-2.313,0.544
		c-57.876,15.472-87.869-33.86-89.169-36.059c-0.371-0.51-3.177-4.461-4.738-8.449c-0.057-0.118-0.123-0.503,0.152-0.208
		c0,0,6.141,6.405,23.53,7.989c0.124-0.019,0.192-0.023,0.192-0.023c-13.43-14.982-19.151-25.838-19.992-27.498h-0.009
		c0,0-1.62-2.434-3.529-9.313c0,0,0.046-0.349,0.214,0c0.652,1.366,5.107,7.929,10.509,9.394c0.002,0,0.017-0.005,0.017-0.005
		c-4.593-7.403-7.448-19.124-7.813-20.838c6.252,8.754,17.343,9.386,17.343,9.386c-0.02-0.022-0.044-0.052-0.067-0.083
		c0.023,0.039,0.038,0.063,0.038,0.063c-18.234-18.19-14.301-37.996-6.905-52.286C157.897,91.582,163.468,85.06,166.392,81.921"/>
	<path fill="#8E9090" d="M213.417,175.761l6.155-31.935c0.639-3.126,0.276,0.044,0.276,0.044l-3.507,33.291l7.671,26.454
		l-14.885,11.421c-1.528,1.184-0.354-0.233-0.354-0.233l11.938-12.554L213.417,175.761z"/>
	<path fill="none" stroke="#2E2A25" stroke-width="0.161" d="M213.417,175.761l6.155-31.935c0.639-3.126,0.276,0.044,0.276,0.044
		l-3.507,33.291l7.671,26.454l-14.885,11.421c-1.528,1.184-0.354-0.233-0.354-0.233l11.938-12.554L213.417,175.761z"/>
	<path fill="#8E9090" d="M217.294,138.688c-1.315,0.632-0.061-0.251-0.061-0.251c6.399-4.268,7.49-23.447,7.622-26.65
		c0.015-0.366,0.186,0,0.186,0C231.945,133.232,217.294,138.688,217.294,138.688"/>
	<path fill="none" stroke="#2E2A25" stroke-width="0.161" d="M217.294,138.688c-1.315,0.632-0.061-0.251-0.061-0.251
		c6.399-4.268,7.49-23.447,7.622-26.65c0.015-0.366,0.186,0,0.186,0C231.945,133.232,217.294,138.688,217.294,138.688z"/>
	<path fill="#8E9090" d="M223.412,84.801c0,0-1.43-4.78-2.752-6.4c0,0,7.625-4.25,17.76-0.86c0,0,0.299,0.125-0.035,0.112
		C236.493,77.641,228.06,77.312,223.412,84.801"/>
	<path fill="none" stroke="#2E2A25" stroke-width="0.161" d="M223.412,84.801c0,0-1.43-4.78-2.752-6.4c0,0,7.625-4.25,17.76-0.86
		c0,0,0.299,0.125-0.035,0.112C236.493,77.641,228.06,77.312,223.412,84.801z"/>
	<path fill="#8E9090" d="M213.001,100.951c0,0,4.144-4.922,5.307-15.841c0,0,6.929,23.214-5.485,49.827
		c-0.079,0.154-0.17,0.195-0.11-0.052c0,0,5.884-20.034,5.458-37.139c0,0-3.606,11.484-5.801,13.675c0,0-4.067-14.186-10.006-18.779
		c0,0,6.416,23.945,5.378,40.425c0,0-0.094,0.604-0.167-0.032c-0.547-4.724-3.66-26.5-17.05-55.411
		C190.524,77.623,204.455,85.184,213.001,100.951"/>
	<path fill="none" stroke="#2E2A25" stroke-width="0.161" stroke-linejoin="round" d="M213.001,100.951
		c0,0,4.144-4.922,5.307-15.841c0,0,6.929,23.214-5.485,49.827c-0.079,0.154-0.17,0.195-0.11-0.052c0,0,5.884-20.034,5.458-37.139
		c0,0-3.606,11.484-5.801,13.675c0,0-4.067-14.186-10.006-18.779c0,0,6.416,23.945,5.378,40.425c0,0-0.094,0.604-0.167-0.032
		c-0.547-4.724-3.66-26.5-17.05-55.411C190.524,77.623,204.455,85.184,213.001,100.951z"/>
	<path fill="#8E9090" d="M265.39,224.721c0,0-41.04,34.833-93.986,9.884c0,0-28.958-11.023-42.606-39.763
		c-11.294-17.519-13.179-31.118-12.99-44.197c0,0-0.064-3.252,0.296-0.625c0,0,2.397,15.653,8.216,24.552
		c0,0,1.661,3.283,0.455-0.255c0,0-3.893-14.674-3.921-24.705c0,0-6.996-26.805,8.289-42.035c0,0-3.992,8.955-4.152,16.646
		c0,0-0.267,2.897,0.401,0.083c0,0,3.175-12.527,13.324-24.03c0,0,3.598-11.468,9.366-15.866c0,0-2.761,4.827-2.795,8.287
		c0,0,10.049-12.67,16.588-14.552c0,0-28.881,25.173-23.153,68.632c0,0-6.922-11.022-2.67-33.176c0,0-21.518,25.715,11.273,66.595
		c0,0-10.605-1.977-18.854-17.957c0,0,0.676,43.302,48.333,68.298c0,0,39.041,22.492,87.994-6.234
		C264.8,224.303,269.853,221.045,265.39,224.721"/>
	<path fill="none" stroke="#2E2A25" stroke-width="0.161" stroke-linejoin="round" d="M265.39,224.721
		c0,0-41.04,34.833-93.986,9.884c0,0-28.958-11.023-42.606-39.763c-11.294-17.519-13.179-31.118-12.99-44.197
		c0,0-0.064-3.252,0.296-0.625c0,0,2.397,15.653,8.216,24.552c0,0,1.661,3.283,0.455-0.255c0,0-3.893-14.674-3.921-24.705
		c0,0-6.996-26.805,8.289-42.035c0,0-3.992,8.955-4.152,16.646c0,0-0.267,2.897,0.401,0.083c0,0,3.175-12.527,13.324-24.03
		c0,0,3.598-11.468,9.366-15.866c0,0-2.761,4.827-2.795,8.287c0,0,10.049-12.67,16.588-14.552c0,0-28.881,25.173-23.153,68.632
		c0,0-6.922-11.022-2.67-33.176c0,0-21.518,25.715,11.273,66.595c0,0-10.605-1.977-18.854-17.957c0,0,0.676,43.302,48.333,68.298
		c0,0,39.041,22.492,87.994-6.234C264.8,224.303,269.853,221.045,265.39,224.721z"/>
	<path fill="#003DA6" d="M210.105,65.988c43.646,0.003,66.86,31.194,66.86,31.194c1.881,2.183-3.452,2.779-3.452,2.779
		c-30.632,4.274-45.351-9.144-45.351-9.144c2.491-6.769,15.676-12.883,15.676-12.883c-13.05-7.551-24.937-1.955-24.937-1.955
		c-3.801-4.748-9.86-9.403-9.86-9.403C207.736,65.796,210.105,65.988,210.105,65.988"/>
	<path fill="none" stroke="#003DA6" stroke-width="0.161" d="M210.105,65.988c43.646,0.003,66.86,31.194,66.86,31.194
		c1.881,2.183-3.452,2.779-3.452,2.779c-30.632,4.274-45.351-9.144-45.351-9.144c2.491-6.769,15.676-12.883,15.676-12.883
		c-13.05-7.551-24.937-1.955-24.937-1.955c-3.801-4.748-9.86-9.403-9.86-9.403C207.736,65.796,210.105,65.988,210.105,65.988z"/>
	<path fill="#003DA6" d="M229.895,141.001c29.181,27.638,19.328,73.852,19.328,73.852c-0.521,1.579-2.206,2.005-2.206,2.005
		c-20.438,4.533-33.858,0.276-33.858,0.276l14.793-11.89l-7.472-27.715l2.055-18.49c6.351,1.909,6.351,17.86,6.351,17.86
		C240.8,151.903,229.895,141.001,229.895,141.001"/>
	<path fill="none" stroke="#003DA6" stroke-width="0.161" stroke-linejoin="round" d="M229.895,141.001
		c29.181,27.638,19.328,73.852,19.328,73.852c-0.521,1.579-2.206,2.005-2.206,2.005c-20.438,4.533-33.858,0.276-33.858,0.276
		l14.793-11.89l-7.472-27.715l2.055-18.49c6.351,1.909,6.351,17.86,6.351,17.86C240.8,151.903,229.895,141.001,229.895,141.001z"/>
	<path fill="#003DA6" d="M283.715,195.7c0,0-11.142,14.167-27.646,19.521c0,0-2.629,1-2.001-1.736c0,0,12.317-47.723-20.335-79.496
		c0,0-1.504-1.005,0.4-0.503c0,0,5.336,1.623,8.739,5.833c0,0-0.549-9.375-6.907-16.688c0,0-1.798-1.899,0.1-0.474
		c0,0,47.604,22.526,49.224,68.444C285.288,190.6,285.643,194.097,283.715,195.7"/>
	<path fill="none" stroke="#003DA6" stroke-width="0.161" d="M283.715,195.7c0,0-11.142,14.167-27.646,19.521
		c0,0-2.629,1-2.001-1.736c0,0,12.317-47.723-20.335-79.496c0,0-1.504-1.005,0.4-0.503c0,0,5.336,1.623,8.739,5.833
		c0,0-0.549-9.375-6.907-16.688c0,0-1.798-1.899,0.1-0.474c0,0,47.604,22.526,49.224,68.444
		C285.288,190.6,285.643,194.097,283.715,195.7z"/>
	<path fill="#003DA6" d="M289.247,181.902c-1.236-50.245-63.889-79.086-63.889-79.086c7.56-0.057,11.599,5.47,11.599,5.47
		c0.172-2.491-0.912-5.47-0.912-5.47c14.861,5.658,42.054,0.185,42.054,0.185c3.21-0.272,3.946,1.555,3.946,1.555
		c5.966,6.632,13.408,22.136,14.648,40.748C298.447,171.653,289.434,189.439,289.247,181.902"/>
	<path fill="none" stroke="#003DA6" stroke-width="0.161" stroke-miterlimit="5" d="M289.247,181.902
		c-1.236-50.245-63.889-79.086-63.889-79.086c7.56-0.057,11.599,5.47,11.599,5.47c0.172-2.491-0.912-5.47-0.912-5.47
		c14.861,5.658,42.054,0.185,42.054,0.185c3.21-0.272,3.946,1.555,3.946,1.555c5.966,6.632,13.408,22.136,14.648,40.748
		C298.447,171.653,289.434,189.439,289.247,181.902z"/>
	<path fill="#2E2A25" d="M187.023,60.522c0.034-0.037,0.054-0.072,0.089-0.114c0,0-0.01,0.007-0.025,0.007
		c-0.532,0.15-10.095,2.97-12.93,17.563c0,0-0.015,0.267,0.134,0.016c0.859-1.416,3.855-5.943,6.604-4.596
		c0,0,0.006-0.112,0.03-0.298C181.076,71.862,181.977,66.792,187.023,60.522"/>
	<path fill="#2E2A25" d="M179.696,192.39c-2.066-4.16-15.349-33.162-15.349-33.162c-4.132,1.313-9.265-2.048-9.265-2.048
		c0.005,0.002,0.005,0.009,0.005,0.012c6.531,17.35,21.916,32.529,24.371,35.284c0.009,0.013,0.02,0.027,0.031,0.038
		c0.419,0.458,0.415,0.294,0.415,0.294C179.858,192.72,179.787,192.569,179.696,192.39"/>
	<path fill="#8E9090" d="M196.784,199.482c0.208-1.387,2.771-17.767-5.491-20.058c0,0-5.69-1.452-5.322,10.406
		C193.708,172.067,196.784,199.382,196.784,199.482"/>
	<path fill="#2E2A25" d="M185.969,189.831l2.83,6.199c0,0,1.609-16.643,7.988,3.421
		C196.787,199.452,193.921,171.031,185.969,189.831"/>
	<path fill="#2E2A25" d="M166.523,97.918c-11.987,27.401,14.996,38.695,15.345,38.842h0.011l-1.428-6.309l-0.817-3.609
		c-0.671-0.222-1.304-0.474-1.916-0.738c-0.21-0.094-0.405-0.193-0.613-0.286c-0.251-0.125-0.503-0.244-0.738-0.37
		c-11.791-6.265-10.644-21.268-9.923-26.148c0.01-0.034,0.01-0.063,0.018-0.093c0.018-0.151,0.043-0.289,0.063-0.413
		c0.077-0.458,0.14-0.771,0.168-0.93c0.017-0.079,0.029-0.13,0.029-0.13v-0.018C166.74,97.351,166.586,97.772,166.523,97.918"/>
	<path fill="#2E2A25" d="M172.705,113.383c0,0,1.6,5.3,8.529,5.599c0,0-0.285-0.413-0.721-1.177
		c-1.286-2.258-4.584-9.271-5.04-16.571C175.474,101.192,169.504,106.457,172.705,113.383"/>
	<path fill="#8E9090" d="M184.277,175.052l-1.938-34.432l11.562,38.392C193.9,179.012,190.114,169.935,184.277,175.052"/>
	<path fill="#8E9090" d="M175.585,92.734c-0.334,5.746-0.102,8.587-0.102,8.587s-6.915,5.303-1.625,14.173
		C166.351,107.426,172.628,97.092,175.585,92.734"/>
	<path fill="#8E9090" d="M184.977,76.062l2.561,20.588c0,0,1.252,5.624-6.47-2.81c0,0,3.756,9.428,11.48,13.465
		c0.438,0.229,0.88,0.438,1.338,0.63c0.051,0.019,0.094,0.04,0.137,0.057l-8.748-31.972c0,0-0.164-0.438-0.258-0.47
		C184.96,75.536,184.935,75.647,184.977,76.062"/>
</g>
<g>
	<defs>
		<path id="SVGID_3_" d="M186.149,188.003c-0.015,0.569-0.085,1.055-0.181,1.831c7.734-17.767,10.815,9.547,10.815,9.648
			c0.045-0.617,0.011-2.517,0.116-5.163c0.23-5.439-0.048-13.355-5.604-14.892c0,0-0.215-0.059-0.554-0.059
			C189.456,179.369,186.349,180.185,186.149,188.003"/>
	</defs>
	<clipPath id="SVGID_4_">
		<use xlink:href="#SVGID_3_"  overflow="visible"/>
	</clipPath>
	<path clip-path="url(#SVGID_4_)" fill="none" stroke="#2E2A25" stroke-width="0.161" d="M185.969,189.831l2.83,6.199
		c0,0,1.609-16.643,7.988,3.421C196.787,199.452,193.921,171.031,185.969,189.831z"/>
</g>
<g>
	<defs>
		<path id="SVGID_5_" d="M171.876,112.447c0.542,1.042,1.056,1.822,1.982,3.045c-5.295-8.867,1.625-14.173,1.625-14.173
			s-0.338-0.622-0.354-1.863c-0.024-1.429,0.276-3.666,0.451-6.722C172.988,96.555,168.022,104.987,171.876,112.447"/>
	</defs>
	<clipPath id="SVGID_6_">
		<use xlink:href="#SVGID_5_"  overflow="visible"/>
	</clipPath>
	<path clip-path="url(#SVGID_6_)" fill="none" stroke="#2E2A25" stroke-width="0.161" stroke-linecap="square" d="M175.483,101.32
		c0,0-6.917,5.305-1.627,14.175"/>
</g>
<g>
	<defs>
		<path id="SVGID_7_" d="M185.097,76.444l2.443,20.202c0,0,0.956,4.596-3.978,0.02c-0.704-0.656-2.009-2.122-2.496-2.825
			c0,0,3.753,9.428,11.478,13.465c0.44,0.229,0.886,0.44,1.344,0.63c0.048,0.016,0.091,0.039,0.134,0.054l-8.748-31.969
			c0,0-0.167-0.441-0.258-0.47C185.037,75.936,185.062,76.25,185.097,76.444"/>
	</defs>
	<clipPath id="SVGID_8_">
		<use xlink:href="#SVGID_7_"  overflow="visible"/>
	</clipPath>
	<path clip-path="url(#SVGID_8_)" fill="none" stroke="#2E2A25" stroke-width="0.161" stroke-linejoin="round" d="M181.067,93.84
		c0,0,3.756,9.429,11.478,13.465c0.44,0.228,0.886,0.44,1.344,0.63c0.048,0.019,0.094,0.04,0.137,0.057l-8.751-31.972
		c0,0-0.167-0.438-0.258-0.467"/>
</g>
<g>
	<defs>
		<path id="SVGID_9_" d="M204.395,296.224c-2.687,2.607-6.956,3.109-7.425,3.159l-0.112,0.008l-15.441,0.503l-0.187-3.589
			c-0.525,0.734-1.192,1.466-2.035,2.132c-2.269,1.807-6.536,2.231-7.928,2.323c-0.031,0.004-4.25,0.435-7.897,0.817l4.773,7.748
			l0.743,1.09c16.605,24.268,32.289,39.518,36.972,43.854c4.541-4.358,19.638-19.495,36.715-43.604l0.688-0.975l5.265-8.301
			l-6.634-0.716l-10.191-0.791l-0.001,0.011l-14.112-0.365v-0.015c-0.604-0.015-12.468-0.323-12.468-0.323l0.155-3.972
			C205.016,295.571,204.72,295.91,204.395,296.224 M205.795,99.703l-0.582,0.159c0,0-126.89-35.517-132.952-37.21
			c1.581,11.278,7.381,50.004,16.957,85.492c7.376,27.342,16.079,48.087,24.496,68.142l6.083,14.578l6.827,11.077
			c4.961,1.125,10.149,2.298,10.192,2.312c0.309,0.078,6.951,1.826,11.204,6.758l-0.217-1.097l-0.835-4.228l18.624,2.384v0.006
			c0.568,0.054,15.978,1.449,15.978,1.449l0.11,2.719c0,0,0.046,1.091,0.114,2.896c0.372-0.579,0.808-1.114,1.312-1.595
			c3.306-3.125,8.092-3.325,8.72-3.343l12.001,0.081l-0.015-8.707h11.938l-0.015,8.481c4.959-0.129,10.209-0.271,10.224-0.271
			c1.18-0.062,5.227-0.103,7.68,1.783c0.457,0.354,0.846,0.75,1.172,1.158l0.426-3.334l12.884-1.219l4.024-0.382l-0.904,5.367
			c0.541-0.834,1.159-1.633,1.876-2.347c3.224-3.246,9.386-4.332,10.058-4.436l15.947-2.676l3.134-0.526
			c0.821-0.174,2.177-0.473,3.731-0.807l6.402-10.097l1.695-3.914c11.469-26.439,20.528-47.318,29.252-80.657
			c9.188-35.133,14.811-73.878,16.34-85.132C333.646,64.239,205.795,99.703,205.795,99.703"/>
	</defs>
	<clipPath id="SVGID_10_">
		<use xlink:href="#SVGID_9_"  overflow="visible"/>
	</clipPath>
	<path clip-path="url(#SVGID_10_)" fill="none" stroke="#003DA6" stroke-width="0.161" d="M348.257,214.171
		c-0.517,0.228-40.79,17.6-94.441,25.134c-13.729,7.059-29.378,11.054-45.988,11.054c-16.736,0-32.5-4.06-46.315-11.227
		c-52.364-7.769-99.066-25.424-99.66-25.649l-16.016-6.117l5.7,15.335c0.109,0.416,0.109,0.416,35.951,97.094l2.582,6.959
		l7.077-2.24c15.387-4.886,55.8-16.084,104.136-16.646c1.038-2.958,2.155-6.062,2.232-6.265l1.716-4.746
		c0,0,2.197,6.748,3.584,11.009c44.868,0.493,83.711,9.706,99.907,15.21l7.037,2.392l2.743-6.984
		c1.003-2.558,24.492-57.691,40.033-94.126l7.7-18.047L348.257,214.171z"/>
</g>
</svg>
