<?xml version="1.0" encoding="utf-8"?>
<!-- Generator: Adobe Illustrator 16.0.0, SVG Export Plug-In . SVG Version: 6.00 Build 0)  -->
<!DOCTYPE svg PUBLIC "-//W3C//DTD SVG 1.1//EN" "http://www.w3.org/Graphics/SVG/1.1/DTD/svg11.dtd">
<svg version="1.1" id="Layer_1" xmlns="http://www.w3.org/2000/svg" xmlns:xlink="http://www.w3.org/1999/xlink" x="0px" y="0px"
	 width="400px" height="400px" viewBox="0 0 400 400" enable-background="new 0 0 400 400" xml:space="preserve">
<g>
	<path fill="#FFFFFF" d="M378.8,186c0,0-8.2,2.7-9,3c-8.6-6.5-19-5.9-19.4-5.8c0,0-7.9,0-10.2,0c0.1-0.3,0.6-1.2,0.6-1.2
		s-6.4-8-8.2-10.4c2.9,0,13.9-0.1,13.9-0.1l-1.8-1.7c-47.4-44.8-77.4-48.2-78.6-48.3l-0.5,0c0,0-0.8,0.9-1.2,1.5
		c-1.5-1.2-55.7-47.1-55.7-47.1s-57,46.8-58.6,48.1c-0.4-0.5-1.1-1.6-1.1-1.6l-0.6,0.1c-42.6,8.3-79.6,46.9-79.9,47.3l-1.6,1.7h11.8
		c-1.9,2-6,6.5-6,6.5s2.7,4.4,3.9,6.3H21.2v30.1l1,0c1.1-0.1,1.9,0.2,2.4,0.7c0.6,0.6,0.6,1.5,0.6,1.7c0,0,0,0.1,0,0.1
		c0,0.5,0.4,72.5,0.4,72.5c0,0.2,0,0.5,0,0.7c0,2.6-0.8,3.3-0.9,3.4c-0.3,0.1-3.3,1-3.3,1v29.5h29.6c0,0,1.4-0.7,2.3-1.2
		c0.1,0.2,0.4,1.3,0.4,1.3h22c0,0,10-5.8,11.1-6.5c8.1,7.2,17.6,6.6,18,6.6c7.3-0.1,13.4-3.9,13.6-4.1c0,0,9.3-6.1,12-7.8
		c8.4,12.6,22.2,11.8,22.4,11.8c8.5,0,13.6-3.7,13.8-3.9c0,0,9.5-6.2,12.3-8c7.7,11.8,21.4,11.8,22,11.8c9.6,0.5,16.6-4.9,18.8-6.9
		c1,1.3,5.4,6.9,5.4,6.9h49.2v-6.7c2.3,1.7,8.8,6.7,8.8,6.7h35.4V317c2.2,1.2,9.9,5.4,9.9,5.4s3.9-3.1,4.8-3.8
		c7.1,5.5,16.8,5.5,17.2,5.5h0c19.1,0,25.1-13.5,25.1-13.6c2.9-5.2,3.1-12.4,3.1-12.7v-25.1c0-15.1-8.7-22.4-9.1-22.7
		c-1.6-1.6-6.2-4.9-9.3-6.9h18.4V186z M377.8,242.2h-20.7c0,0,9.5,6.3,11.9,8.7c0,0,8.7,7.2,8.7,22v25c0,0-0.1,7.1-3,12.3
		c0,0,0,0.1-0.1,0.2c-0.7,1.4-6.7,12.8-24.2,12.8c0,0-10.3,0.1-17.2-5.8l-4.9,3.8l-10.8-5.9v7.6h-34.1l-10.2-7.7v7.7h-47.7l-5.8-7.4
		c0,0-7.7,8-19,7.4c0,0-14.3,0.2-21.7-12.1l-13.1,8.5c0,0-5,3.7-13.3,3.7c0,0-13.9,1-22.1-12.2c0,0-9.2,6.1-12.7,8.3
		c0,0-6,3.8-13.2,3.9c0,0-9.8,0.7-17.8-6.8l-11.4,6.7h-21l-0.5-1.7l-3.1,1.6H22.5v-27.8l2.7-0.8c0,0,0,0,0.1,0
		c0.3-0.2,1.5-1.3,1.3-5l-0.4-72.5c0,0,0.3-3.7-4-3.5v-28.1h56l-4.4-7.2l7.1-7.6H68.9c0,0,36.7-38.7,79.4-47l1.3,1.9l58.8-48.3
		l55.9,47.2l1.5-1.8c0,0,30.3,2.9,78,48l-13.4,0.1l9.1,11.5l-1,2h11.9c0,0,10.8-0.9,19.2,5.9l8.1-2.7V242.2z"/>
	<path fill="#4D90CD" d="M347,234.8c0-0.4,0-0.7,0-1C346.9,234.1,346.9,234.4,347,234.8"/>
	<path fill="#4D90CD" d="M174.1,304.5c-0.2,0.5-0.5,0.9-0.8,1.4C173.6,305.4,173.9,304.9,174.1,304.5"/>
	<path fill="#4D90CD" d="M118.9,313c-0.2,0.2-0.4,0.4-0.6,0.6C118.4,313.4,118.6,313.2,118.9,313"/>
	<path fill="#4D90CD" d="M94.6,204.6c0,0-0.1-0.1-0.1-0.1C94.6,204.5,94.6,204.5,94.6,204.6"/>
	<path fill="#4D90CD" d="M346.9,233.3c0,0,0-0.1,0-0.1C346.9,233.2,346.9,233.3,346.9,233.3"/>
	<path fill="#4D90CD" d="M350.5,184.2h-11.9l1-2.1l-9.1-11.5l13.4-0.1c-47.7-45.1-78-48-78-48l-1.5,1.8l-55.9-47.2l-58.8,48.3
		l-1.3-1.9c-42.7,8.3-79.4,47-79.4,47h11.8l-7.1,7.6l4.4,7.2h-56v28.1c4.3-0.2,4,3.5,4,3.5l0.4,72.5c0.2,3.7-1,4.8-1.3,5
		c0,0-0.1,0-0.1,0l-2.7,0.8v27.8h28.4l3.1-1.6l0.5,1.7h21l11.4-6.7c8,7.5,17.8,6.8,17.8,6.8c7.2-0.1,13.2-3.9,13.2-3.9
		c3.5-2.2,12.7-8.3,12.7-8.3c8.1,13.2,22.1,12.2,22.1,12.2c8.3,0,13.3-3.7,13.3-3.7l13.1-8.5c7.4,12.3,21.7,12.1,21.7,12.1
		c11.3,0.6,19-7.4,19-7.4l5.8,7.3h47.7v-7.7l10.2,7.7h34.1v-7.6l10.8,5.9l4.9-3.8c7,5.9,17.2,5.8,17.2,5.8
		c17.5,0,23.5-11.4,24.2-12.9c0-0.1,0.1-0.1,0.1-0.1c2.9-5.1,3-12.3,3-12.3v-25.1c0-14.8-8.7-22-8.7-22c-2.4-2.4-11.9-8.7-11.9-8.7
		h20.7v-54.8l-8.1,2.7C361.3,183.3,350.5,184.2,350.5,184.2 M373.7,193.1v0.9v43.2v0.7h-0.7l-12.3,0l-5.3,0h-0.6
		c0,0-7.1-2.3-7.9-2.6c0-0.1,0-0.2,0-0.3c0,0.8,0.2,1.7,0.4,2.6c0.4,1.6,1.1,3.3,2.4,4.2c0.1,0,6.5,4.5,15.9,11.3
		c0.3,0.3,8.2,6.5,8,20V299c0,0.3,0,8.1-5.9,14c-4.1,4.1-10.1,6.2-17.7,6.1c-0.4,0-9.1,0.5-17-7.2l-4.2,3.5l-0.7,0.6l-0.3,0.3
		c0,0-11.8-6.2-14.4-7.6v10.3l-22.5,0l-6.7,0c0,0-12-8.9-14.7-11v11l-32.4,0l-10.1,0c0,0-6.3-7.3-7.7-9c-7.7,9.2-17.1,9.1-17.2,9.1
		c-7.5-0.3-13.3-2.6-17.3-7.1c-2-2.2-3.3-4.6-4.2-6.9c-2.1,1.3-11.5,7.2-14.2,8.8c-0.2,0.2-0.5,0.4-0.7,0.6
		c-6.3,4.7-12.3,4.5-12.3,4.5c-6.9,0-12.4-2.1-16.3-6.2c-2.4-2.4-3.9-5.3-4.9-8c-2.2,1.4-12.8,8.2-15.2,9.7
		c-0.9,0.7-1.7,1.3-2.6,1.8c-5,2.9-9.8,2.8-10.1,2.8c-6.4-0.1-11.5-2.2-15.2-6.2c-0.5-0.5-0.9-1-1.3-1.6c-2.9,1.7-13.2,7.5-13.2,7.5
		l-0.7,0h-0.7H58.2h-0.6l-0.1-0.5l-0.4-1.9c-1.9,0.7-7.3,2.4-7.3,2.4l-0.6,0h0h-22h-0.7v-0.7l0-19.3v-0.4l0.3-0.2
		c0.1-0.1,3.8-2.2,3.7-8.3c0,0-0.1-70.8-0.1-70.9c0-0.1,0.2-7.7-3.7-9.6l-0.4-0.2v-0.4l0.1-19.3v-0.7h0h0.6h19.1h0.5l9.4,0v0.6v-0.7
		h0.7H78h0.7v0l6.2,0c0-0.1-0.1-0.1-0.1-0.2c-3.2-5.1-5.9-9.3-5.9-9.3l-0.5-0.8L79,178c0.1-0.2,3.2-4,11.1-11h-12
		c0,0,2.6-2.4,2.6-2.4c1.3-1.2,33.3-30.3,65-36.8l0.9-0.2c0,0,0.5,0.7,0.5,0.7c0,0,1.2,1.7,1.9,2.7l59.1-48.7l56.5,47.9
		c0.8-1,2.2-2.8,2.2-2.8l0.5-0.7l0.8,0.2c26.7,4.9,59.7,34.1,63.4,37.4l2.7,2.4H321c7.6,7.7,13,14.1,13.6,14.8l0.2,0.2
		c0,0-0.7,1.2-0.8,1.2l-3.7,5.9c6.1,0,15.9-0.6,18.9-0.6c0,0-0.1,0-0.1,0c0.5-0.1,0.9-0.1,1.4-0.1c0.5,0,11.4-0.4,18.3,6.6l4-1.4
		L373.7,193.1z"/>
	<path fill="#4D90CD" d="M172.6,307.1c0,0,0,0.1-0.1,0.1C172.5,307.2,172.6,307.1,172.6,307.1"/>
	<path fill="#4D90CD" d="M346.9,233.7c0-0.2,0-0.3,0-0.4C346.9,233.4,346.9,233.6,346.9,233.7"/>
	<path fill="#4D90CD" d="M175.2,302.1c-0.3,0.7-0.6,1.4-1,2.1C174.6,303.5,174.9,302.8,175.2,302.1"/>
	<path fill="#041E41" d="M354.8,218.4c0,0,0.1-3.3-1.6-5c-0.7-0.7-1.5-1-2.7-1c-0.1,0-3.5,0.1-3.6,6.7v14.1v0.1c0,0,0,0.1,0,0.1v0
		c0,0.1,0,0.2,0,0.4v0.1c0,0.3,0,0.6,0,1c0,0.1,0,0.1,0,0.2c0,0.1,0,0.2,0,0.3c0.8,0.3,7.8,2.6,7.8,2.6l-0.1-0.7V218.4z"/>
	<path fill="#041E41" d="M44.7,290c0,0.1,0.6,6.3,4.8,8.4l0.4,0.2v0.4v19.2l0,0.7c0,0,5.4-1.7,7.3-2.4l-12.5-61.1
		C44.7,267.1,44.7,290.1,44.7,290"/>
	<path fill="#FFC627" d="M94.5,204.5c0,0,0.1,0.1,0.1,0.1c0.3,0.5,0.5,0.8,0.5,0.8c0,0,0.7,1.1,0.7,1.1l1.1-0.6
		c51.4-26.4,109.7-24.9,112.1-24.8c63.2,2.8,106.4,27.7,106.8,28l1.2,0.7l13.3-20.9l3.7-5.9c0,0,0.8-1.2,0.8-1.2l-0.2-0.2
		c-0.6-0.7-6-7.2-13.6-14.8h13.4l-2.7-2.4c-3.7-3.3-36.7-32.5-63.4-37.4l-0.8-0.2l-0.5,0.7c0,0-1.4,1.8-2.2,2.8l0.2,0.2l0,0l1.6,1.3
		l1.8-2.3l0.2,0.1c10.1,5.4,29.7,20.5,29.9,20.6c12.1,8.4,24.4,21.5,30.7,28.5l-0.3,0.4c-5.2-2.6-10.6-5.2-16.1-7.5
		c-3-1.3-5.9-2.5-8.8-3.6c-55.7-21.6-102.3-19.2-102.8-19.2c-7.3,0.2-14.6,0.7-21.8,1.3c-7.7,0.7-15.4,1.7-23,3l0,0
		c-14.9,2.5-29.1,6-42.5,10.4c-1.8,0.6-3.6,1.2-5.3,1.8l0,0c-10.2,3.6-17.8,7.1-22.3,9.3l-0.3-0.4c7.4-7.2,25.1-22.6,60-43.8
		l0.2-0.1l1.5,2.1l1.6-1.3v0l0.2-0.2c-0.7-1-1.9-2.7-1.9-2.7c0,0-0.5-0.7-0.5-0.7l-0.9,0.2c-31.7,6.4-63.7,35.5-65,36.8
		c0,0-2.6,2.4-2.6,2.4h12c-8,7-11,10.8-11.1,11l-0.6,0.8l0.5,0.8c0,0,2.7,4.3,5.9,9.3c0,0.1,0.1,0.1,0.1,0.2
		C88.6,195,93,202,94.5,204.5 M299.4,148.7L299.4,148.7c-0.1-0.1-13.1-10.1-23.7-16.9l0.2-0.4c21.2,7.3,45,26.8,51.8,32.7l0.5,0.4
		h-0.7l-9.7-0.1C311.1,157.8,304.9,152.5,299.4,148.7 M84.1,164.7l0.5-0.4c6.6-5.7,29.9-24.9,54.4-32.3l0.2,0.4
		c-18.4,11.5-33.7,22.3-45.7,32.3H84.1z M81.4,179.2l0.2-0.1c7.8-4.4,50.4-26.5,119.4-28.5c2.6-0.1,64.5-2.8,130.3,31.9l0.2,0.1
		l-15.3,24.1l-0.2-0.1c-7.6-4.2-48.3-25.2-106.9-27.8c-0.6,0-59.5-2.2-112.4,24.6l-0.2,0.1L81.4,179.2z"/>
	<path fill="#4D90CD" d="M328.3,164.5l-0.5-0.4c-6.8-5.8-30.6-25.3-51.8-32.7l-0.2,0.4c10.5,6.8,23.5,16.8,23.6,16.9l0,0
		c5.5,3.8,11.7,9.1,18.5,15.7l9.7,0.1H328.3z"/>
	<path fill="#4D90CD" d="M139.2,132.4l-0.2-0.4c-24.5,7.5-47.8,26.7-54.4,32.3l-0.5,0.4h9.4C105.5,154.7,120.8,143.8,139.2,132.4"/>
	<path fill="#4D90CD" d="M309.2,183.2c0,0,0.9-2-2.6-3.2l-7.3-2.8l-1.5,3.8l8,3.2C305.8,184.2,308.4,185.5,309.2,183.2"/>
	<path fill="#4D90CD" d="M118.8,184.8c0,0,5.1-2,3.5-7.4c0,0-1.4-4.6-7.6-2.9l-6.6,2.5l3.8,10.3L118.8,184.8z"/>
	<path fill="#4D90CD" d="M96.9,203.4c52.9-26.8,111.8-24.6,112.4-24.6c58.6,2.6,99.3,23.6,106.9,27.8l0.2,0.1l15.3-24.1l-0.2-0.1
		c-65.9-34.7-127.7-32-130.3-31.9c-69,2-111.6,24.1-119.4,28.5l-0.2,0.1l15.3,24.3L96.9,203.4z M286.8,188.5
		c0.6,0.2,0.8-0.3,0.8-0.3l6.6-16.7c0-0.3-0.5-0.4-0.5-0.4l0.2-0.4l17.7,7c7.1,3.3,4.3,8.4,4.3,8.4c-2.1,4.2-8.2,3.2-8.2,3.2
		l2.9,8.3c0.3,0.1,0.4,0.4,0.4,0.4l-0.1,0.2l-8.2-3.1l0.1-0.3c0.7,0.2,1-0.5,1-0.5c-0.2-0.6-2.9-7.8-2.9-7.8l-4.4-1.7l-2.3,6
		c-0.3,0.6,0.3,0.8,0.3,0.8l-0.2,0.4l-7.6-3L286.8,188.5z M253.5,178.9c0.6,0.2,0.7-0.4,0.7-0.4l4.3-17.5c0-0.3-0.5-0.4-0.5-0.4
		l0.1-0.4l21.7,5.2c0,0,1,0.4,1.3-0.5l0.3,0l-1.4,5.9l-0.2-0.1c0,0,0-0.7-0.5-1.1l-14.9-3.5l-0.8,3.2l8.9,2.1c0,0,0.9,0.2,1.3-0.5
		l0.4,0l-1.3,5.3l-0.3-0.1c0,0,0-0.4-0.4-0.8l-9.4-2.3l-0.8,3.6l14.7,3.4c0,0,0.6,0.2,1-0.7l0.3,0.1l-1.4,5.9l-0.3-0.1
		c0,0-0.3-0.9-0.8-0.9l-22-5.3L253.5,178.9z M216.7,155.3l9.1,0.7l-0.1,0.5c-0.3,0-0.6,0.1-0.5,0.4c0,0.3,0.1,0.5,1.1,2.4l4.5,9.4
		l6.6-9.4c0.3-0.5,0.6-0.8,0.6-1.2c0-0.3,0-0.5-0.3-0.5l0.1-0.5l7.7,0.7l0,0.5c-0.7,0-0.9,0.3-1.4,1.1l-9.8,15.4
		c-0.2,0.3-0.4,0.5-0.4,0.9c0,0.4,0.1,0.4,0.3,0.5l0,0.4l-8.8-0.9l0.1-0.4c0.5,0,0.2-0.6,0.2-0.6l-0.2-0.7l-7.2-16.7
		c-0.3-1-0.5-1.1-1.3-1.4L216.7,155.3z M187.1,155.5v0.4c0,0-0.8,0-0.6,0.5c0.2,0.4,0.5,0.8,0.5,0.8l11.4,9l-0.6-10.2
		c0,0-0.1-0.6-0.7-0.5l0-0.4l7.7-0.3l0,0.4c-0.6,0-0.6,0.6-0.6,0.6l0.8,17.7c0.1,0.3,0.7,0.2,0.7,0.2l0.1,0.4l-7.9,0.6l0-0.3
		c0,0,0.7,0,0.6-0.5c-0.1-0.4-0.5-0.8-0.5-0.8l0.4,0.2l-14.1-10.9l0.7,11.9c0,0,0.1,0.6,0.7,0.5l0,0.4l-7.5,0.3l-0.1-0.4
		c0.6,0,0.7-0.6,0.7-0.6l-0.8-17.7c-0.1-0.3-0.7-0.2-0.7-0.2l-0.1-0.4L187.1,155.5z M159.9,158.1c0,0,1.1,0,1-1l0.3-0.1l1.3,5.9
		l-0.2,0.1c0,0-0.3-0.6-0.9-0.8l-15,3.3l0.7,3.2l8.9-2c0,0,0.9-0.3,1-1l0.4-0.1l1.1,5.4L158,171c0,0-0.2-0.4-0.7-0.5l-9.4,2l0.8,3.6
		l14.8-3.2c0,0,0.6-0.1,0.7-1.1l0.3-0.1l1.3,5.9l-0.3,0c0,0-0.7-0.7-1.1-0.5l-22.1,4.7l-0.1-0.4c0.6-0.1,0.5-0.7,0.5-0.7l-3.7-17.6
		c-0.2-0.3-0.6-0.1-0.6-0.1l-0.1-0.4L159.9,158.1z M115,169.9c11.6-2.7,13.5,5.1,13.5,5.1c2.8,8.8-6.2,12.8-6.2,12.8l-16,6.1
		l-0.2-0.4c0.6-0.2,0.5-0.8,0.5-0.8l-6-16.6c-0.2-0.2-0.8,0-0.8,0l-0.2-0.4L115,169.9z"/>
	<path fill="#4D90CD" d="M147.5,133.1l0.2-0.1l-0.3-0.4l-1.5-2.1l-0.2,0.1c-34.9,21.2-52.6,36.6-60,43.8l0.3,0.4
		c4.6-2.3,12.1-5.7,22.3-9.3v0c1.8-0.6,3.5-1.2,5.3-1.8c-1.8,0.5-3.5,1.1-5.1,1.6C111.5,162.7,147.5,133.1,147.5,133.1"/>
	<path fill="#4D90CD" d="M312.1,171.2c-2.8-1.1-5.6-2.2-8.4-3.2c2.9,1.1,5.9,2.3,8.8,3.6c5.5,2.4,11,4.9,16.1,7.5l0.3-0.4
		c-6.3-7-18.6-20.1-30.7-28.5c-0.1-0.1-19.8-15.2-29.9-20.6l-0.2-0.1l-1.8,2.3l-0.3,0.4L312.1,171.2z"/>
	<path fill="#FFFFFF" d="M100.6,176.1l6,16.6c0,0,0.2,0.6-0.5,0.8l0.2,0.4l16-6.1c0,0,9-4,6.2-12.8c0,0-1.9-7.8-13.5-5.1l-15.4,5.8
		l0.2,0.4C99.9,176.1,100.4,175.9,100.6,176.1 M114.7,174.6c6.3-1.8,7.6,2.9,7.6,2.9c1.7,5.3-3.5,7.3-3.5,7.3l-6.9,2.6l-3.8-10.3
		L114.7,174.6z"/>
	<path fill="#FFFFFF" d="M138.8,163.3l3.7,17.6c0,0,0.2,0.6-0.5,0.7l0.1,0.4l22.1-4.7c0.4-0.2,1.1,0.5,1.1,0.5l0.3,0l-1.3-5.9
		l-0.3,0.1c-0.1,1-0.7,1.1-0.7,1.1l-14.8,3.2l-0.8-3.6l9.4-2c0.6,0.1,0.7,0.5,0.7,0.5l0.3-0.1l-1.1-5.4l-0.4,0.1c0,0.8-1,1-1,1
		l-8.9,2l-0.7-3.2l15-3.3c0.6,0.2,0.9,0.8,0.9,0.8l0.2-0.1l-1.3-5.9l-0.3,0.1c0.1,1-1,1-1,1l-21.8,4.7l0.1,0.4
		C138.2,163.2,138.7,163,138.8,163.3"/>
	<path fill="#FFFFFF" d="M178,156.9l0.8,17.7c0,0,0,0.6-0.7,0.6l0.1,0.4l7.5-0.3l0-0.4c-0.6,0.1-0.7-0.5-0.7-0.5l-0.7-11.9
		l14.1,10.9l-0.4-0.2c0,0,0.4,0.4,0.5,0.8c0.2,0.5-0.6,0.5-0.6,0.5l0,0.3l7.9-0.6l-0.1-0.4c0,0-0.6,0.1-0.7-0.2l-0.8-17.7
		c0,0,0-0.6,0.6-0.6l0-0.4l-7.7,0.3l0,0.4c0.6-0.1,0.7,0.5,0.7,0.5l0.6,10.2l-11.4-9c0,0-0.4-0.4-0.5-0.8c-0.2-0.5,0.6-0.5,0.6-0.5
		v-0.4l-9.9,0.8l0.1,0.4C177.2,156.6,177.8,156.6,178,156.9"/>
	<path fill="#FFFFFF" d="M276.2,185.5l0.3,0.1l1.4-5.9l-0.3-0.1c-0.5,0.9-1,0.7-1,0.7l-14.7-3.4l0.8-3.6l9.4,2.3
		c0.4,0.4,0.4,0.8,0.4,0.8l0.3,0.1l1.3-5.3l-0.4,0c-0.4,0.7-1.3,0.5-1.3,0.5l-8.9-2.1l0.8-3.2l14.9,3.5c0.5,0.4,0.5,1.1,0.5,1.1
		l0.2,0.1l1.4-5.9l-0.3,0c-0.3,0.9-1.3,0.5-1.3,0.5l-21.7-5.2l-0.1,0.4c0,0,0.5,0.1,0.5,0.4l-4.3,17.5c0,0-0.1,0.6-0.7,0.4l-0.1,0.4
		l22,5.3C275.9,184.6,276.2,185.5,276.2,185.5"/>
	<path fill="#FFFFFF" d="M294.3,191.5c0,0-0.6-0.2-0.3-0.8l2.3-6l4.4,1.7c0,0,2.7,7.3,2.9,7.8c0,0-0.3,0.7-1,0.5l-0.1,0.3l8.2,3.1
		l0.1-0.2c0,0-0.1-0.2-0.4-0.4l-2.9-8.3c0,0,6.1,1.1,8.2-3.2c0,0,2.7-5.1-4.3-8.4l-17.7-7l-0.2,0.4c0,0,0.5,0.1,0.5,0.4l-6.6,16.7
		c0,0-0.2,0.6-0.8,0.3l-0.1,0.4l7.6,3L294.3,191.5z M299.3,177.2l7.3,2.8c3.5,1.2,2.6,3.2,2.6,3.2c-0.8,2.3-3.5,1-3.5,1l-8-3.2
		L299.3,177.2z"/>
	<path fill="#FFFFFF" d="M218,157.1l7.2,16.7l0.2,0.7c0,0,0.3,0.6-0.2,0.6l-0.1,0.5l8.8,0.9l0-0.4c-0.2,0-0.3-0.1-0.3-0.5
		c0-0.4,0.3-0.6,0.4-0.9l9.8-15.4c0.5-0.8,0.6-1.2,1.4-1.1l0-0.5l-7.7-0.7l-0.1,0.5c0.3,0,0.4,0.3,0.3,0.5c0,0.4-0.3,0.7-0.6,1.2
		l-6.6,9.4l-4.5-9.4c-1-1.8-1-2.1-1.1-2.4c0-0.3,0.2-0.5,0.5-0.4l0.1-0.5l-9.1-0.7l-0.1,0.4C217.5,156,217.7,156.1,218,157.1"/>
	<path fill="#FFFFFF" d="M74.7,218.1c0.2-7.5,3.3-7.9,3.3-7.9l0.6-0.1c0,0,0-0.6,0-0.6v-19.7v-0.7v0H78H56.9h-0.7v0.7V209v0.5
		l0.4,0.2c3.8,1.5,3.6,8.5,3.6,8.5c0,0,0.1,24.5,0.1,36.7L47,189.6l-0.1-0.5h-0.5H27.2h-0.6h0v0.7l-0.1,19.3v0.4l0.4,0.2
		c3.9,1.9,3.7,9.5,3.7,9.6c0,0,0.1,70.9,0.1,70.9c0.1,6.1-3.5,8.2-3.7,8.3l-0.3,0.2v0.4l0,19.3v0.7h0.7h22h0l0.6,0l0-0.7V299v-0.4
		l-0.4-0.2c-4.2-2.2-4.8-8.3-4.8-8.4c0,0,0-22.9,0-34.6l12.5,61.1l0.4,1.9l0.1,0.5h0.6h15.1H74l0.7,0l0-0.6L74.7,218.1z M73.4,218.1
		c0,0-0.1,90.9-0.1,99.5H58.8l-14-68.9l-1.3,0.1v41.3c0,0.3,0.7,6.7,5.2,9.3v18.2H27.9l0-18.2c1-0.7,4.1-3.4,4-9.3
		c0,0-0.1-70.8-0.1-70.8c0-0.3,0.2-8-4.1-10.6l0.1-18.3h17.9l14.6,71.2l1.3-0.1l-0.1-43.3c0-0.3,0.2-7.4-4-9.6v-18.1h19.8V209
		C76.1,209.4,73.6,211.1,73.4,218.1"/>
	<path fill="#FFFFFF" d="M224.5,301.7v-0.1V249v-0.7h-0.7h-21.6h-0.7v0.7v15.2v0.7h0.7h2.5v18.6c0.1,1.6,0.1,5.8-1.5,7.5
		c-0.4,0.5-1,0.7-1.6,0.7c0,0-0.6,0-1.3-0.6c-0.8-0.9-1.7-2.8-1.5-7.4v-64.8c-0.1-1.4,0.1-5.1,1.5-6.6c0.4-0.4,0.9-0.6,1.4-0.6
		c0,0,0.6,0,1.3,0.7c0.7,0.7,1.5,2.3,1.5,5.8v20v0.7h0.7H224h0.7v-0.7V193v-1l-1,0.4l-3.5,1.6c-1.6-1.9-8.3-9.4-17.8-9.4
		c-0.3,0-9.3-0.5-16.1,5.7c-4.5,4.1-7,10-7.4,17.7v86.5c0,0.3-0.2,5.2,1.9,10.6c0.9,2.3,2.2,4.7,4.2,6.9c4.1,4.4,9.9,6.8,17.3,7.1
		c0.1,0,9.5,0.1,17.2-9.1c1.8-2.2,3.5-4.9,5-8.2L224.5,301.7z M223.2,301.4c-7.4,16.5-20.7,16.4-20.9,16.4
		c-7.1-0.2-12.6-2.5-16.4-6.6c-6.2-6.8-5.7-16.5-5.7-16.6V208c0.4-7.3,2.7-12.9,6.9-16.8c6.4-5.8,15.1-5.4,15.2-5.4
		c10,0,17.1,9.2,17.1,9.3l0.3,0.4l0.5-0.2l3.1-1.4v43.4H206v-19.3c0-3.2-0.6-5.5-1.9-6.8c-1-1-2.1-1-2.2-1c-0.9,0-1.8,0.3-2.4,1
		c-2.1,2.2-1.9,7.4-1.9,7.6v64.7c-0.2,4.1,0.4,6.9,1.9,8.4c1,1,2.1,1,2.2,1c1,0,1.9-0.4,2.5-1.2c2.2-2.5,1.8-8.3,1.8-8.5
		c0,0.1,0-19.2,0-19.2v-0.7h-0.7h-2.5v-13.8h20.3V301.4z"/>
	<path fill="#FFFFFF" d="M254.2,272.6l0,0.7c0.4,15.1-2.1,19.4-3.6,20.6c-0.4,0.3-0.7,0.4-0.9,0.5v-29.5h9.8h0.7v-0.7v-15.3v-0.7
		h-0.7h-9.8v-33.1c3.6,1.7,4.8,14.7,4.6,23l0,0.7h0.7h13.7h0.7v-0.7v-43.1v-0.5l-0.5-0.2c-20.1-6.6-41-7.8-41.2-7.8l-0.7,0v0.7v20.3
		v0.4l0.3,0.2c3,2,3,6.4,3,6.4v74.7c0.5,7.7-2.6,8.6-2.6,8.6l-0.5,0.1c0,0,0,21,0,21l10.1,0l32.4,0v-11v-35.4H254.2z M268.3,317.6
		h-39.8v-18.7c1.1-0.6,3.6-2.7,3.1-9.8v-74.6c0-0.2-0.1-4.8-3.3-7.3v-19.3c3.8,0.3,22,1.8,39.7,7.5v42h-12.4
		c0-4.4-0.2-23.5-6.6-23.9l-0.7,0v0.7v34.7v0.7h0.7h9.8v13.9H249h-0.7v0.7V295v0.5l0.5,0.1c0.1,0,1.2,0.3,2.5-0.6
		c2.1-1.6,4.5-6.6,4.2-21.1h12.8V317.6z"/>
	<path fill="#FFFFFF" d="M313.2,297.9c-4.9-1.9-4.6-11-4.6-11.1v-59.3c1.5,1.6,2.8,6.8,3.2,10.5l0.1,0.6h0.6h11.4h0.7V238v-19.8
		v-0.4l-0.3-0.2c-26.8-15.4-50.2-21.8-50.5-21.9l-0.9-0.2v0.9v41.7v0.7h0.7h12h0.6l0-0.7c0.5-11.5,2.3-14,3.1-14.5c0,0,0,0,0,0v63.3
		c0.1,9.3-4.3,11-4.5,11.1l-0.4,0.2c0,0,0,20.8,0,20.8l6.7,0l22.5,0v-10.4V298L313.2,297.9z M312.3,317.6h-26.5V299
		c1.3-0.7,5-3.4,4.9-12.2v-64v-0.4l-0.4-0.2c-0.1,0-0.7-0.3-1.6,0.1c-2.1,1.2-3.4,6.3-3.8,15h-10.7v-40.2c4.4,1.3,25.4,7.8,49,21.3
		v18.7H313c-0.4-2.8-1.8-11-5-11.6l-0.8-0.1v0.8v60.4c0,0.4-0.2,9.5,5.1,12.1V317.6z"/>
	<path fill="#FFC627" d="M77.3,209v-18.5H57.6v18.1c4.3,2.2,4.1,9.3,4,9.6l0.1,43.3l-1.3,0.1l-14.6-71.2H27.9l-0.1,18.3
		c4.3,2.5,4.1,10.3,4,10.6c0,0,0.1,70.8,0.1,70.8c0.1,5.9-3,8.5-4,9.3l0,18.2h20.7v-18.2c-4.5-2.6-5.1-9-5.2-9.3v-41.3l1.3-0.1
		l14,68.9h14.5c0-8.7,0.1-99.5,0.1-99.5C73.6,211.1,76.1,209.4,77.3,209"/>
	<path fill="#FFC627" d="M202.9,263.5h2.5h0.7v0.7c0,0,0,19.3,0,19.2c0,0.2,0.5,6-1.8,8.5c-0.7,0.8-1.6,1.2-2.6,1.2
		c-0.1,0-1.2,0-2.2-1c-1.5-1.5-2.1-4.3-1.9-8.4V219c0-0.2-0.3-5.4,1.9-7.6c0.7-0.7,1.5-1.1,2.4-1c0.1,0,1.2,0,2.2,1
		c1.3,1.3,1.9,3.6,1.9,6.8v19.3h17.3V194l-3.1,1.4l-0.5,0.2l-0.3-0.4c-0.1-0.1-7.2-9.3-17.1-9.3c-0.1,0-8.8-0.4-15.2,5.4
		c-4.2,3.8-6.5,9.5-6.9,16.8v86.5c0,0.1-0.5,9.8,5.7,16.6c3.8,4.2,9.3,6.4,16.4,6.6c0.1,0,13.5,0.1,20.9-16.4v-51.7h-20.3V263.5z"/>
	<path fill="#FFC627" d="M251.3,295c-1.3,1-2.4,0.7-2.5,0.6l-0.5-0.1V295v-30.8v-0.7h0.7h9.8v-13.9H249h-0.7v-0.7v-34.7v-0.7l0.7,0
		c6.4,0.3,6.6,19.4,6.6,23.9H268v-42c-17.7-5.8-35.9-7.3-39.7-7.5v19.3c3.3,2.5,3.3,7.1,3.3,7.3v74.6c0.5,7.1-2,9.2-3.1,9.8v18.8
		h39.8v-43.7h-12.8C255.8,288.4,253.4,293.4,251.3,295"/>
	<path fill="#FFC627" d="M307.2,286.8v-60.4v-0.8l0.8,0.1c3.3,0.6,4.6,8.8,5,11.6h10.2v-18.7c-23.6-13.6-44.6-20.1-49-21.3v40.2
		h10.7c0.4-8.8,1.7-13.8,3.8-15c0.9-0.5,1.5-0.2,1.6-0.1l0.4,0.2v0.4v64.1c0.1,8.7-3.6,11.5-4.9,12.2v18.6h26.5v-18.7
		C307,296.3,307.2,287.2,307.2,286.8"/>
	<path fill="#041E41" d="M327.9,276.9v-0.7h0.7H346h0.7v0.7c0,0,0,10.9,0,10.9c0,0-0.1,4.3,1.8,6.2c0.6,0.6,1.3,0.9,2.2,0.8h0l0,0
		c0,0,0.9,0,1.8-0.8c1.2-1,1.9-3.1,2-6c0,0,0-11.3,0-11.4c0-0.1,0.5-7.1-3.9-9.7c0,0-14.7-10.3-14.6-10.3c-0.3-0.2-8.5-5.5-8.8-20.1
		V212c0-0.2-0.5-19,18.3-23.1c1.1-0.2,2.3-0.4,3.6-0.6c0,0,0.1,0,0.1,0c-3,0-12.8,0.6-18.9,0.6l-13.3,20.9l-1.2-0.7
		c-0.4-0.3-43.5-25.2-106.8-28c-2.5-0.1-60.7-1.6-112.1,24.8l-1.1,0.6c0,0-0.7-1.1-0.7-1.1c0,0-0.2-0.3-0.5-0.8c0,0-0.1-0.1-0.1-0.1
		c-1.6-2.5-5.9-9.4-9.6-15.3h-6.2v0.7v19.7c0,0,0,0.6,0,0.6l-0.6,0.1c0,0-3.1,0.4-3.3,7.9l-0.1,100.2l0,0.6c0,0,10.3-5.8,13.2-7.5
		c-6.3-8.5-5.3-20.8-5.3-21.3v-46.5c0-1.6-0.4-2.8-1-3.3c-0.7-0.5-1.7-0.2-1.7-0.2l-0.9,0.3v-0.9v-19.2v-0.3l0.3-0.2
		c8.3-5.9,22.7-12.1,22.9-12.2l0.9-0.4v1v19.1v0.3l-0.2,0.2c-1.2,1.2-1.5,6.8-1.3,10v46.4c-0.2,4.9,0.9,6.6,1.6,7.2
		c0.6,0.5,1.1,0.4,1.1,0.4l0.1,0l0.1,0c0.3,0,0.5-0.1,0.7-0.3c1.3-1.3,1.5-5.6,1.5-7.2c0,0,0.1-53.8,0.1-53.9c0-2.1-0.4-2.9-0.7-3.2
		c-0.3-0.2-0.5-0.2-0.5-0.2l-0.8,0.2v-0.8v-19.6v-0.4l0.4-0.2c15.2-7.2,23.5-9.2,23.6-9.2l0.8-0.2v0.9v20.1v0.4l-0.3,0.2
		c-3.8,2.3-3.5,8.2-3.5,8.3v64.9c0.3,9.4-2,16.7-6.8,21.5c-0.2,0.2-0.4,0.4-0.6,0.6c-0.4,0.4-0.8,0.7-1.2,1c2.5-1.5,13-8.2,15.2-9.7
		c-1.9-5.1-1.8-9.6-1.8-9.9v-79.9c1.3-24.4,22.8-24.7,23-24.7c10-0.4,16.6,7,18.1,8.9l2.8-1.3l1-0.4v1v39.4v0.7h-0.7h-18.3h-0.7
		v-0.7v-14.2c0-3.4-0.7-4.9-1.4-5.6c-0.6-0.6-1.2-0.6-1.2-0.6c-0.6,0-1,0.2-1.4,0.6c-1.4,1.5-1.5,5.2-1.5,6.5v59.1
		c-0.3,4.5,0.6,6.4,1.4,7.2c0.6,0.6,1.2,0.6,1.2,0.6c0.6,0,1.1-0.2,1.6-0.7c1.5-1.7,1.5-5.9,1.4-7.4v-18.6h-2.5h-0.7v-0.7v-15.2
		v-0.7h0.7h21.2h0.7v0.7v52.7v0.1l-0.1,0.1c-0.3,0.7-0.6,1.4-1,2.1c-0.1,0.1-0.1,0.2-0.2,0.3c-0.2,0.5-0.5,0.9-0.8,1.4
		c-0.2,0.4-0.5,0.8-0.8,1.2c0,0,0,0.1-0.1,0.1c-1.9,2.9-3.9,5.1-6,6.8c2.7-1.6,12.1-7.5,14.2-8.8c-2.1-5.4-1.9-10.4-1.9-10.6V208
		c0.4-7.7,2.8-13.7,7.4-17.7c6.8-6.2,15.8-5.7,16.1-5.7c9.5,0,16.3,7.5,17.8,9.4l3.5-1.6l0.9-0.4v1v45.1v0.7H224h-18.6h-0.7v-0.7
		v-20c0-3.5-0.8-5.1-1.5-5.8c-0.6-0.6-1.2-0.7-1.3-0.7c-0.6,0-1,0.2-1.4,0.6c-1.4,1.5-1.6,5.3-1.5,6.6v64.8
		c-0.3,4.6,0.6,6.5,1.4,7.4c0.6,0.6,1.2,0.6,1.3,0.6c0.6,0,1.2-0.2,1.6-0.7c1.5-1.7,1.6-6,1.5-7.5v-18.6h-2.5h-0.7v-0.7V249v-0.7
		h0.7h21.6h0.7v0.7v52.5v0.1l-0.1,0.1c-1.5,3.3-3.2,6-5,8.2c1.4,1.7,7.7,9,7.7,9s0-21,0-21l0.5-0.1c0,0,3.2-0.9,2.6-8.6v-74.7
		c0,0,0-4.4-3-6.4l-0.3-0.2v-0.4v-20.3v-0.7l0.7,0c0.2,0,21.1,1.2,41.2,7.8l0.5,0.2v0.5v43.1v0.7h-0.7h-13.7h-0.7l0-0.7
		c0.1-8.3-1-21.3-4.6-23v33.1h9.8h0.7v0.7v15.3v0.7h-0.7h-9.8v29.5c0.2,0,0.5-0.2,0.9-0.5c1.5-1.2,4-5.5,3.6-20.6l0-0.7h15.5v35.4
		c2.7,2.1,14.7,11,14.7,11s0-20.8,0-20.8l0.4-0.2c0.2-0.1,4.6-1.8,4.5-11.1v-63.3c0,0,0,0,0,0c-0.8,0.5-2.6,3-3.1,14.5l0,0.7h-0.6
		h-12h-0.7v-0.7v-41.7v-0.9l0.9,0.2c0.2,0.1,23.7,6.5,50.5,21.9l0.3,0.2v0.4V238v0.7h-0.7h-11.4h-0.6l-0.1-0.6
		c-0.4-3.7-1.7-8.9-3.2-10.5v59.3c0,0.1-0.2,9.1,4.6,11.1l0.4,0.2v10.5c2.5,1.4,14.4,7.6,14.4,7.6l0-1.4V276.9z"/>
	<path fill="#041E41" d="M60.4,254.8c0-12.2-0.1-36.7-0.1-36.7c0-0.1,0.2-7-3.6-8.5l-0.4-0.2V209v-19.2v-0.7l-9.4,0l0.1,0.5
		L60.4,254.8z"/>
	<path fill="#041E41" d="M46.8,189.1h-0.5H46.8z"/>
	<path fill="#FFFFFF" d="M350.5,188.1c-0.5,0-1,0.1-1.4,0.1c-1.3,0.1-2.4,0.3-3.6,0.6c-18.8,4.1-18.3,22.9-18.3,23.1v24.7
		c0.3,14.5,8.5,19.8,8.8,20.1c0,0,14.6,10.3,14.6,10.3c4.4,2.6,3.9,9.6,3.9,9.7c0,0.1,0,11.4,0,11.4c-0.1,2.8-0.8,4.9-2,6
		c-0.9,0.8-1.8,0.8-1.8,0.8l0,0h0c-0.9,0-1.6-0.3-2.2-0.8c-1.9-1.9-1.8-6.2-1.8-6.2c0,0,0-10.9,0-10.9v-0.7H346h-17.4h-0.7v0.7v38
		l0,1.4l0.3-0.3l0.7-0.6l4.2-3.5c7.8,7.6,16.6,7.2,17,7.2c7.6,0.1,13.5-2,17.7-6.1c5.9-5.8,5.9-13.6,5.9-14v-25.9
		c0.2-13.5-7.7-19.8-8-20c-9.4-6.8-15.8-11.3-15.9-11.3c-1.4-0.9-2.1-2.6-2.4-4.2c-0.2-0.9-0.3-1.9-0.4-2.6c0-0.1,0-0.1,0-0.2
		c0-0.4,0-0.7,0-1v-0.1c0-0.2,0-0.3,0-0.4v0c0-0.1,0-0.1,0-0.1v-0.1v-14.1c0.1-6.6,3.5-6.7,3.6-6.7c1.1,0,2,0.3,2.7,1
		c1.7,1.7,1.6,5,1.6,5v18.9l0.1,0.7h0.6l5.3,0l12.3,0h0.7v-0.7V194v-0.9l-0.9,0.3l-4,1.4C361.9,187.7,351,188.1,350.5,188.1
		 M372.4,195v41.6l-16.2,0v-18.2c0-0.1,0.1-3.9-2-6c-0.9-1-2.2-1.4-3.6-1.4c-0.2,0-4.9,0-5,8v14.1c0,0.3-0.4,7.3,3.4,9.8
		c0,0,6.5,4.5,15.8,11.3c0.1,0,7.7,6.1,7.5,18.9V299c0,0.1,0,7.6-5.5,13c-3.9,3.9-9.5,5.8-16.8,5.7c-0.1,0-8.9,0.5-16.4-7.2
		l-0.4-0.4l-0.5,0.4l-3.6,2.9v-35.9h16.1c0,2.4,0,10.2,0,10.2c0,0.2-0.1,4.9,2.2,7.2c0.9,0.9,1.9,1.3,3.2,1.2h-0.1
		c0.1,0,1.4,0.1,2.8-1c1.5-1.3,2.4-3.7,2.5-7v-11.3c0-0.3,0.6-7.9-4.5-10.9c0.1,0-14.6-10.3-14.6-10.3c-0.1-0.1-7.9-5.2-8.2-19
		v-24.7c0-0.9-0.6-20.9,22-22.4c0.1,0,11.1-0.4,17.5,6.5l0.3,0.3l0.4-0.1L372.4,195z"/>
	<path fill="#FFC627" d="M368.1,196c-6.4-6.9-17.4-6.5-17.5-6.5c-22.5,1.6-22,21.6-22,22.4v24.7c0.3,13.8,8.1,18.9,8.2,19
		c0,0,14.7,10.3,14.6,10.3c5.1,3,4.5,10.6,4.5,10.9v11.3c-0.1,3.3-1,5.7-2.5,7c-1.3,1.2-2.7,1-2.8,1h0.1c-1.2,0-2.3-0.4-3.2-1.2
		c-2.3-2.3-2.2-7-2.2-7.2c0,0,0-7.8,0-10.2h-16.1v35.9l3.6-2.9l0.5-0.4l0.4,0.4c7.5,7.6,16.3,7.2,16.4,7.2
		c7.2,0.1,12.9-1.9,16.8-5.7c5.5-5.4,5.5-12.9,5.5-13v-25.9c0.2-12.8-7.4-18.9-7.5-18.9c-9.4-6.8-15.8-11.3-15.8-11.3
		c-3.8-2.5-3.5-9.5-3.4-9.8v-14.1c0.1-8,4.8-8,5-8c1.5,0,2.7,0.4,3.6,1.4c2.1,2.1,2,5.9,2,6v18.2l16.2,0V195l-3.6,1.2l-0.4,0.1
		L368.1,196z"/>
	<path fill="#FFFFFF" d="M172.5,307.2c0,0,0-0.1,0.1-0.1c0.3-0.4,0.5-0.8,0.8-1.2c0.3-0.5,0.5-0.9,0.8-1.4c0-0.1,0.1-0.2,0.2-0.3
		c0.3-0.7,0.7-1.3,1-2.1l0.1-0.1v-0.1v-52.7v-0.7h-0.7h-21.2h-0.7v0.7v15.2v0.7h0.7h2.5v18.6c0.1,1.5,0.1,5.7-1.4,7.4
		c-0.4,0.5-0.9,0.7-1.6,0.7c0,0-0.6,0-1.2-0.6c-0.8-0.8-1.7-2.8-1.4-7.2v-59.1c-0.1-1.3,0.1-5,1.5-6.5c0.4-0.4,0.8-0.6,1.4-0.6
		c0,0,0.6,0,1.2,0.6c0.7,0.7,1.5,2.2,1.4,5.6v14.2v0.7h0.7h18.3h0.7v-0.7v-39.4v-1l-1,0.4l-2.8,1.3c-1.5-1.9-8.1-9.3-18.1-8.9
		c-0.2,0-21.6,0.3-23,24.7V295c0,0.3-0.1,4.8,1.8,9.9c1,2.7,2.5,5.5,4.9,8c4,4.1,9.5,6.2,16.4,6.2c0.1,0,6.1,0.2,12.3-4.5
		c0.2-0.2,0.5-0.4,0.7-0.6C168.6,312.3,170.7,310.1,172.5,307.2 M153.5,317.7c-6.5,0-11.7-2-15.4-5.8c-6.5-6.7-6.3-16.9-6.3-17
		v-79.8c1.3-23.1,20.8-23.4,21.7-23.4c10.5-0.4,17.3,8.7,17.3,8.8l0.3,0.4l0.5-0.2l2.4-1.1v37.7h-16.9v-13.5
		c0.1-3.1-0.6-5.4-1.9-6.7c-1-1-2.1-1-2.2-1c-0.9,0-1.7,0.3-2.4,1c-2.1,2.2-1.8,7.2-1.8,7.4v59c-0.2,4,0.4,6.8,1.9,8.3
		c1,1,2.1,1,2.2,1c1,0,1.8-0.4,2.5-1.2c2.2-2.5,1.8-8.1,1.8-8.3v-19.2v-0.7h-0.7h-2.5v-13.8h19.9v51.9
		C166.7,318.2,154.1,317.8,153.5,317.7"/>
	<path fill="#FFC627" d="M173.9,301.7v-51.9h-19.9v13.8h2.5h0.7v0.7v19.2c0,0.2,0.5,5.9-1.8,8.3c-0.7,0.7-1.5,1.1-2.5,1.2
		c-0.1,0-1.2,0-2.2-1c-1.5-1.5-2.1-4.3-1.9-8.3v-59c0-0.2-0.2-5.3,1.8-7.4c0.6-0.7,1.4-1,2.4-1c0.1,0,1.2,0,2.2,1
		c1.3,1.3,1.9,3.5,1.9,6.7v13.5H174v-37.7l-2.4,1.1l-0.5,0.2l-0.3-0.4c-0.1-0.1-6.8-9.2-17.3-8.8c-0.8,0-20.4,0.3-21.7,23.4V295
		c0,0.1-0.2,10.3,6.3,17c3.7,3.8,8.9,5.8,15.4,5.8C154.1,317.8,166.7,318.2,173.9,301.7"/>
	<path fill="#FFFFFF" d="M118.9,313c4.8-4.9,7.1-12.1,6.8-21.6v-64.9c0-0.1-0.3-6,3.5-8.3l0.3-0.2v-0.4v-20.1v-0.9l-0.8,0.2
		c-0.1,0-8.3,2-23.6,9.2l-0.4,0.2v0.4v19.6v0.8l0.8-0.2c0,0,0.2,0,0.5,0.2c0.3,0.3,0.8,1,0.7,3.2c0,0-0.1,53.9-0.1,53.9
		c0,1.6-0.2,6-1.5,7.2c-0.2,0.2-0.5,0.3-0.7,0.3l-0.1,0l-0.1,0c0,0-0.6,0.1-1.1-0.4c-0.7-0.6-1.7-2.3-1.6-7.2v-46.4
		c-0.2-3.2,0.1-8.8,1.3-10l0.2-0.2v-0.3v-19.1v-1l-0.9,0.4c-0.1,0.1-14.6,6.3-22.9,12.2l-0.3,0.2v0.3v19.2v0.9l0.9-0.3
		c0,0,1-0.3,1.7,0.2c0.7,0.5,1,1.6,1,3.3v46.5c0,0.5-1,12.8,5.3,21.3c0.4,0.5,0.8,1,1.3,1.5c3.7,4.1,8.8,6.2,15.2,6.2
		c0.3,0,5.1,0,10.1-2.8c0.9-0.5,1.7-1.1,2.6-1.8c0.4-0.3,0.8-0.6,1.2-1C118.4,313.4,118.7,313.2,118.9,313 M104.4,317.8
		c-6,0-10.8-2-14.3-5.8c-7.3-8-6.2-21.8-6.2-21.9v-46.5c0-2.1-0.5-3.6-1.6-4.4c-0.7-0.5-1.5-0.6-2-0.6v-18.1
		c7-4.9,18.1-10,21.4-11.5V227c-1.8,2.4-1.5,9.9-1.5,10.8v46.3c-0.1,4.2,0.6,7,2.1,8.3c1,0.8,2,0.7,2.2,0.7c0.6,0,1.2-0.2,1.6-0.7
		c2-1.9,1.9-7.6,1.9-8.2c0,0,0.1-53.8,0.1-53.8c0-2.1-0.4-3.5-1.2-4.2c-0.3-0.2-0.5-0.4-0.8-0.4v-18.6c12.2-5.7,19.7-8.1,22.1-8.7
		v18.9c-4.2,2.8-3.9,9-3.8,9.3v64.8c0.3,9.1-1.9,16-6.4,20.6C112.2,317.9,104.5,317.8,104.4,317.8"/>
	<path fill="#FFC627" d="M124.3,291.4v-64.8c0-0.3-0.4-6.5,3.8-9.3v-18.9c-2.4,0.7-9.9,3-22.1,8.7v18.6c0.2,0.1,0.5,0.2,0.8,0.4
		c0.9,0.7,1.3,2.2,1.2,4.2c0,0-0.1,53.9-0.1,53.8c0,0.6,0.1,6.3-1.9,8.2c-0.5,0.4-1,0.7-1.6,0.7c-0.2,0-1.2,0.1-2.2-0.7
		c-1.5-1.3-2.2-4.1-2.1-8.2v-46.3c0-0.9-0.3-8.4,1.5-10.8v-17.8c-3.3,1.4-14.4,6.5-21.4,11.5v18.1c0.6,0,1.3,0.1,2,0.6
		c1.1,0.8,1.6,2.2,1.6,4.4v46.5c0,0.1-1.1,13.9,6.2,21.9c3.4,3.8,8.2,5.7,14.3,5.8c0.1,0,7.8,0,13.5-5.8
		C122.4,307.4,124.6,300.5,124.3,291.4"/>
	<path fill="#041E41" d="M149,131.2l-1.6,1.3l0.3,0.4l-0.2,0.1c0,0-36,29.6-39,32.1c1.7-0.5,3.3-1.1,5.1-1.6
		c13.4-4.4,27.6-7.9,42.5-10.4c7.6-1.3,15.4-2.3,23-3c7.2-0.7,14.5-1.1,21.8-1.3c0.5,0,47.1-2.4,102.8,19.2c2.8,1,5.6,2.1,8.4,3.2
		l-45.9-39l0.3-0.4l-1.6-1.3v0l-0.2-0.2l-56.5-48l-59.1,48.7L149,131.2z M208.4,88.1l50.9,43v0l3.1,2.6l-6.1-2.6h0l-26.6-11.1v11.3
		v0v3.1l-3.2-3.1v0l-9.8-9.6l-3.5,9.7l0,0l-3.8,10.5l-4.6-10.4v0l-4.6-10.5l-11.1,9.2l-3.5-11.3l-29.3,11.7L208.4,88.1z"/>
	<polygon fill="#FFFFFF" points="189.1,130.3 200.2,121.1 204.8,131.6 204.8,131.6 209.4,142 213.2,131.5 213.2,131.5 216.7,121.8 
		226.4,131.4 226.4,131.4 229.6,134.5 229.6,131.4 229.6,131.4 229.6,120.1 256.2,131.1 256.2,131.1 262.4,133.7 259.3,131.1 
		259.3,131.1 208.4,88.1 156.2,130.7 185.6,118.9 	"/>
</g>
</svg>
