<?xml version="1.0" encoding="utf-8"?>
<!-- Generator: Adobe Illustrator 16.2.1, SVG Export Plug-In . SVG Version: 6.00 Build 0)  -->
<!DOCTYPE svg PUBLIC "-//W3C//DTD SVG 1.1//EN" "http://www.w3.org/Graphics/SVG/1.1/DTD/svg11.dtd">
<svg version="1.1" id="Layer_2" xmlns="http://www.w3.org/2000/svg" xmlns:xlink="http://www.w3.org/1999/xlink" x="0px" y="0px"
	 width="400px" height="400px" viewBox="0 0 400 400" enable-background="new 0 0 400 400" xml:space="preserve">
<path fill="#ED174C" d="M161.461,228.266c0,11.165-6.724,17.706-19.97,19.438l-0.187,0.014c-8.676,0.8-15.742,1.57-22.917,2.489
	l-4.288,0.529l-0.103-18.629l-0.084-2.852v-0.005c3.686-0.44,6.226-0.749,8.084-0.974c2.461-0.335,4.897-0.637,7.356-0.928v-0.01
	c-0.019-3.3-0.064-12.801-0.079-16.02c-4.959-1-12.397-3.34-15.98-11.305c-0.074-0.173-0.14-0.357-0.208-0.536v44.469
	c-0.073,0.006-0.148,0.021-0.226,0.03v6.829l-2.986,0.431c-5.995,0.849-12.241,1.82-19.316,2.996
	c19.108,13.51,49.574,26.765,96.88,29.438c0.732-12.159-4.576-24.966-12.927-38.291l-0.821,0.01v-1.307
	c-3.618-5.656-7.767-11.401-12.22-17.23L161.461,228.266z"/>
<path fill="#ED174C" d="M84.349,172.499c1.581-0.275,3.079-0.532,4.541-0.78v-0.328c7.037-1.252,13.8-2.396,20.798-3.428
	c1.144-0.188,2.293-0.337,3.399-0.518v9.541c0.771-2.825,2.252-5.233,4.318-7.15c-12.315-18.25-22.127-37.607-24.643-57.988
	c-15.874,18.551-26.367,41.045-30.647,64.922c0.294-0.068,0.597-0.131,0.891-0.194c1.312-0.298,3.384-0.747,4.396-0.965
	c0.269-0.061,0.472-0.108,0.561-0.123c0.402-0.085,0.793-0.173,1.198-0.266c0.014,0,0.062,0,0.113-0.01
	c0.059-0.005,0.114-0.022,0.084-0.022c0.014,0,0.033,0.004,0.048,0.009c0.239-0.035,0.589-0.09,0.712-0.1
	c4.864-0.474,8.016,0.133,10.06,1.892h0.005c0.142,0.127,0.281,0.258,0.415,0.398c0.02,0.017,0.038,0.036,0.055,0.052
	c0.121,0.126,0.234,0.26,0.348,0.396c0.028,0.035,0.056,0.063,0.081,0.091c0.134,0.172,0.266,0.34,0.384,0.529v-5.458
	L84.349,172.499z"/>
<path fill="#ED174C" d="M65.461,228.425c0,0-0.195,0.044-0.515,0.108c3.039,4.651,8.286,11.422,16.618,18.658
	c-0.065-9.801-0.089-19.547-0.092-29.17C78.299,223.178,72.839,226.804,65.461,228.425"/>
<path fill="#ED174C" d="M81.615,254.652c-7.404-5.943-12.814-11.788-16.672-16.75c6.029,21.723,17.389,41.732,33.471,58.416
	c9.17,9.513,19.503,17.512,30.655,23.903c18.699,3.144,33.281,1.067,43.31-6.266c7.587-5.555,12.386-13.975,14.356-24.993
	c-52.447-2.88-84.703-18.328-103.986-33.415l-1.127,0.195L81.615,254.652z"/>
<path fill="#ED174C" d="M313.528,254.277c-2.115-0.383-4.276-0.763-6.519-1.152l-3.918-0.701l-4.023-0.645
	c-7.583-1.213-15.381-2.3-23.834-3.341l-0.926-0.108c-4.172,10.679-7.448,20.816-9.405,29.652
	C286.688,272.64,302.543,264.165,313.528,254.277"/>
<path fill="#ED174C" d="M310.04,170.73c7.48,1.287,14.681,2.676,22.123,4.235c-3.936-20.388-12.407-39.218-24.332-55.379
	c4.232,14.69,5.782,31.642,0.991,51.073c0.391,0.071,0.796,0.144,1.218,0.218V170.73z"/>
<path fill="#ED174C" d="M129.812,165.476c0.002,0.028,0.01,0.068,0.018,0.131C129.825,165.574,129.818,165.521,129.812,165.476"/>
<path fill="#ED174C" d="M218.101,151.782c-0.072-0.01-0.147-0.025-0.223-0.04h-0.11c-4.059-0.537-6.142-2.2-7.225-3.832
	c0,0.295-0.037,1.491-0.037,1.491c-0.011,0.547-0.021,1.099-0.037,1.643c-5.292,0.002-10.577-0.024-15.863-0.077
	c0.136-9.491,0.268-18.984,0.406-28.474c-0.125,0.11-0.235,0.23-0.375,0.337c-0.556,0.467-1.248,0.816-2.011,1.106
	c-0.13,7.914-0.231,15.614-0.366,23.589c-0.352,0.013-0.705,0.028-1.05,0.039c-0.02,1.215-0.031,1.959-0.031,1.959
	c-0.024,0.509-0.048,1.013-0.075,1.524c-5.285,0.244-10.571,0.459-15.863,0.642c0,0,0.305-23.104,0.341-26.305
	c-0.88,0.045-2.433,0.127-3.712,0.198c0,0.047-0.009,0.097-0.011,0.145c0,0.005-5.395,0.45-8.32,0.683
	c-0.003,0.444-0.011,0.883-0.011,1.34c2.228-0.226,4.308-0.43,6.47-0.56c-0.039,3.021-0.077,5.898-0.11,8.956
	c-0.368,0.023-0.729,0.05-1.091,0.073c-0.008,0.672-0.02,1.347-0.027,2.02c-0.025,0.476-0.051,0.956-0.072,1.438
	c-0.004,0.002-3.224,0.271-5.354,0.458c-0.015,0.673-0.03,1.343-0.047,2.024c3.273-0.308,6.328-0.556,9.46-0.818
	c0,2.437-0.043,4.769-0.079,7.166c-0.357,0.03-0.709,0.062-1.067,0.087c-0.014,1.114-0.028,2.223-0.048,3.334
	c-0.62,0.047-1.239,0.093-1.861,0.139c-6.658,0.484-13.429,1.144-20.79,2.014c-0.829,0.092-1.666,0.198-2.491,0.293
	c0.016-1.208,0.035-2.415,0.051-3.624c-1.583,2.485-4.338,4.204-7.927,4.758c-5.939,0.863-11.654,1.811-17.92,3.015
	c-0.914,0.171-1.829,0.349-2.744,0.517c0,0,0.333-24.125,0.372-26.917c-1.144-0.171-2.183-0.522-3.111-1.19
	c-1.001-0.742-2.221-2.146-2.19-4.507c0.013-0.189,0.027-0.382,0.042-0.57c0.007-0.067,0.023-0.14,0.034-0.21
	c0.126-0.705,0.25-1.417,0.37-2.117c0.409-0.083,0.815-0.163,1.229-0.247c1.277-0.256,2.555-0.486,3.836-0.726
	c0.005-0.021,0.005-0.035,0.008-0.055c7.937-1.583,15.576-2.919,23.642-4.089h0.037c2.193-0.226,3.713-0.1,4.777,0.39
	c0.005-0.329,0.009-0.663,0.015-0.996c0.557-0.061,1.119-0.124,1.671-0.184c1.214-0.135,2.409-0.258,3.604-0.384v-0.155
	c6.027-0.682,11.751-1.247,17.673-1.729v-0.03c0.622-0.045,1.239-0.09,1.858-0.132c0.368-0.023,0.73-0.04,1.097-0.066
	c0.097-0.002,0.191-0.012,0.283-0.018v0.006c0.684-0.038,1.37-0.08,2.043-0.113v-0.032c7.295-0.474,14.225-0.746,21.633-0.86
	c0.446,0,0.97,0.006,1.53,0.006c0.016,0.083,0.016,0.17,0.025,0.254c0.688,0,1.373,0.005,2.052,0.005c0-0.098,0-0.194,0.005-0.292
	c4.946-0.015,9.835,0.033,14.772,0.171c-5.435-24.771-12.151-42.294-19.357-50.592c-35.215,0.353-68.423,13.884-93.883,38.429
	c-1.51,1.462-2.978,2.958-4.41,4.47c1.288,21.203,11.133,41.145,24.194,60.384c0.591-0.281,1.224-0.47,1.878-0.612
	c3.162-0.815,7.456-1.128,9.698-1.39l-0.268,0.058c0.06-0.014,0.118-0.022,0.176-0.029c0.276,0,0.555-0.073,0.789-0.106
	c2.927-0.373,16.807-1.7,27.953-2.402c0.194-0.006,0.376-0.013,0.56-0.021c0.936-0.071,1.47-0.108,1.47-0.108l0.476-0.027
	c0.194-0.01,0.39-0.016,0.581-0.026c0.02,0,0.026,0,0.04-0.005v0.005c2.895-0.142,5.765-0.255,8.62-0.358
	c14.146-0.623,27.79-0.76,42.065-0.457c1.146,0,2.252,0.076,3.2,0.076c0.198,0.921,0.198,1.806,0.198,2.764v0.481
	c0,0.934-0.121,2.85-0.977,4.948c1.446-1.457,3.172-2.674,5.158-3.673c-0.517-4.761-1.081-9.478-1.693-14.126
	C220.47,151.883,219.288,151.835,218.101,151.782"/>
<path fill="#ED174C" d="M150.371,187.326c1.147,0.368,2.211,0.7,3.163,1.107c1.542,0.549,2.531,1.066,3.441,1.659
	c2.645,1.656,4.033,3.617,4.268,6.194c0.079,0.98,0.123,2.492,0.151,4.577c0.104,2.219,0.147,5.995,0.147,12.912l-0.026,4.544
	c4.312,5.491,8.423,10.922,12.176,16.295V185.46c-3.631,0.152-12.541,0.512-12.541,0.512v-4.641
	c-2.642,2.861-6.145,4.52-10.501,4.904c0,0-1.214,0.105-2.77,0.241c0.664,0.24,1.377,0.481,2.139,0.74
	C150.019,187.326,150.213,187.29,150.371,187.326"/>
<path fill="#ED174C" d="M192.698,283.923c9.971,0.386,20.657,0.314,32.114-0.317c1.209-11.741,1.924-24.592,2.165-38.03
	c-7.562-2.336-14.329-7.262-14.42-18.323v-42.321c0.018-1.52,0.135-2.96,0.354-4.33c-0.227,0.208-0.45,0.421-0.697,0.624
	l-0.089,0.076c-1.834,1.422-2.52,2.419-4.98,3.019v60.684l-26.498,0.31C188.534,258.492,193.439,271.348,192.698,283.923"/>
<path fill="#ED174C" d="M259.191,279.281c2.32-11.929,7.036-25.803,12.983-39.944v-0.503c-0.737,1.135-1.605,2.197-2.645,3.145
	c-5.381,4.889-14.301,6.755-28.119,5.877c-2.654-0.201-5.907-0.457-9.263-1.048c-0.238,12.726-0.896,25.028-2.043,36.443
	C240.724,282.477,250.416,281.126,259.191,279.281"/>
<path fill="#ED174C" d="M303.287,171.287v-1.616c0,0,0.146,0.029,0.411,0.073c6.21-24.461,1.751-44.655-5.651-61.962
	c-23.959-25.899-57.755-42.597-95.549-44.024c8.118,11.769,14.02,31.539,18.165,50.881c3.015,0.624,4.368,1.875,4.964,4.094
	c1.836-1.598,4.31-2.292,6.547-2.558c0.719-0.098,1.443-0.136,2.166-0.149c0.425-0.09,0.863-0.167,1.331-0.225
	c1.858-0.256,3.872-0.166,6.028,0.03c3.383,0.303,6.937,0.657,9.335,2.331v-0.698c1.759,0.249,3.513,0.489,5.269,0.732
	c0.006-0.268,0.011-0.522,0.011-0.791c3.31,0.417,6.47,0.864,9.808,1.327c0.52,0.084,1.041,0.171,1.594,0.215
	c0,0.299-0.002,0.592-0.01,0.889c0.643,0.105,1.266,0.211,1.902,0.308c0-0.292,0.006-0.589,0.006-0.886
	c7.275,1.096,14.248,2.334,21.474,3.832c0.56,0.108,1.001,0.225,1.52,0.335c0,0.399,0,0.765,0.077,1.189v0.224
	c0,0.561-0.144,1.948-1.21,3.045c-0.22,1.292-0.942,2.971-2.985,4.141c-0.472,0.249-1.007,0.407-1.562,0.525
	c-0.103,7.616-0.226,14.994-0.323,22.666c-0.364-0.066-0.721-0.133-1.082-0.203c-0.021,1.384-0.032,2.238-0.032,2.238
	c-0.021,0.717-0.048,1.436-0.076,2.156c-5.232-0.907-10.48-1.846-15.729-2.811c0.003,0,0.338-23.711,0.338-26.003
	c-0.819-0.127-1.637-0.263-2.458-0.396c-0.101,7.233-0.205,14.389-0.328,21.75c-0.35-0.052-0.698-0.099-1.043-0.146
	c-0.013,0.723-0.023,1.44-0.033,2.161c-0.028,0.681-0.05,1.359-0.074,2.039c-5.191-0.68-10.378-1.387-15.572-2.125
	c0.019-1.302,0.038-2.601,0.06-3.894c-0.291,0.281-0.601,0.546-0.952,0.793c-2.718,1.872-7.14,2.637-13.238,2.17
	c-0.151-0.009-0.303-0.02-0.455-0.027c-2.223-0.186-6.146-0.543-9.161-2.266c0.574,4.411,1.119,8.928,1.61,13.524
	c1.044-0.279,2.133-0.523,3.284-0.712c0.047-0.008,0.1-0.012,0.146-0.019c1.176-0.357,2.432-0.65,3.771-0.871
	c3.359-0.544,7.167-0.609,12.743-0.226l0.034,0.005c9.669,0.763,19.584,1.561,23.794,9.708v-5.779l6.16-0.213
	c1.674-0.047,3.643,0.074,5.769,0.418c5.161,0.31,12.494,2.298,18.335,7.848C302.722,173.311,303.015,172.294,303.287,171.287"/>
<path fill="#ED174C" d="M266.109,306.399c3.098,3.717,8.905,4.24,17.224,1.608c3.189-2.573,6.299-5.274,9.284-8.154
	c13.146-12.674,23.413-27.529,30.518-43.762c-1.059-0.21-2.127-0.416-3.199-0.62c-12.031,11.973-30.256,22.19-56.136,28.176
	C262.079,294.056,262.572,302.153,266.109,306.399"/>
<path fill="#ED174C" d="M262.064,309.77c-4.37-5.245-5.29-14.062-3.811-24.939c-8.74,1.742-18.301,3.017-28.722,3.747
	c-2.356,20.195-6.322,37.224-12.224,48.28c20.365-2.962,39.651-10.438,56.687-21.952
	C268.896,314.847,264.889,313.159,262.064,309.77"/>
<path fill="#ED174C" d="M192.021,289.207c-2.122,12.577-7.779,22.594-16.536,28.997c-8.465,6.196-19.618,9.09-33.246,8.691
	c16.367,7.155,34.146,11.071,52.549,11.406c5.382,0.096,10.713-0.147,15.993-0.657c6.414-9.552,10.842-27,13.447-48.735
	C212.754,289.512,202.035,289.588,192.021,289.207"/>
<path fill="#003DA6" d="M349.8,224.964c-2.127-1.134-4.29-2.411-6.347-3.943c-0.802,5.85-1.941,12.046-3.399,17.647l0.978,0.223
	v-0.036c3.032,0.719,5.91,1.38,8.814,2.064c0.006-1.626,0.011-3.943,0.011-5.946C349.856,231.222,349.84,227.298,349.8,224.964"/>
<path fill="#003DA6" d="M51.419,179.266c10.866-71.994,73.814-127.171,148.549-125.807c72.679,1.322,132.28,55.261,143.095,124.753
	c2.188-0.266,4.645-0.08,7.387,0.596l-0.002,0.021c0.184,0.052,1.844,0.48,2.092,0.546c0.063,0.015,0.125,0.025,0.197,0.04
	c-0.016,0-0.025-0.003-0.041-0.003c0.773,0.204,1.736,0.452,2.809,0.728c-4.372-33.655-19.363-64.942-43.404-89.881
	C282.485,59.55,242.74,42.212,200.19,41.432c-82.497-1.5-151.716,60.773-161.328,141.008c2.166-0.574,4.33-1.131,6.5-1.678
	C47.383,180.244,49.402,179.73,51.419,179.266"/>
<path fill="#003DA6" d="M334.564,258.446v-3.438c0,0.005,0,0.01,0,0.015v3.415l-1.289-0.271
	c-22.761,53.94-76.66,91.447-138.674,90.317c-67.253-1.223-123.783-48.314-140.341-110.294v16.926
	c-0.01,0.005-0.021,0.005-0.032,0.005v5.921v0.046l-2.232,0.562c-0.675,0.158-1.382,0.321-2.068,0.485
	c23.643,56.73,79.167,97.186,144.452,98.376c42.554,0.771,82.899-15.108,113.611-44.73c16.376-15.788,28.95-34.461,37.238-54.9
	c-2.553-0.609-5.155-1.204-7.964-1.83L334.564,258.446z"/>
<path fill="#FFFFFF" d="M161.509,219.854l-0.039,7.002c4.453,5.826,8.602,11.571,12.219,17.226v-9.468
	c-3.752-5.373-7.861-10.804-12.173-16.295L161.509,219.854z"/>
<path fill="#FFFFFF" d="M323.135,256.092c-7.107,16.232-17.372,31.088-30.518,43.762c-2.989,2.878-6.093,5.581-9.284,8.159
	c-8.318,2.627-14.124,2.104-17.224-1.613c-3.537-4.246-4.03-12.344-2.31-22.752c25.88-5.982,44.102-16.203,56.136-28.181
	c-2.096-0.398-4.222-0.792-6.41-1.189c-10.98,9.89-26.84,18.359-48.622,23.705c1.957-8.836,5.231-18.977,9.403-29.654l-2.129-0.261
	v-8.73c-5.95,14.142-10.663,28.016-12.984,39.946c-8.777,1.84-18.47,3.193-29.087,3.968c1.146-11.415,1.806-23.718,2.042-36.443
	c-1.721-0.305-3.461-0.706-5.174-1.232c-0.235,13.438-0.951,26.292-2.163,38.03c-11.454,0.632-22.145,0.703-32.111,0.317
	c0.74-12.575-4.165-25.433-12.054-38.613l-6.134,0.071c8.352,13.325,13.66,26.132,12.927,38.289
	c-47.308-2.671-77.774-15.926-96.882-29.436c-1.594,0.261-3.216,0.533-4.905,0.818l-2.902,0.495
	c19.281,15.087,51.536,30.535,103.986,33.418c-1.975,11.016-6.771,19.436-14.36,24.987c-10.024,7.338-24.611,9.412-43.307,6.271
	c-11.153-6.394-21.485-14.391-30.655-23.905c-16.082-16.684-27.445-36.693-33.471-58.413c3.854,4.959,9.267,10.807,16.672,16.747
	l-0.027-2.999c-0.011-1.493-0.019-2.977-0.026-4.462c-8.332-7.236-13.577-14.007-16.617-18.656
	c-2.742,0.609-8.823,1.914-10.687,2.322c0,0.775,0,1.537,0,2.779v4.463c16.843,61.571,73.389,109.168,140.341,110.384
	c62.015,1.129,115.914-36.375,138.675-90.315l-2.909-0.608C327.966,257.056,325.562,256.57,323.135,256.092 M194.784,338.302
	c-18.397-0.332-36.179-4.253-52.546-11.406c13.628,0.398,24.781-2.495,33.246-8.691c8.755-6.403,14.414-16.422,16.536-28.997
	c10.018,0.381,20.733,0.302,32.204-0.298c-2.604,21.735-7.03,39.184-13.444,48.735C205.5,338.154,200.167,338.4,194.784,338.302
	 M217.311,336.855c5.902-11.053,9.866-28.078,12.221-48.283c10.422-0.729,19.982-2,28.723-3.742
	c-1.479,10.878-0.56,19.694,3.811,24.937c2.824,3.395,6.834,5.08,11.928,5.137C256.963,326.42,237.674,333.896,217.311,336.855"/>
<path fill="#FFFFFF" d="M224.454,148.81c-0.005,0.489-0.017,0.978-0.023,1.463v1.789c-0.927-0.042-1.849-0.081-2.777-0.123
	c0.612,4.648,1.177,9.365,1.69,14.126c1.521-0.77,3.199-1.399,5.032-1.891c-0.491-4.593-1.033-9.109-1.607-13.521
	C225.903,150.157,225.108,149.558,224.454,148.81"/>
<path fill="#FFFFFF" d="M334.564,210.539v44.489c0-0.007,0-0.012,0-0.017v-13.697l0.015-3.936l5.475,1.285
	c1.461-5.598,2.598-11.794,3.399-17.644C339.94,218.42,336.736,215.09,334.564,210.539"/>
<path fill="#FFFFFF" d="M302.414,174.335c0.296,0.278,0.586,0.562,0.873,0.857v-3.904
	C303.015,172.295,302.722,173.312,302.414,174.335"/>
<path fill="#FFFFFF" d="M92.762,111.847c2.518,20.378,12.327,39.734,24.643,57.985c1.235-1.142,2.649-2.183,4.322-2.885
	c-13.06-19.239-22.902-39.181-24.196-60.382c1.438-1.515,2.899-3.01,4.414-4.473c25.459-24.547,58.668-38.079,93.883-38.428
	c7.202,8.294,13.923,25.82,19.356,50.593c1.338,0.035,2.679,0.077,4.03,0.127h0.074c0.039,0,0.084,0.038,0.118,0.038
	c0.449,0.058,0.862,0.133,1.257,0.216c-4.144-19.341-10.049-39.112-18.168-50.88c37.793,1.427,71.589,18.125,95.549,44.022
	c7.406,17.307,11.866,37.501,5.651,61.964c0.782,0.135,2.654,0.474,5.129,0.915c4.794-19.431,3.243-36.386-0.994-51.069
	c11.925,16.156,20.396,34.985,24.332,55.376c0.652,0.139,1.292,0.269,1.948,0.404v0.092l0.453,0.091v8.114
	c0.842-1.552,2.023-2.826,3.509-3.762c1.444-0.916,3.12-1.467,4.989-1.696c-10.819-69.49-70.42-123.431-143.098-124.75
	c-74.734-1.365-137.677,53.81-148.546,125.804c0.389-0.092,0.783-0.187,1.176-0.279c0.888-0.212,1.774-0.431,2.67-0.642
	c2.28-0.554,4.565-1.111,6.849-1.6C66.391,152.869,76.887,130.398,92.762,111.847"/>
<path fill="#041E41" d="M54.231,261.089v-0.041v-5.921c-8.298,1.943-16.511,3.938-24.808,6.295v-60.705
	c-6.083,0.956-8.776-1.363-9.917-3.176c-0.555-0.92-1.39-3.132-1.425-5.309c0.036-1.256,0.314-2.438,1.064-3.394
	c0.361-0.408,0.597-0.778,0.992-1.219c5.99-1.739,11.873-3.375,17.738-4.93c-7.145,1.826-14.431,3.981-22.071,6.156l-1.023,0.294
	c0,0-3.69,3.203-3.578,7.501v0.181c0.053,2.708,1.049,4.752,1.951,6.227c1.255,1.945,4.017,4.727,9.506,4.976v61.065l4.412-1.232
	c7.727-2.155,15.499-4.018,22.854-5.722c0.689-0.164,1.396-0.327,2.072-0.482L54.231,261.089z"/>
<path fill="#041E41" d="M45.36,180.763c2.132-0.54,4.272-1.062,6.415-1.58c-0.121,0.027-0.236,0.053-0.357,0.085
	C49.401,179.732,47.384,180.243,45.36,180.763"/>
<path fill="#041E41" d="M65.461,228.425c7.378-1.621,12.838-5.247,16.011-10.403c0.002,9.623,0.027,19.369,0.092,29.17
	c0.005,1.485,0.016,2.969,0.023,4.46l0.027,3.001l0.007,1.091l1.128-0.195l2.899-0.497c1.69-0.283,3.315-0.556,4.908-0.819
	c7.077-1.173,13.319-2.145,19.316-2.993l2.986-0.427v-6.833c-8.023,1.169-15.825,2.445-23.848,3.836
	c-0.2-25.711-0.083-50.395-0.124-76.095c-1.462,0.247-2.96,0.505-4.541,0.781l-2.885,0.497v5.461
	c2.571,3.852,2.481,10.95,2.481,21.703c0,0.476-0.036,0.923-0.036,1.403v1.105c-0.08,9.96-6.008,16.597-16.251,18.882
	c-4.506,0.958-8.853,1.948-13.401,3.023v6.278c2.914-0.641,8.992-1.94,10.688-2.32C65.267,228.469,65.461,228.425,65.461,228.425"/>
<path fill="#041E41" d="M63.007,176.574c1.543-0.345,3.088-0.688,4.646-1.02c-0.074,0.013-0.158,0.034-0.25,0.053
	C66.391,175.828,64.316,176.277,63.007,176.574"/>
<path fill="#041E41" d="M303.287,171.287v3.905c2.511,2.616,4.693,5.934,6.229,10.143c0.162,0.591,0.365,1.066,0.524,1.698v-16.155
	c-0.422-0.073-0.824-0.147-1.218-0.218c-2.475-0.442-4.344-0.776-5.124-0.915c-0.265-0.044-0.411-0.073-0.411-0.073V171.287z"/>
<path fill="#041E41" d="M384.848,193.641l-0.005-0.183c0.011,0.294,0.019,0.583,0.019,0.878c0,0.073-0.609,2.799-2.158,4.353
	c-2.05,2.431-5.176,3.097-9.173,1.988c-3.952-1.072-7.864-2.101-11.814-3.17v1.693c0,2.473,1.915,4.368,5.103,6.7
	c1.385,0.366,2.646,0.708,2.646,0.708c7.028,1.946,10.893-1.063,12.584-3.061c-0.057,0.067-0.11,0.124-0.163,0.186l0.185-0.202
	c-0.008,0.005-0.01,0.017-0.021,0.017c0.012-0.006,0.014-0.017,0.021-0.021c2.185-2.354,2.883-5.828,2.883-6.63L384.848,193.641z"/>
<path fill="#041E41" d="M350.449,178.809c-2.742-0.675-5.199-0.862-7.387-0.596c-1.869,0.223-3.549,0.779-4.989,1.693
	c-1.48,0.936-2.667,2.215-3.512,3.765v-8.116l-0.446-0.09v76.404c-7.751-1.659-15.269-3.096-23.248-4.501
	c0,0-4.309-10.548-7.909-19.322v17.962c-7.912-1.291-15.774-2.403-23.726-3.395v-76.05v-0.072c0.938-0.03,2.731-0.039,2.731-0.039
	c0.649-0.021,1.359-0.011,2.113,0.034c-2.126-0.344-4.097-0.465-5.767-0.417l-6.162,0.213v5.778c1.305,2.521,2.07,5.732,2.106,9.883
	v42.671c0,0-0.045,1.772-0.045,1.815c-0.043,3.793-1.384,6.935-3.987,9.343c-4.528,4.196-12.775,5.845-25.258,5.033
	c-10.067-0.777-25.273-1.956-25.39-17.306v-42.692c0.072-9.179,4.084-14.894,12.231-17.362c-0.05,0.005-0.1,0.008-0.146,0.018
	c-1.152,0.186-2.238,0.434-3.285,0.712c-1.829,0.489-3.512,1.117-5.029,1.888c-1.985,0.997-3.711,2.218-5.158,3.675
	c-0.628,1.541-1.653,3.181-3.322,4.601c-2.107,1.664-4.711,2.584-7.754,2.878v60.676c-8.349-0.078-16.414,0-24.756,0.292V177.66
	c-4.348,0.113-8.221,0.293-12.417,0.519v-16.083c1.265-0.06,2.508-0.113,3.763-0.171c-2.857,0.103-5.728,0.218-8.62,0.357
	c0,0.923,0.23,1.733,0.23,2.653c0,0.63,0.083,1.183,0.083,1.77c0,0.591-0.083,1.106-0.083,1.625v0.111
	c0,0.037-0.032,0.076-0.032,0.076c0,0.549-0.475,2.508-1.819,4.683c-2.097,3.279-5.182,5.09-9.375,5.452
	c-3.952,0.3-7.825,0.634-11.821,1.038v1.657c0.036,2.665,2.135,3.875,5.615,5.128c1.559-0.133,2.77-0.241,2.77-0.241
	c4.356-0.384,7.862-2.042,10.504-4.904v4.644c0,0,8.908-0.363,12.536-0.515v49.156v9.47v1.307l0.823-0.01l6.136-0.071l26.496-0.304
	V184.32c2.466-0.603,3.148-1.596,4.982-3.021l0.089-0.078c0.247-0.201,0.471-0.412,0.697-0.623c-0.22,1.373-0.337,2.813-0.351,4.33
	v42.324c0.087,11.062,6.852,15.985,14.416,18.321c1.708,0.529,3.448,0.928,5.171,1.232c3.357,0.597,6.608,0.849,9.263,1.048
	c13.818,0.878,22.735-0.991,28.119-5.874c1.039-0.95,1.91-2.013,2.645-3.15v0.506l0.005,8.73l2.129,0.261l0.926,0.113
	c8.453,1.035,16.253,2.125,23.837,3.335l4.021,0.647l3.918,0.701c2.242,0.39,4.4,0.77,6.519,1.152
	c2.186,0.397,4.312,0.791,6.407,1.191c1.072,0.209,2.137,0.413,3.199,0.617c2.428,0.484,4.833,0.973,7.229,1.472l2.909,0.61
	l1.288,0.271v-3.412v-44.487c2.175,4.551,5.379,7.879,8.892,10.481c2.057,1.53,4.22,2.81,6.347,3.943
	c0.04,2.334,0.052,6.261,0.052,10.007c0,2.007,0,4.319-0.006,5.948c2.134,0.491,4.287,1.001,6.529,1.547
	c0-4.425,0.074-19.915-0.123-22.206c0-0.07-0.195-0.107-0.275-0.145c-0.158-0.075-0.393-0.188-0.553-0.261
	c-5.65-2.913-12.377-7.046-15.457-15.008c-0.756-1.958-0.853-5.058-0.912-8.304c-0.082-4.511,0.716-10.99,0.716-11.544
	c1.136-5.041,5.69-7.304,12.766-5.623c-0.245-0.064-1.905-0.494-2.092-0.544L350.449,178.809z"/>
<path fill="#041E41" d="M352.619,179.415c0.24,0.064,1.643,0.416,3.761,0.955c-0.295-0.079-0.591-0.152-0.876-0.226
	c-1.076-0.279-2.035-0.523-2.813-0.729H352.619z"/>
<path fill="#041E41" d="M382.257,187.415l-0.656-0.195c0.708,0.221,1.431,0.475,2.158,0.713L382.257,187.415z"/>
<path fill="#041E41" d="M384.674,188.243l-0.009-0.002c0.003,1.265,0.07,2.533,0.132,3.8L384.674,188.243z"/>
<path fill="#041E41" d="M380.72,221.992c0.015,0.261,0.028,0.549,0.036,0.846C380.763,222.551,380.766,222.273,380.72,221.992"/>
<path fill="#041E41" d="M380.845,252.312c0,0-0.092,1.107-0.513,1.919c-2.485,4.792-7.793,6.418-16.173,4.607
	c0.044,0-0.033-0.035-0.033-0.035c-7.951-2.067-15.15-3.837-23.097-5.603v-14.306l-0.976-0.231l-5.472-1.283l-0.018,3.932v13.696
	v3.44l2.701,0.599c2.809,0.625,5.411,1.23,7.961,1.833c4.838,1.147,9.473,2.314,14.91,3.725l0.061,0.021l0.111,0.051
	c12.289,2.66,17.377-2.011,19.641-6.39c0.69-1.333,0.857-2.833,0.891-3.26l0.013-0.133l0.034-5.231l0.048-10.266
	c0-0.501-0.002-1.094-0.01-1.749c-0.005,5.976-0.08,11.68-0.08,14.556V252.312z"/>
<path fill="#041E41" d="M57.381,193.634c-0.752,0.181-1.543,0.331-2.293,0.441c-0.396,0.108-0.752,0.145-1.106,0.261v16.186
	c1.701-0.402,3.317-0.772,5.021-1.137c0-1.889-0.078-14.351-0.078-14.828C58.524,193.669,58.329,193.486,57.381,193.634"/>
<path fill="#041E41" d="M245.52,179.391l-0.078-0.008l-0.078-0.005c-0.132-0.021-0.275-0.016-0.416-0.026
	c-0.064,0.544-0.111,1.086-0.111,1.629v0.216l-0.025,0.218c-0.068,0.536-0.087,1.11-0.087,1.69c0,0.403,0.007,0.808,0.019,1.209
	l0.021,1.166v30.277l-0.005,0.139c-0.023,0.605-0.046,1.124-0.046,1.582c0,2.295,0.529,2.87,3.816,3.144
	c0.18,0.009,0.675,0.034,0.675,0.034h0.196c0.007-0.416,0.065-2.246,0.065-2.246v-29.938c0-3.825,0-7.127-0.542-8.233
	C248.689,179.767,246.942,179.521,245.52,179.391"/>
<path fill="#041E41" d="M136.811,204.363v0.005C136.833,204.363,136.839,204.363,136.811,204.363"/>
<path fill="#041E41" d="M113.297,200.015c3.581,7.965,11.018,10.305,15.98,11.305c0.016,3.742,0.065,13.228,0.079,16.02v0.01
	c2.481-0.29,4.992-0.568,7.569-0.861c0-7.484-0.115-14.634-0.115-22.12c-0.066,0.006-0.279,0-0.279-0.083
	c-0.196-0.026-0.352-0.066-0.552-0.066c-5.647-0.959-12.372-2.654-15.458-9.52c-0.75-1.693-0.905-4.719-0.905-8.037
	c0-4.393,0.313-8.928,0.514-10.291v0.256c0-0.592,0.195-1.139,0.195-1.694c0.981-4.618,4.37-7.863,9.508-9.304
	c0.021,0,0.041-0.005,0.06-0.013c0.986-0.271,2.032-0.481,3.144-0.615l0.271-0.055c-2.245,0.261-6.538,0.575-9.698,1.387
	c-0.692,0.178-1.332,0.381-1.882,0.612c-1.673,0.703-3.09,1.744-4.322,2.887c-2.067,1.919-3.544,4.328-4.318,7.15v22.496
	C113.155,199.658,113.22,199.842,113.297,200.015 M129.83,165.606c-0.007-0.058-0.015-0.1-0.018-0.132
	C129.818,165.521,129.825,165.571,129.83,165.606"/>
<path fill="#041E41" d="M113.911,229.256l0.087,2.849l0.1,18.629l4.288-0.526c7.178-0.919,14.244-1.686,22.918-2.489l0.187-0.016
	c13.25-1.73,19.969-8.271,19.969-19.434l0.013-1.412l0.036-7.005l0.007-1.532l0.027-4.544c0-6.912-0.043-10.693-0.147-12.909
	c0.035,2.31,0.05,5.331,0.05,9.146c0,4.094-0.081,8.775-0.081,14.49c0,11.319-7.62,14.602-16.645,15.642
	c0.036-0.005-0.042,0-0.042,0c-7.945,0.735-15.299,1.515-23.05,2.506c0-4.833-0.078-9.516-0.078-14.311
	c0.091-0.011,0.178-0.022,0.271-0.037C117.819,228.783,113.914,229.256,113.911,229.256"/>
<path fill="#ED174C" d="M214.226,123.501v-0.254c0.045-1.565-0.221-1.854-0.259-1.895c-0.186-0.107-0.93-0.138-1.566-0.133
	c0.08,0-0.145,0-0.184,0.003c-0.074,0-0.143-0.033-0.218-0.033c-0.046,2.296-0.046,4.513-0.079,6.808
	c0.713-0.009,1.378,0.026,2.085,0.058c0.075-0.077,0.075-0.147,0.075-0.218V127.8c0-0.151,0.038-0.289,0.038-0.442
	c0.107-0.946,0.072-1.199,0.107-2.656V123.501z"/>
<path fill="#041E41" d="M214.226,123.501v-0.254c0.045-1.565-0.221-1.854-0.259-1.895c-0.186-0.107-0.93-0.138-1.566-0.133
	c0.08,0-0.145,0-0.184,0.003c-0.074,0-0.143-0.033-0.218-0.033c-0.046,2.296-0.046,4.513-0.079,6.808
	c0.713-0.009,1.378,0.026,2.085,0.058c0.075-0.077,0.075-0.147,0.075-0.218V127.8c0-0.151,0.038-0.289,0.038-0.442
	c0.107-0.946,0.072-1.199,0.107-2.656V123.501z"/>
<path fill="#ED174C" d="M215.009,143.913c-0.113-0.145-0.186-0.363-0.224-2.292c0-0.218-0.034-0.397-0.034-0.658
	c-0.073-1.38-0.107-4.25-0.073-5.233c0-0.366,0.073-1.422-2.642-1.51h-0.227c-0.077,4.476-0.113,8.735-0.185,13.214
	c-3.946-0.089-7.788-0.113-11.696-0.053c0.144-11.176,0.332-21.861,0.479-33.004c-0.678,0-1.362-0.003-2.048-0.003
	c0.031,0.313,0.046,0.631,0.046,0.947v0.218c0,0.584-0.144,2.125-1.327,3.479c-0.257,1.084-0.841,2.363-2.068,3.478
	c-0.138,9.491-0.269,18.982-0.406,28.474c5.288,0.055,10.573,0.075,15.864,0.073c0.016-0.542,0.027-1.092,0.038-1.639
	c0,0,0.037-1.202,0.037-1.492c1.082,1.629,3.167,3.296,7.224,3.832h0.11c0.076,0.011,0.15,0.03,0.224,0.04
	c1.186,0.05,2.369,0.103,3.554,0.156c-0.17-1.289-0.341-2.571-0.52-3.853C217.856,147.591,215.771,146.176,215.009,143.913"/>
<path fill="#041E41" d="M215.009,143.913c-0.113-0.145-0.186-0.363-0.224-2.292c0-0.218-0.034-0.397-0.034-0.658
	c-0.073-1.38-0.107-4.25-0.073-5.233c0-0.366,0.073-1.422-2.642-1.51h-0.227c-0.077,4.476-0.113,8.735-0.185,13.214
	c-3.946-0.089-7.788-0.113-11.696-0.053c0.144-11.176,0.332-21.861,0.479-33.004c-0.678,0-1.362-0.003-2.048-0.003
	c0.031,0.313,0.046,0.631,0.046,0.947v0.218c0,0.584-0.144,2.125-1.327,3.479c-0.257,1.084-0.841,2.363-2.068,3.478
	c-0.138,9.491-0.269,18.982-0.406,28.474c5.288,0.055,10.573,0.075,15.864,0.073c0.016-0.542,0.027-1.092,0.038-1.639
	c0,0,0.037-1.202,0.037-1.492c1.082,1.629,3.167,3.296,7.224,3.832h0.11c0.076,0.011,0.15,0.03,0.224,0.04
	c1.186,0.05,2.369,0.103,3.554,0.156c-0.17-1.289-0.341-2.571-0.52-3.853C217.856,147.591,215.771,146.176,215.009,143.913"/>
<path fill="#FFFFFF" d="M221.452,148.133c0-0.04-0.034,0-0.072,0c-0.09-0.01-0.161-0.032-0.245-0.048
	c0.177,1.28,0.348,2.564,0.519,3.852c0.926,0.042,1.854,0.082,2.775,0.127v-1.791c0.009-0.489,0.021-0.975,0.025-1.465
	c-0.161-0.186-0.314-0.375-0.453-0.577C223.151,148.201,222.309,148.167,221.452,148.133"/>
<path fill="#041E41" d="M221.452,148.133c0-0.04-0.034,0-0.072,0c-0.09-0.01-0.161-0.032-0.245-0.048
	c0.177,1.28,0.348,2.564,0.519,3.852c0.926,0.042,1.854,0.082,2.775,0.127v-1.791c0.009-0.489,0.021-0.975,0.025-1.465
	c-0.161-0.186-0.314-0.375-0.453-0.577C223.151,148.201,222.309,148.167,221.452,148.133"/>
<path fill="#ED174C" d="M253.898,124.453c-0.076,6.225-0.184,12.16-0.26,18.387c0,0.253-0.037,0.511-0.037,0.763
	c-0.051,1.234-0.48,2.261-1.242,3.105c-0.244,1.254-0.843,2.351-1.787,3.271c-0.021,1.298-0.041,2.592-0.062,3.894
	c5.197,0.741,10.381,1.448,15.575,2.132c0.027-0.685,0.046-1.362,0.074-2.043c0.013-0.721,0.019-1.44,0.033-2.159
	c-3.464-0.496-6.854-0.976-10.365-1.366c0.151-10.914,0.323-21.349,0.476-32.242c-1.76-0.247-3.512-0.484-5.269-0.732v0.699
	C252.779,119.386,253.915,121.305,253.898,124.453"/>
<path fill="#041E41" d="M253.898,124.453c-0.076,6.225-0.184,12.16-0.26,18.387c0,0.253-0.037,0.511-0.037,0.763
	c-0.051,1.234-0.48,2.261-1.242,3.105c-0.244,1.254-0.843,2.351-1.787,3.271c-0.021,1.298-0.041,2.592-0.062,3.894
	c5.197,0.741,10.381,1.448,15.575,2.132c0.027-0.685,0.046-1.362,0.074-2.043c0.013-0.721,0.019-1.44,0.033-2.159
	c-3.464-0.496-6.854-0.976-10.365-1.366c0.151-10.914,0.323-21.349,0.476-32.242c-1.76-0.247-3.512-0.484-5.269-0.732v0.699
	C252.779,119.386,253.915,121.305,253.898,124.453"/>
<path fill="#ED174C" d="M192.669,121.15c-0.021,0.936-0.029,1.856-0.044,2.787c0.765-0.289,1.456-0.636,2.011-1.106
	c0.139-0.108,0.25-0.227,0.376-0.338c0.008-0.665,0.017-1.325,0.028-1.992C194.319,120.821,193.518,121.045,192.669,121.15"/>
<path fill="#041E41" d="M192.669,121.15c-0.021,0.936-0.029,1.856-0.044,2.787c0.765-0.289,1.456-0.636,2.011-1.106
	c0.139-0.108,0.25-0.227,0.376-0.338c0.008-0.665,0.017-1.325,0.028-1.992C194.319,120.821,193.518,121.045,192.669,121.15"/>
<path fill="#ED174C" d="M172.842,115.129c-0.368,0.023-0.728,0.04-1.097,0.063c-0.62,0.042-1.238,0.09-1.858,0.131v0.035
	c0.547-0.047,1.086-0.092,1.639-0.133C171.952,115.2,172.4,115.159,172.842,115.129"/>
<path fill="#041E41" d="M172.842,115.129c-0.368,0.023-0.728,0.04-1.097,0.063c-0.62,0.042-1.238,0.09-1.858,0.131v0.035
	c0.547-0.047,1.086-0.092,1.639-0.133C171.952,115.2,172.4,115.159,172.842,115.129"/>
<path fill="#ED174C" d="M180.902,121.661c-1.972,0.115-3.871,0.226-5.839,0.368c0.029-2.351,0.067-4.638,0.107-7.027
	c-0.678,0.033-1.362,0.076-2.046,0.113c-0.042,2.363-0.076,4.618-0.076,6.942c-0.369,0.029-0.729,0.059-1.091,0.082
	c-0.014,0.72-0.019,1.433-0.028,2.15c-0.022,0.429-0.043,0.86-0.061,1.294c1.279-0.071,2.833-0.153,3.711-0.198
	c-0.035,3.201-0.34,26.305-0.34,26.305c5.292-0.183,10.58-0.398,15.863-0.642c0.028-0.511,0.051-1.015,0.072-1.524
	c0,0,0.014-0.745,0.032-1.962c-3.587,0.113-7.119,0.24-10.643,0.484C180.676,139.09,180.791,130.614,180.902,121.661"/>
<path fill="#041E41" d="M180.902,121.661c-1.972,0.115-3.871,0.226-5.839,0.368c0.029-2.351,0.067-4.638,0.107-7.027
	c-0.678,0.033-1.362,0.076-2.046,0.113c-0.042,2.363-0.076,4.618-0.076,6.942c-0.369,0.029-0.729,0.059-1.091,0.082
	c-0.014,0.72-0.019,1.433-0.028,2.15c-0.022,0.429-0.043,0.86-0.061,1.294c1.279-0.071,2.833-0.153,3.711-0.198
	c-0.035,3.201-0.34,26.305-0.34,26.305c5.292-0.183,10.58-0.398,15.863-0.642c0.028-0.511,0.051-1.015,0.072-1.524
	c0,0,0.014-0.745,0.032-1.962c-3.587,0.113-7.119,0.24-10.643,0.484C180.676,139.09,180.791,130.614,180.902,121.661"/>
<path fill="#ED174C" d="M197.078,119.018c-0.223,0.251-0.466,0.5-0.76,0.733c-0.368,0.297-0.812,0.54-1.28,0.75
	c-0.01,0.667-0.019,1.33-0.028,1.995C196.237,121.381,196.821,120.103,197.078,119.018"/>
<path fill="#041E41" d="M197.078,119.018c-0.223,0.251-0.466,0.5-0.76,0.733c-0.368,0.297-0.812,0.54-1.28,0.75
	c-0.01,0.667-0.019,1.33-0.028,1.995C196.237,121.381,196.821,120.103,197.078,119.018"/>
<path fill="#041E41" d="M197.078,119.018c-0.223,0.251-0.466,0.5-0.76,0.733c-0.368,0.297-0.812,0.54-1.28,0.75
	c-0.01,0.667-0.019,1.33-0.028,1.995C196.237,121.381,196.821,120.103,197.078,119.018"/>
<path fill="#ED174C" d="M286.974,129.139c-0.01,1.149-0.03,2.275-0.047,3.41c0.555-0.116,1.09-0.271,1.562-0.525
	c2.043-1.17,2.766-2.848,2.988-4.142c-0.244,0.25-0.521,0.492-0.872,0.694C289.608,129.116,288.424,129.302,286.974,129.139"/>
<path fill="#041E41" d="M286.974,129.139c-0.01,1.149-0.03,2.275-0.047,3.41c0.555-0.116,1.09-0.271,1.562-0.525
	c2.043-1.17,2.766-2.848,2.988-4.142c-0.244,0.25-0.521,0.492-0.872,0.694C289.608,129.116,288.424,129.302,286.974,129.139"/>
<path fill="#ED174C" d="M270.019,130.591c0,2.295-0.329,26.004-0.335,26.004c5.249,0.965,10.497,1.907,15.729,2.81
	c0.03-0.717,0.056-1.438,0.078-2.155c0,0,0.011-0.854,0.032-2.238c-3.539-0.654-6.961-1.254-10.529-1.851
	c0.115-8.815,0.224-17.196,0.336-26.005c-1.966-0.333-3.826-0.64-5.79-0.948c0.03-2.029,0.06-4.035,0.067-6.062
	c-0.635-0.1-1.264-0.203-1.904-0.311c-0.045,3.495-0.093,6.941-0.142,10.361C268.385,130.328,269.202,130.465,270.019,130.591"/>
<path fill="#041E41" d="M270.019,130.591c0,2.295-0.329,26.004-0.335,26.004c5.249,0.965,10.497,1.907,15.729,2.81
	c0.03-0.717,0.056-1.438,0.078-2.155c0,0,0.011-0.854,0.032-2.238c-3.539-0.654-6.961-1.254-10.529-1.851
	c0.115-8.815,0.224-17.196,0.336-26.005c-1.966-0.333-3.826-0.64-5.79-0.948c0.03-2.029,0.06-4.035,0.067-6.062
	c-0.635-0.1-1.264-0.203-1.904-0.311c-0.045,3.495-0.093,6.941-0.142,10.361C268.385,130.328,269.202,130.465,270.019,130.591"/>
<path fill="#ED174C" d="M152.215,117.24c-1.197,0.126-2.39,0.248-3.605,0.381c-0.553,0.06-1.117,0.123-1.671,0.188
	c-0.006,0.332-0.008,0.665-0.013,0.996c2.521,1.167,2.434,4.406,2.359,10.061c-0.074,4.909-0.156,9.641-0.193,14.555
	c-0.044,1.851-0.575,3.479-1.503,4.817c-0.251,0.902-0.628,1.745-1.119,2.516c-0.015,1.207-0.033,2.416-0.05,3.623
	c0.828-0.095,1.66-0.199,2.492-0.292c7.363-0.874,14.128-1.53,20.792-2.017c0.617-0.045,1.239-0.09,1.86-0.138
	c0.017-1.111,0.031-2.221,0.048-3.333c-6.665,0.492-13.209,1.162-19.873,1.987C151.884,139.318,152.069,128.534,152.215,117.24"/>
<path fill="#041E41" d="M152.215,117.24c-1.197,0.126-2.39,0.248-3.605,0.381c-0.553,0.06-1.117,0.123-1.671,0.188
	c-0.006,0.332-0.008,0.665-0.013,0.996c2.521,1.167,2.434,4.406,2.359,10.061c-0.074,4.909-0.156,9.641-0.193,14.555
	c-0.044,1.851-0.575,3.479-1.503,4.817c-0.251,0.902-0.628,1.745-1.119,2.516c-0.015,1.207-0.033,2.416-0.05,3.623
	c0.828-0.095,1.66-0.199,2.492-0.292c7.363-0.874,14.128-1.53,20.792-2.017c0.617-0.045,1.239-0.09,1.86-0.138
	c0.017-1.111,0.031-2.221,0.048-3.333c-6.665,0.492-13.209,1.162-19.873,1.987C151.884,139.318,152.069,128.534,152.215,117.24"/>
<path fill="#ED174C" d="M163.341,140.135c2.133-0.188,5.352-0.455,5.356-0.457c0.021-0.482,0.047-0.963,0.07-1.439
	c0.009-0.673,0.02-1.346,0.027-2.02c-1.781,0.125-3.536,0.293-5.416,0.479C163.379,137.863,163.36,139.001,163.341,140.135"/>
<path fill="#041E41" d="M163.341,140.135c2.133-0.188,5.352-0.455,5.356-0.457c0.021-0.482,0.047-0.963,0.07-1.439
	c0.009-0.673,0.02-1.346,0.027-2.02c-1.781,0.125-3.536,0.293-5.416,0.479C163.379,137.863,163.36,139.001,163.341,140.135"/>
<path fill="#ED174C" d="M169.788,122.304c-2.04,0.161-4.077,0.333-6.187,0.537c-0.033,1.194-0.056,2.372-0.065,3.57
	c2.925-0.234,8.321-0.676,8.321-0.684c0.002-0.05,0.011-0.097,0.011-0.145c-1.179,0.061-2.133,0.111-2.133,0.111
	C169.748,124.563,169.77,123.433,169.788,122.304"/>
<path fill="#041E41" d="M169.788,122.304c-2.04,0.161-4.077,0.333-6.187,0.537c-0.033,1.194-0.056,2.372-0.065,3.57
	c2.925-0.234,8.321-0.676,8.321-0.684c0.002-0.05,0.011-0.097,0.011-0.145c-1.179,0.061-2.133,0.111-2.133,0.111
	C169.748,124.563,169.77,123.433,169.788,122.304"/>
<path fill="#ED174C" d="M171.958,122.141c-0.729,0.055-1.453,0.105-2.17,0.163c-0.019,1.131-0.035,2.26-0.053,3.392
	c0,0,0.958-0.052,2.133-0.113c0.019-0.431,0.039-0.862,0.061-1.294C171.938,123.574,171.947,122.859,171.958,122.141"/>
<path fill="#041E41" d="M171.958,122.141c-0.729,0.055-1.453,0.105-2.17,0.163c-0.019,1.131-0.035,2.26-0.053,3.392
	c0,0,0.958-0.052,2.133-0.113c0.019-0.431,0.039-0.862,0.061-1.294C171.938,123.574,171.947,122.859,171.958,122.141"/>
<path fill="#041E41" d="M171.958,122.141c-0.729,0.055-1.453,0.105-2.17,0.163c-0.019,1.131-0.035,2.26-0.053,3.392
	c0,0,0.958-0.052,2.133-0.113c0.019-0.431,0.039-0.862,0.061-1.294C171.938,123.574,171.947,122.859,171.958,122.141"/>
<path fill="#ED174C" d="M137.469,127.408c-0.005-0.04-0.005-0.077,0-0.077c0-0.434-0.116-0.949-0.303-1.034
	c-0.185-0.045-0.622-0.028-1.925,0.198c-0.073,6.548-0.152,12.804-0.261,19.347c0.815-0.173,1.518-0.251,2.341-0.394
	c0.032-3.269,0.186-7.301,0.221-10.868c0.035-3.427,0.112-6.182-0.036-7.1C137.507,127.447,137.469,127.447,137.469,127.408"/>
<path fill="#041E41" d="M137.469,127.408c-0.005-0.04-0.005-0.077,0-0.077c0-0.434-0.116-0.949-0.303-1.034
	c-0.185-0.045-0.622-0.028-1.925,0.198c-0.073,6.548-0.152,12.804-0.261,19.347c0.815-0.173,1.518-0.251,2.341-0.394
	c0.032-3.269,0.186-7.301,0.221-10.868c0.035-3.427,0.112-6.182-0.036-7.1C137.507,127.447,137.469,127.447,137.469,127.408"/>
<path fill="#ED174C" d="M141.256,151.969c-6.129,0.919-11.921,1.935-18.078,3.097c0.149-9.015,0.262-17.634,0.373-26.617
	c-1.706,0.047-2.897-0.278-3.856-0.957c-1.333-0.997-1.48-2.424-1.48-3.221c0-0.288,0.036-0.546,0.036-0.583
	c0.107-0.374,0.114-0.726,0.209-1.13c-1.28,0.239-2.555,0.473-3.839,0.726c-0.407,0.084-0.82,0.163-1.228,0.247
	c-0.12,0.702-0.241,1.412-0.371,2.117c-0.008,0.071-0.021,0.145-0.031,0.21c-0.017,0.188-0.03,0.381-0.042,0.572
	c-0.032,2.358,1.189,3.763,2.19,4.505c0.926,0.67,1.964,1.019,3.111,1.192c-0.036,2.792-0.372,26.917-0.372,26.917
	c0.915-0.171,1.829-0.346,2.744-0.519c6.265-1.202,11.981-2.152,17.92-3.015c3.589-0.555,6.344-2.271,7.927-4.759
	c0.005-0.412,0.01-0.823,0.02-1.232C145.165,150.765,143.386,151.621,141.256,151.969"/>
<path fill="#041E41" d="M141.256,151.969c-6.129,0.919-11.921,1.935-18.078,3.097c0.149-9.015,0.262-17.634,0.373-26.617
	c-1.706,0.047-2.897-0.278-3.856-0.957c-1.333-0.997-1.48-2.424-1.48-3.221c0-0.288,0.036-0.546,0.036-0.583
	c0.107-0.374,0.114-0.726,0.209-1.13c-1.28,0.239-2.555,0.473-3.839,0.726c-0.407,0.084-0.82,0.163-1.228,0.247
	c-0.12,0.702-0.241,1.412-0.371,2.117c-0.008,0.071-0.021,0.145-0.031,0.21c-0.017,0.188-0.03,0.381-0.042,0.572
	c-0.032,2.358,1.189,3.763,2.19,4.505c0.926,0.67,1.964,1.019,3.111,1.192c-0.036,2.792-0.372,26.917-0.372,26.917
	c0.915-0.171,1.829-0.346,2.744-0.519c6.265-1.202,11.981-2.152,17.92-3.015c3.589-0.555,6.344-2.271,7.927-4.759
	c0.005-0.412,0.01-0.823,0.02-1.232C145.165,150.765,143.386,151.621,141.256,151.969"/>
<path fill="#ED174C" d="M146.488,149.518c-0.007,0.41-0.01,0.82-0.018,1.234c0.488-0.768,0.864-1.613,1.118-2.514
	C147.269,148.698,146.9,149.126,146.488,149.518"/>
<path fill="#041E41" d="M146.488,149.518c-0.007,0.41-0.01,0.82-0.018,1.234c0.488-0.768,0.864-1.613,1.118-2.514
	C147.269,148.698,146.9,149.126,146.488,149.518"/>
<path fill="#041E41" d="M146.488,149.518c-0.007,0.41-0.01,0.82-0.018,1.234c0.488-0.768,0.864-1.613,1.118-2.514
	C147.269,148.698,146.9,149.126,146.488,149.518"/>
<path fill="#ED174C" d="M226.031,126.81c0,0.216-0.039,0.396-0.039,0.618v0.477c-0.037,1.769-0.479,3.022-1.472,4.159
	c-0.049,0.157-0.104,0.315-0.16,0.462c0.759,1.023,1.332,2.277,1.332,3.389c-0.019,2.193-0.043,4.32-0.074,6.444
	c0.397,2.715,0.781,5.487,1.15,8.294c3.01,1.724,6.936,2.08,9.158,2.266c0.149,0.005,0.304,0.02,0.455,0.024
	c6.099,0.467,10.523-0.295,13.238-2.167c0.352-0.247,0.661-0.512,0.954-0.796c0.006-0.649,0.019-1.306,0.028-1.958
	c-2.315,1.188-5.931,1.613-10.724,1.267c-3.905-0.326-11.912-0.745-11.982-7.622c0.108-6.226,0.184-12.199,0.257-18.425
	c0.103-3.99,2.105-6.367,6.187-7.215c-0.723,0.012-1.442,0.052-2.166,0.15c-2.234,0.265-4.712,0.959-6.547,2.555
	C226.131,120.634,226.081,123.258,226.031,126.81"/>
<path fill="#041E41" d="M226.031,126.81c0,0.216-0.039,0.396-0.039,0.618v0.477c-0.037,1.769-0.479,3.022-1.472,4.159
	c-0.049,0.157-0.104,0.315-0.16,0.462c0.759,1.023,1.332,2.277,1.332,3.389c-0.019,2.193-0.043,4.32-0.074,6.444
	c0.397,2.715,0.781,5.487,1.15,8.294c3.01,1.724,6.936,2.08,9.158,2.266c0.149,0.005,0.304,0.02,0.455,0.024
	c6.099,0.467,10.523-0.295,13.238-2.167c0.352-0.247,0.661-0.512,0.954-0.796c0.006-0.649,0.019-1.306,0.028-1.958
	c-2.315,1.188-5.931,1.613-10.724,1.267c-3.905-0.326-11.912-0.745-11.982-7.622c0.108-6.226,0.184-12.199,0.257-18.425
	c0.103-3.99,2.105-6.367,6.187-7.215c-0.723,0.012-1.442,0.052-2.166,0.15c-2.234,0.265-4.712,0.959-6.547,2.555
	C226.131,120.634,226.081,123.258,226.031,126.81"/>
<path fill="#FFFFFF" d="M225.546,148.288c-0.366-0.01-0.724-0.022-1.081-0.041c-0.005,0.186-0.01,0.373-0.013,0.562
	c0.654,0.747,1.45,1.349,2.316,1.843c-0.369-2.809-0.753-5.579-1.15-8.295C225.593,144.319,225.563,146.28,225.546,148.288"/>
<path fill="#041E41" d="M225.546,148.288c-0.366-0.01-0.724-0.022-1.081-0.041c-0.005,0.186-0.01,0.373-0.013,0.562
	c0.654,0.747,1.45,1.349,2.316,1.843c-0.369-2.809-0.753-5.579-1.15-8.295C225.593,144.319,225.563,146.28,225.546,148.288"/>
<path fill="#ED174C" d="M241.438,140.949c0.148,0.063,0.302,0.058,0.445,0.055c0.119-0.405,0.078-0.837,0.119-1.312
	c0.03-4.367,0.103-8.516,0.141-12.889c0.039-1.638,0-3.094-0.22-3.667c0-0.073-0.151-0.218-1.379-0.357
	c-0.146,0-0.255,0.005-0.335,0.005c-0.106,0.694-0.144,1.388-0.189,2.15v0.768c-0.066,4.402-0.113,8.626-0.177,13.032
	c0,0.038,0.038,0.074,0,0.074v0.51c-0.039,0.513,0,1.054,0.26,1.302C240.282,140.799,240.695,140.93,241.438,140.949"/>
<path fill="#041E41" d="M241.438,140.949c0.148,0.063,0.302,0.058,0.445,0.055c0.119-0.405,0.078-0.837,0.119-1.312
	c0.03-4.367,0.103-8.516,0.141-12.889c0.039-1.638,0-3.094-0.22-3.667c0-0.073-0.151-0.218-1.379-0.357
	c-0.146,0-0.255,0.005-0.335,0.005c-0.106,0.694-0.144,1.388-0.189,2.15v0.768c-0.066,4.402-0.113,8.626-0.177,13.032
	c0,0.038,0.038,0.074,0,0.074v0.51c-0.039,0.513,0,1.054,0.26,1.302C240.282,140.799,240.695,140.93,241.438,140.949"/>
<path fill="#ED174C" d="M224.244,132.369c0.038,0.052,0.073,0.108,0.116,0.158c0.057-0.151,0.109-0.304,0.16-0.462
	C224.431,132.167,224.341,132.269,224.244,132.369"/>
<path fill="#041E41" d="M224.244,132.369c0.038,0.052,0.073,0.108,0.116,0.158c0.057-0.151,0.109-0.304,0.16-0.462
	C224.431,132.167,224.341,132.269,224.244,132.369"/>
<path fill="#041E41" d="M224.244,132.369c0.038,0.052,0.073,0.108,0.116,0.158c0.057-0.151,0.109-0.304,0.16-0.462
	C224.431,132.167,224.341,132.269,224.244,132.369"/>
<path fill="#FFFFFF" d="M224.001,148.229c0.139,0.203,0.292,0.394,0.453,0.582c0.002-0.19,0.005-0.379,0.01-0.564
	C224.309,148.242,224.149,148.237,224.001,148.229"/>
<path fill="#041E41" d="M224.001,148.229c0.139,0.203,0.292,0.394,0.453,0.582c0.002-0.19,0.005-0.379,0.01-0.564
	C224.309,148.242,224.149,148.237,224.001,148.229"/>
<path fill="#041E41" d="M224.001,148.229c0.139,0.203,0.292,0.394,0.453,0.582c0.002-0.19,0.005-0.379,0.01-0.564
	C224.309,148.242,224.149,148.237,224.001,148.229"/>
<path fill="#ED174C" d="M250.603,148.021c-0.01,0.652-0.022,1.309-0.03,1.96c0.944-0.921,1.543-2.018,1.789-3.272
	C251.896,147.219,251.311,147.658,250.603,148.021"/>
<path fill="#041E41" d="M250.603,148.021c-0.01,0.652-0.022,1.309-0.03,1.96c0.944-0.921,1.543-2.018,1.789-3.272
	C251.896,147.219,251.311,147.658,250.603,148.021"/>
<path fill="#041E41" d="M250.603,148.021c-0.01,0.652-0.022,1.309-0.03,1.96c0.944-0.921,1.543-2.018,1.789-3.272
	C251.896,147.219,251.311,147.658,250.603,148.021"/>
<path fill="#003DA6" d="M215.716,127.822c0.116-1.53,0.186-1.496,0.154-4.301c0.107-3.639-1.007-3.512-3.653-3.607
	c-0.629,0.005-1.265,0.01-1.823-0.029c-0.035,3.17-0.076,6.191-0.11,9.36c1.262,0.024,2.604,0.053,3.866,0.079
	C215.157,129.354,215.716,128.509,215.716,127.822 M214.08,127.799v0.04c0,0.071,0,0.141-0.073,0.216
	c-0.71-0.03-1.378-0.067-2.09-0.055c0.036-2.298,0.036-4.515,0.078-6.811c0.079,0,0.146,0.035,0.222,0.035
	c0.038-0.006,0.262-0.006,0.184-0.006c0.637-0.002,1.377,0.028,1.57,0.136c0.036,0.038,0.299,0.327,0.253,1.891v0.254v1.204
	c-0.03,1.457,0,1.708-0.104,2.654C214.119,127.51,214.08,127.648,214.08,127.799"/>
<path fill="#003DA6" d="M200.413,114.084c-0.005,0.098-0.005,0.193-0.005,0.291c-0.147,11.146-0.335,21.831-0.479,33.004
	c3.908-0.058,7.748-0.033,11.697,0.056c0.07-4.48,0.107-8.738,0.184-13.213h0.227c2.716,0.086,2.642,1.144,2.642,1.506
	c-0.037,0.986,0,3.857,0.074,5.237c0,0.258,0.033,0.439,0.033,0.657c0.038,1.929,0.11,2.148,0.224,2.293
	c0.763,2.264,2.848,3.678,6.126,4.172c0.084,0.015,0.158,0.035,0.245,0.047c0.038,0,0.072-0.04,0.072,0
	c0.856,0.032,1.699,0.065,2.549,0.095c0.148,0.008,0.308,0.016,0.463,0.018c0.36,0.016,0.714,0.029,1.083,0.042
	c0.015-2.009,0.045-3.97,0.073-5.931c0.029-2.125,0.055-4.254,0.071-6.444c0-1.112-0.573-2.368-1.331-3.386
	c-0.042-0.051-0.078-0.106-0.118-0.158c0.099-0.103,0.187-0.206,0.276-0.307c0.996-1.136,1.438-2.39,1.475-4.157v-0.477
	c0-0.223,0.037-0.404,0.037-0.62c0.051-3.552,0.103-6.173-0.404-8.082c-0.593-2.216-1.948-3.465-4.963-4.091
	c-0.394-0.081-0.809-0.154-1.255-0.212c-0.034,0-0.082-0.04-0.118-0.04h-0.072c-1.353-0.05-2.697-0.092-4.032-0.127
	C210.25,114.117,205.362,114.066,200.413,114.084 M219.18,115.665c5.105,0.66,5.325,2.214,5.216,11.029v0.648
	c0,0.147-0.04,0.334-0.04,0.477c0,1.894-0.483,3.105-2.122,4.4c0.075,0.15,0.224,0.248,0.336,0.354
	c0.861,0.978,1.452,2.312,1.525,3.293c-0.073,3.752-0.109,7.318-0.146,11.104c-0.821-0.061-1.568-0.087-2.389-0.113
	c-2.489-0.326-4.277-1.289-4.984-3.213c-0.112-0.289-0.188-2.001-0.188-2.001c0-0.472-0.11-4.656-0.11-5.896
	c0.039-1.964-1.902-2.709-4.241-2.8c-0.64-0.037-1.192-0.027-1.83-0.066c-0.076,4.517-0.112,8.774-0.188,13.217
	c-2.794-0.024-5.544-0.017-8.452-0.022c0.15-10.411,0.297-20.343,0.446-30.714C207.79,115.363,213.408,115.439,219.18,115.665"/>
<path fill="#003DA6" d="M266.192,151.8c0.345,0.048,0.693,0.095,1.043,0.147c0.123-7.362,0.228-14.517,0.328-21.748
	c0.047-3.426,0.098-6.87,0.144-10.362c0.006-0.299,0.01-0.59,0.01-0.891c-0.555-0.042-1.072-0.13-1.596-0.217
	c-3.338-0.46-6.496-0.904-9.808-1.325c0,0.266-0.005,0.522-0.011,0.791c-0.152,10.89-0.324,21.328-0.476,32.242
	C259.34,150.83,262.729,151.307,266.192,151.8 M257.912,118.872c2.781,0.359,5.39,0.717,8.173,1.137
	c-0.146,10.272-0.259,20.136-0.405,30.445c-2.794-0.384-5.428-0.741-8.217-1.102C257.609,139.047,257.766,129.175,257.912,118.872"
	/>
<path fill="#003DA6" d="M195.039,120.499c0.468-0.208,0.909-0.449,1.279-0.75c0.294-0.234,0.537-0.479,0.76-0.733
	c1.184-1.354,1.325-2.895,1.325-3.479v-0.218c0-0.315-0.015-0.633-0.047-0.947c-0.01-0.087-0.01-0.171-0.028-0.257
	c-0.559,0-1.081-0.005-1.527-0.005c-7.408,0.11-14.338,0.387-21.63,0.862v0.032c-0.04,2.386-0.078,4.674-0.111,7.024
	c1.972-0.14,3.87-0.253,5.842-0.365c-0.11,8.948-0.226,17.428-0.336,26.383c3.526-0.248,7.056-0.374,10.643-0.481
	c0.35-0.013,0.698-0.028,1.052-0.04c0.132-7.973,0.236-15.674,0.366-23.587c0.013-0.93,0.022-1.854,0.041-2.787
	C193.519,121.043,194.324,120.825,195.039,120.499 M191.028,119.935c-0.11,8.909-0.227,17.428-0.371,26.379
	c-2.867,0.084-5.553,0.198-8.451,0.336c0.113-8.915,0.223-17.434,0.372-26.344c-2.013,0.116-3.913,0.19-5.88,0.334
	c0.035-1.526,0.035-2.979,0.071-4.474c6.778-0.416,13.253-0.662,19.993-0.745C196.763,115.415,197.177,120.018,191.028,119.935"/>
<path fill="#003DA6" d="M275.327,127.154c-0.106,8.812-0.22,17.192-0.333,26.007c3.568,0.597,6.988,1.197,10.527,1.854
	c0.361,0.065,0.723,0.134,1.082,0.2c0.098-7.672,0.221-15.049,0.323-22.666c0.017-1.139,0.034-2.261,0.047-3.41
	c1.447,0.163,2.635-0.024,3.631-0.564c0.354-0.204,0.628-0.444,0.869-0.693c1.066-1.097,1.21-2.485,1.21-3.045v-0.221
	c-0.077-0.426-0.077-0.791-0.077-1.194c-0.519-0.108-0.96-0.226-1.52-0.337c-7.226-1.495-14.198-2.734-21.474-3.83
	c0,0.298-0.006,0.597-0.006,0.888c-0.006,2.027-0.037,4.034-0.064,6.065C271.507,126.516,273.366,126.823,275.327,127.154
	 M271.209,120.779c6.717,1.043,13.137,2.201,19.878,3.578c0,0,0.295,4.656-5.705,3.276c-0.118,8.778-0.262,17.195-0.372,26.01
	c-2.855-0.555-5.601-1.015-8.378-1.485c0.107-8.778,0.216-17.187,0.329-26c-1.967-0.332-3.826-0.673-5.792-0.973
	C271.169,123.694,271.209,122.272,271.209,120.779"/>
<path fill="#003DA6" d="M169.788,122.305c0.72-0.057,1.44-0.11,2.17-0.163c0.364-0.03,0.725-0.056,1.094-0.085
	c0-2.321,0.033-4.579,0.073-6.942v-0.007c-0.094,0.007-0.187,0.017-0.284,0.021c-0.438,0.028-0.893,0.068-1.317,0.093
	c-0.55,0.043-1.088,0.088-1.636,0.136c-5.923,0.476-11.647,1.046-17.673,1.726v0.156c-0.144,11.296-0.331,22.08-0.481,33.345
	c6.665-0.829,13.212-1.5,19.874-1.99c0.357-0.024,0.71-0.058,1.067-0.085c0.039-2.403,0.079-4.731,0.079-7.169
	c-3.129,0.263-6.185,0.511-9.457,0.818c0.016-0.678,0.029-1.351,0.044-2.025c0.02-1.132,0.038-2.273,0.038-3.435
	c1.877-0.19,3.637-0.355,5.418-0.479c0.363-0.024,0.724-0.05,1.091-0.073c0.034-3.058,0.071-5.935,0.108-8.953
	c-2.162,0.128-4.241,0.332-6.47,0.557c0-0.457,0.008-0.896,0.01-1.34c0.01-1.196,0.032-2.377,0.062-3.57
	C165.711,122.642,167.748,122.466,169.788,122.305 M161.958,121.703c-0.04,2.545-0.04,4.982-0.07,7.494
	c2.155-0.23,4.315-0.421,6.467-0.59c-0.029,2.148-0.074,4.225-0.108,6.368c-2.155,0.168-4.274,0.363-6.47,0.586
	c-0.044,2.727-0.077,5.313-0.113,8.043c3.269-0.346,6.32-0.584,9.451-0.842c0,1.528-0.035,3.061-0.035,4.583
	c-2.983,0.226-5.812,0.476-8.789,0.788c-3.086,0.309-5.875,0.582-8.919,0.942c0.15-10.443,0.297-20.442,0.45-30.878
	c5.94-0.7,11.712-1.22,17.667-1.67c-0.043,1.462-0.043,2.913-0.076,4.369C168.281,121.154,165.237,121.398,161.958,121.703"/>
<path fill="#003DA6" d="M118.212,124.271c0,0.798,0.15,2.225,1.481,3.221c0.96,0.679,2.152,1.004,3.858,0.958
	c-0.113,8.983-0.223,17.601-0.376,26.616c6.161-1.162,11.953-2.177,18.082-3.097c2.129-0.347,3.909-1.204,5.231-2.451
	c0.414-0.392,0.781-0.82,1.1-1.282c0.93-1.337,1.459-2.965,1.507-4.816c0.033-4.912,0.113-9.644,0.189-14.553
	c0.075-5.654,0.162-8.894-2.359-10.062c-1.066-0.487-2.584-0.617-4.777-0.392h-0.037c-8.063,1.171-15.709,2.506-23.643,4.091
	c-0.002,0.016-0.002,0.032-0.008,0.052c-0.095,0.405-0.103,0.758-0.214,1.132C118.246,123.724,118.212,123.982,118.212,124.271
	 M119.879,123.535c7.561-1.498,14.729-2.721,22.195-3.812c6.021-0.683,5.719,1.404,5.574,10.351
	c-0.074,4.583-0.153,8.953-0.189,13.537c-0.187,3.921-2.566,6.448-6.168,7.084c-5.607,0.801-10.873,1.734-16.479,2.755
	c0.15-8.944,0.261-17.526,0.372-26.47C119.063,127.86,119.879,123.533,119.879,123.535"/>
<path fill="#003DA6" d="M139.101,127.083c0,0,0.148-1.849-1.262-2.099c-0.009,0-0.555-0.199-4.195,0.521
	c-0.111,7.421-0.185,14.479-0.3,21.901c1.893-0.306,3.638-0.621,5.531-0.895C138.875,146.51,139.355,129.785,139.101,127.083
	 M137.542,134.579c-0.038,3.566-0.19,7.601-0.224,10.87c-0.818,0.143-1.523,0.218-2.338,0.394
	c0.111-6.542,0.188-12.798,0.261-19.347c1.303-0.223,1.74-0.239,1.925-0.198c0.186,0.085,0.303,0.6,0.303,1.034
	c-0.006,0-0.006,0.037,0,0.077c0,0.036,0.036,0.042,0.036,0.076C137.654,128.399,137.576,131.157,137.542,134.579"/>
<path fill="#003DA6" d="M241.401,142.261c0.631,0.049,1.263,0.036,1.9,0.01c0.292-0.805,0.292-1.532,0.292-2.405
	c0.072-4.37,0.112-8.558,0.186-12.928c0.037-4.299-0.036-5.09-3.195-5.44c-0.631-0.054-1.123-0.081-1.751-0.023
	c-0.369,1.317-0.404,2.697-0.404,4.086c-0.08,4.403-0.113,8.625-0.19,13.071C238.197,140.338,238.053,141.916,241.401,142.261
	 M239.84,139.318v-0.509c0.041,0,0-0.038,0-0.075c0.069-4.406,0.113-8.63,0.183-13.032v-0.766c0.043-0.765,0.08-1.458,0.185-2.149
	c0.085,0,0.193-0.005,0.34-0.01c1.225,0.141,1.372,0.286,1.372,0.357c0.222,0.576,0.266,2.032,0.222,3.672
	c-0.033,4.37-0.108,8.519-0.139,12.886c-0.043,0.475,0,0.907-0.119,1.312c-0.141,0.002-0.297,0.008-0.445-0.055
	c-0.744-0.02-1.155-0.15-1.335-0.326C239.84,140.373,239.804,139.831,239.84,139.318"/>
<path fill="#003DA6" d="M228.156,123.241c-0.079,6.226-0.151,12.199-0.263,18.425c0.075,6.877,8.08,7.295,11.985,7.622
	c4.793,0.347,8.411-0.078,10.724-1.267c0.708-0.366,1.292-0.803,1.759-1.312c0.763-0.844,1.189-1.872,1.24-3.108
	c0-0.249,0.037-0.51,0.037-0.763c0.076-6.225,0.184-12.159,0.26-18.384c0.017-3.148-1.116-5.07-2.864-6.292
	c-2.398-1.676-5.952-2.032-9.335-2.335c-2.159-0.194-4.165-0.287-6.025-0.026c-0.471,0.056-0.912,0.134-1.334,0.224
	C230.257,116.874,228.253,119.251,228.156,123.241 M236.042,117.069c1.528-0.22,3.388-0.16,5.621,0.034
	c6.132,0.549,10.555,1.039,10.599,7.156c-0.072,6.227-0.151,12.16-0.224,18.381c0,0.257-0.038,0.515-0.038,0.771
	c-0.116,4.222-5.423,5.118-12.094,4.566c-6.508-0.55-10.304-1.648-10.374-6.237c0.07-6.222,0.148-12.159,0.262-18.421
	C229.939,119.025,232.43,117.484,236.042,117.069"/>
<path fill="#FFFFFF" d="M201.565,146.075c2.91,0.005,5.658,0,8.453,0.021c0.074-4.441,0.113-8.7,0.189-13.216
	c0.639,0.039,1.188,0.028,1.824,0.065c2.342,0.092,4.281,0.835,4.246,2.8c0,1.241,0.11,5.423,0.11,5.897c0,0,0.072,1.711,0.186,2
	c0.711,1.926,2.496,2.89,4.988,3.216c0.82,0.024,1.567,0.052,2.385,0.11c0.036-3.785,0.073-7.351,0.146-11.1
	c-0.073-0.983-0.665-2.318-1.521-3.297c-0.116-0.104-0.267-0.201-0.337-0.352c1.637-1.297,2.12-2.508,2.12-4.398
	c0-0.145,0.038-0.329,0.038-0.479v-0.649c0.107-8.815-0.11-10.366-5.214-11.028c-5.774-0.227-11.392-0.301-17.169-0.306
	C201.865,125.73,201.716,135.669,201.565,146.075 M210.394,119.887c0.558,0.039,1.194,0.034,1.823,0.028
	c2.646,0.093,3.761-0.033,3.653,3.605c0.031,2.807-0.038,2.774-0.154,4.302c0,0.686-0.556,1.533-1.564,1.503
	c-1.265-0.027-2.606-0.055-3.87-0.079C210.32,126.078,210.355,123.054,210.394,119.887"/>
<path fill="#FFFFFF" d="M266.085,120.009c-2.783-0.421-5.392-0.779-8.173-1.139c-0.146,10.306-0.303,20.178-0.449,30.481
	c2.786,0.36,5.428,0.721,8.217,1.103C265.826,140.146,265.939,130.283,266.085,120.009"/>
<path fill="#FFFFFF" d="M196.763,115.422c-6.74,0.083-13.219,0.329-19.993,0.745c-0.037,1.496-0.037,2.948-0.071,4.474
	c1.969-0.144,3.864-0.218,5.88-0.336c-0.145,8.916-0.263,17.432-0.372,26.349c2.898-0.139,5.584-0.254,8.451-0.339
	c0.143-8.952,0.263-17.468,0.372-26.379C197.173,120.015,196.763,115.415,196.763,115.422"/>
<path fill="#FFFFFF" d="M276.632,152.158c2.777,0.471,5.522,0.93,8.378,1.486c0.113-8.815,0.254-17.234,0.372-26.01
	c6.003,1.378,5.705-3.276,5.705-3.276c-6.741-1.377-13.161-2.537-19.878-3.577c0,1.49-0.038,2.913-0.038,4.403
	c1.967,0.302,3.823,0.647,5.79,0.976C276.848,134.97,276.739,143.379,276.632,152.158"/>
<path fill="#FFFFFF" d="M171.488,116.526c-5.953,0.45-11.723,0.971-17.668,1.67c-0.153,10.436-0.299,20.436-0.449,30.878
	c3.047-0.358,5.833-0.636,8.923-0.942c2.973-0.312,5.805-0.562,8.783-0.788c0-1.522,0.037-3.055,0.037-4.583
	c-3.129,0.258-6.181,0.497-9.452,0.84c0.039-2.727,0.075-5.313,0.113-8.041c2.2-0.223,4.315-0.42,6.477-0.586
	c0.029-2.143,0.072-4.217,0.104-6.368c-2.153,0.168-4.314,0.36-6.471,0.59c0.037-2.511,0.037-4.949,0.071-7.494
	c3.278-0.305,6.324-0.547,9.453-0.808C171.447,119.439,171.447,117.988,171.488,116.526"/>
<path fill="#FFFFFF" d="M125.184,126.979c-0.111,8.944-0.222,17.526-0.374,26.47c5.604-1.021,10.874-1.954,16.481-2.755
	c3.603-0.636,5.979-3.163,6.166-7.084c0.036-4.584,0.116-8.954,0.189-13.537c0.145-8.946,0.447-11.033-5.572-10.351
	c-7.468,1.091-14.633,2.314-22.197,3.812C119.878,123.533,119.062,127.86,125.184,126.979 M133.645,125.504
	c3.638-0.72,4.188-0.521,4.196-0.521c1.409,0.25,1.259,2.099,1.259,2.099c0.257,2.702-0.224,19.428-0.224,19.428
	c-1.895,0.274-3.641,0.589-5.535,0.895C133.459,139.983,133.53,132.926,133.645,125.504"/>
<path fill="#FFFFFF" d="M229.528,141.74c0.076,4.586,3.872,5.687,10.378,6.237c6.671,0.549,11.978-0.342,12.096-4.566
	c0-0.255,0.033-0.514,0.033-0.771c0.078-6.218,0.154-12.157,0.227-18.378c-0.042-6.123-4.467-6.61-10.604-7.162
	c-2.23-0.191-4.088-0.249-5.613-0.031c-3.615,0.415-6.105,1.955-6.25,6.247C229.681,129.583,229.604,135.518,229.528,141.74
	 M238.238,138.634c0.074-4.448,0.112-8.669,0.188-13.073c0-1.388,0.038-2.772,0.411-4.083c0.624-0.061,1.116-0.036,1.747,0.021
	c3.159,0.35,3.23,1.142,3.195,5.439c-0.076,4.373-0.111,8.558-0.186,12.928c0,0.873,0,1.598-0.292,2.405
	c-0.635,0.026-1.27,0.04-1.9-0.01C238.053,141.913,238.199,140.339,238.238,138.634"/>
<path fill="#003DA6" d="M113.088,199.477v-22.49v-9.539c-1.107,0.178-2.256,0.329-3.399,0.515
	c-6.999,1.034-13.761,2.178-20.799,3.429v0.328c0.04,25.7-0.076,50.388,0.121,76.095c8.03-1.391,15.828-2.667,23.852-3.836
	c0.076-0.01,0.152-0.024,0.226-0.033V199.477z M109.689,241.546c-5.853,0.883-11.43,1.729-17.32,2.763
	c0-23.9-0.074-46.729-0.074-70.63c5.89-1.067,11.542-1.919,17.395-2.805V241.546z"/>
<path fill="#003DA6" d="M162.513,162.444c-0.183,0.007-0.364,0.015-0.557,0.021c-11.147,0.705-25.031,2.029-27.952,2.402
	c-0.234,0.031-0.515,0.106-0.792,0.106c-0.058,0.007-0.118,0.018-0.176,0.028c-1.112,0.135-2.158,0.345-3.144,0.616
	c-0.02,0.007-0.042,0.01-0.06,0.012c-5.138,1.438-8.526,4.685-9.508,9.302c0,0.557-0.195,1.104-0.195,1.696v-0.256
	c-0.201,1.362-0.517,5.896-0.517,10.291c0,3.315,0.157,6.344,0.908,8.038c3.086,6.862,9.811,8.564,15.458,9.518
	c0.2,0,0.356,0.042,0.555,0.069c0,0.08,0.21,0.086,0.279,0.08v-0.005c0.029,0,0.021,0,0,0.005c0,7.486,0.113,14.636,0.113,22.126
	c-2.577,0.285-5.088,0.565-7.571,0.857c-2.459,0.286-4.896,0.594-7.354,0.928c-0.06,0.006-0.121,0.016-0.178,0.025
	c-0.092,0.01-0.182,0.021-0.268,0.039c0,4.787,0.076,9.473,0.076,14.306c7.746-0.994,15.104-1.771,23.049-2.503
	c0,0,0.075-0.008,0.042,0c9.021-1.046,16.641-4.327,16.641-15.645c0-5.715,0.083-10.393,0.083-14.49c0-3.817-0.016-6.836-0.048-9.15
	c-0.032-2.084-0.077-3.593-0.153-4.573c-0.233-2.581-1.624-4.541-4.268-6.198c-0.911-0.591-1.899-1.107-3.444-1.659
	c-0.946-0.407-2.015-0.736-3.161-1.107c-0.156-0.035-0.354,0-0.354-0.11c-0.763-0.256-1.475-0.497-2.139-0.74
	c-3.479-1.256-5.581-2.463-5.61-5.125v-1.66c3.992-0.401,7.864-0.738,11.82-1.037c4.19-0.364,7.274-2.172,9.372-5.454
	c1.346-2.177,1.819-4.133,1.819-4.683c0,0,0.035-0.039,0.035-0.076v-0.111c0-0.517,0.08-1.031,0.08-1.625
	c0-0.583-0.08-1.138-0.08-1.767c0-0.923-0.235-1.734-0.235-2.652h-0.036C164.123,162.347,163.363,162.404,162.513,162.444
	 M161.918,168.33c0,0-0.281,1.809-1.423,3.615c-1.309,1.883-2.967,3.468-6.407,3.806c-5.104,0.401-10.08,0.809-15.222,1.36v4.57
	c0.239,5.128,4.942,6.751,9.648,8.264c1.146,0.37,2.295,0.738,3.439,1.18c1.109,0.371,1.98,0.883,2.929,1.364
	c1.696,1.106,2.764,2.288,2.963,4.244c0.358,5.31,0.155,28.991,0.118,29.025c0,0.516-0.224,3.129-0.673,4.182
	c-2.069,4.848-6.798,6.37-12.691,7.184c-6.799,0.556-12.966,1.356-19.608,2.204c0-2.871-0.038-5.678-0.038-8.517
	c5.296-0.701,10.274-1.256,15.371-1.736c0-8.957-0.112-17.476-0.112-26.447c-0.358-0.621-1.028-0.844-1.584-1.026
	c-0.593-0.144-1.265-0.186-1.661-0.26c-6.245-0.996-10.911-2.727-13.245-8.042c-1.423-3.572-0.197-16.926-0.197-17.113
	c0,0-0.08-0.48,0.118-1.178c0.994-4.24,4.353-6.607,9.646-7.12c0.241-0.145,0.558-0.076,0.791-0.145
	c3.637-0.444,22.698-2.068,27.838-2.36C162.117,166.082,162.117,167.186,161.918,168.33"/>
<path fill="#003DA6" d="M332.161,174.965c-7.44-1.559-14.637-2.95-22.121-4.235v0.147v16.152c-0.162-0.63-0.365-1.104-0.519-1.694
	c-1.538-4.212-3.724-7.531-6.234-10.142c-0.287-0.297-0.575-0.581-0.873-0.859c-5.843-5.551-13.182-7.536-18.337-7.851
	c-0.752-0.042-1.466-0.053-2.116-0.032c0,0-1.791,0.008-2.731,0.043v0.065v76.057c7.954,0.991,15.819,2.099,23.726,3.384v-17.956
	c3.604,8.777,7.914,19.32,7.914,19.32c7.98,1.407,15.495,2.846,23.249,4.5v-76.404v-0.091
	C333.46,175.236,332.817,175.103,332.161,174.965 M330.719,248.257c-5.857-1.218-11.435-2.325-17.479-3.396
	c-4.55-11.322-9.095-22.094-13.639-33.307v30.983c-5.854-0.88-11.114-1.656-17.005-2.434c0-23.937,0.043-46.806,0.043-70.739
	c0,0,17.311-0.74,23.601,16.229c2.097,6.153,3.957,12.055,5.813,18.181c0.595,1.512,0.832,2.914,1.386,4.387v-33.93
	c5.846,1.069,11.385,2.14,17.28,3.352V248.257z"/>
<path fill="#003DA6" d="M361.716,199.198v-1.695c3.948,1.073,7.862,2.099,11.814,3.174c3.997,1.106,7.123,0.44,9.177-1.991
	c1.545-1.554,2.154-4.274,2.154-4.352c0-0.292-0.008-0.583-0.019-0.878c-0.008-0.467-0.022-0.943-0.046-1.415
	c-0.062-1.272-0.127-2.537-0.132-3.801v-0.033c-0.302-0.088-0.607-0.181-0.909-0.278c-0.725-0.236-1.444-0.49-2.153-0.71
	c-0.105-0.033-0.218-0.068-0.321-0.102c-7.781-2.337-19.076-5.258-24.901-6.75c-2.118-0.535-3.521-0.89-3.761-0.95h0.071
	c0.019,0,0.03,0,0.046,0c-0.072-0.016-0.134-0.027-0.2-0.04c-7.075-1.684-11.63,0.581-12.771,5.621c0,0.555-0.796,7.03-0.711,11.542
	c0.06,3.25,0.156,6.348,0.912,8.306c3.08,7.962,9.807,12.093,15.46,15.005c0.157,0.078,0.392,0.185,0.552,0.266
	c0.078,0.035,0.273,0.072,0.273,0.141c0.197,2.293,0.123,17.783,0.123,22.205c-2.242-0.543-4.396-1.053-6.529-1.544
	c-2.906-0.685-5.779-1.346-8.816-2.064v0.038v0.005v14.299c7.949,1.771,15.146,3.54,23.095,5.607c0,0,0.079,0.038,0.035,0.038
	c8.383,1.806,13.688,0.182,16.176-4.612c0.418-0.812,0.51-1.917,0.51-1.917v-0.107c0-2.876,0.075-8.583,0.08-14.559v-0.713
	c0-5.529-0.052-10.84-0.172-14.096c-0.005-0.297-0.019-0.582-0.03-0.846c-0.023-0.468-0.047-0.873-0.069-1.213
	c-0.2-2.659-1.584-5.097-4.232-7.678c-0.949-0.912-1.904-1.801-3.438-2.838c-0.952-0.734-2.1-1.434-3.053-2.173
	c-0.112-0.076-0.353-0.222-0.47-0.335c-0.952-0.656-1.836-1.275-2.639-1.863C363.633,203.567,361.716,201.673,361.716,199.198
	 M367.959,210.01c1.143,0.735,2.293,1.547,3.436,2.361c0.953,0.81,1.978,1.584,2.927,2.434c1.702,1.697,2.771,3.278,2.968,5.231
	c0.318,5.274,0.156,29.252,0.156,31.317c0,0,0.039,0.479-0.354,1.035c-1.902,4.237-5.885,5.462-13.048,3.501
	c-6.622-1.811-13.007-3.281-19.61-4.831v-8.522c5.097,1.187,10.239,2.362,15.344,3.69c0-8.963-0.125-17.561-0.125-26.515
	c-0.392-0.668-1.023-1.146-1.619-1.552c-0.555-0.338-1.266-0.625-1.62-0.847c-6.249-3.21-10.952-6.604-13.248-12.73
	c-1.423-4.052-0.235-17.004-0.235-17.181c0,0,0.015-0.416,0.158-1.11c0.991-3.909,4.309-5.053,9.648-3.728
	c0.198,0,22.453,5.832,28.502,7.601c0,0.96,0.121,1.954,0.121,2.95c0,0.444-0.591,1.919-1.544,3.244
	c-1.348,1.289-3.039,2.29-6.285,1.404c-5.099-1.404-10.118-2.729-15.22-4.017v4.606C358.311,203.449,363.412,206.839,367.959,210.01
	"/>
<path fill="#003DA6" d="M219.167,164.308c0-0.958,0-1.842-0.2-2.765c-0.946,0-2.056-0.073-3.199-0.073
	c-14.276-0.303-27.924-0.166-42.065,0.457c-1.255,0.055-2.498,0.11-3.763,0.171v16.08c4.196-0.223,8.068-0.405,12.415-0.519v60.528
	c8.344-0.295,16.408-0.37,24.756-0.295v-60.674c3.041-0.292,5.648-1.214,7.752-2.878c1.673-1.417,2.698-3.058,3.323-4.602
	c0.861-2.099,0.981-4.015,0.981-4.951V164.308z M203.705,174.377v60.6c-6.047-0.072-11.896,0-17.948,0.183v-60.524
	c-4.152,0.11-8.063,0.226-12.413,0.446v-10.213c14.351-0.705,28.029-0.815,42.424-0.486
	C215.768,164.383,216.757,175.04,203.705,174.377"/>
<path fill="#003DA6" d="M19.146,188.837c-0.75,0.958-1.028,2.138-1.065,3.394c0.037,2.18,0.87,4.389,1.425,5.311
	c1.141,1.809,3.833,4.133,9.917,3.174v60.705c8.298-2.356,16.512-4.349,24.808-6.297c0.008-0.006,0.022-0.006,0.027-0.008v-16.926
	V238.1v-4.463v-2.783v-6.281c4.548-1.072,8.894-2.062,13.399-3.018c10.243-2.291,16.175-8.928,16.253-18.885v-1.107
	c0-0.475,0.037-0.925,0.037-1.401c0-10.754,0.086-17.852-2.481-21.703c-0.122-0.187-0.25-0.358-0.385-0.529
	c-0.025-0.03-0.051-0.061-0.081-0.093c-0.113-0.136-0.224-0.271-0.347-0.396c-0.019-0.018-0.037-0.037-0.055-0.052
	c-0.135-0.14-0.271-0.271-0.418-0.397h-0.002c-2.045-1.759-5.195-2.363-10.06-1.896c-0.123,0.013-0.473,0.068-0.712,0.103
	c-0.053,0.005-0.093,0.01-0.131,0.013c-0.053,0.008-0.1,0.011-0.113,0.011c-0.405,0.089-0.797,0.181-1.199,0.265
	c-0.105,0.024-0.208,0.045-0.309,0.069c-1.561,0.332-3.106,0.675-4.648,1.02c-0.294,0.065-0.593,0.125-0.891,0.192
	c-2.297,0.513-4.576,1.042-6.852,1.576c-0.893,0.211-1.779,0.427-2.668,0.642c-0.276,0.063-0.55,0.132-0.823,0.198
	c-2.14,0.517-4.28,1.041-6.412,1.58c-2.166,0.547-4.333,1.104-6.496,1.675c-0.332,0.084-0.657,0.168-0.989,0.252
	c-5.866,1.554-11.75,3.192-17.738,4.93C19.743,188.06,19.505,188.431,19.146,188.837 M21.598,190.129
	c16.052-4.648,31.473-8.556,47.563-12.026c10.674-1.064,11.385,2.14,11.385,22.614c0,0.551-0.033,1.033-0.033,1.505v1.114
	c-0.047,8.732-5.065,13.571-12.856,15.3c-5.649,1.255-11.107,2.474-16.799,3.839v30.539c-6.052,1.4-11.983,2.949-18.03,4.573
	c-0.197-20.435-0.04-40.095-0.04-60.562C19.743,200.824,21.598,190.129,21.598,190.129"/>
<path fill="#003DA6" d="M62.203,211.449c0-0.334,0.122-0.78,0.122-1.145c0.172-3.754,0.118-12.327,0.118-12.327
	c0-0.802-0.048-1.575-0.048-2.43c0-0.883-0.031-1.693-0.191-2.468c-0.594-1.619-1.74-2.734-4.389-2.432
	c-0.951,0.108-1.938,0.326-3.284,0.663c-1.3,0.221-2.607,0.549-3.954,0.881v22.093c3.245-0.806,6.208-1.509,9.415-2.213
	C60.739,211.85,61.451,211.668,62.203,211.449 M53.981,210.523v-16.188c0.356-0.116,0.708-0.152,1.108-0.261
	c0.749-0.111,1.541-0.262,2.292-0.441c0.949-0.146,1.143,0.037,1.541,0.92c0,0.481,0.076,12.942,0.076,14.829
	C57.299,209.749,55.681,210.113,53.981,210.523"/>
<path fill="#FFFFFF" d="M92.369,244.309c5.888-1.031,11.47-1.88,17.32-2.763v-70.67c-5.851,0.886-11.507,1.738-17.396,2.803
	C92.293,197.58,92.369,220.408,92.369,244.309"/>
<path fill="#FFFFFF" d="M134.079,167.743c-0.234,0.07-0.55,0-0.791,0.144c-5.294,0.516-8.653,2.882-9.646,7.12
	c-0.194,0.7-0.118,1.179-0.118,1.179c0,0.186-1.223,13.539,0.199,17.111c2.332,5.316,6.999,7.047,13.246,8.043
	c0.395,0.075,1.064,0.117,1.662,0.261c0.551,0.18,1.225,0.405,1.582,1.032c0,8.966,0.111,17.482,0.111,26.439
	c-5.095,0.482-10.075,1.037-15.371,1.736c0,2.839,0.039,5.646,0.039,8.523c6.642-0.853,12.809-1.655,19.61-2.209
	c5.889-0.815,10.619-2.336,12.688-7.184c0.449-1.05,0.673-3.668,0.673-4.179c0.043-0.037,0.24-23.716-0.116-29.027
	c-0.203-1.958-1.269-3.139-2.965-4.244c-0.948-0.48-1.819-0.997-2.926-1.367c-1.146-0.441-2.293-0.809-3.441-1.18
	c-4.704-1.512-9.409-3.133-9.648-8.26v-4.572c5.143-0.552,10.118-0.96,15.222-1.361c3.44-0.337,5.098-1.922,6.407-3.803
	c1.145-1.809,1.422-3.618,1.422-3.618c0.203-1.144,0.203-2.248,0-2.947C156.779,165.677,137.715,167.299,134.079,167.743"/>
<path fill="#003DA6" d="M248.354,162.353l-0.034-0.002c-5.576-0.389-9.389-0.321-12.743,0.221c-1.339,0.223-2.595,0.516-3.771,0.873
	c-8.15,2.471-12.159,8.184-12.231,17.362v42.698c0.116,15.349,15.325,16.521,25.39,17.302c12.482,0.812,20.729-0.837,25.258-5.03
	c2.604-2.408,3.944-5.553,3.99-9.348c0-0.041,0.044-1.813,0.044-1.813v-42.671c-0.038-4.149-0.804-7.363-2.108-9.884
	C267.938,163.913,258.023,163.115,248.354,162.353 M270.777,224.614c0,0.591-0.045,1.176-0.045,1.772
	c-0.118,9.732-11.265,11.873-25.501,10.953c-13.835-1.073-22.098-3.287-22.176-13.836v-42.668
	c0.078-9.894,5.293-13.538,13.083-14.829c3.401-0.555,7.193-0.518,11.939-0.187c13.092,1.033,22.576,1.957,22.699,16.123V224.614z"
	/>
<path fill="#003DA6" d="M245.828,175.93c-1.109-0.15-2.137-0.075-3.244-0.04c-0.2,0.187-0.356,0.332-0.592,0.444
	c-0.393,1.438-0.632,2.987-0.632,4.648c-0.2,1.585-0.082,3.207-0.082,4.495v30.28c-0.155,4.025-0.077,7.748,7.001,8.336
	c1.104,0.039,2.293,0.146,3.598,0.039c0.233-0.146,0.395-0.256,0.59-0.441c0.201-0.924,0.201-1.736,0.396-2.658
	c0-0.881,0.082-1.732,0.082-2.623v-29.94C252.944,178.511,252.904,176.558,245.828,175.93 M249.464,218.41
	c0,0-0.055,1.83-0.065,2.246H249.2c0,0-0.497-0.025-0.674-0.037c-3.286-0.273-3.815-0.851-3.815-3.146
	c0-0.452,0.022-0.977,0.043-1.576l0.005-0.139v-30.28l-0.021-1.162c-0.005-0.403-0.01-0.81-0.01-1.211
	c0-0.579,0.01-1.152,0.08-1.688l0.027-0.218v-0.216c0-0.544,0.047-1.089,0.109-1.633c0.143,0.013,0.286,0.008,0.415,0.029
	l0.079,0.005l0.08,0.008c1.423,0.126,3.168,0.376,3.404,0.847c0.54,1.107,0.54,4.409,0.54,8.232V218.41z"/>
<path fill="#FFFFFF" d="M248.081,165.82c-4.746-0.331-8.538-0.369-11.942,0.187c-7.787,1.291-13.005,4.937-13.085,14.827v42.671
	c0.08,10.547,8.345,12.761,22.178,13.834c14.234,0.92,25.385-1.221,25.505-10.953c0-0.597,0.041-1.185,0.041-1.772v-42.673
	C270.654,167.777,261.168,166.854,248.081,165.82 M252.944,218.41c0,0.891-0.085,1.742-0.085,2.623
	c-0.191,0.922-0.191,1.734-0.393,2.658c-0.195,0.186-0.354,0.296-0.588,0.441c-1.31,0.107-2.493,0-3.603-0.039
	c-7.075-0.588-7.153-4.311-6.998-8.336v-30.28c0-1.288-0.118-2.91,0.079-4.495c0-1.661,0.244-3.21,0.632-4.648
	c0.236-0.113,0.397-0.258,0.593-0.444c1.109-0.035,2.134-0.11,3.243,0.04c7.079,0.628,7.119,2.582,7.119,12.541V218.41z"/>
<path fill="#FFFFFF" d="M313.438,208.162c-0.554-1.473-0.793-2.875-1.386-4.387c-1.856-6.126-3.717-12.027-5.813-18.181
	c-6.284-16.969-23.601-16.229-23.601-16.229c0,23.933-0.043,46.802-0.043,70.739c5.887,0.777,11.151,1.554,17.005,2.434v-30.983
	c4.544,11.213,9.089,21.984,13.639,33.307c6.045,1.07,11.626,2.178,17.477,3.396v-70.672c-5.893-1.212-11.432-2.283-17.277-3.352
	V208.162z"/>
<path fill="#FFFFFF" d="M358.311,198.353v-4.609c5.102,1.29,10.118,2.615,15.22,4.017c3.246,0.889,4.938-0.113,6.283-1.401
	c0.955-1.325,1.546-2.803,1.546-3.244c0-0.996-0.121-1.99-0.121-2.948c-6.049-1.769-28.304-7.6-28.504-7.6
	c-5.338-1.328-8.655-0.182-9.646,3.726c-0.142,0.696-0.158,1.109-0.158,1.109c0,0.179-1.188,13.129,0.235,17.181
	c2.298,6.122,6.999,9.521,13.248,12.73c0.352,0.222,1.067,0.514,1.622,0.847c0.594,0.405,1.226,0.887,1.617,1.549
	c0,8.957,0.122,17.555,0.122,26.518c-5.102-1.328-10.244-2.506-15.341-3.69v8.522c6.604,1.547,12.988,3.021,19.61,4.828
	c7.163,1.964,11.146,0.739,13.05-3.5c0.391-0.551,0.352-1.033,0.352-1.033c0-2.067,0.162-26.041-0.158-31.313
	c-0.193-1.957-1.264-3.544-2.966-5.238c-0.947-0.847-1.974-1.621-2.93-2.431c-1.14-0.814-2.288-1.626-3.433-2.359
	C363.412,206.839,358.311,203.449,358.311,198.353"/>
<path fill="#FFFFFF" d="M173.343,164.867v10.215c4.351-0.221,8.261-0.333,12.414-0.446v60.526
	c6.053-0.185,11.899-0.257,17.946-0.185v-60.6c13.054,0.663,12.067-9.994,12.067-9.994
	C201.377,164.053,187.697,164.163,173.343,164.867"/>
<path fill="#FFFFFF" d="M32.79,197.024c0,20.471-0.161,40.126,0.037,60.566c6.05-1.627,11.979-3.176,18.03-4.573v-30.542
	c5.692-1.363,11.151-2.586,16.803-3.842c7.79-1.729,12.81-6.562,12.852-15.299v-1.109c0-0.475,0.036-0.957,0.036-1.511
	c0-20.47-0.71-23.676-11.384-22.612c-16.094,3.472-31.512,7.377-47.565,12.028C21.598,190.13,19.742,200.822,32.79,197.024
	 M50.578,192.191c1.345-0.332,2.654-0.66,3.951-0.883c1.347-0.334,2.336-0.555,3.284-0.663c2.651-0.299,3.797,0.813,4.39,2.436
	c0.158,0.775,0.193,1.585,0.193,2.469c0,0.854,0.048,1.626,0.048,2.429c0,0-0.05,7.922-0.118,12.327
	c0,0.364-0.123,0.809-0.123,1.142c-0.75,0.222-1.46,0.403-2.213,0.625c-3.206,0.704-6.168,1.401-9.413,2.213V192.191z"/>
</svg>
