<?xml version="1.0" encoding="utf-8"?>
<!-- Generator: Adobe Illustrator 16.2.1, SVG Export Plug-In . SVG Version: 6.00 Build 0)  -->
<!DOCTYPE svg PUBLIC "-//W3C//DTD SVG 1.1//EN" "http://www.w3.org/Graphics/SVG/1.1/DTD/svg11.dtd">
<svg version="1.1" id="Layer_2" xmlns="http://www.w3.org/2000/svg" xmlns:xlink="http://www.w3.org/1999/xlink" x="0px" y="0px"
	 width="400px" height="400px" viewBox="0 0 400 400" enable-background="new 0 0 400 400" xml:space="preserve">
<g>
	<path fill="#2E2A25" d="M238.814,163.637c-0.028,0.301-0.076,0.603-0.094,0.9l-0.153,27.783l4.289-2.367l-0.088-14.617
		c2.938,0.109,7.495,0.667,7.43,3.08l0.147,11.537l4.073,2.374l-0.1-14.725c-0.013-4.312-6.373-2.793-6.373-2.793
		s7.95-1.841,7.513-8.382c-0.263-3.928-4.516-5.884-12.081-5.095c-0.342,0.034-0.677,0.078-1.012,0.119
		c-0.321-2.043-0.84-3.958-1.654-6.033c-0.765,2.205-1.354,4.398-1.694,6.551c-4.562,0.839-7.771,1.964-7.771,1.964
		S234.758,163.59,238.814,163.637 M250.973,167.595c0.666,5.33-4.87,6.987-8.204,7.505l-0.065-10.563
		c-0.015-0.247-0.038-0.485-0.061-0.723C246.848,164.175,250.668,165.178,250.973,167.595"/>
	<path fill="#2E2A25" d="M272.174,162.096h-5.264c0,0-5.648,0-5.648,5.356v17.318c0,5.429,5.648,5.352,5.648,5.352h5.264
		c0,0,5.648,0.077,5.648-5.352v-17.318C277.822,162.096,272.174,162.096,272.174,162.096 M273.418,184.1
		c0,2.465-1.481,4.137-3.875,4.137c-2.354,0-3.872-1.202-3.872-4.137v-15.911c0-2.938,1.621-4.139,3.872-4.139
		c2.342,0,3.875,1.67,3.875,4.139V184.1z"/>
	<path fill="#2E2A25" d="M294.831,162.096h-5.265c0,0-5.651,0-5.651,5.356v17.318c0,5.427,5.651,5.354,5.651,5.354h5.265
		c0,0,5.649,0.073,5.649-5.354v-2.191h-4.409v1.52c0,2.468-1.479,4.138-3.871,4.138c-2.357,0-3.874-1.202-3.874-4.138v-15.911
		c0-2.937,1.622-4.137,3.874-4.137c2.341,0,3.871,1.671,3.871,4.137v1.526h4.409v-2.262
		C300.48,162.096,294.831,162.096,294.831,162.096"/>
	<path fill="#2E2A25" d="M379.174,173.479c-3.589,0-4.768-0.133-4.768-3.19l-0.016-2.752c0-2.256,0.472-3.56,4.037-3.56
		c3.653,0,4.125,1.813,4.138,4.03l-0.013,1.474l3.977-2.077v-0.516c0-4.867-4.728-4.868-4.728-4.868h-6.203
		c0,0-5.341,0.023-5.341,4.468v4.278c0,3.816,0.156,5.067,5.586,5.067c4.148,0,6.709,0.095,6.709,3.692v4.035
		c0,3.172-0.472,4.584-3.915,4.584c-3.775,0-4.247-1.829-4.247-5.053l-0.018-1.995l-3.97,1.697l0.011,3.043
		c0,4.287,5.181,4.283,5.181,4.283h6.204c0,0,4.884,0,4.884-5.512v-6.014C386.683,173.813,384.378,173.479,379.174,173.479"/>
	<path fill="#2E2A25" d="M332.957,183.87l-0.03-6.688l1.519,0.006c3.364-0.212,6.48-0.657,9.989-1.969
		c-2.747-1.112-6.22-1.621-9.989-1.885l-1.511-0.004l0.022-4.632c-0.082-0.765,0.572-2.189,0.896-2.683
		c1.224-1.315,3.191-1.23,3.191-1.23l7.488-0.017c-0.569-3.007-5.608-2.488-5.608-2.488h-4.6c0,0-5.972-0.027-5.972,5.579l0.035,7.9
		l-0.026,8.973c-0.035,5.461,5.963,5.407,5.963,5.407h4.6c0,0,5.105,0.529,5.619-2.548l-7.605,0.043
		C336.938,187.633,332.957,187.877,332.957,183.87"/>
	<path fill="#2E2A25" d="M347.696,162.227v3.637h6.777l-0.014,23.19l4.207,2.806l0.007-25.997h1.557
		c3.417-0.182,5.613-0.711,8.1-1.817c-2.486-1.185-4.683-1.589-8.098-1.813L347.696,162.227z"/>
	<polygon fill="#2E2A25" points="323.292,162.231 319.192,162.231 310.562,174.518 310.562,162.059 306.259,159.277 
		306.259,191.846 310.562,189.069 310.562,175.06 319.704,189.561 324.408,189.561 314.635,174.083 	"/>
	<path fill="#2E2A25" d="M48.148,162.082h-5.269c0,0-5.653,0-5.653,5.365v17.333c0,5.436,5.653,5.361,5.653,5.361h5.269
		c0,0,5.656,0.075,5.656-5.361v-17.333C53.804,162.082,48.148,162.082,48.148,162.082 M49.394,184.111
		c0,2.47-1.481,4.142-3.88,4.142c-2.354,0-3.875-1.203-3.875-4.142v-15.929c0-2.939,1.624-4.139,3.875-4.139
		c2.349,0,3.88,1.672,3.88,4.139V184.111z"/>
	<path fill="#2E2A25" d="M71.777,164.702l-0.028,10.655l-0.022,8.75c0,4.131-3.347,4.104-3.347,4.104h-1.24
		c0,0-3.165-0.35-3.149-4.104v-8.677v-0.148l0.054-10.548l-4.441-2.678v13.375l-0.018,9.541c0,4.92,5.286,5.167,5.286,5.167h5.504
		c0,0,5.783-0.215,5.783-5.185l0.005-10.351c0,0-0.078-12.401-0.076-12.54L71.777,164.702z"/>
	<path fill="#2E2A25" d="M146.641,192.053l3.72-2.721l0.041-15.818L163,190.213l-0.032-20.988
		c-0.218-4.402-0.901-7.258-1.825-10.467c-1.089,4.098-1.718,6.536-1.896,10.469l0.01,9.333l-12.633-16.468L146.641,192.053z"/>
	<path fill="#2E2A25" d="M90.572,173.469c-3.592,0-4.768-0.135-4.768-3.191l-0.016-2.755c0-2.26,0.471-3.563,4.041-3.563
		c3.658,0,4.127,1.813,4.141,4.032l-0.014,1.478l3.981-2.082v-0.517c0-4.871-4.731-4.874-4.731-4.874h-6.213
		c0,0-5.344,0.022-5.344,4.473v4.287c0,3.815,0.156,5.069,5.59,5.069c4.156,0,6.717,0.094,6.717,3.697v4.039
		c0,3.175-0.469,4.59-3.917,4.59c-3.78,0-4.251-1.833-4.251-5.06l-0.019-1.996l-3.975,1.701l0.01,3.047
		c0,4.292,5.184,4.29,5.184,4.29h6.214c0,0,4.893,0,4.893-5.52v-6.021C98.094,173.808,95.784,173.469,90.572,173.469"/>
	<path fill="#2E2A25" d="M101.114,162.878v3.575h6.666l-0.014,22.81l4.137,2.757l0.008-25.567h1.529
		c3.363-0.178,5.521-0.697,7.971-1.784c-2.45-1.167-4.608-1.564-7.969-1.785L101.114,162.878z"/>
	<path fill="#2E2A25" d="M134.694,190.146c0,0,5.653,0.075,5.653-5.36v-17.333c0-5.363-5.653-5.363-5.653-5.363h-5.271
		c0,0-5.656,0-5.656,5.363v17.333c0,5.435,5.656,5.36,5.656,5.36H134.694z M128.179,184.116v-15.924
		c0-2.943,1.627-4.143,3.881-4.143c2.345,0,3.876,1.671,3.876,4.143v15.924c0,2.471-1.479,4.144-3.876,4.144
		C129.702,188.26,128.179,187.055,128.179,184.116"/>
	<path fill="#2E2A25" d="M29.368,158.412c-1.119,2.853-1.643,5.369-1.843,8.45l-0.046,7.499h-9.2l-0.046-7.499
		c-0.201-3.081-0.727-5.597-1.844-8.45c-0.998,2.866-1.686,5.701-1.845,8.45l-0.145,25.749l3.979-2.195l-0.081-13.08h9.163
		l-0.079,13.08l3.977,2.195l-0.143-25.749C31.052,164.112,30.367,161.277,29.368,158.412"/>
	<path fill="#2E2A25" d="M226.092,198.966l0.211-17.881c-0.025-11.098-15.259-9.985-20.324-9.307
		c5.905-1.064,25.936-6.015,24.702-24.314c-0.822-12.123-15.985-18.162-41.123-15.726c-0.415,0.041-0.826,0.085-1.241,0.127
		c-1.179-8.96-3.008-17.645-5.801-25.66c-3.497,10.84-5.523,19.386-6.658,27.354c-15.581,2.602-26.597,6.204-26.597,6.204
		s12.131-1.099,25.96-0.902c-1.56,15.953,0.072,31.099-0.022,60.13c-26.424-0.922-49.361,4.208-49.087,12.023
		c0.241,6.836,20.554,13.116,49.1,15.513l1.214,38.765l2.001-26.287c0.066-3.268,2.548-2.957,2.544-0.159l0.89,34.625l2.128-28.184
		c-0.033-3.798,2.633-3.62,2.539-0.218l0.978,36.092l1.747-53.804c3.659,0.13,7.409,0.199,11.229,0.199
		c3.61,0,7.162-0.063,10.646-0.18l1.723,54.767l1.472-28.663c0.021-3.652,2.497-3.467,2.488-0.231l1.482,40.2l1.503-34.729
		c0.109-3.412,2.841-3.263,2.907,0l1.236,46.027l1.829-78.158v-0.055c28.864-2.39,49.816-8.672,49.816-15.521
		C275.238,203.51,252.672,197.716,226.092,198.966 M214.786,151.069c2.044,15.168-13.428,20.154-24.54,21.788
		c0.118-10.893-0.06-22.212-1.072-33.285C202.303,140.827,213.833,143.972,214.786,151.069 M140.951,208.75
		c0-4.631,17.11-7.086,34.249-9.656c-0.022,5.51-0.101,11.519-0.278,18.133l0.076,2.508
		C154.745,217.903,140.951,213.87,140.951,208.75 M189.471,220.617l0.144-4.448c-0.346-11.63,0.41-26.302,0.616-41.936
		c9.361,0.964,21.425,3.508,21.225,10.241l-0.338,36.157c-3.452,0.116-7.004,0.178-10.637,0.178
		C196.711,220.81,193.037,220.743,189.471,220.617 M225.847,219.753l0.245-20.623c18.863,2.432,34.388,5.134,34.388,9.62
		C260.479,213.889,246.344,217.93,225.847,219.753"/>
	<path fill="#C3002F" d="M239.827,162.625c-0.03,0.301-0.076,0.602-0.095,0.9l-0.153,27.785l4.29-2.369l-0.088-14.617
		c2.936,0.111,7.494,0.667,7.427,3.08l0.148,11.539l4.07,2.371l-0.098-14.724c-0.012-4.314-6.37-2.794-6.37-2.794
		s7.947-1.84,7.511-8.379c-0.263-3.929-4.515-5.887-12.084-5.098c-0.337,0.037-0.675,0.079-1.008,0.12
		c-0.321-2.041-0.841-3.957-1.654-6.033c-0.769,2.207-1.354,4.397-1.696,6.55c-4.56,0.839-7.766,1.966-7.766,1.966
		S235.769,162.581,239.827,162.625 M251.984,166.583c0.665,5.33-4.871,6.989-8.207,7.504l-0.062-10.562
		c-0.019-0.247-0.039-0.483-0.062-0.726C247.857,163.163,251.679,164.166,251.984,166.583"/>
	<path fill="#C3002F" d="M273.187,161.084h-5.263c0,0-5.652,0-5.652,5.355v17.317c0,5.43,5.652,5.354,5.652,5.354h5.263
		c0,0,5.647,0.076,5.647-5.354v-17.317C278.834,161.084,273.187,161.084,273.187,161.084 M274.427,183.088
		c0,2.468-1.478,4.138-3.873,4.138c-2.354,0-3.871-1.199-3.871-4.138v-15.913c0-2.932,1.62-4.137,3.871-4.137
		c2.342,0,3.873,1.672,3.873,4.137V183.088z"/>
	<path fill="#C3002F" d="M295.842,161.084h-5.266c0,0-5.65,0-5.65,5.357v17.317c0,5.428,5.653,5.354,5.653,5.354h5.263
		c0,0,5.65,0.073,5.65-5.354v-2.191h-4.407v1.522c0,2.468-1.48,4.137-3.875,4.137c-2.354,0-3.873-1.2-3.873-4.137v-15.914
		c0-2.934,1.622-4.137,3.873-4.137c2.343,0,3.875,1.672,3.875,4.137v1.526h4.407v-2.261
		C301.492,161.084,295.842,161.084,295.842,161.084"/>
	<path fill="#C3002F" d="M380.185,172.467c-3.589,0-4.766-0.135-4.766-3.188l-0.017-2.754c0-2.254,0.469-3.561,4.037-3.561
		c3.654,0,4.125,1.815,4.138,4.03l-0.013,1.476l3.976-2.078v-0.515c0-4.868-4.726-4.87-4.726-4.87h-6.205
		c0,0-5.337,0.023-5.337,4.468v4.28c0,3.814,0.153,5.066,5.582,5.066c4.151,0,6.71,0.096,6.71,3.693v4.034
		c0,3.171-0.471,4.584-3.917,4.584c-3.776,0-4.245-1.829-4.245-5.05l-0.02-2l-3.97,1.701l0.013,3.043c0,4.288,5.18,4.283,5.18,4.283
		h6.205c0,0,4.888,0,4.888-5.512v-6.013C387.698,172.803,385.389,172.467,380.185,172.467"/>
	<path fill="#C3002F" d="M333.971,182.858l-0.032-6.688l1.518,0.005c3.364-0.212,6.482-0.656,9.986-1.969
		c-2.744-1.111-6.217-1.62-9.986-1.885l-1.514-0.005l0.024-4.633c-0.084-0.764,0.573-2.188,0.896-2.681
		c1.225-1.315,3.192-1.229,3.192-1.229l7.49-0.019c-0.569-3.007-5.61-2.487-5.61-2.487h-4.6c0,0-5.972-0.026-5.972,5.579
		l0.035,7.902l-0.023,8.97c-0.036,5.461,5.96,5.407,5.96,5.407h4.6c0,0,5.108,0.529,5.62-2.547l-7.607,0.044
		C337.947,186.623,333.971,186.866,333.971,182.858"/>
	<path fill="#C3002F" d="M348.705,161.216v3.635h6.781l-0.017,23.192l4.205,2.805l0.009-25.997h1.558
		c3.421-0.182,5.614-0.711,8.101-1.816c-2.486-1.185-4.68-1.589-8.099-1.813L348.705,161.216z"/>
	<polygon fill="#C3002F" points="324.305,161.219 320.203,161.219 311.573,173.51 311.573,161.047 307.269,158.267 307.269,190.834 
		311.573,188.057 311.573,174.046 320.717,188.549 325.42,188.549 315.646,173.072 	"/>
	<path fill="#C3002F" d="M49.162,161.072h-5.273c0,0-5.652,0-5.652,5.363v17.333c0,5.435,5.652,5.359,5.652,5.359h5.273
		c0,0,5.655,0.075,5.655-5.359v-17.333C54.817,161.072,49.162,161.072,49.162,161.072 M50.404,183.099
		c0,2.47-1.479,4.144-3.878,4.144c-2.356,0-3.876-1.205-3.876-4.144v-15.927c0-2.941,1.625-4.141,3.876-4.141
		c2.346,0,3.878,1.671,3.878,4.141V183.099z"/>
	<path fill="#C3002F" d="M72.789,163.691l-0.028,10.658l-0.022,8.748c0,4.131-3.345,4.104-3.345,4.104H68.15
		c0,0-3.163-0.351-3.151-4.104l0.004-8.677v-0.148l0.052-10.548l-4.442-2.678v13.374l-0.019,9.542c0,4.917,5.29,5.166,5.29,5.166
		h5.503c0,0,5.783-0.215,5.783-5.184l0.006-10.351c0,0-0.082-12.402-0.082-12.542L72.789,163.691z"/>
	<path fill="#C3002F" d="M147.651,191.04l3.718-2.72l0.041-15.816l12.602,16.695l-0.035-20.984
		c-0.216-4.403-0.899-7.262-1.823-10.467c-1.091,4.097-1.718,6.534-1.894,10.467l0.008,9.334l-12.632-16.469L147.651,191.04z"/>
	<path fill="#C3002F" d="M91.583,172.458c-3.59,0-4.769-0.133-4.769-3.191l-0.016-2.755c0-2.26,0.471-3.564,4.041-3.564
		c3.659,0,4.127,1.813,4.141,4.033l-0.013,1.478l3.984-2.08v-0.52c0-4.87-4.734-4.872-4.734-4.872h-6.211
		c0,0-5.346,0.021-5.346,4.475v4.285c0,3.815,0.158,5.069,5.59,5.069c4.158,0,6.717,0.094,6.717,3.697v4.041
		c0,3.173-0.469,4.59-3.921,4.59c-3.775,0-4.247-1.835-4.247-5.061l-0.018-1.998l-3.976,1.7l0.013,3.049
		c0,4.291,5.186,4.287,5.186,4.287h6.209c0,0,4.896,0,4.896-5.516v-6.021C99.107,172.795,96.795,172.458,91.583,172.458"/>
	<path fill="#C3002F" d="M102.126,161.867v3.576h6.666l-0.014,22.809l4.135,2.756l0.01-25.565h1.531
		c3.36-0.178,5.52-0.7,7.967-1.785c-2.447-1.167-4.607-1.564-7.965-1.785L102.126,161.867z"/>
	<path fill="#C3002F" d="M135.704,189.136c0,0,5.655,0.074,5.655-5.361v-17.333c0-5.363-5.655-5.363-5.655-5.363h-5.269
		c0,0-5.657,0-5.657,5.363v17.333c0,5.436,5.657,5.361,5.657,5.361H135.704z M129.191,183.105v-15.924
		c0-2.943,1.625-4.145,3.878-4.145c2.347,0,3.876,1.673,3.876,4.145v15.924c0,2.47-1.479,4.142-3.876,4.142
		C130.711,187.248,129.191,186.044,129.191,183.105"/>
	<path fill="#C3002F" d="M30.381,157.399c-1.117,2.852-1.645,5.371-1.846,8.453l-0.045,7.496h-9.198l-0.047-7.496
		c-0.2-3.082-0.727-5.601-1.845-8.453c-0.999,2.866-1.682,5.702-1.846,8.453l-0.143,25.746l3.975-2.195l-0.076-13.077h9.161
		l-0.079,13.077l3.976,2.195l-0.142-25.746C32.062,163.101,31.377,160.265,30.381,157.399"/>
	<path fill="#C3002F" d="M227.33,197.728l0.213-17.882c-0.028-11.095-15.259-9.986-20.324-9.31
		c5.908-1.061,25.934-6.013,24.698-24.311c-0.82-12.123-15.982-18.162-41.118-15.727c-0.417,0.042-0.829,0.085-1.242,0.129
		c-1.18-8.961-3.007-17.645-5.803-25.661c-3.497,10.839-5.523,19.385-6.656,27.352c-15.583,2.602-26.598,6.208-26.598,6.208
		s12.131-1.1,25.961-0.903c-1.562,15.952,0.071,31.098-0.023,60.13c-26.424-0.924-49.363,4.205-49.087,12.021
		c0.242,6.836,20.555,13.118,49.098,15.516l1.217,38.761l1.999-26.286c0.067-3.265,2.549-2.954,2.545-0.159l0.89,34.625l2.13-28.183
		c-0.035-3.797,2.629-3.619,2.536-0.218l0.98,36.093l1.743-53.804c3.661,0.13,7.411,0.197,11.23,0.197
		c3.61,0,7.161-0.063,10.646-0.178l1.723,54.765l1.471-28.664c0.022-3.647,2.496-3.467,2.489-0.229l1.479,40.198l1.507-34.728
		c0.107-3.414,2.839-3.263,2.903,0l1.237,46.027l1.832-78.159l0.002-0.052c28.859-2.391,49.813-8.675,49.813-15.523
		C276.478,202.272,253.908,196.479,227.33,197.728 M176.236,218.495c-20.25-1.833-34.045-5.86-34.045-10.985
		c0-4.63,17.108-7.082,34.248-9.655c-0.023,5.513-0.102,11.521-0.279,18.133L176.236,218.495z M190.413,138.335
		c13.129,1.254,24.658,4.398,25.612,11.494c2.042,15.17-13.429,20.156-24.54,21.787
		C191.603,160.726,191.428,149.407,190.413,138.335 M212.354,219.393c-3.45,0.116-7.002,0.18-10.634,0.18
		c-3.771,0-7.444-0.068-11.009-0.194l0.143-4.45c-0.347-11.628,0.409-26.299,0.617-41.933c9.36,0.966,21.422,3.508,21.224,10.241
		L212.354,219.393z M227.085,218.514l0.243-20.623c18.864,2.432,34.39,5.134,34.39,9.619
		C261.718,212.649,247.582,216.69,227.085,218.514"/>
</g>
</svg>
