<?xml version="1.0" encoding="utf-8"?>
<!-- Generator: Adobe Illustrator 16.2.1, SVG Export Plug-In . SVG Version: 6.00 Build 0)  -->
<!DOCTYPE svg PUBLIC "-//W3C//DTD SVG 1.1//EN" "http://www.w3.org/Graphics/SVG/1.1/DTD/svg11.dtd">
<svg version="1.1" id="Layer_3" xmlns="http://www.w3.org/2000/svg" xmlns:xlink="http://www.w3.org/1999/xlink" x="0px" y="0px"
	 width="400px" height="400px" viewBox="0 0 400 400" enable-background="new 0 0 400 400" xml:space="preserve">
<g>
	<path fill="#B3B2B1" d="M320.945,92.228c-21.845-26.359-53.312-41.02-88.582-41.083L91.288,51.157L25.827,348.687l120.432,0.081
		l17.286-71.995c16.18,0,58.71,0.013,58.663,0.013c40.348,0.279,73.448-13.381,95.73-39.516
		C358.406,193.195,351.297,128.854,320.945,92.228"/>
	<path fill="#041E41" d="M157.38,268.933l-17.274,71.991l-104.538,0.04L97.594,58.991l134.747,0.093
		c33.56,0.059,62.292,13.666,82.572,38.147c29.888,36.059,32.815,95.996-2.94,134.954c-21.926,25.714-54.072,37.01-89.708,36.752
		L157.38,268.933z"/>
	<path fill="#FFB819" d="M83.704,121.628l59.062,0.042c6.787,0,14.013,5.702,10.882,14.322c-1.938,5.331-3.419,11.508-4.113,17.309
		c-0.532,4.526,4.527,7.385,7.422,7.385l120.372,0.083c2.258,0,3.462-0.643,3.462-1.718c0-1.079-0.108-5.07-0.541-7.865
		c-0.417-2.671-0.855-3.125-3.018-3.125c-15-0.015-21.122-6.703-36.844-16.84c-15.725-10.142-38.783-15.977-58.607-15.989
		l-96.642-0.069L83.704,121.628z"/>
	<path fill="#FFB819" d="M156.628,199.583c-2.087-4.462-4.011-9.769-5.189-14.65c-1.494-6.251-6.775-11.324-15.82-11.333
		l-63.349-0.041l1.571-7.104l205.318,0.134c2.041,0,1.607,0.861,1.505,3.122c-0.119,2.274-0.643,6.474-0.974,8.95
		c-0.325,2.476-2.37,1.89-4.321,1.933c-4.623,0.103-13.211,1.197-18.218,4.95c-8.507,6.396-26.65,17.62-36.857,20.888
		c-10.932,3.482-51.821,15.999-63.794-7.061"/>
	<path fill="#FFB819" d="M60.915,225.28l107.213,0.079c4.735,0,8.798,1.121,11.965,3.751c9.061,7.471,20.811,12.896,33.27,16.501
		c5.602,1.616,15.214-0.468,23.821-5.342c21.467-12.128,35.273-35.212,39.802-50.077c1.185-3.881-1.078-3.564-4.087-3.353
		c-9.045,0.646-18.552,8.83-31.049,16.795c-12.509,7.959-37.949,15.499-62.088,15.474l-117.471-0.081L60.915,225.28z"/>
	<path fill="#FFB819" d="M218.19,81.702c1.511-0.271,6.936-0.604,9.954,0.584c20.368,8.022,39.633,29.228,47.695,51.759
		c1.553,4.336,1.932,7.111-0.007,7.335c-9.332,1.026-13.681-3.575-24.668-11.014c-10.985-7.445-21.109-12.518-35.017-16.944
		c-13.703-4.363-38.676-4.983-41.907-5.096c-3.222-0.105-2.812-1.46-1.408-2.859C184.795,93.527,200.873,84.855,218.19,81.702"/>
	<path fill="#FFB819" d="M315.899,158.963c0.058,0.859-0.857,1.832-1.931,1.832c-0.112,0-23.49-0.017-23.49-0.017
		c-3.016,0-3.069-1.398-3.168-3.126c-0.121-1.723-0.603-5.175-0.707-7.223c-0.104-1.983-0.826-4.263,1.83-5.378
		c6.54-2.761,12.724-9.155,15.531-14.648c0.946-1.847,2.371-4.902,3.974-2.304C313.501,136.985,315.239,147.949,315.899,158.963"/>
	<path fill="#FFB819" d="M307.5,201.156c-0.409,0.793-1.913,1.387-2.396,0.098c-3.428-9.168-11.567-15.472-17.172-18.603
		c-1.699-0.944-1.834-2.046-1.621-3.717c0.22-1.671,0.922-7.005,1.034-9.264c0.09-1.781,0.807-3.07,2.155-3.07l24.469,0.014
		c0.859,0.008,1.948,0.783,1.948,1.426C315.917,179.713,312.371,191.228,307.5,201.156"/>
	<path fill="#FFB819" d="M243.861,247.082c-1.729,0.248-5.488-0.348,0.443-3.791c17.789-10.335,33.624-34.589,37.85-48.521
		c1.615-5.311,1.787-5.591,3.825-5.002c2.722,0.766,7.001,4.475,10.29,8.999c3.285,4.524,4.712,13.339,2.811,15.87
		C286.303,231.779,265.986,243.832,243.861,247.082"/>
	<path fill="#FFB819" d="M289.089,137.291c-4.132,2.229-4.933,1.812-5.816-1.3c-7.724-27.103-30.517-47.17-39.824-53.102
		c-1.781-1.121-1.319-1.868-0.037-1.698c22.311,2.968,44.154,15.127,55.151,31.783C304.85,122.518,293.095,135.135,289.089,137.291"
		/>
	<path fill="#041E41" d="M195.262,299.862c-0.27,1.117-4.431,18.646-4.646,19.562h-11.042c0.337-1.411,4.444-18.666,4.648-19.562
		H195.262z M177.082,291.941l-13.357,56.274h9.013c0,0,4.735-19.947,4.964-20.873h14.417c3.482,0,6.135-2.102,6.936-5.479
		l5.756-24.214c0.126-0.53,0.18-1.036,0.18-1.517c0-0.987-0.26-1.843-0.8-2.528c-0.862-1.092-2.354-1.663-4.31-1.663H177.082z"/>
	<path fill="#041E41" d="M225,328.249c-0.285,1.232-2.758,11.635-2.957,12.472h-9.957c0.295-1.217,2.767-11.63,2.972-12.472H225z
		 M217.83,302.921c-3.457,0-5.7,1.773-6.495,5.133l-2.359,9.959h8.815c0,0,1.553-6.596,1.755-7.458h9.662
		c-0.303,1.295-2.185,9.168-2.375,9.993h-12.831c-3.883,0-6.444,2.164-7.407,6.261l-3.886,16.344
		c-0.104,0.424-0.149,0.834-0.149,1.235c0,0.952,0.278,1.821,0.837,2.52c0.852,1.075,2.26,1.666,3.963,1.666
		c0.049,0,0.233-0.016,0.233-0.016c3.185-0.237,10.12-0.759,12.837-1.03c-0.047,0.142-0.176,0.688-0.176,0.688h8.805l9.472-39.868
		c0.414-1.733,0.25-3.09-0.504-4.034c-0.724-0.922-1.955-1.393-3.645-1.393H217.83z"/>
	<path fill="#041E41" d="M254.754,302.921c-3.378,0-5.569,1.773-6.377,5.133l-8.244,34.743c-0.42,1.751-0.26,3.114,0.481,4.047
		c0.719,0.91,1.959,1.372,3.676,1.372h16.259c3.414,0,5.547-1.724,6.358-5.128l3.21-13.522h-8.667c0,0-2.403,10.127-2.613,11.021
		h-9.372c0.333-1.411,6.916-29.112,7.132-30.031h9.371c-0.311,1.324-1.761,7.361-1.761,7.361h8.673l2.282-9.568
		c0.427-1.798,0.275-3.126-0.46-4.068c-0.713-0.894-1.955-1.358-3.694-1.358H254.754z"/>
	<path fill="#041E41" d="M301.651,310.555c-0.272,1.159-2.192,9.251-2.384,10.055h-9.309c0.271-1.151,2.192-9.239,2.394-10.055
		H301.651z M290.501,302.921c-3.372,0-5.568,1.773-6.368,5.133l-8.246,34.743c-0.422,1.751-0.261,3.114,0.483,4.047
		c0.72,0.91,1.955,1.372,3.666,1.372h16.327c1.658,0.034,3.046-0.386,4.124-1.237c1.09-0.867,1.828-2.143,2.241-3.891l3.017-12.674
		h-8.806c0,0-2.209,9.289-2.422,10.172h-9.304c0.317-1.335,2.791-11.764,3.001-12.619h16.044l2.554-2.058l4.174-17.562
		c0.149-0.635,0.221-1.212,0.221-1.739c0-0.935-0.229-1.713-0.7-2.311c-0.729-0.912-1.964-1.377-3.674-1.377H290.501z"/>
	<path fill="#041E41" d="M341.958,302.531c-3.549,0.404-9.249,1.079-11.702,1.476c0.031-0.116,0.256-1.082,0.256-1.082l-8.805-0.004
		l-10.757,45.295h8.8c0,0,8.573-36.069,8.798-37.016h8.741c-0.316,1.324-1.433,6.714-1.433,6.714h8.875l2.194-9.923
		c0.408-1.708,0.234-3.054-0.509-3.998c-0.78-0.994-2.172-1.495-4.13-1.495C342.215,302.506,341.958,302.531,341.958,302.531"/>
	<path fill="#041E41" d="M357.985,302.921c-1.771,0-4.88,0.672-5.936,5.133l-2.569,10.803c-0.095,0.391-0.223,1.062-0.223,1.765
		c0,0.767,0.178,1.567,0.674,2.16c0.027,0.026,0.038,0.08,0.064,0.113c0.017,0.016,0.017,0.026,0.032,0.043l-0.016-0.034
		c0.095,0.1,0.222,0.194,0.462,0.351c10.069,6.872,12.73,8.796,13.427,9.352c-0.157,0.67-1.827,7.676-1.893,7.98h-8.669
		c0.316-1.326,2.37-9.957,2.37-9.957h-8.814l-2.883,12.168c-0.435,1.785-0.261,3.178,0.492,4.13
		c0.677,0.857,1.768,1.289,3.237,1.289h16.538c3.091,0,5.136-1.773,5.936-5.128l2.819-11.871c0.072-0.311,0.219-0.906,0.219-1.629
		c0-0.955-0.245-2.12-1.211-3.143l-0.049-0.062l-0.068-0.036c-4.67-3.031-12.03-7.892-13.306-8.887
		c0.158-0.669,1.5-6.328,1.64-6.906h8.883c-0.318,1.315-1.727,7.477-1.727,7.477h8.805l2.24-9.684
		c0.42-1.717,0.229-3.126-0.516-4.084c-0.482-0.609-1.461-1.343-3.343-1.343H357.985z"/>
</g>
</svg>
