<?xml version="1.0" encoding="utf-8"?>
<!-- Generator: Adobe Illustrator 16.2.1, SVG Export Plug-In . SVG Version: 6.00 Build 0)  -->
<!DOCTYPE svg PUBLIC "-//W3C//DTD SVG 1.1//EN" "http://www.w3.org/Graphics/SVG/1.1/DTD/svg11.dtd">
<svg version="1.1" id="Layer_2" xmlns="http://www.w3.org/2000/svg" xmlns:xlink="http://www.w3.org/1999/xlink" x="0px" y="0px"
	 width="400px" height="400px" viewBox="0 0 400 400" enable-background="new 0 0 400 400" xml:space="preserve">
<path fill="#FFFFFF" d="M30.215,159.634c0,0-2.942-0.582-3.521-2.353c-0.593-1.771,0.315-4.35,0.315-4.35l50.153-59.89
	c0,0,1.566-2.425,4.827-4.006c3.831-1.861,7.668-1.778,7.668-1.778h74.711c36.483-34.715,89.438-32.37,89.438-32.37
	c77.069,0,138.858,63.559,138.858,138.872c0,75.312-59.126,139.146-139.161,139.146c-74.126,0-106.781-49.714-106.781-49.714
	h-33.536c0,0-22.338,26.27-48.831,22.937c-28.246-3.514-60.606-19.409-56.487-74.709c4.114-55.314,38.831-71.785,38.831-71.785
	H30.215z"/>
<path fill="#DD0031" d="M154.967,268.049c22.535,30.923,58.449,49.695,99.665,49.695c68.484,0,123.464-54.925,123.985-123.769
	c-0.291-28.25-9.104-46.517-9.104-46.517c-18.507-45.256-62.928-78.477-117.919-77.645c-31.388,0.826-58.914,12.247-80.908,32.486
	l-71.685,0.019c0,0-1.66-0.087-3.24,1.762c-1.475,2.329,0.541,2.747,0.541,2.747l1.066,0.002L166,106.8
	c-2.869,2.931-5.678,6.006-8.253,9.217l-72.745,0.011c0,0-1.524-0.02-3.103,1.976c-1.655,2.358,0.452,2.924,0.452,2.924
	l71.644-0.003c-2.468,3.222-6.45,9.773-6.45,9.773H73.44c0,0-2.066,0.002-3.263,1.754c-1.017,1.809,0.358,2.483,0.358,2.483h74.616
	c0,0-2.969,5.583-4.834,10.033l-77.706,0.023c0,0-5.249,0.303-5.249,3.86c0,1.217,1.356,1.181,1.356,1.181l305.398-0.053
	c8.954,19.831,8.407,44.657,8.407,44.657c-0.313,13.333-2.313,27.161-7.5,39.945c-3.696,10.081-7.568,19.719-13.475,27.229
	L68.691,261.82c0,0-0.86,0.149-1.333,1.365c-0.446,1.661,0.318,2.519,0.737,3.056c1.158,1.393,2.674,1.365,2.674,1.365l83.8,0.013
	L154.967,268.049z M364.243,149.906L364.243,149.906v0.003v0.002"/>
<path fill="#FFFFFF" d="M282.592,94.166c-2.677-7.954-17.45-15.029-25.853-18.25c-26.051-0.444-51.154,7.655-72.07,23.236
	c3.888-1.104,7.986-2.141,12.3-2.998c21.663-4.315,51.802-4.985,83.663,10.662C283.126,102.187,283.807,97.764,282.592,94.166"/>
<path fill="#FFFFFF" d="M212.648,145.089c11.019-4.674,21.601-8.578,30.35-11.804l4.395-1.624
	c14.268-5.298,24.462-12.837,30.231-20.279c-41.296-19.94-80.402-11.754-104.449-2.486c-10.833,10.434-19.44,22.657-25.508,36.083
	L212.648,145.089z"/>
<path fill="#FFFFFF" d="M306.961,123.536c7.138-10.984,12.531-19.783,15.981-25.927c-14.936-10.643-32.173-17.649-50.596-20.391
	c6.717,3.837,13.295,9.019,15.382,15.209c1.811,5.352,0.917,11.188-2.16,16.934C292.662,113.199,299.83,117.886,306.961,123.536"/>
<path fill="#FFFFFF" d="M311.244,126.996c6.744,5.578,12.857,11.147,18.389,16.708c4.836-6.356,10.516-9.682,16.915-9.918
	c3.899-0.121,7.647,0.938,11.079,2.588c-3.674-6.572-8.009-12.837-12.981-18.734c-5.268-6.21-11.062-11.818-17.323-16.733
	C323.702,107.331,318.285,116.166,311.244,126.996"/>
<path fill="#FFFFFF" d="M304.001,128.079c-7.131-5.666-14.271-10.338-21.36-14.133c-6.643,8.898-18.382,17.237-33.376,22.797
	l-4.398,1.619c-5.227,1.929-11.127,4.108-17.379,6.545l65.233-0.015L304.001,128.079z"/>
<path fill="#FFFFFF" d="M323.18,145.007c-4.506-4.41-9.472-8.934-14.922-13.461c-2.775,4.225-5.773,8.714-8.98,13.443
	L323.18,145.007z"/>
<path fill="#FFFFFF" d="M346.708,139.191c5.236-0.183,10.561,2.617,14.724,5.812l-25.754-0.013
	C339.064,141.291,342.699,139.332,346.708,139.191"/>
<path fill="#FFFFFF" d="M200.902,267.674c-5.371,6.628-10.87,13.328-16.494,20.084c-7.036-5.291-13.553-11.42-19.387-18.31
	c-0.51-0.608-1.018-1.219-1.519-1.836L200.902,267.674z"/>
<path fill="#FFFFFF" d="M274.176,307.357c-0.04,0.024-2.123,1.236-5.037,2.944c-7.927,0.952-16.007,1.104-24.132,0.422
	c-20.445-1.708-39.65-8.569-56.164-19.793c6.537-7.86,12.907-15.647,19.104-23.324l96.809-0.015
	C299.021,283.266,289.7,299.312,274.176,307.357"/>
<path fill="#FFFFFF" d="M346.953,267.583c-4.936,5.724-10.524,11-16.181,15.782c-13.796,11.659-29.732,19.806-46.728,24.138
	c13.2-9.863,21.331-25.25,26.458-39.92H346.953z"/>
<path fill="#003DA6" d="M137.389,155.731h-0.033h-0.024l-0.009-0.012c-1.19-0.059-19.592-0.059-32.212-0.059
	c-3.224,0-13.329,0.36-15.966,0.784c-47.293,7.593-67.784,52.421-67.542,79.801c0.317,34.797,26.417,55.202,48.471,55.977
	c24.213,1.955,42.405-24.005,42.76-24.508h-10.993c-0.2,0.269-11.706,14.363-25.48,14.355c-10.167-0.007-18.978-7.062-23.585-19.257
	c-2.099-5.598-3.087-12.189-3.087-19.29c-0.01-20.317,7.702-43.895,20.131-61.51c14.157-20.06,31.936-18.205,31.936-18.205
	c12.255,0.348,23.109,6.812,26.64,22.416c0.974,4.314,3.111,2.666,3.299,1.225c0.396-1.185,6.478-26.179,6.893-27.549
	C138.78,159.236,139.807,155.976,137.389,155.731"/>
<path fill="#003DA6" d="M67.132,239.227c-0.889,2.939-3.59,8.024-5.923,9.148c-1.703,0.815-1.877,1.407-0.079,1.415h35.5
	c0.848,0.022,0.93,0.086,1.359-0.93c1.969-4.662,3.965-13.154,4.242-14.184c0.582-2.142,0.054-3.124-1.206-0.823
	c-6.902,12.5-13.933,12.728-18.387,12.759c-2.533,0.008-3.12-1.445-2.546-3.695c0.573-2.236,9.804-36.821,10.738-39.624
	c0.991-3.009,4.257-7.443,6.097-8.287c1.614-0.751,3.396-1.648-0.067-1.656l-23.738,0.037c-0.933,0.15-1.515,0.232-0.717,0.814
	c1.66,1.187,5.967,2.252,4.31,8.695L67.132,239.227z"/>
<path fill="#003DA6" d="M129.42,203.062c1.156-3.485,1.868-6.34,4.227-7.834c3.355-2.13,1.888-1.886-0.096-1.88l-20.079,0.042
	c-1.177-0.042-1.575,0.569-0.824,1.107c1.638,1.183,4.01,2.815,2.653,7.973l-10.412,38.623c-0.703,1.907-1.981,5.342-3.3,6.342
	c-2.792,2.112-1.901,2.429-0.271,2.353h19.415c2.347-0.128,1.42-1.025,0.582-1.735c-1.468-1.238-2.565-4.715-1.698-8.126
	C120.191,237.68,128.408,206.13,129.42,203.062"/>
<path fill="#003DA6" d="M226.241,194.037c2.191,1.74,6.111,1.829,4.281,8.975l-9.161,35.89c-0.455,2.788-3.634,8.142-6.149,9.134
	c-2.01,0.785-2.339,1.449-0.136,1.452h38.892c2.274,0,2.923,0.021,3.399-1.233c0.826-2.132,3.576-11.869,3.995-13.381
	c0.584-2.146,0.647-3.259-1.263-0.659c-8.972,12.272-10.535,13.49-23.511,13.443c-3.087,0-3.131-2.587-2.702-4.268
	c0.288-1.135,2.793-10.638,5.361-20.157c0.728-2.71,2.635-2.671,3.819-2.671c2.074,0,6.958,2.973,6.899,10.721
	c-0.028,2.804,0.845,1.641,1.443-0.763l5.105-20.31c0.805-3.149-0.519-1.542-2.229,0.591c-2.402,2.989-5.621,6.055-11.043,6.014
	c-1.648,0-1.897-1.304-1.404-3.26c1.366-5.461,2.687-10.982,3.745-14.177c1.104-3.351,1.328-3.358,4.41-3.342
	c5.04,0.039,13.126-1.19,13.091,10.262c-0.005,2.961,0.524,3.096,1.355-0.073c0.962-3.597,2.424-9.924,2.876-11.734
	c0.365-1.422-0.428-1.053-2.32-1.053H227.7C226.662,193.482,225.518,193.464,226.241,194.037"/>
<path fill="#003DA6" d="M154.516,218.223c1.213-4.504,5.079-19.002,5.079-19.002c0.818-2.928,2.689-3.782,4.465-3.719
	c2.682,0.103,4.615,1.364,5.481,4.559c0.693,2.584-0.171,16.284-8.566,19.85C156.819,221.67,153.731,221.149,154.516,218.223
	 M135.556,238.041c-0.396,2.487-2.477,8.064-5.002,9.824c-2.152,1.521-1.16,1.917,0.789,1.923h20.733
	c1.187,0.083,2.85,0.065-0.56-1.978c-3.402-2.023-2.712-6.915-2.004-9.982c0.696-3.067,1.397-5.697,3.168-11.479
	c0.852-2.828,1.177-2.935,4.95-2.559c4.718,0.442,9.753-0.334,15.465-3.389c5.479-2.897,10.405-9.083,10.55-14.651
	c0.234-9.731-5.779-12.407-13.862-12.439c0,0-1.881-0.047-5.713,0h-21.313c-1.9,0-2.158,0.09-1.435,0.617
	c1.612,1.155,4.84,3.033,3.494,8.497L135.556,238.041z"/>
<path fill="#003DA6" d="M197.741,218.439c1.199-4.493,5.081-19.009,5.081-19.009c0.805-2.927,2.687-3.781,4.452-3.717
	c2.688,0.109,4.636,1.373,5.488,4.57c0.689,2.574-0.162,16.279-8.559,19.837C200.037,221.888,196.948,221.355,197.741,218.439
	 M184.545,193.928c1.619,1.155,4.835,3.036,3.496,8.5l-9.265,35.611c-0.403,2.489-2.407,8.255-4.996,9.935
	c-3.181,2.075-1.156,1.809,0.786,1.814h20.723c1.127,0,2.311-0.07-0.548-1.753c-3.421-2.013-2.716-7.138-2.009-10.207
	c0.71-3.063,1.398-5.697,3.163-11.478c0.857-2.831,1.186-2.931,4.951-2.561c4.732,0.442,9.756-0.334,15.482-3.389
	c5.462-2.9,10.398-9.08,10.533-14.651c0.182-7.551-4.906-12.407-13.041-12.439c0,0-2.698-0.047-6.526,0h-21.323
	C184.089,193.311,183.806,193.398,184.545,193.928"/>
<path fill="#003DA6" d="M285.642,216.654l4.515-17.946c0.469-1.59,1.808-2.672,4.125-2.649c1.975-0.04,3.977,1.358,4.982,3.168
	c0.972,1.753,2.686,8.575-1.655,14.756c-2.263,3.218-4.94,4.174-6.249,4.82C287.159,220.846,285.024,219.37,285.642,216.654
	 M260.374,248.016c-1.841,0.829-2.657,1.483-0.963,1.449h23.399c1.194-0.044,1.489-0.185-0.984-1.654
	c-3.518-2.061-3.077-6.045-2.353-9.165c0.737-3.125,1.89-6.935,3.243-12.949c0.639-2.86,4.006-2.82,5.113,1.755
	c1.926,7.982,1.326,12.597,1.272,16.404c-0.053,2.831,3.306,9.069,10.302,9.069c4.7,0,6.224-2.366,7.008-2.876
	c0.656,0.346,2.133,0.612,2.562,0.602c3.015-0.141,4.102-2.148,8.385-2.3c3.779-0.13,5.217,2.802,10.876,2.756
	c15.099-0.104,22.696-13.532,16.955-26.944c-3.083-7.226-10.636-16.172-12.718-20.701c-4.537-9.923,14.803-10.972,14.854,2.134
	c0.017,3.021,0.185,4.033,1.21,0.308c1.291-4.688,3.212-10.231,3.373-10.883c0.58-2.316-13.489-2.32-15.608-2.32
	c-17.078,0.039-19.282,16.694-13.326,25.291c8.866,12.828,17.67,23.119,6.915,29.283c-4.822,2.775-15.465-2.932-14.66-17.57
	c0.16-2.698-0.738-2.658-1.599,1.026c-2.359,10.069-3.913,15.546-7.286,15.624c-3.402,0.082-3.24-5.998-3.788-16.569
	c-0.161-3.028-1.254-4.506-2.996-5.794c-1.73-1.309-1.894-2.505,0.33-3.187c7.676-2.277,14.639-7.766,14.597-15.063
	c-0.058-9.178-4.446-12.622-14.261-12.651h-5.944l-22.004,0.029c-1.517,0.032-2.003,0.396-1.257,0.938
	c1.813,1.298,3.919,1.623,2.938,9.439c-0.435,3.541-6.853,29.813-9.122,36.774C263.586,244.066,262.034,247.282,260.374,248.016"/>
<polygon fill="#003DA6" points="153.812,161.029 158.233,161.029 154.676,177.777 163.343,177.777 162.622,181.212 149.536,181.212 
	"/>
<path fill="#003DA6" d="M171.286,176.915c0.412,0.829,1.286,1.612,3.297,1.612c1.76,0,3.11-0.611,4.193-1.873
	c0.867-1.001,1.901-2.563,2.604-5.787c0.186-0.979,0.421-2.378,0.242-3.598c-0.305-2.498-1.786-3.582-3.852-3.582
	c-1.619,0-3.05,0.674-4.077,1.709c-1.431,1.402-2.238,3.579-2.717,5.857C170.557,173.194,170.416,175.344,171.286,176.915
	 M178.404,160.584c2.166,0,5.009,0.498,6.526,2.741c1.617,2.447,1.365,5.608,0.951,7.604c-0.625,2.928-2.189,6.062-4.227,7.905
	c-2.763,2.516-6.126,2.887-7.795,2.887c-2.662,0-5.11-0.85-6.574-2.771c-1.699-2.346-1.253-5.707-0.865-7.549
	C167.536,166.036,171.146,160.584,178.404,160.584"/>
<path fill="#003DA6" d="M193.066,174.754c-0.204,0.954-0.864,3.825,2.847,3.825c2.353,0,4.057-1.109,4.412-2.813
	c0.395-1.794-0.801-2.102-3.245-2.713c-4.554-1.207-6.865-2.632-6.115-6.121c0.7-3.331,3.7-6.265,9.306-6.265
	c2.108,0,4.502,0.478,5.601,2.378c0.828,1.446,0.497,3.07,0.361,3.755h-4.173c0.089-0.709,0.361-3.094-2.613-3.094
	c-2.022,0-3.551,1.099-3.923,2.741c-0.396,1.876,1.012,2.213,3.775,2.947c3.326,0.835,6.54,1.778,5.692,5.73
	c-0.743,3.621-4.409,6.566-10.002,6.566c-7.732,0-6.731-4.971-6.34-6.936H193.066z"/>
<path fill="#003DA6" d="M227.595,173.572l-0.983-8.599l-4.805,8.599H227.595z M230.162,160.999l2.719,20.214h-4.365l-0.541-4.364
	h-7.984l-2.437,4.364h-4.135l11.604-20.214H230.162z"/>
<polygon fill="#003DA6" points="240.587,160.999 246.854,160.999 251.042,176.915 254.428,160.999 258.451,160.999 254.152,181.212 
	248.191,181.212 243.938,164.44 240.368,181.212 236.29,181.212 "/>
<path fill="#003DA6" d="M275.87,167.206c0.122-0.527,0.227-1.255-0.115-2.047c-0.554-1.339-2.089-1.56-3.046-1.56
	c-4.913,0-6.878,4.583-7.541,7.687c-0.286,1.377-0.613,3.84,0.525,5.431c0.785,1.11,1.988,1.722,4.389,1.722
	c2.103,0,2.876-0.25,3.391-0.39l0.888-4.249h-3.914l0.734-3.354h8.235l-2.148,10.089c-1.351,0.427-3.548,1.121-7.598,1.121
	c-4.623,0-6.766-1.121-8.021-2.681c-1.794-2.217-1.547-5.425-1.096-7.548c1.534-7.152,6.823-10.983,12.939-10.983
	c2.604,0,5.115,0.725,6.343,2.536c1.019,1.543,0.76,3.138,0.543,4.227H275.87z"/>
<polygon fill="#003DA6" points="286.941,160.999 300.472,160.999 299.772,164.295 290.578,164.295 289.539,169.104 298.151,169.104 
	297.457,172.409 288.843,172.409 287.702,177.856 297.207,177.856 296.478,181.212 282.641,181.212 "/>
<polygon fill="#003DA6" points="305.258,161.029 309.67,161.029 306.117,177.777 314.792,177.777 314.062,181.212 300.983,181.212 
	"/>
<polygon fill="#003DA6" points="322.369,160.999 335.894,160.999 335.19,164.295 325.996,164.295 324.969,169.104 333.571,169.104 
	332.874,172.409 324.268,172.409 323.124,177.856 332.623,177.856 331.896,181.212 318.058,181.212 "/>
<path fill="#003DA6" d="M341.229,174.754c-0.195,0.954-0.854,3.825,2.854,3.825c2.352,0,4.055-1.109,4.418-2.813
	c0.398-1.794-0.806-2.102-3.238-2.713c-4.55-1.207-6.876-2.632-6.121-6.121c0.696-3.331,3.688-6.265,9.306-6.265
	c2.101,0,4.501,0.478,5.595,2.378c0.841,1.446,0.511,3.07,0.369,3.755h-4.169c0.082-0.709,0.355-3.094-2.64-3.094
	c-2.012,0-3.545,1.099-3.901,2.741c-0.396,1.876,1.003,2.213,3.775,2.947c3.312,0.835,6.536,1.778,5.697,5.73
	c-0.756,3.621-4.418,6.566-10.01,6.566c-7.748,0-6.736-4.971-6.347-6.936H341.229z"/>
</svg>
