<?xml version="1.0" encoding="utf-8"?>
<!-- Generator: Adobe Illustrator 16.2.1, SVG Export Plug-In . SVG Version: 6.00 Build 0)  -->
<!DOCTYPE svg PUBLIC "-//W3C//DTD SVG 1.1//EN" "http://www.w3.org/Graphics/SVG/1.1/DTD/svg11.dtd">
<svg version="1.1" id="Layer_3" xmlns="http://www.w3.org/2000/svg" xmlns:xlink="http://www.w3.org/1999/xlink" x="0px" y="0px"
	 width="400px" height="400px" viewBox="0 0 400 400" enable-background="new 0 0 400 400" xml:space="preserve">
<g>
	<path d="M329.945,105.188c-9.937-10.963-31.87-19.863-60.122-25.244c0.124-3.244,2.104-4.62,5.62-7.054
		c1.832-1.269,3.92-2.709,6.003-4.693c9.115-8.659-1.581-21.921-2.039-22.48l-5.89-7.181l1.411,9.182
		c0.968,6.294-1.341,8.521-8.181,13.292c-0.872,0.603-1.622,1.276-2.274,1.988c0.292-4.202,0.491-8.883-0.929-14.749
		c-1.418-5.869-4.303-8.247-4.303-8.247l-0.746,8.512c-0.003,0.052-0.66,6.651-9.476,14.631c0.759-0.854,1.47-1.736,2.104-2.664
		c4.316-6.282,3.066-13.429,1.622-21.706l-0.303-1.742c-1.48-8.632,0.826-14.011,2.312-14.894c1.445-1.763,4.316-4.693,4.316-4.693
		s-1.526-0.676-5.764-0.125c-5.513,0.76-14.772,4.059-14.523,11.598c0.104,3.317,1.17,6.462,2.115,9.24
		c1.01,2.976,1.968,5.789,1.113,7.234c-0.672,1.14-2.717,2.054-5.916,2.633c-12.977,2.368-22.926,8.442-28.003,17.106
		c-1.682,2.868-2.804,5.941-3.367,9.161c-32.207,0.1-62.696,4.112-86.339,11.428C91.89,93.918,77.281,105.082,76.141,118
		c-0.604,6.797,2.467,16.597,19.479,26.028l-0.117,0.119l4.828,2.308c0.003,0.005,0.012,0.005,0.014,0.012l2.541,1.214l0.029-0.029
		c7.845,3.499,17.047,6.528,27.289,9.024c-3.651,2.063-7.009,4.427-10.028,7.115c-16.479,13.529-25.976,33.587-25.976,54.968
		c0,19.019,7.404,36.904,20.858,50.355c13.451,13.45,31.33,20.857,50.355,20.857c33.666,0,62.963-23.862,69.744-56.779
		c5.745-17.192,5.082-35.646,4.831-42.604c-0.576-15.808,7.19-24.556,12.13-28.499c22.494-2.849,42.398-7.775,57.226-14.383
		l0.024,0.029l2.391-1.14c0.007-0.003,0.013-0.003,0.021-0.009l5.127-2.445l-0.135-0.133c11.929-6.662,18.591-14.492,19.326-22.839
		C336.592,115.612,334.524,110.236,329.945,105.188 M306.838,119.01c2.026,2.226,1.895,3.665,1.854,4.139
		c-0.225,2.568-3.441,5.664-8.825,8.497l-0.015,0.005c-11.317,5.948-30.774,10.444-53.936,12.817
		c1.021-0.659,2.126-1.233,3.326-1.722l0.381-0.152c6.654-2.704,14.202-5.768,14.559-16.77c0.055-1.75,0.14-7.123,1.11-9.042
		c1.244-2.467,4.422-6.282,7.22-7.296c0.046-0.015-4.68-0.937-4.68-0.937c-0.248-0.028-0.49-0.034-0.73-0.042
		c1.583-1.149,2.719-2.52,3.545-3.964C289.458,108.455,302.107,113.787,306.838,119.01 M103.552,121.738
		c0.804-9.083,33.543-21.083,86.462-22.957c-4.908,3.685-10.73,10.116-12.168,20.464l-0.541,3.917
		c-0.348,2.413-0.777,4.875-1.709,7.31c-2.038,5.349-7.778,9.754-13.931,13.116c-21.308-2.682-39.114-7.171-49.52-12.803
		l-0.012-0.002C106.442,127.698,103.318,124.405,103.552,121.738"/>
	<polygon points="140.369,338.721 149.452,301.599 134.447,301.599 125.318,338.721 	"/>
	<path d="M173.239,310.728l0.889,15.155h-7.822l7.921,12.84h13.69l-2.134-37.124h-22.582c0,0-18.508,37.124-18.409,37.124h14.471
		l13.89-27.995H173.239z"/>
	<polygon points="138.369,372.8 135.312,385.487 149.394,385.487 158.528,348.38 144.443,348.38 140.979,362.754 130.396,362.767 
		133.856,348.38 119.768,348.38 110.64,385.487 124.72,385.487 127.779,372.81 	"/>
	<polygon points="172.052,377.13 173.076,372.081 190.519,372.081 192.746,363.877 175.23,363.877 176.352,358.428 193.88,358.428 
		196.563,348.38 164.751,348.38 155.62,385.487 187.193,385.487 189.455,377.134 	"/>
	<polygon points="262.615,338.721 271.7,301.599 256.689,301.599 247.562,338.721 	"/>
	<path d="M287.523,330.26c1.987,2.772,4.179,8.188-5.104,12.396c-10.768,4.882,0.047,17.333-14.722,17.333h-6.067l-6.112,25.499
		h-15.06l6.145-25.492l-10.163-0.007l3.194-11.608h26.083c15.461,0,4.614-10.728,12.491-12.166
		C283.589,335.229,286.913,334.253,287.523,330.26"/>
	<polygon points="99.434,320.72 97.04,301.599 78.482,301.599 69.354,338.723 83.051,338.723 88.102,319.323 88.187,319.323 
		90.919,338.723 98.98,338.723 110.163,319.323 110.251,319.323 105.878,338.723 118.798,338.723 127.929,301.599 110.056,301.599 
		99.519,320.72 	"/>
	<polygon points="221.87,320.72 219.477,301.599 200.924,301.599 191.793,338.723 205.49,338.723 210.541,319.323 210.622,319.323 
		213.358,338.723 221.42,338.723 232.605,319.323 232.688,319.323 228.321,338.723 241.23,338.723 250.368,301.599 232.491,301.599 
		221.952,320.72 	"/>
	<path d="M219.59,357.507l0.889,15.156h-7.818l7.918,12.824h13.694l-2.137-37.107h-22.585c0,0-18.505,37.107-18.412,37.107h14.474
		l13.896-27.98H219.59z"/>
	<path fill="#8B2332" d="M96.943,223.792c1.868,9.37,7.229,20.598,17.879,28.082c3.212,2.26,6.723,4.093,10.435,5.511
		c-2.296-3.932-4.978-7.88-7.705-11.905c-5.092-7.512-10.361-15.284-13.702-23.637c-3.455-8.638-4.402-17.675-2.891-26.77
		c-2.716,7.382-4.218,15.355-4.218,23.686C96.742,220.454,96.824,222.132,96.943,223.792"/>
	<path fill="#8B2332" d="M108.416,220.01c3.15,7.866,8.265,15.412,13.21,22.708c3.824,5.644,7.559,11.15,10.403,16.733
		c3.13,0.725,6.369,1.195,9.678,1.397c-3.415-4.876-6.378-10.415-8.93-16.754c-9.888-24.563-8.453-54.93,3.809-72.505
		c6.325-9.066,13.895-15.226,23.646-20.542c8.395-4.579,13.638-5.95,18.966-9.131c5.802-3.46,8.907-9.239,5.089-22.213
		c-1.116-3.799-1.314-6.792-1.084-9.118c-1.324,2.566-2.353,5.546-2.838,9.01l0.029-0.033c-0.596,3.669-0.85,7.707-2.419,11.817
		c-5.13,13.436-29.963,20.891-33.243,21.885c-9.426,2.85-16.979,7.189-22.865,12.427C104.858,180.82,101.822,203.527,108.416,220.01
		"/>
	<path fill="#8B2332" d="M212.037,98.6c0.252,0.833,0.45,1.652,0.561,2.455c0.649,4.692-0.774,8.485-6.531,9.413
		c-5.925,0.952-7.947-4.208-8.41-8.411c-0.042-1.461,0.061-2.627,0.188-3.476c-1,0.016-1.985,0.036-2.97,0.063
		c-1.899,1.086-4.373,2.771-6.754,5.195c-1.178,2.539-2.599,6.061-0.41,14.296c3.867,14.527,2.224,23.306-9.45,28.325
		c-14.871,6.398-24.382,10.153-37.132,26.198c-6.068,7.629-9.386,20.28-9.938,33.005c-0.526,12.357,2.014,25.552,6.367,36.379
		c2.911,7.23,6.313,13.523,10.317,18.869c3.975-0.151,8.014-0.666,12.044-1.555c-4.427-5.186-6.979-11.508-7.438-18.589
		c-1.517-23.568,11.171-33.479,30.708-49.14l8.733-7.33c34.871-29.618,24.698-59.737,28.533-85.459
		C217.696,98.731,214.893,98.653,212.037,98.6"/>
	<path fill="#8B2332" d="M226.008,99.095c-1.068,5.136-1.546,10.496-1.887,16.045c-1.383,22.403-0.714,47.763-29.066,72.958
		l-8.576,6.937c-18.981,15.221-29.831,24.727-29.085,45.417c0.246,6.827,3.125,12.808,7.936,17.502
		c5.302-1.596,10.551-3.823,15.6-6.692c24.661-13.996,40.177-34.923,46.115-61.77c3.753-16.971,3.671-30.78,3.611-41.877
		c-0.029-5.606,0.697-16.616,0.697-16.616c0.783-6.946,1.91-16.685,9.97-29.447c0.26-0.413,0.534-0.829,0.81-1.249
		C236.999,99.798,231.62,99.391,226.008,99.095"/>
	<path fill="#8B2332" d="M234.307,171.113l0.01-0.083c-0.008,0.037-0.016,0.083-0.019,0.12c-0.766,4.016-0.974,8.533-1.461,13.035
		c-0.234,1.721-0.468,3.39-0.713,5.006c-0.088,0.459-0.176,0.914-0.281,1.368c-6.228,28.268-22.34,50.271-48.268,64.984
		c-4.455,2.528-8.971,4.604-13.516,6.217c7.6,5.045,16.462,6.597,22.553,5.683c23.29-3.496,34.63-18.687,40.09-34.929
		c5.603-16.675,5.007-34.464,4.738-41.832c-0.886-24.608,18.147-33.687,18.147-33.687
		C240.789,156.196,235.94,162.647,234.307,171.113"/>
	<path fill="#8B2332" d="M218.763,261.874c-9.52,7.959-19.785,9.701-24.447,10.415c-9.164,1.408-20.019-0.768-29.618-8.343
		c-0.158-0.122-0.304-0.257-0.456-0.386c-4.115,1.099-8.23,1.833-12.34,2.172c9.397,10.092,21.763,15.821,38.348,16.943
		c0.073,0.007,0.146,0.007,0.216,0.012h0.018c11.288-4.431,21.127-11.75,28.576-21.076
		C218.964,261.701,218.865,261.789,218.763,261.874"/>
	<path fill="#8B2332" d="M132.131,278.818c0.187-5.191-1.274-10.289-3.662-15.387c-5.691-1.643-11.268-4.089-16.64-7.352
		c-3.022-1.841-5.746-4.644-8.155-7.263c-0.011-0.012-0.017-0.018-0.029-0.029c6.185,12.703,16.168,23.208,28.486,30.033V278.818z"
		/>
	<path fill="#8B2332" d="M179.603,285.885c-9.28-2.146-17.225-5.436-24.19-10.714c-3.557-2.708-6.802-5.763-9.759-9.214
		c-3.76-0.047-7.488-0.408-11.189-1.104c2.057,5.296,3.086,10.697,2.432,16.365v0.009c8.687,3.969,18.338,6.203,28.516,6.203
		c4.905,0,9.68-0.527,14.293-1.504C179.675,285.915,179.635,285.897,179.603,285.885"/>
	<path fill="#8B2332" d="M259.382,117.244c-1.595,5.348-6.869,4.716-8.394,1.834c-2.422-4.561-1.503-8.093,1.02-10.499
		c2.52-2.41,6.649-3.698,10.653-5.508c0.018-0.012,0.036-0.018,0.054-0.026c-4.624-0.797-9.553-1.506-14.767-2.117
		c-0.068,0.084-0.141,0.163-0.214,0.243c-0.459,0.527-0.927,1.054-1.371,1.602c-8.277,12.447-9.318,21.678-10.123,28.78
		l-0.253,2.182c-0.468,3.724-0.438,8.417-0.409,13.851c0.006,0.745,0.012,1.519,0.012,2.299c-0.058,1.901-0.134,3.769-0.217,5.597
		c0.041,0.012,0.074,0.02,0.118,0.033c0.058-0.76,0.093-1.053,0.087-0.664c2.341-7.459,6.641-11.997,12.706-14.463
		c6.567-2.665,13.047-5.112,13.352-14.648c0.132-3.984,0.424-7.968,1.335-10.002c1.652-3.683,4.616-4.658,4.616-4.658
		C264.403,110.773,260.92,112.104,259.382,117.244"/>
	<path fill="#F9A01B" d="M267.326,79.474c0.482-6.378,6.524-7.569,12.37-13.121c7.506-7.129-2.254-19.023-2.254-19.023
		c1.228,7.997-2.476,11.05-9.243,15.767c-2.15,1.497-3.708,3.597-3.924,6.25c-0.24,2.962-0.431,6.166-1.079,9.413
		C264.59,78.989,265.961,79.228,267.326,79.474"/>
	<path fill="none" stroke="#F9A01B" stroke-width="0.174" d="M267.326,79.474c0.482-6.378,6.524-7.569,12.37-13.121
		c7.506-7.129-2.254-19.023-2.254-19.023c1.228,7.997-2.476,11.05-9.243,15.767c-2.15,1.497-3.708,3.597-3.924,6.25
		c-0.24,2.962-0.431,6.166-1.079,9.413C264.59,78.989,265.961,79.228,267.326,79.474z"/>
	<path fill="#F9A01B" d="M246.668,68.359c-1.807,1.347-3.495,2.727-5.075,4.137c-1.124,1.078-2.222,2.146-3.235,3.173
		c6.6,0.572,13.011,1.314,19.186,2.214c3.949-7.188,5.825-15.336,3.494-29.221C261.037,48.662,260.481,58.066,246.668,68.359"/>
	<path fill="none" stroke="#F9A01B" stroke-width="0.174" d="M246.668,68.359c-1.807,1.347-3.495,2.727-5.075,4.137
		c-1.124,1.078-2.222,2.146-3.235,3.173c6.6,0.572,13.011,1.314,19.186,2.214c3.949-7.188,5.825-15.336,3.494-29.221
		C261.037,48.662,260.481,58.066,246.668,68.359z"/>
	<path fill="#F9A01B" d="M209.818,74.304c7.544,0.071,14.944,0.374,22.153,0.871c0.24-0.243,0.467-0.488,0.718-0.722
		c4.841-5.195,12.335-9.585,16.34-15.414c4.004-5.826,2.385-12.946,0.908-21.576c-2.552-14.87,3.715-17.622,3.715-17.622
		s-12.568,1.729-12.328,8.997c0.322,9.753,10.376,18.937-4.77,21.69c-16.623,3.025-26.955,12.02-29.229,23.77
		C208.155,74.301,208.985,74.296,209.818,74.304"/>
	<path fill="none" stroke="#F9A01B" stroke-width="0.174" d="M209.818,74.304c7.544,0.071,14.944,0.374,22.153,0.871
		c0.24-0.243,0.467-0.488,0.718-0.722c4.841-5.195,12.335-9.585,16.34-15.414c4.004-5.826,2.385-12.946,0.908-21.576
		c-2.552-14.87,3.715-17.622,3.715-17.622s-12.568,1.729-12.328,8.997c0.322,9.753,10.376,18.937-4.77,21.69
		c-16.623,3.025-26.955,12.02-29.229,23.77C208.155,74.301,208.985,74.296,209.818,74.304z"/>
	<path fill="#FFFFFF" d="M209.78,78.199C140.14,77.51,82.039,95.487,80.017,118.345c-0.807,9.107,7.412,17.615,21.997,24.601
		c9.008,4.316,20.449,8.045,33.684,10.979c2.651-1.18,5.425-2.228,8.336-3.107c2.309-0.697,6.571-2.093,11.256-4.13
		c-19.503-2.847-35.288-7.22-44.998-12.472c-7.167-3.883-11.025-8.245-10.616-12.817c1.355-15.351,50.113-27.323,108.904-26.746
		c58.787,0.577,105.352,13.493,103.992,28.839c-0.371,4.181-4.255,8.114-10.909,11.607c-12.274,6.452-33.972,11.412-60.321,13.726
		c-0.905,1.248-1.704,2.631-2.37,4.198c11.982-4.546,25.794,2.174,25.794,2.174s0.927,0.359,1.572,0.796
		c17.484-3.116,32.501-7.554,43.762-12.918c13.314-6.342,21.391-13.974,22.121-22.244C334.242,97.971,279.428,78.881,209.78,78.199"
		/>
</g>
<g id="Layer_2">
</g>
</svg>
