<?xml version="1.0" encoding="utf-8"?>
<!-- Generator: Adobe Illustrator 16.2.1, SVG Export Plug-In . SVG Version: 6.00 Build 0)  -->
<!DOCTYPE svg PUBLIC "-//W3C//DTD SVG 1.1//EN" "http://www.w3.org/Graphics/SVG/1.1/DTD/svg11.dtd">
<svg version="1.1" id="Layer_2" xmlns="http://www.w3.org/2000/svg" xmlns:xlink="http://www.w3.org/1999/xlink" x="0px" y="0px"
	 width="400px" height="400px" viewBox="0 0 400 400" enable-background="new 0 0 400 400" xml:space="preserve">
<g>
	<path fill="#AC162C" d="M239.022,158.652c-0.681,3.392-1.748,6.196-2.48,7.862c0.815,3.168,1.239,5.789,1.239,7.761
		c0,2.47-0.555,4.327-1.612,5.594c0.02,0.041,0.051,0.101,0.051,0.101c1.484,3.122,2.232,7.808,2.232,13.932
		c0,1.728-0.067,3.513-0.198,5.309c7.494,6.014,9.422,13.798,9.89,16.851c6.413,5.342,10.495,10.883,12.78,14.552h2.128
		l38.548-89.556h-33.283C257.222,156.849,245.349,158.909,239.022,158.652"/>
	<path fill="#AC162C" d="M154.443,216.062c0.475-3.048,2.394-10.832,9.888-16.854c-0.127-1.804-0.203-3.59-0.203-5.307
		c0-6.124,0.753-10.805,2.242-13.939c0,0,0.04-0.077,0.047-0.093c-1.059-1.265-1.609-3.125-1.609-5.594
		c0-1.97,0.426-4.593,1.238-7.758c-0.73-1.667-1.804-4.468-2.478-7.862c-6.327,0.252-18.203-1.806-29.297-17.602h-33.322
		l38.547,89.564h2.166C143.948,226.941,148.029,221.399,154.443,216.062"/>
	<path fill="#C4CED4" d="M201.293,199.002c-0.436,0.014-1.671,0.049-3.158,0.39C199.583,199.085,200.881,199.016,201.293,199.002"/>
	<path fill="#C4CED4" d="M204.451,199.392c-1.484-0.339-2.719-0.374-3.155-0.39C201.705,199.019,203.008,199.085,204.451,199.392"/>
	<path fill="#C4CED4" d="M319.969,230.613h-52.334l40.355-93.765h-38.686c2.414-3.892,4.77-8.511,7.003-13.985
		c0.195-0.384,1.087-2.393-0.079-4.172c-0.543-0.849-1.689-1.832-4.196-1.718c-0.356,0.042-8.694,1.012-18.461,4.006l-0.1,0.021
		c9.259-5.884,20.831-14.541,28.429-24.901c0.274-0.337,6.824-8.435,7.258-20.239c0-0.083,0.015-0.281,0.01-0.57
		c-0.055-5.42-1.943-38.914-37.589-56.807c0.103,0.141,15.506,19.298,20.784,35.721c-1.756-1.113-3.925-2.269-6.358-3.285
		c-1.806-4.194-14.282-30.744-37.261-34.125c0.128,0.096,14.802,11.409,23.76,29.014c-5.013-2.104-16.984-4.222-28.408-4.079
		c0.09,0.043,21.994,8.596,32.714,15.721c0.702,2.309,2.485,9.023,2.485,17.399c0,12.504-4.188,28.522-21.83,38.72
		c0.024-0.737,0.072-1.49,0.072-2.34c0-9.725-3.004-32.339-28.842-39.017c0.135,0.16,16.445,16.344,16.165,34.029
		c-0.057,4.225-0.913,8.675-3.057,13.108c-3.146-1.048-11.211-2.688-19.229-2.703c-0.33,0-0.289-0.005-0.743,0h-0.536h-0.802
		c-0.457-0.005-0.794,0-1.124,0c-8.023,0.016-15.438,1.655-18.583,2.703c-2.147-4.434-3.001-8.884-3.062-13.108
		c-0.274-17.685,16.028-33.87,16.165-34.029c-25.835,6.677-28.839,29.292-28.839,39.017c0,0.851,0.047,1.604,0.075,2.34
		c-17.644-10.198-21.832-26.216-21.832-38.72c0-8.376,1.786-15.09,2.481-17.399c10.732-7.125,32.625-15.678,32.714-15.721
		c-11.42-0.143-23.392,1.975-28.408,4.079c8.962-17.605,23.635-28.918,23.755-29.014c-22.971,3.382-35.449,29.931-37.251,34.125
		c-2.429,1.016-4.601,2.172-6.365,3.285c5.283-16.423,20.685-35.58,20.792-35.721c-35.646,17.893-37.541,51.386-37.592,56.807
		c-0.005,0.289,0.01,0.488,0.01,0.57c0.436,11.805,6.984,19.902,7.257,20.239c7.595,10.361,19.169,19.017,28.425,24.901
		l-0.099-0.021c-9.761-2.995-18.101-3.965-18.456-4.006c-2.51-0.114-3.654,0.869-4.201,1.718c-1.162,1.78-0.272,3.788-0.073,4.172
		c2.234,5.475,4.59,10.093,7.001,13.985H94.56l40.358,93.765H82.583l-15.878,22.682v84.148l15.878,22.674H190.66l10.617,24.682
		l10.619-24.682h108.072l15.875-22.674v-84.148L319.969,230.613z M263.052,230.613h-2.128c-2.281-3.672-6.367-9.214-12.778-14.555
		c-0.47-3.05-2.393-10.834-9.892-16.851c0.128-1.794,0.2-3.579,0.2-5.31c0-6.123-0.752-10.807-2.239-13.926
		c0,0-0.026-0.062-0.046-0.103c1.058-1.265,1.612-3.125,1.612-5.594c0-1.97-0.422-4.593-1.239-7.761
		c0.729-1.669,1.803-4.471,2.479-7.862c6.325,0.254,18.198-1.803,29.294-17.597h33.291L263.052,230.613z M100.953,141.055h33.319
		c11.096,15.794,22.97,17.852,29.291,17.597c0.68,3.396,1.751,6.198,2.484,7.862c-0.812,3.168-1.238,5.791-1.238,7.761
		c0,2.47,0.55,4.327,1.607,5.594c-0.005,0.016-0.042,0.093-0.042,0.093c-1.491,3.129-2.238,7.815-2.238,13.937
		c0,1.714,0.069,3.505,0.197,5.31c-7.494,6.021-9.418,13.806-9.888,16.851c-6.412,5.341-10.494,10.883-12.779,14.555H139.5
		L100.953,141.055z M201.277,374.155l-6.037-14.038h12.08L201.277,374.155z M331.636,336.118l-13.855,19.797H84.771l-13.858-19.797
		v-81.501l13.858-19.794h54.596h4.44c1.588-2.974,5.977-10.135,14.392-16.74c0,0,0.415-10.544,10.254-17.104
		c0,0-1.37-13.273,1.51-19.296c0,0,7.53,3.429,10.53,15.744l0.954-2.468c0,0,0.275-8.359-11.769-17.377c0,0-2.32-1.5,0.544-11.492
		c0,0-2.864-5.482-3.264-11.907c0,0-22.314,7.115-38.458-32.424c0,0-1.23-2.459,1.783-2.319c0,0,8.347,0.953,18.187,3.965
		c0,0,7.94,1.774,13.142,6.979c0,0,2.084,2.533,4.922,3.695c0,0,2.139,0.84,3.498-1.332c0.331-0.529,1.327-2.973-5.137-5.659
		c0,0-28.324-13.534-42.289-32.563c0,0-3.327-4.4-5.293-10.519c-0.805-2.511-1.386-5.318-1.401-8.23
		c-0.003-0.393,0-0.815,0.01-1.266c0.207-9.664,3.596-31.82,26.212-47.635c0,0-13.376,16.489-15.825,33.318
		c0,0,4.777-4.522,12.182-7.393c0,0,8.485-21.626,26.124-30.649c0,0-12.714,10.805-19.014,27.774c0,0,13.276-4.79,18.744-4.646
		c0,0-9.032,3.281-20.653,10.537c0,0-14.933,43.783,24.352,62.247c0,0-5.467-28.041,18.061-40.347c0,0-19.294,22.434-6.553,44.722
		c0,0,2.428-1.043,6.543-1.969c3.208-0.778,8.528-1.458,13.367-1.471h1.085h0.753h0.482h0.705
		c4.837,0.013,10.801,0.693,14.006,1.471c4.116,0.921,6.555,1.969,6.555,1.969c12.729-22.289-6.559-44.722-6.559-44.722
		c23.531,12.307,18.063,40.347,18.063,40.347c39.281-18.464,24.347-62.247,24.347-62.247c-11.617-7.255-20.649-10.537-20.649-10.537
		c5.468-0.144,18.745,4.646,18.745,4.646c-6.3-16.969-19.018-27.774-19.018-27.774c17.646,9.023,26.126,30.649,26.126,30.649
		c7.401,2.87,12.182,7.393,12.182,7.393c-2.451-16.829-15.823-33.318-15.823-33.318c22.614,15.817,26.003,37.979,26.212,47.637
		c0.01,0.451,0.015,0.871,0.01,1.264c-0.016,2.912-0.597,5.719-1.406,8.23c-1.963,6.119-5.293,10.519-5.293,10.519
		c-13.959,19.03-42.283,32.563-42.283,32.563c-6.464,2.686-5.468,5.13-5.142,5.659c1.364,2.172,3.498,1.332,3.498,1.332
		c2.839-1.163,4.919-3.695,4.919-3.695c5.207-5.205,13.154-6.979,13.154-6.979c9.834-3.013,18.184-3.965,18.184-3.965
		c3.009-0.14,1.777,2.319,1.777,2.319c-16.143,39.539-38.453,32.424-38.453,32.424c-0.405,6.425-3.27,11.907-3.27,11.907
		c2.864,9.992,0.55,11.492,0.55,11.492c-12.05,9.019-11.77,17.377-11.77,17.377l0.952,2.468
		c2.999-12.315,10.526-15.744,10.526-15.744c2.886,6.022,1.508,19.296,1.508,19.296c9.846,6.561,10.258,17.104,10.258,17.104
		c8.419,6.605,12.806,13.767,14.392,16.74h4.437h54.562l13.855,19.794V336.118z"/>
	<polygon fill="#2B5134" points="113.187,263.859 106.9,263.838 106.9,289.446 113.187,289.446 	"/>
	<polygon fill="#2B5134" points="113.187,306.105 106.9,306.105 106.9,327.03 113.187,326.997 	"/>
	<polygon fill="#2B5134" points="204.223,244.243 204.179,244.243 202.116,249.843 206.216,249.843 	"/>
	<path fill="#2B5134" d="M317.775,234.821h-54.555h-4.438c-1.586-2.97-5.977-10.128-14.39-16.738c0,0-0.416-10.539-10.262-17.099
		c0,0,1.378-13.279-1.508-19.305c0,0-7.523,3.43-10.523,15.749l-0.955-2.474c0,0-0.28-8.355,11.77-17.372
		c0,0,2.314-1.502-0.55-11.492c0,0,2.864-5.482,3.27-11.91c0,0,22.308,7.118,38.453-32.426c0,0,1.229-2.457-1.781-2.314
		c0,0-8.346,0.948-18.185,3.963c0,0-7.942,1.777-13.146,6.977c0,0-2.08,2.535-4.922,3.694c0,0-2.134,0.849-3.498-1.331
		c-0.323-0.523-1.322-2.973,5.14-5.656c0,0,28.324-13.537,42.282-32.563c0,0,3.333-4.4,5.296-10.519
		c0.81-2.513,1.391-5.319,1.406-8.231c0.005-0.394,0-0.814-0.016-1.26c-0.203-9.663-3.594-31.825-26.204-47.639
		c0,0,13.372,16.487,15.823,33.319c0,0-4.782-4.523-12.186-7.393c0,0-8.481-21.628-26.124-30.654c0,0,12.718,10.811,19.011,27.777
		c0,0-13.271-4.79-18.735-4.645c0,0,9.027,3.281,20.649,10.534c0,0,14.934,43.786-24.352,62.25c0,0,5.472-28.043-18.062-40.35
		c0,0,19.294,22.437,6.557,44.725c0,0-2.437-1.048-6.553-1.972c-3.203-0.778-9.169-1.456-14.009-1.469h-0.702h-0.482h-0.758h-1.08
		c-4.839,0.013-10.162,0.69-13.37,1.471c-4.11,0.921-6.543,1.969-6.543,1.969c-12.736-22.289,6.553-44.725,6.553-44.725
		c-23.525,12.307-18.056,40.35-18.056,40.35c-39.285-18.464-24.354-62.25-24.354-62.25c11.621-7.253,20.655-10.534,20.655-10.534
		c-5.467-0.145-18.746,4.645-18.746,4.645c6.3-16.966,19.014-27.777,19.014-27.777c-17.641,9.026-26.124,30.654-26.124,30.654
		c-7.405,2.87-12.182,7.393-12.182,7.393c2.452-16.832,15.823-33.319,15.823-33.319c-22.613,15.813-26.002,37.971-26.209,47.634
		c-0.01,0.449-0.013,0.872-0.01,1.265c0.016,2.912,0.597,5.718,1.404,8.231c1.964,6.119,5.293,10.519,5.293,10.519
		c13.961,19.027,42.286,32.563,42.286,32.563c6.461,2.684,5.467,5.133,5.137,5.656c-1.359,2.18-3.498,1.331-3.498,1.331
		c-2.837-1.159-4.924-3.694-4.924-3.694c-5.199-5.2-13.139-6.977-13.139-6.977c-9.839-3.015-18.187-3.963-18.187-3.963
		c-3.013-0.143-1.783,2.314-1.783,2.314c16.144,39.544,38.458,32.426,38.458,32.426c0.402,6.427,3.268,11.91,3.268,11.91
		c-2.865,9.99-0.551,11.492-0.551,11.492c12.05,9.016,11.77,17.372,11.77,17.372l-0.957,2.474
		c-2.995-12.319-10.525-15.749-10.525-15.749c-2.88,6.025-1.51,19.305-1.51,19.305c-9.839,6.56-10.254,17.099-10.254,17.099
		c-8.417,6.61-12.803,13.769-14.392,16.738h-4.442H84.773l-13.861,19.796v81.499l13.861,19.799h233.002l13.86-19.799v-81.499
		L317.775,234.821z M266.918,62.039c9.87,6.717,8.924,16.136,8.924,16.136c-1.41,11.476-9.274,16.281-9.274,16.281
		c1.867-5.573,2.288-16.107,2.288-16.107C268.855,69.311,266.918,62.039,266.918,62.039 M126.75,78.175c0,0-0.95-9.419,8.922-16.136
		c0,0-1.948,7.272-1.948,16.31c0,0,0.431,10.535,2.299,16.107C136.024,94.456,128.159,89.651,126.75,78.175 M320.153,259.851v11.253
		v1.583l-16.411,12.592v-4.95v-17.21h-7.194v17.763l23.588,19.031v2.093v30.461v1.005l-0.563,0.84l-6.364,9.535l-0.987,1.476h-1.779
		h-21.457h-1.803l-0.979-1.515l-6.218-9.526l-0.538-0.825v-0.989v-5.429v-6.006l16.471-12.112v5.363v12.83h7.044v-17.793
		l-23.583-19.264v-2.071v-27.908v-1.048l0.595-0.855l7.938-11.251l0.99-1.422h1.733h17.891h1.666l0.999,1.341l8.303,11.025
		l0.661,0.882V259.851z M218.856,343.874c0,0-0.991,1.447-1.002,1.447h-1.749h-21.317h-1.806l-0.986-1.52l-6.357-9.812l-0.535-0.82
		v-0.987V277.81v-1.039l0.587-0.852l7.885-11.439l0.991-1.44h1.747h17.883h1.647l0.999,1.318l8.435,11.109l0.677,0.894v1.121v4.481
		v1.585l-1.235,0.996l-10.647,8.624l-5.413,4.392v-6.973v-9.914h-6.265v46.295h6.265v-11.961v-6.97l5.413,4.387l10.653,8.633
		l1.229,0.996v1.589v8.842v1.029l-0.577,0.85L218.856,343.874z M179.323,333.231l-0.591,0.856l-6.799,9.809l-0.991,1.425H169.2
		h-20.42h-1.718l-0.997-1.405l-6.955-9.8l-0.611-0.868v-1.056v-51.503h-0.905l-0.657-2.477l-2.911-11.026l-1.101-4.176h4.315h17.414
		h3.331v3.32v11.03v3.328h-2.19v46.298h6.239v-46.298h-2.134v-3.328v-11.03v-3.32h3.327h16.7h4.109l-0.856,4.019l-2.361,11.029
		l-0.561,2.631h-0.935v51.503V333.231z M251.185,319.078l-2.2,4.202v3.697h2.417v3.326v11.687c0,0,0,3.331-0.012,3.331h-3.329
		h-18.047h-4.2l0.962-4.088l2.756-11.697l0.61-2.559h1.546v-46.288h-1.028l-0.63-2.522l-2.756-11.033l-1.03-4.128h4.258h17.328
		h3.326v3.325v11.03c0,0,0,3.328-0.01,3.328h-2.161v9.711l5.075-9.749v-3.29v-11.03v-3.325h3.331h13.311h3.327v3.325v11.03v3.328
		h-2.805l-10.243,19.684l11.822,26.604h0.48h3.326v3.326v11.687v3.331h-3.326h-15.109h-3.326v-3.331v-11.687v-2.334L251.185,319.078
		z M176.936,252.925v2.823h-11.183v-15.271h3.478v12.448H176.936z M176.184,240.477h3.478l2.501,10.394h0.044l2.748-10.394h3.254
		l2.698,10.528h0.046l2.589-10.528h3.415l-4.253,15.271h-3.453l-2.683-10.394h-0.044l-2.633,10.394h-3.519L176.184,240.477z
		 M202.453,240.477h3.564l5.911,15.271h-3.606l-1.193-3.399h-5.916l-1.246,3.399h-3.517L202.453,240.477z M150.51,244.929h-0.044
		l-3.876,10.819h-2.681l-3.874-10.716h-0.044v10.716h-3.256v-15.271h4.894l3.699,10.504h0.041l3.5-10.504h4.895v15.271h-3.254
		V244.929z M161.633,255.748h-3.477v-15.271h3.477V255.748z M271.102,246.567v2.616h-7.662v3.741h8.525v2.823h-12v-15.271h11.826
		v2.828h-8.352v3.263H271.102z M245.637,255.748v-15.271h11.826v2.828h-8.355v3.263h7.666v2.616h-7.666v3.741h8.531v2.823H245.637z
		 M243.172,255.748h-4.194l-5.443-7.743h-0.049l0.006,7.743h-3.475v-15.262h3.469v6.63h0.056l6.411-6.63l1.057-0.005h2.866
		l-6.954,6.871L243.172,255.748z M213.215,240.477h3.479v9.496c0,1.667,0.44,3.319,3.254,3.319c2.479,0,3.279-1.052,3.279-3.319
		v-9.496h3.477v9.496c0,4.132-2.529,6.139-6.756,6.139c-4.251,0-6.732-1.988-6.732-6.139V240.477z M85.891,263.255l-6.024-0.013
		l13.482-17.715h1.621h23.72h1.635l0.999,1.295l8.466,10.984l0.693,0.896v1.134v27.89v0.927l-0.485,0.8l-4.476,7.356l4.019,4.286
		l0.898,0.952l0.005,1.317l0.039,28.821v1.05l-0.604,0.864l-6.86,9.801l-0.991,1.42h-1.734H94.97h-1.624l-0.999-1.285
		l-12.501-16.029l9.756,0.026V263.26L85.891,263.255z M233.625,213.972c2.32,1.465,3.644,3.012,3.644,3.012
		c-0.005,0.002-0.005,0.008-0.01,0.008c0.695,0.313,1.399,0.627,1.621,0.729c-0.14,9.582-5.669,14.903-8.695,17.101h-0.744
		c0.205-0.224,0.433-0.479,0.677-0.77c1.766-2.08,3.086-4.068,4.183-8.003h-1.632c-2.402,3.441-4.425,4.884-4.425,4.884
		s-0.476-0.27-0.923-1.188C233.075,222.818,233.527,214.606,233.625,213.972 M227.855,161.431c-4.253,4.115-10.139,2.46-10.139,2.46
		c1.235,3.97,0.284,4.928,0.284,4.928c-0.978-3.272-4.259-6.558-4.259-6.558c3.975-6.712,3.838-11.499,3.838-11.499
		c6.43-0.545,9.435-3.002,9.435-3.002l1.917,0.814C233.309,155.831,227.855,161.431,227.855,161.431 M206.633,191.814l0.271-0.967
		c4.106,0.682,5.21,1.65,5.21,1.65c5.342-8.08,0.133-15.819,0.133-15.819c-6.018-1.638-7.253-5.792-7.253-5.792h-3.697h-0.006
		h-3.694c0,0-1.238,4.153-7.255,5.792c0,0-5.206,7.739,0.134,15.819c0,0,1.095-0.968,5.208-1.65l0.271,0.967
		c0,0-3.559,1.09-5.892,3.554c0,0-3.407-1.235-4.778-10.13c0,0-0.15-7.934,3.685-10.809c0,0,5.891-1.229,7.799-7.384h4.521h0.006
		h4.521c1.909,6.155,7.801,7.384,7.801,7.384c3.838,2.875,3.683,10.809,3.683,10.809c-1.362,8.895-4.777,10.13-4.777,10.13
		C210.192,192.905,206.633,191.814,206.633,191.814 M208.959,199.472l-0.814,1.437c-1.203-0.792-2.521-1.248-3.693-1.521
		c-1.443-0.303-2.746-0.373-3.155-0.387h-0.006c-0.409,0.014-1.707,0.083-3.155,0.387c-1.167,0.272-2.491,0.729-3.694,1.521
		l-0.817-1.437c0,0,2.899-2.081,7.667-2.18C206.064,197.392,208.959,199.472,208.959,199.472 M205.94,183.47
		c1.732-0.903,3.778-3.363,3.778-3.363c0.414,5.948-2.815,6.923-2.815,6.923C206.084,185.852,205.94,183.47,205.94,183.47
		 M196.646,183.47c0,0-0.146,2.382-0.963,3.561c0,0-3.231-0.976-2.811-6.923C192.873,180.107,194.917,182.567,196.646,183.47
		 M265.605,127.507c-9.557,25.358-27.91,22.623-29.769,22.071c0.249-0.895-0.416-6.762-0.636-7.237
		c4.714-1.336,7.218,1.007,7.218,1.007v-0.06C252.912,125.863,265.13,127.129,265.605,127.507 M219.23,128.735
		c1.497,4.447,6.076,7.195,6.076,7.195c-5.118,1.152-8.549-4.458-8.549-4.458L219.23,128.735z M183.362,128.735l2.47,2.738
		c0,0-3.428,5.61-8.553,4.458C177.279,135.93,181.859,133.182,183.362,128.735 M136.978,127.507
		c0.481-0.378,12.703-1.645,23.197,15.782v0.06c0,0,2.497-2.343,7.218-1.007c-0.223,0.475-0.893,6.342-0.648,7.237
		C164.892,150.13,146.537,152.865,136.978,127.507 M174.732,161.431c0,0-5.455-5.6-1.078-12.857l1.917-0.814
		c0,0,3.005,2.457,9.439,3.002c0,0-0.142,4.787,3.83,11.499c0,0-3.28,3.285-4.255,6.558c0,0-0.948-0.958,0.283-4.928
		C184.869,163.891,178.987,165.546,174.732,161.431 M184.528,201.24c8.954,11.229,14.095,10.881,14.095,10.881
		c0.604-0.068,1.604-0.106,2.667-0.122c1.066,0.016,2.067,0.054,2.679,0.122c0,0,5.137,0.348,14.092-10.881l3.206,3.907
		c0,0-0.021,0.021-0.064,0.067c-8.762,11.903-2.366,27.162-2.366,27.162c-4.474,0.927-8.194,1.777-10.974,2.444h-17.636
		c2.369-3.557,5.864-5.801,5.864-5.801l-2.608-2.524c-1.704,0.537-4.574,2.386-4.574,2.386l-0.208-1.922l3.15-1.757l-3.43-2.337
		c-1.022-11.498-7.102-17.719-7.102-17.719L184.528,201.24z M165.323,216.983c0,0,1.318-1.547,3.638-3.012
		c0.104,0.635,0.555,8.847,6.305,15.772c-0.447,0.919-0.921,1.188-0.921,1.188S168.96,227.108,165.323,216.983"/>
	<path fill="#AC162C" d="M179.323,280.689h0.935l0.561-2.631l2.361-11.029l0.856-4.021h-4.109h-16.7h-3.327v3.323v11.03v3.328h2.134
		v46.296h-6.239v-46.296h2.188v-3.328v-11.03v-3.323h-3.329h-17.417h-4.312l1.101,4.176l2.914,11.029l0.654,2.477h0.903v51.503
		v1.059l0.614,0.867l6.959,9.801l0.992,1.402h1.72h20.423h1.738l0.991-1.43l6.799-9.804l0.591-0.856v-1.039V280.689z
		 M176.01,332.192l-6.8,9.798h-0.005h-20.413h-0.01l-6.957-9.798v-54.831h-0.005h-1.665l-2.917-11.03h17.417v5.525l0.007,5.505
		h-0.007h-2.175v52.944h12.88v-52.944h-2.122h-0.01v-11.03h16.689h0.01l-2.343,11.03h-0.016h-1.557V332.192z"/>
	<path fill="#AC162C" d="M79.847,328.002l12.501,16.034l0.999,1.285h1.625h25.326h1.731l0.991-1.42l6.86-9.801l0.604-0.862
		l-0.003-1.057l-0.036-28.822l-0.005-1.312l-0.898-0.955l-4.016-4.283l4.473-7.356l0.482-0.8v-0.927v-27.893v-1.131l-0.692-0.896
		l-8.461-10.984l-0.997-1.295h-1.645H94.971H93.35l-13.479,17.715l6.019,0.01l3.712,0.008v64.771L79.847,328.002z M85.895,260.471
		l9.077-11.613h23.714l8.472,10.977v27.893l-5.784,9.512l5.745,6.135h0.01l0.029,28.819l-6.86,9.801H94.971l-8.982-11.535
		l6.936-0.012V260.48L85.895,260.471z"/>
	<path fill="#AC162C" d="M103.577,330.378l12.935-0.079v-27.52h-12.935V330.378z M106.902,306.105h6.287v20.892l-6.287,0.033
		V306.105z"/>
	<path fill="#AC162C" d="M116.511,292.776v-32.243l-12.935-0.026v32.27H116.511z M106.902,263.838l6.287,0.021v25.587h-6.287
		V263.838z"/>
	<path fill="#AC162C" d="M254.848,341.99v3.331h3.326h15.106h3.329v-3.331v-11.687v-3.323h-3.329h-0.48l-11.819-26.607
		l10.245-19.684h2.803v-3.328v-11.03v-3.328h-3.329h-13.309h-3.331v3.328v11.03v3.29l-5.081,9.751v-9.713h2.167
		c0.007,0,0.007-3.328,0.007-3.328v-11.03v-3.328h-3.325h-17.326h-4.256l1.028,4.128l2.756,11.036l0.627,2.522h1.033v46.291h-1.551
		l-0.605,2.561l-2.758,11.692l-0.965,4.088h4.203h18.049h3.329c0.01,0,0.01-3.331,0.01-3.331v-11.687v-3.323h-2.423v-3.697
		l2.206-4.203l3.663,8.89v2.334V341.99z M251.547,311.223l-5.56,10.613l-0.333,0.628v7.84h2.408h0.01v0.005l0.006-0.005v11.687
		h-0.006h-0.01h-18.049l2.753-11.687h2.25v-52.942h-0.005h-1.754h-0.011l0.004-0.016l-2.75-11.015h17.317h0.009v0.005l0.012-0.005
		v11.03h-0.012h-0.009h-2.151v26.6l-0.013,0.012v0.008l13.872-26.619h-0.454h-1.682h-0.076l0.076-0.134v-10.896h13.309v0.015
		l0.011-0.015v11.03h-0.011h-1.492l0,0l-0.934,1.79l-10.971,21.103l13.341,30.05h2.637v11.687h-15.106v-11.687h1.233
		L251.547,311.223z"/>
	<path fill="#AC162C" d="M225.955,333.513v-1.031v-8.84v-1.589l-1.229-0.996l-10.65-8.636l-5.416-4.39v6.978v11.959h-6.265v-46.293
		h6.265v9.91v6.975l5.416-4.392l10.65-8.621l1.229-0.999v-1.583v-4.483v-1.121l-0.675-0.894l-8.44-11.109l-0.995-1.318h-1.65h-17.88
		h-1.747l-0.991,1.442l-7.891,11.438l-0.582,0.852v1.039v54.37v0.986l0.535,0.823l6.357,9.812l0.986,1.52h1.806h21.317h1.749
		c0.011,0,1.002-1.445,1.002-1.445l6.521-9.514L225.955,333.513z M216.111,341.99h-0.006h-21.312h-0.005l-6.357-9.811v-54.37
		l7.883-11.443h17.88l8.44,11.115v4.483l-10.654,8.62V277.35h-12.911v20.826h0.031v32.118h12.88v-15.285l10.654,8.633v8.84
		L216.111,341.99z"/>
	<path fill="#AC162C" d="M311.189,246.838l-0.997-1.336h-1.67h-17.889H288.9l-0.99,1.42l-7.939,11.251l-0.593,0.855v1.048v27.903
		v2.076l23.581,19.269v17.79h-7.042v-12.835v-5.36l-16.471,12.112v6.01v5.422v0.992l0.538,0.825l6.218,9.526l0.983,1.515h1.801
		h21.458h1.774l0.986-1.476l6.37-9.538l0.561-0.837v-1.008v-30.455v-2.094l-23.591-19.028v-17.768h7.197v17.212v4.948l16.414-12.592
		v-1.583v-11.251v-1.104l-0.664-0.882L311.189,246.838z M316.829,271.104l-10.513,8.579h-0.006l0.006-0.007v-19.874l-0.011-0.012
		h-13.087v23.181l23.585,19.037v30.455l-6.359,9.532h-21.458l-6.215-9.532V322.8l10.571-8.521v8.454h0.006v7.7l-0.006,0.003v0.002
		h12.938h0.005v-23.185v-0.005l-0.005,0.005l-23.586-19.274h0.005v-27.903l7.935-11.251h17.889l8.307,11.027V271.104z"/>
	<polygon fill="#FFFFFF" points="166.895,335.867 170.563,331.37 170.563,270.998 165.364,277.361 165.359,277.361 165.359,330.309 
		152.477,330.309 149.24,333.009 146.94,329.743 147.196,271.197 141.83,277.361 141.825,277.361 141.825,332.192 148.782,341.993 
		148.792,341.993 151.073,335.867 	"/>
	<polygon fill="#FFFFFF" points="165.791,271 170.568,270.998 174.035,270.998 179.926,266.331 179.918,266.331 163.229,266.331 
		163.229,277.361 163.239,277.361 	"/>
	<polygon fill="#FFFFFF" points="147.196,271.197 152.09,271.207 154.648,266.346 154.654,271.856 154.654,266.331 137.243,266.331 
		140.155,277.361 143.525,271.197 	"/>
	<polygon fill="#C4CED4" points="152.093,271.207 147.199,271.197 146.937,329.748 149.24,333.012 152.474,330.309 152.474,277.361 
		154.654,277.361 154.659,277.361 154.654,271.856 154.648,266.346 	"/>
	<polygon fill="#C4CED4" points="176.01,277.361 177.567,277.361 177.583,277.361 179.926,266.331 174.039,270.995 170.566,270.995 
		170.566,331.372 166.895,335.867 151.067,335.867 148.792,341.99 169.205,341.99 169.209,341.99 176.01,332.192 	"/>
	<polygon fill="#C4CED4" points="170.568,270.995 165.791,271 163.239,277.361 165.359,277.361 165.364,277.361 	"/>
	<polygon fill="#C4CED4" points="147.196,271.197 143.525,271.197 140.155,277.361 141.82,277.361 141.825,277.361 141.833,277.361 
			"/>
	<path fill="#FFFFFF" d="M85.989,330.458l8.981,11.535l3.151-6.02l20.102,0.194l3.542-4.763v-28.022l5.353-0.01l-5.745-6.135
		l5.781-9.512l-5.797,9.512l-4.473-0.256l4.762-8.156l-0.215-28.974l5.724-0.019l-8.469-10.977H94.97l-9.077,11.613l7.03,0.01
		v69.966L85.989,330.458z M98.3,254.277l18.621,0.101l2.75,3.443l-3.152,2.717l-12.942-0.031l12.937,0.031v32.242h-12.937
		l-5.277,4.498l18.497,0.141l3.259,4.085l-3.537,1.275h-0.005v27.52l-12.937,0.077l-5.58,5.292l0.303-38.39V254.277z
		 M86.065,260.471l12.149-6.289l0.014-0.013l0.027-0.003l-0.041,0.016l-5.28,6.299L86.065,260.471z"/>
	<polygon fill="#C4CED4" points="121.768,331.405 118.223,336.168 98.119,335.977 94.973,341.99 120.294,341.99 127.155,332.192 
		127.128,303.373 127.116,303.373 121.768,303.383 	"/>
	<polygon fill="#C4CED4" points="121.649,288.826 116.885,296.987 121.358,297.243 127.155,287.727 127.155,259.837 
		121.431,259.859 	"/>
	<polygon fill="#C4CED4" points="103.577,260.507 116.516,260.533 119.669,257.821 116.921,254.378 98.299,254.277 98.299,297.278 
		103.577,292.776 	"/>
	<polygon fill="#C4CED4" points="103.577,330.376 103.577,302.779 116.511,302.779 116.516,302.779 120.056,301.504 
		116.794,297.419 98.299,297.278 97.997,335.665 	"/>
	<polygon fill="#C4CED4" points="98.23,254.172 98.216,254.182 98.253,254.166 	"/>
	<polygon fill="#C4CED4" points="98.216,254.184 86.065,260.471 92.93,260.484 	"/>
	<polygon fill="#FFFFFF" points="258.174,330.304 258.174,341.993 260.806,336.767 270.266,336.625 273.28,330.304 270.644,330.304 
		267.172,336.625 254.107,306.277 245.987,321.833 251.547,311.223 259.407,330.304 	"/>
	<polygon fill="#FFFFFF" points="240.086,336.213 240.507,320.767 264.155,277.637 264.438,270.677 267.356,270.677 
		270.699,266.346 270.699,266.331 257.391,266.331 257.391,277.228 260.77,270.629 264.416,270.677 259.072,277.361 
		259.523,277.361 245.654,303.978 245.654,303.973 240.382,313.809 240.102,270.709 235.009,277.361 235.017,277.361 
		235.017,330.301 232.77,330.301 230.01,341.99 235.499,336.213 	"/>
	<polygon fill="#FFFFFF" points="244.558,336.216 248.072,330.306 248.072,330.304 248.058,330.304 245.654,330.304 
		240.086,336.216 	"/>
	<polygon fill="#FFFFFF" points="240.128,270.679 243.724,270.679 247.829,266.336 247.829,266.329 247.818,266.329 
		230.501,266.329 233.255,277.346 236.673,270.673 	"/>
	<polygon fill="#FFFFFF" points="257.303,300.254 268.273,279.151 257.282,300.203 	"/>
	<polygon fill="#C4CED4" points="267.172,336.625 270.644,330.304 257.303,300.254 257.279,300.203 268.273,279.151 
		269.207,277.361 269.207,277.361 270.699,277.361 270.71,277.361 270.71,266.331 270.699,266.346 267.356,270.679 264.438,270.679 
		264.155,277.637 240.507,320.77 240.086,336.21 245.654,330.304 245.654,322.464 245.987,321.836 254.109,306.28 	"/>
	<polygon fill="#C4CED4" points="240.086,336.213 235.499,336.213 230.01,341.99 248.062,341.99 248.072,341.99 248.081,341.99 
		248.081,330.301 248.072,330.309 244.558,336.216 	"/>
	<polygon fill="#C4CED4" points="260.803,336.767 258.174,341.99 273.283,341.99 273.283,330.304 270.266,336.625 	"/>
	<polygon fill="#C4CED4" points="240.382,313.806 245.654,303.973 245.671,303.961 245.671,277.361 247.818,277.361 
		247.829,277.361 247.837,277.361 247.837,266.334 247.829,266.339 243.727,270.679 240.128,270.679 236.669,270.673 
		233.251,277.35 233.247,277.361 233.258,277.361 235.009,277.361 240.099,270.711 	"/>
	<polygon fill="#C4CED4" points="260.766,270.632 257.391,277.225 257.312,277.361 257.391,277.361 259.072,277.361 264.42,270.679 
			"/>
	<polygon fill="#FFFFFF" points="216.104,341.99 216.111,341.99 222.632,332.481 	"/>
	<polygon fill="#FFFFFF" points="214.3,336.454 216.802,332.562 216.802,324.636 222.63,323.642 211.98,315.009 211.98,330.294 
		199.101,330.294 199.101,330.306 195.863,333.009 193.563,329.743 193.683,301.989 193.527,278.584 197.86,271.478 212.77,271.478 
		215.344,274.456 211.98,277.346 211.98,290.585 217.228,280.527 217.228,277.493 222.63,277.481 214.197,266.366 196.314,266.366 
		188.431,277.81 188.431,332.182 194.788,341.99 194.793,341.99 196.999,336.454 	"/>
	<polygon fill="#C4CED4" points="212.77,271.482 197.86,271.482 193.527,278.581 193.683,301.994 193.563,329.743 195.863,333.012 
		199.101,330.309 199.101,330.294 199.101,298.176 199.074,298.176 199.074,277.346 211.98,277.346 215.35,274.453 	"/>
	<polygon fill="#C4CED4" points="217.225,280.527 211.98,290.587 222.632,281.963 222.632,277.481 217.225,277.493 	"/>
	<polygon fill="#C4CED4" points="222.632,323.642 216.799,324.633 216.799,332.562 214.3,336.454 196.999,336.454 194.793,341.99 
		216.104,341.99 222.632,332.483 	"/>
	<polygon fill="#FFFFFF" points="311.251,304.576 316.804,302.008 293.219,282.969 288.325,285.256 	"/>
	<path fill="#FFFFFF" d="M306.316,279.683l10.513-8.579L306.316,279.683z"/>
	<polygon fill="#FFFFFF" points="290.634,248.825 282.699,260.076 282.699,287.979 288.325,285.256 288.325,259.843 
		291.941,254.106 307.365,254.106 309.731,256.859 306.316,259.79 306.306,259.79 306.316,259.802 306.316,279.676 311.553,269.647 
		311.553,259.853 316.829,259.853 308.524,248.825 	"/>
	<polygon fill="#FFFFFF" points="308.473,335.835 311.251,331.3 311.251,304.576 306.288,307.249 306.288,307.254 306.288,330.437 
		306.282,330.437 293.343,330.437 293.343,330.451 293.33,330.446 290.069,333.169 288.122,329.836 288.107,328.363 
		288.114,328.363 288.114,323.948 293.343,314.279 282.771,322.8 282.771,332.463 288.984,341.99 290.92,335.835 	"/>
	<polygon fill="#C4CED4" points="288.112,328.363 288.107,328.363 288.122,329.836 290.065,333.169 293.327,330.446 
		293.343,330.451 293.343,330.437 293.351,330.434 293.351,322.733 293.343,322.733 293.343,314.279 288.112,323.948 	"/>
	<polygon fill="#C4CED4" points="311.251,331.3 308.473,335.837 290.914,335.837 288.986,341.993 310.444,341.993 316.804,332.466 
		316.804,302.005 311.251,304.576 	"/>
	<polygon fill="#C4CED4" points="288.325,285.256 282.699,287.979 282.694,287.984 306.28,307.254 306.285,307.249 311.251,304.576 
			"/>
	<polygon fill="#C4CED4" points="309.731,256.859 307.362,254.106 291.941,254.106 288.325,259.843 288.325,285.256 
		293.219,282.971 293.219,259.79 306.306,259.79 306.316,259.79 	"/>
	<polygon fill="#C4CED4" points="311.553,269.647 306.312,279.68 306.312,279.683 316.827,271.104 316.827,259.853 311.553,259.853 
			"/>
	<polygon fill="#FFFFFF" points="153.766,240.477 148.869,240.477 145.369,250.98 145.328,250.98 141.63,240.477 136.734,240.477 
		136.734,255.748 139.99,255.748 139.99,245.032 140.035,245.032 143.912,255.748 146.589,255.748 150.466,244.929 150.51,244.929 
		150.51,255.748 153.766,255.748 	"/>
	<rect x="158.156" y="240.477" fill="#FFFFFF" width="3.477" height="15.271"/>
	<polygon fill="#FFFFFF" points="165.75,240.477 165.75,255.748 176.934,255.748 176.934,252.925 169.23,252.925 169.23,240.477 	
		"/>
	<polygon fill="#FFFFFF" points="183.891,255.748 186.526,245.353 186.568,245.353 189.251,255.748 192.702,255.748 
		196.957,240.477 193.545,240.477 190.953,251.002 190.909,251.002 188.208,240.477 184.955,240.477 182.204,250.873 
		182.162,250.873 179.661,240.477 176.181,240.477 180.372,255.748 	"/>
	<path fill="#FFFFFF" d="M201.213,252.349h5.916l1.193,3.399h3.606l-5.908-15.271h-3.567l-6.005,15.271h3.523L201.213,252.349z
		 M204.182,244.243h0.041l1.993,5.6h-4.1L204.182,244.243z"/>
	<path fill="#FFFFFF" d="M219.947,256.111c4.229,0,6.756-2.011,6.756-6.139v-9.496h-3.477v9.496c0,2.268-0.8,3.319-3.279,3.319
		c-2.812,0-3.254-1.652-3.254-3.319v-9.496h-3.479v9.496C213.215,254.123,215.696,256.111,219.947,256.111"/>
	<polygon fill="#FFFFFF" points="257.637,255.748 257.637,252.925 249.107,252.925 249.107,249.184 256.773,249.184 
		256.773,246.567 249.107,246.567 249.107,243.305 257.463,243.305 257.463,240.477 245.637,240.477 245.637,255.748 	"/>
	<polygon fill="#FFFFFF" points="271.791,243.301 271.791,240.477 259.96,240.477 259.96,255.748 271.965,255.748 271.965,252.925 
		263.439,252.925 263.439,249.184 271.104,249.184 271.104,246.567 263.439,246.567 263.439,243.301 	"/>
	<polygon fill="#FFFFFF" points="241.011,240.479 239.952,240.486 233.541,247.113 233.485,247.113 233.485,240.486 230.02,240.486 
		230.02,255.748 233.491,255.748 233.485,248.005 233.531,248.005 238.981,255.748 243.172,255.748 236.917,247.353 
		243.872,240.479 	"/>
	<path fill="#C4CED4" d="M135.672,62.039c-9.87,6.717-8.922,16.137-8.922,16.137c1.411,11.475,9.274,16.28,9.274,16.28
		c-1.869-5.573-2.299-16.11-2.299-16.11C133.725,69.308,135.672,62.039,135.672,62.039 M129.217,77.907
		c-0.005-0.063-0.008-0.213-0.008-0.484c0-1.257,0.291-4.567,2.621-8.095c-0.316,2.598-0.585,5.677-0.585,9.018
		c0.015,0.305,0.178,3.798,0.653,7.818C130.691,84.023,129.63,81.318,129.217,77.907"/>
	<path fill="#2B5134" d="M186.378,161.296c-2.882-4.656-3.017-9.162-3.017-9.162c-4.235-0.403-7.671-1.917-7.671-1.917
		c-2.725,5.06-0.254,7.939-0.254,7.939C178.441,163.891,186.378,161.296,186.378,161.296"/>
	<path fill="#FFFFFF" d="M185.832,131.473l-2.47-2.735c-1.5,4.441-6.083,7.192-6.083,7.192
		C182.404,137.076,185.832,131.473,185.832,131.473"/>
	<path fill="#FFFFFF" d="M184.871,163.894c-1.235,3.967-0.28,4.928-0.28,4.928c0.97-3.279,4.25-6.561,4.25-6.561
		c-3.97-6.712-3.83-11.499-3.83-11.499c-6.434-0.545-9.442-3.005-9.442-3.005l-1.915,0.819c-4.377,7.255,1.078,12.857,1.078,12.857
		C178.987,165.542,184.871,163.894,184.871,163.894 M175.437,158.156c0,0-2.47-2.875,0.259-7.939c0,0,3.431,1.515,7.666,1.917
		c0,0,0.134,4.506,3.017,9.162C186.378,161.296,178.441,163.894,175.437,158.156"/>
	<path fill="#FFFFFF" d="M217.3,185.239c0,0,0.155-7.936-3.686-10.809c0,0-5.889-1.229-7.804-7.384h-4.513h-0.008h-4.517
		c-1.912,6.155-7.803,7.384-7.803,7.384c-3.835,2.873-3.685,10.809-3.685,10.809c1.371,8.895,4.775,10.127,4.775,10.127
		c2.335-2.459,5.895-3.552,5.895-3.552l-0.273-0.97c-4.109,0.685-5.207,1.652-5.207,1.652c-5.34-8.083-0.134-15.819-0.134-15.819
		c6.017-1.641,7.255-5.792,7.255-5.792h3.694h0.008h3.695c0,0,1.237,4.151,7.253,5.792c0,0,5.209,7.736-0.131,15.819
		c0,0-1.105-0.968-5.21-1.652l-0.274,0.97c0,0,3.564,1.093,5.892,3.552C212.522,195.366,215.938,194.134,217.3,185.239"/>
	<path fill="#FFFFFF" d="M192.873,180.107c-0.421,5.948,2.809,6.923,2.809,6.923c0.818-1.179,0.965-3.565,0.965-3.565
		C194.917,182.567,192.873,180.107,192.873,180.107"/>
	<path fill="#FFFFFF" d="M167.393,142.339c-4.722-1.333-7.218,1.012-7.218,1.012v-0.062c-10.496-17.426-22.713-16.16-23.199-15.782
		c9.562,25.358,27.917,22.626,29.771,22.071C166.5,148.683,167.17,142.816,167.393,142.339"/>
	<path fill="#FFFFFF" d="M175.266,229.744c-5.75-6.929-6.202-15.135-6.305-15.772c-2.32,1.465-3.635,3.012-3.635,3.012
		c3.635,10.125,9.021,13.949,9.021,13.949S174.819,230.663,175.266,229.744"/>
	<path fill="#C4CED4" d="M275.842,78.176c0,0,0.946-9.42-8.929-16.137c0,0,1.942,7.269,1.942,16.307c0,0-0.421,10.538-2.285,16.11
		C266.57,94.456,274.432,89.651,275.842,78.176 M270.759,69.328c2.325,3.531,2.623,6.838,2.623,8.095
		c0,0.271-0.005,0.42-0.007,0.484c-0.422,3.411-1.48,6.118-2.684,8.257c0.474-4.017,0.63-7.514,0.648-7.818
		C271.34,75.005,271.072,71.926,270.759,69.328"/>
	<path fill="#2B5134" d="M219.23,152.134c0,0-0.141,4.506-3.021,9.162c0,0,7.936,2.594,10.945-3.14c0,0,2.465-2.88-0.262-7.939
		C226.893,150.217,223.457,151.731,219.23,152.134"/>
	<path fill="#FFFFFF" d="M225.307,135.93c0,0-4.579-2.746-6.076-7.192l-2.471,2.735C216.76,131.473,220.191,137.076,225.307,135.93"
		/>
	<path fill="#FFFFFF" d="M227.015,147.757c0,0-2.999,2.46-9.44,3.005c0,0,0.143,4.787-3.832,11.499c0,0,3.281,3.282,4.259,6.561
		c0,0,0.951-0.961-0.284-4.928c0,0,5.886,1.649,10.139-2.46c0,0,5.453-5.603,1.076-12.857L227.015,147.757z M227.154,158.156
		c-3.01,5.737-10.945,3.14-10.945,3.14c2.881-4.656,3.021-9.162,3.021-9.162c4.229-0.403,7.66-1.917,7.66-1.917
		C229.619,155.281,227.154,158.156,227.154,158.156"/>
	<path fill="#FFFFFF" d="M209.716,180.107c0,0-2.043,2.46-3.775,3.358c0,0,0.142,2.387,0.965,3.565
		C206.905,187.03,210.133,186.055,209.716,180.107"/>
	<path fill="#FFFFFF" d="M193.625,199.472l0.815,1.437c1.203-0.79,2.527-1.248,3.694-1.521c1.485-0.337,2.719-0.373,3.155-0.387
		h0.006c0.437,0.014,1.671,0.049,3.155,0.387c1.173,0.272,2.49,0.731,3.693,1.521l0.814-1.437c0,0-2.895-2.083-7.669-2.178
		C196.522,197.392,193.625,199.472,193.625,199.472"/>
	<path fill="#FFFFFF" d="M242.416,143.289v0.062c0,0-2.501-2.346-7.217-1.012c0.22,0.478,0.884,6.347,0.64,7.239
		c1.856,0.556,20.213,3.29,29.769-22.071C265.133,127.131,252.909,125.863,242.416,143.289"/>
	<path fill="#FFFFFF" d="M228.243,230.933c0,0,2.024-1.442,4.423-4.884h1.634c-1.097,3.935-2.417,5.925-4.183,8.003
		c-0.244,0.287-0.475,0.546-0.674,0.771h0.738c3.029-2.199,8.561-7.519,8.701-17.1c-0.225-0.105-0.929-0.419-1.622-0.735
		c0.003,0,0.003,0,0.008-0.005c0,0-1.323-1.547-3.642-3.012c-0.1,0.635-0.554,8.844-6.304,15.772
		C227.77,230.661,228.243,230.933,228.243,230.933"/>
	<path fill="#FFFFFF" d="M191.851,225.201l-3.153,1.759l0.211,1.922c0,0,2.87-1.851,4.574-2.39l2.608,2.525
		c0,0-3.496,2.247-5.864,5.804h17.636c2.777-0.669,6.5-1.518,10.974-2.441c0,0-6.396-15.262,2.366-27.165
		c0.041-0.051,0.067-0.067,0.067-0.067l-3.207-3.907c-8.957,11.229-14.1,10.877-14.1,10.877c-0.607-0.064-1.606-0.101-2.673-0.118
		c-1.063,0.018-2.062,0.054-2.667,0.118c0,0-5.141,0.352-14.095-10.877l-3.209,3.907c0,0,6.08,6.216,7.102,17.721L191.851,225.201z"
		/>
	<path fill="#C4CED4" d="M283.104,96.978c-0.021,0.026-0.038,0.05-0.057,0.073c0.003-0.005,0.013-0.016,0.019-0.023
		C283.078,97.009,283.094,96.994,283.104,96.978"/>
	<path fill="#C4CED4" d="M119.485,96.978c0.008,0.016,0.021,0.031,0.031,0.044c0.011,0.005,0.016,0.015,0.021,0.021
		C119.516,97.022,119.5,96.999,119.485,96.978"/>
</g>
</svg>
