<?xml version="1.0" encoding="utf-8"?>
<!-- Generator: Adobe Illustrator 16.0.0, SVG Export Plug-In . SVG Version: 6.00 Build 0)  -->
<!DOCTYPE svg PUBLIC "-//W3C//DTD SVG 1.1//EN" "http://www.w3.org/Graphics/SVG/1.1/DTD/svg11.dtd">
<svg version="1.1" id="Layer_1" xmlns="http://www.w3.org/2000/svg" xmlns:xlink="http://www.w3.org/1999/xlink" x="0px" y="0px"
	 width="400px" height="400px" viewBox="0 0 400 400" enable-background="new 0 0 400 400" xml:space="preserve">
<path d="M246,252.7c0,2.4,1.7,4.7,3.9,4.7c2.1,0,3.9-2.3,3.9-4.7c0-2.4-1.7-4.7-3.9-4.7C247.7,248,246,250.3,246,252.7"/>
<path d="M135.8,284.1c-0.1-2.8-1-3.7-2.4-4v8.2c0.5-0.2,1-0.4,1.4-0.7C135.6,286.9,135.9,285.7,135.8,284.1"/>
<path d="M143.2,294.2c2,1.6,3.5,3.7,4.4,5.7l-0.1-13.5C146.8,289.8,144.9,292.5,143.2,294.2"/>
<path d="M173.9,274l-0.9,6.6l-0.6,4.4l-3.4-2.9l-3.3-2.9l-5.1-0.1c0,2.6,0.1,6.7,0.1,9.2h9.1h3.8l-1.6,3.5l-3.6,7.7l-0.9,2l-2.1-0.7
	l-4.7-1.6l-0.1,12.3l4.1-0.1l6.7-4.5l3.8-2.6v4.6v8.1l0.7-1.6l-0.3-37.8L173.9,274z"/>
<path d="M251.7,281.8c0,0-0.2,0.1-0.6,0.5c-1.5,1.7-3.1,6.6-3.1,13.5c0,9.2,2.7,14.1,3.7,14.1c0.4,0,0.9-0.4,1.1-0.7
	c1.2-1.4,2.6-7.1,2.6-13.4c0-6.8-1.6-11.8-3.1-13.4C251.9,281.9,251.7,281.8,251.7,281.8"/>
<polygon points="188.8,315.6 190.6,319.3 191.3,320.8 191.8,319.5 193,316.3 188.6,307.5 "/>
<path d="M189.1,279.8c-0.1,2.3-0.2,6-0.2,8.6c1.6-0.9,2.5-2.7,2.6-5.5c0-0.6-0.3-1.8-1.1-2.5C190.2,280.2,189.8,279.9,189.1,279.8"
	/>
<path d="M134.7,301.2c-0.4-0.3-0.9-0.5-1.4-0.7v10.7c0.6-0.1,1.1-0.3,1.4-0.6c0.9-0.8,2-2,2.1-4.9
	C136.9,303.7,135.7,302,134.7,301.2"/>
<polygon points="83.8,274.9 81.5,272 80.2,270.3 79.5,271.7 77.7,275 77.7,313.5 77.8,314 "/>
<path d="M369,285c0,0,9.1-19,9.1-19.1c0-0.1-0.1-0.2-0.1-0.2s-0.4-0.5-0.4-0.5c-0.4-0.4-8.8-10.9-19-12.2l-1.2-0.1l-5.6-10.5
	l1.7-0.4c2.1-0.4,3.6-1,4.5-1.4c0,0,0.2-0.1,0.3-0.2c-0.1-0.1-14.8-24.9-14.8-24.9l1.6-0.5c1.2-0.3,2.1-0.7,2.7-0.9
	c0,0,0.2-0.1,0.3-0.2c-0.1-0.2-27.6-50.8-27.7-51c-0.2,0.3-18.2,33.4-18.2,33.4s-14.4-26.5-14.5-26.7c-0.1,0.2-4.6,8.5-4.6,8.5
	l-0.6-3.8c-0.5-3.5-1.5-6.7-2.9-9.7c-1.7-3.6-4.4-7.7-8-12.2l-2.3-2.9l3.6,0.8c3.2,0.7,5.7,1.8,6,2c0,0,3.3,1.6,3.5,1.7
	c-0.1-0.4-0.8-3.8-0.8-3.8c-1.1-5.6-4-10.8-8.6-15.6l-3.1-3.2l6.1,1.4c0,0,4.3,1.2,4.6,1.3c-0.3-0.4-2.3-4.1-2.3-4.1
	c-3.9-6.9-8.1-10.7-10.9-12.7l-0.8-0.6l0.4-1c6.6-16.2,10-28.7,10-37c0-6.8-2.3-8.8-3.2-9.4l-0.5-0.3c0,0-0.1,0-0.1-0.1
	c-0.1,0-0.7,0.2-0.7,0.2c-1.9,0.4-6.5,3.5-16.7,10.4c-5.5,3.7-11.6,7.9-16,10.6c-5.8,3.5-10.1,5-12.7,5.7l-1.1,0.3l-0.4-1.1
	c-0.8-2.2-1.3-5.5-1.4-7.8c0,0-0.1-3.1-0.2-3.3c-0.3,0.2-2.8,1.8-2.8,1.8c-1.8,1.2-4.1,3.8-6.6,7.5l-1,1.5l-1.1-1.5
	c-3.4-4.7-7.3-7.8-7.5-7.9c0,0-4.1-3.2-4.4-3.4c0.1,0.6,1.3,5.4,1.3,5.4l0,0l0,0.9l-0.2,4l-2-1.5c-3.7-2.8-8.2-5.4-8.6-5.7
	c0,0-3.1-1.8-3.3-1.9c0,0.4,0.2,1.8,0.2,1.8l0.5,4.7l-2.3-1.5c-5.2-3.5-11.2-5.4-11.8-5.6c0,0-3.6-1.1-3.8-1.1
	c0.2,0.4,1.5,3.7,1.5,3.7c0.6,1.4,1,3.3,1.4,5.6l0.4,2.4l-2.2-1.1c-8.8-4.3-25.1-14.4-31-18.7c-3.4-2.5-6.1-3.2-8.1-2.1
	c-2.7,1.4-2.7,5.2-2.7,6.4l0,1.1c0.5,11.8,6.9,29.3,9.6,36.3l0.4,1l-0.9,0.6c-8.4,5.2-14,12.8-14.6,13.7c0,0-2.2,3.1-2.3,3.3
	c0.4,0,4-0.3,4-0.3l5.8-0.1l-2.9,2.3c-7.2,5.8-10.8,12.7-10.9,12.8c0,0-2,3.8-2.1,4c0.5-0.1,4.4-1.3,4.4-1.3c1.9-0.5,3.8-1,5.8-1.2
	l3.2-0.4l-2,2.5c-3.9,4.7-6.6,10.3-8.2,16.8c-0.4,1.7-0.8,3.5-1,5.3l-0.5,4c0,0-4.5-8.4-4.6-8.6c-0.1,0.2-14.5,26.7-14.5,26.7
	S79.9,163.2,79.8,163c-0.2,0.3-27.6,50.8-27.7,51c0.2,0.1,0.3,0.2,0.3,0.2c0.6,0.3,1.5,0.6,2.7,0.9l1.6,0.5c0,0-14.7,24.8-14.8,24.9
	c0.2,0.1,0.3,0.2,0.3,0.2c0.8,0.5,2.4,1,4.5,1.4l1.7,0.4l-5.7,10.7H22c0,0.1,6.1,39.2,6.1,39.4c0.3-0.2,7.4-4.9,7.4-4.9l0.2,26
	c0,0-6.5,18.7-6.6,18.9h40.1c-0.1-0.3-1-3.1-1-3.1h274l0.3,0.1c2,0.9,9,3.8,16.8,2.8c4.4-0.5,18.8-4,18.8-26.2
	c0-9.7-5.9-17.6-8.5-20.5L369,285z M308.8,209.9l-5.5-0.7l17.4-32l11.9,32.9l-5.1,0.7c2.8,5.9,9.2,20.4,11.8,25.2l-5.4,1.1l8,17
	c-3.7,1.4-6.4,5.9-6.4,5.9l-7.3,0.1l-8.6-22.4l-25.8-0.1L308.8,209.9z M306.8,260.6h-3.4l-1.4-3h-5.1l-1.4,3h-3.2l7.2-16.3h0
	L306.8,260.6z M287.9,180.7l5,24.5l-4.2,0.6l3.2,20.7l-5.2,0.4l-1.1,10.8h-19.5l2.7-5.2l3.3-6.2l-5-0.8l7.9-13.3l3.8-6.5l-4.2-0.5
	L287.9,180.7z M270.1,248.3l0.8-3.6h9.2v3.6h-3.3v12.3h-3.3v-12.3H270.1z M229.5,102c12.3-4.1,30.9-17.7,31-17.8
	c5.7-4.7,7.6-6.2,8.7-5.7c0.8,0.4,1,1.1,1,1.6c0,0-4.3,22.7-13.5,36.9c0,0,8,2.9,12.1,9.6c0,0-8.5-0.2-12.7,0.7
	c4.4,2.6,14.7,12.1,17.6,17.2c-8.5-1.4-17.4-0.8-17.4-0.8c0.7,0.6,5,5.2,5.7,5.8c8.3,7,15.7,17.8,15.3,35.1l-0.8-4.8
	c-4.3-15.2-11.9-23.9-19.4-30.2c-1.4-1.2-8.6-6.9-9.7-7.9c0,0,5.2-0.7,7.1-1c3.1-0.5,9.2-0.2,12.3-0.1c-5.4-5.8-18.1-14.4-18.3-14.5
	l-1-0.5c5.1-1.7,14.6-1.2,15-1.2c0,0-3.7-3.9-9.5-6.7c9.8-14.7,13.1-34.5,13.2-34.5c-0.1,0,1.2-2.2-4.4,2.9
	c-0.6,0.4-6.3,5.3-13.8,12.4l2.9,4.5c-4.6,1.1-10.4,2.3-16.3,3l7.4,7.3c-6.8-3-12.7-7.7-20-8.5C224.8,103.7,227.1,102.8,229.5,102
	 M263.4,221.6l-4.3,0.3l-1.6,15.7h-17.1l5.3-10.1l2.7-5.1l-4.1-0.6l6.5-10.9l3.2-5.3l-3.5-0.4l10.9-20l3.3,19.7l-3.5,0.5
	L263.4,221.6z M257.1,252.7c0,4.6-3.3,8.3-7.2,8.3s-7.2-3.7-7.2-8.3c0-4.6,3.3-8.3,7.2-8.3S257.1,248.1,257.1,252.7 M217.5,132
	c0.3,2,1,4,1.4,3.4c1-1.7,7.4-4.9,7.4-4.9s-2.3,4-1.3,3.4c1.4-0.8,4.8,0.9,4.8,0.9c-9.5,3.7-17,8-19.9,13.6
	C209.6,145.7,217.2,130,217.5,132 M203.6,250.8v3.4h-3.5v3.1h5.3l-0.8,3.4h-7.8v-15.9h7.6l0.6,3.4h-4.9v2.8H203.6z M182,244.6V261h0
	l-8.9-9.1v8.7h-3.3v-16.3h0l8.8,8.9v-8.7H182z M209.1,199.4c-1.1-1.8-2.6-2.2-2.6-2.2s0.3-1.4,1-1.9c0.7-0.5,1.1-1,1.9-0.7
	c0,0,2,1,2,5.7c0,3.7-2,4.9-2,4.9S210.2,201.2,209.1,199.4 M199.9,222.3L199.9,222.3c-5.4-0.3-7.6-5.8-7.9-10.4
	c-0.3-4.6,0.7-6.4,3.3-6.5c2.6-0.1,3.8,3.1,4,4.5c0.1,1.4,0.7,2.6,0.7,2.6v0.1c0,0,0.5-1.2,0.7-2.6c0.1-1.4,1.4-4.6,4-4.5
	c2.6,0.1,3.5,1.9,3.3,6.5C207.5,216.6,205.3,222.1,199.9,222.3 M203.6,232c-0.7,0.9-1.8,0-1.8,0s-0.9,0.7-2.1,0.1
	c-1.2,0.6-2.1-0.1-2.1-0.1s-1,0.9-1.8,0c-1.4-1.7-0.4-4.3-0.4-4.3s0.3,2.8,2.1,3l1.2-2.1l1,2.2l1-2.2l1.2,2.1c1.8-0.2,2.1-3,2.1-3
	S205,230.3,203.6,232 M189.7,205.3c0,0-2-1.2-2-4.9c0-4.8,2-5.7,2-5.7c0.8-0.3,1.2,0.1,1.9,0.7c0.7,0.5,1,1.9,1,1.9
	s-1.5,0.4-2.6,2.2C188.9,201.2,189.7,205.3,189.7,205.3 M191.6,220.9c0,0-1,4.8,2.1,5.1c0,0,0.5-0.1,0.5,1.7c0,1.8-1.1,2.5-1.5,2.5
	c-0.4,0-2.5-1-2.5-4.9C190.1,223,191,221.7,191.6,220.9 M193,197.6c0.4-1,2.7-0.4,3.3,0.7c1.1-1.1,2.6-0.6,3.3,0.1
	c0.7-0.7,2.2-1.2,3.3-0.1c0.5-1.1,2.9-1.6,3.3-0.7c0,0,0,2.2-1.4,3.5c0,0-0.8-1.8-1.5-1.9c0,0-1.4,1.8-1.9,2.5l-1.8-2.2l-1.8,2.2
	c-0.5-0.7-1.9-2.5-1.9-2.5c-0.7,0.1-1.5,1.9-1.5,1.9C193,199.8,193,197.6,193,197.6 M205.8,226c3.1-0.3,2.1-5.1,2.1-5.1
	c0.6,0.7,1.5,2.1,1.5,4.4c0,3.8-2.1,4.9-2.5,4.9c-0.5,0-1.5-0.7-1.5-2.5C205.3,225.9,205.8,226,205.8,226 M225.5,147l2.2-1.5
	c0,0,1.7,3.7-2.2,6.7c-4.1,3.1-6.7-1.4-6.7-1.4l1.8-1.2c0,0,1.5,1.4,3.6,0.4C226.2,149.1,225.5,147,225.5,147 M219.2,249.3
	c0-3.1,2.5-4.9,4.9-4.9c1.6,0,3.1,0.7,4.3,1.8l-1.8,2.7c-0.8-0.8-1.4-1.2-2.4-1.2c-0.6,0-1.5,0.4-1.5,1.2c0,2.5,6,0.9,6,6.7
	c0,3.6-2.4,5.3-5.2,5.3c-1.7,0-3.4-0.6-4.7-1.9l2-3c0.6,0.9,1.5,1.3,2.5,1.3c0.7,0,1.8-0.4,1.8-1.4
	C225.3,253.5,219.2,255,219.2,249.3 M124.8,173.8c0,0,3.6-18.7,17.9-29.8c0,0,2.6-1.1-12.8-1.4c0,0,6.6-8.7,17.5-13.7
	c0,0-6.8-1.2-12.8-0.6c0,0,4.8-9.3,21.5-11.8l1.3-0.2c-1.1-1.9-3.7-1.1-4.8-3c-0.6-1,14.6-4.7,14.1-5.7c-0.7-1.2-13.5-4.4-14.2-5.5
	c-0.4-0.7,4.6-2.8,4.3-3.5c-0.4-0.6-3.2-2.1-5.7-3.9c-2.5-1.7-4.8-3.6-5-3.6c-2.2,0.5,0.7,21.9,0.8,23.1c0,0.1-2.2,0.6-2.2,0.6
	c-1.2-1.2-11.1-30.9-8.9-36.1c0.3-0.8,1.6-0.3,6.4,3.3c20.1,15.3,37.5,19.1,37.5,19.1c0.5-4,0-9.6,0-9.6c7.8,3,12.3,11.6,12.3,11.6
	l0.3-0.8c1.2-3.6,1.5-8.6,1.5-8.6c3.8,2.3,7.4,8.4,7.4,8.4s1.2,12.3-1.9,18.8c-1.8,3.7-7.7,6.1-13.1,5.7c0,0,1.4,1.9,3.7,3.5
	c1.3,1,3.9,2,3.9,2s-4.7,3.4-15.4,1c-1,0.1,5.3,6.3,14.4,10.1c4.3,1.9,6.5,8.9,0.8,9c0,0,4.6,5.3,5.1,9.1l0.7,3.8
	c-1.7-2.4-4.3-3.2-6.3-3.4c-0.5-0.1-0.9-0.1-1.3-0.1h-0.2c-0.4,0-0.7,0-1,0.1c0,0,0,0,0,0c-0.2,0-0.4,0.1-0.6,0.1
	c-0.1,0-0.3,0-0.4,0.1c-0.2,0.1-0.4,0.1-0.6,0.2c-0.1,0-0.2,0.1-0.3,0.1c-0.2,0.1-0.4,0.2-0.6,0.3c0,0-0.1,0-0.1,0.1
	c-1.1,0.7-1.7,1.5-1.7,1.5c0,0,0,0,0,0c1.6-0.2,2.5-0.4,5.2,0.5c8.7,2.9,7.6,14.8,8.1,16.8c0,0-2.2-1.6-5.3-1.6
	c-0.3,0-0.5,0-0.8,0.1c-0.3,0-0.6,0.1-0.9,0.2c0,0-0.1,0-0.1,0c-0.3,0.1-0.5,0.2-0.8,0.4c0,0-0.1,0.1-0.2,0.1
	c-0.2,0.1-0.4,0.3-0.6,0.5c-0.1,0.1-0.1,0.1-0.2,0.2c-0.2,0.2-0.3,0.3-0.5,0.5c-0.1,0.1-0.2,0.2-0.3,0.3c-0.1,0.1-0.2,0.3-0.3,0.5
	c-0.1,0.2-0.2,0.3-0.3,0.5c-0.1,0.1-0.1,0.2-0.2,0.4c-0.1,0.3-0.2,0.5-0.3,0.8c0,0.1,0,0.1,0,0.1c-0.1,0.3-0.1,0.7-0.1,1
	c0,1.4,0.4,2.5,1,3.5c0.5,0.9,1.2,1.6,1.7,2.1c0.6,0.6,1.2,1.3,1.3,1.7c0,0.2-0.2,0.3-0.9,0.2c0,0,0,0,0,0h0
	c-3.8-1-8.1-5.1-8.4-11.5c-0.2-5.2,1.1-7.9,2.9-8.6c0.1,0,0.3-0.1,0.4-0.1c0,0,0,0,0,0c3-0.7,7,1.8,7,1.8l0,0v0c0,0-0.4-0.9-1.4-1.9
	c-1-1-2.5-2.1-4.7-2.6c-0.9-0.2-1.8-0.2-2.7,0c-2.5,0.6-4.5,2.8-5.9,5.9c-0.6,1.3-1,2.9-1.2,4.7c-0.1,0.6-0.1,1.2-0.1,1.9
	c0,1.6,0.2,3.2,0.8,5c1.3,4.3,2.6,9.3,4.1,12.4c5.8,11.6,6,19,5.7,25.7c0,0.2,0,0.4,0,0.7c0,0.2,0,0.5,0,0.7c0,0.2,0.1,0.4,0.1,0.5
	c0,0.2,0.1,0.5,0.1,0.7c0,0.2,0.1,0.3,0.1,0.5c0.1,0.2,0.1,0.4,0.2,0.6c0.1,0.1,0.1,0.3,0.2,0.4c0.1,0.2,0.2,0.4,0.3,0.6
	c0.1,0.1,0.2,0.2,0.2,0.3c0.1,0.2,0.3,0.3,0.4,0.5c0.1,0.1,0.2,0.2,0.3,0.3c0.2,0.2,0.3,0.3,0.5,0.4c0.1,0.1,0.2,0.2,0.3,0.2
	c0.2,0.1,0.4,0.3,0.6,0.4c0.1,0.1,0.2,0.1,0.3,0.2c0.2,0.1,0.4,0.2,0.7,0.3c0.1,0,0.2,0.1,0.3,0.1c0.3,0.1,0.5,0.2,0.8,0.3
	c0.1,0,0.1,0.1,0.2,0.1c0.7,0.2,1.4,0.4,2.1,0.5c0.1,0,0.3,0,0.4,0.1c0.2,0,0.4,0.1,0.6,0.1c0.2,0,0.3,0,0.5,0.1
	c0.2,0,0.3,0,0.5,0.1c0.2,0,0.4,0,0.6,0c0.1,0,0.2,0,0.4,0c0.2,0,0.4,0,0.6,0c0.5,0,1,0,1.4,0c7,0,9.5-4.1,9.9-9.6
	c0.5-6.3-0.6-14,5.7-25.2c2.4-4.2-2,3.3-2.3,15.3c-0.3,11.5,0,24.1-14.7,24.4v0c-0.7,0-1.5,0-2.3,0c0,0-5.6-0.1-8.8-4.5
	c-0.6-0.8-1.1-1.7-1.5-2.7c-2.5-5.9-1.7-13.9-3.2-18.8c-1.4-4.6-3.5-8.9-5-11.7c-1.2-2.2-2.1-3.5-2.1-3.5v0c-0.1,2.2,0,5.7,1.8,9.6
	c1.9,4.1,2.1,8.8,2.1,10.2c0,0.1,0,0.2,0,0.2c0,0.2,0,0.3,0,0.3c-1.6-1.5-4.1-1.9-4.1-1.9c0,0.1,0.1,0.2,0.1,0.3
	c0.6,1.5,1.2,4.6,1.9,8.9c0.1,0.7,0.2,1.4,0.3,2.1c0.5,3.4,1.6,6.4,2.5,8.3c0.2,0.4,0.4,0.8,0.5,1.1v0h-17.4l-6.4-12h0
	c0,0,0.1,0,0.1,0c0.6-0.1,3-0.5,3.9-1.1l-9.3-15.7c0,0,0.5-0.1,1.1-0.2c0.6-0.1,1.3-0.4,1.9-0.7l-17-31.4l-11.6,21.3l-3-5.6
	l-1.8-3.6C122.3,188.5,123.4,178.7,124.8,173.8 M129.4,209.6c0,0,0.6-0.1,1.3-0.3c0.7-0.2,1.6-0.5,2.3-0.9l-3.5-6.5l9.2-17l6.6,20.5
	l-3.4,0.5l5.9,16.8h-4.5l3.2,14.8h-6.7l-4-7.5h0c0,0,0.1,0,0.2,0c0.8-0.1,3.6-0.6,4.8-1.4L129.4,209.6z M142.7,244.4L142.7,244.4
	l8.9,8.9v-8.7h3.3V261h0l-8.8-9.1v8.7h-3.4V244.4z M127.9,260.6h-3.4v-16.1h3.4V260.6z M112.3,180.7l8,25l-4.2,0.5l7.2,20.5h-5.5
	l2.3,10.8h-4.8l-13.3-22.4c0,0,0.8-0.1,1.8-0.3c0.9-0.2,2.1-0.6,3-1.1l-4-7.3l0.1-0.2l-0.2,0l-2.1-3.9L112.3,180.7z M98.7,244.4
	L98.7,244.4l4.3,9.7l4.4-9.7h0l3.6,16.4h-3.4l-1.2-7.4h0l-3.5,7.6h0l-3.2-7.6h0l-1.2,7.3H95L98.7,244.4z M51.5,237.6l15.7-26.9
	l-5.3-1.2l17.6-32.4L90,210l-5.5,0.7l8.7,26.9l-18.2,0l-5.5,16h-21l9-16L51.5,237.6z M368.3,313.2c-0.6,2.5-2.5,9.9-11.6,12.1
	c-8.6,2.1-14.9-3.2-16.7-5.1v0.1v2.4h-2.4h-24.6h-3.3l1-3.1l1.9-6.4l-0.2-34.6L300.3,324l-0.5,1.9h-3.7l-0.5-1.9L283,275.1l-2.3-2.7
	l-1.4,2.6v36.4l0.4,0l6.7-4.5l3.8-2.6v4.6v11.5v2.4h-2.4h-21h-3.3l1-3.2l1.9-6c0-0.8,0-2.9,0-5.7c-1,4.2-2.6,7.7-4.9,10.3
	c-2.7,3.1-6.2,4.7-10.1,4.7c-3.9,0-7.4-1.6-10.1-4.7c-3.7-4.3-5.8-11-5.9-19.4l-5,25.1l-0.4,2.1h-3.6l-0.6-1.7l-4.9-13.8l-4.9,13.8
	l-0.6,1.7h-3.6l-0.4-2.1l-8.4-41c0,1.4-0.1,2.9-0.3,4.5c-0.7,4.5-3.2,7.6-5,9.2l10.9,22.7l1.7,3.5h-3.9h-30.2h-3.8l0,0H148h-3.3
	l1-3.1l1.9-6.4l0-1c-0.8,2.3-1.9,4.3-3.5,6c-5,5.2-13,4.9-18.3,4.7c-0.9,0-1.7-0.1-2.4-0.1h-2.4v0h-10.7h-2.2l-0.2-2.2l-1.5-15.3
	l-5,18.7l-0.5,1.9h-3.7l-0.5-1.9L92.1,306l-1.5,14.6l-0.2,2.2h-2.2H77h-5.2l0,0h-6.6h-3.3l1-3.2l1.9-6L64.6,275l-0.4-0.7l-0.1,1
	l-0.6,4.4l-3.4-2.8l-4.7-3.9l-0.4,42.3l2.4,7.3l1,3.2h-3.3H42.3h-3.3l1-3.2l2.3-7.3l-0.2-42.8l-0.1,0l-5.1,4.3l-3.4,2.8l-0.6-4.4
	l-1.5-11.2l-0.4-2.8h2.8h29.4H66l-0.4,2.8l-0.5,4h12.2h1.1h3h2h11.2h2l0.3,2l2.3,13.3l2.4-13.3l0.4-2h2h10.3h1.1c0,0,0,0,0,0
	l3.8-0.1l1.4,0c3-0.1,8-0.2,11.2-0.1c3.2,0.1,13.4,1.4,15.6,12.2l0-2.8l-2.4-5.7l-1.4-3.4h3.6h24.6h2.8l0,0.1h0.2h13.6
	c3.4,0,6.5,0.8,8.6,2.1l-1.8-2h5.5H212h2.1l0.3,2.1l2.3,16.1l2-7.8l2.1-8.4l2.6,8.2l2.4,7.8l1.7-16l0.2-2.2h2.2h10.8h5.3l-3.5,4
	l-2.3,2.6l-0.5,2.4c0.9-1.9,2-3.6,3.2-4.9c2.5-2.8,5.4-4.3,8.5-4.3c6.8,0,12.5,7.5,14.8,18.4c0-5,0-8.7,0-8.7l0-2.5l-2.5-3.1
	l-3.1-3.9h5h27.9h2.1l0.3,2l2.3,14l2.4-14l0.3-2h2.1h33.9h2.8l-0.4,2.8l0,0c1.8-4.9,5.4-8.2,10.2-9.4c10.1-2.5,17,5.3,17.3,5.7
	l1,1.2l-0.7,1.4l-5.4,10.9l-2.7,5.5l-1.8-5.9l-1.9-6.4c-0.3-0.3-1-0.8-1.9-0.8c-1.3,0-2,0.4-2.4,1.6c-0.6,1.8-0.1,4.6,0.4,5.7
	c1.1,2.1,3.1,4.1,5.5,6.3c2.8,2.6,6,5.6,8.5,9.8C367.9,300.3,370.2,305.5,368.3,313.2"/>
<polygon points="297.7,254.7 301.3,254.7 299.5,250.8 "/>
<path d="M340,315.1l4.5-9l2.7-5.5l1.8,5.9l1.9,6.3c0.4,0.3,1.1,0.8,2.1,0.9c0.9,0.1,2.6-1.2,3-1.9c1.3-2.4,0.3-5.2-0.9-7.6
	c-0.8-1.6-3.3-4.3-5.7-6.9c-3.1-3.4-6.7-7.1-8.7-10.8c-1.3-2.3-2.2-5.2-2.5-7.8l-0.3,2l-0.6,4.4l-3.4-2.9l-3.3-2.9l-5.1-0.1
	c0,2.6,0.1,6.7,0.1,9.2h9.1h3.8l-1.6,3.5l-3.6,7.7l-0.9,2l-2.1-0.7l-4.7-1.6l-0.1,12.3l4.1-0.1l6.7-4.5l3.8-2.6v4.6V315.1z"/>
<path d="M119.9,276.9l-2.7-5.4c0,0-0.1-0.2-0.2-0.5l-0.5,0.8l-1.8,3l6.2,40.3L119.9,276.9z"/>
<path fill="#8E9090" d="M381.1,265.5l-1.5-2c-0.4-0.5-9.3-11.6-20.5-13.1c-0.2-0.4-2.4-4.5-3.4-6.4c1.5-0.4,2.8-0.8,3.6-1.3l2.5-1.5
	l-1.5-2.5c0,0-10-16.8-12.9-21.7c0.6-0.2,1.1-0.4,1.5-0.6c0,0,2.7-1.4,2.7-1.4l-1.5-2.7l-29.8-54.8c0,0-14.4,26.6-18.2,33.4
	c-0.1-0.1-14.5-26.7-14.5-26.7s-3,5.5-3.4,6.3c-0.6-2.4-1.3-4.8-2.4-6.9c-1.4-2.9-3.4-6.1-5.9-9.5c0.9,0.3,1.5,0.6,1.7,0.7
	c0,0,2.8,1.4,2.8,1.4l5.3,2.6l-1.2-5.8c0,0-0.6-3.1-0.6-3.1c-1-4.8-3.2-9.4-6.5-13.6c0.7,0.2,8.3,2.5,8.3,2.5l-5.5-9.7
	c-3.8-6.7-7.9-10.7-10.9-12.9c6.5-16.1,9.8-28.6,9.8-37c0-7.9-2.8-10.7-4.5-11.6c0,0-1.5-0.9-1.5-0.9l-1.7,0.4
	c-2.3,0.5-6.4,3.2-17.5,10.8c-5.5,3.7-11.6,7.9-16,10.5c-4.9,2.9-8.5,4.3-10.8,5c-0.4-1.7-0.8-3.9-0.9-5.9l-0.1-2.7
	c0,0-0.3-5.1-0.3-5.1l-6.5,4.2c-1.9,1.2-4,3.5-6.3,6.8c-3.2-4.1-6.5-6.7-6.9-7c0,0-10.3-8-10.3-8s2.6,10.5,3,11.8
	c-3.2-2.2-6.3-4-6.7-4.3l-7.7-4.5c0,0,0.6,6,0.7,6.2c-4.7-2.7-9.3-4.2-10.2-4.5c0,0-9-2.7-9-2.7l3.5,8.7c0.3,0.7,0.5,1.5,0.7,2.5
	c-8.9-4.6-23.1-13.4-28.3-17.3c-4.3-3.1-7.9-3.9-10.8-2.3c-4,2.2-4,7.1-4,8.7l0,1.2c0.5,11.7,6.5,28.5,9.4,36.1
	c-8.3,5.5-13.8,12.9-14.5,13.7c0,0-5.4,7.8-5.4,7.8l6.2-0.4c0,0,0.8-0.1,1.6-0.1c-5.8,5.5-8.6,10.9-8.8,11.2c0,0-1.7,3.3-1.7,3.3
	l-3.2,6.2l10.2-3c0.7-0.2,1.4-0.3,2.2-0.4c-3,4.4-5.3,9.4-6.7,15c-0.2,0.6-0.2,1.3-0.4,2c-0.3-0.5-3.3-6-3.3-6S99.9,187.5,98,191
	c-0.6-1.1-18.2-33.4-18.2-33.4l-2.6,4.8L48.6,215l2.7,1.4c0.4,0.2,0.9,0.4,1.5,0.6c-1.5,2.5-14.4,24.2-14.4,24.2l2.5,1.5
	c0.8,0.5,2.1,0.9,3.6,1.3c0,0-2.8,5.3-3.4,6.4H18.9l0.5,3.4l6.7,43c0,0,5.5-3.7,6.8-4.5c0,3.8,0.2,20.4,0.2,20.8
	c-0.1,0.4-7.6,21.9-7.6,21.9h47.3c0,0-0.8-2.5-1-3.1h269.9c2.4,1.1,9.7,3.9,17.9,2.9c4.9-0.6,21-4.4,21-28.8c0-10-5.6-18-8.6-21.5
	C372.7,283.3,381.1,265.5,381.1,265.5 M378,306.1c0,22.2-14.4,25.7-18.8,26.2c-7.8,0.9-14.8-1.9-16.8-2.8l-0.3-0.1h-274
	c0,0,0.9,2.9,1,3.1H29.2c0.1-0.2,6.6-18.9,6.6-18.9l-0.2-26c0,0-7.2,4.8-7.4,4.9c0-0.2-6.1-39.3-6.1-39.4h20.7l5.7-10.7l-1.7-0.4
	c-2.1-0.4-3.6-1-4.5-1.4c0,0-0.1-0.1-0.3-0.2c0.1-0.1,14.8-24.9,14.8-24.9l-1.6-0.5c-1.2-0.3-2.1-0.7-2.7-0.9c0,0-0.1-0.1-0.3-0.2
	c0.1-0.1,27.5-50.6,27.7-51c0.1,0.2,18.2,33.4,18.2,33.4s14.4-26.5,14.5-26.7c0.1,0.2,4.6,8.6,4.6,8.6l0.5-4c0.2-1.9,0.6-3.6,1-5.3
	c1.6-6.4,4.4-12.1,8.2-16.8l2.1-2.5l-3.2,0.4c-2,0.2-3.9,0.6-5.8,1.2c0,0-3.9,1.2-4.4,1.3c0.1-0.3,2.1-4,2.1-4
	c0-0.1,3.6-7,10.9-12.8l2.9-2.3l-5.8,0.1c0,0-3.6,0.2-4,0.3c0.2-0.2,2.3-3.3,2.3-3.3c0.6-0.8,6.2-8.4,14.6-13.7l0.9-0.6l-0.4-1
	c-2.7-7-9-24.5-9.6-36.3l0-1.1c0-1.2,0-5,2.7-6.4c2-1.1,4.6-0.4,8.1,2.1c6,4.3,22.2,14.4,31,18.7l2.2,1.1l-0.3-2.4
	c-0.3-2.3-0.8-4.2-1.4-5.6c0,0-1.3-3.3-1.5-3.7c0.2,0.1,3.8,1.1,3.8,1.1c0.7,0.2,6.6,2.1,11.9,5.6l2.3,1.5l-0.5-4.7
	c0,0-0.2-1.4-0.2-1.8c0.2,0.1,3.3,1.9,3.3,1.9c0.5,0.3,4.9,2.9,8.6,5.7l2,1.5l0.2-4l0-0.9l0,0c0,0-1.2-4.8-1.3-5.4
	c0.3,0.2,4.4,3.4,4.4,3.4c0.2,0.1,4.1,3.2,7.5,7.9l1.1,1.5l1-1.5c2.5-3.8,4.8-6.4,6.6-7.5c0,0,2.5-1.6,2.8-1.8
	c0,0.2,0.2,3.3,0.2,3.3c0.1,2.3,0.6,5.6,1.4,7.8l0.4,1.1l1.1-0.3c2.6-0.7,6.8-2.2,12.7-5.7c4.4-2.6,10.6-6.9,16-10.6
	c10.2-6.9,14.8-10,16.7-10.4c0,0,0.7-0.2,0.7-0.2c0,0,0.1,0.1,0.1,0.1l0.5,0.3c1,0.6,3.2,2.6,3.2,9.4c0,8.3-3.4,20.8-10,37l-0.4,1
	l0.8,0.6c2.8,2,7,5.8,11,12.7c0,0,2.1,3.7,2.3,4.1c-0.3-0.1-4.6-1.3-4.6-1.3l-6.1-1.4l3.1,3.2c4.6,4.8,7.5,10,8.6,15.6
	c0,0,0.7,3.4,0.8,3.8c-0.2-0.1-3.5-1.7-3.5-1.7c-0.3-0.1-2.8-1.3-6-2l-3.6-0.8l2.3,2.9c3.6,4.5,6.3,8.6,8,12.2
	c1.4,2.9,2.4,6.2,2.9,9.7l0.6,3.8c0,0,4.5-8.3,4.6-8.5c0.1,0.2,14.5,26.7,14.5,26.7s18-33.1,18.2-33.4c0.1,0.2,27.6,50.8,27.7,51
	c-0.1,0.1-0.3,0.2-0.3,0.2c-0.6,0.3-1.5,0.6-2.7,0.9l-1.6,0.5c0,0,14.7,24.8,14.8,24.9c-0.1,0.1-0.3,0.2-0.3,0.2
	c-0.8,0.5-2.4,1-4.5,1.4l-1.7,0.4l5.6,10.5l1.2,0.1c10.2,1.3,18.6,11.8,19,12.2c0,0,0.4,0.5,0.4,0.5s0.1,0.1,0.1,0.2
	c0,0.1-9.1,19.1-9.1,19.1l0.6,0.6C372.1,288.5,378,296.4,378,306.1"/>
<path fill="#8E9090" d="M127.2,197.7l11.6-21.3l17,31.4c-0.6,0.3-1.3,0.6-1.9,0.7c-0.6,0.1-1.1,0.2-1.1,0.2l9.3,15.7
	c-1,0.6-3.3,1-3.9,1.1c-0.1,0-0.1,0-0.1,0h0l6.4,12h17.4c0,0,0,0,0,0h-6.6c-4.3-6.7-2.9-21.2-8.9-33.8c-1.8-3.8-3.1-7.1-4-10
	c-1.9,1.5-3.5,3.2-3.5,3.2c-1.8-7.8-0.2-14,0.7-16.4c-4.6,1.8-7.6,6.4-7.6,6.4s-2.9-6.3,1.4-16.3c2.9-6.9,8.7-10.5,12.8-11.9
	c-3.8-1.7-5.4-5.4-5.9-8.2c-1-5.5,2.9-14.3,2.9-14.3c6.3,6,14.6,8.8,20.4,13.3c5.6,4.3,6.9,8.3,6.9,8.3s0,0-0.1,0
	c1.5,1.8,2.5,3.4,2.7,4.3c0,0,0,0,0,0c2,0.2,4.5,1,6.3,3.4l-0.7-3.8c-0.4-3.8-5.1-9.1-5.1-9.1c5.7-0.1,3.5-7.1-0.8-9
	c-9.1-3.9-15.3-10-14.4-10.1c10.7,2.4,15.4-1,15.4-1s-2.6-1-3.9-2c-2.2-1.6-3.7-3.5-3.7-3.5c5.3,0.3,11.3-2,13.1-5.7
	c3.1-6.5,1.9-18.8,1.9-18.8s-3.7-6.1-7.4-8.4c0,0-0.3,5-1.5,8.6l-0.3,0.8c0,0-4.5-8.6-12.3-11.6c0,0,0.5,5.5,0,9.6
	c0,0-17.4-3.8-37.5-19.1c-4.8-3.6-6.1-4.1-6.4-3.3c-2.2,5.2,7.7,34.9,8.9,36.1c0,0,2.2-0.4,2.2-0.6c-0.1-1.1-3-22.5-0.8-23.1
	c0.2-0.1,2.5,1.9,5,3.6c2.5,1.7,5.3,3.2,5.7,3.9c0.4,0.7-4.6,2.8-4.3,3.5c0.7,1.2,13.5,4.3,14.2,5.5c0.6,1-14.6,4.7-14.1,5.7
	c1.1,1.9,3.7,1.1,4.8,3l-1.3,0.2c-16.6,2.6-21.5,11.8-21.5,11.8c6-0.6,12.8,0.6,12.8,0.6c-10.9,4.9-17.5,13.7-17.5,13.7
	c15.4,0.3,12.7,1.4,12.7,1.4c-14.3,11.1-17.9,29.8-17.9,29.8c-1.4,4.9-2.5,14.7-2.5,14.7l1.8,3.6L127.2,197.7z"/>
<path fill="#8E9090" d="M193.7,174.7L193.7,174.7c0,0-3.9-2.5-7-1.8c2.5,0.5,5.7,4.4,6.8,7.4c0,0,0,0,0,0c0.3,0,0.5-0.1,0.8-0.1
	c3.1,0,5.3,1.6,5.3,1.6c-0.5-1.9,0.6-13.8-8.1-16.8c-2.7-0.9-3.6-0.7-5.2-0.5C194.2,166.2,193.7,174.6,193.7,174.7"/>
<path fill="#8E9090" d="M200.8,237c0,1.4-1.2,2.7-1.2,2.7c14.6-0.3,14.4-12.9,14.7-24.4c0.3-12.1,4.7-19.6,2.3-15.3
	c-6.3,11.2-5.2,18.8-5.7,25.2c-0.4,5.5-2.9,9.6-9.9,9.6c-0.4,0-0.9,0-1.4,0c0,0,0.1,0,0.1,0C199.7,234.8,200.8,235.9,200.8,237"/>
<path fill="#8E9090" d="M229.8,134.8c0,0-3.4-1.7-4.8-0.9c-1,0.6,1.3-3.4,1.3-3.4s-6.4,3.2-7.4,4.9c-0.4,0.6-1-1.4-1.4-3.4
	c-0.3-2-8,13.7-7.6,16.4C212.8,142.8,220.3,138.5,229.8,134.8"/>
<path fill="#005083" d="M234.8,106c6-0.7,11.8-1.8,16.3-3l-2.9-4.5c7.5-7.1,13.2-12,13.8-12.4c5.6-5.1,4.4-2.9,4.4-2.9
	c-0.1,0-3.5,19.8-13.2,34.5c5.8,2.7,9.5,6.7,9.5,6.7c-0.4,0-9.9-0.5-15,1.2l1,0.5c0.1,0.1,12.9,8.7,18.3,14.5
	c-3.1-0.1-9.2-0.4-12.3,0.1c-1.9,0.3-7.1,1-7.1,1c1.1,1.1,8.4,6.8,9.7,7.9c7.4,6.3,15.1,15,19.4,30.2l0.8,4.8
	c0.3-17.2-7.1-28-15.3-35.1c-0.7-0.6-5-5.2-5.7-5.8c0,0,8.8-0.6,17.4,0.8c-2.9-5.1-13.2-14.6-17.6-17.2c4.2-0.9,12.7-0.7,12.7-0.7
	c-4.1-6.7-12.1-9.6-12.1-9.6c9.1-14.2,13.5-36.9,13.5-36.9c0-0.5-0.3-1.2-1-1.6c-1.1-0.5-3,1-8.7,5.7c-0.1,0.1-18.8,13.7-31,17.8
	c-2.4,0.9-4.7,1.8-7.3,2.8c7.3,0.9,13.1,5.6,20,8.5L234.8,106z"/>
<path fill="#FDD420" d="M224.2,150c-2,1-3.5-0.4-3.5-0.4l-1.8,1.2c0,0,2.6,4.4,6.7,1.4c3.9-2.9,2.2-6.7,2.2-6.7l-2.2,1.5
	C225.5,147,226.2,149.1,224.2,150"/>
<path fill="#FFFFFF" d="M192.6,197.2c0,0-0.3-1.4-1-1.9c-0.7-0.5-1.1-1-1.9-0.7c0,0-2,1-2,5.7c0,3.7,2,4.9,2,4.9s-0.8-4.1,0.3-5.9
	C191.1,197.7,192.6,197.2,192.6,197.2"/>
<path fill="#FFFFFF" d="M192.6,230.2c0.4,0,1.5-0.7,1.5-2.5c0-1.8-0.5-1.7-0.5-1.7c-3.1-0.3-2.1-5.1-2.1-5.1
	c-0.6,0.7-1.5,2.1-1.5,4.4C190.1,229.2,192.2,230.2,192.6,230.2"/>
<path fill="#FFFFFF" d="M211.4,200.4c0-4.8-2-5.7-2-5.7c-0.8-0.3-1.2,0.1-1.9,0.7c-0.7,0.5-1,1.9-1,1.9s1.5,0.4,2.6,2.2
	c1.1,1.8,0.3,5.9,0.3,5.9S211.4,204.1,211.4,200.4"/>
<path fill="#FFFFFF" d="M195.9,199.3c0,0,1.4,1.8,1.9,2.5l1.8-2.2l1.8,2.2c0.5-0.7,1.9-2.5,1.9-2.5c0.7,0.1,1.5,1.9,1.5,1.9
	c1.4-1.4,1.4-3.5,1.4-3.5c-0.4-1-2.7-0.4-3.3,0.7c-1.1-1.1-2.6-0.6-3.3,0.1c-0.7-0.7-2.2-1.2-3.3-0.1c-0.5-1.1-2.9-1.6-3.3-0.7
	c0,0,0,2.2,1.4,3.5C194.4,201.2,195.2,199.4,195.9,199.3"/>
<path fill="#FFFFFF" d="M201.9,230.7l-1.2-2.1l-1,2.2l-1-2.2l-1.2,2.1c-1.8-0.2-2.1-3-2.1-3s-1,2.6,0.4,4.3c0.7,0.9,1.8,0,1.8,0
	s0.9,0.7,2.1,0.1c1.2,0.6,2.1-0.1,2.1-0.1s1,0.9,1.8,0c1.4-1.7,0.5-4.3,0.5-4.3S203.7,230.5,201.9,230.7"/>
<path fill="#FFFFFF" d="M206.8,230.2c0.4,0,2.5-1,2.5-4.9c0-2.4-0.9-3.7-1.5-4.4c0,0,1,4.8-2.1,5.1c0,0-0.5-0.1-0.5,1.7
	C205.3,229.5,206.4,230.2,206.8,230.2"/>
<polygon fill="#8E9090" points="205,248.1 204.5,244.7 196.8,244.7 196.8,260.6 204.6,260.6 205.5,257.3 200.2,257.3 200.2,254.2 
	203.6,254.2 203.6,250.9 200.2,250.9 200.2,248.1 "/>
<polygon fill="#8E9090" points="169.8,244.4 169.7,244.4 169.7,260.6 173.1,260.6 173.1,251.9 181.9,261 182,261 182,244.6 
	178.6,244.6 178.6,253.3 "/>
<path fill="#8E9090" d="M223.5,257.4c-1,0-1.9-0.4-2.5-1.3l-2,3c1.3,1.3,3,1.9,4.7,1.9c2.8,0,5.2-1.7,5.2-5.3c0-5.8-6-4.2-6-6.7
	c0-0.8,0.9-1.2,1.5-1.2c1,0,1.6,0.4,2.4,1.2l1.8-2.7c-1.2-1.1-2.8-1.8-4.3-1.8c-2.4,0-4.9,1.8-4.9,4.9c0,5.7,6.1,4.2,6.1,6.7
	C225.3,257,224.2,257.4,223.5,257.4"/>
<polygon fill="#8E9090" points="146.1,251.9 154.9,261 154.9,261 154.9,244.6 151.6,244.6 151.6,253.3 142.7,244.4 142.7,244.4 
	142.7,260.6 146.1,260.6 "/>
<path fill="#8E9090" d="M242.6,252.7c0,4.6,3.3,8.3,7.2,8.3c3.9,0,7.2-3.7,7.2-8.3c0-4.6-3.3-8.3-7.2-8.3
	C245.9,244.4,242.6,248.1,242.6,252.7 M253.7,252.7c0,2.4-1.7,4.7-3.9,4.7c-2.1,0-3.9-2.3-3.9-4.7c0-2.4,1.7-4.7,3.9-4.7
	C252,248,253.7,250.3,253.7,252.7"/>
<polygon fill="#8E9090" points="99.6,253.4 99.6,253.4 102.8,261 102.9,261 106.4,253.4 106.5,253.4 107.6,260.7 111,260.7 
	107.4,244.4 107.4,244.4 103,254.1 98.7,244.4 98.7,244.4 95,260.7 98.4,260.7 "/>
<polygon fill="#8E9090" points="276.9,260.6 276.9,248.3 280.2,248.3 280.2,244.7 270.9,244.7 270.1,248.3 273.5,248.3 273.5,260.6 
	"/>
<rect x="124.5" y="244.6" fill="#8E9090" width="3.4" height="16.1"/>
<path fill="#8E9090" d="M292.3,260.6h3.3l1.4-3h5.1l1.4,3h3.4l-7.3-16.3h0L292.3,260.6z M301.3,254.7h-3.6l1.8-3.9L301.3,254.7z"/>
<path fill="#FFFFFF" d="M190.4,157.9c-0.2-0.2-2.1-1.3-4-2.1c-1.3-0.6-2.6-1-3.6-1c-2.5,0.1-4.1,2.9-10.4,0.6
	c-5.2-1.9-5.5-7.4-5.1-10.5c0.1-1.1-1.2-2.5-2.1-3.8c-1.1-1.7-1.9-4.5-2-4.8c0,0,0-0.1,0-0.1s-3.8,8.8-2.8,14.3
	c0.5,2.8,2.1,6.5,5.9,8.2c-4.1,1.4-9.8,5-12.8,11.9c-4.3,10-1.4,16.3-1.4,16.3s2.9-4.6,7.6-6.4c-0.9,2.5-2.5,8.6-0.7,16.4
	c0,0,1.6-1.7,3.5-3.2c0.9,2.9,2.2,6.3,4,10c6,12.5,4.6,27.1,8.9,33.8h6.6h0c-0.2-0.3-0.3-0.7-0.5-1.1c-0.9-1.9-2-4.8-2.5-8.3
	c-0.1-0.7-0.2-1.4-0.3-2.1c-0.6-4.4-1.3-7.4-1.9-8.9c0-0.1-0.1-0.2-0.1-0.3c0,0,2.5,0.4,4.1,1.9c0,0,0-0.1,0-0.3c0,0,0-0.1,0-0.2
	c0-1.4-0.2-6.1-2.1-10.1c-1.8-3.9-1.9-7.3-1.8-9.6v0c0,0,0.9,1.4,2.1,3.5c1.5,2.8,3.6,7,5,11.7c1.5,4.9,0.7,12.9,3.2,18.8
	c0.4,0.9,0.9,1.8,1.5,2.7c3.2,4.4,8.8,4.5,8.8,4.5c0.8,0,1.5,0,2.3,0v0c0,0,1.2-1.4,1.2-2.7c0-1.1-1.1-2.3-1.1-2.3c0,0-0.1,0-0.1,0
	c-0.2,0-0.4,0-0.6,0c-0.1,0-0.2,0-0.4,0c-0.2,0-0.4,0-0.6,0c-0.2,0-0.3,0-0.5-0.1c-0.2,0-0.3,0-0.5-0.1c-0.2,0-0.4-0.1-0.6-0.1
	c-0.1,0-0.3,0-0.4-0.1c-0.7-0.1-1.4-0.3-2.1-0.6c-0.1,0-0.1,0-0.2-0.1c-0.3-0.1-0.5-0.2-0.8-0.3c-0.1,0-0.2-0.1-0.3-0.1
	c-0.2-0.1-0.5-0.2-0.7-0.3c-0.1-0.1-0.2-0.1-0.3-0.2c-0.2-0.1-0.4-0.3-0.6-0.4c-0.1-0.1-0.2-0.2-0.3-0.2c-0.2-0.1-0.3-0.3-0.5-0.5
	c-0.1-0.1-0.2-0.2-0.3-0.3c-0.1-0.2-0.3-0.3-0.4-0.5c-0.1-0.1-0.2-0.2-0.2-0.3c-0.1-0.2-0.2-0.4-0.3-0.6c-0.1-0.1-0.1-0.3-0.2-0.4
	c-0.1-0.2-0.2-0.4-0.2-0.6c-0.1-0.2-0.1-0.3-0.1-0.5c-0.1-0.2-0.1-0.5-0.1-0.7c0-0.2-0.1-0.4-0.1-0.5c0-0.2,0-0.5,0-0.7
	c0-0.2,0-0.4,0-0.7c0.4-6.8,0.1-14.1-5.7-25.7c-1.5-3.1-2.9-8.1-4.1-12.4c-0.5-1.8-0.8-3.4-0.8-5c0-0.6,0-1.3,0.1-1.9
	c0.2-1.8,0.6-3.4,1.2-4.7c1.4-3.1,3.4-5.4,5.9-5.9c0.8-0.2,1.7-0.2,2.7,0c2.2,0.5,3.7,1.6,4.7,2.6c1,1,1.4,1.9,1.4,1.9v0
	c0-0.1,0.5-8.5-7.4-10.1c0,0,0,0,0,0c0,0,0.5-0.8,1.7-1.5c0,0,0.1,0,0.1-0.1c0.2-0.1,0.4-0.2,0.6-0.3c0.1,0,0.2-0.1,0.3-0.1
	c0.2-0.1,0.4-0.2,0.6-0.2c0.1,0,0.3,0,0.4-0.1c0.2,0,0.4-0.1,0.6-0.1c0,0,0,0,0,0c0.3,0,0.6,0,1-0.1h0.2c0.4,0,0.9,0,1.3,0.1
	c0,0,0,0,0.1,0C192.9,161.3,191.9,159.6,190.4,157.9"/>
<path fill="#FFFFFF" d="M186.7,172.9C186.7,172.9,186.7,172.9,186.7,172.9c-0.2,0-0.4,0.1-0.5,0.1c-1.7,0.6-3.1,3.3-2.9,8.6
	c0.3,6.4,4.6,10.5,8.4,11.5h0c0,0,0,0,0,0c0.6,0.2,0.9,0.1,0.9-0.2c0-0.4-0.6-1.1-1.3-1.7c-0.5-0.5-1.1-1.2-1.7-2.1
	c-0.6-0.9-1-2.1-1-3.5c0-0.3,0-0.7,0.1-1c0,0,0-0.1,0-0.1c0.1-0.3,0.1-0.5,0.3-0.8c0-0.1,0.1-0.2,0.2-0.4c0.1-0.2,0.2-0.3,0.3-0.5
	c0.1-0.2,0.2-0.3,0.3-0.5c0.1-0.1,0.2-0.2,0.3-0.3c0.2-0.2,0.3-0.3,0.5-0.5c0.1-0.1,0.1-0.1,0.2-0.2c0.2-0.2,0.4-0.3,0.6-0.5
	c0.1,0,0.1-0.1,0.2-0.1c0.2-0.1,0.5-0.3,0.8-0.4c0,0,0.1,0,0.1,0c0.3-0.1,0.6-0.2,0.9-0.2c0,0,0,0,0,0
	C192.3,177.3,189.2,173.4,186.7,172.9"/>
<path d="M165.2,141.1c0.9,1.3,2.2,2.7,2.1,3.8c-0.4,3.1-0.1,8.6,5.1,10.5c6.3,2.3,7.9-0.5,10.4-0.6c1,0,2.3,0.4,3.6,1
	c1.9,0.8,3.7,2,4,2.1c0,0,0.1,0,0.1,0s-1.3-4-6.9-8.3c-5.9-4.5-14.2-7.3-20.4-13.3c0,0,0,0,0,0.1C163.2,136.7,164,139.5,165.2,141.1
	 M171,145.5l2.2,1.5c0,0-0.7,2.1,1.4,3c2,1,3.5-0.4,3.5-0.4l1.8,1.2c0,0-2.6,4.4-6.7,1.4C169.3,149.3,171,145.5,171,145.5"/>
<path fill="#FDD420" d="M173.2,152.2c4.1,3.1,6.7-1.4,6.7-1.4l-1.8-1.2c0,0-1.5,1.4-3.5,0.4c-2.1-0.9-1.4-3-1.4-3l-2.2-1.5
	C171,145.5,169.3,149.3,173.2,152.2"/>
<path fill="#D95E5C" d="M207.8,212c0.3-4.6-0.7-6.4-3.3-6.5c-2.6-0.1-3.8,3.1-4,4.5c-0.1,1.4-0.7,2.6-0.7,2.6v-0.1
	c0,0-0.5-1.2-0.7-2.6c-0.1-1.4-1.4-4.6-4-4.5c-2.6,0.1-3.5,1.9-3.3,6.5c0.3,4.6,2.5,10.1,7.9,10.3v0.1
	C205.3,222.1,207.5,216.6,207.8,212"/>
<path fill="#005083" d="M251.7,279.4c-0.8,0-1.7,0.4-2.4,1.3c-2.2,2.5-3.7,8.5-3.7,15.1c0,8.6,2.5,16.5,6.1,16.5
	c1.1,0,2.1-0.5,2.9-1.5c2-2.3,3.2-9.1,3.2-15c0-6.6-1.4-12.5-3.7-15.1C253.3,279.8,252.5,279.4,251.7,279.4 M252.8,309.1
	c-0.2,0.3-0.7,0.7-1.1,0.7c-0.9,0-3.7-4.8-3.7-14.1c0-6.8,1.6-11.8,3.1-13.4c0.3-0.4,0.6-0.5,0.6-0.5c0,0,0.3,0.1,0.6,0.5
	c1.5,1.7,3.1,6.6,3.1,13.4C255.3,302,254,307.7,252.8,309.1"/>
<path fill="#005083" d="M186.9,277.5l-0.2,0l0,0.2l-0.4,13.4l0,0.3l0.3,0c6.2-0.1,7.1-5.9,7.3-8.4c0.1-1.3-0.5-3.3-1.9-4.5
	C190.7,277.4,189,277.1,186.9,277.5 M188.8,288.4c0.1-2.6,0.2-6.3,0.2-8.6c0.8,0.1,1.1,0.4,1.3,0.5c0.8,0.7,1.1,1.9,1.1,2.5
	C191.3,285.7,190.4,287.5,188.8,288.4"/>
<path fill="#005083" d="M357.1,286.8c-2.4-2.3-4.5-4.2-5.6-6.3c-0.6-1.2-1-3.9-0.4-5.7c0.4-1.2,1-1.6,2.4-1.6c0.8,0,1.5,0.5,1.8,0.8
	l1.9,6.4l1.8,5.9l2.7-5.5l5.4-10.9l0.7-1.4l-1-1.2c-0.3-0.3-7.2-8.1-17.3-5.7c-4.8,1.2-8.4,4.5-10.2,9.4l0,0l0.4-2.8h-2.8H303h-2.1
	l-0.3,2l-2.4,14l-2.3-14l-0.3-2h-2.1h-27.9h-5l3.1,3.9l2.5,3.1l0,2.5c0,0,0,3.7,0,8.7c-2.3-10.9-8-18.4-14.8-18.4
	c-3,0-6,1.5-8.5,4.3c-1.2,1.4-2.3,3-3.2,4.9l0.5-2.4l2.3-2.6l3.5-4h-5.3h-10.8h-2.2l-0.2,2.2l-1.7,16l-2.4-7.8l-2.6-8.2l-2.1,8.4
	l-2,7.8l-2.3-16.1l-0.3-2.1H212h-11.1h-5.5l1.8,2c-2.2-1.3-5.3-2.1-8.6-2.1H175h-0.2l0-0.1h-2.8h-24.6h-3.6l1.4,3.4l2.4,5.7l0,2.8
	c-2.2-10.7-12.4-12-15.6-12.2c-3.1-0.1-8.2,0-11.2,0.1l-1.4,0l-3.8,0.1c0,0,0,0,0,0h-1.1h-10.3h-2l-0.3,2l-2.4,13.3L97,270.1l-0.3-2
	h-2H83.4h-2h-3h-1.1H65.1l0.5-4l0.4-2.8h-2.8H33.8H31l0.4,2.8l1.5,11.2l0.6,4.4l3.4-2.8l5.1-4.3l0.1,0l0.2,42.8l-2.3,7.3l-1,3.2h3.3
	h12.8h3.3l-1-3.2l-2.4-7.3l0.4-42.3l4.7,3.9l3.4,2.8l0.6-4.4l0.1-1l0.4,0.7l0.2,38.6l-1.9,6l-1,3.2h3.3h6.6l0,0H77h11.2h2.2l0.2-2.2
	l1.5-14.6l4.6,17.9l0.5,1.9h3.7l0.5-1.9l5-18.7l1.5,15.3l0.2,2.2h2.2h10.7v0h2.4c0.7,0,1.5,0,2.4,0.1c5.3,0.2,13.3,0.5,18.3-4.7
	c1.6-1.6,2.7-3.7,3.5-6l0,1l-1.9,6.4l-1,3.1h3.3h24.4l0,0h3.8h30.2h3.9l-1.7-3.5l-10.9-22.7c1.7-1.6,4.3-4.7,5-9.2
	c0.3-1.6,0.4-3.1,0.3-4.5l8.4,41l0.4,2.1h3.6l0.6-1.7l4.9-13.8l4.9,13.8l0.6,1.7h3.6l0.4-2.1l5-25.1c0.1,8.5,2.2,15.2,5.9,19.4
	c2.7,3.1,6.2,4.7,10.1,4.7c3.9,0,7.3-1.6,10.1-4.7c2.3-2.6,3.9-6.1,4.8-10.3c0,2.8,0,4.9,0,5.7l-1.9,6l-1,3.2h3.3h21h2.4v-2.4v-11.5
	v-4.6l-3.8,2.6l-6.7,4.5l-0.4,0V275l1.4-2.6l2.3,2.7l12.6,48.8l0.5,1.9h3.7l0.5-1.9l12.1-45.3l0.2,34.6l-1.9,6.4l-1,3.1h3.3h24.6
	h2.4v-2.4v-0.1c1.8,1.8,8.1,7.2,16.7,5.1c9.1-2.2,11-9.7,11.6-12.1c1.9-7.6-0.4-12.9-2.7-16.6C363.1,292.4,359.9,289.4,357.1,286.8
	 M61.7,275l-5.8-4.8l-2.9-0.1l-0.4,45.5l2.5,7.7H42.3l2.4-7.6l-0.2-45.6l-3.4,0.1l-5.8,4.8l-1.5-11.2h29.4L61.7,275z M116.5,271.8
	l0.5-0.8c0.1,0.3,0.2,0.5,0.2,0.5l2.7,5.4l1,38.2l-6.2-40.3L116.5,271.8z M77.7,275l1.8-3.3l0.7-1.3l1.3,1.7l2.3,2.9l-6,39.1
	l-0.2-0.5V275z M110.4,320.4l-2.9-28.6L99,323.3l-8-31.1l-2.8,28.2H77l0,0H65.2l2.1-6.4L67,274.4l-2-3.8h12.3l-2.1,3.8v39.5l2,6.2
	l2.6-3.1l6.5-42.7l-2.9-3.7h11.2l4.7,27l4.8-27h10.3l-2.2,3.7l6.5,42.7l2.9,3.4H110.4z M142.4,316.5c-5.1,5.3-14.2,3.9-19,3.9
	l-1.1-44.1l-2.9-5.9c2.3-0.1,8.8-0.3,12.4-0.2c4,0.2,12.3,1.8,13.5,11.5c1,8-5.8,12.4-5.9,12.5l-0.4,0.2l0.4,0.2
	c3.7,1.9,6.1,5.8,6.5,8.3C146.9,307.8,145.5,313.2,142.4,316.5 M143.2,294.2c1.7-1.8,3.6-4.4,4.3-7.8l0.1,13.5
	C146.7,297.9,145.2,295.9,143.2,294.2 M172.7,320.3H148l2.1-6.7l-0.2-37l-2.6-6.1h24.6l-1.4,9.8l-4-3.5l-8.2-0.1l-0.3-0.1v0.3
	l0.2,13.6l0,0.3h0.3h11.2l-3.6,7.7l-7.9-2.8l-0.2,18.2l7.3-0.1l7.3-4.9V320.3z M175.1,316.9v-8.1v-4.6l-3.8,2.6l-6.7,4.5l-4.1,0.1
	l0.1-12.3l4.7,1.6l2.1,0.7l0.9-2l3.6-7.7l1.6-3.5h-3.8h-9.1c0-2.5-0.1-6.7-0.1-9.2l5.1,0.1l3.3,2.9l3.4,2.9l0.6-4.4l0.9-6.6l1.7,3.5
	l0.3,37.8L175.1,316.9z M191.8,319.5l-0.5,1.3l-0.7-1.5l-1.8-3.7l-0.2-8.2l4.4,8.9L191.8,319.5z M200.3,287
	c-0.9,5.8-5.6,8.9-5.6,8.9l11.7,24.4h-12.4l1.6-4.1l-8.4-16.9l-1.3,0.2l0.4,16.7l2,4.1h-12.1l2.1-4.5L178,277l-3-6.4h13.6
	c3.5,0,6.7,0.9,8.3,2.4C198.9,274.9,201.5,278.9,200.3,287 M228.1,323.3L221,303l-7.2,20.3l-10.2-49.5l-2.8-3.1H212l4,28.4l5-19.7
	l5.9,19.1l2.9-27.7h10.8l-2.7,3.1L228.1,323.3z M259.7,316.5c-2.3,2.5-5.1,3.9-8.2,3.9c-3.1,0-6-1.3-8.2-3.9
	c-3.5-4-5.3-10.4-5.3-18.8c0-9.8,2.7-19,6.9-23.8c2-2.3,4.3-3.5,6.6-3.5c7.5,0,13.6,12.3,13.6,27.3
	C265,306.1,263.2,312.6,259.7,316.5 M280.5,313.8l7.3-4.9v11.5h-21l2-6.4l-0.2-36.2v-0.1l0-3.3l-3-3.8h13.3l-2.1,3.9v39.5
	L280.5,313.8z M337.6,320.3h-24.6l2-6.7l-0.2-37l-2.1-5.1l-1.5,2.4l-13.2,49.4l-12.8-49.4l-2.9-3.4h11.2l4.7,28.4l4.8-28.4h10.3l0,0
	h23.6l-1.4,9.8l-4-3.5l-8.2-0.1l-0.3-0.1l0,0.3l0.2,13.6l0,0.3h0.3h11.2l-3.6,7.7l-7.9-2.8l-0.2,18.2l7.3-0.1l7.3-4.9V320.3z
	 M336.2,306.8l-6.7,4.5l-4.1,0.1l0.1-12.3l4.7,1.6l2.1,0.7l0.9-2l3.6-7.7l1.6-3.5h-3.8h-9.1c0-2.5-0.1-6.7-0.1-9.2l5.1,0.1l3.3,2.9
	l3.4,2.9l0.6-4.4l0.3-2c0.3,2.7,1.1,5.5,2.5,7.8c2,3.6,5.6,7.4,8.7,10.8c2.4,2.6,4.9,5.2,5.7,6.9c1.2,2.4,2.2,5.2,0.9,7.6
	c-0.4,0.7-2.1,2-3,1.9c-1-0.1-1.7-0.6-2.1-0.9l-1.9-6.3l-1.8-5.9l-2.7,5.5l-4.5,9v-6.3v-4.6L336.2,306.8z M366,312.6
	c-1,3.9-3,8.7-9.8,10.3c-8.8,2.2-14.9-4.9-14.9-4.9l5.4-10.9l2.1,6.9c0,0,1.5,1.7,4,2c2.1,0.2,4.7-1.8,5.4-3.1
	c1.9-3.5,0.4-7.3-0.9-9.9c-2.1-4.1-11-11.4-14.5-17.7c-1.9-3.5-2.6-7.7-2.1-10.5c0.6-3.3,2.6-9.3,9.4-11c8.8-2.2,14.9,4.9,14.9,4.9
	l-5.4,10.9l-2.1-6.9c0,0-1.5-2-4-2c-3-0.1-4.2,1.7-4.7,3.3c-0.8,2.5-0.3,5.8,0.6,7.6c2.6,5.2,9.6,8.8,14.2,16.3
	C365.9,301.8,367.5,306.3,366,312.6"/>
<path fill="#005083" d="M136.1,299.3c-2.1-1.6-5.3-1.5-5.3-1.5v16c0,0,3.5,0.4,5.5-1.3c1.7-1.5,2.8-3.5,2.9-6.6
	C139.4,302.8,137.7,300.4,136.1,299.3 M134.7,310.6c-0.4,0.3-0.9,0.5-1.4,0.6v-10.7c0.5,0.2,1,0.4,1.4,0.7c1,0.8,2.3,2.5,2.2,4.5
	C136.7,308.6,135.6,309.8,134.7,310.6"/>
<path fill="#005083" d="M138.3,284c-0.3-6.2-4.2-6.4-6.4-6.5c-0.2,0-0.4,0-0.6,0l-0.3,0v0.3V291C131,291,138.6,291.8,138.3,284
	 M133.5,280.1c1.3,0.3,2.3,1.2,2.4,4c0.1,1.6-0.3,2.8-1,3.5c-0.4,0.4-0.9,0.6-1.4,0.8V280.1z"/>
<path fill="#FFFFFF" d="M251.5,270.4c-2.3,0-4.6,1.2-6.6,3.5c-4.3,4.9-6.9,14-6.9,23.8c0,8.3,1.8,14.8,5.3,18.8
	c2.2,2.5,5.1,3.9,8.2,3.9c3.1,0,6-1.3,8.2-3.9c3.5-4,5.3-10.4,5.3-18.8C265,282.7,259,270.4,251.5,270.4 M254.6,310.7
	c-0.9,1-1.9,1.5-2.9,1.5c-3.6,0-6.1-7.9-6.1-16.5c0-6.6,1.5-12.5,3.7-15.1c0.8-0.9,1.6-1.3,2.4-1.3c0.9,0,1.7,0.4,2.4,1.3
	c2.2,2.5,3.7,8.5,3.7,15.1C257.8,301.6,256.6,308.4,254.6,310.7"/>
<polygon fill="#FFFFFF" points="240.7,270.7 229.8,270.7 226.9,298.4 221,279.3 216,299.1 212,270.7 200.9,270.7 203.6,273.8 
	213.8,323.3 221,303 228.1,323.3 238,273.8 "/>
<polygon fill="#FFFFFF" points="112.2,274.2 114.4,270.5 104.1,270.5 99.3,297.5 94.6,270.5 83.4,270.5 86.4,274.2 79.8,316.9 
	77.2,320 75.2,313.9 75.2,274.4 77.3,270.5 65,270.5 67,274.4 67.2,314 65.2,320.3 77,320.3 77,320.4 88.2,320.4 91,292.2 99,323.3 
	107.5,291.8 110.4,320.4 121.5,320.4 118.7,316.9 "/>
<path fill="#FFFFFF" d="M139.5,294.6l-0.4-0.2l0.4-0.2c0.1,0,6.9-4.5,5.8-12.5c-1.2-9.7-9.5-11.3-13.5-11.5
	c-3.6-0.2-10.1,0.1-12.4,0.2l2.9,5.9l1.1,44.1c4.7,0,13.9,1.4,19-3.9c3.1-3.2,4.5-8.6,3.6-13.5C145.6,300.5,143.2,296.5,139.5,294.6
	 M131,277.7v-0.3l0.3,0c0.2,0,0.4,0,0.6,0c2.2,0.1,6.1,0.3,6.4,6.5c0.3,7.8-7.2,7-7.2,7V277.7z M136.3,312.4c-2,1.7-5.5,1.3-5.5,1.3
	v-16c0,0,3.2-0.1,5.3,1.5c1.5,1.2,3.2,3.6,3.1,6.5C139.1,309,138,311,136.3,312.4"/>
<polygon fill="#FFFFFF" points="323,313.9 323.2,295.7 331.1,298.5 334.7,290.8 323.5,290.8 323.2,290.8 323.2,290.6 323,277 
	323,276.7 323.3,276.7 331.5,276.8 335.5,280.3 336.9,270.5 313.3,270.5 313.3,270.5 303,270.5 298.2,298.9 293.5,270.5 
	282.3,270.5 285.2,273.9 297.9,323.3 311.1,273.9 312.7,271.5 314.8,276.6 315,313.6 312.9,320.3 337.6,320.3 337.6,308.8 
	330.3,313.8 "/>
<polygon fill="#FFFFFF" points="158.1,313.9 158.3,295.7 166.2,298.5 169.8,290.8 158.5,290.8 158.3,290.8 158.3,290.6 158.1,277 
	158.1,276.7 158.4,276.7 166.6,276.8 170.6,280.3 171.9,270.5 147.3,270.5 149.9,276.6 150.1,313.6 148,320.3 172.7,320.3 
	172.7,308.8 165.4,313.8 "/>
<polygon fill="#FFFFFF" points="276.9,274.4 278.9,270.5 265.7,270.5 268.7,274.3 268.7,277.7 268.7,277.7 268.9,314 266.8,320.3 
	287.8,320.3 287.8,308.8 280.5,313.8 276.9,313.9 "/>
<path fill="#FFFFFF" d="M196.9,273c-1.6-1.5-4.8-2.4-8.3-2.4H175l3,6.4l0.3,38.8l-2.1,4.5h12.1l-2-4.1l-0.4-16.7l1.3-0.2l8.4,16.9
	l-1.6,4.1h12.4l-11.7-24.4c0,0,4.7-3.1,5.6-8.9C201.5,278.9,198.9,274.9,196.9,273 M186.6,291.4l-0.3,0l0-0.3l0.4-13.4l0-0.2l0.2,0
	c2.1-0.4,3.8-0.1,5,1c1.4,1.2,2,3.2,1.9,4.5C193.7,285.5,192.8,291.3,186.6,291.4"/>
<path fill="#FFFFFF" d="M349.4,281.5c-0.9-1.7-1.4-5.1-0.6-7.6c0.5-1.5,1.7-3.3,4.7-3.3c2.5,0.1,4,2,4,2l2.1,6.9l5.4-10.9
	c0,0-6.1-7-14.9-4.9c-6.8,1.7-8.7,7.6-9.4,11c-0.5,2.8,0.1,7.1,2.1,10.5c3.5,6.3,12.4,13.6,14.5,17.7c1.3,2.6,2.8,6.3,0.9,9.8
	c-0.7,1.3-3.3,3.4-5.4,3.1c-2.5-0.3-4-2-4-2l-2.1-6.9l-5.4,10.9c0,0,6.1,7,14.9,4.9c6.8-1.7,8.8-6.5,9.8-10.3
	c1.6-6.2,0-10.8-2.4-14.8C359,290.4,352,286.7,349.4,281.5"/>
<polygon fill="#FFFFFF" points="35.3,275 41.1,270.2 44.5,270.1 44.7,315.7 42.3,323.3 55.1,323.3 52.6,315.6 53,270.1 55.9,270.2 
	61.7,275 63.2,263.7 33.8,263.7 "/>
<path fill="#0E955E" d="M102.9,206.2l-0.1,0.2l4,7.3c-0.9,0.5-2,0.9-3,1.1c-1,0.2-1.8,0.3-1.8,0.3l13.3,22.4h4.8l-2.3-10.8h5.5
	l-7.2-20.5l4.2-0.6l-8-25l-11.7,21.6l2.1,3.9L102.9,206.2z"/>
<polygon fill="#0E955E" points="69.6,253.6 75.1,237.6 93.3,237.7 84.6,210.8 90,210 79.5,177.2 61.9,209.5 67.2,210.7 51.5,237.6 
	57.6,237.6 48.6,253.6 "/>
<path fill="#0E955E" d="M135.8,230.1L135.8,230.1l4,7.5h6.7l-3.2-14.8h4.5l-5.9-16.8l3.4-0.5l-6.6-20.5l-9.2,17l3.5,6.5
	c-0.7,0.4-1.5,0.7-2.3,0.9c-0.8,0.2-1.3,0.3-1.3,0.3l11.4,19.1c-1.2,0.7-4,1.2-4.8,1.4C135.9,230,135.8,230.1,135.8,230.1"/>
<polygon fill="#0E955E" points="278.9,205.6 275.1,212.1 267.1,225.4 272.1,226.2 268.8,232.4 266.1,237.6 285.6,237.6 286.7,226.7 
	291.9,226.4 288.7,205.7 293,205.1 287.9,180.7 274.7,205 "/>
<polygon fill="#0E955E" points="261.4,185 250.6,205 254,205.5 250.9,210.8 244.4,221.7 248.4,222.4 245.8,227.5 240.4,237.6 
	257.5,237.6 259.1,221.9 263.4,221.6 261.2,205.1 264.7,204.7 "/>
<path fill="#0E955E" d="M328.2,260.1l7.3-0.1c0,0,2.7-4.5,6.4-5.9l-8-17l5.4-1.1c-2.6-4.8-9-19.3-11.8-25.2l5.1-0.7l-11.9-32.8
	l-17.4,32l5.5,0.7l-15.1,27.6l25.8,0.1L328.2,260.1z"/>
</svg>
