<?xml version="1.0" encoding="utf-8"?>
<!-- Generator: Adobe Illustrator 16.2.1, SVG Export Plug-In . SVG Version: 6.00 Build 0)  -->
<!DOCTYPE svg PUBLIC "-//W3C//DTD SVG 1.1//EN" "http://www.w3.org/Graphics/SVG/1.1/DTD/svg11.dtd">
<svg version="1.1" id="Layer_4" xmlns="http://www.w3.org/2000/svg" xmlns:xlink="http://www.w3.org/1999/xlink" x="0px" y="0px"
	 width="400px" height="400px" viewBox="0 0 400 400" enable-background="new 0 0 400 400" xml:space="preserve">
<g>
	<path fill="#8E9090" d="M163.452,250.423c19.709-3.021,39.385-2.134,56.604,5.139l2.101-4.618
		c-27.869-8.969-62.892-8.509-88.981,5.775l7.434-17.27c-32.793,8.865-54.856,27.355-77.041,46.406
		c16.173-38.2,51.333-69.607,91.097-81.007l-2.021,6.34c34.822-11.363,73.042-13.517,103.985-8.405l-7.248-9.429l17.755,4.523
		l11.414-17.054l4.515,21.089l17.46,5.662c0,0-12.72,5.318-12.106,5.576c66.113,27.232,44.947,117.716-17.917,118.196
		c-31.8,0.266-56.469-28.47-55.395-58.527C198.942,262.18,182.721,257.058,163.452,250.423"/>
	<path fill="#8E9090" d="M123.242,128.625c-0.017-7.09,2.056-13.527,6.346-18.256c4.278-4.742,10.473-7.438,17.505-8.067
		c13.451-1.25,27.123-2.016,40.646-2.282v0.003l9.984-0.221v114.798l-0.156,9.887l-9.957-0.175
		c-1.748-0.004-15.016,0.466-17.475,0.637c-0.146,0.008-0.189,0.013-0.293,0.022l-10.758,0.963v-0.199l-6.723,0.306
		c-0.912,0.031-16.922,1.654-17.708,1.804l-11.383,1.798L123.242,128.625z M151.028,129.741l0.021-0.249
		c0.129-2.023,1.226-4.612,3.251-6.099c1.986-1.498,4.078-1.896,6.077-2.045c0.004,0,1.797-0.112,3.708-0.234l5.686-0.362v35.908
		v4.984l-4.978,0.343c-2.977,0.204-4.812,0.34-8.092,0.543l-5.674,0.355V129.741z"/>
	<path fill="#8E9090" d="M369.678,251.208c-0.015-0.011-13.346-4.076-15.355-4.713c-0.125-0.039-0.138-0.039-0.237-0.072
		c-0.013-0.002-0.022-0.007-0.03-0.009c-6.015-1.721-11.428-3.222-15.401-4.296l-7.173-1.776c-6.78-1.644-12.508-4.914-16.415-9.837
		c-3.923-4.912-5.791-11.22-5.779-18.128v-74.621c-0.042-7.332,2.188-14.004,7.474-18.137c3.386-2.695,7.672-3.947,12.062-3.925
		c2.355,0,4.765,0.333,7.156,0.915c0.894,0.211,3.508,0.95,7.637,2.104c4.044,1.138,9.256,2.61,14.407,4.07
		c10.302,2.918,20.37,5.787,20.37,5.787l3.882,1.102v50.708l-32.507-10.006l-0.521-3.298c-0.005-0.01-0.926-5.893-1.785-11.354
		l0.008,56.486v0.127l-0.008,0.135c0.008,0.021,0.008,0.044,0.013,0.071c0.021,0.12,0.071,0.268,0.135,0.388
		c0.049,0.008-0.147,0.082,0.89,0.415c0,0,2.115,0.55,3.512,0.933c0.869-3.845,1.764-7.781,1.764-7.785l1.273-5.573l27.215,8.169
		l0.096,45.932L369.678,251.208z"/>
	<path fill="#8E9090" d="M15.518,144.315c0-5.758,2.675-10.464,5.796-13.7c3.175-3.277,6.768-5.36,10.067-6.442
		c14.931-4.773,36.041-8.068,37.091-8.245l5.703-0.89c2.374-1.352,4.986-2.362,7.774-2.943c7.352-1.539,29.572-5.725,30.583-5.911
		v0.003l11.581-2.158l-0.028,116.738l-0.188,8.69l-8.621,1.008c-0.722,0.045-16.899,2.791-17.646,2.995l-12.037,2.709v-18.856
		l-33.569,7.949v11.519l-0.112,7.612l-7.348,1.812c-0.139,0.028-2.562,0.744-5.167,1.544c-2.667,0.817-5.771,1.772-7.985,2.471
		c-1.423,0.446-2.621,0.841-2.671,0.865l-13.223,4.851V144.315z"/>
	<path fill="#8E9090" d="M297.84,233.099c0,0-0.041-0.009-0.195-0.042c-0.153-0.027-0.374-0.066-0.641-0.119
		c-0.524-0.097-1.228-0.222-2.038-0.359c-1.63-0.286-3.695-0.635-5.768-0.975c-4.062-0.677-8.456-1.372-8.749-1.397l-4.033-0.441
		l-4.766-0.52V105.25l10.62,0.837c1.104,0.114,3.466,0.504,6.793,1.039c3.227,0.526,6.979,1.153,9.67,1.622
		c1.861,0.326,2.956,0.513,3.806,0.707l7.395,1.881l-0.002,112.284l-0.143,12.128L297.84,233.099z"/>
	<path fill="#8E9090" d="M260.18,227.581c-1.062-0.221-7.758-0.857-14.717-1.399c-6.665-0.527-13.982-1.04-18.63-1.328l-5.145-0.191
		c-7.15-0.267-13.498-2.54-17.933-7.121c-4.453-4.572-6.508-10.99-6.486-18.091v-77.656c-0.027-6.19,1.832-11.942,5.997-15.942
		h0.005c5.312-5.036,11.826-5.499,15.829-5.528c1.104,0,2.054,0.046,2.686,0.076l0.653,0.023c0.258-0.006,0.507-0.008,0.76-0.008
		c1.37,0.001,3.13,0.076,5.652,0.236l2.857,0.1l-0.049,0.085c2.798,0.196,6.334,0.462,10.88,0.809
		c15.187,1.176,19.185,1.587,21.503,2.063c0.761,0.136,1.772,0.53,2.105,0.707l5.664,2.739l-0.047,6.223v2.066v32.14l-32.155-4.152
		l-0.803-3.668c0-0.007-0.909-4.129-1.703-7.737c-0.402-0.028-0.901-0.06-1.38-0.09l0.104,14.808l-0.004,3.184l1.968-0.073
		c0.043-0.002,0.083-0.004,0.12-0.004h0.017c0.042-0.003,0.081-0.006,0.117-0.008h0.145c0.941,0.012,2.125,0.11,4.095,0.258
		c1.905,0.152,4.312,0.36,6.825,0.584c5.035,0.45,10.439,0.973,13.113,1.282c0.83,0.107,1.18,0.128,1.943,0.282l7.685,1.7
		l-0.092,75.791L260.18,227.581z"/>
	<path fill="#2E2A25" d="M126.451,128.626c-0.174-13.079,7.97-22.106,20.939-23.13c13.369-1.245,26.971-2.004,40.408-2.269
		l6.715-0.149v111.469l-0.106,6.681l-6.71-0.135l0,0c-1.737-0.007-16.978,0.541-18.141,0.668l-7.258,0.667v-43.528
		c-1.339,0.089-2.502,0.17-3.792,0.26l-0.004,37.147l-0.087,6.249l-6.252,0.282c-1.212,0.049-16.836,1.635-18.01,1.835l-7.672,1.21
		L126.451,128.626z M158.506,154.921c1.348-0.087,2.5-0.168,3.792-0.256v-25.95c-0.867,0.057-1.461,0.091-1.453,0.091
		c-1.176,0.076-1.783,0.342-1.982,0.506c-0.175,0.162-0.271,0.23-0.358,0.819V154.921z"/>
	<path fill="#2E2A25" d="M370.62,248.138c-0.003-0.007-11.789-3.61-14.846-4.555c-0.315-0.1-0.454-0.14-0.591-0.184l-0.07-0.021
		c-6.62-1.899-12.523-3.528-16.611-4.625l-0.008,0.012l-6.246-1.54c-12.602-2.949-19.88-12.067-19.741-24.847v-74.626
		c-0.012-6.789,1.977-12.287,6.259-15.627c2.764-2.179,6.238-3.23,10.068-3.222c2.043,0,4.202,0.289,6.439,0.834
		c2.095,0.487,42.203,11.905,42.251,11.919l1.55,0.439v43.925l-26.445-8.132l-0.207-1.311c0,0-2.023-12.869-2.863-18.238
		c-1.581-0.469-2.805-0.824-3.633-1.063l-0.058,0.021l-0.671-0.187l-0.939-0.267c-0.005-0.002-0.007-0.002-0.008-0.002l0.01,65.412
		l-0.009,0.293c0.011,0.243,0.096,1.079,0.481,1.813c0.49,0.947,1.283,1.621,2.92,2.083c0,0,3.554,0.92,6.745,1.844
		c1.002-4.448,2.504-11.084,2.504-11.084l0.509-2.227l21.647,6.504l0.085,39.219L370.62,248.138z"/>
	<path fill="#2E2A25" d="M18.729,144.313c0.15-9.574,8.33-15.336,13.631-17.085c14.543-4.655,35.655-7.974,36.602-8.127l6.312-0.986
		c2.222-1.339,4.686-2.333,7.332-2.88c7.262-1.515,29.545-5.716,30.515-5.893v0.002l7.785-1.449l-0.038,112.854l-0.114,5.85
		l-5.802,0.663c-1.19,0.124-16.855,2.778-18.02,3.064l-8.12,1.831v-91.312c-0.068,0.012-0.131,0.021-0.179,0.03
		c-2.283,0.713-2.698,1.151-3.21,3.725v0.093c0,6.096-0.007,67.674-0.007,67.674v1.685l-31.832,7.538v-72.773
		c-0.232,0.054-0.416,0.103-0.537,0.139c-1.144,0.336-2.342,0.875-3.104,1.526c-0.77,0.68-1.107,1.238-1.127,2.212v84.04
		l-0.083,5.135l-4.952,1.22c-1.086,0.267-15.132,4.583-16.144,4.98l-8.908,3.269V144.313z"/>
	<path fill="#2E2A25" d="M298.598,229.968c-1.091-0.278-16.614-2.833-17.798-2.952l-4.038-0.442l-1.901-0.207V108.723l7.123,0.563
		c1.773,0.168,18.046,2.884,19.766,3.283l4.976,1.266l-0.005,109.749l-0.092,8.171L298.598,229.968z"/>
	<path fill="#2E2A25" d="M260.785,224.431c-3.108-0.606-24.154-2.199-33.731-2.783l-5.238-0.19
		c-6.587-0.258-12.019-2.301-15.75-6.152c-3.738-3.855-5.595-9.326-5.584-15.869v-77.638c-0.012-5.622,1.621-10.371,5.028-13.639
		c4.297-4.113,9.889-4.616,13.61-4.627c1.011,0,1.894,0.041,2.577,0.076l0.73,0.029c0.254-0.011,0.52-0.013,0.812-0.013
		c2.821,0.002,7.941,0.373,19.057,1.219c15.115,1.161,19.241,1.614,21.07,2.004c0.604,0.117,1.131,0.332,1.374,0.454l3.843,1.849
		l-0.019,4.229v2.064v28.488l-26.281-3.395l-0.325-1.461c0,0-1.378-6.227-2.229-10.083c-0.503-0.039-0.962-0.075-1.397-0.107
		c-0.201-0.019-4.227-0.271-4.253-0.271c-0.2-0.015-0.392-0.019-0.578-0.019c-0.417-0.008-0.749,0.035-0.962,0.077
		c-0.006,0.053-0.006,0.108-0.006,0.159c0,0-0.024,0.701-0.031,0.888c0,0,0.007,0.691,0.007,0.695l0.114,16.327l-0.005,6.519
		l5.378-0.199c0.108-0.01,0.16-0.01,0.185-0.005h0.024c1.313,0.005,6.982,0.494,12.816,1.024c5.858,0.547,11.279,1.067,12.453,1.304
		l5.169,1.145l-0.078,69.342L260.785,224.431z M232.608,195.689c-0.019,0.065,0.055,0.944,0.312,1.348
		c0.167,0.266,0.467,0.607,2.03,0.745c0,0,0.677,0.047,1.63,0.112v-22.062c-1.359-0.1-2.882-0.216-2.902-0.216l-1.065-0.083
		L232.608,195.689z M228.265,128.748h-0.002C228.265,128.741,228.265,128.741,228.265,128.748"/>
	<path fill="#FFFFFF" d="M187.885,107.888L187.885,107.888l-0.021-1.065c-13.352,0.275-26.853,1.039-40.151,2.256
		c-11.326,0.948-17.767,8.066-17.658,19.552l0.027,93.083l3.507-0.623c0.961-0.156,17.432-1.828,18.413-1.856l1.856-0.049
		l1.04-0.031v-2.877v-40.479c2.728-0.195,8.067-0.558,11.014-0.758v43.498l3.312-0.367c0.899-0.126,16.131-0.693,18.374-0.691h0.119
		h0.005l0.042,0.008l2.011,0.082l1.101,0.048l0.022-3.095v-107.76l-3.03,0.062L187.885,107.888z M165.912,124.881v33.154
		c-2.751,0.187-8.056,0.544-11.014,0.732v-28.959c0.291-1.988,1.007-4.179,5.708-4.61
		C160.602,125.199,163.515,125.022,165.912,124.881"/>
	<path fill="#FFFFFF" d="M375.446,214.161l-15.387-4.625l-0.243,1.117c-0.006,0.009-1.887,8.382-2.746,12.181
		c-6.169-1.825-8.873-2.616-10.345-2.877v-0.021c-3.156-0.874-4.532-2.625-5.227-3.955c-0.786-1.546-0.87-3.087-0.87-3.507v-0.296
		v-65.942c-0.012-0.339,0.11-1.745,0.651-2.462c0.343-0.447,0.825-0.71,1.842-0.729c0.549,0,1.235,0.1,2.038,0.323l0.146,0.039
		h0.107l0.057,0.011c0.238,0.042,2.809,0.771,7.309,2.115c0.599,3.811,2.947,18.886,2.949,18.904l0.101,0.656l19.619,6.047v-36.278
		l-0.768-0.22c-0.032-0.006-38.27-10.93-40.21-11.375c-2.005-0.501-3.895-0.755-5.649-0.755c-3.062-0.004-5.733,0.797-7.826,2.447
		c-3.331,2.604-4.889,7.031-4.885,12.807v74.612c-0.083,11.181,5.854,18.645,16.88,21.299l0.21,0.103l0.425,0.007
		c1.279,0.21,11.835,3.069,22.461,6.133l15.582,4.759l3.859,1.173L375.446,214.161z"/>
	<path fill="#FFFFFF" d="M83.354,118.772c-4.061,0.845-7.619,2.867-10.394,5.735v-2.382l-3.441,0.545
		c-0.911,0.14-21.84,3.435-36.066,8.002c-4.618,1.525-11.042,6.499-11.123,13.638v101.936l4.055-1.581
		c0.842-0.31,15.619-4.857,16.549-5.084l1.436-0.338l0.826-0.191v-86.347c-0.046-4.377,4.082-6.36,6.836-7.208
		c0.916-0.277,3.129-0.693,5.147-1.039v72.558l24.629-5.809v-2.36c0-6.231,0.017-57.934,0.017-64.216v-0.355
		c0.555-3.97,2.303-5.969,6.003-6.93c0.044-0.001,0.007-0.001,0.122-0.017c0.576-0.093,2.61-0.416,4.475-0.709v2.171v88.942
		l3.703-0.942c0.945-0.242,17.453-3.026,18.456-3.134l1.676-0.137l0.961-0.084l0.048-2.713l0.021-108.479l-3.506,0.643
		C113.784,112.888,90.552,117.244,83.354,118.772"/>
	<path fill="#FFFFFF" d="M281.688,112.888l-2.064-0.153l-1.144-0.089v110.543l0.97,0.088l1.743,0.154
		c0.928,0.06,17.329,2.778,18.229,3.013l3.674,0.908l0.018-3.794V116.634l-2.248-0.562
		C299.452,115.728,283.143,113.024,281.688,112.888"/>
	<path fill="#FFFFFF" d="M238.288,156.662h-0.032c-0.018-0.002-0.055-0.002-0.144,0.011l-1.78,0.055l-1.031,0.036v15.347
		l0.987,0.073c0.005,0,2.273,0.169,3.884,0.296v29.275c-2.384-0.154-5.467-0.361-5.471-0.361c-2.529-0.194-4.023-1.054-4.901-2.534
		c-0.72-1.233-0.808-2.642-0.804-3.168l0.005-48.953l-0.104-16.299c0-0.026-0.013-0.667-0.013-0.667v-0.183l0.044-0.784
		c-0.004-0.864,0.16-1.885,0.804-2.604c0.639-0.73,1.824-1.223,3.788-1.223c0.258,0,0.523,0.004,0.799,0.028l0.025,0.002
		l0.062,0.008l0.285-0.01c0.497-0.004,3.288,0.2,7.983,0.598c0.673,3.062,2.413,10.938,2.413,10.941l0.161,0.729l19.704,2.551
		v-24.393v-2.073l0.013-1.212l0.009-0.648l-1.699-0.913c-0.83-0.309-1.583-0.636-21.267-2.135
		c-11.88-0.91-16.749-1.223-18.998-1.223c-0.23,0-0.435,0.004-0.624,0.01l-0.854-0.039c-0.698-0.033-1.554-0.076-2.501-0.076
		c-3.262,0.006-7.722,0.464-11.013,3.635v-0.007c-2.663,2.557-3.93,6.351-3.926,11.031v77.653
		c-0.127,11.332,6.442,18.087,17.857,18.407h0.148h0.058l0.258-0.029c-0.017,0,0.005,0,0.053,0
		c2.952-0.01,34.525,2.218,38.967,3.056l3.52,0.654l0.072-62.105l-2.344-0.526C261.086,158.575,240.473,156.681,238.288,156.662"/>
	<path fill="#0055B8" d="M238.283,169.362c0.967,0.062,4.873,0.341,4.873,0.341v35.245c-2.888-0.222-5.784-0.414-8.646-0.603
		c-4.223-0.272-6.287-2.32-7.273-3.995c-1.1-1.895-1.211-3.896-1.211-4.661c0-0.779,0.018-29.663,0.018-48.949
		c0-9.365-0.129-16.407-0.129-16.88c-0.018-0.138,0.022-0.535,0.022-1.11c0-1.169,0.263-3.019,1.558-4.507
		c1.461-1.654,3.828-2.384,7.016-2.195c0-0.079,4.929,0.301,10.593,0.778l2.601,11.768l14.273,1.866v-21.026v-2.155
		c-1.196-0.551-39.87-3.467-39.899-3.067l-0.665-0.049c-3.063-0.138-8.168-0.321-11.337,2.734c-2.003,1.913-3.01,4.913-3.01,8.899
		v77.64c0,9.992,5.05,15.039,15.012,15.451c0.017-0.32,34.869,2.136,39.899,3.066c0-1.217,0.077-54.927,0.077-56.151
		c-1.169-0.243-22.572-2.222-23.771-2.181V169.362z M151.931,129.697c0.168-2.045,1.33-6.936,8.477-7.464
		c2.821-0.186,5.635-0.369,8.469-0.517v39.107c-5.635,0.285-11.299,0.667-16.945,1.125V129.697z M133.031,128.628
		c0,0,0.04,88.289,0.04,89.542c1.156-0.217,17.698-1.863,18.859-1.894V173.03c5.646-0.481,11.31-0.865,16.945-1.17v43.342
		c1.172-0.132,17.901-0.748,19.062-0.684V109.792c-13.331,0.281-26.653,1.025-39.942,2.241
		C138.055,112.958,133.031,118.663,133.031,128.628 M281.44,220.466c1.159,0.1,17.564,2.812,18.712,3.092V118.966
		c-1.147-0.303-17.553-3.015-18.712-3.109V220.466z M69.975,136.643v-11.042c0,0-21.488,3.376-35.601,7.903
		c-3.72,1.191-9.07,5.441-9.07,10.812v97.591c1.096-0.425,15.807-4.943,16.934-5.205v-83.995c0-5.88,4.818-8.81,8.925-10.044
		c2.264-0.688,8.998-1.705,8.998-1.705v72.306l18.663-4.416c0,0,0.017-64.556,0.017-64.812c0.612-5.066,3.314-8.39,8.346-9.584
		c4.741-0.806,8.195-1.332,8.195-1.332l0.017,5.651v85.153c1.145-0.291,17.741-3.117,18.892-3.217
		c0-20.945,0.042-104.892,0.042-104.892s-23.136,4.348-30.382,5.856C77.005,123.146,71.492,128.735,69.975,136.643 M372.493,216.368
		l-10.227-3.055l-2.985,13.289c-6.641-1.973-13.313-3.888-13.33-3.803c-4.124-1.123-6.125-3.586-7.084-5.467
		c-1.096-2.113-1.218-4.129-1.208-4.897c0-0.066,0-0.166,0.024-0.253h-0.024c0-0.661-0.01-65.845-0.01-65.937
		c0-0.767,0.122-2.708,1.232-4.204c0.959-1.302,2.973-2.663,7.049-1.551c0.037-0.073,4.359,1.192,9.494,2.734l3.06,19.572
		l14.009,4.311v-29.896c0,0-36.911-10.643-38.684-11.054c-9.745-2.398-14.727,1.636-14.727,11.609v74.615
		c0,9.995,4.981,16.071,14.727,18.445c0.037-0.218,12.366,3.166,23.108,6.236l15.62,4.769L372.493,216.368z"/>
	<path fill="#0055B8" d="M238.283,169.356c0.967,0.067,4.873,0.347,4.873,0.347v35.243c-2.888-0.22-5.784-0.412-8.65-0.599
		c-4.221-0.274-6.283-2.322-7.282-4.008c-1.086-1.884-1.198-3.885-1.198-4.653c0-0.777,0.018-29.662,0.018-48.948
		c0-9.362-0.129-16.404-0.129-16.878c-0.018-0.14,0.041-0.535,0.041-1.11c0-1.179,0.244-3.019,1.539-4.51
		c1.461-1.653,3.828-2.401,7.012-2.192c0-0.079,4.931,0.3,10.597,0.777l2.601,11.768l14.273,1.864v-21.025v-2.152
		c-1.199-0.552-39.87-3.47-39.907-3.067l-0.666-0.052c-3.058-0.138-8.162-0.318-11.326,2.735c-2.005,1.912-3.02,4.913-3.02,8.888
		v77.651c0,9.988,5.055,15.034,15.012,15.449c0.024-0.318,34.879,2.14,39.907,3.068c0-1.215,0.077-54.926,0.077-56.151
		c-1.177-0.247-22.57-2.222-23.771-2.179V169.356z M281.443,220.466c1.156,0.1,17.566,2.805,18.697,3.093V118.949
		c-1.131-0.286-17.541-2.998-18.697-3.092V220.466z M69.974,136.644V125.6c0,0-21.482,3.375-35.598,7.906
		c-3.722,1.178-9.072,5.44-9.072,10.81v97.591c1.094-0.425,15.804-4.958,16.934-5.207v-84.003c0-5.869,4.82-8.8,8.925-10.046
		c2.259-0.675,9-1.694,9-1.694v72.305l18.663-4.414c0,0,0.017-64.557,0.017-64.831c0.61-5.047,3.314-8.371,8.347-9.567
		c4.741-0.806,8.19-1.33,8.19-1.33l0.021,5.652v85.152c1.136-0.291,17.727-3.117,18.89-3.217c0-20.943,0.05-104.892,0.05-104.892
		s-23.151,4.346-30.39,5.856C77.005,123.143,71.49,128.735,69.974,136.644"/>
	<path fill="#2E2A25" d="M141.539,72.179c-0.487-0.616-1.19-1.065-2.003-1.278h0.001c-0.565-0.156-1.136-0.209-1.686-0.209
		c-0.868,0-1.7,0.129-2.376,0.247c-2.008,0.364-4.022,0.754-6.021,1.148c-1.529,0.311-2.794,0.761-3.828,1.442
		c-0.739,0.483-1.357,1.087-1.804,1.796c-0.54,0.874-0.811,1.88-0.806,2.939v19.507c0,1.05,0.245,2.023,0.842,2.786
		c0.513,0.642,1.233,1.047,2.016,1.234c0.487,0.117,0.96,0.153,1.432,0.153c0.944,0,1.851-0.161,2.583-0.304
		c2.006-0.399,3.999-0.778,5.987-1.142c1.536-0.282,2.809-0.697,3.855-1.344c0.755-0.453,1.379-1.042,1.829-1.715
		c0.566-0.876,0.84-1.886,0.837-2.947V74.995C142.396,73.935,142.146,72.95,141.539,72.179 M135.045,94.84
		c0,0,0.027,0.225-0.271,0.497l-0.003,0.005h-0.004c-0.227,0.212-0.629,0.421-1.25,0.53c-0.475,0.1-1.564,0.308-2.406,0.47
		c-0.161,0.032-0.29,0.042-0.402,0.042c-0.32-0.01-0.337-0.067-0.341-0.067h-0.004c-0.035-0.026-0.042-0.177-0.054-0.177V96.13
		V77.745v-0.014c0.004-0.028-0.033-0.213,0.246-0.49c0.241-0.224,0.649-0.437,1.307-0.571c0.672-0.128,1.373-0.26,2.081-0.4
		c0.199-0.041,0.386-0.051,0.537-0.051c0.262,0,0.411,0.046,0.48,0.083c0.083,0.014,0.069,0.153,0.087,0.153V94.84z"/>
	<path fill="#2E2A25" d="M233.161,68.427c-0.487-0.679-1.144-1.224-1.938-1.616c-1.423-0.699-2.945-0.857-3.959-0.928
		c-3.992-0.264-7.993-0.471-11.984-0.604l-1.172-0.039v29.535l1.095,0.039c1.729,0.061,3.467,0.14,5.211,0.224l1.182,0.051V70.468
		c0.805,0.045,1.614,0.092,2.426,0.137c2.854,0.323,2.393,1.198,2.544,1.525v23.231l1.051,0.077c1.719,0.125,3.44,0.249,5.15,0.396
		l1.23,0.104v-1.234c0-2.78,0.002-21.441,0.002-23.387C234.002,70.257,233.735,69.25,233.161,68.427"/>
	<path fill="#2E2A25" d="M256.884,71.157c-0.455-0.699-1.101-1.265-1.857-1.712l-0.007-0.005h-0.003
		c-1.068-0.617-2.354-0.991-3.917-1.194c-1.641-0.256-9.725-1.203-11.909-1.396l-1.231-0.106l0.019,29.595l1.021,0.104
		c3.944,0.394,7.889,0.854,11.805,1.386c0.667,0.085,1.278,0.132,1.852,0.132c0.768,0,1.464-0.085,2.105-0.266
		c0.815-0.232,1.539-0.655,2.053-1.289c0.634-0.775,0.905-1.773,0.9-2.828V74.08C257.719,73.019,257.447,72.007,256.884,71.157
		 M250.054,92.33c-0.174,0.119-0.614,0.217-1.086,0.209c-0.323,0-0.661-0.033-0.936-0.063c-0.898-0.112-1.796-0.222-2.684-0.333
		V72.502c0.798,0.096,1.598,0.193,2.403,0.291c0.817,0.1,1.549,0.315,1.961,0.61c0.408,0.311,0.589,0.533,0.611,1.231
		c0,2.065,0,16.567,0.008,17.016C250.302,92.193,250.216,92.193,250.054,92.33"/>
	<path fill="#2E2A25" d="M165.928,95.272c-0.012-3.332-0.012-6.645-0.012-9.966c0.021-1.055-0.577-2.049-1.454-2.621v-0.004
		c-0.119-0.079-0.234-0.153-0.355-0.222c0.82-0.591,1.656-1.544,1.747-3.063v-7.524c0-1.05-0.258-2.061-0.902-2.849
		c-0.497-0.623-1.208-1.095-2.04-1.351c-0.702-0.234-1.502-0.339-2.384-0.339c-0.5,0-1.037,0.035-1.61,0.105
		c-3.923,0.454-7.849,0.962-11.749,1.537l-0.967,0.149v29.638l1.3-0.193c1.705-0.258,3.415-0.498,5.125-0.726l0.986-0.128V86.319
		c0.87-0.11,1.728-0.222,2.582-0.334c0.048-0.002,0.095-0.01,0.135-0.014l0.132-0.012c0.247-0.022,0.465-0.035,0.663-0.035
		c0.666-0.002,1.015,0.124,1.153,0.224c0.165,0.107,0.217,0.277,0.224,0.703v10.241l1.258-0.138c1.717-0.19,3.435-0.377,5.146-0.553
		l1.026-0.102L165.928,95.272z M158.442,79.353v0.073c-0.01,0.116,0.005,0.445-0.445,0.837l-0.014,0.015
		c-0.373,0.336-1.078,0.639-2.146,0.769c-0.744,0.093-1.487,0.192-2.226,0.286V73.08c0.83-0.108,1.668-0.216,2.501-0.315
		c0.439-0.056,0.803-0.083,1.106-0.083c0.664-0.004,1.021,0.128,1.128,0.208c0.067,0.068,0.034-0.039,0.085,0.331
		c0.004,0.027,0.004,0.053,0.007,0.073v0.042v4.79C158.439,78.792,158.437,79.206,158.442,79.353"/>
	<path fill="#2E2A25" d="M186.549,88.572v-3.826l-1.208,0.076l-4.514,0.29l-1.704,5.177c-0.668,0.042-1.332,0.085-1.989,0.128
		V65.801l-1.215,0.083c-1.737,0.117-3.475,0.254-5.207,0.395l-1.041,0.086v29.588l1.228-0.102c4.836-0.398,9.697-0.707,14.566-0.922
		l1.084-0.049v-1.082c0-0.892,0.004-1.798,0.004-2.708v-2.524L186.549,88.572z"/>
	<path fill="#2E2A25" d="M209.048,65.052c-1.449-0.047-5.465-0.077-8.537-0.077c-1.605,0-2.928,0.01-3.521,0.026
		c-1.566,0.028-2.869,0.25-3.967,0.74c-0.803,0.354-1.484,0.878-1.964,1.546c-0.599,0.81-0.882,1.817-0.877,2.886
		c0,1.943,0.016,20.603,0.016,23.389v1.162l1.172-0.03c1.712-0.049,3.442-0.089,5.152-0.108l1.119-0.012V83.617
		c1.46-0.017,2.921-0.023,4.383-0.023h0.616v10.979l1.126,0.004c1.742,0.011,3.482,0.032,5.217,0.069l1.161,0.03V65.091
		L209.048,65.052z M202.641,78.667c-0.441,0-0.88-0.002-1.321-0.002c-1.228,0-2.451,0.004-3.678,0.017v-7.629l0.009-0.078
		c0.021-0.115,0.041-0.288,0.329-0.52c0.31-0.255,1.042-0.505,2.172-0.505c0.6-0.002,1.203-0.006,1.805-0.006
		c0.229,0,0.455,0,0.686,0.001V78.667z"/>
	<path fill="#2E2A25" d="M279.808,75.358v-0.004c-0.43-0.724-1.038-1.315-1.737-1.793c-1.35-0.88-2.831-1.235-3.954-1.469
		c-1.991-0.404-3.999-0.789-6.007-1.163c-0.805-0.148-1.536-0.225-2.222-0.225c-0.624,0-1.208,0.066-1.755,0.215
		c-0.798,0.197-1.525,0.628-2.042,1.244c-0.65,0.787-0.9,1.783-0.9,2.821v19.515c0,1.051,0.243,2.053,0.773,2.902
		c0.432,0.708,1.056,1.287,1.781,1.738c1.347,0.827,2.842,1.142,3.959,1.351c1.991,0.369,3.986,0.752,5.963,1.161
		c0.917,0.177,1.729,0.276,2.471,0.276c0.51,0,0.986-0.049,1.432-0.146c0.84-0.191,1.57-0.596,2.095-1.21
		c0.644-0.765,0.89-1.751,0.89-2.799V78.269C280.559,77.229,280.323,76.226,279.808,75.358 M273.27,96.129
		c0,0.014-0.005,0.047-0.005,0.093c-0.008,0.004,0.009,0.028-0.016,0.049v-0.002h-0.005c-0.057,0.032-0.193,0.077-0.455,0.077
		c-0.164,0-0.388-0.024-0.641-0.066c-0.458-0.087-1.534-0.294-2.389-0.452c-0.621-0.117-0.979-0.407-1.111-0.656
		c-0.114-0.207-0.114-0.373-0.114-0.373v-0.009V76.336v-0.013v-0.012c0-0.005,0.008-0.009,0.027-0.02
		c0.068-0.036,0.207-0.085,0.475-0.085c0.159,0,0.354,0.02,0.588,0.066c0.718,0.134,1.418,0.269,2.109,0.405
		c0.576,0.11,0.959,0.309,1.205,0.537c0.366,0.339,0.306,0.583,0.331,0.583V96.129z"/>
	<polygon fill="#FFFFFF" points="157.151,236.19 160.86,234.354 163.939,237.109 163.34,233.023 166.906,230.942 162.833,230.241 
		161.953,226.216 160.037,229.865 155.926,229.459 158.817,232.408 	"/>
	<path fill="#2E2A25" d="M281.876,213.175c3.636-1.586,10.426-4.551,10.426-4.551l0.51-0.222l-0.527-0.172
		c0,0-10.925-3.593-13.271-4.358c-0.354-2.471-2.08-14.348-2.08-14.348l-0.084-0.575l-3.973,6.461c0,0-2.276,3.669-3.506,5.667
		c-2.588-0.658-13.878-3.534-13.878-3.534l-0.593-0.149l0.374,0.487c0.012,0.008,4.596,5.911,7.379,9.507
		c-11.363-2.47-24.474-3.85-39.502-3.85c-4.93,0-10.068,0.151-15.415,0.459c-20.489,1.169-40.64,4.984-59.975,11.97l2.209-6.578
		l-0.393,0.125c-30.261,9.456-63.356,37.821-77.985,65.873l0.328,0.25c20.684-19.403,48.679-34.893,73.774-40.532l-6.591,15.363
		l0.509-0.248c11.679-5.635,27.011-8.127,42.476-8.127c15.831,0,31.802,2.607,44.142,7.106l-4.73,10.316
		c-11.255-5.165-27.536-8.64-41.042-8.64c-2.406,0-4.722,0.109-6.907,0.341l-0.035,0.414c15.951,4.504,32.466,9.591,45.554,20.082
		c-0.079,1.115-0.119,2.227-0.119,3.335c0.007,27.617,23.844,52.61,51.822,52.614c0.189,0,0.377,0,0.563-0.004
		c30.832-0.361,53.681-28.634,53.683-58.103C325.023,247.848,312.597,225.475,281.876,213.175"/>
	<path fill="#8E9090" d="M265.058,263.756c-11.383,0-22.775-4.175-34.214-8.378c-3.021,6.375-4.552,13.06-4.552,19.86
		c0,3.615,0.435,7.269,1.312,10.922c0.944,0.021,1.894,0.033,2.844,0.033c22.089,0,45.528-6.137,64.464-17.365
		c-2.185-4.062-4.891-7.854-7.697-11.507C279.841,261.99,272.451,263.759,265.058,263.756"/>
	<path fill="#8E9090" d="M229.652,290.48c-0.247,0-0.498,0-0.744-0.002c6.907,17.864,22.746,29.704,42.067,29.971
		c6.181-15.23,13.043-31.877,28.729-39.654c-0.821-2.746-1.825-5.415-2.934-8.052C276.577,284.548,252.996,290.48,229.652,290.48"/>
	<path fill="#8E9090" d="M277.395,234.417c-6.869-2.623-11.243-3.438-11.654-3.512c-1.92,0.264-4.525,0.521-6.635,0.94
		c11.674,4.648,20.295,10.29,28.953,19.942c4.452-3.516,8.359-7.5,11.073-12.396c-7.94-7.721-22.897-17.188-60.197-20.121
		c15.75,3.75,30.229,8.799,38.655,14.775L277.395,234.417z"/>
	<path fill="#8E9090" d="M172.819,229.241c2.312-0.052,4.81-0.083,7.449-0.083c26.5,0.012,67.398,3.126,83.258,21.955l-0.266,0.323
		c-5.488-3.057-16.465-8.123-23.31-8.115c-0.22,0-0.436,0.003-0.648,0.017c-2.353,2.598-4.432,5.471-6.296,8.45
		c10.601,3.909,21.333,7.785,31.968,7.785c6.679,0,13.319-1.523,19.893-5.536c-18.378-20.028-49.487-28.766-78.834-28.764
		C194.375,225.273,183,226.652,172.819,229.241"/>
	<path fill="#8E9090" d="M298.215,266.731c5.124-3.489,9.553-7.134,13.576-11.816c-2.527-4.807-6.906-10.214-10.044-12.99
		c-2.916,5.149-6.657,9.401-11.205,13.14C293.217,258.637,296.047,262.799,298.215,266.731"/>
	<path fill="#8E9090" d="M275.469,320.266c9.311-1.136,17.869-4.315,25.067-10.425c1.103-4.117,1.58-8.382,1.58-12.659
		c0-4.081-0.433-8.176-1.166-12.161C286.91,291.771,281.077,306.585,275.469,320.266"/>
	<path fill="#8E9090" d="M306.264,299.928c0,1.406-0.035,2.817-0.104,4.231c5.46-7.39,8.386-13.808,10.013-23.25
		c-3.986,0.354-7.939,1.02-11.698,2.268C305.703,288.739,306.264,294.315,306.264,299.928"/>
	<path fill="#8E9090" d="M300.15,270.641c1.23,2.816,2.326,5.676,3.275,8.604c4.382-1.428,8.607-2.16,13.173-2.437
		c0.003-0.326,0.005-0.646,0.005-0.967c-0.002-6.044-0.891-10.693-2.858-16.478C309.558,263.652,305.134,267.302,300.15,270.641"/>
	<path fill="#8E9090" d="M316.597,276.809c-4.561,0.274-8.791,1.009-13.171,2.437c-0.949-2.929-2.045-5.788-3.278-8.604
		c4.986-3.339,9.41-6.99,13.595-11.276c1.973,5.784,2.863,10.434,2.863,16.478C316.605,276.162,316.605,276.482,316.597,276.809"/>
	<path fill="#8E9090" d="M316.597,276.809c-4.561,0.274-8.791,1.009-13.171,2.437c-0.949-2.929-2.045-5.788-3.278-8.604
		c4.986-3.339,9.41-6.99,13.595-11.276c1.973,5.784,2.863,10.434,2.863,16.478C316.605,276.162,316.605,276.482,316.597,276.809"/>
	<path fill="#8E9090" d="M301.747,241.925c3.138,2.776,7.517,8.184,10.044,12.99c-4.023,4.681-8.452,8.326-13.576,11.818
		c-2.168-3.935-4.998-8.097-7.673-11.669C295.09,251.329,298.828,247.074,301.747,241.925"/>
	<path fill="#8E9090" d="M301.747,241.925c3.138,2.776,7.517,8.184,10.044,12.99c-4.023,4.681-8.452,8.326-13.576,11.818
		c-2.168-3.935-4.998-8.097-7.673-11.669C295.09,251.329,298.828,247.074,301.747,241.925"/>
	<path fill="#8E9090" d="M238.933,219.271c37.304,2.933,52.259,12.398,60.199,20.121c-2.714,4.894-6.624,8.88-11.072,12.398
		c-8.659-9.658-17.28-15.297-28.954-19.947c2.107-0.414,4.715-0.676,6.635-0.938c0.411,0.075,4.785,0.887,11.654,3.509l0.197-0.367
		C269.164,228.071,254.685,223.021,238.933,219.271"/>
	<path fill="#8E9090" d="M238.933,219.271c37.304,2.933,52.259,12.398,60.199,20.121c-2.714,4.894-6.624,8.88-11.072,12.398
		c-8.659-9.658-17.28-15.297-28.954-19.947c2.107-0.414,4.715-0.676,6.635-0.938c0.411,0.075,4.785,0.887,11.654,3.509l0.197-0.367
		C269.164,228.071,254.685,223.021,238.933,219.271"/>
	<path fill="#8E9090" d="M230.444,286.193c-0.947,0-1.896-0.013-2.844-0.033c-0.876-3.655-1.309-7.307-1.309-10.924
		c0-6.798,1.531-13.483,4.548-19.861c11.442,4.206,22.835,8.379,34.216,8.379c7.396,0.005,14.787-1.764,22.156-6.43
		c2.811,3.65,5.515,7.443,7.699,11.504C275.976,280.055,252.539,286.193,230.444,286.193"/>
	<path fill="#8E9090" d="M230.444,286.193c-0.947,0-1.896-0.013-2.844-0.033c-0.876-3.655-1.309-7.307-1.309-10.924
		c0-6.798,1.531-13.483,4.548-19.861c11.442,4.206,22.835,8.379,34.216,8.379c7.396,0.005,14.787-1.764,22.156-6.43
		c2.811,3.65,5.515,7.443,7.699,11.504C275.976,280.055,252.539,286.193,230.444,286.193"/>
	<path fill="#8E9090" d="M270.975,320.451c-19.322-0.269-35.159-12.106-42.069-29.973c0.249,0.005,0.497,0.005,0.747,0.005
		c23.346,0,46.922-5.938,67.118-17.738c1.107,2.632,2.114,5.306,2.936,8.052C284.019,288.575,277.156,305.221,270.975,320.451"/>
	<path fill="#8E9090" d="M270.975,320.451c-19.322-0.269-35.159-12.106-42.069-29.973c0.249,0.005,0.497,0.005,0.747,0.005
		c23.346,0,46.922-5.938,67.118-17.738c1.107,2.632,2.114,5.306,2.936,8.052C284.019,288.575,277.156,305.221,270.975,320.451"/>
	<path fill="#8E9090" d="M306.16,304.159c0.068-1.413,0.104-2.823,0.104-4.231c0-5.612-0.561-11.188-1.789-16.751
		c3.764-1.248,7.715-1.914,11.698-2.27C314.546,290.354,311.62,296.77,306.16,304.159"/>
	<path fill="#8E9090" d="M306.16,304.159c0.068-1.413,0.104-2.823,0.104-4.231c0-5.612-0.561-11.188-1.789-16.751
		c3.764-1.248,7.715-1.914,11.698-2.27C314.546,290.354,311.62,296.77,306.16,304.159"/>
	<path fill="#8E9090" d="M284.867,254.04c-6.573,4.007-13.214,5.533-19.895,5.533c-10.633,0.002-21.368-3.878-31.966-7.787
		c1.864-2.978,3.941-5.851,6.296-8.448c0.213-0.014,0.429-0.017,0.648-0.017c6.845-0.008,17.821,5.059,23.31,8.115l0.264-0.323
		c-15.858-18.83-56.755-21.943-83.256-21.955c-2.64,0-5.138,0.033-7.452,0.083c10.183-2.591,21.561-3.966,33.217-3.966
		C235.38,225.271,266.489,234.009,284.867,254.04"/>
	<path fill="#8E9090" d="M284.867,254.04c-6.573,4.007-13.214,5.533-19.895,5.533c-10.633,0.002-21.368-3.878-31.966-7.787
		c1.864-2.978,3.941-5.851,6.296-8.448c0.213-0.014,0.429-0.017,0.648-0.017c6.845-0.008,17.821,5.059,23.31,8.115l0.264-0.323
		c-15.858-18.83-56.755-21.943-83.256-21.955c-2.64,0-5.138,0.033-7.452,0.083c10.183-2.591,21.561-3.966,33.217-3.966
		C235.38,225.271,266.489,234.009,284.867,254.04"/>
	<path fill="#8E9090" d="M300.536,309.841c-7.198,6.109-15.757,9.291-25.067,10.425c5.606-13.681,11.439-28.497,25.481-35.245
		c0.734,3.985,1.168,8.08,1.168,12.161C302.118,301.459,301.642,305.722,300.536,309.841"/>
	<path fill="#8E9090" d="M300.536,309.841c-7.198,6.109-15.757,9.291-25.067,10.425c5.606-13.681,11.439-28.497,25.481-35.245
		c0.734,3.985,1.168,8.08,1.168,12.161C302.118,301.459,301.642,305.722,300.536,309.841"/>
	<polygon fill="#8E9090" points="263.688,217.163 271.794,214.325 277.956,221.312 277.236,212.19 285.09,208.771 276.543,205.962 
		275.218,196.863 270.654,204.252 262,202.042 267.737,209.419 	"/>
	<polygon fill="#FFFFFF" points="220.471,223.729 226.107,220.953 230.8,225.126 229.883,218.918 235.311,215.765 229.115,214.705 
		227.782,208.586 224.875,214.146 218.624,213.51 223.011,217.996 	"/>
	<polygon fill="#FFFFFF" points="157.132,236.19 160.843,234.359 163.919,237.109 163.323,233.027 166.885,230.944 162.813,230.244 
		161.934,226.216 160.02,229.866 155.909,229.459 158.799,232.411 	"/>
	<path fill="#0055B8" d="M297.37,292.21l-0.006-0.755l-5.229,8.76l1.5-7.714l-0.37-0.174c-7.66,9.29-10.587,15.971-12.971,24.202
		l-0.112,0.393l0.384-0.135c8.602-2.981,13.043-6.429,14.861-7.876l0.038-0.029l0.021-0.046c1.279-2.779,1.887-8.401,1.892-15.291
		C297.379,293.104,297.374,292.658,297.37,292.21"/>
	<path fill="#0055B8" d="M279.887,271.93c-8.369,1.702-18.133,2.697-27.082,2.697c-1.342,0-2.667-0.021-3.966-0.067l19.198-5.679
		l-0.05-0.412c-12.675-0.595-22.46-0.835-34.844-6.641l-0.182-0.088l-0.095,0.175c-1.844,3.308-2.888,7.94-2.888,12.632
		c0,2.667,0.336,5.354,1.064,7.824l0.046,0.145l0.149,0.008c0.005,0,0.445,0.012,1.261,0.012c5.534-0.001,28.28-0.608,47.524-10.21
		L279.887,271.93z"/>
	<path fill="#0055B8" d="M284.118,287.498c-9.678,7.193-16.963,13.011-31.239,15.694c13.22-6.868,22.086-11.594,30.419-20.033
		l-0.257-0.328c-14.777,8.604-34.026,12.289-47.608,12.801l-0.363,0.014l0.193,0.309c11.18,17.694,25.326,19.277,29.929,19.277
		h0.025c0.952,0,1.488-0.063,1.496-0.063l0.102-0.013l0.053-0.085c5.994-9.488,9.812-18.619,17.536-27.264L284.118,287.498z"/>
	<path fill-rule="evenodd" clip-rule="evenodd" fill="#FFFFFF" d="M309.104,253.737c-1.273,1.367-2.496,2.575-3.749,3.708
		c-1.386-2.982-3-5.84-4.876-8.537c0.978-1.181,1.922-2.396,2.802-3.67C305.675,247.886,307.745,250.977,309.104,253.737
		 M314.198,272.509c-1.489,0.199-2.869,0.411-4.238,0.707c-0.303-2.21-0.746-4.402-1.306-6.553c1.479-1.244,2.897-2.51,4.34-3.866
		C313.817,265.979,314.167,268.96,314.198,272.509 M309.428,292.559l-0.041-0.742c0.62-3.072,0.965-6.164,1.073-9.209
		c0.808-0.217,1.633-0.381,2.468-0.539C312.041,285.855,310.935,289.293,309.428,292.559 M274.211,228.551
		c-0.706-0.369-1.419-0.718-2.159-1.049c11.43,3.386,19.136,7.802,23.444,11.154c-0.664,0.984-1.4,1.932-2.162,2.854
		C288.044,236.022,281.585,231.554,274.211,228.551"/>
</g>
</svg>
