<?xml version="1.0" encoding="utf-8"?>
<!-- Generator: Adobe Illustrator 16.0.0, SVG Export Plug-In . SVG Version: 6.00 Build 0)  -->
<!DOCTYPE svg PUBLIC "-//W3C//DTD SVG 1.1//EN" "http://www.w3.org/Graphics/SVG/1.1/DTD/svg11.dtd">
<svg version="1.1" id="Layer_1" xmlns="http://www.w3.org/2000/svg" xmlns:xlink="http://www.w3.org/1999/xlink" x="0px" y="0px"
	 width="400px" height="400px" viewBox="0 0 400 400" enable-background="new 0 0 400 400" xml:space="preserve">
<g>
	<rect x="63.7" y="35.8" fill="#DD0031" width="272.6" height="272.1"/>
	<rect x="63.7" y="317.9" fill="#003DA6" width="272.6" height="52"/>
	<path fill="#FFFFFF" d="M344.4,27.7c-1.3-1.3-3.1-2-4.9-2H60.5c-1.8,0-3.6,0.7-4.9,2c-1.3,1.3-2,3.1-2,4.9v340.5
		c0,1.8,0.7,3.6,2,4.9c1.3,1.3,3.1,2,4.9,2h279.1c1.8,0,3.6-0.7,4.9-2c1.3-1.3,2-3.1,2-4.9V32.6C346.5,30.8,345.7,29,344.4,27.7
		 M342.8,373.1c0,0.9-0.3,1.7-0.9,2.3s-1.4,0.9-2.3,0.9H60.5c-0.9,0-1.7-0.3-2.3-0.9s-0.9-1.4-0.9-2.3V32.6c0-0.8,0.3-1.7,0.9-2.3
		c0.6-0.6,1.4-0.9,2.3-0.9h279.1c0.8,0,1.7,0.3,2.3,0.9c0.6,0.6,0.9,1.4,0.9,2.3V373.1z"/>
	<path fill="#8E9090" d="M339.6,29.4H60.5c-0.9,0-1.7,0.3-2.3,0.9c-0.6,0.6-0.9,1.4-0.9,2.3v340.5c0,0.9,0.3,1.7,0.9,2.3
		c0.6,0.6,1.4,0.9,2.3,0.9h279.1c0.8,0,1.7-0.3,2.3-0.9c0.6-0.6,0.9-1.4,0.9-2.3V32.6c0-0.9-0.3-1.7-0.9-2.3
		C341.3,29.7,340.5,29.4,339.6,29.4 M63.7,369.9v-52v0h3.6h265.3h3.7v0v52H63.7z M336.4,307.9h-3.7H67.4h-3.6V35.8h272.6V307.9z"/>
	<path fill="#003DA6" d="M200.7,49.8c-67.4,0-122.1,54.6-122.1,122c0,67.4,54.6,122.1,122.1,122.1c67.4,0,122-54.7,122-122.1
		C322.7,104.4,268.1,49.8,200.7,49.8"/>
	<path fill="#FFFFFF" d="M259.4,226.2c6.8,10.2,12.6,20,17.1,28.9c-20,18.2-49.1,30-77.5,29.2c-0.3-25.2,11.6-49.6,19.6-60.5
		c-1.3-0.9-2-1.7-3.2-3.1c-8.3,10.8-22.5,36.3-22.2,63.4c-33.6-2.2-63.1-19.1-82.2-44.4c9.9-3.2,19.9-7.1,29.7-11.6
		c-1-1-3.7-2-5.4-2.4c-9,3.9-18.1,7.3-27.1,10.1c-11.9-17.2-19.2-37.9-19.9-60.3c6.9,1.6,14.9,2,23.9,1.2v-4.9
		c-9,0.8-17.2,0.5-24-1.1c0.4-34.9,16.6-65.9,41.8-86.3c15.5,9.8,39.5,32.3,62.1,57c-1.1,1.4-2.6,2.6-3,3.1l4.6,2.5
		c22.6-18.6,41.1-47.8,44.7-81.1c19.5,6.9,36.5,19.1,49.4,34.8c-19.2,27.7-45.9,55.4-76.3,79.1c0.2,1.6,1,3.1,1.9,4
		c30.6-23.6,57.6-51.2,77.6-79.1c12.6,16.9,20.5,37.5,22,59.9c-28.1,2.9-47.3,12.3-61.4,21.3c0.2,1,2.3,2.6,3.6,2.8
		c13.4-8.5,31.6-17.1,58-19.8c0,1,0.1,2,0.1,2.9c0,30.9-12.4,58.9-32.6,79.3c-4.8-8.8-10.7-18.3-17.4-28.2l-3.8,3.5"/>
	<path fill="#FFFFFF" d="M195.8,138.5c-23.1-25.2-45.7-46.5-61.7-57.3c18.6-13.7,41.6-21.8,66.5-21.8c11.4,0,22.4,1.7,32.8,4.9
		C230.5,93.8,215.2,120.4,195.8,138.5"/>
	<polygon fill="#003DA6" points="141.2,104 142.1,106.8 145.1,106.8 142.7,108.6 143.6,111.3 141.2,109.7 138.9,111.3 139.8,108.6 
		137.3,106.8 140.3,106.8 	"/>
	<polygon fill="#003DA6" points="158.9,114.3 159.8,117.1 162.8,117.1 160.3,118.9 161.2,121.6 158.9,119.9 156.5,121.6 
		157.4,118.9 155,117.1 158,117.1 	"/>
	<polygon fill="#003DA6" points="151.3,106.3 152.2,109.1 155.2,109.1 152.8,110.9 153.7,113.7 151.3,112 149,113.7 149.8,110.9 
		147.4,109.1 150.4,109.1 	"/>
	<polygon fill="#003DA6" points="161.8,124 162.7,126.8 165.7,126.8 163.2,128.6 164.1,131.4 161.8,129.7 159.4,131.4 160.3,128.6 
		157.9,126.8 160.9,126.8 	"/>
	<polygon fill="#003DA6" points="160.5,134.3 161.4,137.1 164.4,137.1 162,138.9 162.9,141.7 160.5,139.9 158.2,141.7 159,138.9 
		156.6,137.1 159.6,137.1 	"/>
	<polygon fill="#003DA6" points="154.8,142.5 155.7,145.3 158.7,145.3 156.3,147.1 157.2,149.8 154.8,148.1 152.5,149.8 
		153.4,147.1 150.9,145.3 153.9,145.3 	"/>
	<polygon fill="#003DA6" points="145.9,147.1 146.8,149.9 149.8,149.9 147.4,151.7 148.3,154.4 145.9,152.7 143.6,154.4 
		144.4,151.7 142,149.9 145,149.9 	"/>
	<polygon fill="#003DA6" points="123.3,113.4 122.3,116.2 119.4,116.2 121.8,118 120.9,120.7 123.2,119 125.6,120.7 124.7,118 
		127.2,116.2 124.2,116.2 	"/>
	<polygon fill="#003DA6" points="130.6,106.3 129.7,109.1 126.7,109.1 129.2,110.9 128.3,113.7 130.6,112 133,113.7 132.1,110.9 
		134.5,109.1 131.5,109.1 	"/>
	<polygon fill="#003DA6" points="119.8,122.7 118.9,125.5 115.9,125.5 118.4,127.3 117.5,130.1 119.8,128.4 122.2,130.1 
		121.3,127.3 123.7,125.5 120.7,125.5 	"/>
	<polygon fill="#003DA6" points="120.7,133 119.8,135.8 116.8,135.8 119.3,137.6 118.4,140.4 120.7,138.7 123.1,140.4 122.2,137.6 
		124.6,135.8 121.6,135.8 	"/>
	<polygon fill="#003DA6" points="126.4,141.4 125.5,144.2 122.5,144.2 124.9,146 124.1,148.8 126.4,147 128.8,148.8 127.9,146 
		130.3,144.2 127.3,144.2 	"/>
	<polygon fill="#003DA6" points="135.3,146.7 134.4,149.5 131.4,149.5 133.9,151.3 133,154.1 135.3,152.4 137.7,154.1 136.8,151.3 
		139.2,149.5 136.2,149.5 	"/>
	<path fill="#003DA6" d="M164.1,216.2c-5.6,3.1-10.8,5.8-16.5,8.6c-0.3-1.2-0.6-3.2-0.6-4.5c5.1-2.5,10.2-5.1,15.3-8
		C162.9,213.7,163.5,215,164.1,216.2"/>
	<path fill="#FFFFFF" d="M77.5,352.2c-0.2,1.3,1.4,1.6,2.6,1.6l-0.5,3H68.5l0.5-3h0.6c0.4-0.1,1.1-0.3,1.5-0.5c1-0.7,1.1-2,1.3-3.2
		l2.1-13.9c0.2-1.3-1.1-1.6-2.5-1.6l0.5-3h10.9c1.7,0,4,0,5.6,0.6c2.2,0.8,3.4,2.9,3.4,5.6c0,2.9-1.4,5.8-3.7,7.2
		c-2.3,1.4-5.1,1.5-7.6,1.5h-2.6L77.5,352.2z M79.7,343.1c1.6,0,3,0.1,4.4-0.9c1.2-0.8,2.1-2.6,2.1-4.2c0-2.6-1.5-3.4-3.5-3.4
		c-2.5,0-2.5,0.6-2.9,3.2l-0.8,5.4H79.7z"/>
	<path fill="#FFFFFF" d="M98,352.1c-0.2,1.4,1.4,1.7,2.6,1.6l-0.5,3.1H88.6l0.5-3.1h0.8c0.4,0,1.1-0.3,1.5-0.5c1-0.7,1.1-2,1.3-3.2
		l2.1-13.9c0.2-1.3-1.1-1.5-2-1.6h-0.6l0.4-3.1h11.6l-0.5,3.1c-0.9,0-1.2,0-2,0.4c-1.2,0.6-1.3,2-1.5,3.3l-0.5,3.4h8.2l0.8-5.4
		c0.2-1.4-1.3-1.6-2.5-1.6l0.4-3.1h11.3l-0.4,3.1c-0.8,0-1.2,0-1.9,0.4c-1.2,0.6-1.3,2-1.5,3.3l-2.1,14c-0.2,1.3,1.4,1.5,2.5,1.5
		l-0.5,3.1h-11.3l0.5-3.1h0.6c0.4,0,1.1-0.3,1.5-0.5c1-0.7,1.1-2,1.3-3.2l0.8-5.3h-8.2L98,352.1z"/>
	<path fill="#FFFFFF" d="M127.4,356.8H116l0.5-3c0.8,0,1.4-0.1,2-0.4c1.2-0.6,1.3-2,1.5-3.3l2.1-13.9c0.2-1.3-1.1-1.5-2-1.6h-0.6
		l0.5-3.1h11.4l-0.5,3.1c-0.7,0-1.3,0.1-1.9,0.4c-1.2,0.5-1.3,2-1.5,3.3l-2.1,14c-0.2,1.3,1.4,1.6,2.5,1.6L127.4,356.8z"/>
	<path fill="#FFFFFF" d="M149.1,356.8h-19.3l0.5-3c0.7,0,1.3-0.1,1.8-0.4c1.2-0.6,1.3-2,1.5-3.3l2.1-13.9c0.2-1.3-1.1-1.6-2.4-1.6
		l0.5-3.1h11.6l-0.5,3.1c-0.9,0-1.3,0-2.1,0.4c-1.2,0.6-1.3,2-1.5,3.3l-2.2,14.4c-0.1,0.9,1.2,1.2,1.8,1.2c2.2,0,4-0.8,5.9-2.3
		c1.9-1.5,2.5-2.6,4-4.7l2.3,1.4L149.1,356.8z"/>
	<path fill="#FFFFFF" d="M173.4,349.8c0.1,0.7,0.4,2,0.7,2.7c0.4,1,1.1,1,2,1.3l0.4,0.1l-0.5,3.1h-11.5l0.5-3.1h0.6
		c0.8-0.2,2.6-0.3,2.3-1.4l-0.8-4.5h-7.2l-1.6,3.5c-0.2,0.5-0.4,0.8-0.4,1.3c0,1.1,1.9,1.1,2.5,1.2l-0.5,3.1h-9.4l0.5-3.1
		c3.1-0.7,3.6-2.5,5-5.2l8.8-17.1h4.9L173.4,349.8z M165.3,336.8l-4,8.1h5.3L165.3,336.8z"/>
	<path fill="#FFFFFF" d="M190.6,331.5c2.7,0,5.8-0.1,8.2,1.7c2.6,2,3.6,5.2,3.6,8.7c0,4.4-1.6,9.1-4.7,11.8c-3.4,3-7.6,3.1-11.7,3.1
		h-9.4l0.5-3.1c0.6,0,1.2-0.1,1.8-0.4c1.2-0.6,1.3-2,1.5-3.3l2.1-13.9c0.2-1.3-1.1-1.5-2.4-1.6l0.5-3.1H190.6z M185.8,351.5
		c0,0.3-0.1,0.6-0.1,0.9c0,1.2,1.6,1.4,2.3,1.4c5.8,0,8.7-6.6,8.7-12.5c0-4.2-1.6-6.7-5.5-6.7c-0.7,0-2,0.1-2.6,0.6
		c-0.5,0.5-0.6,1.7-0.7,2.4l-2,13L185.8,351.5z"/>
	<path fill="#FFFFFF" d="M220.2,356.8h-20.7l0.5-3c0.7,0,1.3-0.1,1.8-0.4c1.1-0.6,1.3-2,1.5-3.3l2.1-13.9c0.1-0.5-0.1-0.8-0.5-1.1
		c-0.5-0.4-1.2-0.5-1.8-0.5l0.5-3.1h18.9l1.8,8.2l-2.3,0.9c-1.5-3.8-3.9-6-7.6-6c-0.8,0-2.3,0.1-2.9,0.7c-0.6,0.7-0.8,2.1-0.9,3
		l-0.6,3.4h2.3c1.5,0,2.4-2.1,2.7-3.9h2.4l-1.7,11.2h-2.3v-1c0-2.9-1.2-3.1-3.8-3.1l-1.1,7.4c-0.2,1.3,1.7,1.4,2.5,1.4
		c4.7,0,7.5-2.6,10.6-6.6l2.2,1.3L220.2,356.8z"/>
	<path fill="#FFFFFF" d="M242.9,356.8h-19.4l0.4-3c0.7,0,1.3-0.1,1.9-0.4c1.2-0.6,1.3-2,1.5-3.3l2.1-13.9c0.2-1.3-1.1-1.6-2.4-1.6
		l0.4-3.1h11.6l-0.5,3.1c-0.9,0-1.3,0-2,0.4c-1.2,0.6-1.3,2-1.5,3.3l-2.2,14.4c-0.1,0.9,1.2,1.2,1.8,1.2c2.2,0,4-0.8,5.9-2.3
		c1.9-1.5,2.5-2.6,4-4.7l2.2,1.4L242.9,356.8z"/>
	<path fill="#FFFFFF" d="M254.2,352.2c-0.2,1.3,1.4,1.6,2.6,1.6l-0.5,3h-11.2l0.5-3h0.6c0.4-0.1,1.1-0.3,1.5-0.5
		c1-0.7,1.1-2,1.3-3.2l2.1-13.9c0.2-1.3-1.1-1.6-2.5-1.6l0.5-3h10.9c1.7,0,4,0,5.6,0.6c2.2,0.8,3.4,2.9,3.4,5.6
		c0,2.9-1.4,5.8-3.6,7.2c-2.3,1.4-5.1,1.5-7.6,1.5H255L254.2,352.2z M256.3,343.1c1.6,0,3,0.1,4.4-0.9c1.2-0.8,2.1-2.6,2.1-4.2
		c0-2.6-1.5-3.4-3.5-3.4c-2.6,0-2.6,0.6-2.9,3.2l-0.8,5.4H256.3z"/>
	<path fill="#FFFFFF" d="M275.3,352.1c-0.2,1.4,1.4,1.7,2.6,1.6l-0.5,3.1H266l0.5-3.1h0.8c0.4,0,1.1-0.3,1.5-0.5
		c1-0.7,1.1-2,1.3-3.2l2.1-13.9c0.2-1.3-1.1-1.5-2-1.6h-0.6l0.5-3.1h11.6l-0.5,3.1c-0.9,0-1.2,0-2,0.4c-1.2,0.6-1.3,2-1.5,3.3
		l-0.5,3.4h8.2l0.8-5.4c0.2-1.4-1.3-1.6-2.5-1.6l0.5-3.1h11.3l-0.5,3.1c-0.8,0-1.2,0-1.9,0.4c-1.2,0.6-1.3,2-1.5,3.3l-2.1,14
		c-0.2,1.3,1.4,1.5,2.5,1.5l-0.5,3.1h-11.3l0.5-3.1h0.7c0.4,0,1.1-0.3,1.5-0.5c1-0.7,1.1-2,1.3-3.2l0.8-5.3h-8.2L275.3,352.1z"/>
	<path fill="#FFFFFF" d="M304.7,356.8h-11.4l0.5-3c0.8,0,1.4-0.1,2-0.4c1.2-0.6,1.3-2,1.5-3.3l2.1-13.9c0.2-1.3-1.1-1.5-2-1.6h-0.6
		l0.5-3.1h11.4l-0.5,3.1c-0.7,0-1.3,0.1-1.9,0.4c-1.2,0.5-1.3,2-1.5,3.3l-2.1,14c-0.2,1.3,1.4,1.6,2.5,1.6L304.7,356.8z"/>
	<path fill="#FFFFFF" d="M328.6,349.8c0.1,0.7,0.4,2,0.7,2.7c0.4,1,1.1,1,2,1.3l0.4,0.1l-0.5,3.1h-11.5l0.5-3.1h0.6
		c0.8-0.2,2.6-0.3,2.3-1.4l-0.7-4.5h-7.2l-1.6,3.5c-0.2,0.5-0.4,0.8-0.4,1.3c0,1.1,1.9,1.1,2.5,1.2l-0.5,3.1h-9.4l0.5-3.1
		c3.1-0.7,3.6-2.5,5-5.2l8.8-17.1h4.9L328.6,349.8z M320.4,336.8l-4,8.1h5.3L320.4,336.8z"/>
	<path fill="#003DA6" d="M259.8,222.1h-16.5V218l3-0.4v-12.9c0-4.6-0.6-6.8-3.9-6.8v-3.7l11.7-3.4c1.3,2.6,1.8,5.6,1.9,8.6h0.1
		c1.2-3.5,2.6-8.5,6.5-8.5c3.4,0,4.8,2.6,4.8,5.7c0,3.2-1.4,5.8-3.9,5.8c-1.7,0-3.1-0.7-3.9-1c-2.2-0.7-2.8,8.6-2.8,10.5v5.6l3,0.4
		V222.1z"/>
	<path fill="#003DA6" d="M287.5,196.7c0,2.6-2.2,3.9-4.5,3.9c-2.8,0-4.9-2.3-5.4-5.1c-1.2,0-2.1,0.6-2.1,2.7
		c0,4.8,13.5,1.4,13.5,13.5c0,9.1-6.6,11.3-12.9,11.3c-3.9,0-10.6-0.5-10.6-6.4c0-2.7,1.5-4.7,4.1-4.7c4.1,0,4.8,3.8,5.5,6.4
		c0.2,0.7,0.8,0.8,1.4,0.8c2.2,0,3.7-0.9,3.7-2.3c0-5.4-13.9-3.3-13.9-15.1c0-7.5,8.9-10.9,13.1-10.9
		C284.5,190.9,287.5,192.5,287.5,196.7"/>
	<path fill="#003DA6" d="M195.1,176.8c-5.3,0-10.7,2.1-13.5,6.5h-0.1l0.5-7.6c0.3-5.2,1.5-19.2,8.6-19.2c3.4,0,2.7,4.6,3.1,6.6
		c0.9,4.9,3.1,10.4,9.7,10.4c4.5,0,9.3-3,9.3-9.1c0-9.5-7.9-15.7-17.5-15.7c-24.7,0-34.5,18.8-34.5,41.6c0,19.8,7.7,36.8,28.8,36.8
		c13.7,0,24.9-9.8,24.9-26.2C214.4,187.1,207.1,176.8,195.1,176.8 M187.8,219.5c-5.9,0-5.6-7.5-5.6-16.2c0-8.7,0.8-16.2,5.6-16.2
		c5.9,0,6.2,7.5,6.2,16.2C194,211.9,192.8,219.5,187.8,219.5"/>
	<path fill="#DD0031" d="M113.7,148.4v29.3c16.4,2.4,36.1,0.8,49.9-19.5c0.6-0.9,0.9-0.3,0.5,0.5c-3.9,7.9-13,15.2-21,21.4
		c-7.6,6-28,27.4-27.8,46.2c0,1.4,0.1,1.1,1.3,0.1c6.2-4.6,18.3-4.7,25.8-1.2c1,0.5,1.1,0.3,1-1c-1.4-14.6,1.9-30.6,8.1-39.8
		c4.3-6.4,15.9-22.9,17.9-35.9c0.2-1.3-0.5-1.1-2.2,0.6c-13.2,13.9-36.9,13.6-52.3-1.2C114.2,147.1,113.8,147.5,113.7,148.4"/>
	<path fill="#003DA6" d="M234.1,216.1c-3.7,0-5.8-3.3-6.2-6.7l15.7-4.2c-0.5-7.6-4.9-14.4-13.2-14.4c-8.8,0-14.7,6.9-14.7,17.1
		c0,7.9,4.5,15.2,14.1,15.2c5.5,0,10.8-2.6,13.6-7.4l-3.1-3.7C238.8,214.3,237,216.1,234.1,216.1 M227.1,201.6c0-2.4,0-6.7,2.6-6.7
		c2.4,0,3,3.7,3,5.7c0,2.4-1.1,3-2.8,3.4l-2.7,0.8V201.6z"/>
</g>
</svg>
