<?xml version="1.0" encoding="utf-8"?>
<!-- Generator: Adobe Illustrator 16.2.1, SVG Export Plug-In . SVG Version: 6.00 Build 0)  -->
<!DOCTYPE svg PUBLIC "-//W3C//DTD SVG 1.1//EN" "http://www.w3.org/Graphics/SVG/1.1/DTD/svg11.dtd">
<svg version="1.1" id="Layer_3" xmlns="http://www.w3.org/2000/svg" xmlns:xlink="http://www.w3.org/1999/xlink" x="0px" y="0px"
	 width="400px" height="400px" viewBox="0 0 400 400" enable-background="new 0 0 400 400" xml:space="preserve">
<g>
	<path fill="#FFFFFF" d="M367,31.126c-14.256-0.005-210.94-0.041-210.94-0.041c-3.001,0.005-5.819,0.179-8.459,0.516
		c-16.703,1.062-31.25,8.576-36.512,29.652L33.937,370.967l231.276-0.094c10.275-0.007,20.572-7.004,25.044-16.356
		c1.369-2.004,2.388-4.204,2.914-6.493C293.171,348.023,363.684,45.353,367,31.126"/>
	<path fill="none" stroke="#FFFFFF" stroke-width="1.155" d="M367,31.126c-14.256-0.005-210.94-0.041-210.94-0.041
		c-3.001,0.005-5.819,0.179-8.459,0.516c-16.703,1.062-31.25,8.576-36.512,29.652L33.937,370.967l231.276-0.094
		c10.275-0.007,20.572-7.004,25.044-16.356c1.369-2.004,2.388-4.204,2.914-6.493C293.171,348.023,363.684,45.353,367,31.126z"/>
	<path d="M33.938,370.967l231.275-0.094c12.028-0.007,24.098-9.599,26.802-21.319l74.71-318.015l-212.326-0.041
		c-19.453-0.607-37.344,5.863-43.312,29.752L33.938,370.967z"/>
	<path fill="#63727A" d="M293.171,348.023c-2.08,9.012-11.649,16.622-20.892,16.628c0,0-215.269,0.08-229.792,0.082
		c3.54-14.352,75.916-307.867,75.916-307.867c4.382-17.539,16.345-25.737,37.657-25.782c0,0,196.684,0.034,210.938,0.04
		C363.684,45.353,293.171,348.023,293.171,348.023"/>
</g>
<g>
	<defs>
		<path id="SVGID_1_" d="M111.087,61.251L33.939,370.969l231.274-0.096c12.028-0.007,24.095-9.599,26.802-21.319L366.72,31.539
			l-212.321-0.043c-0.813-0.022-1.624-0.035-2.426-0.035C133.475,31.461,116.803,38.356,111.087,61.251"/>
	</defs>
	<clipPath id="SVGID_2_">
		<use xlink:href="#SVGID_1_"  overflow="visible"/>
	</clipPath>
	<path clip-path="url(#SVGID_2_)" fill="#63727A" d="M293.171,348.023c-2.08,9.012-11.649,16.622-20.892,16.628
		c0,0-215.269,0.08-229.792,0.082c3.54-14.352,75.916-307.867,75.916-307.867c4.382-17.539,16.345-25.737,37.657-25.782
		c0,0,196.684,0.034,210.938,0.04C363.684,45.353,293.171,348.023,293.171,348.023"/>
	<path clip-path="url(#SVGID_2_)" fill="none" stroke="#63727A" stroke-width="0.288" d="M293.171,348.023
		c-2.08,9.012-11.649,16.622-20.892,16.628c0,0-215.269,0.08-229.792,0.082c3.54-14.352,75.916-307.867,75.916-307.867
		c4.382-17.539,16.345-25.737,37.657-25.782c0,0,196.684,0.034,210.938,0.04C363.684,45.353,293.171,348.023,293.171,348.023z"/>
</g>
<g>
	<path d="M183.159,298.678h-2.951h-0.75l-16.112,59.737h21.757c0,0,0.58-2.149,1.481-5.468h-18.062L183.159,298.678z"/>
	<path fill="none" stroke="#63727A" stroke-width="0.288" d="M183.159,298.678h-2.951h-0.75l-16.112,59.737h21.757
		c0,0,0.58-2.149,1.481-5.468h-18.062L183.159,298.678z"/>
	<path d="M209.35,311.177c-1.761-0.007-6.65-0.024-7.754-0.024c-0.08,0.304-0.645,2.392-1.481,5.485
		c1.559,0.004,3.185,0.008,4.059,0.012c-0.638,2.321-11.376,41.763-11.376,41.763l21.605,0.025l1.473-5.476l-17.892-0.019
		C197.983,352.943,208.718,313.491,209.35,311.177"/>
	<path fill="none" stroke="#63727A" stroke-width="0.288" d="M209.35,311.177c-1.761-0.007-6.65-0.024-7.754-0.024
		c-0.08,0.304-0.645,2.392-1.481,5.485c1.559,0.004,3.185,0.008,4.059,0.012c-0.638,2.321-11.376,41.763-11.376,41.763l21.605,0.025
		l1.473-5.476l-17.892-0.019C197.983,352.943,208.718,313.491,209.35,311.177z"/>
	<path d="M145.431,334.916c0.291-1.072,6.841-25.241,9.841-36.326h-2.686l0.005-0.007h-1.029l-0.254,0.967l0.016-0.011
		c-0.651,2.401-6.715,24.775-9.588,35.371C143.345,334.91,144.874,334.916,145.431,334.916"/>
	<path fill="none" stroke="#63727A" stroke-width="0.288" d="M145.431,334.916c0.291-1.072,6.841-25.241,9.841-36.326h-2.686
		l0.005-0.007h-1.029l-0.254,0.967l0.016-0.011c-0.651,2.401-6.715,24.775-9.588,35.371
		C143.345,334.91,144.874,334.916,145.431,334.916z"/>
	<path d="M124.142,352.896c-2.778-0.004-4.969-1.023-6.505-3.032c-1.673-2.18-2.339-5.312-2.339-8.468
		c0-2.104,0.298-4.221,0.792-6.065l9.891-36.762l-2.708-0.007l0.02-0.01h-1.032l-0.253,0.962l0.017-0.014l-11.111,41.301
		c-0.748,3.686-0.424,8.918,2.704,12.74c2.614,3.197,6.592,4.823,11.837,4.823l30.142-0.038l1.621,0.02l0.74-2.721l-0.01,0.004
		l0.746-2.771C149.105,352.87,124.144,352.896,124.142,352.896"/>
	<path fill="none" stroke="#63727A" stroke-width="0.288" d="M124.142,352.896c-2.778-0.004-4.969-1.023-6.505-3.032
		c-1.673-2.18-2.339-5.312-2.339-8.468c0-2.104,0.298-4.221,0.792-6.065l9.891-36.762l-2.708-0.007l0.02-0.01h-1.032l-0.253,0.962
		l0.017-0.014l-11.111,41.301c-0.748,3.686-0.424,8.918,2.704,12.74c2.614,3.197,6.592,4.823,11.837,4.823l30.142-0.038l1.621,0.02
		l0.74-2.721l-0.01,0.004l0.746-2.771C149.105,352.87,124.144,352.896,124.142,352.896z"/>
	<path d="M53.26,353.503l3.286-12.011h-4.159l-4.54,16.612l44.937-0.007c3.614,0.017,5.831-2.071,7.249-4.615
		c-0.185,0.013-0.367,0.021-0.558,0.021H53.26z"/>
	<path fill="none" stroke="#63727A" stroke-width="0.288" d="M53.26,353.503l3.286-12.011h-4.159l-4.54,16.612l44.937-0.007
		c3.614,0.017,5.831-2.071,7.249-4.615c-0.185,0.013-0.367,0.021-0.558,0.021H53.26z"/>
	<path d="M88.317,311.364c-0.244,0.885-0.827,3.012-1.207,4.387c2.241,0.002,18.495,0.01,18.495,0.01
		c0.722-0.006,1.398,0.063,2.032,0.18l2.455-0.004l1.176-4.593C102.976,311.354,89.295,311.36,88.317,311.364"/>
	<path fill="none" stroke="#63727A" stroke-width="0.288" d="M88.317,311.364c-0.244,0.885-0.827,3.012-1.207,4.387
		c2.241,0.002,18.495,0.01,18.495,0.01c0.722-0.006,1.398,0.063,2.032,0.18l2.455-0.004l1.176-4.593
		C102.976,311.354,89.295,311.36,88.317,311.364z"/>
	<path d="M61.769,334.942h25.934c0.25-0.857,0.87-2.958,1.282-4.341c-2.279,0-18.268,0.01-18.268,0.01
		c-2.969,0.006-5.486-1.115-7.082-3.169c-1.656-2.116-2.145-4.966-1.377-8.021c0.417-1.677,4.142-15.539,4.745-17.639
		c0.163-0.572,0.346-1.098,0.543-1.61c-3.303,1.029-5.188,3.575-6.299,7.455c-0.594,2.047-4.314,15.906-4.739,17.601
		C55.305,330.019,57.567,333.923,61.769,334.942"/>
	<path fill="none" stroke="#63727A" stroke-width="0.288" d="M61.769,334.942h25.934c0.25-0.857,0.87-2.958,1.282-4.341
		c-2.279,0-18.268,0.01-18.268,0.01c-2.969,0.006-5.486-1.115-7.082-3.169c-1.656-2.116-2.145-4.966-1.377-8.021
		c0.417-1.677,4.142-15.539,4.745-17.639c0.163-0.572,0.346-1.098,0.543-1.61c-3.303,1.029-5.188,3.575-6.299,7.455
		c-0.594,2.047-4.314,15.906-4.739,17.601C55.305,330.019,57.567,333.923,61.769,334.942z"/>
	<path d="M259.739,311.364c-0.239,0.885-0.821,3.012-1.202,4.387c2.239,0.002,18.494,0.01,18.494,0.01
		c0.722-0.006,1.398,0.063,2.033,0.18l2.451-0.004l1.178-4.593C274.401,311.354,260.722,311.36,259.739,311.364"/>
	<path fill="none" stroke="#63727A" stroke-width="0.288" d="M259.739,311.364c-0.239,0.885-0.821,3.012-1.202,4.387
		c2.239,0.002,18.494,0.01,18.494,0.01c0.722-0.006,1.398,0.063,2.033,0.18l2.451-0.004l1.178-4.593
		C274.401,311.354,260.722,311.36,259.739,311.364z"/>
	<path d="M233.194,334.942h25.936c0.247-0.857,0.876-2.958,1.281-4.341c-2.275,0-18.267,0.01-18.267,0.01
		c-2.971,0.006-5.481-1.115-7.08-3.169c-1.657-2.116-2.148-4.966-1.38-8.021c0.453-1.8,4.174-15.644,4.748-17.639
		c0.16-0.572,0.344-1.098,0.546-1.61c-3.307,1.023-5.193,3.575-6.308,7.455c-0.585,2.047-4.311,15.906-4.736,17.601
		C226.734,330.019,228.997,333.923,233.194,334.942"/>
	<path fill="none" stroke="#63727A" stroke-width="0.288" d="M233.194,334.942h25.936c0.247-0.857,0.876-2.958,1.281-4.341
		c-2.275,0-18.267,0.01-18.267,0.01c-2.971,0.006-5.481-1.115-7.08-3.169c-1.657-2.116-2.148-4.966-1.38-8.021
		c0.453-1.8,4.174-15.644,4.748-17.639c0.16-0.572,0.344-1.098,0.546-1.61c-3.307,1.023-5.193,3.575-6.308,7.455
		c-0.585,2.047-4.311,15.906-4.736,17.601C226.734,330.019,228.997,333.923,233.194,334.942z"/>
	<path d="M224.693,353.503l3.277-12.011h-4.154l-4.537,16.612l44.93-0.007c3.618,0.017,5.832-2.071,7.248-4.615
		c-0.185,0.013-0.364,0.021-0.555,0.021H224.693z"/>
	<path fill="none" stroke="#63727A" stroke-width="0.288" d="M224.693,353.503l3.277-12.011h-4.154l-4.537,16.612l44.93-0.007
		c3.618,0.017,5.832-2.071,7.248-4.615c-0.185,0.013-0.364,0.021-0.555,0.021H224.693z"/>
	<path d="M163.212,289.067h-15.244c-1.338-0.007-2.459-0.505-3.237-1.437c-1.108-1.338-1.252-3.265-1.056-4.312l3.033-10.656
		c0,0,0.224-0.799,0.213-0.752c0.101-0.47,0.32-1.05,0.667-1.65c-2.478,1.336-2.884,3.415-2.937,3.834
		c-0.016,0.062-3.235,11.384-3.235,11.384c-0.046,0.258-0.075,0.552-0.075,0.879c0,1.058,0.282,2.416,1.13,3.438
		c0.778,0.931,1.895,1.424,3.24,1.43l15.234,0.006c2.354,0,3.968-1.317,4.914-2.842
		C165.105,288.793,164.232,289.067,163.212,289.067"/>
	<path fill="none" stroke="#63727A" stroke-width="0.288" d="M163.212,289.067h-15.244c-1.338-0.007-2.459-0.505-3.237-1.437
		c-1.108-1.338-1.252-3.265-1.056-4.312l3.033-10.656c0,0,0.224-0.799,0.213-0.752c0.101-0.47,0.32-1.05,0.667-1.65
		c-2.478,1.336-2.884,3.415-2.937,3.834c-0.016,0.062-3.235,11.384-3.235,11.384c-0.046,0.258-0.075,0.552-0.075,0.879
		c0,1.058,0.282,2.416,1.13,3.438c0.778,0.931,1.895,1.424,3.24,1.43l15.234,0.006c2.354,0,3.968-1.317,4.914-2.842
		C165.105,288.793,164.232,289.067,163.212,289.067z"/>
	<path d="M159.157,281.935c0.256-0.893,1.838-6.38,2.275-7.882h-4.637c-0.084,0.305-0.325,1.141-0.618,2.17h2.99
		c-0.286,0.982-1.071,3.717-1.647,5.712H159.157z"/>
	<path fill="none" stroke="#63727A" stroke-width="0.288" d="M159.157,281.935c0.256-0.893,1.838-6.38,2.275-7.882h-4.637
		c-0.084,0.305-0.325,1.141-0.618,2.17h2.99c-0.286,0.982-1.071,3.717-1.647,5.712H159.157z"/>
	<path d="M125.792,274.053c0.171-0.586,0.882-3.058,1.42-4.913h-1.643c0,0-0.802,2.799-1.408,4.907
		C124.841,274.047,125.452,274.047,125.792,274.053"/>
	<path fill="none" stroke="#63727A" stroke-width="0.288" d="M125.792,274.053c0.171-0.586,0.882-3.058,1.42-4.913h-1.643
		c0,0-0.802,2.799-1.408,4.907C124.841,274.047,125.452,274.047,125.792,274.053z"/>
	<path d="M121.448,289.045c0,0,1.604-5.604,2.031-7.088c-1.218,0.005-3.304,0.005-4.061,0.009c-0.091,0.314-0.334,1.158-0.619,2.161
		c0.824-0.004,1.746-0.004,2.415-0.004c-0.423,1.479-2.026,7.091-2.026,7.091h10.256l0.63-2.169H121.448z"/>
	<path fill="none" stroke="#63727A" stroke-width="0.288" d="M121.448,289.045c0,0,1.604-5.604,2.031-7.088
		c-1.218,0.005-3.304,0.005-4.061,0.009c-0.091,0.314-0.334,1.158-0.619,2.161c0.824-0.004,1.746-0.004,2.415-0.004
		c-0.423,1.479-2.026,7.091-2.026,7.091h10.256l0.63-2.169H121.448z"/>
	<path d="M106.986,289.045l5.768-19.905h-1.637l-6.397,22.074h10.406c0,0,0.274-0.96,0.62-2.169H106.986z"/>
	<path fill="none" stroke="#63727A" stroke-width="0.288" d="M106.986,289.045l5.768-19.905h-1.637l-6.397,22.074h10.406
		c0,0,0.274-0.96,0.62-2.169H106.986z"/>
	<path d="M190.687,281.141c-0.089,0.294-0.123,0.416-0.24,0.811c1.351,0.006,7.976,0.011,11.056,0.011l0.227-0.821
		C198.483,281.141,191.505,281.141,190.687,281.141"/>
	<path fill="none" stroke="#63727A" stroke-width="0.288" d="M190.687,281.141c-0.089,0.294-0.123,0.416-0.24,0.811
		c1.351,0.006,7.976,0.011,11.056,0.011l0.227-0.821C198.483,281.141,191.505,281.141,190.687,281.141z"/>
	<path d="M192.695,274.053c-0.102,0.368-0.148,0.566-0.281,1.064c1.304-0.004,7.801-0.004,10.956-0.004l0.32-1.068
		C200.492,274.047,193.537,274.053,192.695,274.053"/>
	<path fill="none" stroke="#63727A" stroke-width="0.288" d="M192.695,274.053c-0.102,0.368-0.148,0.566-0.281,1.064
		c1.304-0.004,7.801-0.004,10.956-0.004l0.32-1.068C200.492,274.047,193.537,274.053,192.695,274.053z"/>
	<polygon points="177.869,289.045 183.601,269.14 181.962,269.14 175.599,291.214 198.783,291.214 199.399,289.045 	"/>
	<polygon fill="none" stroke="#63727A" stroke-width="0.288" points="177.869,289.045 183.601,269.14 181.962,269.14 
		175.599,291.214 198.783,291.214 199.399,289.045 	"/>
	<polygon points="246.055,289.045 251.719,269.14 250.072,269.14 243.794,291.214 254.182,291.214 254.807,289.045 	"/>
	<polygon fill="none" stroke="#63727A" stroke-width="0.288" points="246.055,289.045 251.719,269.14 250.072,269.14 
		243.794,291.214 254.182,291.214 254.807,289.045 	"/>
	<path d="M283.707,289.045c0,0-1.126-3.665-1.626-5.287c-0.501,0.563-1.343,1.501-2.18,2.441c0.533,1.726,1.54,5.015,1.54,5.015
		l11.051-0.01c0,0-0.376-0.896-0.901-2.159H283.707z"/>
	<path fill="none" stroke="#63727A" stroke-width="0.288" d="M283.707,289.045c0,0-1.126-3.665-1.626-5.287
		c-0.501,0.563-1.343,1.501-2.18,2.441c0.533,1.726,1.54,5.015,1.54,5.015l11.051-0.01c0,0-0.376-0.896-0.901-2.159H283.707z"/>
	<path d="M284.447,271.979c0.582-0.668,1.569-1.812,2.44-2.803l-1.369,0.008c0,0-0.666,0.762-1.472,1.676
		C284.202,271.281,284.334,271.671,284.447,271.979"/>
	<path fill="none" stroke="#63727A" stroke-width="0.288" d="M284.447,271.979c0.582-0.668,1.569-1.812,2.44-2.803l-1.369,0.008
		c0,0-0.666,0.762-1.472,1.676C284.202,271.281,284.334,271.671,284.447,271.979z"/>
	<path d="M264.526,289.045c0,0,10.658-11.102,11.318-11.795c-0.242-0.586-2.145-5.278-3.299-8.11h-3.133
		c0,0,3.421,8.602,3.752,9.445c-0.646,0.686-11.97,12.629-11.97,12.629h13.899c0,0,0.89-1.003,1.928-2.169H264.526z"/>
	<path fill="none" stroke="#63727A" stroke-width="0.288" d="M264.526,289.045c0,0,10.658-11.102,11.318-11.795
		c-0.242-0.586-2.145-5.278-3.299-8.11h-3.133c0,0,3.421,8.602,3.752,9.445c-0.646,0.686-11.97,12.629-11.97,12.629h13.899
		c0,0,0.89-1.003,1.928-2.169H264.526z"/>
	<path d="M210.517,289.067l5.702-19.96h-1.646l-0.16,0.567l-6.161,21.556h10.544c0,0,0.248-0.864,0.621-2.163H210.517z"/>
	<path fill="none" stroke="#63727A" stroke-width="0.288" d="M210.517,289.067l5.702-19.96h-1.646l-0.16,0.567l-6.161,21.556h10.544
		c0,0,0.248-0.864,0.621-2.163H210.517z"/>
	<path d="M223.81,289.067c0,0,3.791-13.096,4.291-14.847c-0.999-0.004-2.122-0.004-2.767-0.004
		c-0.068,0.225-0.305,1.035-0.623,2.167c0.371,0,0.759,0,1.123,0.003c-0.5,1.748-4.29,14.838-4.29,14.838l10.472,0.01l0.618-2.163
		L223.81,289.067z"/>
	<path fill="none" stroke="#63727A" stroke-width="0.288" d="M223.81,289.067c0,0,3.791-13.096,4.291-14.847
		c-0.999-0.004-2.122-0.004-2.767-0.004c-0.068,0.225-0.305,1.035-0.623,2.167c0.371,0,0.759,0,1.123,0.003
		c-0.5,1.748-4.29,14.838-4.29,14.838l10.472,0.01l0.618-2.163L223.81,289.067z"/>
	<path d="M71.272,289.045l5.733-19.922H75.37l-0.166,0.57l-6.197,21.521h10.269c0,0,0.313-1.048,0.657-2.169H71.272z"/>
	<path fill="none" stroke="#63727A" stroke-width="0.288" d="M71.272,289.045l5.733-19.922H75.37l-0.166,0.57l-6.197,21.521h10.269
		c0,0,0.313-1.048,0.657-2.169H71.272z"/>
	<path d="M91.306,277.203c0.19-0.668,0.596-2.079,0.897-3.132h-6.298c-0.136,0.479-0.377,1.33-0.616,2.162h4.649
		c-0.085,0.302-0.18,0.639-0.278,0.97H91.306z"/>
	<path fill="none" stroke="#63727A" stroke-width="0.288" d="M91.306,277.203c0.19-0.668,0.596-2.079,0.897-3.132h-6.298
		c-0.136,0.479-0.377,1.33-0.616,2.162h4.649c-0.085,0.302-0.18,0.639-0.278,0.97H91.306z"/>
	<path d="M92.754,284.327h-5.479c0,0-3.403-0.01-4.304-0.01c-0.112,0.369-0.382,1.256-0.657,2.169c1.241,0,2.663,0.007,2.663,0.007
		h5.515c3.725-0.062,5.392-0.967,6.646-2.995C96.081,284.031,94.703,284.297,92.754,284.327"/>
	<path fill="none" stroke="#63727A" stroke-width="0.288" d="M92.754,284.327h-5.479c0,0-3.403-0.01-4.304-0.01
		c-0.112,0.369-0.382,1.256-0.657,2.169c1.241,0,2.663,0.007,2.663,0.007h5.515c3.725-0.062,5.392-0.967,6.646-2.995
		C96.081,284.031,94.703,284.297,92.754,284.327z"/>
	<path fill="#FFFFFF" d="M229.048,310.232c0,0-9.548,35.473-10.979,40.782c-1.293,0-15.397-0.019-17.54-0.022
		c0.635-2.32,11.376-41.765,11.376-41.765l-11.798-0.028c0,0-10.95,40.397-11.329,41.793h-17.707
		c0.631-2.333,14.682-54.452,15.058-55.829c1.434,0,36.751-0.032,36.751-0.032h0.004c2.134,0,3.805,0.756,4.953,2.26
		c1.386,1.804,1.936,4.517,1.936,7.261C229.773,306.6,229.495,308.565,229.048,310.232"/>
	<path fill="#FFFFFF" d="M160.897,350.902c-1.436,0.006-36.751,0.039-36.751,0.039c-2.14,0-3.809-0.765-4.959-2.266
		c-1.383-1.804-1.928-4.511-1.928-7.259c0-1.947,0.278-3.917,0.723-5.588c0-0.006,9.542-35.466,10.97-40.776
		c1.293,0.007,15.402,0.024,17.545,0.024c-0.635,2.321-11.369,41.762-11.369,41.762l11.797,0.034c0,0,10.944-40.404,11.322-41.796
		h17.71C175.324,297.406,161.273,349.529,160.897,350.902"/>
	<path fill="#FFFFFF" d="M111.111,329.442c-0.564,2.312-3.106,12.334-3.885,14.768c-1.578,4.958-4.109,7.356-7.746,7.342
		c-0.003,0-36.371,0.005-43.659,0.005c0.55-2.023,3.675-13.449,4.005-14.659h29.335l2.438-8.256l-20.886,0.022
		c-2.353,0-4.319-0.855-5.542-2.425c-0.87-1.109-1.315-2.513-1.315-4.071c0-0.726,0.099-1.494,0.298-2.27
		c0.418-1.672,4.124-15.482,4.725-17.574c1.456-5.061,4.134-7.225,8.957-7.249h41.86c-0.511,1.98-3.356,13.082-3.672,14.315
		c-1.438,0-29.197,0.017-29.197,0.017l-2.278,8.299l21.063,0.012c2.137-0.012,3.724,0.628,4.729,1.896
		C112.533,322.396,111.61,327.412,111.111,329.442"/>
	<path fill="#FFFFFF" d="M277.033,317.718c2.141-0.012,3.732,0.626,4.728,1.896c2.2,2.782,1.277,7.798,0.778,9.833
		c-0.682,2.782-3.148,12.462-3.885,14.763c-1.578,4.958-4.109,7.356-7.75,7.342c0,0-36.373,0.005-43.658,0.005
		c0.555-2.023,3.677-13.449,4.008-14.659h29.334l2.437-8.256l-20.882,0.022c-2.351,0-4.317-0.857-5.538-2.421
		c-0.869-1.113-1.318-2.517-1.318-4.075c0-0.729,0.096-1.494,0.296-2.266c0.441-1.796,4.153-15.595,4.724-17.582
		c1.456-5.057,4.133-7.216,8.953-7.245h41.866c-0.512,1.98-3.357,13.082-3.672,14.315c-1.442,0-29.199,0.022-29.199,0.022
		l-2.276,8.293L277.033,317.718z"/>
	<path fill="#FFFFFF" d="M130.521,287.468h-6.977c0.423-1.483,2.033-7.094,2.033-7.094l-7.352,0.021c0,0-1.75,6.104-2.028,7.073
		h-7.11c0.513-1.773,5.179-17.899,5.476-18.921h7.066c-0.435,1.487-2.075,7.063-2.075,7.063l7.425,0.02c0,0,1.769-6.112,2.04-7.083
		h6.978C135.483,270.32,130.819,286.444,130.521,287.468"/>
	<path fill="#FFFFFF" d="M204.127,272.464c-1.066,0-12.646,0.012-12.646,0.012l-1.125,4.226c0,0,10.888-0.011,12.642-0.011
		c-0.277,1.001-0.623,2.223-0.81,2.871c-1.083,0-12.681,0.004-12.681,0.004l-1.171,3.963c0,0,10.888,0.011,12.65,0.011
		c-0.337,1.17-0.923,3.197-1.13,3.929h-19.893c0.511-1.771,5.153-17.893,5.449-18.919h19.908
		C204.958,269.736,204.346,271.751,204.127,272.464"/>
	<path fill="#FFFFFF" d="M255.252,287.468h-7.109c0.502-1.766,5.09-17.885,5.383-18.921h7.18
		C260.196,270.32,255.552,286.439,255.252,287.468"/>
	<path fill="#FFFFFF" d="M292.389,287.461c-1.668,0-6.631,0.007-7.515,0.007c-0.288-0.924-2.105-6.849-2.105-6.849
		s-5.692,6.368-6.124,6.849h-8.413c1.97-2.052,9.463-9.857,9.463-9.857s-2.986-7.349-3.682-9.062h7.545
		c0.305,0.871,2.298,6.508,2.298,6.508l0.89-1.02c0,0,4.356-5,4.781-5.49c0.554,0,6.235,0,8.75,0.002
		c-2.075,2.056-9.723,9.647-9.723,9.647S291.674,285.741,292.389,287.461"/>
	<path fill="#FFFFFF" d="M237.138,273.317c0,0.009-3.282,11.486-4.047,14.177c-0.904,0-5.682-0.006-7.183-0.011
		c0.505-1.746,4.291-14.83,4.291-14.83l-6.049-0.024c0,0-3.974,13.799-4.279,14.854h-7.266c0.507-1.769,5.133-17.939,5.421-18.967
		c1.108,0.004,16.553,0.004,16.553,0.004c1.023,0,1.741,0.299,2.199,0.905c0.426,0.565,0.599,1.367,0.599,2.176
		C237.377,272.196,237.281,272.799,237.138,273.317"/>
	<path fill="#FFFFFF" d="M100.622,272.239c-0.084,1.899-1.019,4.968-1.662,6.464c-1.258,2.939-2.07,3.978-6.236,4.047h-5.44
		l-5.488-0.01l-0.164,0.56c0,0-1.004,3.297-1.266,4.166h-6.996c0.507-1.77,5.154-17.905,5.446-18.935
		c1.117,0.006,18.351,0.012,18.351,0.012c1.18,0,2.062,0.303,2.632,0.899c0.668,0.7,0.826,1.706,0.826,2.517
		C100.626,272.055,100.624,272.145,100.622,272.239 M84.716,272.49l-1.795,6.29h9.574l1.799-6.29h-1.045H84.716z"/>
	<path fill="#FFFFFF" d="M155.607,272.476l-3.157,11.036h7.889l3.187-11.036h-1.05H155.607z M170.703,272.688l-3.307,11.343
		c-0.468,1.598-1.837,3.455-4.183,3.455h-15.244c-0.875-0.003-1.541-0.291-2.02-0.867c-0.605-0.735-0.778-1.748-0.778-2.433
		c0-0.204,0.018-0.38,0.04-0.509c0.004,0,3.014-10.589,3.014-10.589l0.224-0.795c0.05-0.198,0.904-3.773,5.178-3.773l14.516,0.022
		c0.887,0,1.537,0.288,1.979,0.877c0.517,0.668,0.677,1.622,0.677,2.372C170.797,272.155,170.757,272.472,170.703,272.688"/>
	<path fill="#3E2680" d="M156.436,39.896c-12.766,0-25.631,10.165-28.579,22.595l-20.198,81.082L78.286,259.836H236.68v-0.015
		h40.994c12.766,0,25.631-9.91,28.579-22.338L353,39.73L156.436,39.896z"/>
	<path fill="none" stroke="#63727A" stroke-width="0.288" d="M156.436,39.896c-12.766,0-25.631,10.165-28.579,22.595l-20.198,81.082
		L78.286,259.836H236.68v-0.015h40.994c12.766,0,25.631-9.91,28.579-22.338L353,39.73L156.436,39.896z"/>
</g>
<g>
	<defs>
		<path id="SVGID_3_" d="M156.434,39.896c-12.767,0-25.632,10.165-28.577,22.597l-20.198,81.08L78.288,259.834H236.68v-0.011h40.998
			c12.762,0,25.627-9.908,28.575-22.34L353,39.728L156.434,39.896z"/>
	</defs>
	<clipPath id="SVGID_4_">
		<use xlink:href="#SVGID_3_"  overflow="visible"/>
	</clipPath>
	<polygon clip-path="url(#SVGID_4_)" points="299.647,144.738 328.711,124.42 333.766,115.91 296.343,117.693 292.457,90.028 
		318.937,65.582 311.478,66.056 269.362,80.358 263.719,44.165 258.149,48.214 238.481,79.629 225.171,87.69 203.295,51.816 
		199.064,65.58 201.181,91.198 201.377,101.734 200.993,102.274 170.038,88.896 173.919,103.953 187.798,121.354 166.65,120.346 
		171.633,129.528 182.964,134.456 93.861,199.094 109.612,193.065 164.556,156.182 93.919,217.261 86.996,225.808 182.276,156.045 
		177.996,165.814 89.452,246.946 79.882,259.393 179.54,185.093 189.306,186.203 127.73,244.924 117.294,259.398 208.084,189.326 
		224.597,185.35 155.314,244.527 144.117,259.454 243.106,188.261 259.799,214.674 275.31,223.979 280.285,175.236 312.485,175.326 
		321.529,169.924 	"/>
	<polygon clip-path="url(#SVGID_4_)" fill="none" stroke="#3E2680" stroke-width="0.288" points="299.647,144.738 328.711,124.42 
		333.766,115.91 296.343,117.693 292.457,90.028 318.937,65.582 311.478,66.056 269.362,80.358 263.719,44.165 258.149,48.214 
		238.481,79.629 225.171,87.69 203.295,51.816 199.064,65.58 201.181,91.198 201.377,101.734 200.993,102.274 170.038,88.896 
		173.919,103.953 187.798,121.354 166.65,120.346 171.633,129.528 182.964,134.456 93.861,199.094 109.612,193.065 164.556,156.182 
		93.919,217.261 86.996,225.808 182.276,156.045 177.996,165.814 89.452,246.946 79.882,259.393 179.54,185.093 189.306,186.203 
		127.73,244.924 117.294,259.398 208.084,189.326 224.597,185.35 155.314,244.527 144.117,259.454 243.106,188.261 259.799,214.674 
		275.31,223.979 280.285,175.236 312.485,175.326 321.529,169.924 	"/>
	<polygon clip-path="url(#SVGID_4_)" fill="#F9A01B" points="333.766,115.908 301.012,104.226 318.937,65.584 278.673,80.928 
		263.719,44.164 245.364,73.583 203.293,51.813 206.425,91.598 170.035,88.897 189.122,112.933 166.646,120.347 181.047,127.074 
		93.858,199.092 190.92,135.033 87,225.808 181.551,167.597 79.88,259.393 194.854,186.801 117.296,259.402 230.577,186.665 
		144.117,259.452 254.051,191.856 275.31,223.981 292.899,169.894 321.532,169.925 307.519,135.287 	"/>
	<polygon clip-path="url(#SVGID_4_)" fill="none" stroke="#F9A01B" stroke-width="0.288" points="333.766,115.908 301.012,104.226 
		318.937,65.584 278.673,80.928 263.719,44.164 245.364,73.583 203.293,51.813 206.425,91.598 170.035,88.897 189.122,112.933 
		166.646,120.347 181.047,127.074 93.858,199.092 190.92,135.033 87,225.808 181.551,167.597 79.88,259.393 194.854,186.801 
		117.296,259.402 230.577,186.665 144.117,259.452 254.051,191.856 275.31,223.981 292.899,169.894 321.532,169.925 
		307.519,135.287 	"/>
</g>
<g>
	<defs>
		<path id="SVGID_5_" d="M192.956,127.797c0,33.216,26.941,60.15,60.147,60.15c33.228,0,60.16-26.935,60.16-60.15
			c0-33.223-26.933-60.155-60.16-60.155C219.897,67.642,192.956,94.574,192.956,127.797"/>
	</defs>
	<clipPath id="SVGID_6_">
		<use xlink:href="#SVGID_5_"  overflow="visible"/>
	</clipPath>
	<path clip-path="url(#SVGID_6_)" fill="#BF2F38" d="M253.084,190.319c34.553,0,62.557-28.009,62.557-62.557
		c0-34.543-28.004-62.559-62.557-62.559c-34.541,0-62.552,28.016-62.552,62.559C190.532,162.31,218.543,190.319,253.084,190.319"/>
	<path clip-path="url(#SVGID_6_)" fill="#E56020" d="M252.996,173.3c28.701,6.126,56.939-12.178,63.054-40.884
		c6.135-28.703-12.166-56.937-40.872-63.063c-28.697-6.125-56.933,12.179-63.062,40.882
		C205.998,138.934,224.3,167.171,252.996,173.3"/>
	<path clip-path="url(#SVGID_6_)" fill="none" stroke="#E56020" stroke-width="0.208" d="M252.996,173.3
		c28.701,6.126,56.939-12.178,63.054-40.884c6.135-28.703-12.166-56.937-40.872-63.063c-28.697-6.125-56.933,12.179-63.062,40.882
		C205.998,138.934,224.3,167.171,252.996,173.3z"/>
	<path clip-path="url(#SVGID_6_)" fill="#F9A01B" d="M246.811,70.947c0,0,73.991,6.074,55.827,86.94c0,0,20.218-37.809-6.553-68.574
		C296.085,89.312,277.626,67.51,246.811,70.947"/>
	<path clip-path="url(#SVGID_6_)" fill="none" stroke="#F9A01B" stroke-width="0.288" stroke-linejoin="round" d="M246.811,70.947
		c0,0,73.991,6.074,55.827,86.94c0,0,20.218-37.809-6.553-68.574C296.085,89.312,277.626,67.51,246.811,70.947z"/>
	<path clip-path="url(#SVGID_6_)" fill="#F9A01B" d="M289.215,109.703c-0.286-0.723-0.483-1.171-0.547-1.304
		c-2.686-5.705-5.873-10.558-9.353-14.694c15.226-3.43,26.194-1.782,26.369-1.771l-1.285-3.918
		c-0.809-0.048-11.987-1.612-28.091,2.353c-4.162-4.273-8.639-7.652-13.14-10.329c2.516-2.861,4.512-6.683,5.295-11.79l-3.258,0.089
		c0,0-0.487,5.491-4.731,10.181c-16.372-8.742-32.247-8.603-33.211-8.677l-1.03,2.688c0.812,0.065,18.051,0.953,30.56,9.089
		c-3.163,2.019-7.488,3.443-13.436,3.443c0,0-28.007,0.891-40.376,8.779l-5.351,8.858c0,0,16.51-14.283,46.743-14.148
		c0,0,8.422-0.213,15.387-5.376c4.056,2.26,8.037,5.059,11.666,8.529c-10.516,3.166-22.703,8.694-35.31,18.288
		c-1.09,0.778-28.528,20.708-37.671,53.959l9.123,8.192c8.469-39.265,33.054-59.324,33.315-59.516
		c11.548-9.485,23.334-14.781,33.629-17.703c3.64,4.143,6.773,9.089,9.07,15.007c-4.439,0.527-19.637,4.083-28.523,28.103
		c-0.06,0.174-8.19,26.586-8.19,26.586c-0.252,0.974-5.042,21.657-22.475,21.837l0.079,6.792
		c23.584,3.693,26.768-9.755,31.117-25.745c2.848-12.258,6.498-27.402,6.498-27.402c4.605-21.93,19.062-25.451,22.88-25.997
		c2.905,10.458,7.925,39.274-10.174,70.406l9.06,4.08c1.312-2.036,3.714-4.135,4.773-6.204c11.972-29.305,5.972-56.3,2.112-68.353
		c15.096,1.591,23.765,17.237,24.101,17.908l4.583-0.757C319.001,130.327,309.725,110.432,289.215,109.703"/>
	<path clip-path="url(#SVGID_6_)" fill="none" stroke="#F9A01B" stroke-width="0.288" d="M289.215,109.703
		c-0.286-0.723-0.483-1.171-0.547-1.304c-2.686-5.705-5.873-10.558-9.353-14.694c15.226-3.43,26.194-1.782,26.369-1.771
		l-1.285-3.918c-0.809-0.048-11.987-1.612-28.091,2.353c-4.162-4.273-8.639-7.652-13.14-10.329c2.516-2.861,4.512-6.683,5.295-11.79
		l-3.258,0.089c0,0-0.487,5.491-4.731,10.181c-16.372-8.742-32.247-8.603-33.211-8.677l-1.03,2.688
		c0.812,0.065,18.051,0.953,30.56,9.089c-3.163,2.019-7.488,3.443-13.436,3.443c0,0-28.007,0.891-40.376,8.779l-5.351,8.858
		c0,0,16.51-14.283,46.743-14.148c0,0,8.422-0.213,15.387-5.376c4.056,2.26,8.037,5.059,11.666,8.529
		c-10.516,3.166-22.703,8.694-35.31,18.288c-1.09,0.778-28.528,20.708-37.671,53.959l9.123,8.192
		c8.469-39.265,33.054-59.324,33.315-59.516c11.548-9.485,23.334-14.781,33.629-17.703c3.64,4.143,6.773,9.089,9.07,15.007
		c-4.439,0.527-19.637,4.083-28.523,28.103c-0.06,0.174-8.19,26.586-8.19,26.586c-0.252,0.974-5.042,21.657-22.475,21.837
		l0.079,6.792c23.584,3.693,26.768-9.755,31.117-25.745c2.848-12.258,6.498-27.402,6.498-27.402
		c4.605-21.93,19.062-25.451,22.88-25.997c2.905,10.458,7.925,39.274-10.174,70.406l9.06,4.08c1.312-2.036,3.714-4.135,4.773-6.204
		c11.972-29.305,5.972-56.3,2.112-68.353c15.096,1.591,23.765,17.237,24.101,17.908l4.583-0.757
		C319.001,130.327,309.725,110.432,289.215,109.703z"/>
	<path clip-path="url(#SVGID_6_)" fill="#FFFFFF" d="M263.146,65.661c-0.043,0.437-0.245,2.751-0.245,2.751
		c-0.012-0.028-0.203,1.133-0.203,1.133c-0.85,3.552-3.677,6.668-5.911,8.674l-0.186,0.171l-0.24-0.109
		c-9.305-4.39-20.299-6.89-30.964-7.029c0,0-0.117,0-0.233-0.003c-0.112,0.374-0.474,1.519-0.662,2.104
		c4.675,0.287,16.262,1.542,28.262,6.994l0.912,0.411l-0.942,0.32c-2.756,0.932-6.039,1.323-9.775,1.167
		c-4.181-0.516-35.894-1.102-47.335,10.794c0.358,0.506,3.438,4.759,3.868,5.354c0.462-0.415,1.484-1.331,1.484-1.331
		c0.693-0.456,16.637-10.722,42.539-10.462c0.078,0.003,7.422,0.201,13.806-3.743l0.202-0.123l0.201,0.112
		c4.125,2.305,7.872,5.004,11.128,8.019l0.498,0.464l-0.646,0.203c-9.376,2.962-15.604,6.411-15.668,6.444
		c-11.623,6.174-14.978,8.721-22.94,15.172c0,0.004-0.999,1.047-0.999,1.047l-0.222,0.237c-8.919,7.979-24.769,24.836-31.369,48.496
		c0.487,0.29,7.278,4.285,8.059,4.746c0.916-3.921,2.069-7.87,3.471-11.748c1.137-3.075,2.479-6.289,3.979-9.547
		c10.775-22.689,26.089-34.815,26.235-34.917c10.07-7.998,20.962-13.896,32.341-17.525l0.24-0.08l0.169,0.191
		c3.797,4.175,6.848,8.953,9.07,14.197l0.179,0.426l-0.452,0.112c-2.122,0.513-4.251,1.328-6.329,2.423
		c-16.188,8.099-20.882,28.396-20.93,28.602c-0.014,0.037-7.309,22.134-7.309,22.134c-0.988,3.662-6.633,21.52-22.903,21.639
		c-0.017,0.603-0.112,4.049-0.131,4.595c0.584,0.11,4.805,0.933,4.805,0.933c5.3,1.094,7.956,1.64,11.143-0.163l0.123-0.074
		l0.145,0.026c0.349,0.062,2.265-0.289,3.831-1.983c0.147-0.1,2.988-1.583,6.459-10.142c1.396-3.286,2.516-7.1,3.705-11.138
		l0.197-0.693c0-0.005,0.896-4.123,0.896-4.123c0.021-0.065,0.096-0.394,0.096-0.394c2.398-10.47,5.926-22.972,5.966-23.098
		c-0.005,0.011,0.413-1.528,0.413-1.528l0.054-0.177c1.108-3.348,2.183-6.043,3.179-8.012c5.54-10.513,13.705-13.857,18.08-14.92
		l0.367-0.085l0.102,0.363c1.13,3.985,3.119,12.606,3.119,23.88c0,13.452-2.826,30.683-13.304,48.338
		c-0.029,0.039-6.424,7.886-8.924,10.953c2.54-1.127,17.127-7.597,17.334-7.69c9.25-14.481,12.013-30.068,12.013-43.514
		c0-14.775-3.329-26.962-5.047-32.248l-0.173-0.536l0.559,0.019c16.45,0.48,25.548,15.025,26.64,16.892
		c0.301,0.027,2.5,0.245,3.438,0.338c-0.842-1.744-2.713-5.238-5.921-9.019c-4.119-5.177-9.268-8.779-15.333-10.728
		c-2.052-0.679-4.188-1.14-6.355-1.367l-4.575-0.223l-0.128-0.209c-2.648-5.466-5.921-10.414-9.731-14.708l-0.429-0.481l0.626-0.16
		c13.632-3.509,23.642-2.741,27.046-2.304c-0.257-0.757-0.797-2.325-0.915-2.669c-0.026,0-0.074-0.005-0.074-0.005l-5.458-0.305
		c-7.44-0.219-15.322,0.748-23.438,2.862l-0.219,0.057l-0.161-0.156c-3.672-3.58-7.839-6.711-12.374-9.31l-0.437-0.25l1.201-1.258
		c2.412-2.625,3.994-5.996,4.72-10.019c0.277-1.542,0.386-3.233,0.42-4.976C266.026,64.512,263.491,65.522,263.146,65.661"/>
	<path clip-path="url(#SVGID_6_)" d="M312.779,120.131v-0.009c-4.809-6.058-10.456-9.217-15.504-10.838
		c-1.997-0.661-4.137-1.141-6.432-1.381c-1.713-0.2-3.199-0.237-4.401-0.216c-2.806-5.801-6.137-10.686-9.787-14.797
		c16.14-4.15,27.351-2.227,27.53-2.216l-1.203-3.504c-0.33-0.019-2.403-0.29-5.818-0.335l-0.012-0.016
		c-8.525-0.237-16.637,1.094-23.535,2.89c-3.965-3.861-8.196-6.931-12.455-9.368c0.294-0.292,0.585-0.592,0.861-0.906
		c2.838-3.093,4.199-6.792,4.811-10.214l0.005-0.003c0.37-2.043,0.478-3.989,0.478-5.639l-4.544,1.804
		c-0.021,0.84-0.096,1.857-0.262,2.971l-0.015-0.002c-0.033,0.371-0.097,0.736-0.182,1.099c-0.003,0.039-0.011,0.078-0.022,0.118
		c-0.8,3.322-3.532,6.344-5.761,8.355c-15.833-7.473-30.719-7.004-31.65-7.075l-0.907,2.865c0.778,0.065,14.411,0.533,28.63,6.994
		c-2.531,0.856-5.681,1.312-9.631,1.143c-5.126-0.633-36.617-1.011-47.89,11.125l4.344,6.003c0.512-0.549,1.118-1.083,1.791-1.604
		c0.292-0.195,16.175-10.641,42.294-10.378c0,0,7.445,0.253,14.017-3.807c3.831,2.137,7.589,4.759,11.056,7.967
		c-9.531,3.013-15.74,6.479-15.74,6.479c-11.443,6.077-14.763,8.54-22.999,15.208c-0.431,0.433-0.837,0.878-1.256,1.318
		c-8.884,7.952-24.968,24.988-31.555,48.95l8.784,5.168c0.973-4.304,2.196-8.369,3.585-12.214c1.334-3.619,2.78-6.941,3.966-9.523
		c10.645-22.405,25.896-34.607,26.108-34.755c11.396-9.045,22.512-14.375,32.232-17.473c3.544,3.908,6.648,8.553,8.996,14.09
		c-1.765,0.426-3.976,1.165-6.423,2.458c-16.553,8.275-21.133,28.86-21.133,28.86c-2.471,7.485-7.301,22.1-7.301,22.1
		c-0.27,0.969-5.47,21.554-22.909,21.382l-0.149,5.293c8.996,1.603,12.312,3.193,16.542,0.789c0.538,0.097,2.574-0.341,4.194-2.098
		c0,0,2.927-1.373,6.537-10.265c1.483-3.481,2.638-7.517,3.92-11.865c0.269-1.314,0.575-2.712,0.9-4.15
		c0.032-0.13,0.059-0.256,0.091-0.39c0,0,0.005-0.033,0.017-0.086c2.408-10.498,5.941-22.993,5.941-22.993
		c0.145-0.583,0.304-1.138,0.459-1.688c1.019-3.059,2.089-5.842,3.16-7.959c5.519-10.468,13.739-13.726,17.818-14.713
		c2.741,9.662,8.632,40.269-10.142,71.911l-9.938,12.181l18.962-8.41c19.147-29.87,10.9-64.379,7.067-76.189
		c16.788,0.487,26.071,16.167,26.405,16.869l4.346,0.428C318.887,129.462,316.891,124.968,312.779,120.131"/>
</g>
<g>
	<defs>
		<path id="SVGID_7_" d="M291.151,175.27l21.334,0.058l9.05-5.401l-28.636-0.031L291.151,175.27z M214.621,57.625l28.404,14.752
			l2.336,1.208l18.36-29.421L214.621,57.625z"/>
	</defs>
	<clipPath id="SVGID_8_">
		<use xlink:href="#SVGID_7_"  overflow="visible"/>
	</clipPath>
	<path clip-path="url(#SVGID_8_)" fill="none" stroke="#BF2F38" stroke-width="0.288" d="M253.108,187.944
		c-33.213,0-60.152-26.932-60.152-60.15c0-33.223,26.939-60.15,60.152-60.15c33.223,0,60.159,26.928,60.159,60.15
		C313.268,161.013,286.331,187.944,253.108,187.944z"/>
</g>
<g>
	<defs>
		<polygon id="SVGID_9_" points="245.361,73.586 203.295,51.813 206.425,91.601 170.04,88.896 189.125,112.933 166.647,120.346 
			181.045,127.074 93.861,199.094 190.92,135.033 86.997,225.808 181.554,167.597 79.879,259.393 194.857,186.8 117.291,259.398 
			230.577,186.665 144.117,259.454 254.053,191.857 275.31,223.979 292.899,169.896 321.535,169.927 307.516,135.288 
			333.769,115.907 301.012,104.231 318.939,65.582 278.67,80.926 263.722,44.165 		"/>
	</defs>
	<clipPath id="SVGID_10_">
		<use xlink:href="#SVGID_9_"  overflow="visible"/>
	</clipPath>
	<path clip-path="url(#SVGID_10_)" fill="none" stroke="#F9A01B" stroke-width="0.288" d="M253.108,187.944
		c-33.213,0-60.152-26.932-60.152-60.15c0-33.223,26.939-60.15,60.152-60.15c33.223,0,60.159,26.928,60.159,60.15
		C313.268,161.013,286.331,187.944,253.108,187.944z"/>
</g>
</svg>
