<?xml version="1.0" encoding="utf-8"?>
<!-- Generator: Adobe Illustrator 16.2.1, SVG Export Plug-In . SVG Version: 6.00 Build 0)  -->
<!DOCTYPE svg PUBLIC "-//W3C//DTD SVG 1.1//EN" "http://www.w3.org/Graphics/SVG/1.1/DTD/svg11.dtd">
<svg version="1.1" id="Layer_2" xmlns="http://www.w3.org/2000/svg" xmlns:xlink="http://www.w3.org/1999/xlink" x="0px" y="0px"
	 width="400px" height="400px" viewBox="0 0 400 400" enable-background="new 0 0 400 400" xml:space="preserve">
<g>
	<path fill="#FFFFFF" d="M345.559,75.097c0-1.227-0.52-2.429-1.49-3.295c-1.474-1.305-3.582-1.486-5.254-0.451
		c-6.705,4.14-25.363,21.741-38.988,34.595c-0.018,0.015-4.465,4.314-5.275,5.095c-1.396-0.593-3.225-1.33-4.486-1.684
		c-4.746-1.187-8.928-1.167-12.018-0.537c2.32-5.444,14.63-34.347,14.63-34.347s-32.255,16.969-36.786,19.349
		c0.496-5.399,5.951-65.021,5.951-65.021s-39.158,48.328-42.732,52.736c-1.551-5.467-18.96-66.95-18.96-66.95
		s-17.511,61.452-19.072,66.917c-3.561-4.413-42.639-52.806-42.639-52.806s5.355,59.633,5.836,65.029
		c-4.514-2.388-36.748-19.411-36.748-19.411s12.261,28.92,14.57,34.37c-3.084-0.634-7.255-0.664-11.97,0.505
		c-1.315,0.367-3.219,1.134-4.54,1.688c-0.808-0.786-5.244-5.088-5.244-5.088c-13.608-12.879-32.247-30.52-38.951-34.676
		c-1.667-1.037-3.784-0.859-5.254,0.442c-0.978,0.867-1.496,2.07-1.496,3.303c0,0.625,0.13,1.258,0.407,1.855
		c3.456,7.504,21.319,32.216,31.948,46.476c-3.864,3.74-6.206,8.086-6.327,12.157c0,0.113,0,0.229,0,0.343
		c0,2.527,0.846,4.745,2.407,6.27c0.004,0.005,1.177,1.137,2.414,2.336c-6.083-0.008-28.537-0.042-28.537-0.042l-0.066,3.083
		c-0.479,21.291-1.062,74.266,3.878,106.257c4.676,30.284,12.377,51.919,25.739,72.352l1.391,2.123l1.337-2.159
		c3.092-4.967,12.854-17.51,27.911-30.145c1.463,1.385,6.015,5.678,7.574,7.146c-1.985,2.253-46.415,52.8-46.415,52.8
		c-1.844,2.075-2.836,4.711-2.836,7.478c0,0.232,0.009,0.473,0.02,0.703c0.184,3.022,1.53,5.788,3.788,7.791
		c4.678,4.14,11.846,3.699,15.984-0.976c0.005,0,39.483-44.646,46.505-52.59c2.144,1.902,27.949,24.824,27.949,24.824l-1.119-12.142
		c-0.091-0.981-0.136-2.02-0.136-3.113c0-2.979,0.442-6.478,1.111-10.226c7.376,9.152,18.429,14.556,30.312,14.565h0.031
		c11.878,0,22.926-5.387,30.31-14.517c0.66,3.729,1.1,7.206,1.1,10.165c0,1.116-0.057,2.178-0.148,3.174
		c0,0.006-1.132,12.145-1.132,12.145s23.688-20.968,27.989-24.782c2.05,2.335,46.412,52.672,46.412,52.672
		c1.996,2.268,4.76,3.622,7.779,3.812c3.022,0.188,5.934-0.813,8.195-2.807c4.686-4.133,5.133-11.299,1.003-15.98l0.002,0.005
		c0,0-44.347-50.624-46.317-52.872c1.554-1.471,6.111-5.754,7.582-7.132c15.037,12.665,24.777,25.221,27.854,30.189l1.34,2.163
		l1.396-2.128c13.396-20.405,21.127-42.024,25.856-72.301c3.536-22.625,4.319-55.749,4.319-80.74c0-10.34-0.133-19.288-0.266-25.519
		l-0.058-3.042l-1.592-0.034c0,0-20.862-0.005-26.947-0.01c1.198-1.151,2.415-2.321,2.415-2.321
		c1.574-1.538,2.425-3.761,2.425-6.294c0-0.109,0-0.214-0.004-0.322c-0.118-4.072-2.448-8.423-6.302-12.168
		c10.656-14.242,28.559-38.922,32.018-46.42C345.423,76.364,345.559,75.727,345.559,75.097 M343.675,76.281
		c-3.46,7.483-21.911,32.879-32.682,47.239c7.585,6.599,8.239,14.203,4.885,17.479l-5.308,5.114l30.966,0.005
		c0,2.003,1.946,69.335-4.009,107.463c-4.527,28.966-11.731,50.522-25.608,71.666c-3.194-5.153-13.426-18.404-29.281-31.522
		l-9.797,9.205l47.359,54.049c3.536,4.013,3.155,10.147-0.851,13.694c-4.017,3.535-10.156,3.152-13.695-0.856l-47.485-53.891
		l-20.08,17.771l-6.058,5.365l0.756-8.061c0.506-5.351-0.325-11.536-1.616-17.453c-6.692,10.163-18.208,16.865-31.291,16.858
		c-13.072-0.015-24.577-6.734-31.257-16.911c-1.305,5.914-2.136,12.101-1.647,17.453l0.74,8.057l-6.045-5.372l-20.046-17.811
		l-47.576,53.811c-3.549,4.004-9.693,4.378-13.693,0.836c-4.003-3.544-4.379-9.691-0.835-13.691l47.448-53.97l-9.779-9.227
		c-15.878,13.096-26.129,26.327-29.333,31.47c-13.837-21.161-21.011-42.731-25.49-71.702c-5.893-38.14-3.828-105.469-3.828-107.468
		l30.967,0.042l-5.292-5.123c-3.36-3.28-2.689-10.881,4.907-17.468c-10.745-14.378-29.155-39.808-32.6-47.292
		c-0.517-1.125-0.234-2.451,0.688-3.268c0.926-0.82,2.283-0.931,3.33-0.281c6.554,4.067,25.124,21.645,38.688,34.479
		c1.901,1.8,4.413,4.325,6.005,5.826c1.979-0.858,4.06-1.688,5.278-2.03c6.756-1.673,12.182-0.789,14.508,0.655l-14.22-33.544
		l35.358,18.679l-5.623-62.685l41.247,51.086l18.367-64.435l18.261,64.467l41.324-51.017l-5.726,62.676l35.39-18.618l-14.279,33.52
		c2.324-1.442,7.755-2.316,14.508-0.633c1.222,0.34,3.303,1.174,5.275,2.038c1.594-1.496,4.117-4.013,6.022-5.813
		c13.574-12.812,32.177-30.354,38.746-34.413c1.042-0.652,2.397-0.533,3.324,0.285C343.909,73.836,344.188,75.163,343.675,76.281"/>
	<path fill="#2E2A25" d="M339.67,72.728c-6.568,4.057-25.169,21.601-38.746,34.414c-1.91,1.799-4.43,4.318-6.021,5.814
		c-1.969-0.865-4.053-1.697-5.274-2.04c-6.755-1.682-12.181-0.807-14.513,0.634l14.281-33.519l-35.389,18.616l5.729-62.677
		l-41.329,51.016l-18.259-64.464l-18.364,64.433l-41.25-51.082l5.627,62.681l-35.362-18.676l14.218,33.542
		c-2.319-1.444-7.747-2.328-14.505-0.655c-1.219,0.343-3.299,1.172-5.278,2.033c-1.592-1.504-4.106-4.029-6.005-5.828
		c-13.563-12.835-32.131-30.412-38.69-34.476c-1.051-0.654-2.403-0.54-3.33,0.278c-0.927,0.82-1.207,2.144-0.685,3.269
		c3.446,7.486,21.85,32.912,32.598,47.292c-7.592,6.586-8.267,14.19-4.912,17.468l5.294,5.125L58.54,145.88
		c-0.005,2.003-2.063,69.331,3.828,107.47c4.474,28.973,11.647,50.541,25.49,71.702c3.199-5.143,13.455-18.371,29.333-31.47
		l9.779,9.227l-47.448,53.965c-3.542,4.005-3.172,10.15,0.831,13.694c4.005,3.546,10.149,3.17,13.695-0.837l47.581-53.808
		l20.042,17.808l6.053,5.373l-0.741-8.053c-0.493-5.354,0.338-11.539,1.643-17.452c6.682,10.174,18.181,16.893,31.262,16.908
		c13.078,0.01,24.594-6.698,31.288-16.855c1.292,5.914,2.12,12.101,1.614,17.452l-0.755,8.058l6.055-5.366l20.08-17.771
		l47.487,53.888c3.542,4.013,9.682,4.396,13.694,0.856c4.004-3.541,4.391-9.68,0.855-13.688l-47.362-54.053l9.798-9.207
		c15.854,13.121,26.09,26.374,29.275,31.525c13.88-21.141,21.084-42.7,25.617-71.666c5.949-38.128,4.009-105.461,4.009-107.462
		l-30.969-0.008l5.308-5.115c3.352-3.272,2.697-10.879-4.89-17.477c10.774-14.358,29.224-39.755,32.684-47.237
		c0.519-1.122,0.236-2.448-0.681-3.271C342.066,72.197,340.715,72.078,339.67,72.728 M280.518,116.21
		c1.508-1.932,5.228-1.653,10.471,0.777l0.529,0.217l-6.611,6.924l-0.279-0.156c-2.408-1.4-4.083-3.457-4.475-5.502
		C279.975,117.539,280.102,116.737,280.518,116.21 M275.697,116.982l0.695,0.407c-0.554,1.042-0.629,2.257-0.211,3.613
		c1.006,3.229,4.699,6.893,9.422,9.327l0.441,0.229l-2.289,2.796l-0.26-0.082c-0.083-0.021-8.479-2.638-14.227-5.224l-0.424-0.19
		L275.697,116.982z M303.223,178.297l-18.359,0.022l-0.057,1.64c-0.275,7.551-0.061,12.247,7.42,20.896l8.524,9.67
		c2.659,2.974,4.956,5.548,7.158,8.166c0.514,0.615,1.104,1.24,1.735,1.903c4.564,4.853,12.219,12.968,7.104,36.806
		c-3.803,17.754-6.075,24.91-8.331,30.537l-0.429,0.922c-16.452-14.711-32.619-24.586-47.541-31.092
		c2.184-10.826,3.642-22.502,4.637-34.074l16.843,13.285c-0.405,3.516-0.903,7.041-1.438,10.607
		c3.361,1.788,13.156,7.318,16.207,9.564c0.337-1.655,1.347-5.315,1.568-6.773c2.459-15.934-1.73-20.422-4.863-23.777
		c-0.338-0.365-0.659-0.709-0.944-1.048c-1.349-1.573-2.396-2.664-3.978-4.307c-2.285-2.384-5.742-5.978-13.093-14.128
		c-9.581-10.614-8.991-26.434-8.845-36.16l0.266-6.071l8.641-0.008c2.549,0.632,4.768,1.001,6.527,1.001
		c1.411,0.003,3.234-0.149,5.078-1.013l35.096-0.042c0.111,10.062,0.166,24.282-0.263,39.277l-18.616-13.687
		C303.304,185.972,303.27,181.838,303.223,178.297 M286.938,160.828c-1.41,1.305-2.927,1.544-5.078,1.521
		c-5.859-0.062-16.674-4.295-28.123-8.775l-1.521-0.599c-10.881-4.25-27.324-10.677-52.174-10.701
		c-24.85-0.017-41.302,6.379-52.182,10.614l-1.536,0.598c-11.451,4.459-22.271,8.674-28.135,8.72
		c-2.146,0.021-3.662-0.222-5.076-1.524c-1.352-1.262-17.688-17.495-18.385-18.189l-0.78-0.776l1.098,0.084
		c6.046,0.472,24.5-5.019,38.86-10.595l2.688-1.054c14.558-5.704,34.492-13.51,63.467-13.484
		c28.983,0.022,48.894,7.863,63.442,13.59l2.694,1.059c14.348,5.603,32.802,11.124,38.844,10.663l1.104-0.086l-0.791,0.777
		C304.66,143.363,288.297,159.569,286.938,160.828 M248.566,155.744c-0.004,0.467-0.029,3.717-0.035,4.356
		c-0.797-0.002-96.209-0.083-97.01-0.083c-0.006-0.64-0.02-3.887-0.025-4.353c11.747-4.431,27.841-9.464,48.543-9.447
		C220.736,146.232,236.82,151.297,248.566,155.744 M101.255,249.257c1.473,9.524,3.438,18.632,5.715,27.101
		c-5.159,3.763-10.32,8.027-15.573,12.735c-4.25-11.71-7.604-24.899-9.916-39.856c-3.889-25.094-3.844-64.606-3.571-84.614
		l19.771,0.021c-0.156,11.834-0.242,29.792,0.471,47.794l17.563-12.771c-0.354-13.339-0.222-25.132-0.023-34.111
		c0.858,0.142,1.675,0.188,2.375,0.188c1.887,0.003,4.285-0.41,7.069-1.114l7.533,0.039c-0.179,11.034-0.184,24.405,0.422,38.901
		l-15.094,10.893l16.374,9.283c0.982,11.521,2.532,23.214,4.692,34.061c-5.425,2.361-10.966,5.228-16.668,8.547
		c-2.204-10.578-3.734-21.974-4.783-33.308L98.623,221.83C99.181,231.669,100.013,241.24,101.255,249.257 M155.687,110.751
		c0,0-4.465-48.646-4.701-51.187c1.608,1.996,34.386,42.772,34.386,42.772s14.005-49.592,14.748-52.223
		c0.741,2.631,14.661,52.248,14.661,52.248s32.849-40.724,34.453-42.719c-0.238,2.544-4.783,51.184-4.783,51.184
		s26.482-13.939,28.371-14.931c-0.842,1.939-12.198,28.27-12.487,28.941c-16.349-6.26-34.979-12.02-60.269-12.039
		c-25.288-0.024-43.921,5.71-60.283,11.936c-0.297-0.666-11.607-27.02-12.443-28.964
		C129.229,96.771,155.687,110.751,155.687,110.751 M123.729,117.261l0.706-0.408l6.828,10.892l-0.422,0.188
		c-5.75,2.571-14.153,5.174-14.239,5.2l-0.257,0.081l-2.287-2.8l0.449-0.229c4.717-2.426,8.422-6.081,9.43-9.312
		C124.359,119.517,124.29,118.3,123.729,117.261 M109.14,116.832c5.25-2.419,8.967-2.692,10.473-0.762
		c0.418,0.531,0.544,1.333,0.363,2.266c-0.397,2.045-2.081,4.096-4.488,5.488l-0.288,0.147l-6.573-6.903L109.14,116.832z
		 M72.85,90.571c7.415,6.736,15.862,14.707,22.247,20.754l9.995,9.388c0,0.003,0.597,0.702,0.597,0.702s3.887,4.496,4.42,5.109
		c-0.419,0.276-1.023,0.684-1.023,0.684c-0.71,0.518-1.44,1.052-2.317,1.349l-0.56,0.19c0,0,3.786,4.55,4.438,5.332
		c-0.84,0.254-3.395,1.037-3.788,1.153c-0.322-0.372-8.015-9.102-8.015-9.102C92.945,118.454,81.465,102.966,72.85,90.571
		 M89.228,135.605c-2.741-2.744,0.614-6.108,2.836-8.333l0.327-0.325l0.283,0.355l6.281,7.884l-0.498,0.209
		C96.159,136.341,90.774,137.158,89.228,135.605 M111.332,288.405c-8.064,6.685-15.717,14.331-22.724,22.731l-0.393,0.471
		l-0.281-0.547c-8.343-16.188-14.403-35.584-18.01-57.642c-3.356-20.588-4.684-55.23-3.742-97.558l0.048-2.441l34.933,0.03
		l0.177,0.008l8.699,8.582l0.563,0.536l1.129,0.969c0,0,0,0.934,0,0.939c-0.275,11.704-0.292,22.486-0.061,32.972l0.005,0.212
		l-9.782,7.116l-0.026-0.771c-0.201-7.457-0.298-15.426-0.298-23.829c0-5.019,0.037-10.188,0.103-15.493
		c0,0,0.045-3.363,0.055-4.039c-0.672,0-27.094-0.025-27.756-0.025c-0.005,0.66-0.05,3.938-0.05,3.938
		c-0.068,4.877-0.106,10.103-0.106,15.528c0,23.49,0.776,50.737,3.725,69.754c2.285,14.744,5.686,28.402,10.113,40.603
		c0,0,1.677,4.624,2.015,5.556c0.734-0.658,4.393-3.949,4.393-3.949c3.839-3.435,7.426-6.451,10.964-9.225l0.265-0.205l6.42,5.471
		L111.332,288.405z M134.461,316.025l-0.023,0.121l-7.542,8.536l-5.004,5.664l-9.896,11.195l-4.956,5.605l-9.895,11.196
		l-4.883,5.521l-2.081,2.353c-1.645,1.861-4.503,2.031-6.365,0.384c-0.902-0.796-1.44-1.898-1.511-3.105
		c-0.072-1.2,0.327-2.364,1.121-3.267l8.064-9.18l4.915-5.581l9.891-11.259l4.951-5.637l9.887-11.254l4.979-5.667l1.695-1.928
		l0.129-0.026c1.892-0.419,3.626-0.043,4.884,1.047c1.133,0.983,1.732,2.434,1.732,4.102
		C134.554,315.233,134.524,315.623,134.461,316.025 M163.487,303.131c-2.209,7.573-3.494,14.038-3.95,19.771
		c-1.135-1.014-41.202-36.602-42.343-37.615c11.363-2.268,23.016-7.844,29.349-10.879c1.355-0.651,8.543-4.178,16.77-9.75
		c5.632-1.723,11.404-3.029,17.126-3.998c-11.328,6.83-18.343,18.965-18.354,32.289v0.048
		C162.086,296.41,162.568,299.814,163.487,303.131 M232.331,295.303c-0.274,3.737-1.158,7.299-2.578,10.578
		c-1.108,2.557-2.534,4.941-4.237,7.104c-0.549,0.714-1.129,1.396-1.736,2.058c-5.76,6.222-13.924,10.188-23.008,10.416
		c-0.294,0.012-0.587,0.021-0.88,0.021c-0.302,0-0.592-0.016-0.882-0.021c-9.09-0.249-17.246-4.227-22.996-10.459
		c-0.592-0.646-1.159-1.316-1.702-2.006c-1.713-2.197-3.158-4.615-4.277-7.211c-1.396-3.254-2.267-6.791-2.529-10.496
		c-0.053-0.771-0.091-1.553-0.091-2.338c0.006-12.621,7.213-23.545,17.722-28.92c0.563-0.287,1.142-0.564,1.723-0.818
		c3.753-1.65,7.868-2.602,12.202-2.719c0.295-0.01,0.588-0.02,0.881-0.02c0.299,0,0.587,0.01,0.882,0.02
		c4.344,0.125,8.47,1.092,12.221,2.748c0.579,0.261,1.145,0.527,1.7,0.814c10.5,5.396,17.684,16.336,17.673,28.951
		C232.417,293.78,232.379,294.541,232.331,295.303 M273.674,311.764c1.161,1.33,2.874,3.29,4.957,5.662
		c2.775,3.176,6.208,7.093,9.858,11.259c1.627,1.859,3.3,3.77,4.972,5.682c3.365,3.848,6.762,7.717,9.857,11.256
		c1.744,1.995,3.4,3.879,4.901,5.6c4.776,5.457,8.065,9.21,8.065,9.21c0.73,0.831,1.128,1.877,1.128,2.979
		c0,0.093,0,0.189-0.013,0.29c-0.073,1.201-0.611,2.305-1.515,3.095c-1.862,1.647-4.723,1.471-6.366-0.393l-2.076-2.364
		l-4.846-5.493l-9.89-11.229l-4.946-5.617l-9.898-11.233l-5.021-5.697l-7.49-8.509l-0.021-0.115
		c-0.343-2.15,0.255-4.069,1.642-5.277c1.271-1.096,3.004-1.461,4.893-1.044l0.127,0.027
		C271.992,309.848,272.605,310.545,273.674,311.764 M239.573,322.966c-0.429-5.386-1.617-11.628-3.585-18.616
		c1.154-3.662,1.751-7.474,1.756-11.33v-0.037c0-13.181-6.885-25.254-18.024-32.129c5.419,0.97,10.89,2.242,16.279,3.916
		c8.063,5.508,15.286,9.076,16.647,9.729c6.328,3.046,17.973,8.638,29.323,10.935C280.83,286.438,240.708,321.954,239.573,322.966
		 M263.627,271.535c-28.923-15.943-54.165-17.688-63.682-17.691c-9.51-0.005-34.753,1.688-63.728,17.596
		c-6.891,3.306-18.515,8.004-28.6,10.377l-0.338-0.719l2.04-1.514c0,0,1.842-1.35,2.214-1.616c-0.125-0.448-0.715-2.646-0.715-2.646
		c-2.328-8.658-4.222-17.635-5.617-26.684c-0.809-5.201-1.496-11.511-2.056-18.765l-0.055-0.771l10.75,6.342l0.02,0.207
		c1.148,11.664,2.7,22.266,4.627,31.51c0,0,0.942,4.513,1.132,5.417c1.272-0.743,4.785-2.778,4.785-2.778
		c5.737-3.347,11.054-6.074,16.255-8.342c0,0,2.448-1.066,2.944-1.285c-0.149-0.744-0.63-3.152-0.63-3.152
		c-2.045-10.254-3.599-21.564-4.629-33.615c0,0-0.149-1.747-0.179-2.098c-0.434-0.244-12.795-7.252-12.795-7.252
		s11.51-8.297,11.8-8.508c-0.018-0.357-0.088-2.146-0.088-2.146c-0.358-8.352-0.53-16.939-0.53-26.019
		c0-4.11,0.031-8.319,0.106-12.65l0.051-3.956l0.007-0.282l6.795-2.542c0,0-0.008,7.993-0.008,8.727
		c0.802,0,112.229,0.094,113.032,0.094c0-0.736,0.012-8.764,0.012-8.764l6.467,2.441l-0.192,4.254c0,0-0.271,6.076-0.277,6.197
		l-0.016,0.99c-0.152,9.899-0.423,26.472,9.895,37.897l13.179,14.221l3.82,4.136l1.061,1.174c2.815,3.014,5.994,6.429,3.84,20.451
		l-0.082,0.438l-0.109,0.55l-9.048-5.207l-0.245-0.146l1.057-7.961c0,0,0.217-1.846,0.258-2.217
		c-0.408-0.326-23.437-18.486-24.412-19.252c-0.167,1.965-0.635,7.379-0.635,7.379c-1.078,12.636-2.619,23.944-4.567,33.621
		c0,0-0.528,2.631-0.638,3.164c0.701,0.299,2.953,1.278,2.953,1.278c11.431,4.987,22.713,11.646,33.539,19.792l-0.338,0.716
		C282.014,279.523,270.48,274.837,263.627,271.535 M333.438,153.647l0.398,0.008l0.045,2.437c0.872,42.327-0.52,76.967-3.914,97.551
		c-3.632,22.047-9.729,41.434-18.105,57.604l-0.275,0.547l-0.395-0.468c-6.996-8.413-14.633-16.069-22.688-22.768l-0.373-0.312
		l6.38-5.418l0.265,0.202c3.595,2.802,7.15,5.758,10.557,8.801c0,0,3.316,2.97,3.986,3.565c0.604-1.283,2.714-5.756,2.714-5.756
		s0.053-0.121,0.093-0.216c2.389-5.946,4.74-13.53,8.527-31.188c1.248-5.817,1.767-10.803,1.767-15.094
		c0-14.805-6.173-21.357-9.879-25.285l-1.574-1.728c0,0-7.233-8.262-7.237-8.262c0,0-8.506-9.654-8.514-9.654
		c-5.426-6.277-6.494-9.929-6.494-15.001c0-0.172,0.012-0.91,0.012-0.91l10.14-0.01l0.403-0.002l0.005,8.095
		c0,0-0.015,1.696-0.015,2.041c0.388,0.285,25.362,18.64,26.389,19.396c0.059-2.018,0.218-7.604,0.218-7.604
		c0.235-8.033,0.349-16.476,0.349-25.556c0-4.464-0.027-9.084-0.086-13.883c0,0-0.035-3.286-0.043-3.948
		c-0.656,0.002-33.691,0.038-33.691,0.038h-0.982l7.318-7.25L333.438,153.647z M310.866,135.795
		c-1.548,1.548-6.931,0.721-9.229-0.231l-0.494-0.211l5.965-7.45l0.615-0.775l0.321,0.325
		C310.261,129.681,313.613,133.053,310.866,135.795 M301.251,126.32c0.019-0.017-7.13,8.068-8.017,9.072
		c-0.394-0.116-2.946-0.906-3.783-1.161c0.648-0.781,4.447-5.326,4.447-5.326l-0.559-0.188c-0.878-0.304-1.607-0.836-2.322-1.354
		c0,0-0.596-0.408-1.016-0.689c0.531-0.61,4.479-5.153,4.479-5.153l0.582-0.679l9.97-9.338c6.397-6.034,14.851-13.985,22.291-20.719
		C318.696,103.146,307.182,118.625,301.251,126.32"/>
	<path fill="#2E2A25" d="M105.024,282.833c-3.541,2.771-7.127,5.79-10.969,9.228c0,0-3.66,3.287-4.393,3.946
		c-0.338-0.932-2.018-5.556-2.018-5.556c-4.422-12.201-7.828-25.857-10.11-40.604c-2.949-19.012-3.723-46.264-3.723-69.756
		c0-5.424,0.038-10.649,0.106-15.524c0,0,0.045-3.281,0.05-3.94c0.663,0,27.082,0.026,27.756,0.026
		c-0.01,0.675-0.05,4.039-0.05,4.039c-0.073,5.304-0.111,10.474-0.111,15.49c0,8.405,0.104,16.374,0.302,23.831l0.024,0.771
		l9.782-7.118l-0.005-0.212c-0.229-10.48-0.211-21.265,0.059-32.97c0-0.005,0.01-0.939,0.01-0.939l-1.137-0.969l-0.556-0.532
		l-8.71-8.585l-0.168-0.006l-34.935-0.033l-0.048,2.445c-0.942,42.326,0.386,76.971,3.742,97.556
		c3.607,22.06,9.663,41.451,18.01,57.643l0.281,0.544l0.393-0.472c7.007-8.397,14.659-16.045,22.724-22.729l0.376-0.306l-6.42-5.473
		L105.024,282.833z"/>
	<path fill="#282183" d="M105.024,282.833c-3.541,2.771-7.127,5.79-10.969,9.228c0,0-3.66,3.287-4.393,3.946
		c-0.338-0.932-2.018-5.556-2.018-5.556c-4.422-12.201-7.828-25.857-10.11-40.604c-2.949-19.012-3.723-46.264-3.723-69.756
		c0-5.424,0.038-10.649,0.106-15.524c0,0,0.045-3.281,0.05-3.94c0.663,0,27.082,0.026,27.756,0.026
		c-0.01,0.675-0.05,4.039-0.05,4.039c-0.073,5.304-0.111,10.474-0.111,15.49c0,8.405,0.104,16.374,0.302,23.831l0.024,0.771
		l9.782-7.118l-0.005-0.212c-0.229-10.48-0.211-21.265,0.059-32.97c0-0.005,0.01-0.939,0.01-0.939l-1.137-0.969l-0.556-0.532
		l-8.71-8.585l-0.168-0.006l-34.935-0.033l-0.048,2.445c-0.942,42.326,0.386,76.971,3.742,97.556
		c3.607,22.06,9.663,41.451,18.01,57.643l0.281,0.544l0.393-0.472c7.007-8.397,14.659-16.045,22.724-22.729l0.376-0.306l-6.42-5.473
		L105.024,282.833z"/>
	<path fill="#2E2A25" d="M306.145,141.897l-1.103,0.084c-6.04,0.459-24.496-5.061-38.838-10.662l-2.7-1.061
		c-14.549-5.727-34.459-13.567-63.445-13.59c-28.972-0.025-48.903,7.781-63.464,13.484l-2.695,1.055
		c-14.351,5.575-32.814,11.065-38.854,10.598l-1.098-0.088l0.784,0.777c0.697,0.692,17.024,16.925,18.384,18.186
		c1.411,1.305,2.927,1.548,5.073,1.528c5.868-0.049,16.679-4.264,28.135-8.724l1.536-0.596
		c10.885-4.235,27.333-10.634,52.184-10.613c24.854,0.022,41.288,6.448,52.172,10.701l1.521,0.598
		c11.451,4.479,22.265,8.712,28.125,8.774c2.15,0.021,3.666-0.219,5.078-1.521c1.358-1.259,17.723-17.464,18.416-18.155
		L306.145,141.897z M124.988,153.393c-2.04,0.755-4.977,1.248-6.569,1.175l-1.014,1.447l-1.416-3.755
		c2.652,0.788,5.644,0.529,8.053-0.36c1.831-0.679,3.138-1.426,2.841-2.234c-0.317-0.843-2.142-0.059-4.454,0.615
		c-3.924,1.197-6.869,1.214-7.722-1.053c-0.852-2.267,1.335-4.477,5.169-5.901c2.045-0.753,4.574-1.135,6.17-1.027l1.035-1.491
		l1.282,3.4c-2.671-0.56-5.108-0.208-7.484,0.665c-1.799,0.668-3.426,1.602-3.158,2.313c0.309,0.812,2.004-0.037,4.304-0.743
		c3.851-1.207,7.266-1.251,8.183,1.178C131.119,150.049,128.827,151.971,124.988,153.393 M139.713,148.402l1.224-2.92l-0.536-0.431
		l-5.423,1.883l-0.122,0.664l3.26,1.475c-1.604,0.516-5.252,1.885-7.319,2.651l1.491-3.244l1.285-7.211l-3.154-1.276
		c3.099-1.118,8.211-2.87,10.357-3.722l-1.718,3.044l5.572,4.482l3.318,1.499C145.536,146.143,141.204,147.868,139.713,148.402
		 M154.326,142.985c-4.754,1.377-8.956,0.245-9.87-2.881c-0.905-3.101,2.007-6.412,6.752-7.79c2.015-0.578,4.146-0.698,5.697-0.398
		l1.144-1.401l1.209,4.15c-2.643-1.167-4.176-1.187-6.5-0.51c-2.426,0.704-4.647,2.683-4.068,4.693
		c0.59,2.008,3.531,2.496,5.96,1.792c1.576-0.456,3.792-1.096,5.274-3.706l0.572,1.976
		C159.538,140.404,157.255,142.137,154.326,142.985 M209.145,135.598l2.443-2.045l0.592-6.172l-4.379,8.182l-2.058-0.073
		l-3.526-8.653l-0.232,6.314l2.38,2.24c-1.466-0.051-5.3-0.069-7.336-0.018c-3.474,0.01-7.227,0.361-8.831,0.428l1.961-2.432
		l-0.407-0.551l-5.672,0.396l-0.285,0.601l2.759,2.146c-1.371,0.069-4.222,0.374-6.476,0.687l0.037,0.02l-6.401,0.994
		c-0.974-0.642-1.786-1.86-2.551-2.993c-0.393-0.546-0.674-0.768-1.35-0.618l-2.509,0.569l0.439,2.001l2.939,1.638l-9.069,2.282
		l2.02-2.742l-1.323-6.2l-2.949-1.58c3.355-0.792,6.829-1.851,9.919-2.51c3.969-0.864,6.782-0.189,7.11,1.811
		c0.259,1.524-0.935,2.767-2.924,3.479l0.012,0.034c0.647-0.14,1.454-0.037,2.048,0.608c0.377,0.443,0.715,0.903,1.144,1.406
		l2.594,1.368l1.856-2.222l3.065-6.465l-2.71-1.949c3.863-0.406,7.919-0.709,10.808-0.864l-2.347,2.36l4.181,5.899l2.912,2.4
		l2.607-2.239l0.23-6.323l-2.386-2.22c2.2-0.035,6.31,0.025,8.164,0.089l2.246,5.34l2.704-5.153c1.972,0.146,6.419,0.562,8.486,0.85
		l-2.679,2.022l-0.599,6.11l2.373,2.574C215.504,136.119,211.109,135.684,209.145,135.598 M234.135,139.479
		c-4.133-0.971-10.894-2.309-15.434-2.975l2.923-1.827l1.116-6.161l-2.126-2.615c3.493,0.47,9.597,1.551,15.835,2.961l-0.793,3.812
		l-2.971-2.773l-5.725-1.066l-0.395,2.335l3.311,0.581l2.086-0.758l-0.781,4.054l-1.656-1.455l-3.268-0.606l-0.461,2.612
		l5.592,1.043l3.719-1.506L234.135,139.479z M252.984,136.197l-2.543,8.447l-4.455-1.58l-3.897-8.691l-1.147,4.645l1.914,2.956
		l-7.209-2.141l3.002-1.439l1.572-6.279l-2.086-2.802l7.088,2.015l4.182,8.671l1.324-4.531l-1.801-2.935l7.045,2.478
		L252.984,136.197z M267.141,141.257l-1.949-0.74l-2.338,6.62l1.703,2.971l-8.871-3.323l3.118-1.141l2.343-6.662l-1.955-0.739
		l-4.186,1.359l1.471-4.334c2.498,0.918,10.664,4.004,14.549,5.523l-1.475,4.33L267.141,141.257z M285.273,151.133
		c-1.037,3.176-4.961,4.517-9.483,3.149c-4.549-1.372-6.978-4.63-5.935-7.807c1.047-3.211,4.961-4.516,9.511-3.144
		C283.889,144.701,286.323,147.922,285.273,151.133"/>
	<path fill="#282183" d="M306.145,141.897l-1.103,0.084c-6.04,0.459-24.496-5.061-38.838-10.662l-2.7-1.061
		c-14.549-5.727-34.459-13.567-63.445-13.59c-28.972-0.025-48.903,7.781-63.464,13.484l-2.695,1.055
		c-14.351,5.575-32.814,11.065-38.854,10.598l-1.098-0.088l0.784,0.777c0.697,0.692,17.024,16.925,18.384,18.186
		c1.411,1.305,2.927,1.548,5.073,1.528c5.868-0.049,16.679-4.264,28.135-8.724l1.536-0.596
		c10.885-4.235,27.333-10.634,52.184-10.613c24.854,0.022,41.288,6.448,52.172,10.701l1.521,0.598
		c11.451,4.479,22.265,8.712,28.125,8.774c2.15,0.021,3.666-0.219,5.078-1.521c1.358-1.259,17.723-17.464,18.416-18.155
		L306.145,141.897z M124.988,153.393c-2.04,0.755-4.977,1.248-6.569,1.175l-1.014,1.447l-1.416-3.755
		c2.652,0.788,5.644,0.529,8.053-0.36c1.831-0.679,3.138-1.426,2.841-2.234c-0.317-0.843-2.142-0.059-4.454,0.615
		c-3.924,1.197-6.869,1.214-7.722-1.053c-0.852-2.267,1.335-4.477,5.169-5.901c2.045-0.753,4.574-1.135,6.17-1.027l1.035-1.491
		l1.282,3.4c-2.671-0.56-5.108-0.208-7.484,0.665c-1.799,0.668-3.426,1.602-3.158,2.313c0.309,0.812,2.004-0.037,4.304-0.743
		c3.851-1.207,7.266-1.251,8.183,1.178C131.119,150.049,128.827,151.971,124.988,153.393 M139.713,148.402l1.224-2.92l-0.536-0.431
		l-5.423,1.883l-0.122,0.664l3.26,1.475c-1.604,0.516-5.252,1.885-7.319,2.651l1.491-3.244l1.285-7.211l-3.154-1.276
		c3.099-1.118,8.211-2.87,10.357-3.722l-1.718,3.044l5.572,4.482l3.318,1.499C145.536,146.143,141.204,147.868,139.713,148.402
		 M154.326,142.985c-4.754,1.377-8.956,0.245-9.87-2.881c-0.905-3.101,2.007-6.412,6.752-7.79c2.015-0.578,4.146-0.698,5.697-0.398
		l1.144-1.401l1.209,4.15c-2.643-1.167-4.176-1.187-6.5-0.51c-2.426,0.704-4.647,2.683-4.068,4.693
		c0.59,2.008,3.531,2.496,5.96,1.792c1.576-0.456,3.792-1.096,5.274-3.706l0.572,1.976
		C159.538,140.404,157.255,142.137,154.326,142.985 M209.145,135.598l2.443-2.045l0.592-6.172l-4.379,8.182l-2.058-0.073
		l-3.526-8.653l-0.232,6.314l2.38,2.24c-1.466-0.051-5.3-0.069-7.336-0.018c-3.474,0.01-7.227,0.361-8.831,0.428l1.961-2.432
		l-0.407-0.551l-5.672,0.396l-0.285,0.601l2.759,2.146c-1.371,0.069-4.222,0.374-6.476,0.687l0.037,0.02l-6.401,0.994
		c-0.974-0.642-1.786-1.86-2.551-2.993c-0.393-0.546-0.674-0.768-1.35-0.618l-2.509,0.569l0.439,2.001l2.939,1.638l-9.069,2.282
		l2.02-2.742l-1.323-6.2l-2.949-1.58c3.355-0.792,6.829-1.851,9.919-2.51c3.969-0.864,6.782-0.189,7.11,1.811
		c0.259,1.524-0.935,2.767-2.924,3.479l0.012,0.034c0.647-0.14,1.454-0.037,2.048,0.608c0.377,0.443,0.715,0.903,1.144,1.406
		l2.594,1.368l1.856-2.222l3.065-6.465l-2.71-1.949c3.863-0.406,7.919-0.709,10.808-0.864l-2.347,2.36l4.181,5.899l2.912,2.4
		l2.607-2.239l0.23-6.323l-2.386-2.22c2.2-0.035,6.31,0.025,8.164,0.089l2.246,5.34l2.704-5.153c1.972,0.146,6.419,0.562,8.486,0.85
		l-2.679,2.022l-0.599,6.11l2.373,2.574C215.504,136.119,211.109,135.684,209.145,135.598 M234.135,139.479
		c-4.133-0.971-10.894-2.309-15.434-2.975l2.923-1.827l1.116-6.161l-2.126-2.615c3.493,0.47,9.597,1.551,15.835,2.961l-0.793,3.812
		l-2.971-2.773l-5.725-1.066l-0.395,2.335l3.311,0.581l2.086-0.758l-0.781,4.054l-1.656-1.455l-3.268-0.606l-0.461,2.612
		l5.592,1.043l3.719-1.506L234.135,139.479z M252.984,136.197l-2.543,8.447l-4.455-1.58l-3.897-8.691l-1.147,4.645l1.914,2.956
		l-7.209-2.141l3.002-1.439l1.572-6.279l-2.086-2.802l7.088,2.015l4.182,8.671l1.324-4.531l-1.801-2.935l7.045,2.478
		L252.984,136.197z M267.141,141.257l-1.949-0.74l-2.338,6.62l1.703,2.971l-8.871-3.323l3.118-1.141l2.343-6.662l-1.955-0.739
		l-4.186,1.359l1.471-4.334c2.498,0.918,10.664,4.004,14.549,5.523l-1.475,4.33L267.141,141.257z M285.273,151.133
		c-1.037,3.176-4.961,4.517-9.483,3.149c-4.549-1.372-6.978-4.63-5.935-7.807c1.047-3.211,4.961-4.516,9.511-3.144
		C283.889,144.701,286.323,147.922,285.273,151.133"/>
	<polygon fill="#2E2A25" points="184.955,131.342 188.46,131.062 186.4,128.263 	"/>
	<polygon fill="#282183" points="184.955,131.342 188.46,131.062 186.4,128.263 	"/>
	<path fill="#2E2A25" d="M169.54,129.42l-3.204,0.752l0.587,2.649l3.08-0.711c1.113-0.242,1.788-0.913,1.673-1.627
		C171.532,129.511,170.655,129.176,169.54,129.42"/>
	<path fill="#282183" d="M169.54,129.42l-3.204,0.752l0.587,2.649l3.08-0.711c1.113-0.242,1.788-0.913,1.673-1.627
		C171.532,129.511,170.655,129.176,169.54,129.42"/>
	<polygon fill="#2E2A25" points="135.351,144.87 138.695,143.672 135.922,141.402 	"/>
	<polygon fill="#282183" points="135.351,144.87 138.695,143.672 135.922,141.402 	"/>
	<path fill="#2E2A25" d="M278.615,145.444c-2.121-0.64-3.975,0.322-4.613,2.283c-0.641,1.959,0.327,3.734,2.439,4.376
		c2.115,0.638,4.045-0.263,4.688-2.223C281.77,147.917,280.729,146.086,278.615,145.444"/>
	<path fill="#282183" d="M278.615,145.444c-2.121-0.64-3.975,0.322-4.613,2.283c-0.641,1.959,0.327,3.734,2.439,4.376
		c2.115,0.638,4.045-0.263,4.688-2.223C281.77,147.917,280.729,146.086,278.615,145.444"/>
	<path fill="#FFFFFF" d="M122.022,146.445c-2.3,0.707-3.995,1.555-4.302,0.741c-0.268-0.711,1.359-1.645,3.158-2.313
		c2.376-0.874,4.811-1.224,7.482-0.665l-1.282-3.401l-1.033,1.49c-1.598-0.105-4.125,0.277-6.17,1.03
		c-3.834,1.42-6.023,3.633-5.169,5.9c0.856,2.268,3.798,2.247,7.72,1.053c2.314-0.674,4.139-1.457,4.456-0.614
		c0.302,0.808-1.012,1.556-2.841,2.233c-2.403,0.891-5.396,1.149-8.053,0.362l1.413,3.755l1.022-1.447
		c1.582,0.071,4.521-0.421,6.564-1.179c3.839-1.419,6.131-3.34,5.219-5.769C129.29,145.19,125.873,145.237,122.022,146.445"/>
	<path fill="#FFFFFF" d="M154.644,140.64c-2.423,0.705-5.362,0.22-5.949-1.791c-0.586-2.011,1.638-3.994,4.06-4.696
		c2.33-0.673,3.862-0.655,6.504,0.514l-1.214-4.153l-1.144,1.401c-1.547-0.298-3.682-0.18-5.692,0.4
		c-4.75,1.379-7.658,4.692-6.752,7.787c0.914,3.128,5.116,4.261,9.865,2.886c2.934-0.848,5.216-2.582,6.174-4.075l-0.574-1.979
		C158.442,139.543,156.23,140.181,154.644,140.64"/>
	<path fill="#FFFFFF" d="M216.398,127.738l2.686-2.021c-2.068-0.287-6.514-0.705-8.49-0.849l-2.707,5.15l-2.246-5.337
		c-1.849-0.07-5.967-0.126-8.157-0.089l2.376,2.218l-0.221,6.324l-2.611,2.235c2.033-0.049,5.871-0.03,7.341,0.021l-2.385-2.242
		l0.232-6.314l3.526,8.657l2.062,0.071l4.375-8.18l-0.592,6.172l-2.441,2.043c1.963,0.087,6.359,0.52,9.027,0.825l-2.375-2.574
		L216.398,127.738z"/>
	<path fill="#FFFFFF" d="M225.798,135.598l0.461-2.612l3.269,0.606l1.65,1.455l0.783-4.054l-2.083,0.758l-3.306-0.581l0.385-2.335
		l5.729,1.066l2.972,2.773l0.795-3.812c-6.24-1.41-12.347-2.491-15.843-2.961l2.129,2.615l-1.116,6.161l-2.916,1.827
		c4.533,0.666,11.294,2.003,15.425,2.975l0.979-4.344l-3.719,1.506L225.798,135.598z"/>
	<polygon fill="#FFFFFF" points="248.926,132.532 250.729,135.469 249.406,139.998 245.22,131.325 238.13,129.312 240.22,132.115 
		238.646,138.396 235.648,139.833 242.854,141.974 240.936,139.018 242.089,134.376 245.986,143.064 250.441,144.642 
		252.986,136.197 255.973,135.012 	"/>
	<path fill="#FFFFFF" d="M256.477,135.267l-1.471,4.336l4.186-1.36l1.955,0.741l-2.346,6.66l-3.113,1.139l8.863,3.328l-1.701-2.971
		l2.342-6.623l1.944,0.739l2.415,3.864l1.475-4.33C267.136,139.273,258.975,136.188,256.477,135.267"/>
	<path fill="#FFFFFF" d="M279.368,143.331c-4.552-1.372-8.468-0.067-9.513,3.144c-1.043,3.177,1.386,6.436,5.935,7.81
		c4.519,1.365,8.446,0.026,9.483-3.151C286.323,147.925,283.886,144.698,279.368,143.331 M281.129,149.879
		c-0.645,1.96-2.572,2.864-4.689,2.224c-2.112-0.64-3.076-2.414-2.438-4.377c0.641-1.962,2.492-2.92,4.611-2.282
		C280.729,146.083,281.77,147.917,281.129,149.879"/>
	<path fill="#FFFFFF" d="M139.058,139.311l1.718-3.042c-2.146,0.854-7.259,2.607-10.357,3.724l3.156,1.276l-1.287,7.209
		l-1.491,3.247c2.065-0.766,5.718-2.135,7.319-2.65l-3.26-1.477l0.122-0.663l5.419-1.885l0.54,0.436l-1.224,2.92
		c1.493-0.539,5.823-2.263,8.239-3.113l-3.324-1.496L139.058,139.311z M135.351,144.87l0.572-3.467l2.773,2.27L135.351,144.87z"/>
	<path fill="#FFFFFF" d="M189.932,127.074l2.347-2.36c-2.887,0.155-6.943,0.458-10.808,0.864l2.712,1.951l-3.068,6.468l-1.854,2.22
		l-2.589-1.369c-0.434-0.504-0.769-0.959-1.148-1.408c-0.594-0.642-1.406-0.748-2.051-0.607l-0.005-0.035
		c1.982-0.71,3.173-1.954,2.922-3.478c-0.333-2.001-3.144-2.675-7.113-1.813c-3.091,0.664-6.564,1.721-9.914,2.513l2.941,1.578
		l1.325,6.201l-2.02,2.744l9.067-2.283l-2.942-1.637l-0.431-2.001l2.507-0.571c0.67-0.147,0.953,0.072,1.35,0.616
		c0.763,1.137,1.572,2.353,2.548,2.995l6.403-0.993l-0.035-0.021c2.251-0.315,5.103-0.616,6.479-0.686l-2.761-2.146l0.288-0.599
		l5.664-0.402l0.408,0.557l-1.957,2.427c1.597-0.067,5.354-0.417,8.831-0.427l-2.917-2.401L189.932,127.074z M170.003,132.11
		l-3.083,0.711l-0.583-2.649l3.199-0.752c1.121-0.244,1.992,0.089,2.142,1.062C171.788,131.197,171.116,131.867,170.003,132.11
		 M184.955,131.342l1.445-3.079l2.061,2.798L184.955,131.342z"/>
	<path fill="#282183" d="M200.823,266.079l0.396,0.016c2.93,0.115,5.817,0.624,8.586,1.5l0.353,0.112l0.151-0.338
		c0.836-1.88,1.885-3.233,2.615-4.035c0.006,0,0.055-0.035,0.122-0.094c-3.755-1.659-7.882-2.626-12.223-2.748
		c0,0.012,0.005,0.029,0.005,0.029C200.828,260.525,200.823,266.079,200.823,266.079"/>
	<path fill="#282183" d="M189.571,267.363l0.148,0.338l0.354-0.115c2.767-0.877,5.655-1.376,8.588-1.49l0.396-0.017
		c0,0,0-3.415,0.002-5.587c-4.332,0.117-8.447,1.068-12.2,2.716c0.05,0.058,0.091,0.103,0.091,0.103
		C187.69,264.12,188.74,265.479,189.571,267.363"/>
	<path fill="#282183" d="M215.783,289.842c-0.016-0.025-4.008-6.539-4.008-6.539c-1.86-3.295-2.793-6.533-2.793-9.673
		c0-1.31,0.162-2.604,0.49-3.878l0.1-0.379l-0.375-0.12c-2.557-0.806-5.231-1.272-7.947-1.394l-0.432-0.017l-0.047,57.607v0.008
		c9.082-0.229,17.246-4.194,23.006-10.416v-0.027C223.777,302.254,220.244,296.766,215.783,289.842"/>
	<path fill="#282183" d="M230.684,298.605c0-8.213-3.188-15.933-8.99-21.748c-2.901-2.896-6.262-5.154-10.01-6.703l-0.44-0.185
		l-0.117,0.468c-0.258,1.047-0.384,2.111-0.384,3.201c0,2.817,0.859,5.77,2.574,8.803l3.922,6.387
		c4.197,6.529,7.796,12.125,8.254,23.691c0,0,0.01,0.198,0.023,0.468c1.703-2.165,3.127-4.55,4.237-7.106
		c0.603-2.396,0.931-4.826,0.931-7.249V298.605z"/>
	<path fill="#282183" d="M187.645,268.479l0.397-0.164l-0.181-0.396c-0.852-1.823-1.935-3.104-2.728-3.889
		c-10.507,5.378-17.709,16.301-17.72,28.923c0,0.782,0.036,1.563,0.088,2.335c0.179-1.143,0.322-2.03,0.322-2.04
		C169.661,282.213,177.258,272.716,187.645,268.479"/>
	<path fill="#282183" d="M182.567,288.85c0.012-0.021,3.966-6.432,3.966-6.432c1.718-3.034,2.584-5.997,2.584-8.82
		c0-1.08-0.124-2.143-0.381-3.181l-0.111-0.466l-0.447,0.179c-3.744,1.546-7.113,3.802-10.013,6.694
		c-5.818,5.809-9.024,13.531-9.032,21.757v0.021c0,2.403,0.317,4.81,0.9,7.18c1.119,2.599,2.564,5.02,4.282,7.214
		c-0.005-0.31-0.005-0.54-0.005-0.54C174.784,300.905,178.396,295.318,182.567,288.85"/>
	<path fill="#282183" d="M214.746,264.055c-0.771,0.754-1.865,2.037-2.725,3.86l-0.188,0.396l0.401,0.164
		c4.013,1.645,7.613,4.043,10.703,7.135c4.83,4.848,7.97,10.953,9.069,17.65c0,0,0.142,0.895,0.322,2.042
		c0.051-0.762,0.086-1.522,0.086-2.292C232.432,280.389,225.244,269.452,214.746,264.055"/>
	<path fill="#282183" d="M198.623,267.859c-2.712,0.113-5.392,0.576-7.951,1.377l-0.378,0.123l0.106,0.382
		c0.318,1.261,0.483,2.55,0.483,3.852c0,3.142-0.942,6.386-2.816,9.694l-4,6.496c-4.49,6.953-8.032,12.443-8.05,25.215
		c5.745,6.236,13.899,10.212,22.991,10.464c0-8.588,0.048-57.618,0.048-57.618L198.623,267.859z"/>
	<path fill="#8E9090" d="M222.938,275.613c-3.088-3.098-6.688-5.494-10.701-7.137l-0.398-0.164l0.186-0.396
		c0.861-1.823,1.953-3.106,2.723-3.862c-0.557-0.285-1.127-0.56-1.7-0.814c-0.065,0.059-0.11,0.094-0.12,0.094
		c-0.728,0.8-1.779,2.155-2.613,4.035l-0.147,0.338l-0.36-0.111c-2.763-0.877-5.654-1.391-8.587-1.5l-0.392-0.017
		c0,0,0.005-5.551,0.005-5.562c0,0-0.005-0.015-0.005-0.025c-0.294-0.01-0.585-0.021-0.882-0.021c-0.293,0-0.586,0.014-0.883,0.021
		c-0.002,2.167-0.002,5.587-0.002,5.587l-0.396,0.017c-2.932,0.109-5.817,0.613-8.588,1.49l-0.353,0.115l-0.148-0.338
		c-0.832-1.889-1.881-3.243-2.622-4.055c0,0-0.041-0.043-0.086-0.102c-0.589,0.257-1.164,0.534-1.732,0.821
		c0.795,0.784,1.877,2.064,2.73,3.889l0.181,0.394l-0.397,0.166c-10.387,4.238-17.984,13.737-19.823,24.771
		c0,0.01-0.141,0.896-0.322,2.037c0.264,3.71,1.139,7.241,2.537,10.496c-0.583-2.373-0.905-4.775-0.905-7.179v-0.021
		c0.011-8.221,3.219-15.948,9.032-21.757c2.902-2.892,6.271-5.148,10.017-6.694l0.443-0.181l0.116,0.468
		c0.254,1.038,0.38,2.1,0.38,3.184c0,2.82-0.866,5.78-2.589,8.819c0,0-3.95,6.408-3.964,6.431
		c-4.174,6.472-7.778,12.053-8.26,23.603c0,0,0.003,0.233,0.008,0.539c0.541,0.696,1.105,1.362,1.702,2.007
		c0.018-12.766,3.56-18.261,8.05-25.215l4-6.496c1.874-3.309,2.816-6.555,2.816-9.691c0-1.308-0.166-2.594-0.483-3.854l-0.106-0.383
		l0.378-0.121c2.56-0.801,5.239-1.268,7.951-1.377l0.434-0.018c0,0-0.048,49.028-0.048,57.618c0.292,0.004,0.58,0.022,0.882,0.022
		c0.293,0,0.584-0.017,0.881-0.022v-0.009l0.052-57.609l0.427,0.018c2.717,0.121,5.391,0.587,7.95,1.393l0.37,0.12l-0.096,0.379
		c-0.33,1.272-0.492,2.567-0.492,3.878c0,3.141,0.933,6.378,2.796,9.673c0,0,3.989,6.515,4,6.539
		c4.464,6.925,7.997,12.415,7.997,25.172v0.029c0.611-0.662,1.188-1.344,1.74-2.058c-0.016-0.27-0.026-0.467-0.026-0.467
		c-0.46-11.565-4.054-17.16-8.25-23.69l-3.927-6.388c-1.711-3.032-2.568-5.983-2.568-8.801c0-1.087,0.123-2.16,0.385-3.205
		l0.111-0.468l0.443,0.187c3.742,1.553,7.106,3.81,10.01,6.707c5.797,5.812,8.99,13.535,8.99,21.748v0.021
		c0,2.429-0.332,4.858-0.932,7.252c1.418-3.282,2.312-6.844,2.578-10.578c-0.184-1.147-0.327-2.036-0.327-2.036
		C230.905,286.562,227.768,280.457,222.938,275.613"/>
	<polygon fill="#8E9090" points="96.442,346.039 96.401,345.47 91.494,351.054 91.55,351.605 91.585,352.18 91.841,356.416 
		92.25,363.263 92.26,363.866 97.144,358.348 97.091,357.786 	"/>
	<polygon fill="#8E9090" points="126.842,323.517 126.454,317.059 126.164,312.213 126.116,311.653 121.135,317.32 121.195,317.862 
		121.86,329.766 121.891,330.348 126.897,324.681 126.878,324.091 	"/>
	<polygon fill="#8E9090" points="111.291,329.141 111.246,328.574 106.294,334.211 106.345,334.77 106.738,341.883 106.97,346.001 
		107.004,346.578 107.041,347.148 111.997,341.546 111.951,340.977 	"/>
	<path fill="#8E9090" d="M303.158,348.729l-0.499,8.656l-0.029,0.572l-0.024,0.587l4.836,5.491l0.02-0.588l0.039-0.573l0.648-10.508
		l0.033-0.578l0.039-0.572c-1.507-1.715-3.152-3.601-4.9-5.596l-0.019,0.595L303.158,348.729z"/>
	<path fill="#8E9090" d="M273.602,312.912l-0.552,8.958l-0.146,2.342l-0.057,0.554l5.022,5.697l0.042-0.559l0.679-11.903l0.04-0.575
		c-2.083-2.374-3.788-4.332-4.957-5.662l-0.035,0.579L273.602,312.912z"/>
	<path fill="#8E9090" d="M288.443,329.868l-0.305,5.341l-0.34,5.918l-0.041,0.569l4.951,5.617l0.031-0.582l0.031-0.574l0.209-3.6
		l0.435-7.633l0.045-0.561c-1.672-1.912-3.345-3.821-4.972-5.682l-0.014,0.604L288.443,329.868z"/>
	<path fill="#8E9090" d="M106.861,135.233c0.391-0.116,2.945-0.898,3.783-1.154c-0.647-0.781-4.436-5.333-4.436-5.333l0.56-0.188
		c0.876-0.3,1.607-0.834,2.317-1.353c0,0,0.6-0.404,1.023-0.683c-0.531-0.612-4.423-5.109-4.423-5.109s-0.594-0.697-0.594-0.699
		l-9.99-9.389c-6.388-6.049-14.83-14.018-22.251-20.756c8.615,12.396,20.095,27.886,25.994,35.558
		C98.844,126.128,106.533,134.861,106.861,135.233"/>
	<path fill="#2E2A25" d="M98.457,135.396l0.501-0.204l-6.285-7.885l-0.283-0.36l-0.325,0.325c-2.224,2.227-5.579,5.591-2.838,8.333
		C90.774,137.157,96.159,136.341,98.457,135.396"/>
	<path fill="#282183" d="M98.457,135.396l0.501-0.204l-6.285-7.885l-0.283-0.36l-0.325,0.325c-2.224,2.227-5.579,5.591-2.838,8.333
		C90.774,137.157,96.159,136.341,98.457,135.396"/>
	<path fill="#2E2A25" d="M115.488,123.823c2.41-1.393,4.085-3.443,4.488-5.488c0.179-0.931,0.053-1.733-0.36-2.264
		c-1.509-1.932-5.231-1.658-10.476,0.761l-0.513,0.237l6.573,6.9L115.488,123.823z"/>
	<path fill="#282183" d="M115.488,123.823c2.41-1.393,4.085-3.443,4.488-5.488c0.179-0.931,0.053-1.733-0.36-2.264
		c-1.509-1.932-5.231-1.658-10.476,0.761l-0.513,0.237l6.573,6.9L115.488,123.823z"/>
	<path fill="#2E2A25" d="M114.506,130.185l-0.449,0.229l2.287,2.799l0.26-0.082c0.083-0.026,8.483-2.626,14.233-5.197l0.428-0.19
		l-6.833-10.89l-0.698,0.408c0.56,1.039,0.625,2.253,0.202,3.61C122.926,124.104,119.226,127.758,114.506,130.185"/>
	<path fill="#282183" d="M114.506,130.185l-0.449,0.229l2.287,2.799l0.26-0.082c0.083-0.026,8.483-2.626,14.233-5.197l0.428-0.19
		l-6.833-10.89l-0.698,0.408c0.56,1.039,0.625,2.253,0.202,3.61C122.926,124.104,119.226,127.758,114.506,130.185"/>
	<path fill="#8E9090" d="M200.066,112.796c25.29,0.023,43.917,5.783,60.272,12.042c0.283-0.667,11.648-27,12.482-28.943
		c-1.887,0.993-28.37,14.931-28.37,14.931s4.547-48.638,4.782-51.185c-1.605,1.994-34.453,42.722-34.453,42.722
		s-13.92-49.617-14.664-52.248c-0.742,2.631-14.744,52.22-14.744,52.22s-32.778-40.777-34.386-42.77
		c0.235,2.54,4.701,51.186,4.701,51.186S129.228,96.77,127.34,95.772c0.831,1.942,12.15,28.296,12.438,28.962
		C156.143,118.507,174.778,112.773,200.066,112.796"/>
	<path fill="#2E2A25" d="M307.723,127.127l-0.611,0.775l-5.967,7.451l0.496,0.212c2.295,0.951,7.68,1.779,9.229,0.229
		c2.748-2.742-0.607-6.114-2.823-8.341L307.723,127.127z"/>
	<path fill="#282183" d="M307.723,127.127l-0.611,0.775l-5.967,7.451l0.496,0.212c2.295,0.951,7.68,1.779,9.229,0.229
		c2.748-2.742-0.607-6.114-2.823-8.341L307.723,127.127z"/>
	<path fill="#2E2A25" d="M284.626,123.969l0.281,0.16l6.61-6.925l-0.533-0.22c-5.24-2.427-8.965-2.705-10.471-0.775
		c-0.412,0.528-0.537,1.33-0.365,2.261C280.541,120.516,282.218,122.569,284.626,123.969"/>
	<path fill="#282183" d="M284.626,123.969l0.281,0.16l6.61-6.925l-0.533-0.22c-5.24-2.427-8.965-2.705-10.471-0.775
		c-0.412,0.528-0.537,1.33-0.365,2.261C280.541,120.516,282.218,122.569,284.626,123.969"/>
	<path fill="#2E2A25" d="M269.271,128.048c5.746,2.583,14.14,5.2,14.226,5.226l0.257,0.08l2.292-2.796l-0.442-0.229
		c-4.722-2.435-8.416-6.098-9.416-9.329c-0.422-1.357-0.348-2.569,0.207-3.611l-0.699-0.41l-6.848,10.879L269.271,128.048z"/>
	<path fill="#282183" d="M269.271,128.048c5.746,2.583,14.14,5.2,14.226,5.226l0.257,0.08l2.292-2.796l-0.442-0.229
		c-4.722-2.435-8.416-6.098-9.416-9.329c-0.422-1.357-0.348-2.569,0.207-3.611l-0.699-0.41l-6.848,10.879L269.271,128.048z"/>
	<path fill="#2E2A25" d="M291.413,160.867h0.983c0,0,33.037-0.035,33.696-0.038c0.005,0.662,0.04,3.948,0.04,3.948
		c0.055,4.803,0.086,9.42,0.086,13.887c0,9.078-0.117,17.523-0.349,25.55c0,0-0.157,5.587-0.216,7.606
		c-1.027-0.752-26.004-19.112-26.389-19.397c0-0.34,0.01-2.035,0.01-2.035l-0.006-8.098h-0.399l-10.144,0.01
		c0,0-0.008,0.74-0.008,0.912c0,5.072,1.071,8.724,6.494,15.003c0.01,0,8.514,9.649,8.514,9.649c0.004,0,7.235,8.262,7.235,8.262
		l1.574,1.733c3.708,3.924,9.879,10.476,9.879,25.285c0,4.289-0.521,9.271-1.767,15.09c-3.785,17.656-6.142,25.242-8.522,31.186
		c-0.043,0.102-0.094,0.223-0.094,0.223s-2.11,4.469-2.716,5.754c-0.674-0.595-3.989-3.563-3.989-3.563
		c-3.402-3.046-6.956-6.005-10.554-8.804l-0.265-0.202l-6.38,5.422l0.373,0.308c8.059,6.702,15.693,14.355,22.689,22.77l0.387,0.468
		l0.281-0.544c8.377-16.177,14.471-35.561,18.104-57.607c3.396-20.58,4.786-55.227,3.919-97.555l-0.05-2.434l-0.396-0.005
		l-34.707-0.03L291.413,160.867z"/>
	<path fill="#282183" d="M291.413,160.867h0.983c0,0,33.037-0.035,33.696-0.038c0.005,0.662,0.04,3.948,0.04,3.948
		c0.055,4.803,0.086,9.42,0.086,13.887c0,9.078-0.117,17.523-0.349,25.55c0,0-0.157,5.587-0.216,7.606
		c-1.027-0.752-26.004-19.112-26.389-19.397c0-0.34,0.01-2.035,0.01-2.035l-0.006-8.098h-0.399l-10.144,0.01
		c0,0-0.008,0.74-0.008,0.912c0,5.072,1.071,8.724,6.494,15.003c0.01,0,8.514,9.649,8.514,9.649c0.004,0,7.235,8.262,7.235,8.262
		l1.574,1.733c3.708,3.924,9.879,10.476,9.879,25.285c0,4.289-0.521,9.271-1.767,15.09c-3.785,17.656-6.142,25.242-8.522,31.186
		c-0.043,0.102-0.094,0.223-0.094,0.223s-2.11,4.469-2.716,5.754c-0.674-0.595-3.989-3.563-3.989-3.563
		c-3.402-3.046-6.956-6.005-10.554-8.804l-0.265-0.202l-6.38,5.422l0.373,0.308c8.059,6.702,15.693,14.355,22.689,22.77l0.387,0.468
		l0.281-0.544c8.377-16.177,14.471-35.561,18.104-57.607c3.396-20.58,4.786-55.227,3.919-97.555l-0.05-2.434l-0.396-0.005
		l-34.707-0.03L291.413,160.867z"/>
	<path fill="#8E9090" d="M295.062,120.843l-0.586,0.678c0,0-3.942,4.544-4.473,5.153c0.418,0.281,1.02,0.689,1.02,0.689
		c0.703,0.515,1.438,1.049,2.316,1.354l0.559,0.188c0,0-3.799,4.544-4.447,5.326c0.84,0.254,3.396,1.044,3.783,1.16
		c0.887-1.002,8.033-9.089,8.017-9.07c5.933-7.697,17.447-23.175,26.072-35.537c-7.445,6.734-15.894,14.686-22.291,20.719
		L295.062,120.843"/>
	<path fill="#8E9090" d="M151.496,155.665c0.005,0.464,0.025,3.713,0.03,4.351c0.796,0,96.21,0.083,97.003,0.086
		c0.008-0.64,0.033-3.893,0.037-4.356c-11.743-4.449-27.83-9.512-48.527-9.531C179.339,146.197,163.243,151.234,151.496,155.665
		 M239.133,157.176l-78.2-0.067l6.067-4.371l66.075,0.057L239.133,157.176z"/>
	<polygon fill="#2E2A25" points="160.931,157.109 239.13,157.176 233.072,152.795 166.996,152.738 	"/>
	<polygon fill="#2E2A25" points="160.931,157.109 239.13,157.176 233.072,152.795 166.996,152.738 	"/>
	<path fill="#FFFFFF" d="M321.887,204.104c0.428-14.996,0.374-29.216,0.264-39.277l-35.097,0.042
		c-1.844,0.864-3.667,1.016-5.077,1.011c-1.759,0-3.979-0.366-6.531-0.999l-8.637,0.008l-0.27,6.071
		c-0.145,9.726-0.732,25.544,8.854,36.16c7.348,8.15,10.799,11.745,13.092,14.128c1.578,1.644,2.625,2.733,3.971,4.308
		c0.287,0.338,0.609,0.683,0.947,1.047c3.132,3.355,7.317,7.845,4.865,23.777c-0.228,1.458-1.234,5.118-1.57,6.773
		c-3.055-2.243-12.848-7.776-16.204-9.569c0.534-3.562,1.024-7.088,1.438-10.604l-16.846-13.283
		c-0.993,11.57-2.453,23.248-4.634,34.072c14.915,6.508,31.08,16.383,47.537,31.092l0.437-0.922
		c2.251-5.625,4.521-12.782,8.329-30.537c5.104-23.838-2.544-31.957-7.111-36.805c-0.631-0.664-1.218-1.289-1.732-1.902
		c-2.202-2.619-4.499-5.193-7.158-8.166l-8.523-9.67c-7.48-8.651-7.691-13.346-7.418-20.897l0.054-1.64l18.354-0.022
		c0.055,3.544,0.084,7.677,0.055,12.12L321.887,204.104z"/>
	<path fill="#FFFFFF" d="M122.395,266.352c5.705-3.319,11.243-6.184,16.668-8.545c-2.161-10.849-3.708-22.541-4.692-34.062
		l-16.374-9.283l15.102-10.893c-0.621-14.496-0.61-27.866-0.428-38.901l-7.536-0.038c-2.781,0.705-5.184,1.116-7.069,1.113
		c-0.702,0-1.516-0.046-2.372-0.19c-0.202,8.979-0.333,20.773,0.016,34.113l-17.561,12.771c-0.71-18.001-0.625-35.959-0.466-47.793
		l-19.774-0.021c-0.272,20.008-0.318,59.521,3.569,84.615c2.319,14.959,5.668,28.146,9.916,39.855
		c5.253-4.708,10.422-8.979,15.576-12.736c-2.28-8.467-4.24-17.572-5.715-27.098c-1.237-8.019-2.074-17.596-2.638-27.429
		l18.997,11.214C118.658,244.381,120.193,255.773,122.395,266.352"/>
	<path fill="#2E2A25" d="M292.395,281.212c-10.821-8.144-22.107-14.805-33.539-19.792c0,0-2.254-0.979-2.949-1.285
		c0.107-0.527,0.633-3.16,0.633-3.16c1.947-9.674,3.488-20.982,4.566-33.617c0,0,0.469-5.416,0.636-7.379
		c0.977,0.768,24.004,18.926,24.417,19.252c-0.049,0.367-0.26,2.217-0.26,2.217l-1.056,7.96l0.236,0.146l9.053,5.209l0.112-0.554
		l0.079-0.437c2.155-14.021-1.025-17.438-3.834-20.449l-1.065-1.172l-3.82-4.139l-13.176-14.221
		c-10.316-11.425-10.048-27.998-9.895-37.898l0.018-0.99c0.006-0.122,0.277-6.196,0.277-6.196l0.188-4.255l-6.466-2.439
		c0,0-0.012,8.028-0.014,8.764c-0.802,0-112.229-0.096-113.03-0.096c0-0.733,0.006-8.727,0.006-8.727l-6.793,2.545l-0.011,0.278
		l-0.048,3.959c-0.073,4.328-0.106,8.54-0.106,12.649c0,9.075,0.172,17.669,0.53,26.02c0,0,0.07,1.789,0.09,2.146
		c-0.292,0.211-11.803,8.509-11.803,8.509s12.366,7.004,12.795,7.248c0.03,0.354,0.181,2.102,0.181,2.102
		c1.023,12.052,2.584,23.363,4.629,33.613c0,0,0.479,2.41,0.625,3.156c-0.488,0.215-2.941,1.282-2.941,1.282
		c-5.205,2.271-10.517,4.997-16.262,8.337c0,0-3.503,2.04-4.78,2.78c-0.188-0.903-1.128-5.412-1.128-5.412
		c-1.929-9.243-3.483-19.847-4.629-31.509l-0.022-0.207l-10.746-6.346l0.059,0.773c0.554,7.251,1.244,13.562,2.045,18.762
		c1.404,9.049,3.294,18.024,5.625,26.684c0,0,0.587,2.197,0.708,2.641c-0.37,0.273-2.212,1.621-2.212,1.621l-2.037,1.514
		l0.335,0.719c10.088-2.373,21.712-7.071,28.603-10.373c28.973-15.91,54.221-17.605,63.728-17.602
		c9.517,0.008,34.764,1.75,63.682,17.693c6.854,3.3,18.391,7.988,28.43,10.393L292.395,281.212z M164.301,253.506
		c-3.783,0.938-7.476,2-10.971,3.159c0,0-3.658,1.218-4.39,1.463c-0.134-0.761-0.794-4.565-0.794-4.565
		c-4.086-23.511-5.103-49.571-5.103-69.67c0-3.106,0.023-6.073,0.066-8.867c0,0,0.043-2.885,0.063-3.933
		c0.654,0,18.984,0.013,20.061,0.018c-0.01,0.676-0.067,4.053-0.067,4.053c-0.063,3.562-0.093,7.07-0.093,10.528
		c0,23.784,1.415,45.055,4.211,63.338c0,0,0.458,3,0.554,3.606C167.243,252.777,164.301,253.506,164.301,253.506 M210.943,245.713
		c0,0-0.269,3.176-0.322,3.812c-0.641-0.024-3.832-0.166-3.832-0.166l-6.881-0.135l-0.793-0.031c-0.041,0-0.459-0.021-0.459-0.021
		s-2.997,0.005-4.033,0.015c0.006-0.668,0.131-39.943,0.131-39.943l-7.422-4.889l0.007,0.761c0.154,16.12,0.612,29.391,1.391,40.577
		c0,0,0.209,2.973,0.275,3.894c-0.656,0.062-3.889,0.354-3.889,0.354l-8.574,1.08c0,0-3.397,0.52-4.084,0.625
		c-0.079-0.688-0.477-4.105-0.477-4.105c-2.013-17.333-3.028-37.161-3.028-59.088c0-4.393,0.043-8.869,0.119-13.419
		c0,0,0.055-2.995,0.073-3.925c0.658,0,14.395,0.014,14.395,0.014s3.43,0.012,4.07,0.015c-0.016,0.679-0.161,7.673-0.161,7.673
		l7.276,5.093c0,0-0.032-12.099-0.032-12.771c0.672,0.002,17.288,0.015,18.336,0.015c0.007,0.66,0.05,3.933,0.05,3.933
		c0.053,3.654,0.086,7.7,0.086,12.04C213.164,203.743,212.693,224.788,210.943,245.713 M251.031,258.15
		c-0.735-0.244-4.363-1.467-4.363-1.467c-8.727-2.927-17.707-4.961-27.443-6.211c0,0-3.222-0.416-3.869-0.502
		c0.066-0.645,0.408-3.881,0.408-3.881c2.241-21.006,3.48-44.884,3.688-70.974c0,0,0.027-3.301,0.029-3.965
		c0.666,0.003,37.55,0.047,38.209,0.047c0,0.666,0.006,4.499,0.006,4.759c0,6.099-0.12,12.62-0.389,20.443
		c0,0-0.182,5.445-0.223,6.543c-0.951-0.538-13.52-7.568-13.52-7.568c-1.135-0.637-1.725-0.965-2.08-1.141
		c0.007-0.365,0.06-3.398,0.06-3.398l0.024-1.982l-4.396-0.005l-0.012,0.393c-0.438,17.832-1.277,32.718-2.562,45.508l-0.039,0.371
		l3.584,0.675l0.054-0.429l1.485-13.725l-0.393-0.045c-0.775-0.108-1.229-0.162-1.57-0.191c0.043-0.619,0.424-5.817,0.424-5.817
		c0-0.004,0.496-7.317,0.567-8.405c0.67,0.059,3.614,0.33,3.614,0.33c0.005,0,10.755,1.002,10.755,1.002s2.897,0.317,3.792,0.416
		c-0.037,0.637-0.244,3.805-0.244,3.805c-0.992,15.306-2.589,29.062-4.77,40.888C251.861,253.624,251.167,257.393,251.031,258.15"/>
	<path fill="#282183" d="M292.395,281.212c-10.821-8.144-22.107-14.805-33.539-19.792c0,0-2.254-0.979-2.949-1.285
		c0.107-0.527,0.633-3.16,0.633-3.16c1.947-9.674,3.488-20.982,4.566-33.617c0,0,0.469-5.416,0.636-7.379
		c0.977,0.768,24.004,18.926,24.417,19.252c-0.049,0.367-0.26,2.217-0.26,2.217l-1.056,7.96l0.236,0.146l9.053,5.209l0.112-0.554
		l0.079-0.437c2.155-14.021-1.025-17.438-3.834-20.449l-1.065-1.172l-3.82-4.139l-13.176-14.221
		c-10.316-11.425-10.048-27.998-9.895-37.898l0.018-0.99c0.006-0.122,0.277-6.196,0.277-6.196l0.188-4.255l-6.466-2.439
		c0,0-0.012,8.028-0.014,8.764c-0.802,0-112.229-0.096-113.03-0.096c0-0.733,0.006-8.727,0.006-8.727l-6.793,2.545l-0.011,0.278
		l-0.048,3.959c-0.073,4.328-0.106,8.54-0.106,12.649c0,9.075,0.172,17.669,0.53,26.02c0,0,0.07,1.789,0.09,2.146
		c-0.292,0.211-11.803,8.509-11.803,8.509s12.366,7.004,12.795,7.248c0.03,0.354,0.181,2.102,0.181,2.102
		c1.023,12.052,2.584,23.363,4.629,33.613c0,0,0.479,2.41,0.625,3.156c-0.488,0.215-2.941,1.282-2.941,1.282
		c-5.205,2.271-10.517,4.997-16.262,8.337c0,0-3.503,2.04-4.78,2.78c-0.188-0.903-1.128-5.412-1.128-5.412
		c-1.929-9.243-3.483-19.847-4.629-31.509l-0.022-0.207l-10.746-6.346l0.059,0.773c0.554,7.251,1.244,13.562,2.045,18.762
		c1.404,9.049,3.294,18.024,5.625,26.684c0,0,0.587,2.197,0.708,2.641c-0.37,0.273-2.212,1.621-2.212,1.621l-2.037,1.514
		l0.335,0.719c10.088-2.373,21.712-7.071,28.603-10.373c28.973-15.91,54.221-17.605,63.728-17.602
		c9.517,0.008,34.764,1.75,63.682,17.693c6.854,3.3,18.391,7.988,28.43,10.393L292.395,281.212z M164.301,253.506
		c-3.783,0.938-7.476,2-10.971,3.159c0,0-3.658,1.218-4.39,1.463c-0.134-0.761-0.794-4.565-0.794-4.565
		c-4.086-23.511-5.103-49.571-5.103-69.67c0-3.106,0.023-6.073,0.066-8.867c0,0,0.043-2.885,0.063-3.933
		c0.654,0,18.984,0.013,20.061,0.018c-0.01,0.676-0.067,4.053-0.067,4.053c-0.063,3.562-0.093,7.07-0.093,10.528
		c0,23.784,1.415,45.055,4.211,63.338c0,0,0.458,3,0.554,3.606C167.243,252.777,164.301,253.506,164.301,253.506 M210.943,245.713
		c0,0-0.269,3.176-0.322,3.812c-0.641-0.024-3.832-0.166-3.832-0.166l-6.881-0.135l-0.793-0.031c-0.041,0-0.459-0.021-0.459-0.021
		s-2.997,0.005-4.033,0.015c0.006-0.668,0.131-39.943,0.131-39.943l-7.422-4.889l0.007,0.761c0.154,16.12,0.612,29.391,1.391,40.577
		c0,0,0.209,2.973,0.275,3.894c-0.656,0.062-3.889,0.354-3.889,0.354l-8.574,1.08c0,0-3.397,0.52-4.084,0.625
		c-0.079-0.688-0.477-4.105-0.477-4.105c-2.013-17.333-3.028-37.161-3.028-59.088c0-4.393,0.043-8.869,0.119-13.419
		c0,0,0.055-2.995,0.073-3.925c0.658,0,14.395,0.014,14.395,0.014s3.43,0.012,4.07,0.015c-0.016,0.679-0.161,7.673-0.161,7.673
		l7.276,5.093c0,0-0.032-12.099-0.032-12.771c0.672,0.002,17.288,0.015,18.336,0.015c0.007,0.66,0.05,3.933,0.05,3.933
		c0.053,3.654,0.086,7.7,0.086,12.04C213.164,203.743,212.693,224.788,210.943,245.713 M251.031,258.15
		c-0.735-0.244-4.363-1.467-4.363-1.467c-8.727-2.927-17.707-4.961-27.443-6.211c0,0-3.222-0.416-3.869-0.502
		c0.066-0.645,0.408-3.881,0.408-3.881c2.241-21.006,3.48-44.884,3.688-70.974c0,0,0.027-3.301,0.029-3.965
		c0.666,0.003,37.55,0.047,38.209,0.047c0,0.666,0.006,4.499,0.006,4.759c0,6.099-0.12,12.62-0.389,20.443
		c0,0-0.182,5.445-0.223,6.543c-0.951-0.538-13.52-7.568-13.52-7.568c-1.135-0.637-1.725-0.965-2.08-1.141
		c0.007-0.365,0.06-3.398,0.06-3.398l0.024-1.982l-4.396-0.005l-0.012,0.393c-0.438,17.832-1.277,32.718-2.562,45.508l-0.039,0.371
		l3.584,0.675l0.054-0.429l1.485-13.725l-0.393-0.045c-0.775-0.108-1.229-0.162-1.57-0.191c0.043-0.619,0.424-5.817,0.424-5.817
		c0-0.004,0.496-7.317,0.567-8.405c0.67,0.059,3.614,0.33,3.614,0.33c0.005,0,10.755,1.002,10.755,1.002s2.897,0.317,3.792,0.416
		c-0.037,0.637-0.244,3.805-0.244,3.805c-0.992,15.306-2.589,29.062-4.77,40.888C251.861,253.624,251.167,257.393,251.031,258.15"/>
	<path fill="#2E2A25" d="M213.027,171.147c-1.047,0-17.663-0.014-18.335-0.019c0.003,0.676,0.034,12.775,0.034,12.775l-7.278-5.093
		c0,0,0.146-6.996,0.161-7.674c-0.638-0.002-4.07-0.016-4.07-0.016s-13.737-0.01-14.393-0.01c-0.018,0.928-0.075,3.922-0.075,3.922
		c-0.076,4.553-0.122,9.027-0.122,13.419c0,21.927,1.018,41.758,3.033,59.088c0,0,0.393,3.417,0.476,4.105
		c0.683-0.102,4.083-0.625,4.083-0.625l8.572-1.078c0,0,3.236-0.297,3.889-0.356c-0.063-0.921-0.274-3.894-0.274-3.894
		c-0.771-11.188-1.231-24.457-1.391-40.577l-0.005-0.761l7.425,4.892c0,0-0.132,39.271-0.132,39.94
		c1.034-0.004,4.027-0.015,4.034-0.015c0,0,0.415,0.021,0.456,0.021l0.79,0.031l6.886,0.135c0,0,3.188,0.142,3.83,0.166
		c0.05-0.64,0.318-3.815,0.318-3.815c1.75-20.922,2.228-41.969,2.228-58.588c0-4.342-0.032-8.385-0.089-12.042
		C213.078,175.081,213.033,171.807,213.027,171.147 M206.966,245.376c-2.521-0.108-4.868-0.142-7.055-0.142
		c-0.408-0.006-0.862-0.051-1.28-0.051c0.092-12.484,0.121-26.18,0.121-38.082l-15.458-10.182
		c0.068,15.001,0.315,32.635,1.459,49.05c-2.78,0.253-5.755,0.646-8.806,1.112c-3.148-27.076-3.179-55.326-2.887-71.983l10.476,0.01
		c-0.047,1.887-0.088,3.796-0.126,5.746l15.322,10.725c-0.01-5.612-0.025-11.105-0.041-16.454l10.402,0.008
		C209.32,191.727,209.229,218.354,206.966,245.376"/>
	<path fill="#2E2A25" d="M163.072,185.689c0-3.458,0.03-6.965,0.091-10.528c0,0,0.06-3.374,0.069-4.053
		c-1.081-0.005-19.409-0.018-20.063-0.018c-0.02,1.047-0.061,3.933-0.061,3.933c-0.041,2.79-0.066,5.759-0.066,8.87
		c0,20.097,1.017,46.153,5.101,69.673c0,0,0.663,3.801,0.796,4.562c0.735-0.245,4.39-1.463,4.39-1.463
		c3.495-1.159,7.193-2.228,10.968-3.159c0,0,2.945-0.727,3.537-0.871c-0.093-0.607-0.552-3.607-0.552-3.607
		C164.487,230.746,163.072,209.477,163.072,185.689 M152.075,252.88c-4.816-27.715-5.26-58.387-4.974-77.797l12.071,0.008
		c-0.307,18.273-0.045,47.017,4.168,74.544C159.727,250.529,155.923,251.6,152.075,252.88"/>
	<path fill="#2E2A25" d="M256.876,208.934c-0.896-0.103-3.795-0.416-3.795-0.416s-10.75-1.006-10.752-1.006
		c0,0-2.944-0.27-3.618-0.326c-0.066,1.088-0.566,8.4-0.566,8.404c0,0-0.377,5.203-0.418,5.815c0.34,0.032,0.791,0.088,1.567,0.192
		l0.394,0.047l-1.486,13.724l-0.057,0.429l-3.58-0.673l0.035-0.373c1.287-12.79,2.125-27.676,2.563-45.508l0.012-0.393l4.396,0.005
		l-0.025,1.979c0,0-0.055,3.035-0.059,3.4c0.354,0.176,0.939,0.506,2.084,1.141c0,0,12.558,7.03,13.513,7.568
		c0.038-1.099,0.225-6.543,0.225-6.543c0.269-7.823,0.394-14.344,0.394-20.443c0-0.261-0.009-4.094-0.009-4.759
		c-0.666,0-37.545-0.044-38.205-0.047c-0.008,0.662-0.035,3.965-0.035,3.965c-0.207,26.088-1.446,49.968-3.688,70.974
		c0,0-0.338,3.234-0.408,3.881c0.65,0.086,3.869,0.497,3.869,0.497c9.736,1.255,18.72,3.287,27.441,6.216
		c0,0,3.63,1.223,4.359,1.467c0.14-0.758,0.837-4.523,0.837-4.523c2.181-11.828,3.776-25.585,4.767-40.884
		C256.629,212.743,256.839,209.568,256.876,208.934 M247.936,252.907c-10.272-3.451-19.778-5.313-28.201-6.394
		c2.922-27.398,3.576-54.488,3.707-71.37l30.265,0.039c0.021,6.276-0.11,12.941-0.388,21.079l-7.799-4.365
		c0.035-2.256,0.08-4.941,0.092-7.032l-12.332-0.01c-0.266,12.382-0.842,33.67-3.083,53.606c3.628,0.521,7.418,1.247,11.354,2.146
		c1.103-8.203,1.874-15.726,2.453-22.449l-2.403-0.272c0.151-2.12,0.326-4.321,0.444-6.39c3.455,0.244,6.964,0.592,10.604,0.986
		C251.807,225.578,250.381,239.618,247.936,252.907"/>
	<path fill="#FFFFFF" d="M159.175,175.091l-12.076-0.008c-0.285,19.414,0.162,50.082,4.977,77.797
		c3.848-1.28,7.651-2.354,11.269-3.247C159.127,222.107,158.868,193.366,159.175,175.091"/>
	<path fill="#FFFFFF" d="M198.691,175.127c0.016,5.351,0.031,10.842,0.043,16.454l-15.322-10.725
		c0.036-1.95,0.077-3.861,0.122-5.744l-10.471-0.008c-0.295,16.652-0.264,44.902,2.881,71.979c3.051-0.463,6.028-0.858,8.808-1.112
		c-1.146-16.414-1.391-34.049-1.461-49.045l15.46,10.178c0,11.903-0.029,25.599-0.123,38.08c0.42,0,0.871,0.049,1.282,0.053
		c2.183,0,4.538,0.031,7.052,0.141c2.263-27.02,2.356-53.651,2.131-70.241L198.691,175.127z"/>
	<path fill="#FFFFFF" d="M241.602,217.886l2.398,0.272c-0.576,6.728-1.35,14.242-2.445,22.451
		c-3.938-0.898-7.732-1.627-11.359-2.146c2.24-19.939,2.816-41.226,3.084-53.608l12.332,0.01c-0.012,2.093-0.06,4.773-0.094,7.029
		l7.801,4.37c0.276-8.143,0.408-14.803,0.388-21.083l-30.265-0.036c-0.135,16.877-0.789,43.968-3.707,71.369
		c8.423,1.081,17.929,2.937,28.203,6.393c2.443-13.289,3.869-27.329,4.711-40.426c-3.644-0.396-7.148-0.738-10.604-0.987
		C241.928,213.562,241.749,215.766,241.602,217.886"/>
	<polygon fill="#282183" points="106.738,341.883 106.345,334.77 106.294,334.211 96.401,345.467 96.442,346.039 97.091,357.786 
		97.142,358.348 107.041,347.148 107.004,346.578 	"/>
	<path fill="#282183" d="M91.841,356.416l-0.291-4.809l-0.056-0.555l-8.064,9.176c-0.796,0.902-1.195,2.066-1.123,3.266
		c0.07,1.207,0.608,2.31,1.509,3.107c1.861,1.649,4.72,1.477,6.369-0.384l2.076-2.354l-0.011-0.603L91.841,356.416z"/>
	<polygon fill="#282183" points="121.195,317.865 121.135,317.32 111.246,328.574 111.291,329.141 111.951,340.977 111.997,341.546 
		121.893,330.348 121.86,329.77 	"/>
	<path fill="#282183" d="M127.936,309.699l-0.126,0.026l-1.693,1.928l0.048,0.562l0.29,4.84l0.426,7.035l0.017,0.59l7.544-8.532
		l0.018-0.116c0.065-0.405,0.095-0.803,0.095-1.185c0-1.665-0.599-3.118-1.732-4.096C131.568,309.658,129.83,309.28,127.936,309.699
		"/>
	<path fill="#8E9090" d="M180.44,260.66c-5.719,0.967-11.495,2.275-17.126,3.998c-8.229,5.572-15.41,9.099-16.77,9.748
		c-6.326,3.037-17.984,8.613-29.349,10.881c1.144,1.013,41.204,36.603,42.34,37.615c0.458-5.733,1.741-12.198,3.95-19.771
		c-0.919-3.314-1.396-6.724-1.396-10.131v-0.048C162.1,279.627,169.112,267.49,180.44,260.66"/>
	<path fill="#8E9090" d="M235.999,264.77c-5.394-1.672-10.858-2.946-16.274-3.918c11.137,6.881,18.019,18.945,18.019,32.133v0.035
		c0,3.858-0.601,7.668-1.754,11.332c1.965,6.986,3.153,13.227,3.581,18.61c1.143-1.005,41.263-36.521,42.404-37.528
		c-11.354-2.297-23.002-7.889-29.326-10.932C251.283,273.843,244.062,270.275,235.999,264.77"/>
	<path fill="#282183" d="M271.865,309.819c-1.885-0.417-3.626-0.053-4.893,1.044c-1.387,1.208-1.983,3.127-1.642,5.277l0.019,0.115
		l7.492,8.509l0.057-0.554l0.15-2.342l0.587-9.529l0.032-0.577c-1.062-1.219-1.672-1.919-1.672-1.919L271.865,309.819z"/>
	<path fill="#282183" d="M307.463,363.448l-0.021,0.588l2.084,2.364c1.644,1.862,4.5,2.04,6.363,0.393
		c0.901-0.79,1.439-1.892,1.516-3.095c0.006-0.101,0.006-0.197,0.006-0.29c0-1.102-0.391-2.146-1.123-2.979
		c0,0-3.289-3.753-8.064-9.214l-0.035,0.572L307.463,363.448z"/>
	<path fill="#282183" d="M277.91,329.902l-0.046,0.564l9.899,11.229l0.035-0.569l0.342-5.918l0.336-5.92l0.013-0.604
		c-3.65-4.165-7.083-8.085-9.863-11.255l-0.035,0.571L277.91,329.902z"/>
	<path fill="#282183" d="M292.982,342.559l-0.241,4.176l-0.031,0.58l9.89,11.229l0.03-0.585l0.528-9.232l0.146-2.508l0.016-0.597
		c-3.098-3.537-6.493-7.405-9.858-11.259l-0.045,0.562L292.982,342.559z"/>
</g>
</svg>
