<?xml version="1.0" encoding="utf-8"?>
<!-- Generator: Adobe Illustrator 16.2.1, SVG Export Plug-In . SVG Version: 6.00 Build 0)  -->
<!DOCTYPE svg PUBLIC "-//W3C//DTD SVG 1.1//EN" "http://www.w3.org/Graphics/SVG/1.1/DTD/svg11.dtd">
<svg version="1.1" id="Layer_2" xmlns="http://www.w3.org/2000/svg" xmlns:xlink="http://www.w3.org/1999/xlink" x="0px" y="0px"
	 width="400px" height="400px" viewBox="0 0 400 400" enable-background="new 0 0 400 400" xml:space="preserve">
<g>
	<path fill-rule="evenodd" clip-rule="evenodd" fill="#C4CED4" d="M379.014,173.523c1.231-4.228,3.149-10.793,3.149-10.793
		l-14.219-5.76c-0.607-0.249-1.234-0.498-1.851-0.744l2.471-7.196l-13.491-4.356c1.061-3.579,1.684-5.698,1.704-5.778l1.578-5.384
		l-5.317-1.805c-50.278-17.058-96.985-24.666-151.445-24.666c-54.441,0-101.143,7.608-151.424,24.666l-5.315,1.805l1.577,5.384
		c0.024,0.08,0.645,2.199,1.708,5.778l-13.496,4.356l2.473,7.201c-0.616,0.246-1.237,0.487-1.85,0.739l-14.223,5.76
		c0,0,1.917,6.566,3.151,10.793c-4.008,1.446-12.374,4.455-12.374,4.455l30.527,93.043c0,0,8.121-2.925,12.624-4.543
		c1.838,4.833,4.075,10.699,4.075,10.699l16.135-6.651c0.517-0.215,1.024-0.409,1.538-0.622l1.674,5.261l5.906-2.616
		c4.838-2.074,19.648-8.107,39.833-13.424c-7.169,10.68-14.78,22.02-14.78,22.02s42.024-13.737,46.176-15.094
		c1.494,3.605,18.326,44.104,18.326,44.104s12.191-41.862,13.327-45.765c3.391,0.877,52.656,13.552,52.656,13.552
		s-13.979-16.15-24.255-28.023c47.517,0.391,90.467,17.116,103.326,22.631l5.932,2.542l1.647-5.187
		c0.516,0.213,1.023,0.407,1.542,0.622l16.137,6.653c0,0,2.229-5.868,4.07-10.701c4.502,1.618,12.623,4.543,12.623,4.543
		l30.529-93.043C391.389,177.978,383.021,174.969,379.014,173.523"/>
	<path fill-rule="evenodd" clip-rule="evenodd" d="M371.432,177.383c0.124-0.415,3.216-11.013,3.216-11.013l-9.033-3.658
		c-2.314-0.94-4.651-1.853-6.998-2.755l2.471-7.187l-13.264-4.278c2.072-6.935,3.331-11.24,3.331-11.24
		c-46.335-15.72-92.085-24.354-149.562-24.354c-57.476,0-103.203,8.634-149.54,24.354c0,0,1.258,4.31,3.33,11.24l-13.26,4.278
		l2.471,7.187c-2.348,0.902-4.686,1.815-7.001,2.755l-9.033,3.658c0,0,3.093,10.6,3.214,11.013
		c-0.735,0.262-12.19,4.389-12.19,4.389l26.663,81.26c0,0,11.834-4.258,12.349-4.44l3.974,10.431l10.247-4.227
		c2.5-1.031,4.982-2.024,7.462-2.99c0.91,2.865,1.513,4.752,1.716,5.358c5.83-2.499,26.606-11.007,54.15-16.974
		c-6.312,9.402-14.563,21.702-14.563,21.702s36.217-11.842,36.787-12.026c0.276,0.668,14.654,35.269,14.654,35.269
		s10.501-36.06,10.717-36.789c0.904,0.232,41.855,10.77,41.855,10.77s-13.447-15.538-21.498-24.837
		c55.72-2.705,107.27,18.661,117.119,22.886c0.203-0.606,0.806-2.493,1.719-5.358c2.477,0.966,4.962,1.959,7.458,2.99l10.246,4.227
		l3.975-10.431c0.518,0.183,12.348,4.44,12.348,4.44l26.663-81.26C383.623,181.772,372.167,177.645,371.432,177.383"/>
	<path fill="none" stroke="#000000" stroke-width="0.225" stroke-miterlimit="3.864" d="M371.432,177.383
		c0.124-0.415,3.216-11.013,3.216-11.013l-9.033-3.658c-2.314-0.94-4.651-1.853-6.998-2.755l2.471-7.187l-13.264-4.278
		c2.072-6.935,3.331-11.24,3.331-11.24c-46.335-15.72-92.085-24.354-149.562-24.354c-57.476,0-103.203,8.634-149.54,24.354
		c0,0,1.258,4.31,3.33,11.24l-13.26,4.278l2.471,7.187c-2.348,0.902-4.686,1.815-7.001,2.755l-9.033,3.658
		c0,0,3.093,10.6,3.214,11.013c-0.735,0.262-12.19,4.389-12.19,4.389l26.663,81.26c0,0,11.834-4.258,12.349-4.44l3.974,10.431
		l10.247-4.227c2.5-1.031,4.982-2.024,7.462-2.99c0.91,2.865,1.513,4.752,1.716,5.358c5.83-2.499,26.606-11.007,54.15-16.974
		c-6.312,9.402-14.563,21.702-14.563,21.702s36.217-11.842,36.787-12.026c0.276,0.668,14.654,35.269,14.654,35.269
		s10.501-36.06,10.717-36.789c0.904,0.232,41.855,10.77,41.855,10.77s-13.447-15.538-21.498-24.837
		c55.72-2.705,107.27,18.661,117.119,22.886c0.203-0.606,0.806-2.493,1.719-5.358c2.477,0.966,4.962,1.959,7.458,2.99l10.246,4.227
		l3.975-10.431c0.518,0.183,12.348,4.44,12.348,4.44l26.663-81.26C383.623,181.772,372.167,177.645,371.432,177.383z"/>
	<path fill-rule="evenodd" clip-rule="evenodd" fill="#FFFFFF" d="M41.031,171.192L41.031,171.192c0,0-0.684,0.277-1.367,0.555
		c0.643,2.206,3.306,11.333,3.306,11.333s-9.583,3.45-11.916,4.291c0.946,2.879,19.957,60.818,20.952,63.86
		c2.43-0.875,11.942-4.295,11.942-4.295s2.961,7.763,3.827,10.036c0.773-0.322,1.552-0.641,1.552-0.641
		c45.326-18.697,87.36-27.406,132.278-27.406s86.949,8.709,132.28,27.406c0,0,0.775,0.318,1.55,0.641
		c0.865-2.273,3.824-10.036,3.824-10.036s9.514,3.422,11.94,4.295c0.995-3.042,20.008-60.981,20.956-63.86
		c-2.335-0.841-11.92-4.291-11.92-4.291s2.664-9.126,3.308-11.333c-0.684-0.277-1.368-0.555-1.368-0.555
		c-49.475-20.06-106.426-31.103-160.365-31.103C147.607,140.089,90.51,151.132,41.031,171.192"/>
	<path fill-rule="evenodd" clip-rule="evenodd" fill="#C4CED4" d="M348.087,244.858c-3.414-1.229-11.719-4.218-11.719-4.218
		s-2.647,6.948-3.766,9.895c-44.736-18.059-86.469-26.552-130.998-26.552c-44.528,0-86.263,8.493-130.996,26.552
		c-1.119-2.946-3.769-9.895-3.769-9.895s-8.307,2.988-11.719,4.218c-1.801-5.488-16.164-49.262-17.873-54.468
		c3.36-1.206,11.768-4.233,11.768-4.233s-2.406-8.245-3.345-11.468c48.255-19.125,103.562-29.66,156.136-29.66
		c52.318,0,107.48,10.536,155.729,29.66c-0.94,3.224-3.347,11.468-3.347,11.468s8.408,3.027,11.767,4.233
		C364.251,195.597,349.888,239.37,348.087,244.858"/>
	<path fill-rule="evenodd" clip-rule="evenodd" fill="#FFFFFF" d="M284.219,215.001l7.531-42.537c0-0.006,0.135-1.466,0.135-1.466
		c0.017-1.961-0.576-3.848-1.728-5.465c-1.44-2.031-3.584-3.374-6.035-3.788l-47.819-8.097l-3.326,19.648
		c0,0-6.376,37.634-6.697,39.511c2.681,0.453,19.121,3.239,21.797,3.692c0.472-2.767,3.37-19.617,3.37-19.617l13.501,2.285
		l-0.28,1.655c0,0-1.861,11.282-1.948,12.01c-0.341,2.649,0.196,3.411,0.969,4.546c0.789,1.158,2.138,1.962,3.784,2.406
		c-0.191-0.041,22.594,5.512,22.594,5.512L284.219,215.001z M269.478,181.432l-17.475-2.917l0.503-3.007l17.475,2.915
		L269.478,181.432z"/>
	<path fill-rule="evenodd" clip-rule="evenodd" fill="#FFFFFF" d="M118.526,213.928l-12.789-39.358
		c-1.586-4.878-6.851-7.561-11.731-5.976l0.013-0.006L58.124,180.25c-2.367,0.771-4.29,2.415-5.419,4.629
		c-0.677,1.329-1.02,2.747-1.02,4.217c0,0.971,0.158,1.944,0.461,2.891l12.788,39.354c1.586,4.885,6.848,7.562,11.732,5.978
		c0,0-0.119,0.051-0.182,0.074c0.301-0.112,2.963-0.979,36.063-11.731c3.845-1.253,6.433-4.815,6.433-8.86
		C118.982,215.827,118.828,214.863,118.526,213.928 M75.198,197.883l-0.951-2.899l15.808-5.197l0.951,2.9L75.198,197.883z
		 M81.272,216.156l-0.952-2.897l15.806-5.197l0.952,2.898L81.272,216.156z"/>
	<path fill-rule="evenodd" clip-rule="evenodd" fill="#FFFFFF" d="M171.195,183.705c0.005,0.027-4.054-21.102-4.054-21.102
		c-0.464-2.439-1.847-4.549-3.902-5.949c-2.056-1.4-4.535-1.918-6.979-1.453c0,0-44.577,8.457-47.65,9.042
		c0.422,2.221,9.041,47.702,9.041,47.702l1.218,6.428l0.916,4.82c0,0,19.056-3.613,21.726-4.124
		c-0.523-2.759-3.713-19.554-3.713-19.554l25.985-4.929c2.444-0.466,4.561-1.852,5.962-3.903c1.112-1.641,1.671-3.543,1.611-5.505
		L171.195,183.705z M131.899,181.861l-0.576-2.998l17.402-3.336l0.576,2.996L131.899,181.861z"/>
	<path fill-rule="evenodd" clip-rule="evenodd" fill="#FFFFFF" d="M157.516,205.146c0.064,1.523,1.31,18.401,1.31,18.401
		s-20.309,0.845-23.006,0.959c2.202,1.551,18.578,13.08,18.578,13.08s-11.424,17.024-12.912,19.237
		c2.527-0.823,21.504-7.03,21.504-7.03s7.679,18.483,8.681,20.896c0.732-2.513,6.461-22.183,6.461-22.183s21.424,5.514,24.271,6.241
		c-1.91-2.209-15.802-18.258-15.802-18.258s16.849-14.365,18.825-15.997c-2.335-0.013-13.016-0.171-13.016-0.171l2.744-3h17.797
		l21.045-37.295v-26.725h-18.506l-8.065,14.29c0,0-0.884,7.188-1.067,8.723c-0.764,1.35-7.034,12.523-9.081,16.169h-2.962
		c3.114-5.504,7.185-12.706,7.185-12.706v-26.477h-19.057l-7.767,14.25c0,0-0.817,7.217-0.994,8.785
		C172.886,177.754,157.516,205.146,157.516,205.146"/>
	<polygon fill-rule="evenodd" clip-rule="evenodd" points="218.386,158.266 212.233,169.173 211.164,177.895 200.181,197.45 
		185.802,197.45 196.536,178.473 196.536,158.266 185.394,158.266 179.498,169.077 178.5,177.895 162.848,205.788 165.47,212.36 
		175.215,212.36 170.779,223.593 162.475,214.613 163.451,227.798 149.059,228.398 160.506,236.456 152.352,248.604 
		165.513,244.301 170.933,257.342 175.07,243.132 189.745,246.909 180.269,235.961 191.929,226.333 179.894,227.078 192.915,212.36 
		210.053,212.36 229.034,178.725 229.034,158.266 	"/>
	<path fill-rule="evenodd" clip-rule="evenodd" fill="#FFFFFF" d="M350.332,184.669c-1.132-2.219-3.06-3.862-5.422-4.63
		l-35.88-11.659c-2.365-0.768-4.891-0.569-7.105,0.563c-2.216,1.129-3.859,3.053-4.627,5.417l-12.787,39.354
		c-0.308,0.95-0.46,1.923-0.46,2.89c0,1.45,0.343,2.888,1.017,4.215c1.131,2.217,3.059,3.858,5.422,4.63l35.878,11.659
		c2.365,0.769,4.888,0.567,7.104-0.562c2.214-1.126,3.86-3.05,4.627-5.419l12.789-39.354c0.308-0.948,0.459-1.921,0.459-2.889
		C351.347,187.435,351.007,185.994,350.332,184.669 M322.663,215.764l-15.805-5.196l0.956-2.896l15.802,5.198L322.663,215.764z
		 M328.739,197.492l-15.811-5.198l0.955-2.896l15.809,5.199L328.739,197.492z"/>
	<polygon fill-rule="evenodd" clip-rule="evenodd" fill="#C4CED4" points="219.89,161.195 216.085,167.996 221.282,167.996 
		224.899,161.195 	"/>
	<polygon fill="none" stroke="#000000" stroke-width="0.225" stroke-miterlimit="3.864" points="219.89,161.195 216.085,167.996 
		221.282,167.996 224.899,161.195 	"/>
	<polygon fill-rule="evenodd" clip-rule="evenodd" fill="#C4CED4" points="192.559,161.195 187.161,161.198 183.391,168.003 
		188.991,167.992 	"/>
	<polygon fill="none" stroke="#000000" stroke-width="0.225" stroke-miterlimit="3.864" points="192.559,161.195 187.161,161.198 
		183.391,168.003 188.991,167.992 	"/>
	<path fill-rule="evenodd" clip-rule="evenodd" fill="#C4CED4" d="M202.178,200.089h-27.31l11.382-20.035h-5.35l-13.74,24.252
		h15.239l-11.148,25.433l-5.026-5.436l0.503,6.858l-7.483,0.312l5.957,4.19l-4.241,6.312l6.842-2.232l2.821,6.778l2.152-7.387
		l7.628,1.963l-4.928-5.691l6.064-5.007l-8.505,0.522l-0.592-0.002l17.619-26.613h15.266l13.503-24.252h-5.267L202.178,200.089z
		 M169.652,236.968c-1.036,0-1.874-0.838-1.874-1.874c0-1.033,0.838-1.875,1.874-1.875c1.031,0,1.875,0.842,1.875,1.875
		C171.526,236.13,170.683,236.968,169.652,236.968"/>
	<path fill="none" stroke="#000000" stroke-width="0.225" stroke-miterlimit="3.864" d="M202.178,200.089h-27.31l11.382-20.035
		h-5.35l-13.74,24.252h15.239l-11.148,25.433l-5.026-5.436l0.503,6.858l-7.483,0.312l5.957,4.19l-4.241,6.312l6.842-2.232
		l2.821,6.778l2.152-7.387l7.628,1.963l-4.928-5.691l6.064-5.007l-8.505,0.522l-0.592-0.002l17.619-26.613h15.266l13.503-24.252
		h-5.267L202.178,200.089z M169.652,236.968c-1.036,0-1.874-0.838-1.874-1.874c0-1.033,0.838-1.875,1.874-1.875
		c1.031,0,1.875,0.842,1.875,1.875C171.526,236.13,170.683,236.968,169.652,236.968z"/>
	<polygon fill-rule="evenodd" clip-rule="evenodd" fill="#C4CED4" points="187.582,170.739 182.695,170.739 182.063,176.563 
		187.107,176.574 	"/>
	<polygon fill="none" stroke="#000000" stroke-width="0.225" stroke-miterlimit="3.864" points="187.582,170.739 182.695,170.739 
		182.063,176.563 187.107,176.574 	"/>
	<polygon fill-rule="evenodd" clip-rule="evenodd" fill="#C4CED4" points="214.643,176.563 219.689,176.575 220.159,170.738 
		215.275,170.738 	"/>
	<polygon fill="none" stroke="#000000" stroke-width="0.225" stroke-miterlimit="3.864" points="214.643,176.563 219.689,176.575 
		220.159,170.738 215.275,170.738 	"/>
	<path fill-rule="evenodd" clip-rule="evenodd" fill="#FFFFFF" d="M72.725,149.427c0.676,2.522,2.137,2.782,5.381,1.914l4.317-1.158
		c4.736-1.267,5.656-2.066,4.817-5.194c-0.908-3.386-2.281-3.38-7.813-1.877c-3.817,1.038-4.257,1.122-4.53,0.111
		c-0.169-0.627,0.308-1.047,1.107-1.262l3.95-1.056c1.637-0.44,1.828-0.112,2.055,0.74l3.564-0.957l-0.099-0.366
		c-0.549-2.041-1.308-3.336-5.415-2.234l-4.975,1.331c-4.495,1.208-4.254,2.881-3.692,4.983c0.769,2.854,1.547,3.335,6.91,1.898
		c4.59-1.23,5.026-1.276,5.294-0.267c0.242,0.902-0.51,1.186-1.261,1.389l-4.368,1.168c-1.025,0.279-1.549,0.314-1.895-0.916
		l-3.564,0.953L72.725,149.427z"/>
	<path fill-rule="evenodd" clip-rule="evenodd" fill="#FFFFFF" d="M98.266,145.933l4.029-0.858l0.617-2.307l7.311-1.552l1.566,1.84
		l4.013-0.853l-8.969-10.391l-4.694,0.997L98.266,145.933z M105.057,135.043l3.282,3.923l-4.618,0.981L105.057,135.043z"/>
	<polygon fill-rule="evenodd" clip-rule="evenodd" fill="#FFFFFF" points="126.265,140.359 129.91,139.785 128.542,131.156 
		128.572,131.145 136.788,138.696 142.43,137.803 140.55,125.923 136.905,126.498 138.273,135.13 138.239,135.134 130.029,127.587 
		124.384,128.48 	"/>
	<path fill-rule="evenodd" clip-rule="evenodd" fill="#FFFFFF" d="M164.661,135.618l4.113-0.217l0.97-2.182l7.463-0.389l1.26,2.063
		l4.097-0.215l-7.233-11.667l-4.796,0.251L164.661,135.618z M173.07,125.926l2.628,4.388l-4.714,0.245L173.07,125.926z"/>
	<polygon fill-rule="evenodd" clip-rule="evenodd" fill="#FFFFFF" points="193.179,134.339 196.866,134.339 196.866,125.598 
		196.901,125.598 203.83,134.339 209.548,134.339 209.548,122.31 205.859,122.31 205.859,131.047 205.826,131.047 198.894,122.31 
		193.179,122.31 	"/>
	<polygon fill-rule="evenodd" clip-rule="evenodd" fill="#FFFFFF" points="220.937,125.514 226.116,125.784 225.639,134.811 
		229.325,135.002 229.798,125.977 234.973,126.249 235.13,123.262 221.093,122.527 	"/>
	<path fill-rule="evenodd" clip-rule="evenodd" fill="#FFFFFF" d="M245.564,131.956c-0.37,3.501,1.511,4.533,4.815,4.881
		l5.885,0.621c3.303,0.344,5.354-0.271,5.722-3.778l0.374-3.57c0.37-3.501-1.51-4.535-4.812-4.883l-5.882-0.614
		c-3.307-0.348-5.357,0.271-5.726,3.775L245.564,131.956 M249.587,129.92c0.155-1.485,0.615-2.358,2.549-2.153l4.297,0.45
		c1.934,0.205,2.204,1.15,2.044,2.639l-0.135,1.288c-0.183,1.736-0.618,2.359-2.35,2.177l-4.689-0.493
		c-1.74-0.183-2.036-0.881-1.852-2.619L249.587,129.92z"/>
	<polygon fill-rule="evenodd" clip-rule="evenodd" fill="#FFFFFF" points="273.023,139.523 276.655,140.162 278.173,131.557 
		278.204,131.563 283.511,141.372 289.141,142.366 291.23,130.517 287.597,129.879 286.078,138.486 286.044,138.479 
		280.738,128.668 275.112,127.675 	"/>
	
		<rect x="302.053" y="133.21" transform="matrix(-0.9783 -0.2072 0.2072 -0.9783 572.3522 338.3998)" fill-rule="evenodd" clip-rule="evenodd" fill="#FFFFFF" width="3.692" height="12.028"/>
	<path fill-rule="evenodd" clip-rule="evenodd" fill="#FFFFFF" d="M316.946,144.208c-0.91,3.403,0.784,4.717,3.994,5.577
		l5.713,1.528c3.212,0.862,5.337,0.57,6.248-2.831l0.926-3.466c0.914-3.403-0.781-4.716-3.988-5.578l-5.717-1.531
		c-3.211-0.86-5.334-0.569-6.242,2.834L316.946,144.208 M321.238,142.83c0.39-1.448,0.979-2.234,2.854-1.729l4.174,1.118
		c1.876,0.502,1.994,1.48,1.607,2.924l-0.335,1.252c-0.452,1.684-0.977,2.232-2.661,1.779l-4.562-1.222
		c-1.682-0.451-1.865-1.188-1.411-2.874L321.238,142.83z"/>
	<path fill-rule="evenodd" clip-rule="evenodd" d="M82.727,209.373l-13.696,4.451c-2.293,0.745-4.757-0.511-5.503-2.807l-0.541-1.66
		l-6.14-18.899c-0.745-2.294,0.51-4.762,2.805-5.502l35.88-11.66c2.294-0.746,4.758,0.509,5.503,2.802l3.442,10.593l-11.557,3.754
		l-0.911-2.803c-0.297-0.916-1.283-1.419-2.201-1.121l-17.727,5.759c-0.92,0.301-1.421,1.282-1.123,2.201l1.587,4.883
		c0.299,0.914,1.284,1.418,2.2,1.119l4.154-1.35l22.639-7.355c2.295-0.744,4.759,0.511,5.505,2.806l0.672,2.077l6.109,18.796
		c0.745,2.296-0.51,4.757-2.802,5.502l-35.885,11.662c-2.292,0.743-4.757-0.511-5.501-2.805l-3.578-11.01l11.582-3.761l1.018,3.128
		c0.299,0.917,1.282,1.419,2.198,1.122l17.732-5.762c0.916-0.299,1.416-1.283,1.118-2.202l-1.601-4.93
		c-0.299-0.918-1.34-1.588-2.256-1.291L82.727,209.373z M324.94,210.665c0.913,0.297,1.363,1.453,1.062,2.371l-1.604,4.932
		c-0.295,0.919-1.279,1.419-2.199,1.119l-17.729-5.761c-0.913-0.298-1.418-1.28-1.12-2.198l1.017-3.13l-11.58-3.763l-3.579,11.008
		c-0.743,2.296,0.512,4.759,2.807,5.506l35.88,11.656c2.297,0.746,4.76-0.513,5.505-2.804l6.106-18.798l0.676-2.073
		c0.744-2.297-0.512-4.76-2.807-5.506l-22.638-7.355l-4.154-1.351c-0.919-0.298-1.418-1.285-1.118-2.201l1.584-4.881
		c0.297-0.918,1.284-1.419,2.202-1.122l17.725,5.759c0.919,0.3,1.421,1.283,1.122,2.205l-0.98,2.78l11.628,3.777l3.442-10.592
		c0.744-2.296-0.513-4.762-2.807-5.503l-35.879-11.661c-2.296-0.745-4.759,0.51-5.507,2.804l-6.137,18.902l-0.54,1.662
		c-0.748,2.291,0.508,4.756,2.803,5.499l13.694,4.454L324.94,210.665z M249.214,180.526l21.528,3.646
		c0.954,0.16,1.853-0.48,2.015-1.432l0.801-5.034c0.159-0.954-0.479-1.854-1.432-2.017l-21.525-3.644L249.214,180.526
		 M286.874,171.654c0.401-2.377-1.195-4.63-3.574-5.035l-42.947-7.273l-8.373,49.414l12.059,2.042l3.374-19.616l15.552,2.633
		l5.973,1.011c0.951,0.161,1.591,1.062,1.434,2.012l-2.554,14.777c-0.527,3.12,1.263,3.315,2.048,3.469
		c0.871,0.174,10.342,1.839,10.342,1.839c-0.287-0.301-0.868-1.364-0.397-3.501l2.982-17.354c0.256-1.717-0.569-3.204-1.996-3.884
		c2.021-0.215,2.948-1.793,3.238-3.439l0.253-1.506L286.874,171.654z M130.006,184.962l21.508-4.08
		c0.948-0.182,1.57-1.096,1.39-2.042l-0.999-5.002c-0.181-0.948-1.095-1.569-2.043-1.389l-21.455,4.069L130.006,184.962
		 M135.731,215.138l-12.015,2.278l-9.333-49.24l42.797-8.118c2.372-0.452,4.658,1.106,5.107,3.477l4.054,21.091
		c0.448,2.371-1.107,4.657-3.478,5.104l-30.843,5.85L135.731,215.138z"/>
</g>
</svg>
