<?xml version="1.0" encoding="utf-8"?>
<!-- Generator: Adobe Illustrator 16.0.0, SVG Export Plug-In . SVG Version: 6.00 Build 0)  -->
<!DOCTYPE svg PUBLIC "-//W3C//DTD SVG 1.1//EN" "http://www.w3.org/Graphics/SVG/1.1/DTD/svg11.dtd">
<svg version="1.1" id="Layer_1" xmlns="http://www.w3.org/2000/svg" xmlns:xlink="http://www.w3.org/1999/xlink" x="0px" y="0px"
	 width="400px" height="400px" viewBox="0 0 400 400" enable-background="new 0 0 400 400" xml:space="preserve">
<g>
	<path fill="#C3002F" d="M289.6,273.4c2.2,0.7,4.2,1.7,5.8,2.7c1.5-0.7,3.6-0.7,5.6-0.2c3.1-6.2,5.8-12.7,7.9-19.4
		c-4.3,1.9-8.9,3.8-14,5.6C293.3,265.9,291.6,269.7,289.6,273.4"/>
	<path fill="#C3002F" d="M303.8,216.3c0,5.2-0.4,10.2-1,15.2c3.7-0.9,7.6-1.9,11.7-3.2c0.4-4,0.6-8,0.6-12.1c0-3.2-0.1-6.3-0.4-9.4
		l-11.1,2.5C303.7,211.6,303.8,214,303.8,216.3"/>
	<path fill="#C3002F" d="M261.5,318.5l0-0.1l0.4-0.8c-0.3,0-0.6,0.1-1,0.2c-1.8,0.5-3.6,1.2-5.1,2.3l-2.1,1.5l-0.1-0.3
		c-0.2,0.1-0.3,0.2-0.5,0.3c-0.4-1.1-0.5-2.4-0.5-3.9c-0.1-0.8,0-1.7,0.2-2.6c-19.9,14.2-44.3,22.6-70.6,22.6
		c-1.7,0-3.4-0.1-5.1-0.1c0.1,2.7-0.4,5.2-1.1,7.4c-3.3,1.8-6.6,2.6-9.7,2.9c5.2,0.6,10.5,1,15.9,1c27.8,0,53.6-8.6,75-23.2
		C258,323,259.5,320.3,261.5,318.5"/>
	<path fill="#C3002F" d="M55.5,233c1.8-1,3.9-1.7,6-2.3c-0.6-4.7-0.9-9.5-0.9-14.4c0-2.4,0.1-4.8,0.2-7.1l-11.2-2.5
		c-0.2,3.1-0.4,6.3-0.4,9.5c0,5.5,0.4,11,1,16.3C52.8,232.5,55.5,233,55.5,233"/>
	<path fill="#C3002F" d="M105.3,319.5c0.2-2.5,2.1-4.2,4.8-5.2c-6.4-4.8-12.4-10.1-17.8-16c-2.3,3-5.1,5.6-8.2,7.6c0,0,0,0,0,0
		c5.6,6.1,11.7,11.7,18.3,16.6C103.3,321.6,104.2,320.6,105.3,319.5"/>
	<path fill="#C4CED4" d="M79.3,254c-3.5,2.2-5.4,6.3-7.4,10.9c-0.2,0.4-0.4,0.8-0.6,1.2c-1.8,3.9-3.8,8-7.1,11.1
		c-2.7,2.5-6.3,4.4-11.3,5.1c0.2,1.7,0.6,3.4,1.1,5.1c2.1-0.2,4.3-0.6,6.5-1.2c1.8-0.5,4.4-1.3,7.2-2.5c3-1.3,6.4-3.1,9.7-5.7
		c2.4-1.8,4.7-4,6.8-6.6c0-1.1,0-2.1-0.1-2.8c-3.4-2.3-2.9-8-1.9-9.4C82,257.5,80.6,255.7,79.3,254"/>
	<path fill="#C4CED4" d="M71.8,247.9c-0.9,0.3-4.3,1.2-5.1,1.5c-0.7,2.3-3.3,5.4-6.4,5.5c0,0-1.8,1.2-3.9,4
		c-1.1,1.5-1.8,2.6-2.3,3.5c-1.3,5.2-2,10.6-1.7,15.9c4.5-0.6,7.5-2.5,9.7-4.9c2.6-2.8,4.3-6.4,5.9-10.1c0.3-0.7,0.7-1.5,1-2.2
		c1.8-3.9,3.9-7.6,7.3-10.1c-1.6-1.2-3.4-2.5-4.1-2.9C72.1,248,72,247.9,71.8,247.9"/>
	<path fill="#C4CED4" d="M48.4,278.5c-0.2-3.7,0-7.4,0.6-11.1c-2.4-3.2-2.9-6.5-2.8-8.8c-3.8,1.2-6.1,11-6.1,11l-0.3-0.1
		c-1.1-0.9-2-1.9-2.8-2.8C39.5,275.1,42.5,278.3,48.4,278.5"/>
	<path fill="#C4CED4" d="M51,291.7c-5,0.2-9.6-0.4-13.4-1.9c2.1,4.5,5.2,8.5,9.1,11.5c1.2-2.3,3.2-4.1,6.2-5.4
		C52.2,294.5,51.6,293.1,51,291.7"/>
	<path fill="#C4CED4" d="M48.8,282.6c-7.2-0.1-11.1-3.9-13.6-9c-0.2,1.2-0.3,2.5-0.3,3.7c0,0.4,0,0.9,0,1.3c0.1,1.9,0.4,3.8,0.8,5.6
		c3.2,2.3,8.2,3.5,14,3.5C49.4,286,49,284.3,48.8,282.6"/>
	<path fill="#C4CED4" d="M95.4,276c-6.1,7.4-15.7,8.4-15.7,8.4l-0.6-0.7c1.6-1.4,2.7-3.1,3.5-4.8c-1,0.9-2,1.7-3,2.5
		c-3,2.2-6.2,4.1-9.7,5.7c-2.7,1.2-5.4,2.2-8.4,3c-2.1,0.5-4.2,0.9-6.2,1.2c0.5,1.1,1,2.2,1.5,3.2c5.5-1.3,10.5-1.1,15.3-0.9
		c0.7,0,1.4,0.1,2.2,0.1c4.5,0.2,8.6,0.1,12.8-1.7c2.2-1,4.4-2.4,6.7-4.6c1.2-3.5,1.9-7.3,1.7-11.3C95.4,276.1,95.4,276.1,95.4,276"
		/>
	<path fill="#C4CED4" d="M71.9,297.7c-4.1-0.2-8.3-0.3-12.8,0.6c2.8,3.7,6.6,6.8,11.4,8.8c0,0,0,0,0,0c3.9-0.7,7.6-2.2,10.9-4.3
		c3.1-2,5.8-4.5,8-7.5c-4.1,2-8.1,2.4-12.1,2.5C75.5,297.9,73.7,297.8,71.9,297.7"/>
	<path fill="#C4CED4" d="M55,299.4c-2.9,1.2-4.2,2.6-4.9,4.1c3.8,2.2,8.2,3.6,12.9,4C59.8,305.3,57.1,302.5,55,299.4"/>
	<path fill="#2E2A25" d="M72,247.8c0,0-0.1,0-0.3,0.1c0.2,0,0.4,0.1,0.6,0.2C72.2,247.9,72,247.8,72,247.8"/>
	<path fill="#2E2A25" d="M72,247.8c0,0-0.1,0-0.3,0.1c0.2,0,0.4,0.1,0.6,0.2C72.2,247.9,72,247.8,72,247.8"/>
	<path fill="#2E2A25" d="M209.9,70.2c-4.5-0.8-9-1.5-13.6-1.9l5.5,9.7L209.9,70.2z"/>
	<path fill="#2E2A25" d="M91.1,98.7c-3.5,2.7-6.9,5.6-10.1,8.6l10,1.4L91.1,98.7z"/>
	<path fill="#2E2A25" d="M168.4,68.2c-4.6,0.4-9.2,1.1-13.6,1.9l8.1,7.8L168.4,68.2z"/>
	<path fill="#2E2A25" d="M283.4,107.3c-3.2-2.9-6.5-5.7-9.9-8.4l0.1,9.7L283.4,107.3z"/>
	<path fill="#2E2A25" d="M249,83.4c-3.8-1.9-7.7-3.7-11.7-5.3l2.7,9.7L249,83.4z"/>
	<path fill="#2E2A25" d="M127.5,78c-4.1,1.6-8,3.4-11.9,5.3l9.2,4.5L127.5,78z"/>
	<polygon fill="#2E2A25" points="270.1,137.5 265.2,132.5 255.5,141.4 263.6,143.8 	"/>
	<path fill="#2E2A25" d="M102.5,131.4l-2.1-0.2l-3.7,3.6l7.7,8.1c2-2.3,4.7-4.6,4.7-4.6L102.5,131.4z"/>
	<polygon fill="#2E2A25" points="148.6,115.9 150.4,113.6 147.1,104.5 144.7,104 139.8,105.8 144.1,117.8 	"/>
	<path fill="#2E2A25" d="M60.8,171c0,0-0.6,1.5-1.1,2.9c-0.4,0.9-1.1,3.3-1.1,3.3l16,5.5l-1.8-7.6L60.8,171z"/>
	<polygon fill="#2E2A25" points="229.2,107.8 222.1,104.9 213.7,126.3 220.8,129.1 	"/>
	<path fill="#C3002F" d="M105.6,95.2c1.7-1.1,2.5-3.1,1.4-5c-1.1-1.9-3.2-2-4.9-0.9c-1.7,1.1-2.5,3.1-1.4,5
		C101.8,96.2,104,96.3,105.6,95.2"/>
	<path fill="#C3002F" d="M142.6,73.6c1.3-0.4,1.5-1.1,1.3-1.8c-0.2-0.6-0.7-1.1-2-0.7l-3.7,1.1l0.7,2.5L142.6,73.6z"/>
	<path fill="#C3002F" d="M182.4,79.1c49.3,0,94.5,27.2,119.1,69l3.1-16.5l5.2-27.8l-26.2,3.6l-9.7,1.3l-0.1-9.7l-0.4-27.4L249,83.4
		l-9,4.4l-2.7-9.7l-7.6-27l-19.8,19.1l-8,7.8l-5.5-9.7l-14-24.4l-13.9,24.4l-5.6,9.7l-8.1-7.8l-19.7-19.1L127.5,78l-2.8,9.8
		l-9.2-4.5L91.5,71.6l-0.4,27.1l-0.1,10l-10-1.4l-26-3.6l5.1,27.6l3.1,16.8C87.8,106.3,133.1,79.1,182.4,79.1 M288.3,114
		c2.9-2.8,6.7-1.8,9.3,1.1c2.6,3,3.2,6.9,0.3,9.7c-2.9,2.8-6.7,1.8-9.3-1.1C286,120.8,285.4,116.8,288.3,114 M256,95.8
		c0.5,0.3,0.7,0.2,0.8,0l4.5-7.6l-3.3-2.1c-0.2-0.1-0.4-0.1-0.7,0.3l-0.2-0.1l2.1-3.6l0.2,0.1c-0.2,0.5-0.2,0.7,0,0.8l9.6,6.1
		c0.2,0.1,0.3,0.1,0.7-0.3l0.2,0.1l-2.1,3.6l-0.2-0.2c0.2-0.5,0.2-0.6,0-0.8l-3.4-2.1l-4.5,7.5c-0.1,0.2-0.1,0.4,0.3,0.7l-0.1,0.2
		l-4-2.6L256,95.8z M214.6,78.5c0.6,0.1,0.7,0,0.7-0.2l2.8-10.6c0.1-0.2,0-0.4-0.5-0.6l0.1-0.3l5.3,1.5l-0.1,0.3
		c-0.5-0.1-0.7,0-0.7,0.1c-0.1,0.3,2.6,5.5,3.7,7.8l1.6-6.1c0.1-0.3-0.1-0.4-0.4-0.5l0.1-0.3l4,1.2l-0.1,0.3c-0.5-0.1-0.7,0-0.7,0.2
		l-2.8,10.6c0,0.2,0,0.4,0.5,0.6l-0.1,0.3l-4.2-1.2l0.1-0.3c0.4,0.1,0.5,0.1,0.6-0.1c0.1-0.3-0.4-0.8-4.4-9.2l-1.9,7.2
		c-0.1,0.2,0,0.4,0.5,0.6l-0.1,0.3l-4.2-1.2L214.6,78.5z M182.4,62.7c3.9,0,7.1,2.2,7.1,6.4c0,4.1-3.2,6.4-7.1,6.4
		c-3.9,0-7.1-2.2-7.1-6.4C175.2,64.9,178.5,62.7,182.4,62.7 M141.7,68.5c3.2-1,5-0.2,5.7,2.4c0.6,2.1-0.4,3.6-2.1,4.7l3.6,3
		c0.3,0.2,0.5,0.3,0.7,0.2l0.1,0.3l-4.6,1.4l-0.1-0.3c0.3-0.1,0.4-0.3,0.4-0.6c-0.1-0.2-3.3-2.7-3.7-3.1l-2.2,0.6l1.1,3.8
		c0,0.2,0.2,0.4,0.7,0.2l0.1,0.3l-4.5,1.3l-0.1-0.3c0.6-0.2,0.6-0.4,0.5-0.6l-2.9-10.6c-0.1-0.2-0.1-0.3-0.8-0.2l-0.1-0.3
		L141.7,68.5z M100.6,86.8c3.3-2.1,7.2-2,9.3,1.5c2.1,3.5,0.5,7.2-2.8,9.3c-3.3,2.1-7.2,2-9.2-1.5C95.7,92.6,97.4,88.9,100.6,86.8
		 M62.6,120.2c0.4,0.3,0.6,0.3,0.7,0.1l7.6-8.7c0.2-0.2,0.1-0.3-0.2-0.8l0.2-0.2l3,2.8l-0.2,0.2c-0.4-0.3-0.6-0.3-0.7-0.1l-2.7,3
		l6.3,6c0.1,0.1,0.3,0.2,0.7-0.2l0.2,0.2l-3.2,3.6l-0.2-0.2c0.4-0.5,0.3-0.6,0.1-0.8l-6.3-5.9l-2.6,3c-0.2,0.2-0.1,0.3,0.2,0.8
		l-0.2,0.2l-3-2.8L62.6,120.2z"/>
	<path fill="#C3002F" d="M182.4,72.5c2,0,3.7-1.2,3.7-3.5c0-2.2-1.8-3.5-3.7-3.5c-2,0-3.7,1.3-3.7,3.5
		C178.6,71.3,180.4,72.5,182.4,72.5"/>
	<path fill="#C3002F" d="M295.7,122.3c1.6-1.5,1.3-3.7-0.1-5.2c-1.3-1.5-3.4-2-5-0.5c-1.6,1.5-1.3,3.7,0.1,5.2
		C292,123.3,294.1,123.8,295.7,122.3"/>
	<path fill="#C4CED4" d="M65.6,123c-0.3-0.4-0.3-0.6-0.2-0.8l2.6-3l6.3,5.9c0.2,0.1,0.2,0.3-0.1,0.8l0.2,0.2l3.2-3.6l-0.2-0.2
		c-0.4,0.4-0.6,0.3-0.7,0.2l-6.3-6l2.7-3c0.2-0.2,0.3-0.2,0.7,0.1l0.2-0.2l-3-2.8l-0.2,0.2c0.3,0.4,0.4,0.6,0.2,0.8l-7.6,8.7
		c-0.2,0.2-0.3,0.2-0.7-0.1l-0.2,0.2l3,2.8L65.6,123z"/>
	<path fill="#C4CED4" d="M107.1,97.7c3.3-2.1,4.9-5.8,2.8-9.3c-2.1-3.5-6-3.6-9.3-1.5c-3.3,2.1-4.9,5.8-2.8,9.3
		C99.9,99.7,103.8,99.8,107.1,97.7 M102.1,89.3c1.7-1.1,3.8-1,4.9,0.9c1.1,1.9,0.3,3.9-1.4,5c-1.7,1.1-3.8,1-4.9-0.9
		C99.6,92.4,100.4,90.4,102.1,89.3"/>
	<path fill="#C4CED4" d="M134.5,71.3l2.9,10.6c0.1,0.2,0.1,0.4-0.5,0.6l0.1,0.3l4.5-1.3l-0.1-0.3c-0.6,0.1-0.7,0-0.7-0.2l-1.1-3.8
		l2.2-0.6c0.4,0.4,3.6,2.8,3.7,3.1c0.1,0.3-0.1,0.4-0.4,0.6l0.1,0.3l4.6-1.4l-0.1-0.3c-0.2,0.1-0.5,0-0.7-0.2l-3.6-3
		c1.7-1.1,2.7-2.6,2.1-4.7c-0.7-2.6-2.4-3.4-5.6-2.4l-8,2.4l0.1,0.3C134.3,71,134.4,71.1,134.5,71.3 M142,71.1
		c1.3-0.4,1.8,0.1,2,0.7c0.2,0.7,0,1.4-1.3,1.8l-3.7,1.1l-0.7-2.5L142,71.1z"/>
	<path fill="#C4CED4" d="M182.4,75.4c3.9,0,7.1-2.2,7.1-6.4c0-4.1-3.2-6.4-7.1-6.4c-3.9,0-7.1,2.2-7.1,6.4
		C175.2,73.2,178.5,75.4,182.4,75.4 M182.4,65.6c2,0,3.7,1.2,3.7,3.5c0,2.2-1.8,3.5-3.7,3.5c-2,0-3.7-1.2-3.7-3.5
		C178.6,66.8,180.4,65.6,182.4,65.6"/>
	<path fill="#C4CED4" d="M218.8,79.7c-0.5-0.2-0.6-0.4-0.5-0.6l1.9-7.1c4,8.4,4.5,8.9,4.4,9.1c0,0.2-0.2,0.2-0.6,0.1l-0.1,0.3
		l4.2,1.2l0.1-0.3c-0.5-0.2-0.5-0.4-0.5-0.6l2.8-10.6c0-0.2,0.2-0.3,0.7-0.2l0.1-0.3l-4-1.2l-0.1,0.3c0.3,0.1,0.4,0.3,0.4,0.5
		l-1.6,6.1c-1-2.2-3.7-7.5-3.7-7.7c0-0.1,0.2-0.2,0.7-0.1l0.1-0.3l-5.3-1.5l-0.1,0.3c0.5,0.2,0.5,0.4,0.5,0.6l-2.8,10.6
		c0,0.2-0.1,0.3-0.7,0.2l-0.1,0.3l4.2,1.2L218.8,79.7z"/>
	<path fill="#C4CED4" d="M260.1,98.3c-0.5-0.4-0.4-0.5-0.3-0.7l4.5-7.5l3.4,2.1c0.2,0.1,0.2,0.3,0,0.8l0.2,0.2l2.1-3.6l-0.2-0.1
		c-0.3,0.4-0.5,0.5-0.7,0.3l-9.6-6.1c-0.2-0.1-0.2-0.3,0-0.8l-0.2-0.1l-2.1,3.6l0.2,0.1c0.3-0.4,0.5-0.5,0.7-0.3l3.3,2.1l-4.5,7.6
		c-0.1,0.2-0.2,0.3-0.8,0l-0.1,0.2l4,2.6L260.1,98.3z"/>
	<path fill="#C4CED4" d="M297.9,124.9c3-2.8,2.3-6.8-0.3-9.7c-2.6-3-6.4-3.9-9.3-1.1c-2.9,2.8-2.3,6.8,0.3,9.8
		C291.2,126.7,295,127.7,297.9,124.9 M290.6,116.6c1.6-1.5,3.7-1,5,0.5c1.3,1.5,1.6,3.7,0.1,5.2c-1.6,1.5-3.7,1-5-0.5
		C289.3,120.3,289,118.1,290.6,116.6"/>
	<path fill="#2E2A25" d="M389.1,186.9c-0.5,0.4-1.4,0.9-3,2.5c-18.4,17.9-47.4,31.5-71.6,39c-4.1,1.3-8,2.3-11.7,3.2
		c0.6-5,1-10.1,1-15.2c0-2.4-0.1-4.7-0.2-7.1l11.1-2.5l15.7-3.5c-2.2-26.5-11.5-51.1-25.9-71.8l-3.1,16.5
		c-24.6-41.8-69.8-69-119.1-69c-49.3,0-94.5,27.2-119.1,69l-3.1-16.8c-14.4,20.7-23.8,45.3-26.1,72l15.6,3.5l11.2,2.5
		c-0.1,2.4-0.2,4.7-0.2,7.1c0,4.9,0.3,9.6,0.9,14.4c-2,0.6-4.2,1.3-6,2.3c0,0-2.7-0.5-5.2-0.5c-0.9,0-1.9,0.1-2.5,0.3
		c-1.5,0.5-4.7,5.7-8.9,7.7c-2.4,1.1-3.2,4.5-2.4,7c-0.1,1-4.3,7.5-2,14.5c-0.5,1.1-1.1,2.2-1.5,3.4c0,0,0,0,0,0.1
		c-0.1,0.2-0.1,0.4-0.2,0.6c0,0,0,0.1,0,0.1c-1.4,4-2,8.3-1.9,12.6c0.8,18.9,16.8,33.7,35.7,32.9c6.5-0.3,12.5-2.4,17.6-5.7
		c0,0,0,0,0,0c0,0,0,0,0,0c3.1-2.1,5.9-4.7,8.2-7.6c5.4,5.9,11.3,11.3,17.8,16c-2.7,1-4.6,2.7-4.8,5.2c-1.1,1.1-2,2.1-2.9,3
		c-4.3,5.1-5.1,9.6-5.1,17c0,2.3,2.3,8.4,4.3,9.8c0,0,1.6-1.7,4.4-4.5c1.5,1.6,3.7,2.8,6.3,4.1c0.8,3.5,3,5.5,5.4,7.4
		c0,0,1.6-3.2,2.7-4.1l1.5,0.7c13.4,4.1,26.5-2.6,31.2-4.1c2.7-0.9,7.6,0,13.1-0.6c3.1-0.3,6.4-1.1,9.7-2.9c0.7-2.3,1.2-4.8,1.1-7.4
		c1.7,0.1,3.4,0.1,5.1,0.1c26.3,0,50.7-8.4,70.6-22.6c-0.2,0.9-0.3,1.8-0.2,2.6c0,1.4,0.1,2.8,0.5,3.9c0.2-0.1,0.3-0.2,0.5-0.3
		l0.1,0.3l2.1-1.5c1.5-1.1,3.3-1.8,5.1-2.3c0.3-0.1,0.7-0.2,1-0.2l-0.4,0.8l0,0.1c-2,1.8-3.5,4.5-4.4,7.4c-1.7,5.9-1,13.2,3.3,17.8
		c0.7-1.2,2.3-3.3,3.8-4.4l6.1,1.7c0.1,0.9,1.8,4.7,5.1,6.1c0.7-1.8,2.1-3.9,3.3-5c20.1,4.2,32-7.7,33.5-29.7
		c0.5-4,4.3-12.5,4.3-22.4c0-2.5-1.2-6.5-2.8-8.6c-0.6-0.8-4.9-2.4-8.4-3.2c-1.1-1.1-2.8-1.9-4.5-2.3c-2-0.5-4.1-0.5-5.6,0.2
		c-1.6-1.1-3.6-2.1-5.8-2.7c2-3.7,3.7-7.4,5.3-11.3c5.1-1.8,9.7-3.6,14-5.6c8.8-4,16.4-8.2,23.9-12.6c32-18.8,48-37,55.4-53.4
		C388.8,189,389.2,187.4,389.1,186.9 M258,114.7c12.4,9.2,23.7,23.3,23.7,23.3l-0.6,7.2l-8,7.6l-5.8-1.2l0.2,6.8l-8.1,8l-0.5,6.2
		l13.1-4.4l3.4-3.8l5,14.6l-8.2,2.8l2.7,7.9l7.3-2.5l5.3-24.5l14.7-4.8l3.5-5.7c5,9.9,9.7,22.4,12.3,35l-12.6,4.1l-4.1,4.3
		l-3.9-13.5l9-3l-2.7-8l-6.4,2l-4.9,23l-23.3,7.9c-1-9.2-5.2-22.2-10.7-31.4l0,0c-1.2-2.2-5.2-8.7-10.3-14.3l9.9-9l-8.6-2
		c0,0-6.2,5.9-6.2,5.8c-4-4-9.6-8.2-13.5-10.7l7-1.3l21.2-19.4L258,114.7z M270.2,253.7c0,0-3.5,2.4-6.4,3l-7.2-5.8l0.8,6.4
		c0,0-4.2,1.8-7.6,0.9c-1.3-0.3-5-7.3-6-21.5c-1.7-1.8-8-4.3-10.2-8.9c-4.1,2.5-10.7,3.1-15.2,1.2c-2.2,5.6-9.5,5.1-13.3,4.6
		c-4.3-0.5-9.9-4.8-13.7-11.2c-0.7-1.2-1.2-2.2-1.7-3.5l0.5,0c6.9-0.4,16.1-3.5,17.8-11.8l-3.7-3c0,0,0.3-0.4,0.8-1.6l0.2-0.3
		c1.9,0.5,4.4,1.5,8.5,3.9c4.5,2.6,7.2,7,7.2,7c1.3-3.6-2.3-7.9-2.3-7.9c4.4-2.2,17.9-2.3,26.2,0.8c3,1.1,10.6,13.7,12.8,21.6
		c0,0,0.1,0.5,0.2,5.7c0,0,2.7-2,3.5-2.7c0,0,9.9,3.5,15,12.4c0,0,1.3-5-1.1-8l0.6-1.9c0,0,6.2,1.7,7.3,4.3c0,0-1.7,8.8-3.4,10.4
		c-1.6,1.6-4.2,2.9-4.2,2.9s-4.8-1.8-9-3.8C266.6,246.8,269.3,252.6,270.2,253.7 M263.9,265.8c0-0.1-0.3,2.2-1.4,4.1l-2,2.7
		c-2.4-1.4-3.5-3.6-4.8-6.1c-0.6-1.2-1.2-2.4-2.1-3.7c2.1-0.2,5.1-0.9,6.9-1.4C261.4,263.1,262.6,264.6,263.9,265.8 M181.5,270
		c0,0-6.1-1.2-9.1-2.5c-19.1-12.7-30.2-13.9-38.7-33.5c-1.6-3.7-1.6-5.1-1.6-5.1s-2.1-9.9,0.9-14.6c0,0,4.8,30.3,28,30.8
		c3.2-1.8,7.7-7.6,8.9-14.1c0.7-4-1-10.8,0.9-18.7c0.8,0.6,1.7,1.1,2.7,1.7c-0.4,16.1,8.3,25,13.7,29.2c5.9,4.5,13.4,7.5,23.4,7.1
		c8.9-0.3,18.9-5.1,23.4-12.1l0.8-1.4c1.4,1.3,3.1,2.7,4.1,3.3c0.3,4.9,0.7,8.3,2.1,13.3c-14.9,16.3-34.8,20.3-46.2,18.8
		c0,0,7.6-0.7,12.6-5.7C201.5,268.2,187.8,270.6,181.5,270 M153.1,144.6c0,0,5.1-6.3,7.2-8.6c4.2-0.2,12.8,0.8,15.5,2.2
		c2.8,1.4,4.3,5.3,8.8,6.5c0,0,0.2-0.3,0.2-0.3c-0.7-0.6-3.2-3.2-3.3-4.1c-0.2-1.2-1-3.3-1.8-3.8l2.4-1.1c0,0,8.2,3.6,10.3,4.2
		c2,0.5,1.5,2.3,1.5,2.3s-3.9-0.6-5.2-1.8c0,0-0.3,3.4,7.5,5c7.1,1.5,20.7,4.2,23.6,6c0.6,1.4,1.7,4.6,1.7,4.6s-2.2,3.7-2.2,7.3
		c0,0,0.3,0.1,0.3,0.1c0.5-0.8,1.4-2.5,2.6-2.7c0,0,0.8,3,0.9,5.5c-2,1.1-4.5,1.3-6.5,1.5c-6.3,0.7-16.8-5.1-19-4.9
		c-2.2,0.2-13.5,3.2-16.1,3c-2.5-0.2-6.5-2.4-8.9-2.4c-1.6,0-15.1,8.5-17.9,24.7c0,0,9.6,0.3,12.3,1.6c2,1,9.7,13,14,15.8
		c4.3,2.8,10.7,4.3,21.3,3.3c0,0-5,5.8-12,5.8c-7.2,0-14.1-4.2-19.7-11.7c-1.2-1.6-6.5-5.4-7.9-6.2c-3.6-2-13.4-1.8-18.5-7.6
		c-4.5-5-4.5-9.8-3.6-12.8c0,0-3.5,2.3-3.3,7.3c0.2,4.1,1.7,7,3.6,9.3c4.6,5.4,12.3,6.9,17.1,8.9c4.3,1.8,4.8,4.1,4.8,4.1
		s-8.4,2.9-21.4-4.4c0,0,4.8,13.8,22.6,11.1l0.4-0.1c0,0-3.8,8.5-20.9,3.6c0,0,4.1,6.2,10.6,6.7c3.3,0.3,6.8,0.3,10.4-2.3
		c0,0.2-0.2,1.8-1.9,4.3c-1.5,2.2-5.4,4.7-11.1,3c4.9,6.3,11.9,4.9,11.9,4.9c-0.9,2-3,5.6-4.5,6.6c-3.9-0.2-9.1-2.9-14.4-10.1
		c-5.8-7.8-5.2-18.7-8.6-24.9c-3.9-7.2-7.1-11.7-9.1-16.3c-3.5-7.8-3.1-15.2-3.1-17.5c0-2.3,2-13.3,8.5-19.8c6.1-6.2,9.6-8,20-11.1
		C152.5,139.5,152,142.9,153.1,144.6 M212.5,171.3c1.2,0.3,4.8,0.3,6.1,0.1c-1.7,1.8-3.3,4.8-5.6,6.4
		C213,177.9,213.3,173.2,212.5,171.3 M204.7,169.1c0,0,3,1.5,5.2,1.8c0,0-2.4,3.7-5.1,4.9C205.2,174.7,205.1,170.5,204.7,169.1
		 M184.7,198c0.1-0.6,0.2-1.1,0.2-1.7c0.4-2.4,0.1-5.1-0.8-7.7c-0.2-0.1-1.2,0.5-1.2,0.5l-4.8,2.6c0.2-0.5,0.3-0.9,0.4-1.4
		c0,0,0,0,0,0c0-0.1,0-0.2,0.1-0.3c0.9-3.3,0.3-6.4,0-7.8l-0.1-0.6c-0.1,0-0.1,0.1-0.1,0.1c0,0,0,0,0-0.1c-0.3,0.2-0.5,0.4-0.8,0.5
		c-2.4,1.4-4.9,2.6-5.3,2.7c0-0.4,0-0.9,0-1.3c-0.1-3.7-1.9-7.5-1.9-7.5c0,0-0.1,0.1-0.1,0.1c0,0,0,0,0,0c-0.2,0.2-0.5,0.4-0.7,0.6
		c-3.2,2.5-7.4,5.2-8,5.6c0.1-0.5,0.2-1,0.4-1.4c1-2.4,2.6-4.9,3.7-6.1c6.9,0.2,12.2,2.8,14.9,5.2c2.2,1.9,3.2,4.4,4.1,6.6
		c0.7,1.7,1.3,3.3,2.4,4.5c2,2.2,3.6,2.8,4.7,3.3l1.2,0.6l0.6,0.4c1.5,1.1,2,1.4,2.2,2.1c-0.7,1.5-3.2,3.6-3.6,3.9
		c0-0.4-0.1-0.7-0.2-1.1c-0.2-2.3-1-4.6-1.7-5.9c0,0-0.1,0.1-0.1,0.1c0,0,0,0,0,0c0,0-0.1,0.1-0.1,0.1
		C188.8,195.4,185.7,197.5,184.7,198 M189.1,204.4c-1,0-3.7-0.7-4.9-2.1c0.9-0.6,4.3-3,5.1-4.6C190,200.2,189.6,202.7,189.1,204.4
		 M181,199.3c-1-0.7-3.1-2.6-3.7-3.7c0.9-0.3,3.8-1.9,5-3.3C182.7,194,182.8,196.9,181,199.3 M175,192.2c-0.8-1.4-2.8-3.4-3.1-3.9
		c1.4-0.5,3.9-2,4.9-3C176.9,187.7,175.7,191.3,175,192.2 M169,185.3c-1.5-0.6-2.8-0.9-5.3-1.2c1.5-0.8,4.6-3,5.6-4.1
		C169.3,182.2,169.6,183.7,169,185.3 M172.3,166.9c1.4,0.7,6.1,1.8,6.1,1.8s-0.6,3-5.3,5.1C173.1,173.8,173.5,168.9,172.3,166.9
		 M181,169.6c1.7,0.2,5.3-0.7,5.3-0.7s-1,5-4.2,6.6C182.1,175.5,181.8,170.8,181,169.6 M188.6,168.5l5.8-1.2c0,0-0.9,5.4-4.7,7.2
		C190,173.1,189.6,169.7,188.6,168.5 M197.5,199.3c0.6,1.1,0.9,4.1,0.8,5.6c-2.1,0.5-3.2,0.3-4.9,0
		C195,203.2,196.6,200.9,197.5,199.3 M196.9,174.3c0.5-1.3,0.5-6.6,0.1-7.9c1.3,0.4,4.8,1.7,4.8,1.7S200.3,172.9,196.9,174.3
		 M184.4,218c1.6,6,5.2,11.7,10.1,15.5c9.9,7.5,20.4,6,26.1,1.3l0.3-0.1l0.2,0c3.1,0.4,6,0.2,8.6-0.6l1.1-0.3l-0.3,0.9
		c-2.4,7-18,13.9-28.8,10.9c-10.2-2.9-16.9-8.3-21.1-17c-1.9-4-3-9.7-3.2-12.3l-0.1-0.7l1.6,0.6l5.3,1.6L184.4,218z M266.3,220.7
		c2.1,1.8,3.6,3.9,4.5,10.1c0,0-2.4-2.1-5.5-3.4C265.8,226.1,266.6,223,266.3,220.7 M277.2,218.8c5.4,3.7,4.7,11.5,4.7,11.5
		c-0.9-1.1-4.4-2.4-5.8-2.6C277,226.2,277.8,221.5,277.2,218.8 M220.4,95.5c3.3,0.9,13.5,4.8,16.6,6.5l5.9,7.5l-11.2,27.8l-9.6,0.8
		c0,0-10-4.6-16.1-6.4l-6.4-7.2l11.2-27.9L220.4,95.5z M165.4,90.6c12-1.8,26.5-1.4,35.9,0.2l-0.1,13.2L190.1,98l-0.2,26.1l4.1,5.3
		c0,0-5.9-0.7-11.2-0.8c-5.3,0-10.7,0.7-10.7,0.7l4.2-5.4l0.2-26.1l-11.2,5.9C165.3,103.8,165.4,90.6,165.4,90.6 M53,189.2l-7.3,2.1
		c3.4-17.8,9.6-31.3,9.6-31.3l6.9-2.6l16.2,5.5L80,169l5-4l18,5.9l4.3-1.2l-0.7-5l-21.2-21.5l-6.6-0.7c6.7-9.7,15.5-18.4,21.1-22.9
		l10,0l21.1,21.9l3.8,0.5l1.6-6.9l-9.2-25.2l-6.7-4.6c8.7-5.2,22.9-10.2,29-11.7l7.2,1.6l6.8,18l-5.1,7l-11.3,4.9l1.6,4.9
		c0,0,6,3,5.9,3c-7.4,2.5-14.6,6-20.1,9.7l0-0.1c-2.1,1.4-8.2,5.5-12.2,9.5c0,0-7.3-7.5-7.3-7.5s-3.6,2.6-4.7,4.6
		c0,0,7.4,7.5,7.4,7.5c-2.6,2.5-7.9,9.8-10,13l0,0c0,0-4.7,7.1-7.6,15l-17.7-6.2l2.1,7.6c0,0,13.4,4.5,13.4,4.6
		c-1.6,5-3.1,13.1-3.4,17.2l-4.6-5.7L53,189.2z M40.8,244.8c0-0.4,0.3-0.9,2.2-2c2.6-1.5,3.6-2.7,4.2-3.6l0.4-0.5
		c0.6-0.8,2.2-2.2,3.8-1.9l0.8,0.1l-0.5,0.6c-1.3,1.8-3.4,4.9-3.3,5.9c0,0,0.1,2.5,0.1,2.7l-1.3,2.5l-0.4-0.6
		c-1.3-1.7-3-3.4-3.6-3.3l-1.6,0.5l-0.7,0.1L40.8,244.8z M84.1,268.6c0.1,0.7,0.1,1.7,0.1,2.8c-2.1,2.6-4.4,4.8-6.8,6.6
		c-3.3,2.5-6.7,4.4-9.7,5.7c-2.9,1.3-5.4,2.1-7.2,2.5c-2.2,0.6-4.4,0.9-6.5,1.2c-0.5-1.6-0.8-3.3-1.1-5.1c5-0.7,8.6-2.6,11.3-5.1
		c3.3-3.1,5.4-7.2,7.1-11.1c0.2-0.4,0.4-0.8,0.6-1.2c2.1-4.6,3.9-8.7,7.4-10.9c1.3,1.7,2.7,3.4,3,5.2
		C81.2,260.6,80.7,266.3,84.1,268.6 M69.1,261c-0.3,0.7-0.7,1.5-1,2.2c-1.7,3.7-3.3,7.3-5.9,10.1c-2.3,2.4-5.3,4.2-9.7,4.9
		c-0.3-5.3,0.3-10.7,1.7-15.9c0.5-0.9,1.2-2,2.3-3.5c2.1-2.8,3.9-4,3.9-4c3.1-0.1,5.8-3.2,6.4-5.5c0.7-0.3,4.1-1.3,5.1-1.5
		c0.2,0,0.3-0.1,0.3-0.1s0.1,0.1,0.3,0.2c0.7,0.5,2.5,1.7,4.1,2.9C73,253.4,70.9,257.1,69.1,261 M57,252.8c-4.1,1.5-5.9,7.5-6.5,9.6
		c-2.9-6.2-0.6-11.3,0.3-13c0.7-1.2,2.6-2.8,3.6-2.7c0,0,2,1.3,2.5,3.3C57,250.6,57.4,252.7,57,252.8 M39.2,250.2
		c1-1.4,3.5-2.6,3.5-2.6c0.3,0.1,2,2,2.3,3.3c0.8,3.4-1.4,3.5-0.8,3.3c-3.7,1.5-5,6.6-5.6,8.5C35.5,256.7,38.5,251.4,39.2,250.2
		 M39.7,269.4l0.3,0.1c0,0,2.3-9.8,6.1-11c-0.1,2.3,0.4,5.6,2.8,8.8c-0.6,3.7-0.8,7.4-0.6,11.1c-5.9-0.2-8.9-3.4-11.4-12
		C37.7,267.5,38.6,268.4,39.7,269.4 M35,278.6c0-0.4,0-0.9,0-1.3c0-1.3,0.1-2.5,0.3-3.7c2.4,5.1,6.3,8.9,13.6,9
		c0.2,1.7,0.6,3.4,1,5.1c-5.8,0.1-10.8-1.1-14-3.5C35.4,282.4,35.1,280.5,35,278.6 M46.7,301.3c-3.9-3-7-6.9-9.1-11.5
		c3.8,1.4,8.4,2.1,13.4,1.9c0.5,1.4,1.2,2.8,1.9,4.2C50,297.1,48,298.9,46.7,301.3 M50.2,303.5c0.6-1.5,2-3,4.9-4.1
		c2.1,3.1,4.8,5.9,8,8.1C58.4,307.2,54,305.8,50.2,303.5 M81.5,302.8c-3.2,2.1-6.9,3.5-10.9,4.3c0,0,0,0,0,0
		c-4.8-2-8.6-5.1-11.4-8.8c4.4-0.9,8.7-0.7,12.8-0.6c1.8,0.1,3.6,0.1,5.4,0.1c4,0,8-0.5,12.1-2.5C87.3,298.3,84.6,300.8,81.5,302.8
		 M93.7,287.4c-2.2,2.2-4.4,3.6-6.7,4.6c-4.1,1.8-8.3,1.9-12.8,1.7c-0.7,0-1.4-0.1-2.2-0.1c-4.8-0.2-9.8-0.4-15.3,0.9
		c-0.6-1-1.1-2.1-1.5-3.2c2-0.3,4.1-0.6,6.2-1.2c2.9-0.8,5.7-1.8,8.4-3c3.5-1.6,6.8-3.5,9.7-5.7c1.1-0.8,2-1.7,3-2.5
		c-0.8,1.8-1.9,3.4-3.5,4.8l0.6,0.7c0,0,9.6-1.1,15.7-8.4c0,0,0,0.1,0,0.1C95.6,280.1,95,283.9,93.7,287.4 M88.5,267.7
		c0,0,5.2-0.6,6.9-2.1c0,0,0,1.2-0.6,2.7c-0.6,1.5-2.9,7.1-8.6,9.4C87.3,276.1,89.5,270.8,88.5,267.7 M100.3,260.1
		c-0.8-6.4-6.3-10.8-6.3-10.8c0.5,2.1,2.9,9,0.1,12.5c-4.2,2.8-7.1,2-7.1,2c-1.1-2,0.3-6.1,0.3-6.1c-0.6-1.3-3-5-4.1-8.1
		c-2.5-2.5-10.4-7.6-10.4-7.6c-2.3-0.6-5.6,1.6-9.6,2.1c-0.8,2.4-1.8,3.8-3.2,4.4c-1.2-2.6-2.8-5.1-5.2-5.6
		c-1.4-0.1-2.4,0.8-2.4,0.8c0.1-1.4,2.7-6.1,4.7-6.5c3.4-0.6,9.2-2.9,12.3-3.5c2.5,0.4,7.3,1.7,7.3,1.7s12.1,3.8,15.1,6
		c8.9-0.4,19.9,2.2,24.7,3.3c3,1.4,8.3,6.8,8.3,6.8c0.5-7.5-5.7-12.6-5.7-12.6c-0.9-4.6,2.3-13.2,6.6-16.2
		c0.1,11.7,5.3,22.4,11.8,28.4c-6.9,5.9-9.8,10.4-11.5,13.6c-1.9,3.5-2,5.9-2,5.9C112.6,268.9,103.2,262,100.3,260.1 M163,295.6
		c-0.1,6.1-2.4,7.5-0.8,10.5c-2.2,1.1-4.8,1.4-6.9,1.5c-2.4,0.1-12-0.8-15.1-2.6c-1.2-5-6-18-9-22c-3-4-1.9-14.6,1.7-17.1
		c0,0,4.4,1.2,7.9,2.4c8.7,2.7,17.9,9.3,24.7,20l-0.6,0.5c-0.8-1-2.4-2.4-3.8-3.5c-1.9-1.4-5.8-2.3-5.8-2.3
		c-0.1,0.2-0.2,0.3-0.3,0.6C156.3,284.9,163.1,290.1,163,295.6 M112.4,318.7c0,0,0.1,0.1,0.2,0.1
		C112.5,318.8,112.5,318.7,112.4,318.7C112.4,318.7,112.4,318.7,112.4,318.7 M111.8,339.9c-0.2,1.5-0.1,2.2-0.1,2.2
		c-0.8-0.7-2-1-2.5-2.1c0.8-1.1,1-1.1,3-2.7C112.3,337.4,112.1,337.9,111.8,339.9 M102.3,341.2c-2.6-6.2,1-12.3,3.4-15.9
		c1.5-1,2.4-2.4,3.4-2.4c2.8-0.1,3.9,4.2,4.8,8.4C109.9,332.9,104.5,337.6,102.3,341.2 M112.5,318.6c0.2-0.2,0.4-0.3,0.6-0.4
		c0,0,0.1,0,0.1-0.1c0.1,0,0.2-0.1,0.3-0.1c2.7-0.9,8.3-0.6,10.4-0.4c3,0.2,6.5,0.4,9.6,1c1.5,0.5,6.5,2.6,8.5,7.7
		c0-0.1,0-0.1,0.1-0.2c0,0,0,0.1,0.1,0.1c0.2-0.5,0.3-1,0.3-1.6c0.3-2.4-0.8-5.4-3.7-7.3c0,0,0,0,0,0c0-0.1-1.9-6.1-1.9-6.1
		c-0.1-0.3-0.2-0.6-0.2-0.8c0-0.2,0-0.4,0.2-0.5c0.4-0.4,1.6,0,2,0.2c4.7,2.2,5.8,2.6,17,3.1c2.6,0.1,8.2-1.4,10.2-3.4
		c2.5,1.2,3.3,3.7,2.1,7.5c0.1,0.2,5.2,11.5,2.7,15.5c-1,0.8-2,1-3.8,1.3l-3.1,0.6l-5.4,0.3l-4.8,0.2c-3.3,0.6-6,1.5-8.3,2.3
		l-4.9,1.5c-3.3,0.7-5.9,0.1-7.8-0.4c0,0-0.3-0.1-0.6-0.1c-0.6-9.5-7.7-15-11.6-16.6c0.8,1.2,1.5,2.3,2.1,3.4
		c-2.4,0.5-4.2,1.6-5.2,3.1c-0.1-0.8-0.2-1.5-0.3-2.2C116.4,321,113.3,319.1,112.5,318.6 M141.3,324.3c0.3,0.5,0.6,1.1,0.9,1.7
		c0,0,0,0.1,0,0.1C141.9,325.5,141.6,324.8,141.3,324.3 M118.6,327.1c-0.3,0.3-0.7,0.6-1,1.1c0,0,0-0.1,0-0.1
		C117.9,327.7,118.2,327.4,118.6,327.1 M116.7,348.1c-3.2-5.8,0-12.7,1.7-15.7c0.5-1,3.2-3.2,4.1-3.2c1.3-0.1,3.8,2.2,5.5,7.9
		C124.2,338.8,118.2,344.5,116.7,348.1 M171.5,341.1c0,0-2.6,1.6-4.8,1.8c-2.9,0.2-8.6-0.5-12.5,0.3c-3.9,0.7-7.6,2.5-11,3.6
		c-2.7,0.9-6.8,2-13.9,1.7c-2.4-0.1-7.3-1.4-7.3-1.4c1.9-2.9,5.4-5.3,5.4-5.3c1.7,0.9,8.8,2.2,13.7,1c4.9-1.2,12.2-4.6,17.5-4.6
		c5.1,0,9.8,0.2,13.1-2L171.5,341.1z M171.8,290.8l-0.2-0.4c-4.7-8.8-10.5-15.3-17.5-20c-7.3-4.7-13.1-7.2-19.4-8.2l-0.9-0.2
		l6.5-6.2l0.2,0c4,0.8,9.3,2.4,18.5,8.7c8.6,5.9,14.8,13,19.5,22.4l0.2,0.4L171.8,290.8z M226.1,292.7c-11.8-8.3-22.4-11.8-25-11.4
		c0,0-1.2,0.2-1.2,0.2c-3.2,0.4-10.8,1.4-17.9,3.8c-2.5-5.7-5.8-10.2-9-12.9c23.2,8.2,41.3,7,58.6-3.9c5.1,2.4,7.5,7.1,9.7,11.1
		c1.5,2.8,2.8,5.2,4.7,6.4c-0.4,0.3-0.9,0.7-1.5,1C239.6,289.7,230.7,292.9,226.1,292.7 M245.9,285.7c0.1,0,0.1,0.1,0.2,0.1
		c0,0,0,0,0,0C246,285.8,245.9,285.7,245.9,285.7 M227.8,296.1l1.4-0.1c7.9-0.5,19.3-6.1,23.1-9.7c-4.8-3.8-6.5-7.1-8.1-10.3
		c-1.7-3.4-3.3-6.6-8.9-9.9l-0.6-0.3l8-6.3l0.2,0.1c5.6,2.4,7.8,6.2,9.9,9.9c1.9,3.3,3.8,6.7,8.2,9.3c2.3-2.1,5.4-7.5,6.2-10.5
		l0.2-0.6l6.4,3.9l-0.1,0.3c-2.4,6.8-6.9,12.8-13.2,18c-5.9,4.9-16.9,10.6-24.7,11.2L227.8,296.1z M249,301.3
		c9.3-4.1,20.8-12.5,24.4-19.5c3.7,1.4,4.9,2.8,5.8,2.4v-0.1c1.9-1.5,4.5-0.3,4.7,5.6c0,1.2-0.1,3.3-1.3,5.6
		c-1.2,2.3-4.1,5.2-4.1,5.2C269.9,307.2,263.4,306,249,301.3 M256.8,315.2c1.1-2.6,3.4-4.6,4.4-5.3c2.3,0.2,5.3,0.5,10.7-1
		c0.1,0.4,0,0.5,0,0.9c-2.5,0.8-5.5,2.5-6.6,3.4C264.6,313.1,260.2,313.6,256.8,315.2 M266.4,318.4c0.1,0,0.2,0.1,0.3,0.2
		C266.7,318.5,266.5,318.5,266.4,318.4C266.4,318.4,266.4,318.4,266.4,318.4 M261.2,336.1c-3.1-6,0.2-12,2.7-14.5
		c1.6,0.5,5.5,1,5.2,6.1C267.1,328.7,262.4,332.8,261.2,336.1 M269.4,334.9l-2.2-0.4c0.7-1.1,2.3-2.3,2.3-2.3
		S269.2,333.4,269.4,334.9 M272.6,326c0-0.1,0-0.1,0-0.2c0.3-0.5,0.7-1,1.1-1.5C273.3,324.8,272.9,325.3,272.6,326 M274.5,339.8
		c-2.9-5.6,0.1-11.4,1.8-14.5c1-0.8,1.8-1.2,2.6-1.3c1.8-0.3,4.8,2.7,5.2,6C280.9,331.7,275.9,336.9,274.5,339.8 M306.5,302.4
		c0.8-1.7,2.1-8.4,2.1-10.4c0-3.2-0.4-5.7-1.3-8l2.7,0.7c1.1,2.3,1.9,2.9,1.7,8.1c-0.1,5.9-3.6,12.7-4.1,17.7
		c-0.2,2.1-1.7,11.2-3.6,15.1c-1.8,3.6-5.2,8.7-11.1,10.8c-4.4,1.6-11.8,0.8-11.8,0.8s4.1-4,6.3-4.8c7.1-0.2,10.6-4.7,13.2-8.9
		c2.6-4.1,3.2-12.4,3.4-13.2C304.1,309.7,305.8,304.1,306.5,302.4 M294.7,280.5c0.1,0,2.2-0.4,2.2-0.4l1.7,0.1
		c3.3,0.8,5,3.8,5.2,9.2c0.3,5.6-2.7,15.5-3.9,19.7l-0.2,0.8l-0.5,2.5c-1,5.3-2.7,14.2-11.3,15.4c-1.1-4.8-6-7.1-8.4-7
		c-2.9,0.2-5.3,2-6.9,4.9c-0.1-0.6-0.2-1.1-0.3-1.7c-0.8-3-3.4-5-5.7-5.8c0.4-0.7,0.9-1.3,1.4-1.8c4.8-5.2,12.7-5.3,23.5-3.5
		c-0.1-0.1-0.1-0.1-0.2-0.2c0.1,0,0.1,0,0.2,0c-0.5-0.6-1.3-1.1-2-1.5c-3.2-2.1-8-3-11-3c0,0,0-0.1,0-0.1c0.3-0.3,0-0.8-0.7-1.9
		c0,0,0,0,0,0c0.1,0.1,5.2-3.1,7.7-6.4c2.1-2.8,3.2-7.2,3.3-8.8c0.3-4.7-1.2-8.9-3.8-10.7c-1.6-1.1-3.6-1.2-5.7-0.2
		c0.1,0-0.9-0.4-0.9-0.5c0-0.1,0.1-0.1,0.2-0.2c1-1.3,2.3-2.2,4.1-2.6C286.5,276.2,291.4,278.2,294.7,280.5 M278.4,308.5
		C278.4,308.5,278.4,308.5,278.4,308.5c0.4,0,0.9,0,1.4,0C279.3,308.5,278.8,308.5,278.4,308.5 M285.2,312c1.9,0.2,3.9,0.4,6,0.8
		c0,0,0.1,0.1,0.2,0.1C289.1,312.5,287.1,312.2,285.2,312 M376.8,203c-7.6,9.3-25.3,26.3-49.2,39.2c-8.8,4.8-30.1,16.7-57.9,22.1
		l-3.4-3.7c5.9-1.6,9.2-5.4,9.2-5.4c3.1,1.3,7.3-3.1,7.3-3.1c2-2.1,4.4-9.9,5.3-13.6h0l0,0c0,0,0,0,0,0c4.6-0.3,8.6-0.8,11.5-1.4
		c26.4-5.4,53.1-17.1,74.9-33.3c3-2.2,4.1-3.4,5.5-4.7C379.1,200.2,379.3,200,376.8,203"/>
	<path fill="#FFFFFF" d="M117.6,328c1-1.5,2.8-2.5,5.2-3.1c-0.6-1.1-1.3-2.2-2.1-3.4c3.8,1.6,11,7.2,11.6,16.6
		c0.2,0.1,0.6,0.1,0.6,0.1c1.9,0.5,4.5,1.2,7.8,0.4l4.9-1.5c2.3-0.8,5-1.7,8.3-2.3l4.8-0.2l5.4-0.3l3.1-0.6c1.7-0.3,2.8-0.5,3.8-1.3
		c2.6-4-2.6-15.2-2.7-15.5c1.2-3.7,0.4-6.2-2.1-7.5c-1.9,2-7.6,3.5-10.2,3.4c-11.1-0.5-12.2-0.9-17-3.1c-0.4-0.2-1.5-0.6-2-0.2
		c-0.1,0.1-0.2,0.3-0.2,0.5c0,0.3,0.1,0.6,0.2,0.8c0,0,1.9,6,1.9,6.1c0,0,0,0,0,0c2.8,1.9,4,4.9,3.7,7.3c0,0.6-0.1,1.1-0.3,1.6
		c0,0,0-0.1-0.1-0.1c0,0.1,0,0.1-0.1,0.2c-2.1-5-7.1-7.1-8.5-7.7c-3.2-0.6-6.7-0.8-9.6-1c-2.1-0.1-7.7-0.4-10.4,0.4
		c-0.1,0-0.2,0.1-0.3,0.1c0,0-0.1,0-0.1,0.1c-0.3,0.1-0.5,0.3-0.6,0.4c0.8,0.4,3.9,2.4,4.7,7.2C117.4,326.5,117.5,327.2,117.6,328
		 M147.6,326.1c1.2-0.2,2.5-0.1,3.9,0.2c3.5-5.4-0.1-9.2-0.2-9.3l-2.4-2.5l3.4-0.2c4.2-0.3,7.6,1.1,10,3.9c2.9,3.4,3.6,8.2,3.3,11.1
		c0.6-0.2,1.2-0.4,1.8-0.8l0.8-0.6l-0.1,1c0,0.1-0.1,0.2-0.2,0.3l0,0c0,0,0,0,0,0c-0.3,0.9-1.4,1.9-3.1,2.7
		c-2.6,1.2-6.7,1.9-9.6,0.1l-2.4-1.8c-1.6-1.3-3.4-2.8-5.1-3.1L147.6,326.1z"/>
	<path fill="#FFFFFF" d="M112.4,318.7C112.4,318.7,112.4,318.7,112.4,318.7c0,0,0.1,0.1,0.2,0.1
		C112.5,318.8,112.5,318.7,112.4,318.7"/>
	<path fill="#FFFFFF" d="M117.6,328.2c0.3-0.4,0.6-0.7,1-1.1c-0.4,0.3-0.7,0.6-1,0.9C117.6,328.1,117.6,328.1,117.6,328.2"/>
	<path fill="#FFFFFF" d="M141.3,324.3c0.3,0.6,0.6,1.2,0.9,1.8c0-0.1,0-0.1,0-0.1C142,325.4,141.6,324.8,141.3,324.3"/>
	<path fill="#FFFFFF" d="M245.9,285.9c-1.9-1.2-3.2-3.6-4.7-6.4c-2.2-4.1-4.7-8.7-9.7-11.1c-17.2,11-35.3,12.2-58.6,3.9
		c3.2,2.7,6.5,7.3,9,12.9c7.2-2.4,14.7-3.3,17.9-3.7c0,0,1.2-0.2,1.2-0.2c2.6-0.4,13.2,3.1,25,11.4c4.6,0.2,13.6-3,18.3-5.8
		C245,286.6,245.5,286.2,245.9,285.9"/>
	<path fill="#FFFFFF" d="M246,285.8c-0.1,0-0.1-0.1-0.2-0.1C245.9,285.7,246,285.8,246,285.8C246,285.8,246,285.8,246,285.8"/>
	<path fill="#FFFFFF" d="M253.5,262.9c0.8,1.3,1.5,2.5,2.1,3.7c1.3,2.5,2.3,4.6,4.8,6.1l2-2.7c1.1-1.9,1.4-4.2,1.4-4.1
		c-1.3-1.3-2.4-2.8-3.5-4.3C258.6,262,255.6,262.7,253.5,262.9"/>
	<path fill="#FFFFFF" d="M278.4,308.4C278.4,308.5,278.4,308.5,278.4,308.4c0.4,0.1,0.9,0.1,1.3,0.1
		C279.3,308.5,278.8,308.5,278.4,308.4"/>
	<path fill="#FFFFFF" d="M282.6,277c-1.8,0.4-3.1,1.3-4.1,2.6c-0.1,0.1-0.1,0.2-0.2,0.2c0.1,0,1.1,0.5,0.9,0.5
		c2.1-1,4.1-0.9,5.7,0.2c2.5,1.7,4,5.9,3.8,10.7c-0.1,1.6-1.2,6-3.3,8.8c-2.5,3.4-7.6,6.5-7.7,6.4c0,0,0,0,0,0
		c0.7,1.1,1,1.5,0.7,1.9c0,0,0,0.1,0,0.1c2.9-0.1,7.7,0.9,11,3c0.8,0.5,1.5,0.9,2,1.5c-0.1,0-0.1,0-0.2,0c0,0.1,0.1,0.1,0.2,0.2
		c-10.8-1.7-18.7-1.6-23.5,3.5c-0.5,0.5-1,1.1-1.4,1.8c2.3,0.8,4.9,2.7,5.7,5.8c0.2,0.5,0.3,1.1,0.3,1.7c1.5-2.9,4-4.7,6.9-4.9
		c2.4-0.1,7.3,2.2,8.4,7c8.6-1.2,10.3-10,11.3-15.4l0.5-2.5l0.2-0.8c1.2-4.2,4.2-14.1,3.9-19.7c-0.2-5.4-1.9-8.4-5.2-9.2l-1.7-0.1
		c0,0-2.1,0.4-2.2,0.4C291.4,278.2,286.5,276.2,282.6,277"/>
	<path fill="#FFFFFF" d="M272.6,325.8c0,0.1,0,0.1,0,0.2c0.3-0.6,0.7-1.1,1.1-1.6C273.3,324.8,272.9,325.3,272.6,325.8"/>
	<path fill="#FFFFFF" d="M285.2,312c1.9,0.2,4,0.5,6.2,0.9c-0.1-0.1-0.1-0.1-0.2-0.1C289,312.5,287,312.2,285.2,312"/>
	<path fill="#FFFFFF" d="M266.4,318.4C266.4,318.4,266.4,318.4,266.4,318.4c0.1,0.1,0.2,0.1,0.3,0.2
		C266.7,318.5,266.6,318.5,266.4,318.4"/>
	<path fill="#FFFFFF" d="M287.3,332.5c-2.2,0.8-6.3,4.8-6.3,4.8s7.3,0.8,11.8-0.8c6-2.1,9.3-7.2,11.1-10.8c2-4,3.5-13.1,3.6-15.1
		c0.5-5,3.9-11.9,4.1-17.7c0.1-5.1-0.7-5.8-1.7-8.1l-2.7-0.7c0.9,2.3,1.3,4.7,1.3,8c0,2-1.3,8.7-2.1,10.4c-0.7,1.7-2.4,7.2-2.6,8.1
		c-0.2,0.8-0.8,9-3.4,13.2C297.9,327.8,294.4,332.3,287.3,332.5"/>
	<path fill="#FFFFFF" d="M176.9,251.1c-1.1,0.5-3.3,1.3-5.2,1.4l6,4.4l2.9-3.9l-2.6-2.5C177.9,250.4,177.4,250.8,176.9,251.1"/>
	<path fill="#FFFFFF" d="M241,253.3c-1.4-5-1.8-8.4-2.1-13.3c-1-0.6-2.7-1.9-4.1-3.3l-0.8,1.4c-4.5,7.1-14.5,11.8-23.4,12.1
		c-10,0.4-17.5-2.6-23.4-7.1c-5.4-4.1-14.1-13.1-13.7-29.2c-1-0.5-1.9-1.1-2.7-1.7c-1.9,7.9-0.2,14.7-0.9,18.7
		c-1.2,6.5-5.7,12.3-8.9,14.1c-23.2-0.6-28-30.8-28-30.8c-3,4.8-0.9,14.6-0.9,14.6s0,1.4,1.6,5.1c8.5,19.6,19.7,20.8,38.7,33.5
		c3,1.3,9.1,2.5,9.1,2.5c6.3,0.6,20-1.8,25.8-3.5c-5,4.9-12.6,5.7-12.6,5.7C206.2,273.6,226.1,269.7,241,253.3 M196.2,264.1L186,257
		l-2.6,3.2l7.6,5.1c-6.9,1.6-16.6,0.5-16.6,0.5l0.1-1.9l-19.1-12.9l-6.8-2.5c15.7,1.5,28.9-5,28.9-5l6.8,1.3l6.8,5.6l-1.8,2.8
		l6.4,0.4l8.5,5.9l8,1.4C212,260.7,201.7,263.7,196.2,264.1"/>
	<path fill="#2E2A25" d="M204,259.3l-8.5-5.9l-6.4-0.4l1.8-2.8l-6.8-5.6l-6.8-1.3c0,0-13.1,6.6-28.9,5l6.8,2.5l19.1,12.9l-0.1,1.9
		c0,0,9.7,1.2,16.6-0.5l-7.6-5.1l2.6-3.2l10.2,7.1c5.5-0.3,15.8-3.3,15.8-3.3L204,259.3z M177.6,256.8l-6-4.4
		c1.9-0.1,4.2-0.8,5.2-1.4c0.5-0.3,1.1-0.7,1.1-0.7l2.6,2.5L177.6,256.8z"/>
	<path fill="#2E2A25" d="M155.1,331.8c2.9,1.8,7,1.1,9.6-0.1c1.7-0.8,2.8-1.8,3.1-2.7c0,0,0,0,0,0l0,0c0-0.1,0.2-0.2,0.2-0.3l0.1-1
		l-0.8,0.6c-0.5,0.4-1.1,0.6-1.8,0.8c0.3-2.9-0.4-7.7-3.3-11.1c-2.4-2.8-5.9-4.2-10-3.9l-3.4,0.2l2.4,2.5c0.2,0.2,3.7,4,0.2,9.3
		c-1.3-0.3-2.7-0.4-3.9-0.2l0,0.8c1.7,0.3,3.5,1.8,5.1,3.1L155.1,331.8z M155.3,317.5c6.2,1.1,7.4,8,7.1,11.1c0,0.2-5.8,0.3-7.8-1.6
		C157.7,321.9,155.3,317.5,155.3,317.5"/>
	<path fill="#C4CED4" d="M270.9,230.8c-1-6.2-2.4-8.3-4.5-10.1c0.3,2.3-0.5,5.4-1,6.7C268.4,228.7,270.9,230.8,270.9,230.8"/>
	<path fill="#C4CED4" d="M281.9,230.3c0,0,0.6-7.8-4.7-11.5c0.7,2.8-0.1,7.5-1.1,8.9C277.5,227.9,281,229.2,281.9,230.3"/>
	<path fill="#FFFFFF" d="M178.4,168.7c0,0-4.7-1.1-6.1-1.8c1.2,2,0.8,6.9,0.8,6.9C177.8,171.7,178.4,168.7,178.4,168.7"/>
	<path fill="#FFFFFF" d="M186.3,168.9c0,0-3.6,0.9-5.3,0.7c0.8,1.2,1.1,5.9,1.1,5.9C185.4,173.9,186.3,168.9,186.3,168.9"/>
	<path fill="#FFFFFF" d="M194.4,167.3l-5.8,1.2c1,1.2,1.4,4.6,1.2,6.1C193.5,172.8,194.4,167.3,194.4,167.3"/>
	<path fill="#FFFFFF" d="M201.8,168.1c0,0-3.4-1.3-4.8-1.7c0.4,1.2,0.4,6.6-0.1,7.9C200.3,172.9,201.8,168.1,201.8,168.1"/>
	<path fill="#FFFFFF" d="M209.9,170.9c-2.2-0.3-5.2-1.8-5.2-1.8c0.3,1.4,0.4,5.5,0,6.8C207.5,174.7,209.9,170.9,209.9,170.9"/>
	<path fill="#FFFFFF" d="M218.6,171.5c-1.3,0.2-4.9,0.2-6.1-0.1c0.8,1.8,0.5,6.5,0.5,6.5C215.3,176.2,216.8,173.2,218.6,171.5"/>
	<path fill="#FFFFFF" d="M169,185.3c0.6-1.6,0.3-3.1,0.2-5.3c-1,1.1-4.1,3.3-5.6,4.1C166.2,184.4,167.6,184.6,169,185.3"/>
	<path fill="#FFFFFF" d="M175,192.2c0.8-0.9,2-4.4,1.8-6.9c-1,1-3.6,2.5-4.9,3C172.2,188.8,174.2,190.8,175,192.2"/>
	<path fill="#FFFFFF" d="M177.3,195.5c0.6,1.1,2.7,3,3.7,3.7c1.8-2.3,1.6-5.2,1.2-7C181.1,193.7,178.3,195.3,177.3,195.5"/>
	<path fill="#FFFFFF" d="M184.2,202.3c1.2,1.4,3.9,2.1,4.9,2.1c0.5-1.6,0.9-4.2,0.2-6.7C188.5,199.3,185.1,201.7,184.2,202.3"/>
	<path fill="#FFFFFF" d="M198.3,204.9c0.1-1.6-0.2-4.6-0.8-5.6c-0.9,1.6-2.4,3.9-4.1,5.6C195.1,205.3,196.2,205.4,198.3,204.9"/>
	<path fill="#C4CED4" d="M190.2,194.5C190.2,194.5,190.2,194.5,190.2,194.5c0,0,0.1-0.1,0.1-0.1c0.7,1.3,1.4,3.6,1.7,5.9
		c0.1,0.4,0.1,0.7,0.2,1.1c0.4-0.3,2.8-2.4,3.6-3.9c-0.2-0.7-0.6-1-2.2-2.1l-0.6-0.4l-1.2-0.6c-1.1-0.5-2.6-1.1-4.7-3.3
		c-1.1-1.2-1.8-2.8-2.4-4.5c-0.9-2.2-1.9-4.7-4.2-6.6c-2.7-2.4-8.1-5-14.9-5.2c-1.1,1.3-2.7,3.8-3.7,6.1c-0.2,0.5-0.3,1-0.4,1.4
		c0.7-0.4,4.9-3.1,8-5.6c0.2-0.2,0.5-0.4,0.7-0.6c0,0,0,0,0,0c0,0,0.1-0.1,0.1-0.1c0,0,1.8,3.8,1.9,7.5c0,0.4,0,0.9,0,1.3
		c0.3-0.1,2.8-1.4,5.3-2.7c0.3-0.2,0.6-0.4,0.8-0.5c0,0,0,0,0,0.1c0,0,0.1-0.1,0.1-0.1l0.1,0.6c0.3,1.4,0.9,4.6,0,7.8
		c0,0.1,0,0.2-0.1,0.3c0,0,0,0,0,0c-0.1,0.5-0.2,0.9-0.4,1.4l4.8-2.6c0,0,1-0.6,1.2-0.5c0.8,2.6,1.1,5.3,0.8,7.7
		c0,0.5-0.1,1.1-0.2,1.7c1-0.6,4.1-2.6,5.4-3.4C190.1,194.6,190.2,194.5,190.2,194.5"/>
	<path fill="#C3002F" d="M299.5,237.1c-2.9,0.6-6.9,1.1-11.5,1.4c-0.9,3.7-3.2,11.5-5.3,13.6c0,0-4.2,4.4-7.3,3.1
		c0,0-3.3,3.8-9.2,5.4l3.4,3.7c27.8-5.5,49.1-17.4,57.9-22.1c23.9-12.9,41.7-29.9,49.2-39.2c2.5-3,2.4-2.9,3.1-3.9
		c-1.4,1.2-2.5,2.5-5.5,4.7C352.6,219.9,325.9,231.6,299.5,237.1 M312.4,247.5c-9.8,4.2-19.3,8.8-30.4,11.7l8-12.8l7.9,6.5l6.2-10.5
		l6.9,4.7l5.5-8.8l5.8,3.8l4.8-7.6l4.4,2.2l3.8-6l4,1l2.8-4.3l3.4,1C339.1,233.3,326.5,241.5,312.4,247.5"/>
	<polygon fill="#C3002F" points="287.9,238.5 288,238.5 288,238.5 	"/>
	<path fill="#2E2A25" d="M339.3,231.8l-4-1l-3.8,6l-4.4-2.2l-4.8,7.6l-5.8-3.8l-5.5,8.8l-6.9-4.7L298,253l-7.9-6.5l-8,12.8
		c11.1-3,20.6-7.5,30.4-11.7c14-6,26.6-14.2,33.1-19l-3.4-1L339.3,231.8z"/>
	<path fill="#C3002F" d="M278.4,300.5c0,0,2.9-2.9,4.1-5.2c1.2-2.3,1.4-4.4,1.3-5.6c-0.2-5.9-2.8-7.1-4.7-5.6v0.1
		c-1,0.4-2.2-1-5.8-2.4c-3.6,7-15.1,15.4-24.4,19.5C263.4,306,269.9,307.2,278.4,300.5"/>
	<path fill="#C3002F" d="M161,285.2c1.4,1.1,3,2.5,3.8,3.5l0.6-0.5c-6.7-10.7-16-17.3-24.7-20c-3.5-1.1-7.9-2.4-7.9-2.4
		c-3.6,2.5-4.7,13-1.7,17.1c3,4,7.7,17.1,9,22.1c3.1,1.9,12.7,2.7,15.1,2.6c2.1-0.1,4.7-0.4,6.9-1.5c-1.6-3,0.7-4.4,0.8-10.5
		c0.1-5.5-6.7-10.8-8.1-12.1c0.1-0.3,0.2-0.5,0.3-0.6C155.2,282.9,159.1,283.8,161,285.2"/>
	<path fill="#C3002F" d="M126,264.7c1.7-3.2,4.6-7.7,11.5-13.6c-6.4-6-11.6-16.8-11.8-28.4c-4.3,3-7.5,11.6-6.6,16.2
		c0,0,6.2,5.1,5.7,12.6c0,0-5.3-5.4-8.3-6.8c-4.8-1.2-15.8-3.7-24.7-3.3c-3-2.2-15.1-6.1-15.1-6.1s-4.8-1.3-7.3-1.7
		c-3.1,0.6-8.9,2.9-12.3,3.5c-2,0.4-4.6,5.1-4.7,6.5c0,0,1.1-0.9,2.4-0.8c2.3,0.5,4,3,5.2,5.6c1.4-0.6,2.5-2,3.2-4.4
		c4-0.6,7.3-2.8,9.6-2.1c0,0,7.9,5.1,10.4,7.6c1,3.1,3.5,6.8,4.1,8.1c0,0-1.5,4.1-0.3,6.1c0,0,2.9,0.8,7.1-2
		c2.8-3.5,0.4-10.4-0.1-12.5c0,0,5.6,4.4,6.3,10.8c2.9,1.9,12.3,8.9,23.8,10.6C124.1,270.7,124.2,268.2,126,264.7"/>
	<path fill="#2E2A25" d="M43.1,244.9c0.6-0.1,2.4,1.6,3.6,3.3l0.4,0.6l1.3-2.5c0-0.2-0.1-2.7-0.1-2.7c-0.1-1,2-4.1,3.3-5.9l0.5-0.6
		l-0.8-0.1c-1.7-0.3-3.2,1.1-3.8,1.9c0,0-0.4,0.5-0.4,0.5c-0.6,0.8-1.6,2.1-4.2,3.6c-1.9,1.1-2.2,1.6-2.2,2l0,0.6l0.7-0.1
		L43.1,244.9z"/>
	<path fill="#C3002F" d="M43.1,244.9c0.6-0.1,2.4,1.6,3.6,3.3l0.4,0.6l1.3-2.5c0-0.2-0.1-2.7-0.1-2.7c-0.1-1,2-4.1,3.3-5.9l0.5-0.6
		l-0.8-0.1c-1.7-0.3-3.2,1.1-3.8,1.9c0,0-0.4,0.5-0.4,0.5c-0.6,0.8-1.6,2.1-4.2,3.6c-1.9,1.1-2.2,1.6-2.2,2l0,0.6l0.7-0.1
		L43.1,244.9z"/>
	<path fill="#C3002F" d="M279.8,247.7c1.6-1.6,3.4-10.4,3.4-10.4c-1.1-2.6-7.3-4.3-7.3-4.3l-0.6,1.9c2.5,3,1.1,8,1.1,8
		c-5.2-8.9-15-12.4-15-12.4c-0.8,0.7-3.5,2.7-3.5,2.7c-0.1-5.2-0.2-5.7-0.2-5.7c-2.2-7.9-9.8-20.5-12.8-21.6
		c-8.3-3.1-21.8-3-26.2-0.8c0,0,3.6,4.3,2.3,7.9c0,0-2.7-4.4-7.2-7c-4.2-2.5-6.6-3.4-8.5-3.9l-0.2,0.3c-0.5,1.2-0.8,1.6-0.8,1.6
		l3.7,3c-1.7,8.2-10.9,11.4-17.8,11.8l-0.5,0c0.5,1.3,1,2.4,1.7,3.5c3.8,6.4,9.3,10.7,13.7,11.2c3.8,0.5,11.1,1,13.3-4.6
		c4.6,1.9,11.1,1.3,15.2-1.2c2.2,4.6,8.4,7.2,10.2,8.9c1,14.3,4.6,21.2,6,21.5c3.5,0.9,7.6-0.9,7.6-0.9l-0.8-6.4l7.2,5.8
		c2.9-0.6,6.4-3,6.4-3c-0.9-1.1-3.6-6.9-3.6-6.9c4.2,1.9,9,3.8,9,3.8S278.1,249.3,279.8,247.7"/>
	<path fill="#C3002F" d="M165.8,151.9c-0.4-0.7-0.8-1.5-0.8-2.5C165,150.4,165.4,151.3,165.8,151.9"/>
	<path fill="#C3002F" d="M171.4,151.6c0.1-0.2,0.1-0.4,0.2-0.7C171.6,151.2,171.5,151.4,171.4,151.6"/>
	<path fill="#C3002F" d="M171.2,152.8c0-0.2,0.1-0.5,0.1-0.7C171.3,152.3,171.2,152.6,171.2,152.8"/>
	<path fill="#C3002F" d="M171.1,153.5c0,0.1,0,0.2,0,0.3C171.1,153.7,171.1,153.6,171.1,153.5"/>
	<path fill="#C3002F" d="M180.6,152c-0.3,0-0.6,0-0.8-0.1C180.1,152,180.4,152,180.6,152L180.6,152z"/>
	<path fill="#C3002F" d="M132.5,150.6c-6.5,6.6-8.5,17.5-8.5,19.8c0,2.3-0.4,9.7,3.1,17.5c2.1,4.5,5.3,9.1,9.1,16.3
		c3.3,6.2,2.8,17,8.6,24.9c5.4,7.2,10.5,9.9,14.4,10.1c1.5-1,3.6-4.7,4.5-6.6c0,0-7,1.4-11.9-4.9c5.7,1.7,9.6-0.9,11.1-3
		c1.7-2.5,1.9-4.1,1.9-4.3c-3.7,2.6-7.2,2.5-10.4,2.3c-6.5-0.5-10.6-6.7-10.6-6.7c17.2,4.9,20.9-3.6,20.9-3.6l-0.4,0.1
		c-17.8,2.7-22.6-11.1-22.6-11.1c12.9,7.3,21.4,4.4,21.4,4.4s-0.5-2.3-4.8-4.1c-4.8-2-12.6-3.5-17.1-8.9c-1.9-2.3-3.5-5.2-3.6-9.3
		c-0.2-5,3.3-7.3,3.3-7.3c-0.9,3-0.9,7.8,3.6,12.8c5.2,5.7,14.9,5.5,18.5,7.6c1.5,0.8,6.7,4.6,7.9,6.2c5.6,7.5,12.4,11.7,19.6,11.7
		c7,0,12-5.8,12-5.8c-10.6,1.1-17-0.4-21.3-3.3c-4.3-2.8-12-14.8-14-15.8c-2.7-1.4-12.3-1.6-12.3-1.6c2.8-16.3,16.3-24.7,17.9-24.7
		c2.4,0,6.4,2.3,8.9,2.4c2.6,0.2,13.9-2.8,16.1-3c2.2-0.2,12.7,5.6,19,4.9c2-0.2,4.5-0.5,6.5-1.5c-0.1-2.5-0.9-5.5-0.9-5.5
		c-1.2,0.2-2.1,1.9-2.6,2.7c-0.1,0-0.3-0.1-0.3-0.1c0-3.5,2.2-7.3,2.2-7.3s-1.1-3.2-1.7-4.6c-3-1.8-16.6-4.5-23.6-6
		c-7.8-1.6-7.5-5-7.5-5c1.3,1.2,5.2,1.8,5.2,1.8s0.5-1.8-1.5-2.3c-2.2-0.6-10.3-4.2-10.3-4.2l-2.5,1.1c0.8,0.5,1.6,2.6,1.8,3.8
		c0.1,0.9,2.7,3.6,3.3,4.1c0,0-0.2,0.3-0.2,0.3c-4.5-1.2-6.1-5.1-8.8-6.5c-2.7-1.4-11.3-2.3-15.5-2.2c-2.2,2.3-7.3,8.6-7.3,8.6
		c-1.1-1.7-0.6-5.1-0.6-5.1C142.1,142.6,138.6,144.4,132.5,150.6 M209.5,155.7c0,0,3.6,2.5,3.7,7.3c0,0-3-4.2-6.1-5.3L209.5,155.7z
		 M133.2,181.2c-1.6-3.4-4.3-5.6-2.9-14c1.8-11,14.9-15.9,20-17l-4.9,7.1l6.3,2.5C129.8,162.2,133.2,181.2,133.2,181.2 M166.1,144.2
		c-1.4-0.6-5.3-0.4-5.3-0.4c0.8-0.5,3.9-2.8,10.6-1.9c5.5,0.7,7.1,7,9.6,8c1.6,0.6,4.9,0.2,5.9-0.7c-1.5,4.8-9.7,5.3-9.7,5.3
		c0.3-0.2,0.7-0.4,1.1-0.6c-0.4,0.2-0.7,0.4-1,0.5l-0.1,0c-1.8,0.6-3.8,0.9-5.8,0.6c-1.6-0.2-2.9-0.7-4-1.4v0l0,0
		c-3.5-0.3-5.2-2.3-6.5-3c-1.3,0.3-3.4,1-3.4,1C159.8,146.4,166.1,144.2,166.1,144.2 M163.2,165.3c0,0-9.2,8-12,20.2
		c0,0-3-1.5-3.7-3.9C147.5,181.6,152.2,171.5,163.2,165.3"/>
	<path fill="#2E2A25" d="M213.2,163.1c-0.2-4.9-3.7-7.3-3.7-7.3l-2.4,2C210.2,158.8,213.2,163.1,213.2,163.1"/>
	<path fill="#2E2A25" d="M145.4,157.3l4.9-7.1c-5.1,1.1-18.2,6-20,17c-1.3,8.4,1.4,10.6,2.9,14c0,0-3.5-19,18.5-21.4L145.4,157.3z"
		/>
	<path fill="#2E2A25" d="M151.2,185.5c2.8-12.1,12-20.2,12-20.2c-11,6.2-15.7,16.3-15.7,16.3C148.2,183.9,151.2,185.5,151.2,185.5"
		/>
	<path fill="#2E2A25" d="M167.4,153.6c0,0-0.9-0.6-1.6-1.7c-0.4-0.7-0.8-1.5-0.8-2.5v0c0.7-1.3,2.4-2,4.2-2.4c0.2,0,0.5-0.1,0.7-0.1
		c0,0,0,0,0,0l0.2,0c-0.2,0.7-0.5,1.5-0.7,2.5c0,0,0,0,0,0c0,0.2,0,0.4,0,0.5c0,0.3,0,0.5,0,0.8c0,0.1,0,0.1,0,0.2
		c0,0.4,0.1,0.7,0.2,1.1c0,0,0,0.1,0,0.1c0.1,0.4,0.3,0.8,0.5,1.2c0,0,0,0.1,0.1,0.1c0.3,0.4,0.6,0.8,1,1.3c0-0.3-0.1-0.6-0.1-0.9
		c0-0.1,0-0.2,0-0.3c0-0.2,0-0.4,0.1-0.7c0-0.2,0.1-0.5,0.1-0.7c0-0.2,0.1-0.3,0.1-0.5c0.1-0.2,0.1-0.4,0.2-0.7
		c0.1-0.3,0.2-0.6,0.4-1c0.1-0.2,0.1-0.3,0.2-0.5c0-0.1,0.1-0.1,0.1-0.2c0.5-0.8,1.1-1.6,1.9-1.9l0,0.2c0.2,0.1,0.4,0.2,0.5,0.3
		c0,0,0.1,0.1,0.1,0.1c2.3,1.4,3.2,3.4,4.9,3.9c0.3,0.1,0.5,0.1,0.8,0.1h0c0.1,0,0.1,0,0.2,0c-0.2,0.5-1.4,1.2-2.5,1.9
		c-0.4,0.2-0.8,0.4-1.1,0.6c0,0,8.2-0.5,9.7-5.3c-1,0.9-4.3,1.4-5.9,0.7c-2.5-1-4.1-7.2-9.6-8c-6.7-0.9-9.8,1.4-10.6,1.9
		c0,0,3.9-0.3,5.3,0.4c0,0-6.4,2.2-8.6,7.4c0,0,2.1-0.7,3.4-1C162.2,151.3,163.9,153.4,167.4,153.6"/>
	<path fill="#C4CED4" d="M44.2,254.2c-0.6,0.2,1.6,0.2,0.8-3.3c-0.3-1.3-2.1-3.2-2.3-3.3c0,0-2.5,1.2-3.5,2.6
		c-0.8,1.2-3.8,6.4-0.6,12.5C39.2,260.8,40.5,255.7,44.2,254.2"/>
	<path fill="#C4CED4" d="M54.4,246.7c-1-0.1-2.9,1.5-3.6,2.7c-0.9,1.7-3.2,6.7-0.3,13c0.6-2.1,2.4-8.1,6.5-9.6
		c0.4-0.1,0-2.3-0.1-2.8C56.4,248,54.4,246.7,54.4,246.7"/>
	<path fill="#C4CED4" d="M109.2,322.8c-1,0-1.9,1.5-3.4,2.4c-2.4,3.6-6,9.7-3.4,15.9c2.1-3.6,7.6-8.3,11.7-9.9
		C113.1,327.1,112,322.8,109.2,322.8"/>
	<path fill="#C4CED4" d="M122.5,329.1c-0.9,0.1-3.6,2.2-4.1,3.2c-1.7,3-4.9,10-1.7,15.7c1.6-3.6,7.5-9.3,11.3-11.1
		C126.3,331.3,123.8,329,122.5,329.1"/>
	<path fill="#C4CED4" d="M162.4,328.6c0.3-3.1-1-10.1-7.1-11.1c0,0,2.4,4.4-0.6,9.5C156.6,328.9,162.4,328.8,162.4,328.6"/>
	<path fill="#C4CED4" d="M265.4,313.2c1.1-0.9,4.1-2.6,6.6-3.4c0-0.4,0-0.5,0-0.9c-5.4,1.5-8.4,1.2-10.7,1c-1,0.7-3.4,2.7-4.4,5.3
		C260.2,313.6,264.6,313.1,265.4,313.2"/>
	<path fill="#C4CED4" d="M263.9,321.7c-2.5,2.5-5.8,8.4-2.7,14.5c1.3-3.4,5.9-7.5,7.9-8.3C269.3,322.7,265.4,322.1,263.9,321.7"/>
	<path fill="#C4CED4" d="M279,324.1c-0.8,0.1-1.6,0.5-2.6,1.2c-1.7,3.1-4.7,8.8-1.8,14.5c1.3-3,6.4-8.1,9.7-9.7
		C283.8,326.8,280.8,323.8,279,324.1"/>
	<path fill="#C4CED4" d="M94.8,268.4c0.6-1.5,0.6-2.7,0.6-2.7c-1.7,1.5-6.9,2.1-6.9,2.1c1,3.1-1.2,8.3-2.2,10
		C91.9,275.5,94.3,269.9,94.8,268.4"/>
	<path fill="#C4CED4" d="M94.9,207.8c0.3-4,1.8-12.2,3.4-17.2c0-0.1-13.4-4.6-13.4-4.6l-2.1-7.6l17.7,6.2c2.9-7.9,7.6-15,7.6-15l0,0
		c2-3.2,7.4-10.5,10-13c0,0-7.4-7.5-7.4-7.5c1.1-2,4.7-4.6,4.7-4.6s7.3,7.5,7.3,7.5c4.1-3.9,10.1-8.1,12.2-9.5l0,0
		c5.5-3.7,12.7-7.2,20.1-9.7c0.1,0-5.9-3-5.9-3l-1.6-4.9l11.3-4.9l5.1-7l-6.8-18l-7.2-1.6c-6.1,1.5-20.3,6.6-29,11.7l6.7,4.6
		l9.2,25.2l-1.6,6.9l-3.8-0.5L110,119.6l-10,0c-5.5,4.6-14.4,13.2-21.1,22.9l6.6,0.7l21.2,21.5l0.7,5l-4.3,1.2L85,165l-5,4l-1.6-6.1
		l-16.2-5.5l-6.9,2.6c0,0-6.3,13.5-9.6,31.3l7.3-2.1l37.3,13L94.9,207.8z M144.7,104l2.5,0.6l3.3,9l-1.8,2.3l-4.6,1.9l-4.3-12
		L144.7,104z M104.5,143l-7.7-8.1l3.7-3.6l2.1,0.2l6.6,7C109.2,138.4,106.4,140.6,104.5,143 M58.6,177.2c0,0,0.7-2.3,1.1-3.3
		c0.5-1.4,1.1-2.9,1.1-2.9l12,4l1.8,7.7L58.6,177.2z"/>
	<path fill="#C4CED4" d="M176.3,123.9l-4.2,5.4c0,0,5.4-0.8,10.7-0.7c5.3,0,11.2,0.8,11.2,0.8l-4.1-5.3l0.2-26.1l11.1,6.1l0.1-13.2
		c-9.4-1.6-23.9-2-35.9-0.2c0,0-0.1,13.2-0.1,13.2l11.2-5.9L176.3,123.9z"/>
	<path fill="#C4CED4" d="M205.9,131.8c6.1,1.8,16.1,6.4,16.1,6.4l9.6-0.8l11.2-27.8L237,102c-3-1.8-13.3-5.6-16.6-6.5l-9.7,1.2
		l-11.2,27.9L205.9,131.8z M222.1,104.9l7.1,2.8l-8.4,21.4l-7.1-2.8L222.1,104.9z"/>
	<path fill="#C4CED4" d="M229.7,142.6c3.9,2.5,9.4,6.7,13.5,10.7c0.1,0.1,6.2-5.8,6.2-5.8l8.6,2l-9.9,9c5.1,5.5,9.1,12.1,10.3,14.3
		l0,0c5.5,9.2,9.7,22.2,10.7,31.4l23.3-7.9l4.9-23l6.4-2l2.7,8l-9,3l3.9,13.5l4.1-4.3l12.6-4.1c-2.7-12.6-7.3-25.1-12.4-35l-3.5,5.7
		l-14.7,4.8l-5.3,24.5l-7.3,2.5l-2.7-7.9l8.2-2.9l-5-14.6l-3.4,3.8l-13.1,4.4l0.5-6.2l8.1-8l-0.2-6.8l5.8,1.2l8-7.6l0.6-7.2
		c0,0-11.3-14.1-23.7-23.3l-0.1,7.2l-21.1,19.4L229.7,142.6z M265.2,132.4l4.9,5.1l-6.4,6.2l-8.1-2.3L265.2,132.4z"/>
	<path fill="#C4CED4" d="M180.8,152c-0.1,0-0.1,0-0.2,0c-0.3,0-0.6,0-0.8-0.1c-1.6-0.5-2.6-2.5-4.9-3.9c0,0-0.1-0.1-0.1-0.1
		c-0.2-0.1-0.3-0.2-0.5-0.3l0-0.2c-0.8,0.4-1.4,1.1-1.9,1.9c0,0.1-0.1,0.1-0.1,0.2c-0.1,0.1-0.2,0.3-0.2,0.5c-0.1,0.3-0.3,0.6-0.4,1
		c-0.1,0.2-0.1,0.4-0.2,0.7c0,0.2-0.1,0.3-0.1,0.5c-0.1,0.2-0.1,0.5-0.1,0.7c0,0.2-0.1,0.4-0.1,0.7c0,0.1,0,0.2,0,0.3
		c0,0.3,0,0.7,0.1,0.9c-0.4-0.4-0.7-0.8-1-1.3c0,0,0-0.1-0.1-0.1c-0.2-0.4-0.4-0.8-0.5-1.2c0,0,0-0.1,0-0.1
		c-0.1-0.4-0.2-0.8-0.2-1.1c0-0.1,0-0.1,0-0.2c0-0.3,0-0.5,0-0.8c0-0.2,0-0.4,0-0.5c0,0,0,0,0,0c0.1-0.9,0.4-1.8,0.7-2.5l-0.2,0
		c0,0,0,0,0,0c-0.2,0-0.5,0.1-0.7,0.1c-1.8,0.4-3.5,1.1-4.2,2.4c0,1,0.3,1.8,0.8,2.5c0.7,1.1,1.6,1.7,1.6,1.7l0,0v0
		c1.1,0.6,2.4,1.1,4,1.4c2,0.3,4,0,5.8-0.6l0.1,0c0.3-0.2,0.6-0.3,1-0.5C179.4,153.3,180.6,152.5,180.8,152"/>
	<path fill="#C3002F" d="M273.8,271.9l0.1-0.3l-6.4-3.9l-0.2,0.6c-0.8,3-4,8.5-6.2,10.5c-4.4-2.7-6.4-6-8.2-9.3
		c-2.1-3.7-4.3-7.5-9.9-9.9l-0.3-0.1l-8,6.3l0.6,0.3c5.5,3.2,7.1,6.5,8.9,9.9c1.6,3.2,3.4,6.5,8.1,10.3c-3.8,3.6-15.2,9.2-23.1,9.7
		l-1.4,0.1l8.1,5c7.7-0.6,18.7-6.3,24.7-11.2C266.9,284.8,271.4,278.7,273.8,271.9"/>
	<path fill="#C3002F" d="M177.4,215.5l0.1,0.7c0.2,2.6,1.2,8.3,3.2,12.3c4.1,8.7,10.8,14.1,21.1,17c10.8,3.1,26.4-3.8,28.8-10.9
		l0.3-0.9l-1.1,0.3c-2.6,0.8-5.5,1-8.6,0.6l-0.2,0l-0.3,0.1c-5.7,4.7-16.2,6.2-26.1-1.3c-4.9-3.8-8.5-9.5-10.1-15.5l-0.1-0.2
		l-5.3-1.6L177.4,215.5z"/>
	<path fill="#C3002F" d="M159,264.5c-9.2-6.3-14.5-7.9-18.5-8.7l-0.2,0l-6.5,6.2l0.9,0.2c6.3,1.1,12.1,3.5,19.4,8.2
		c7,4.7,12.7,11.2,17.5,20l0.2,0.4l7-3.5l-0.2-0.4C173.8,277.5,167.6,270.4,159,264.5"/>
</g>
</svg>
