<?xml version="1.0" encoding="utf-8"?>
<!-- Generator: Adobe Illustrator 16.0.0, SVG Export Plug-In . SVG Version: 6.00 Build 0)  -->
<!DOCTYPE svg PUBLIC "-//W3C//DTD SVG 1.1//EN" "http://www.w3.org/Graphics/SVG/1.1/DTD/svg11.dtd">
<svg version="1.1" id="Layer_1" xmlns="http://www.w3.org/2000/svg" xmlns:xlink="http://www.w3.org/1999/xlink" x="0px" y="0px"
	 width="400px" height="400px" viewBox="0 0 400 400" enable-background="new 0 0 400 400" xml:space="preserve">
<g>
	<path fill="#B3B2B1" d="M85.5,200.4c0,10,1.3,20,3.5,29.7c-4-0.9-10.3-2.4-10.3-2.4l-61.2,13.8l5.7,6c4.2,4.4,6.8,10.9,7.1,12.3
		c0-0.3-1.6,8.8-1.6,8.8c-2.3,10-5.5,23.8,5.3,34.5c17.5,16.6,45.6,19.2,64.5,13.2c2.4-0.8,14.1-6,34.4-15.2
		c23.9,20.1,54.1,31.3,85.4,31.3c66.5,0,122.2-48.7,131.3-113.8c3.7-1,14.9-3.9,14.9-3.9l1-1.8l17.8-33c0,0-20.5-3.4-23.4-3.9
		c5.4-8.5,19.7-31,19.7-31l-22.9-8.3c0,0-16.1,2.2-20.7,2.8c-23-43.9-67.7-71.1-117.6-71.1C145,68.4,85.5,127.6,85.5,200.4"/>
	<path fill="#0D2240" d="M376,183.4l-18.7-3.1l-4.3,2.2l-1.4-2.3l20.9-32.8l-16.3-5.9l-22.7,3c-20.8-42.3-64.6-71.5-115.2-71.5
		c-70.8,0-128.1,57-128.1,127.3c0,10.6,1.3,21,3.8,30.9l-1.6,4.4l-13.6-3.1l-52.1,11.8c5.4,5.6,8.4,13.9,8.3,15.2
		c0,10.3-10.1,27.9,2.4,40.4c15.6,14.8,41.8,17.8,59.8,12c3.3-1.1,27.4-12.1,36.3-16.1c22.6,19.9,52.3,32,84.9,32
		c65.9,0,120.1-49.4,127.3-112.9c5.6-1.5,10.8-2.9,15.7-4.1L376,183.4z"/>
	<path fill="#FFA400" d="M144.3,144.3l4-0.5l13.1-15l3.5,4.2l11.7-15.3C163.9,124.1,152.9,133.2,144.3,144.3 M182.9,115l6.3,8.1
		l9.3-12.8C193.1,111.3,187.9,112.9,182.9,115 M294.6,152.4l0.7-1.4c-4.2-6.7-9.3-12.8-15.1-18.1l6.4,8.9
		C286.6,141.8,290.1,145.9,294.6,152.4 M262.9,123l8.8,11.1l4.3-5c-9.1-7.5-19.8-13.3-31.4-16.9l13.1,16.9L262.9,123z M238.3,110.6
		c-3.1-0.7-6.4-1.3-9.6-1.7l5,7.4L238.3,110.6z"/>
	<path fill="#FFA400" d="M355.4,191.7c-2.9,0.7-12.7,2.8-16.3,3.5l4.4-7.2l5.6-4l-2.1-4.4l19.1-30.8l-56.4,9.1l-12.8,21.3l14.3-4.8
		l12.1-1.9l-5.7,9l-8.4,4.7l1.6,7L292.7,225l65.9-18.6l11.5-20.6C370.2,185.8,355.8,191.5,355.4,191.7 M144.8,227.1l6.3-7.2
		l-1.5-6.6l16.3-47.2l12.7-13.9l-53.4,6.3l8.9,10.5l-20.1,48.6l-7.1,7.6l2.9,5.8l-18.1,53c-3.5,1.2-9.2,2.6-10.6,1.5
		c-1.6-1.3-2.6-2.1-0.1-9.5c0,0,6.4-18.4,6.4-18.4C87.7,257,98,241.9,98,241.9l-47.8,11.8c0,0,4.2,5.8,4,8.4l-5,17.5
		c-2.5,11.2,2.4,17.4,7.5,22.1c5.5,5,21.7,12.1,43.3,3.6c3.5-1.4,28.7-13.1,28.7-13.1s-2.4-3.9-3.2-8.1L144.8,227.1 M195.9,225.2
		l-7.9,2.6l9-19.4L195.9,225.2 M288.1,208.1l-15.8,4.8l4.6-11.1l6.7-4.9l-2.4-4.7l16.2-32.4l-57.3,8.8l-12.6,22.9l15.2-5.2l15.3-2.5
		l-6.7,11.2l-5.9,3.9l0.6,6.4l-20.4,39.2c-1.4-1.4-3.4-3.8-3.4-5.3l2-27.7l4.6-6.4l-4.3-5.6l-0.1-15.8l6.9-13.7l-55.5,8.7l1.8,10
		l-9.7,19.1l-6.9,6.9l1.1,6l-24.7,57.2l37.3-14.9l5.8-15.4l14.2-4.7l-2.2,14.8l33.3-11.8l63.5-19.9l14-24.4L288.1,208.1"/>
	<path fill="#FFFFFF" d="M133.4,161.6l36.7-4.8l-7.7,7.4l-17.4,49.3l1.3,5.2l-4.8,5.6l-20.4,59.2c0,0,0.6,5.6,1.6,6.7
		c-5.3,2.4-18.3,8.9-24.3,11.2c-20.1,8-34.5,1.2-39-2.8c-5.5-5-8.1-9.9-6.2-18.1c0.8-3.7,1.1-4.3,2.1-7.8c1-3.3,1.9-6.5,2.8-9.3
		c0.8-2.5-0.6-5.5-1.5-6.9l32.7-8c-0.9,1.6-5,5.5-5.9,7.9l-6.4,18.4c-2.9,8.4-2.1,11.3,1.5,14.2c5.2,4.1,16.5-1.8,16.5-1.8
		l19.2-56.2l-2.2-5l5.5-5.6l21.2-52.5L133.4,161.6z"/>
	<path fill="#FFFFFF" d="M241.2,181.9l24.8-3.9l-11,19.4l-5.2,3.3l0.6,4.5l-17.2,33.3l53.4-16.6l6.9-11.7l-5.8,2.7l-22.8,6.4
		l8.4-19.8l5.1-3.8l-2.1-3.6l13.3-27c0,0-40.7,5.6-46.3,6.7l-6.9,11.8L241.2,181.9z"/>
	<path fill="#FFFFFF" d="M199.5,228.4l-18.6,5.9l20.7-44L199.5,228.4z M220.3,183l4.2-8.1l-43.7,6.8l1.2,7.6L170.4,211l-5.2,4.6
		l1,5.2L145,270.4l26.3-10.5l5.8-15.6l22.3-7.4l-1.9,14l21.9-7.1c0,0-1.5-1.8-1.3-3.5l1.7-30.8l3.5-4.3l-3.1-3.8L220.3,183"/>
	<path fill="#FFFFFF" d="M356.4,195.7c-6.8,1.5-26,5.6-26,5.6l9.5-15l4.3-3.3l-1.6-3.5l15.6-25.1l-45.8,7.3l-6.3,10.5
		c0.3-0.1,3.3-1.4,3.7-1.5c2.7-0.6,23.1-3.9,23.1-3.9l-12.5,18.2l-5.7,3.5l0.9,4.2l-13.8,24.8c0,0,44-12.5,54.3-14.6l5.7-9.3
		C361.7,193.5,357.6,195.4,356.4,195.7"/>
	<path fill="#FFFFFF" d="M160.7,142.6l26.3,8.4l-14.8,14.5l9.9-1.5c8-7.8,16.6-16.2,16.6-16.2l4.4,4.7l8.3-5.1l6.9-16
		c0,0,10.1,13.4,17.5,25.8l3.7-0.5l-9-14.5l3-21.8l7.3-9.1c0.1,2.4-0.1,6.4,0.2,8.4l-1.9,2.7c2.6,3.7,5.2,6.7,7.8,10.5l-9.6,10.3
		l3.9,6.8l7.9-6.8l12.9,10.6l22.8-2.9l8.9,3.1l0.8-1.6c-4.5-6.5-8-10.6-8-10.6l-9.8-13.6l-5.1,6l-8.8-11.1l-5.2,6.2l-16.9-21.8
		l-7.1,8.9l-19.2-28.2L189.2,123l-8.4-10.7l-15.9,20.8l-3.5-4.2l-13.1,15l3.5-0.5l9.6-10.8L160.7,142.6z"/>
	<path fill="#2B5134" d="M276.6,132l0.2,6.4l3.2,4.6c-0.7,0.5-1.2,2.1-2.3,2.3c-3.2-4-4.8-6.1-5.9-7.6L276.6,132z"/>
	<path fill="#2B5134" d="M260,135.1c-0.7-0.8-1.3-1.7-2-2.5l4.9-5.8c2.3,10.3,3.1,15.8,5,26.2l-10.7-8.7L260,135.1z"/>
	<path fill="#2B5134" d="M233.5,120.3l7.3-9.1c0.1,2.4-0.1,6.4,0.2,8.4l-1.9,2.7c2.6,3.7,5.2,6.7,7.8,10.5l-9.6,10.3l3.9,6.8
		l7.9-6.8l12.9,10.6l-22.5,2.9l-9-14.5L233.5,120.3z"/>
	<path fill="#2B5134" d="M214.4,92.3c-1.8,10.3-2.8,24-4.6,33.7l3.6,5.1l-12.8,9.7l-11.2-13.9L214.4,92.3z"/>
	<path fill="#2B5134" d="M198.7,147.8l4.4,4.7l8.3-5.1l6.9-16c0,0,10.1,13.4,17.5,25.8l-11.5,1.5l-1.5,3.3l-8.6-2.7l-32.1,4.8
		C190.1,156.2,198.7,147.8,198.7,147.8"/>
	<path fill="#2B5134" d="M180.8,116.2c-0.3,3.1,0,7.8,0.2,11.5c0.8,1.7,2.6,2.7,3,4.4l-10.3,14.5l-8.7-9.7L180.8,116.2z"/>
	<polygon fill="#2B5134" points="161.4,132.5 160.7,142.6 159.7,142.2 151.8,143.3 	"/>
	<path fill="#2B5134" d="M163.3,273.4l14.4-5.9l4.7-11c0,0,9.2,6.8,9.2,6.7c32.1-12.1,70.5-24.1,70.5-24.1s0.2,6.8-0.4,11.1
		c-11.8,0-23.6,7.1-35.8,14.4c-16.5,9.9-33.6,20.2-53.4,15.4C169.3,278,163.3,273.4,163.3,273.4"/>
	<path fill="#2B5134" d="M236.9,290.3c-12.6,2.8-26.1,2.9-39.5-0.4c-5.5-1.3-10.5-3-15.2-5c17,0.2,32.1-8.9,45.7-17.1
		c11.8-7.1,22.6-13.6,33.2-13.7C259.7,260.8,254,281.4,236.9,290.3"/>
	<path fill="#2B5134" d="M247.5,287.2c8.3-7.8,14.5-19.3,17.3-32.8c0-0.1,0-0.1,0-0.2c5.9,0.8,11.7,3.7,17.6,9.8
		C272.7,274.5,260.8,282.4,247.5,287.2"/>
	<path fill="#2B5134" d="M285,261.3c-6.5-6.7-13-9.9-19.5-10.8c0.7-4.6,0.8-8.9,0.3-12.5c6.6-2.1,35-10.6,37.8-11.5c0,0,0,0,0,0
		C299.9,239.7,293.4,251.5,285,261.3"/>
	<path fill="#FFFFFF" d="M303.7,226.5c-3.8,13.2-10.3,25-18.7,34.8c-6.6-6.7-13-9.9-19.5-10.8c0.7-4.6,0.7-8.9,0.3-12.5
		c-1.2,0.4-2.4,0.8-3.6,1.1c0,0,0.2,6.8-0.4,11.1c-11.8,0-23.6,7.1-35.8,14.4c-16.5,9.9-33.6,20.2-53.4,15.4c-3.2-1.9-9-6.5-9.2-6.6
		c-2.2,0.9-3.8,1.6-3.9,1.5c10.6,8.7,23.2,15.2,37.2,18.5c49.4,12,98.7-18.5,112.1-68.5C307.1,225.5,305.4,226,303.7,226.5
		 M236.9,290.3c-12.6,2.8-26.1,2.9-39.5-0.4c-5.5-1.3-10.5-3-15.2-5c17,0.2,32.1-8.9,45.7-17.1c11.8-7.1,22.6-13.6,33.2-13.7
		C259.7,260.8,254,281.4,236.9,290.3 M247.5,287.2c8.3-7.8,14.5-19.3,17.3-32.8c0-0.1,0-0.1,0-0.2c5.9,0.8,11.7,3.7,17.6,9.8
		C272.7,274.5,260.8,282.4,247.5,287.2"/>
	<path fill="#FFFFFF" d="M147.6,109.2c-1.1-1.7-2.2-3.4-3.3-4.9c0.6-0.3,1.2-0.5,1.8-0.8c0.5-0.3,1.1-0.6,1.7-1
		c0.6-0.3,1.1-0.7,1.6-1.1c0.5-0.4,1-0.8,1.5-1.2c0.2,0.5,0.4,1,0.8,1.7c0.3,0.6,0.7,1.3,1.1,2c0.4,0.7,0.8,1.4,1.2,2.1
		c0.4,0.7,0.8,1.3,1.1,1.9l1.1,1.8c0.6,1,1.2,1.9,1.7,2.7c0.6,0.8,1.1,1.4,1.8,1.9c0.6,0.5,1.3,0.7,2.1,0.7c0.8,0,1.7-0.3,2.7-0.9
		c0.6-0.4,1.2-0.9,1.6-1.6c0.4-0.7,0.6-1.4,0.6-2.1c0-0.6-0.2-1.2-0.4-1.7c-0.2-0.5-0.5-1.1-0.9-1.7c-0.2-0.3-0.4-0.7-0.6-1
		c-0.2-0.3-0.4-0.6-0.6-1l-1.2-1.9c-0.7-1.1-1.4-2.3-2.2-3.5c-0.8-1.2-1.7-2.4-2.6-3.7c0.4-0.2,0.8-0.3,1.1-0.5
		c0.4-0.2,0.7-0.3,1.1-0.6c0.3-0.2,0.6-0.4,0.9-0.7c0.3-0.2,0.5-0.5,0.8-0.7c0.4,0.8,0.9,1.8,1.5,2.7c0.5,1,1.1,1.9,1.6,2.9
		c0.5,0.9,1,1.8,1.5,2.6c0.5,0.8,0.8,1.4,1.1,1.9c0.5,0.8,0.9,1.5,1.3,2.2c0.4,0.7,0.6,1.3,0.8,1.9c0.2,0.6,0.3,1.2,0.4,1.8
		c0.1,0.6,0,1.3-0.1,2c-0.2,1.4-0.8,2.6-1.7,3.7c-0.9,1.1-2.1,2.1-3.5,2.9c-2.9,1.7-5.4,2.4-7.6,2c-2.2-0.4-4.2-2.1-5.9-4.9
		C150,113,148.7,111,147.6,109.2"/>
	<path fill="#FFFFFF" d="M187.7,87c-0.9,0.3-1.8,0.5-2.7,0.9c0-0.6-0.1-1.2-0.2-1.8c-0.1-0.3-0.1-0.5-0.2-0.8
		c-0.1-0.3-0.2-0.6-0.3-0.9c1.5-0.2,3.1-0.4,4.6-0.8c1.5-0.3,3-0.7,4.5-1c1.5-0.3,2.9-0.7,4.4-1c1.5-0.4,3-0.8,4.6-1.3
		c0,0.2,0,0.5,0.1,0.8c0,0.3,0.1,0.7,0.2,1c0.1,0.3,0.2,0.6,0.3,0.9c0.1,0.3,0.2,0.5,0.3,0.7c-1,0.1-1.9,0.2-2.8,0.4
		c-0.9,0.2-1.9,0.4-2.9,0.6c0.1,0.7,0.3,1.4,0.4,2.3c0.2,0.9,0.4,1.7,0.6,2.6l0.4,1.6c0.3,1.2,0.5,2.3,0.8,3.3c0.2,1,0.5,2,0.7,3
		c0.2,1,0.5,1.9,0.7,2.8c0.3,0.9,0.5,1.9,0.8,2.8c-1.1,0.1-1.9,0.3-2.5,0.3c-0.6,0.1-1,0.2-1.3,0.2c-0.8,0.2-1.6,0.4-2.1,0.6
		c-0.6,0.2-1,0.4-1.3,0.5c-0.1-0.6-0.2-1.2-0.3-1.9c-0.1-0.7-0.3-1.5-0.4-2.3c-0.1-0.8-0.3-1.6-0.5-2.4c-0.2-0.8-0.3-1.6-0.5-2.3
		l-0.6-2.7l-0.3-1.3c-0.2-0.8-0.4-1.6-0.6-2.6c-0.2-1-0.5-2-0.8-3C189.6,86.5,188.6,86.7,187.7,87"/>
	<path fill="#FFFFFF" d="M229.6,102.4c-0.3-0.2-0.7-0.3-1-0.4c-0.3-0.1-0.7-0.2-1-0.3c-0.3-0.1-0.7-0.1-1-0.1c-0.3,0-0.7,0-1,0
		l2.6-3.7c0.4-0.5,0.9-1.2,1.4-1.9c0.5-0.7,1.1-1.5,1.6-2.3c0.6-0.8,1.2-1.7,1.8-2.6c0.6-0.9,1.2-1.8,1.8-2.7
		c0.3-0.5,0.7-1.1,1.2-1.8c0.4-0.7,0.9-1.4,1.3-2c0.4-0.7,0.8-1.3,1.1-1.8c0.3-0.5,0.6-0.9,0.7-1.1c0.3,0.2,0.7,0.3,1,0.4
		c0.4,0.1,0.7,0.2,1,0.3c0.4,0.1,0.7,0.1,1.1,0.2c0.4,0,0.7,0,1.1,0c0.1,0.8,0.2,1.7,0.3,2.7c0.1,1.1,0.3,2.2,0.5,3.3
		c0.2,1.2,0.3,2.3,0.5,3.5c0.2,1.2,0.4,2.3,0.5,3.3c0.2,1.2,0.4,2.2,0.5,3.1c0.2,0.9,0.3,1.8,0.5,2.6c0.1,0.8,0.3,1.6,0.5,2.4
		c0.2,0.8,0.4,1.7,0.6,2.7c-0.6-0.2-1.2-0.5-1.9-0.6c-0.7-0.2-1.4-0.3-2-0.5c-0.7-0.1-1.3-0.2-2-0.3c-0.7-0.1-1.3-0.2-2-0.2
		c0-0.8-0.1-1.6-0.2-2.4c-0.1-0.8-0.2-1.5-0.3-2.3c-0.7-0.1-1.3-0.3-2-0.4c-0.7-0.1-1.3-0.3-2-0.4c-0.5-0.1-1.1-0.2-1.6-0.3
		c-0.5-0.1-1.1-0.2-1.6-0.3c-0.4,0.7-0.8,1.3-1.2,2C230.4,101,230,101.7,229.6,102.4 M233.3,95.8c0.2,0.1,0.4,0.1,0.7,0.2l0.7,0.1
		l1.3,0.3l1.3,0.3c0.2,0,0.4,0.1,0.7,0.1c0.2,0,0.5,0.1,0.7,0.1l-1.1-7.6L233.3,95.8z"/>
	<path fill="#FFFFFF" d="M265.2,100.5c0.3-0.6,0.7-1.2,1-1.8c0.4-0.6,0.7-1.3,1-1.8c0.3-0.6,0.5-1,0.6-1.2c0.4-0.6,0.7-1.3,1.1-2
		c0.4-0.8,0.8-1.6,1.2-2.5c0.5,0.3,1,0.7,1.5,1.1c0.6,0.4,1.1,0.8,1.6,1c0.5,0.3,1.1,0.6,1.7,0.9c0.6,0.3,1.2,0.6,1.7,0.8
		c-0.4,0.6-0.8,1.2-1.3,1.9c-0.4,0.7-0.8,1.3-1.3,2c-0.4,0.7-0.8,1.3-1.2,1.9c-0.4,0.6-0.7,1.2-1,1.7c0.4,0.3,0.9,0.5,1.3,0.8
		c0.5,0.3,1,0.6,1.6,0.9c0.5,0.3,1,0.5,1.5,0.8c0.5,0.3,1,0.6,1.6,0.9c0.3-0.5,0.6-1.1,1-1.8c0.4-0.6,0.7-1.3,1.1-2
		c0.3-0.7,0.7-1.4,1-2.1c0.4-0.7,0.7-1.4,1-2c0.5,0.3,1,0.7,1.6,1.1c0.6,0.4,1.1,0.7,1.6,1c0.5,0.3,1.1,0.6,1.7,0.9
		c0.6,0.3,1.2,0.6,1.7,0.8c-0.8,1.1-1.5,2.2-2.2,3.4c-0.7,1.2-1.6,2.6-2.5,4.2c-0.7,1.2-1.3,2.3-1.9,3.3c-0.6,1-1.1,2-1.6,2.9
		c-0.5,0.9-1,1.8-1.4,2.7c-0.5,0.9-1,1.8-1.5,2.8c-1.1-0.8-2.2-1.6-3.4-2.3c-0.5-0.3-1-0.6-1.6-0.8c-0.5-0.2-1.1-0.5-1.7-0.7
		c0.4-0.6,0.9-1.2,1.4-2c0.5-0.8,1-1.6,1.5-2.5c0.5-0.8,1-1.6,1.4-2.4c0.4-0.8,0.8-1.4,1.1-1.8c-0.5-0.3-1-0.6-1.5-0.9
		c-0.5-0.3-1-0.6-1.5-0.9c-0.5-0.3-1-0.5-1.5-0.8c-0.5-0.3-1-0.6-1.5-0.8c-0.3,0.5-0.6,1.1-1.1,1.9c-0.4,0.8-0.9,1.6-1.3,2.4
		c-0.5,0.9-0.9,1.7-1.4,2.6c-0.4,0.8-0.8,1.6-1.1,2.2c-0.5-0.4-1-0.8-1.6-1.1c-0.5-0.4-1.1-0.7-1.7-1c-0.7-0.4-1.3-0.7-1.8-0.9
		c-0.5-0.2-1.1-0.5-1.6-0.7l0.9-1.3c0.3-0.4,0.6-0.9,1-1.4c0.4-0.6,0.8-1.2,1.2-1.9c0.4-0.7,0.8-1.4,1.2-2.1c0.4-0.7,0.8-1.4,1.2-2
		C264.7,101.5,264.9,101.1,265.2,100.5"/>
</g>
</svg>
