<?xml version="1.0" encoding="utf-8"?>
<!-- Generator: Adobe Illustrator 16.2.1, SVG Export Plug-In . SVG Version: 6.00 Build 0)  -->
<!DOCTYPE svg PUBLIC "-//W3C//DTD SVG 1.1//EN" "http://www.w3.org/Graphics/SVG/1.1/DTD/svg11.dtd">
<svg version="1.1" id="Layer_4" xmlns="http://www.w3.org/2000/svg" xmlns:xlink="http://www.w3.org/1999/xlink" x="0px" y="0px"
	 width="400px" height="400px" viewBox="0 0 400 400" enable-background="new 0 0 400 400" xml:space="preserve">
<g>
	<path fill="#FFFFFF" d="M368.25,31.513c-12.947,0-23.434,10.485-23.434,23.434c0,9.519,5.688,17.705,13.857,21.372
		c0.229,0.15,0.429,0.297,0.647,0.404c-0.266,0.435-1.084,1.117-1.556,1.337c-2.307-1.135-4.729-2.126-7.096-3.167l-3.087,2.314
		c-2.409,1.874-4.209,3.952-5.536,5.879c0,0-32.11,4.77-60.235,11.093l-6.906-16.029c-0.084-0.161-4.623-10.769-10.176-19.696
		l-2.838-4.549l-5.029,1.859c-0.449,0.182-11.871,4.413-25.963,15.64l-5.002,4.206c-2.984,2.632-6.036,5.566-9.078,8.835
		l-5.229,5.96c-1.952,2.358-3.877,4.896-5.772,7.547l-5.554,8.07h-0.017l-9.184,12.717c-7.409,2.56-15.157,5.375-23.178,8.561
		l-0.465,0.175c0,0-8.057,3.238-12.109,4.941c0,0-8.462,3.715-9.85,4.323c2.073-3.485,4.211-6.709,6.059-8.723l2.62-2.907
		c0,0-5.623-15.864-7.426-20.952l2.592-3.031c2.855-0.86,16.484-5.381,16.484-5.381l-2.285-13.769
		c-0.026-0.1,2.403-2.682,5.032-5.483l-0.384,13.525c-0.05,1.601,1.018,3.012,2.577,3.422c0.285,0.072,0.575,0.107,0.856,0.107
		c1.267,0,2.458-0.7,3.055-1.868l7.528-14.611l8.023,8.825c1.106,1.216,2.941,1.482,4.34,0.623c1.413-0.867,2.006-2.609,1.413-4.15
		L190.4,67.777l25.667-14.853c1.488-0.87,2.11-2.706,1.449-4.29c-0.659-1.597-2.407-2.457-4.064-2.001l-18.072,4.868l5.175-9.342
		c0.8-1.427,0.484-3.208-0.759-4.278c-1.255-1.065-3.068-1.099-4.357-0.097l-8.708,6.826l2.865-16.011
		c0.307-1.726-0.729-3.391-2.407-3.893c-1.681-0.497-3.46,0.338-4.137,1.962l-6.578,15.572l-5.251-7.472
		c-0.95-1.348-2.713-1.827-4.228-1.148c-1.5,0.676-2.309,2.322-1.926,3.925l3.356,14.16l-15.526-2.147
		c-1.644-0.223-3.22,0.756-3.734,2.322c-0.518,1.578,0.169,3.304,1.626,4.099l12.762,7.029l-4.427,0.951
		c-9.043,0.768-17.009,2.638-19.641,3.509c-4.676,1.548-11.427,3.216-21.92,9.403c-4.809,2.824-9.378,5.896-13.713,9.171
		l-10.809,9.067c-7.657,6.68-16.003,17.327-16.188,17.55c-12.116,15.69-20.536,33.477-24.832,51.944c0,0-3.188,12.944-3.326,28.401
		c-0.113,13.491,2.258,26.963,6.954,39.833c-0.005-0.021,1.271,3.103,2.106,5.152l-0.018,0.028l-1.812,1.756
		c-5.028,5.438-10.059,11.414-14.939,17.686c-10.69,13.721-20.595,29.029-27.65,44.426c-7.774,16.968-2.085,21.103-2.085,21.103
		l48.497-40.898l0.392-0.326c3.128-2.809,13.546-10.952,14.897-11.944l1.397-1.235l0.294-0.35c0.375,0.494,0.211,0.426,0.603,0.871
		c8.663,9.857,18.93,17.162,26.814,21.771c7.89,4.61,18.926,9.823,29.148,12.671c0.392,0.121,18.924,5.503,37.969,5.059
		c23.027-0.528,46.063-5.84,70.532-21.093c24.953-15.557,24.301-24.658,23.463-27.151c-0.062-0.136-0.114-0.209-0.114-0.209
		s-7.391,3.079-11.752,4.669c-9.469,3.459-30.459,8.401-46.825,8.401c-0.689,0-1.371-0.032-2.057-0.054l120.884-157.447l7.158-2.12
		c16.469-4.938,26.086-8.981,32.885-14.983c3.367-2.984,5.76-6.48,7.526-10.113c1.854-3.806,4.29-11.834,4.29-11.834
		c0.232-0.101,1.641-0.784,2.063-1.087c7.355-3.938,12.351-11.705,12.351-20.639C391.667,41.998,381.189,31.513,368.25,31.513
		 M200.066,259.509l-0.117,13.559c-15.905-0.741-31.758-4.285-46.05-9.963c-7.235-2.87-15.874-7.92-15.961-7.977
		c-5.739-3.477-11.661-8.054-16.335-12.444c5.387-2.323,27.757-10.452,47.117-16.307c20.67-6.255,38.243-10.181,39.054-10.328
		C203.139,231.806,200.23,246.752,200.066,259.509 M241.483,103.469l0.109-1.269l2.622-4.199
		c3.663-5.874,7.265-10.487,13.493-17.019c2.422,1.553,5.364,3.55,7,4.885l11.698,9.501
		C273.339,96.06,247.17,102.052,241.483,103.469"/>
	<path fill="#0D2240" d="M95.319,198.354c-0.029-0.121-0.034-0.218-0.061-0.328c-2.741-13.664-2.913-27.72-0.743-41.463
		c0.023-0.171,0.064-0.352,0.1-0.527c-6.334,6.581-13.107,11.394-19.78,13.869c-1.308,12.986,0.482,24.488,1.264,30.065
		c0.746,5.318,3.626,15.542,4.509,18.59c5.383-4.071,11.182-8.167,17.189-12.066L95.319,198.354z"/>
	<path fill="#0D2240" d="M72.569,204.734c-2.075-9.952-3.11-18.664-2.011-33.138c-6.146,1.932-9.495,0.231-11.279-1.772
		c-0.159-0.179-0.282-0.376-0.436-0.574c-0.013,0.123-0.043,0.244-0.059,0.359c-3.284,17.082-2.766,34.648,2.001,51.46l3.558,10.828
		c3.793-3.401,8.118-7.018,12.823-10.69C76.645,219.622,74.032,211.746,72.569,204.734"/>
	<path fill="#E31837" d="M256.702,72.585c0,0,8.059,4.854,12.154,8.17c0,0-4.529-10.505-9.708-18.827
		c0,0-28.059,10.349-49.821,42.44l26.686-5.496C241.574,89.271,246.284,83.026,256.702,72.585 M231.659,93.778l-3.639,3.049
		l0.837-4.504l-4.208-2.307l4.824-0.651l1.032-4.492l2.144,4.108l4.856-0.474l-3.511,3.199l1.964,4.189L231.659,93.778z
		 M56.755,248.278c-13.847,15.66-26.862,34.307-37.478,56.465c-1.465,2.94-2.158,4.582-2.158,4.582l38.793-32.603
		c2.282-2.003,10.7-8.843,11.107-9.134c22.253-17.097,49.812-31.438,91.019-44.468c7.75-2.645,14.896-4.83,21.261-6.632
		c-3.463-9.962-8.063-23.085-13.018-37.163C128.102,189.383,85.031,219.091,56.755,248.278 M234.237,165.38
		c-0.186,0.375-0.362,0.759-0.544,1.131c-14.998,32.71-26.815,68.408-27.037,93.057l80.137-104.381L234.237,165.38z
		 M268.498,103.941c-7.852,11.268-16.684,26.167-25.15,42.673l58.751-11.363l34.252-44.608
		C326.75,92.094,300.841,96.35,268.498,103.941 M101.15,190.008c0.624,2.841,1.369,2.062,1.369,2.062
		c26.371-16.556,50.828-25.622,58.336-28.201c-2.167-6.122-7.603-21.509-8.167-23.103c-7.542,3.268-14.921,6.605-21.998,10.272
		c0,0,8.471-19.119,15.938-27.42c-5.233-14.776-9.521-26.88-11.662-32.883c-7.52,8.027-43.241,49.108-34.336,96.457L101.15,190.008z
		"/>
	<path fill="#0D2240" d="M103.164,271.479c-1.47,1.317-2.254,3.025-2.374,5.164c-0.105,2.041,0.403,4.245,1.221,6.279
		c0.136,0.097,0.277,0.18,0.42,0.271c10.321,6.833,21.792,11.875,33.906,15.059c0.415,0.118,0.84,0.23,1.268,0.342
		C123.667,291.763,112.327,282.104,103.164,271.479"/>
	<path fill="#0D2240" d="M100.227,267.939c-2.545-3.178-4.878-6.383-7.055-9.64c-3.874,2.401-7.562,4.848-11.092,7.369
		c4.396,4.855,9.171,9.285,14.3,13.203c0.084,0.061,0.183,0.152,0.285,0.218c-0.116-0.961-0.169-1.941-0.121-2.897
		C96.683,273.674,97.503,270.505,100.227,267.939"/>
	<path fill="#0D2240" d="M153.72,268.446c-0.715-0.291-1.434-0.6-2.147-0.881c-17.737-4.288-36.551-3.213-44.683,1.525
		c13.502,15.368,31.795,28.482,56.248,33.164c0.605,0.02,1.224,0.02,1.82,0.027c25.35,0.598,51.825-6.292,75.822-21.434
		c6.107-3.838,11.791-8.064,17.092-12.613C226.632,281.681,186.474,281.195,153.72,268.446"/>
	<path fill="#0D2240" d="M208.97,190.118c-5.777-21.906-0.223-44.692-0.223-44.692c-10.121,12.977-21.02,47.93-21.02,47.93
		c-2.331-31.381,8.793-54.177,17.518-72.429c-14.325,4.627-30.45,10.405-47.38,17.562c9.47,26.769,20.257,57.403,26.854,76.398
		c2.907-0.833,5.49-1.545,7.916-2.176l0.107-0.434c0,0,2.076-13.436,6.388-22.879c0.422,9.836,2.754,21.128,2.754,21.128
		c2.785-0.589,5.725-1.163,9.125-1.794c4.754-14.68,10.856-29.903,17.555-44.567c10.08-22.008,21.461-42.655,31.809-58.298
		c-4.197,0.973-13.032,3.083-25.121,6.282C211.236,154.668,208.97,190.118,208.97,190.118"/>
	<path fill="#0D2240" d="M358.272,85.44l-6.729-2.956c-4.836,3.605-6.701,9.581-6.701,9.581l-3.072,0.926l-11.082,14.283
		c32.379-9.591,35.189-15.835,40.183-32.229C364.46,80.86,360.888,84.728,358.272,85.44"/>
	<path fill="#0D2240" d="M217.687,120.515c2.361-2.157,9.792-5.562,9.792-5.562l-9.645,2.615
		C217.834,117.568,217.646,119.469,217.687,120.515"/>
	<polygon fill="#0D2240" points="228.021,96.829 231.659,93.777 235.967,95.895 233.995,91.704 237.506,88.507 232.642,88.981 
		230.504,84.875 229.476,89.363 224.649,90.016 228.854,92.318 	"/>
	<path fill="#0D2240" d="M227.408,108.084l-6.944-0.276l7.482-2.587C228.676,106.398,228.112,107.722,227.408,108.084
		 M229.956,110.997l5.338-1.827l-0.723-7.784l-21.913,5.682l-0.786,3.688c-0.568-1.717-0.613-2.267-1.149-2.324
		c-1.904-0.196-1.16,1.748-1.312,2.145c-0.158,0.4,0.749,4.129,1.963,4.583l0.099,3.161l5.5-1.726l2.295-1.888l9.659-1.983
		L229.956,110.997z"/>
	<path fill="#0D2240" d="M96.325,147.481c0.046-0.225,0.096-0.433,0.136-0.655c7.723-31.825,28.019-60.916,57.734-77.832
		c-6.392,1.729-13.276,3.442-23.697,8.591c-9.318,4.601-17.844,10.139-25.562,16.381c-0.322,0.262-0.659,0.515-0.981,0.771
		c-16.488,21.36-25.419,47.519-28.518,69.983C82.572,161.552,89.806,155.513,96.325,147.481"/>
	<path fill="#0D2240" d="M62.238,166.662c2.227,1.521,4.653,1.592,8.843-0.12c2.226-18.489,8.279-39.538,19.063-58.699
		c-0.292,0.314-0.564,0.64-0.846,0.963c-14.288,15.925-24.214,34.731-29.111,54.436c-0.042,0.154-0.094,0.328-0.132,0.494
		C60.433,164.839,61.101,165.892,62.238,166.662"/>
	<path fill="#0D2240" d="M96.873,256.049c2.155,3.193,4.472,6.357,6.998,9.463c6.808-4.527,19.72-6.134,33.377-4.944
		c-0.168-0.097-0.346-0.196-0.535-0.297c-7.301-4.257-13.953-9.266-19.739-14.965C109.729,248.793,103.065,252.36,96.873,256.049"/>
	<path fill="#0D2240" d="M163.256,70.254c-5.13,1.824-14.754,6.273-23.86,16.078c0.729,2.059,2.151,6.07,4.081,11.499l2.093-2.446
		c0,0,8.962-2.688,13.014-4.102l-1.492-11.568l5.336-5.712L163.256,70.254z"/>
	<path fill="#0D2240" d="M233.133,343.609c-0.031,0.694-0.639,3.096-1.08,3.657c-0.436,0.566-0.979,0.854-1.638,0.854h-8.976
		c-1.238,0-2.58,1.081-3.868,2.441l1.861-8.662h12.36C232.756,341.9,233.21,342.455,233.133,343.609 M237.626,364.506l-3.596-8.919
		c1.692-0.072,3.294-0.721,4.062-1.43c1.269-1.148,2.292-3.605,3.1-7.385c0,0,1.29-6.614,1.443-7.652
		c0.292-2.039-0.29-3.392-1.229-4.063c-0.919-0.671-2.646-1.015-5.18-1.015h-27.102c0,0,2.348,1.606,1.954,3.858l-6.221,28.711
		h6.567c1.292,0,2.276-0.101,2.898-1.02l2.094-9.724h8.143l3.644,10.739h11.743C239.947,366.607,238.253,365.761,237.626,364.506"/>
	<path fill="#0D2240" d="M183.293,353.124l4.978-10.374l2.154,10.374H183.293z M195.901,334.036h-10.161
		c-1.337,0.014-2.212,0.337-2.992,1.337l-14.495,28.096c-0.886,1.767-2.972,3.137-2.972,3.137h9.878
		c1.058-0.006,1.954-0.726,2.469-1.665l2.003-4.011h12.413l0.64,3.078c0.126,2.038-1.816,2.609-1.816,2.609h12.79L195.901,334.036z"
		/>
	<path fill="#0D2240" d="M271.059,343.603c-0.037,0.7-2.686,13.902-3.12,14.466c-0.436,0.573-0.98,0.87-1.627,0.87h-12.656
		l2.605-12.271c0.174-0.773,0.563-2.676,1.011-4.777h12.438C270.68,341.891,271.129,342.456,271.059,343.603 M280.591,339.117
		c0.285-2.037-0.292-3.388-1.228-4.058c-0.927-0.673-2.653-1.025-5.192-1.025h-27.299c0,0,2.209,1.7,1.96,3.888l-5.406,25.394
		c-0.608,1.687-2.166,3.074-2.616,3.29l26.61,0.079c3.14,0,5.342-0.578,6.585-1.705c1.271-1.155,2.293-3.621,3.1-7.392l2.913-15.161
		C280.364,340.793,280.436,340.148,280.591,339.117"/>
	<path fill="#0D2240" d="M316.732,334.012h-21.073c-4.332,0-7.324,0.584-8.986,1.76c-1.653,1.172-2.889,3.681-3.7,7.483
		l-0.662,3.232c-0.105,0.496-0.156,0.98-0.156,1.424c0,1.76,0.633,3.215,1.886,4.365c1.507,1.355,3.797,2.024,6.863,2.024h13.736
		c1.811,0,2.719,0.634,2.719,1.897c0,0.333-0.096,0.658-0.284,0.971c0,0-0.473,1.583-4.203,1.583h-19.707
		c-2.034-0.114-2.946-3.232-2.946-3.232l-1.672,8.548c-0.275,1.968,1.074,2.537,2.818,2.537h21.771c4.324,0,7.311-0.589,8.972-1.775
		c1.667-1.184,2.743-3.505,3.545-7.273c0,0,0.566-2.82,0.665-3.628c0.562-4.521-2.312-7.478-7.141-7.478H294.68
		c-1.976,0-2.947-0.618-2.947-1.855c0-0.031,0.089-0.509,0.095-0.552c0.262-0.782,0.531-2.192,3.44-2.192h18.876
		c2.113,0,3.475,2.933,3.475,2.933s1.08-5.305,1.672-8.141C319.632,334.991,318.462,334.012,316.732,334.012"/>
	<path fill="#0D2240" d="M117.491,334.101c-1.058,0-2.172,0.015-2.612,0.813l-11.289,22.854l-2.137-20.564
		c-0.103-1.937,2.464-3.089,2.464-3.089s-8.543-0.015-8.606-0.015c-1.447,0-2.644,0.363-3.422,1.51l-11.694,22.147l-0.825-20.703
		c0.295-1.61,2.665-2.907,2.665-2.907l-9.337-0.059c-0.039,0.012-0.071,0.012-0.141,0.012c-3.369,0.065-3.333,2.216-3.333,2.216
		l2.393,30.302h10.146c1.369,0,2.011-0.171,2.759-1.21l9.517-17.73l0.958,18.94h11.027c1.333,0,2.219-0.173,3-1.164l14.824-28.158
		c1.059-1.89,3.018-3.252,3.018-3.252S117.545,334.101,117.491,334.101"/>
	<path fill="#0D2240" d="M130.54,363.605c0,0,5.477-25.962,5.788-27.151c0.312-1.182,1.954-2.309,1.954-2.309
		c-0.912-0.04-5.113,0.032-8.871-0.04c0,0-1.851-0.342-2.641,3.887l-6.093,28.625l10.073,0.008
		C130.749,366.625,130.281,365.387,130.54,363.605"/>
	<path fill="#0D2240" d="M169.658,340.464l1.361-6.376c0,0-28.304,0.019-28.652,0.059c-2.028,0.227-2.812,1.649-3.314,3.305
		l-0.946,4.465h0.007l-0.423,1.845c0,0,1.818-1.705,3.824-1.845h14.937l-22.499,19.324l-1.117,5.378h28.397
		c1.592,0,2.703-0.185,3.249-1.83l1.726-8.207c0,0-1.844,2.098-3.888,2.202h-13.812L169.658,340.464z"/>
	<path fill="#E31837" d="M355.14,47.035c-1.187-0.843-0.333-2.462-1.28-0.91l-0.114,0.202c-1.254,2.048-1.996,4.284-2.286,6.73
		c-0.146,2.687,0.697,3.801,1.803,3.704l14-2.031l-0.751-5.198C359.638,50.367,355.14,47.035,355.14,47.035"/>
	<path fill="#E31837" d="M384.372,51.101c-0.701-2.873-2.104-5.389-3.983-7.419c-0.43-0.495-1.178-0.581-1.762-0.046
		c-2.375,2.55-4.372,4.575-10.565,5.656l0.761,5.21l14.335-2.086c0.658-0.056,1.021,0.145,1.465,0.674
		C385.068,53.624,384.397,51.215,384.372,51.101"/>
	<path fill="#0D2240" d="M378.503,41.952c0.013,0.011,0.023,0.019,0.038,0.028c0.005,0.007,0.025,0.021,0.025,0.021L378.503,41.952z
		"/>
	<path fill="#0D2240" d="M378.503,41.952c0-0.002-0.004-0.005-0.007-0.008L378.503,41.952z"/>
	<path fill="#E31837" d="M377.261,42.826c1.027-0.979,1.977-0.233,1.274-0.842c-0.079-0.06-0.395-0.306-0.395-0.318
		c-3.12-2.371-6.958-3.564-11.034-3.326c0,0-0.29,0.028-0.625,0.062l1.358,9.35C372.532,46.866,375.142,45.006,377.261,42.826"/>
	<path fill="#E31837" d="M364.1,38.766c-3.013,0.731-5.642,2.258-7.69,4.271c-0.95,0.913-0.966,2.507,0.32,3.228
		c2.779,1.369,6.588,2.053,9.554,1.728l-1.354-9.396C364.646,38.642,364.377,38.693,364.1,38.766"/>
	<path fill="#E31837" d="M358.975,67.156c-1.051,1.068-1.634,0.427-1.771,0.587c-0.131,0.148,0.744,0.699,0.744,0.699
		c2.959,2.263,6.619,3.474,10.477,3.39c0,0,0.708-0.019,1.3-0.083l-1.378-9.499C364.232,62.957,361.725,64.351,358.975,67.156"/>
	<path fill="#E31837" d="M372.04,71.363c0.697-0.158,1.38-0.373,2.039-0.633c1.91-0.73,3.737-1.888,5.078-3.084
		c1.333-1.187,0.804-2.618-0.01-3.082c-1.834-1.047-4.938-2.896-9.238-2.527l1.38,9.493C371.535,71.486,371.789,71.43,372.04,71.363
		"/>
	<path fill="#E31837" d="M380.618,63.59c0.472,0.354,0.646,0.894,0.659,1.235c0.022,0.499,0.07,0.647,0.795-0.487
		c0,0,2.331-3.151,2.741-8.284c0.105-1.433-1.35-2.115-2.264-1.962l-13.512,1.965l0.662,4.549
		C374.065,60.234,378.908,62.317,380.618,63.59"/>
	<path fill="#E31837" d="M352.948,58.394c-0.709,0.08-0.996-0.344-1.241-0.622c-0.29-0.395-0.202,0.209,0.065,1.255
		c0.688,2.744,1.988,5.179,3.726,7.149c0.518,0.5,1.675,0.51,2.202,0.016c2.362-2.618,5.259-4.463,10.447-5.363l-0.659-4.548
		L352.948,58.394z"/>
	<polygon fill="#E31837" points="214.382,49.93 188.456,56.914 197.585,40.465 181.785,52.843 186.224,27.964 177.242,49.264 
		168.413,36.725 172.931,55.784 152.418,52.944 170.093,62.498 163.251,70.252 162.421,74.007 172.122,71.827 171.593,90.125 
		181.405,71.094 192.761,83.6 186.165,66.263 	"/>
</g>
</svg>
